<?xml version="1.0" encoding="UTF-8" standalone="no"?>
<!-- Created with Inkscape (http://www.inkscape.org/) -->

<svg
   xmlns:dc="http://purl.org/dc/elements/1.1/"
   xmlns:cc="http://creativecommons.org/ns#"
   xmlns:rdf="http://www.w3.org/1999/02/22-rdf-syntax-ns#"
   xmlns:svg="http://www.w3.org/2000/svg"
   xmlns="http://www.w3.org/2000/svg"
   xmlns:xlink="http://www.w3.org/1999/xlink"
   xmlns:sodipodi="http://sodipodi.sourceforge.net/DTD/sodipodi-0.dtd"
   xmlns:inkscape="http://www.inkscape.org/namespaces/inkscape"
   version="1.0"
   width="16"
   height="16"
   id="svg2482"
   inkscape:version="0.47 r22583"
   sodipodi:docname="user-info.svg">
  <metadata
     id="metadata11">
    <rdf:RDF>
      <cc:Work
         rdf:about="">
        <dc:format>image/svg+xml</dc:format>
        <dc:type
           rdf:resource="http://purl.org/dc/dcmitype/StillImage" />
      </cc:Work>
    </rdf:RDF>
  </metadata>
  <sodipodi:namedview
     pagecolor="#ffffff"
     bordercolor="#666666"
     borderopacity="1"
     objecttolerance="10"
     gridtolerance="10"
     guidetolerance="10"
     inkscape:pageopacity="0"
     inkscape:pageshadow="2"
     inkscape:window-width="1280"
     inkscape:window-height="947"
     id="namedview9"
     showgrid="false"
     inkscape:zoom="14.75"
     inkscape:cx="-5.4237288"
     inkscape:cy="8"
     inkscape:window-x="0"
     inkscape:window-y="24"
     inkscape:window-maximized="1"
     inkscape:current-layer="svg2482" />
  <defs
     id="defs2484">
    <inkscape:perspective
       sodipodi:type="inkscape:persp3d"
       inkscape:vp_x="0 : 8 : 1"
       inkscape:vp_y="0 : 1000 : 0"
       inkscape:vp_z="16 : 8 : 1"
       inkscape:persp3d-origin="8 : 5.3333333 : 1"
       id="perspective13" />
    <linearGradient
       id="linearGradient3584">
      <stop
         id="stop3586"
         style="stop-color:#261502;stop-opacity:0.73384029"
         offset="0" />
      <stop
         id="stop3588"
         style="stop-color:#261502;stop-opacity:1"
         offset="1" />
    </linearGradient>
    <radialGradient
       cx="12.000143"
       cy="12.007693"
       r="9.936264"
       fx="12.000143"
       fy="12.007693"
       id="radialGradient3590"
       xlink:href="#linearGradient3584"
       gradientUnits="userSpaceOnUse"
       gradientTransform="matrix(0.87020979,-4.0607258e-8,4.3914597e-8,0.94108575,-1.8112115,-3.3002683)" />
    <inkscape:perspective
       id="perspective2847"
       inkscape:persp3d-origin="0.5 : 0.33333333 : 1"
       inkscape:vp_z="1 : 0.5 : 1"
       inkscape:vp_y="0 : 1000 : 0"
       inkscape:vp_x="0 : 0.5 : 1"
       sodipodi:type="inkscape:persp3d" />
    <radialGradient
       cx="0.56618649"
       cy="1.5350662"
       r="9.936264"
       fx="0.56618649"
       fy="1.5350662"
       id="radialGradient3590-5"
       xlink:href="#linearGradient3584-3"
       gradientUnits="userSpaceOnUse"
       gradientTransform="matrix(0.72778154,0,0,0.80513156,8.2193694,6.7640697)" />
    <linearGradient
       id="linearGradient3584-3">
      <stop
         id="stop3586-8"
         style="stop-color:#7d6c59;stop-opacity:1;"
         offset="0" />
      <stop
         id="stop4317"
         style="stop-color:#71604d;stop-opacity:1;"
         offset="0.59880239" />
      <stop
         id="stop3588-8"
         style="stop-color:#63523f;stop-opacity:1;"
         offset="1" />
    </linearGradient>
    <radialGradient
       r="9.936264"
       fy="5.1577358"
       fx="3.9348998"
       cy="5.1577358"
       cx="3.9348998"
       gradientTransform="matrix(0.99999999,1.8004231e-8,-1.9917751e-8,1.1062817,6.001364,5.2863983)"
       gradientUnits="userSpaceOnUse"
       id="radialGradient2857"
       xlink:href="#linearGradient3584-3"
       inkscape:collect="always" />
  </defs>
  <path
     d="M 7.4221161,15.713851 C 7.1414162,15.384784 7.0522876,14.718777 6.4830321,14.80392 5.6569271,14.875468 5.0100704,14.278367 4.3045698,13.956702 3.8282337,13.733317 3.2711729,13.956018 2.8012734,13.685931 1.7691356,13.192742 1.2880617,11.956656 1.4219437,10.89745 1.538661,10.048085 2.0576552,9.292764 2.7064136,8.745458 3.2687778,8.37434 3.9772056,8.299684 4.5859971,8.016897 5.0597488,7.873211 5.3942431,7.527238 5.7646963,7.232079 c 0.6227519,-0.3879 1.5021956,-0.505568 2.1321685,-0.03103 0.5479403,0.366118 1.1467867,0.6625 1.6750572,1.053311 0.4125569,0.434857 0.311765,1.070734 0.42885,1.605865 0.049,1.05107 0.505186,2.0303 0.689448,3.05827 0.150409,0.614939 -0.100527,1.212258 -0.448613,1.703911 C 9.8433446,15.200452 9.4168812,15.93736 8.6207354,16 8.2238011,15.98059 7.7258616,16.02112 7.4221161,15.713851 z m 4.5871359,-5.070018 c -0.251028,-0.458975 -0.436128,-1.104878 -0.07197,-1.55872 0.588127,-0.732966 1.316028,-1.34772 2.067094,-1.914065 0.342405,-0.306789 0.7238,-0.261551 1.22618,-0.02396 0.530119,0.250711 0.710031,0.869826 0.602558,1.398416 -0.156282,0.768637 -0.429367,1.604928 -1.225836,1.934235 -0.691468,0.290246 -1.465023,0.638374 -2.233156,0.444252 -0.151504,-0.03829 -0.291154,-0.145374 -0.364872,-0.280159 z M 2.4507475,6.808125 C 1.9514238,6.518286 1.5549276,6.042741 1.4699642,5.465719 1.3621004,4.733171 1.4949102,3.9464119 1.9923379,3.3816611 2.4355229,2.8784942 2.9951988,2.2667451 3.751174,2.3476453 4.4098463,2.367732 4.3698627,2.9717617 4.3741908,3.4358972 4.4342037,3.9598618 4.673527,4.44385 4.7854839,4.954592 c 0.01933,0.08818 0.021055,0.175643 0.00416,0.237245 C 4.633246,5.762056 4.2211099,6.246395 3.7846408,6.640284 3.4882277,6.992319 3.0267257,7.093093 2.573706,6.86896 l -0.1229609,-0.06083 -8e-7,0 z m 7.8856775,0.34836 C 9.8782934,6.913978 9.2252927,6.50506 9.4467276,5.917196 9.6540536,5.366787 9.9653382,4.861411 10.164504,4.303013 c 0.242949,-0.681151 0.698461,-1.6415391 0.997208,-1.9307105 0.479056,-0.4636992 1.271928,-0.4523126 1.91903,-0.3784392 0.790159,0.090205 1.184827,0.9275562 1.377398,1.609038 0.141952,0.5023497 0.202465,1.0562297 -0.08959,1.5025487 -0.374806,0.572786 -0.899748,1.046851 -1.431093,1.478838 -0.490262,0.398587 -1.108798,0.669159 -1.744286,0.767839 -0.299462,0.0435 -0.592365,-0.05569 -0.856749,-0.195642 z M 6.7781796,5.417159 C 5.9659156,4.656001 5.6217345,3.4782687 5.7759784,2.4175778 5.9201265,1.8127912 6.2778517,1.28725 6.6823438,0.8255336 7.0311035,0.4274342 7.4634293,0.0172526 8.0600735,0.0024634 8.6892553,-0.0131323 9.4207356,0.0339604 9.8735926,0.4790513 10.264742,0.8634935 10.535781,1.5585116 10.258957,2.0876016 9.7394188,2.9163412 9.2598543,3.7709679 8.876475,4.6717 8.6720455,5.060088 8.5338215,5.627801 8.0063123,5.68523 7.5900168,5.729356 7.1330656,5.653892 6.7781796,5.417159 z"
     id="path2463"
     style="opacity:1;fill:url(#radialGradient3590-5);fill-opacity:1;color:#000000;fill-rule:nonzero;stroke-width:1;stroke-linecap:butt;stroke-linejoin:miter;stroke-miterlimit:4;stroke-opacity:1;stroke-dasharray:none;stroke-dashoffset:0;marker:none;visibility:visible;display:inline;overflow:visible;enable-background:accumulate" />
</svg>
