<?xml version="1.0" encoding="UTF-8" standalone="no"?>
<svg
   xmlns:dc="http://purl.org/dc/elements/1.1/"
   xmlns:cc="http://creativecommons.org/ns#"
   xmlns:rdf="http://www.w3.org/1999/02/22-rdf-syntax-ns#"
   xmlns:svg="http://www.w3.org/2000/svg"
   xmlns="http://www.w3.org/2000/svg"
   xmlns:xlink="http://www.w3.org/1999/xlink"
   xmlns:sodipodi="http://sodipodi.sourceforge.net/DTD/sodipodi-0.dtd"
   xmlns:inkscape="http://www.inkscape.org/namespaces/inkscape"
   version="1.1"
   width="128"
   height="128"
   viewBox="0 0 128 128"
   style="overflow:visible;enable-background:new 0 0 128 128;"
   xml:space="preserve"
   id="svg2"
   sodipodi:version="0.32"
   inkscape:version="0.46"
   sodipodi:docname="fb-logo-CoF-3.svg"
   inkscape:output_extension="org.inkscape.output.svg.inkscape"
   inkscape:export-filename="E:\Furbuntu\Моя графика\fb-logo-CoF-3.png"
   inkscape:export-xdpi="180"
   inkscape:export-ydpi="180"><metadata
   id="metadata51"><rdf:RDF><cc:Work
       rdf:about=""><dc:format>image/svg+xml</dc:format><dc:type
         rdf:resource="http://purl.org/dc/dcmitype/StillImage" /></cc:Work></rdf:RDF></metadata><defs
   id="defs49"><inkscape:perspective
     sodipodi:type="inkscape:persp3d"
     inkscape:vp_x="0 : 64 : 1"
     inkscape:vp_y="0 : 1000 : 0"
     inkscape:vp_z="128 : 64 : 1"
     inkscape:persp3d-origin="64 : 42.666667 : 1"
     id="perspective53" /><linearGradient
     inkscape:collect="always"
     xlink:href="#XMLID_4_"
     id="linearGradient3284"
     gradientUnits="userSpaceOnUse"
     x1="1.367"
     y1="29.851837"
     x2="23.732"
     y2="78.54007" /><linearGradient
     y2="-6.2254333"
     x2="-15.286263"
     y1="7.1375623"
     x1="-10.638614"
     gradientTransform="translate(22.43465,4.820297)"
     gradientUnits="userSpaceOnUse"
     id="linearGradient3217"
     xlink:href="#linearGradient9233"
     inkscape:collect="always" /><inkscape:perspective
     sodipodi:type="inkscape:persp3d"
     inkscape:vp_x="0 : 24 : 1"
     inkscape:vp_y="0 : 1000 : 0"
     inkscape:vp_z="48 : 24 : 1"
     inkscape:persp3d-origin="24 : 16 : 1"
     id="perspective19" /><linearGradient
     id="linearGradient9233"><stop
       id="stop9235"
       offset="0"
       style="stop-color:#eeeeec;stop-opacity:1;" /><stop
       id="stop9237"
       offset="1"
       style="stop-color:#eeeeec;stop-opacity:0;" /></linearGradient><linearGradient
     inkscape:collect="always"
     xlink:href="#linearGradient9233"
     id="linearGradient16096"
     gradientUnits="userSpaceOnUse"
     gradientTransform="translate(22.43465,4.820297)"
     x1="-10.638614"
     y1="7.1375623"
     x2="-15.286263"
     y2="-6.2254333" /><linearGradient
     id="linearGradient2778"><stop
       id="stop2780"
       offset="0"
       style="stop-color:#ff0202;stop-opacity:1;" /><stop
       id="stop2782"
       offset="1"
       style="stop-color:#b20000;stop-opacity:1;" /></linearGradient><linearGradient
     id="linearGradient2796"><stop
       id="stop2798"
       offset="0"
       style="stop-color:white;stop-opacity:1;" /><stop
       id="stop2800"
       offset="1"
       style="stop-color:#dfdfdf;stop-opacity:1;" /></linearGradient><inkscape:perspective
     id="perspective28"
     inkscape:persp3d-origin="24 : 16 : 1"
     inkscape:vp_z="48 : 24 : 1"
     inkscape:vp_y="0 : 1000 : 0"
     inkscape:vp_x="0 : 24 : 1"
     sodipodi:type="inkscape:persp3d" /><linearGradient
     y2="-6.2254333"
     x2="-15.286263"
     y1="7.1375623"
     x1="-10.638614"
     gradientTransform="translate(22.43465,4.820297)"
     gradientUnits="userSpaceOnUse"
     id="linearGradient3366"
     xlink:href="#linearGradient9233"
     inkscape:collect="always" /><inkscape:perspective
     sodipodi:type="inkscape:persp3d"
     inkscape:vp_x="0 : 24 : 1"
     inkscape:vp_y="0 : 1000 : 0"
     inkscape:vp_z="48 : 24 : 1"
     inkscape:persp3d-origin="24 : 16 : 1"
     id="perspective3364" /><linearGradient
     id="linearGradient3358"><stop
       id="stop3360"
       offset="0"
       style="stop-color:#eeeeec;stop-opacity:1;" /><stop
       id="stop3362"
       offset="1"
       style="stop-color:#eeeeec;stop-opacity:0;" /></linearGradient><linearGradient
     inkscape:collect="always"
     xlink:href="#linearGradient9233"
     id="linearGradient3356"
     gradientUnits="userSpaceOnUse"
     gradientTransform="translate(22.43465,4.820297)"
     x1="-10.638614"
     y1="7.1375623"
     x2="-15.286263"
     y2="-6.2254333" /><linearGradient
     id="linearGradient3350"><stop
       id="stop3352"
       offset="0"
       style="stop-color:#ff0202;stop-opacity:1;" /><stop
       id="stop3354"
       offset="1"
       style="stop-color:#b20000;stop-opacity:1;" /></linearGradient><linearGradient
     id="linearGradient3344"><stop
       id="stop3346"
       offset="0"
       style="stop-color:white;stop-opacity:1;" /><stop
       id="stop3348"
       offset="1"
       style="stop-color:#dfdfdf;stop-opacity:1;" /></linearGradient><inkscape:perspective
     id="perspective3342"
     inkscape:persp3d-origin="24 : 16 : 1"
     inkscape:vp_z="48 : 24 : 1"
     inkscape:vp_y="0 : 1000 : 0"
     inkscape:vp_x="0 : 24 : 1"
     sodipodi:type="inkscape:persp3d" /><linearGradient
     inkscape:collect="always"
     xlink:href="#XMLID_4_"
     id="linearGradient3500"
     gradientUnits="userSpaceOnUse"
     x1="31.078154"
     y1="-10.60223"
     x2="40.239052"
     y2="64.485939" /><linearGradient
     inkscape:collect="always"
     xlink:href="#XMLID_3_"
     id="linearGradient3220"
     gradientUnits="userSpaceOnUse"
     x1="-1332.4691"
     y1="-1436.056"
     x2="2739.0889"
     y2="3313.9075" /><linearGradient
     inkscape:collect="always"
     xlink:href="#XMLID_3_"
     id="linearGradient3222"
     gradientUnits="userSpaceOnUse"
     x1="59.143181"
     y1="-26.543121"
     x2="79.01947"
     y2="54.517281" /><linearGradient
     inkscape:collect="always"
     xlink:href="#XMLID_3_"
     id="linearGradient2437"
     gradientUnits="userSpaceOnUse"
     x1="81.539497"
     y1="-26.543121"
     x2="101.37206"
     y2="53.784409" /></defs><sodipodi:namedview
   inkscape:window-height="746"
   inkscape:window-width="1024"
   inkscape:pageshadow="2"
   inkscape:pageopacity="0"
   guidetolerance="10.0"
   gridtolerance="10.0"
   objecttolerance="10.0"
   borderopacity="1.0"
   bordercolor="#666666"
   pagecolor="#000000"
   id="base"
   showgrid="false"
   inkscape:zoom="2.7289903"
   inkscape:cx="91.965639"
   inkscape:cy="98.76761"
   inkscape:window-x="0"
   inkscape:window-y="0"
   inkscape:current-layer="svg2" />
<path
   style="opacity:0.2;fill-rule:evenodd;clip-rule:evenodd;fill:#141414;"
   d="M51.868,84.936  c-6.409-5.639-10.084-13.715-10.084-22.156c0-8.504,3.714-16.616,10.19-22.257c0.365-0.319,0.445-0.856,0.186-1.267L42.036,23.192  c-0.148-0.234-0.388-0.396-0.661-0.444s-0.556,0.021-0.773,0.189c-8.268,6.368-14.483,15.328-17.502,25.23  c-0.118,0.387,0.012,0.807,0.331,1.059c4.155,3.291,6.635,8.357,6.635,13.553s-2.481,10.264-6.637,13.555  c-0.317,0.251-0.449,0.67-0.331,1.058c2.995,9.819,9.14,18.728,17.306,25.082c0.219,0.171,0.499,0.241,0.773,0.193  c0.273-0.047,0.514-0.208,0.663-0.441l10.209-16.022C52.309,85.794,52.232,85.256,51.868,84.936z M12.803,50.223  C5.732,50.223,0,55.951,0,63.016C0,70.081,5.732,75.81,12.803,75.81s12.803-5.729,12.803-12.794  C25.606,55.951,19.874,50.223,12.803,50.223z M58.779,35.162c0.257,0.408,0.772,0.57,1.217,0.383  c3.754-1.587,7.654-2.392,11.59-2.392c14.478,0,27.107,10.734,29.377,24.969c0.076,0.478,0.488,0.829,0.971,0.829l19.08,0.029  c0.278,0,0.543-0.117,0.73-0.323s0.277-0.479,0.251-0.757c-1.028-10.562-5.524-20.75-12.659-28.685  c-0.322-0.36-0.859-0.432-1.266-0.169c-2.877,1.858-6.145,2.842-9.447,2.842c-9.633,0-17.469-7.79-17.47-17.364  c0.001-0.005,0.019-0.366,0.019-0.382c0-0.477-0.343-0.888-0.816-0.97c-3.012-0.522-5.962-0.888-8.77-0.888  c-7.711,0-15.502,1.937-22.532,5.411c-0.25,0.124-0.436,0.348-0.511,0.616c-0.076,0.268-0.034,0.555,0.114,0.791L58.779,35.162z   M98,27.5c6.908,0,12.51-5.598,12.51-12.5c0-6.904-5.602-12.5-12.51-12.5S85.49,8.096,85.49,15C85.49,21.902,91.092,27.5,98,27.5z   M120.994,66.733l-19.078,0.062c-0.481,0.001-0.892,0.352-0.969,0.826C98.646,81.75,86.024,92.405,71.586,92.405  c-3.982,0-7.926-0.824-11.722-2.45c-0.444-0.189-0.958-0.03-1.219,0.375l-10.203,16.015c-0.149,0.235-0.192,0.522-0.118,0.791  c0.074,0.268,0.259,0.493,0.508,0.617c7.085,3.547,14.954,5.421,22.754,5.421c2.893,0,5.906-0.273,8.955-0.814  c0.428-0.075,0.756-0.424,0.807-0.855c1.016-8.775,8.443-15.393,17.275-15.393c2.738,0,5.524,0.698,8.056,2.018  c0.385,0.201,0.854,0.127,1.159-0.184c7.985-8.143,13.008-18.842,14.14-30.129c0.028-0.277-0.063-0.553-0.251-0.76  S121.272,66.732,120.994,66.733z M98.486,100.545c-7.071,0-12.804,5.697-12.804,12.728c0,7.029,5.732,12.728,12.804,12.728  c7.07,0,12.803-5.698,12.803-12.728C111.289,106.242,105.557,100.545,98.486,100.545z"
   id="path4" />
<path
   style="opacity:0.2;fill-rule:evenodd;clip-rule:evenodd;fill:#141414;"
   d="M51.868,85.936  c-6.409-5.639-10.084-13.715-10.084-22.156c0-8.504,3.714-16.616,10.19-22.257c0.365-0.319,0.445-0.856,0.186-1.267L42.036,24.192  c-0.148-0.234-0.388-0.396-0.661-0.444s-0.556,0.021-0.773,0.189c-8.268,6.368-14.483,15.328-17.502,25.23  c-0.118,0.387,0.012,0.807,0.331,1.059c4.155,3.291,6.635,8.357,6.635,13.553s-2.481,10.264-6.637,13.555  c-0.317,0.251-0.449,0.67-0.331,1.058c2.995,9.819,9.14,18.728,17.306,25.082c0.219,0.171,0.499,0.241,0.773,0.193  c0.273-0.047,0.514-0.208,0.663-0.441l10.209-16.022C52.309,86.794,52.232,86.256,51.868,85.936z M12.803,51.223  C5.732,51.223,0,56.951,0,64.016C0,71.081,5.732,76.81,12.803,76.81s12.803-5.729,12.803-12.794  C25.606,56.951,19.874,51.223,12.803,51.223z M58.779,36.162c0.257,0.408,0.772,0.57,1.217,0.383  c3.754-1.587,7.654-2.392,11.59-2.392c14.478,0,27.107,10.734,29.377,24.969c0.076,0.478,0.488,0.829,0.971,0.829l19.08,0.029  c0.278,0,0.543-0.117,0.73-0.323s0.277-0.479,0.251-0.757c-1.028-10.562-5.524-20.75-12.659-28.685  c-0.322-0.36-0.859-0.432-1.266-0.169c-2.877,1.858-6.145,2.842-9.447,2.842c-9.633,0-17.469-7.79-17.47-17.364  c0.001-0.005,0.019-0.366,0.019-0.382c0-0.477-0.343-0.888-0.816-0.97c-3.012-0.522-5.962-0.888-8.77-0.888  c-7.711,0-15.502,1.937-22.532,5.411c-0.25,0.124-0.436,0.348-0.511,0.616c-0.076,0.268-0.034,0.555,0.114,0.791L58.779,36.162z   M98,28.5c6.908,0,12.51-5.598,12.51-12.5c0-6.904-5.602-12.5-12.51-12.5S85.49,9.096,85.49,16C85.49,22.902,91.092,28.5,98,28.5z   M120.994,67.733l-19.078,0.062c-0.481,0.001-0.892,0.352-0.969,0.826C98.646,82.75,86.024,93.405,71.586,93.405  c-3.982,0-7.926-0.824-11.722-2.45c-0.444-0.189-0.958-0.03-1.219,0.375l-10.203,16.015c-0.149,0.235-0.192,0.522-0.118,0.791  c0.074,0.268,0.259,0.493,0.508,0.617c7.085,3.547,14.954,5.421,22.754,5.421c2.893,0,5.906-0.273,8.955-0.814  c0.428-0.075,0.756-0.424,0.807-0.855c1.016-8.775,8.443-15.393,17.275-15.393c2.738,0,5.524,0.698,8.056,2.018  c0.385,0.201,0.854,0.127,1.159-0.184c7.985-8.143,13.008-18.842,14.14-30.129c0.028-0.277-0.063-0.553-0.251-0.76  S121.272,67.732,120.994,67.733z M98.486,101.545c-7.071,0-12.804,5.697-12.804,12.728c0,7.029,5.732,12.728,12.804,12.728  c7.07,0,12.803-5.698,12.803-12.728C111.289,107.242,105.557,101.545,98.486,101.545z"
   id="path6" />
<path
   style="opacity:0.2;fill-rule:evenodd;clip-rule:evenodd;fill:#141414;"
   d="M51.868,86.936  c-6.409-5.639-10.084-13.715-10.084-22.156c0-8.504,3.714-16.616,10.19-22.257c0.365-0.319,0.445-0.856,0.186-1.267L42.036,25.192  c-0.148-0.234-0.388-0.396-0.661-0.444s-0.556,0.021-0.773,0.189c-8.268,6.368-14.483,15.328-17.502,25.23  c-0.118,0.387,0.012,0.807,0.331,1.059c4.155,3.291,6.635,8.357,6.635,13.553s-2.481,10.264-6.637,13.555  c-0.317,0.251-0.449,0.67-0.331,1.058c2.995,9.819,9.14,18.728,17.306,25.082c0.219,0.171,0.499,0.241,0.773,0.193  c0.273-0.047,0.514-0.208,0.663-0.441l10.209-16.022C52.309,87.794,52.232,87.256,51.868,86.936z M12.803,52.223  C5.732,52.223,0,57.951,0,65.016C0,72.081,5.732,77.81,12.803,77.81s12.803-5.729,12.803-12.794  C25.606,57.951,19.874,52.223,12.803,52.223z M58.779,37.162c0.257,0.408,0.772,0.57,1.217,0.383  c3.754-1.587,7.654-2.392,11.59-2.392c14.478,0,27.107,10.734,29.377,24.969c0.076,0.478,0.488,0.829,0.971,0.829l19.08,0.029  c0.278,0,0.543-0.117,0.73-0.323s0.277-0.479,0.251-0.757c-1.028-10.562-5.524-20.75-12.659-28.685  c-0.322-0.36-0.859-0.432-1.266-0.169c-2.877,1.858-6.145,2.842-9.447,2.842c-9.633,0-17.469-7.79-17.47-17.364  c0.001-0.005,0.019-0.366,0.019-0.382c0-0.477-0.343-0.888-0.816-0.97c-3.012-0.522-5.962-0.888-8.77-0.888  c-7.711,0-15.502,1.937-22.532,5.411c-0.25,0.124-0.436,0.348-0.511,0.616c-0.076,0.268-0.034,0.555,0.114,0.791L58.779,37.162z   M98,29.5c6.908,0,12.51-5.598,12.51-12.5c0-6.904-5.602-12.5-12.51-12.5S85.49,10.096,85.49,17C85.49,23.902,91.092,29.5,98,29.5z   M120.994,68.733l-19.078,0.062c-0.481,0.001-0.892,0.352-0.969,0.826C98.646,83.75,86.024,94.405,71.586,94.405  c-3.982,0-7.926-0.824-11.722-2.45c-0.444-0.189-0.958-0.03-1.219,0.375l-10.203,16.015c-0.149,0.235-0.192,0.522-0.118,0.791  c0.074,0.268,0.259,0.493,0.508,0.617c7.085,3.547,14.954,5.421,22.754,5.421c2.893,0,5.906-0.273,8.955-0.814  c0.428-0.075,0.756-0.424,0.807-0.855c1.016-8.775,8.443-15.393,17.275-15.393c2.738,0,5.524,0.698,8.056,2.018  c0.385,0.201,0.854,0.127,1.159-0.184c7.985-8.143,13.008-18.842,14.14-30.129c0.028-0.277-0.063-0.553-0.251-0.76  S121.272,68.732,120.994,68.733z M98.486,102.545c-7.071,0-12.804,5.697-12.804,12.728c0,7.029,5.732,12.728,12.804,12.728  c7.07,0,12.803-5.698,12.803-12.728C111.289,108.242,105.557,102.545,98.486,102.545z"
   id="path8" />
<path
   style="fill:#ffefba;stroke:#a39277;fill-opacity:1;stroke-opacity:1"
   d="M40.602,21.938c-8.268,6.368-14.483,15.328-17.502,25.23c-0.118,0.387,0.012,0.807,0.331,1.059  c4.155,3.291,6.635,8.357,6.635,13.553s-2.481,10.264-6.637,13.555c-0.317,0.251-0.449,0.67-0.331,1.058  c2.995,9.819,9.14,18.728,17.306,25.082c0.219,0.171,0.499,0.241,0.773,0.193c0.273-0.047,0.514-0.208,0.663-0.441l10.209-16.022  c0.261-0.409,0.185-0.947-0.18-1.268c-6.409-5.639-10.084-13.715-10.084-22.156c0-8.504,3.714-16.616,10.19-22.257  c0.365-0.319,0.445-0.856,0.186-1.267L42.036,22.192c-0.148-0.234-0.388-0.396-0.661-0.444S40.819,21.769,40.602,21.938z"
   id="path10" />

<ellipse
   style="fill-rule:evenodd;clip-rule:evenodd;fill:#a39277;fill-opacity:1"
   cx="12.803"
   cy="62.016"
   rx="12.803"
   ry="12.794"
   id="ellipse14" />
<path
   style="fill:#ffefba;fill-opacity:1;fill-rule:evenodd"
   d="M 1.3504359,62.016016 C 1.3504359,68.326101 6.488039,73.460797 12.802,73.460797 C 19.115961,73.460797 24.253564,68.326101 24.253564,62.016016 C 24.253564,55.70593 19.115961,50.572203 12.802,50.572203 C 6.488039,50.572203 1.3504359,55.70593 1.3504359,62.016016 z"
   id="path16" />
<path
   style="fill:#ffefba;fill-opacity:1;stroke:#a39277;stroke-opacity:1"
   d="M49.054,16.696c-0.25,0.124-0.436,0.348-0.511,0.616c-0.076,0.268-0.034,0.555,0.114,0.791  l10.122,16.059c0.257,0.408,0.772,0.57,1.217,0.383c3.754-1.587,7.654-2.392,11.59-2.392c14.478,0,27.107,10.734,29.377,24.969  c0.076,0.478,0.488,0.829,0.971,0.829l19.08,0.029c0.278,0,0.543-0.117,0.73-0.323s0.277-0.479,0.251-0.757  c-1.028-10.562-5.524-20.75-12.659-28.685c-0.322-0.36-0.859-0.432-1.266-0.169c-2.877,1.858-6.145,2.842-9.447,2.842  c-9.633,0-17.469-7.79-17.47-17.364c0.001-0.005,0.019-0.366,0.019-0.382c0-0.477-0.343-0.888-0.816-0.97  c-3.012-0.522-5.962-0.888-8.77-0.888C63.875,11.285,56.084,13.222,49.054,16.696z"
   id="path18" />

<ellipse
   style="fill-rule:evenodd;clip-rule:evenodd;fill:#b2a288;fill-opacity:1"
   cx="98"
   cy="14"
   rx="12.51"
   ry="12.5"
   id="ellipse22" />
<path
   style="fill-rule:evenodd;clip-rule:evenodd;fill:#fcf4d3;fill-opacity:1"
   d="M86.992,14c0,6.065,4.938,11,11.008,11s11.008-4.935,11.008-11  S104.07,3,98,3S86.992,7.935,86.992,14z"
   id="path24" />
<path
   style="fill:#ffefba;fill-opacity:1;stroke:#a39277;stroke-opacity:1"
   d="M120.994,65.733l-19.078,0.062c-0.481,0.001-0.892,0.352-0.969,0.826  C98.646,80.75,86.024,91.405,71.586,91.405c-3.982,0-7.926-0.824-11.722-2.45c-0.444-0.189-0.958-0.03-1.219,0.375l-10.203,16.015  c-0.149,0.235-0.192,0.522-0.118,0.791c0.074,0.268,0.259,0.493,0.508,0.617c7.085,3.547,14.954,5.421,22.754,5.421  c2.893,0,5.906-0.273,8.955-0.814c0.428-0.075,0.756-0.424,0.807-0.855c1.016-8.775,8.443-15.393,17.275-15.393  c2.738,0,5.524,0.698,8.056,2.018c0.385,0.201,0.854,0.127,1.159-0.184c7.985-8.143,13.008-18.842,14.14-30.129  c0.028-0.277-0.063-0.553-0.251-0.76S121.272,65.732,120.994,65.733z"
   id="path26" />
<ellipse
   style="fill-rule:evenodd;clip-rule:evenodd;fill:#a39277;fill-opacity:1"
   cx="98.486"
   cy="112.272"
   rx="12.803"
   ry="12.728"
   id="ellipse28" />
<path
   style="fill-rule:evenodd;clip-rule:evenodd;fill:#ffefba;fill-opacity:1"
   d="M86.844,112.272c0,6.379,5.223,11.569,11.643,11.569  s11.643-5.19,11.643-11.569s-5.223-11.569-11.643-11.569S86.844,105.894,86.844,112.272z"
   id="path30" />
<linearGradient
   id="XMLID_3_"
   gradientUnits="userSpaceOnUse"
   x1="59.509617"
   y1="-26.176685"
   x2="79.01947"
   y2="54.517281">
	<stop
   offset="0"
   style="stop-color:#ffffff;stop-opacity:0;"
   id="stop33" />
	<stop
   offset="1"
   style="stop-color:#ffffff;stop-opacity:1;"
   id="stop35" />
</linearGradient>
<path
   style="fill-rule:evenodd;clip-rule:evenodd;fill:url(#linearGradient3222)"
   d="M49.785,17.67c0.223,0.354,9.742,15.457,9.91,15.725  c3.853-1.604,7.852-2.426,11.891-2.426c6.679,0,13.049,2.117,18.434,6.111c0.135-0.01,13.647-0.981,13.647-0.981  s8.987-0.652,9.627-0.699c-1.429-2.233-2.902-4.136-4.624-6.063c-3.031,1.919-6.573,2.836-10.047,2.836  c-10.286,0-18.654-8.421-18.654-18.648c0-0.006,0.004-0.107,0.01-0.207c-2.885-0.491-5.709-0.848-8.393-0.848  C64.13,12.469,56.6,14.34,49.785,17.67z"
   id="path37" />
<linearGradient
   id="XMLID_4_"
   gradientUnits="userSpaceOnUse"
   x1="37.674"
   y1="4.7880783"
   x2="37.674"
   y2="78.776939">
	<stop
   offset="0"
   style="stop-color:#f9f9f8;stop-opacity:0"
   id="stop40" />
	<stop
   offset="1"
   style="stop-color:#f9f9f8;stop-opacity:1"
   id="stop42" />
</linearGradient>
<path
   style="fill-rule:evenodd;clip-rule:evenodd;fill:url(#linearGradient3500)"
   d="M24.274,47.396c2.325,1.872,4.177,4.286,5.384,7.002  c4.482-2.91,8.801-4.448,14.231-6.626c1.709-3.011,4.592-6.732,7.185-9.017c-0.159-0.252-9.684-15.365-9.919-15.738  C33.202,29.201,27.214,37.844,24.274,47.396z"
   id="path44" />
<g
   style="overflow:visible;fill:#a39277;fill-opacity:1"
   id="g3435"
   transform="matrix(-0.2720445,-0.5460173,0.5460173,-0.2720445,7.0420189,81.946009)"><g
     inkscape:transform-center-x="-1.9007575"
     inkscape:transform-center-y="1.7205528"
     transform="matrix(2.098085e-2,8.4078866e-3,-8.1529767e-3,2.0344755e-2,15.524826,-3.6688743)"
     id="g3439"
     style="opacity:0.94927536000000001;fill:#a39277;fill-opacity:1;display:inline"><path
       id="path3441"
       d="M 1030,1596.5103 C 1021.7281,1595.5919 1019.5035,1594.9029 1012.7917,1591.1807 C 1004.232,1586.4338 991.89414,1576.9509 982,1567.5141 C 970.99759,1557.0203 960.17866,1548.8958 951.83243,1544.8596 C 944.51567,1541.3213 943.15299,1541 935.4641,1541 C 927.2564,1541 926.72852,1541.1524 910.78849,1548.1261 C 880.00277,1561.5947 863.00733,1564.8114 828.4736,1563.7056 C 808.86493,1563.0777 794.03202,1561.3118 775.5,1557.3989 C 757.67496,1553.6352 724.08965,1550.0539 706.5,1550.0412 C 675.80623,1550.019 650.58052,1557.3997 628.46066,1572.8743 L 619.5,1579.143 L 598.5,1578.7609 L 577.5,1578.3787 L 559.75924,1573.6827 C 535.28276,1567.2037 517.33527,1559.6833 502.5,1549.6899 C 463.58816,1523.4778 436.33182,1493.8053 412.56529,1451.7829 C 408.29841,1444.2385 403.01413,1433.4978 400.82245,1427.9147 C 394.57199,1411.9922 389.24071,1389.1671 386.97318,1368.6209 C 384.63546,1347.4386 384.52391,1335.269 386.5,1317 C 387.30313,1309.575 387.96919,1300.5497 387.98012,1296.9437 C 388.00794,1287.7698 395.27002,1254.7141 399.94097,1242.5 C 402.0443,1237 404.78273,1229.35 406.02639,1225.5 C 408.95605,1216.4306 415.882,1199.4606 420.8286,1189.2317 C 429.41077,1171.4849 432.54831,1167.2915 448.44441,1152.3226 C 456.72499,1144.525 468.9,1133.7582 475.5,1128.3965 C 482.1,1123.0348 492,1114.5371 497.5,1109.5129 C 503,1104.4887 512.225,1096.5133 518,1091.7897 C 523.775,1087.0662 537.98051,1073.5936 549.5678,1061.8507 C 575.82773,1035.2381 591.54566,1015.0357 595.43851,1002.8926 C 599.43487,990.42658 611.24154,968.24448 620.87724,955.09887 C 631.58886,940.48544 661.54765,913.4837 676.5,904.96631 C 693.10022,895.51023 716.32437,887.63754 736.5,884.62707 L 744.5,883.43336 L 838.5,899.12323 C 890.2,907.75266 935.425,915.62442 939,916.61604 C 948.59245,919.27675 964.07515,928.88509 973.27962,937.88949 C 983.12788,947.52368 985.73646,951.93416 1031.0114,1035.5 C 1068.2657,1104.262 1070.6466,1108.3747 1081.1809,1122.1622 C 1084.8554,1126.9715 1089.7708,1133.7399 1092.104,1137.2032 C 1097.3451,1144.9828 1120.0306,1174.6907 1128.9842,1185.5 C 1138.9084,1197.481 1147.1673,1208.661 1160.7887,1228.5537 C 1177.8065,1253.4062 1188.0836,1271.1508 1194.639,1287 C 1197.7101,1294.425 1201.7477,1304.0667 1203.6114,1308.4261 L 1207,1316.3522 L 1207,1347.6212 C 1207,1379.5287 1205.7836,1394.0494 1201.5723,1412.4122 C 1200.8044,1415.7605 1199.8524,1421.2 1199.4568,1424.5 C 1199.0612,1427.8 1197.5014,1434.55 1195.9906,1439.5 C 1194.4798,1444.45 1191.7924,1453.675 1190.0188,1460 C 1188.2451,1466.325 1185.539,1474.65 1184.0053,1478.5 C 1182.4715,1482.35 1179.5647,1490.7383 1177.5456,1497.1408 C 1173.0988,1511.2418 1161.5072,1535.3658 1155.8069,1542.3827 C 1143.5933,1557.4175 1129.1235,1569.3232 1115.5425,1575.5123 C 1096.5227,1584.1799 1070.6577,1592.1644 1050,1595.7451 C 1041.1243,1597.2836 1038.0304,1597.402 1030,1596.5103 z M 1241.3701,1044.8023 C 1233.556,1043.6579 1217.4588,1037.4662 1212.7222,1033.7831 C 1202.2057,1025.6057 1187.7013,1009.3258 1177.7344,994.51246 C 1161.5195,970.41311 1154.0098,951.85172 1154.0611,936 C 1154.0912,926.66948 1162.6435,890.30329 1167.6405,878.2568 C 1169.5212,873.72303 1173.2685,863.82303 1175.9678,856.2568 C 1182.1531,838.91897 1195.5249,808.58245 1201.6953,797.8889 C 1203.476,794.80279 1210.9554,779.72779 1218.316,764.3889 C 1225.6767,749.05 1233.3653,733.89738 1235.4017,730.7164 C 1237.4382,727.53543 1240.8923,721.23543 1243.0774,716.7164 C 1245.2625,712.19738 1254.3515,697.46365 1263.2752,683.97478 L 1279.5,659.44956 L 1290.5,656.19391 C 1310.1255,650.38539 1320.2041,648.9792 1342.3203,648.96388 L 1362.1405,648.95015 L 1376.3203,653.09627 C 1384.1191,655.37664 1391.3596,657.48419 1392.4102,657.77972 C 1394.7174,658.42872 1407.5537,667.38284 1414.5922,673.25304 C 1426.3175,683.03212 1432.839,695.59974 1437.5178,717.43299 C 1438.4528,721.79614 1439.8405,727.13074 1440.6015,729.28766 C 1442.782,735.46776 1448.7813,766.97518 1451.0193,784 C 1452.1399,792.525 1453.3279,808.05 1453.6593,818.5 C 1454.3067,838.91571 1453.6974,843.67014 1446.4674,874.62006 C 1442.5212,891.51289 1431.8724,911.29655 1416.7896,929.75671 C 1404.3564,944.97396 1362.2678,985.34186 1345.913,997.7357 C 1340.1859,1002.0758 1333.3775,1007.248 1330.7833,1009.2295 C 1318.3965,1018.6908 1289.1624,1034.3857 1273.4964,1039.9851 C 1262.9794,1043.7441 1248.7318,1045.8805 1241.3701,1044.8023 z M 345,1028.4727 C 333.84133,1027.1058 304.84516,1021.0507 296.5,1018.3447 C 293.75,1017.453 289.475,1015.722 287,1014.4981 C 284.525,1013.2741 280.72485,1011.9495 278.55523,1011.5545 C 268.66251,1009.7534 261.94204,1003.9848 244.63796,982.44107 C 233.40428,968.45507 226.68507,957.69108 215.86453,936.34684 C 203.51078,911.97821 196.31533,888.47023 192.4342,859.79847 C 189.12666,835.36399 193.05046,806.99256 204.42576,773.09237 C 206.90019,765.71818 209.23127,757.64059 209.60593,755.14218 C 209.98059,752.64376 211.32173,748.2602 212.58623,745.40093 C 213.85074,742.54166 215.62487,737.56925 216.52874,734.35113 C 217.43261,731.13301 219.88583,725.125 221.98033,721 C 224.07483,716.875 227.72188,708.775 230.08488,703 C 232.44788,697.225 235.81901,690.7 237.57627,688.5 C 239.33353,686.3 242.56886,681.7011 244.76591,678.28021 C 249.74605,670.52594 263.02122,655.55476 268.99271,650.95824 C 284.92998,638.69062 292.48655,634.75377 306.5,631.41756 C 319.09937,628.418 325.18641,628.28962 342.5,630.65832 C 360.84793,633.16853 365.59902,637.78464 371.40932,658.74631 C 375.12283,672.14345 379.41727,682.71412 384.34634,690.59052 C 386.72453,694.39073 390.56625,700.875 392.8835,705 C 395.20076,709.125 400.7482,717.675 405.21115,724 C 409.67409,730.325 415.88171,739.325 419.00585,744 C 422.12999,748.675 425.50465,753.175 426.50508,754 C 427.50552,754.825 433.63863,762.10321 440.13421,770.17379 C 446.62979,778.24437 452.41043,785.13563 452.98007,785.48768 C 454.43113,786.38449 463.6836,799.01448 472.15547,811.66287 L 479.30509,822.33716 L 478.6831,840.93294 C 477.98504,861.80261 474.49552,887.7853 470.34736,903 C 468.92281,908.225 466.48068,917.35006 464.9204,923.27791 C 463.36013,929.20576 461.78167,934.54425 461.41272,935.14122 C 461.04378,935.73819 458.83006,941.46313 456.49336,947.86331 C 450.61376,963.96743 443.13684,980.38591 437.45382,989.67197 C 434.81893,993.97739 429.84009,1002.1272 426.38972,1007.7827 C 415.98906,1024.8303 415.29384,1025.5075 406.7824,1026.8822 C 385.98761,1030.2409 364.04526,1030.8058 345,1028.4727 z M 972.5,806.49327 C 945.00681,802.6942 939.72785,801.82194 930.14584,799.49493 C 924.45105,798.11194 912.95095,794.04589 904.59006,790.45925 C 890.11751,784.25084 889.04547,783.59186 882.23716,776.71904 C 876.41712,770.84386 874.20939,767.64499 870.37752,759.53509 C 865.94682,750.15784 865.58932,748.772 864.31528,736.03509 C 863.29391,725.82416 863.2109,719.79845 863.97729,711.5 C 864.53602,705.45 864.9947,697.10689 864.99658,692.95975 C 864.99846,688.81261 866.18648,678.91261 867.63661,670.95975 C 870.72264,654.03533 871.30282,632.7237 869.25,611.69553 C 867.5764,594.55187 867.69184,558.91924 869.49789,535.18063 C 870.30629,524.55497 871.19229,515.49788 871.46678,515.05376 C 871.74126,514.60963 872.67164,504.62835 873.53429,492.87313 C 874.39693,481.11791 876.16398,464.3 877.46105,455.5 C 878.75813,446.7 880.38614,431.4 881.07886,421.5 L 882.33835,403.5 L 887.06842,393.7947 C 896.75731,373.91471 917.91308,352.97955 944.5,336.96202 C 953.1155,331.77153 977.2471,319.86645 998.5,310.32167 C 1016.0091,302.45827 1035.0591,297.99411 1051.0677,298.00303 C 1063.2734,298.00982 1087.068,304.006 1099.6247,310.23926 C 1113.6206,317.18695 1117.4931,319.64711 1131.1803,330.2861 C 1150.3981,345.22408 1164.0631,359.8886 1183.5626,386.5 C 1196.6697,404.38743 1200.3517,410.15033 1213.0228,432.60936 L 1222.6757,449.71871 L 1224.0274,460.60936 C 1226.1248,477.50876 1225.6703,504.37717 1223.0903,516 C 1220.0866,529.53182 1213.4119,551.2537 1210.4791,557.04133 C 1209.1055,559.75189 1206.458,566.13896 1204.5957,571.23482 C 1202.7334,576.33067 1198.185,587.025 1194.488,595 C 1187.5927,609.87466 1176.5648,634.29782 1170.331,648.5 C 1168.3998,652.9 1165.9089,659.425 1164.7959,663 C 1162.1703,671.43327 1158.8569,677.96378 1153.1305,685.99129 C 1150.5837,689.5615 1146.7,695.28852 1144.5,698.718 C 1130.9676,719.81304 1104.8771,749.63692 1088,763.30264 C 1083.875,766.64274 1078.4004,771.29864 1075.8342,773.64907 C 1069.2861,779.64672 1051.5621,791.13848 1044.4603,793.99112 C 1041.1821,795.3079 1036.4053,797.66082 1033.8452,799.21982 C 1024.3977,804.97296 1016.8608,806.72127 998.90837,807.3241 C 987.60304,807.70373 979.38998,807.44534 972.5,806.49327 z M 639.57148,781.20782 C 602.94726,766.88896 579.10201,750.33715 545.44332,715.87021 C 529.83055,699.88252 525.5104,694.44879 511.75641,673.5 C 493.41966,645.57117 480.37077,619.7687 475.40162,601.61314 C 474.02978,596.60092 471.01753,586.65 468.70773,579.5 L 464.50809,566.5 L 464.60728,545.5 C 464.70657,524.47893 465.48015,516.33443 468.97644,499.5 C 470.00449,494.55 471.15606,487.8 471.53549,484.5 C 473.45477,467.8076 487.89319,413.01018 493.02007,402.96067 C 494.21483,400.61874 496.69242,394.83203 498.52583,390.10131 C 504.37801,375.00102 515.70928,351.46724 523.32306,338.60026 C 525.5686,334.8054 529.54347,329.70103 532.15611,327.2572 C 538.95689,320.89588 561.15271,307.08546 577.48989,299.05018 C 593.77368,291.04115 628.93495,279.00244 636.06184,278.99598 C 638.50283,278.99377 644.55,278.36059 649.5,277.58891 C 665.52939,275.09002 675.69096,274.84796 695,276.50507 C 705.175,277.37829 715.54878,278.43707 718.05284,278.85792 C 722.93759,279.67887 737.94833,287.3535 744.5,292.37971 C 756.19617,301.35262 771.12084,316.72837 783.42218,332.47828 C 785.57937,335.24022 789.87284,340.425 792.9632,344 C 805.20357,358.1599 809.6562,377.38519 807.11735,405.1139 C 806.40058,412.94235 804.68583,423.06699 802.98722,429.5 C 801.29624,435.90408 799.41765,446.97606 798.49093,456 C 797.61545,464.525 795.37464,479.825 793.51136,490 C 791.64807,500.175 789.62467,513.9 789.01491,520.5 C 788.40515,527.1 787.27109,538.8 786.49477,546.5 C 785.18335,559.50746 782.57575,605.68698 779.85993,664 C 779.15443,679.14819 777.49288,698.03459 775.50697,713.47887 L 772.29505,738.45774 L 760.65163,749.62551 C 748.34895,761.42561 740.93901,766.10784 724,772.78516 C 709.43513,778.5266 683.71418,783.53541 662.07148,784.84491 L 650.64295,785.5364 L 639.57148,781.20782 z"
       style="fill:#a39277;fill-opacity:1" /></g></g><path
   style="fill-rule:evenodd;clip-rule:evenodd;fill:url(#linearGradient3284);opacity:1;color:#000000;fill-opacity:1;stroke-width:1;stroke-linecap:butt;stroke-linejoin:miter;marker:none;marker-start:none;marker-mid:none;marker-end:none;stroke-miterlimit:4;stroke-dasharray:none;stroke-dashoffset:0;stroke-opacity:1;visibility:visible;display:inline;overflow:visible;enable-background:accumulate"
   d="M23.732,58.691c-1.419-4.695-5.784-8.125-10.938-8.125  c-6.301,0-11.427,5.123-11.427,11.419c0,4.03,2.102,7.58,5.266,9.612C11.926,67.035,17.919,62.755,23.732,58.691z"
   id="path46" />
<g
   style="opacity:0.94927536000000001;fill:#a39277;fill-opacity:1;display:inline"
   id="g2461"
   transform="matrix(1.2131017e-2,6.2496216e-3,-6.0601459e-3,1.176323e-2,93.967801,-2.5437236)"
   inkscape:transform-center-y="1.7205528"
   inkscape:transform-center-x="-1.9007575"><path
     style="fill:#a39277;fill-opacity:1"
     d="M 1030,1596.5103 C 1021.7281,1595.5919 1019.5035,1594.9029 1012.7917,1591.1807 C 1004.232,1586.4338 991.89414,1576.9509 982,1567.5141 C 970.99759,1557.0203 960.17866,1548.8958 951.83243,1544.8596 C 944.51567,1541.3213 943.15299,1541 935.4641,1541 C 927.2564,1541 926.72852,1541.1524 910.78849,1548.1261 C 880.00277,1561.5947 863.00733,1564.8114 828.4736,1563.7056 C 808.86493,1563.0777 794.03202,1561.3118 775.5,1557.3989 C 757.67496,1553.6352 724.08965,1550.0539 706.5,1550.0412 C 675.80623,1550.019 650.58052,1557.3997 628.46066,1572.8743 L 619.5,1579.143 L 598.5,1578.7609 L 577.5,1578.3787 L 559.75924,1573.6827 C 535.28276,1567.2037 517.33527,1559.6833 502.5,1549.6899 C 463.58816,1523.4778 436.33182,1493.8053 412.56529,1451.7829 C 408.29841,1444.2385 403.01413,1433.4978 400.82245,1427.9147 C 394.57199,1411.9922 389.24071,1389.1671 386.97318,1368.6209 C 384.63546,1347.4386 384.52391,1335.269 386.5,1317 C 387.30313,1309.575 387.96919,1300.5497 387.98012,1296.9437 C 388.00794,1287.7698 395.27002,1254.7141 399.94097,1242.5 C 402.0443,1237 404.78273,1229.35 406.02639,1225.5 C 408.95605,1216.4306 415.882,1199.4606 420.8286,1189.2317 C 429.41077,1171.4849 432.54831,1167.2915 448.44441,1152.3226 C 456.72499,1144.525 468.9,1133.7582 475.5,1128.3965 C 482.1,1123.0348 492,1114.5371 497.5,1109.5129 C 503,1104.4887 512.225,1096.5133 518,1091.7897 C 523.775,1087.0662 537.98051,1073.5936 549.5678,1061.8507 C 575.82773,1035.2381 591.54566,1015.0357 595.43851,1002.8926 C 599.43487,990.42658 611.24154,968.24448 620.87724,955.09887 C 631.58886,940.48544 661.54765,913.4837 676.5,904.96631 C 693.10022,895.51023 716.32437,887.63754 736.5,884.62707 L 744.5,883.43336 L 838.5,899.12323 C 890.2,907.75266 935.425,915.62442 939,916.61604 C 948.59245,919.27675 964.07515,928.88509 973.27962,937.88949 C 983.12788,947.52368 985.73646,951.93416 1031.0114,1035.5 C 1068.2657,1104.262 1070.6466,1108.3747 1081.1809,1122.1622 C 1084.8554,1126.9715 1089.7708,1133.7399 1092.104,1137.2032 C 1097.3451,1144.9828 1120.0306,1174.6907 1128.9842,1185.5 C 1138.9084,1197.481 1147.1673,1208.661 1160.7887,1228.5537 C 1177.8065,1253.4062 1188.0836,1271.1508 1194.639,1287 C 1197.7101,1294.425 1201.7477,1304.0667 1203.6114,1308.4261 L 1207,1316.3522 L 1207,1347.6212 C 1207,1379.5287 1205.7836,1394.0494 1201.5723,1412.4122 C 1200.8044,1415.7605 1199.8524,1421.2 1199.4568,1424.5 C 1199.0612,1427.8 1197.5014,1434.55 1195.9906,1439.5 C 1194.4798,1444.45 1191.7924,1453.675 1190.0188,1460 C 1188.2451,1466.325 1185.539,1474.65 1184.0053,1478.5 C 1182.4715,1482.35 1179.5647,1490.7383 1177.5456,1497.1408 C 1173.0988,1511.2418 1161.5072,1535.3658 1155.8069,1542.3827 C 1143.5933,1557.4175 1129.1235,1569.3232 1115.5425,1575.5123 C 1096.5227,1584.1799 1070.6577,1592.1644 1050,1595.7451 C 1041.1243,1597.2836 1038.0304,1597.402 1030,1596.5103 z M 1241.3701,1044.8023 C 1233.556,1043.6579 1217.4588,1037.4662 1212.7222,1033.7831 C 1202.2057,1025.6057 1187.7013,1009.3258 1177.7344,994.51246 C 1161.5195,970.41311 1154.0098,951.85172 1154.0611,936 C 1154.0912,926.66948 1162.6435,890.30329 1167.6405,878.2568 C 1169.5212,873.72303 1173.2685,863.82303 1175.9678,856.2568 C 1182.1531,838.91897 1195.5249,808.58245 1201.6953,797.8889 C 1203.476,794.80279 1210.9554,779.72779 1218.316,764.3889 C 1225.6767,749.05 1233.3653,733.89738 1235.4017,730.7164 C 1237.4382,727.53543 1240.8923,721.23543 1243.0774,716.7164 C 1245.2625,712.19738 1254.3515,697.46365 1263.2752,683.97478 L 1279.5,659.44956 L 1290.5,656.19391 C 1310.1255,650.38539 1320.2041,648.9792 1342.3203,648.96388 L 1362.1405,648.95015 L 1376.3203,653.09627 C 1384.1191,655.37664 1391.3596,657.48419 1392.4102,657.77972 C 1394.7174,658.42872 1407.5537,667.38284 1414.5922,673.25304 C 1426.3175,683.03212 1432.839,695.59974 1437.5178,717.43299 C 1438.4528,721.79614 1439.8405,727.13074 1440.6015,729.28766 C 1442.782,735.46776 1448.7813,766.97518 1451.0193,784 C 1452.1399,792.525 1453.3279,808.05 1453.6593,818.5 C 1454.3067,838.91571 1453.6974,843.67014 1446.4674,874.62006 C 1442.5212,891.51289 1431.8724,911.29655 1416.7896,929.75671 C 1404.3564,944.97396 1362.2678,985.34186 1345.913,997.7357 C 1340.1859,1002.0758 1333.3775,1007.248 1330.7833,1009.2295 C 1318.3965,1018.6908 1289.1624,1034.3857 1273.4964,1039.9851 C 1262.9794,1043.7441 1248.7318,1045.8805 1241.3701,1044.8023 z M 345,1028.4727 C 333.84133,1027.1058 304.84516,1021.0507 296.5,1018.3447 C 293.75,1017.453 289.475,1015.722 287,1014.4981 C 284.525,1013.2741 280.72485,1011.9495 278.55523,1011.5545 C 268.66251,1009.7534 261.94204,1003.9848 244.63796,982.44107 C 233.40428,968.45507 226.68507,957.69108 215.86453,936.34684 C 203.51078,911.97821 196.31533,888.47023 192.4342,859.79847 C 189.12666,835.36399 193.05046,806.99256 204.42576,773.09237 C 206.90019,765.71818 209.23127,757.64059 209.60593,755.14218 C 209.98059,752.64376 211.32173,748.2602 212.58623,745.40093 C 213.85074,742.54166 215.62487,737.56925 216.52874,734.35113 C 217.43261,731.13301 219.88583,725.125 221.98033,721 C 224.07483,716.875 227.72188,708.775 230.08488,703 C 232.44788,697.225 235.81901,690.7 237.57627,688.5 C 239.33353,686.3 242.56886,681.7011 244.76591,678.28021 C 249.74605,670.52594 263.02122,655.55476 268.99271,650.95824 C 284.92998,638.69062 292.48655,634.75377 306.5,631.41756 C 319.09937,628.418 325.18641,628.28962 342.5,630.65832 C 360.84793,633.16853 365.59902,637.78464 371.40932,658.74631 C 375.12283,672.14345 379.41727,682.71412 384.34634,690.59052 C 386.72453,694.39073 390.56625,700.875 392.8835,705 C 395.20076,709.125 400.7482,717.675 405.21115,724 C 409.67409,730.325 415.88171,739.325 419.00585,744 C 422.12999,748.675 425.50465,753.175 426.50508,754 C 427.50552,754.825 433.63863,762.10321 440.13421,770.17379 C 446.62979,778.24437 452.41043,785.13563 452.98007,785.48768 C 454.43113,786.38449 463.6836,799.01448 472.15547,811.66287 L 479.30509,822.33716 L 478.6831,840.93294 C 477.98504,861.80261 474.49552,887.7853 470.34736,903 C 468.92281,908.225 466.48068,917.35006 464.9204,923.27791 C 463.36013,929.20576 461.78167,934.54425 461.41272,935.14122 C 461.04378,935.73819 458.83006,941.46313 456.49336,947.86331 C 450.61376,963.96743 443.13684,980.38591 437.45382,989.67197 C 434.81893,993.97739 429.84009,1002.1272 426.38972,1007.7827 C 415.98906,1024.8303 415.29384,1025.5075 406.7824,1026.8822 C 385.98761,1030.2409 364.04526,1030.8058 345,1028.4727 z M 972.5,806.49327 C 945.00681,802.6942 939.72785,801.82194 930.14584,799.49493 C 924.45105,798.11194 912.95095,794.04589 904.59006,790.45925 C 890.11751,784.25084 889.04547,783.59186 882.23716,776.71904 C 876.41712,770.84386 874.20939,767.64499 870.37752,759.53509 C 865.94682,750.15784 865.58932,748.772 864.31528,736.03509 C 863.29391,725.82416 863.2109,719.79845 863.97729,711.5 C 864.53602,705.45 864.9947,697.10689 864.99658,692.95975 C 864.99846,688.81261 866.18648,678.91261 867.63661,670.95975 C 870.72264,654.03533 871.30282,632.7237 869.25,611.69553 C 867.5764,594.55187 867.69184,558.91924 869.49789,535.18063 C 870.30629,524.55497 871.19229,515.49788 871.46678,515.05376 C 871.74126,514.60963 872.67164,504.62835 873.53429,492.87313 C 874.39693,481.11791 876.16398,464.3 877.46105,455.5 C 878.75813,446.7 880.38614,431.4 881.07886,421.5 L 882.33835,403.5 L 887.06842,393.7947 C 896.75731,373.91471 917.91308,352.97955 944.5,336.96202 C 953.1155,331.77153 977.2471,319.86645 998.5,310.32167 C 1016.0091,302.45827 1035.0591,297.99411 1051.0677,298.00303 C 1063.2734,298.00982 1087.068,304.006 1099.6247,310.23926 C 1113.6206,317.18695 1117.4931,319.64711 1131.1803,330.2861 C 1150.3981,345.22408 1164.0631,359.8886 1183.5626,386.5 C 1196.6697,404.38743 1200.3517,410.15033 1213.0228,432.60936 L 1222.6757,449.71871 L 1224.0274,460.60936 C 1226.1248,477.50876 1225.6703,504.37717 1223.0903,516 C 1220.0866,529.53182 1213.4119,551.2537 1210.4791,557.04133 C 1209.1055,559.75189 1206.458,566.13896 1204.5957,571.23482 C 1202.7334,576.33067 1198.185,587.025 1194.488,595 C 1187.5927,609.87466 1176.5648,634.29782 1170.331,648.5 C 1168.3998,652.9 1165.9089,659.425 1164.7959,663 C 1162.1703,671.43327 1158.8569,677.96378 1153.1305,685.99129 C 1150.5837,689.5615 1146.7,695.28852 1144.5,698.718 C 1130.9676,719.81304 1104.8771,749.63692 1088,763.30264 C 1083.875,766.64274 1078.4004,771.29864 1075.8342,773.64907 C 1069.2861,779.64672 1051.5621,791.13848 1044.4603,793.99112 C 1041.1821,795.3079 1036.4053,797.66082 1033.8452,799.21982 C 1024.3977,804.97296 1016.8608,806.72127 998.90837,807.3241 C 987.60304,807.70373 979.38998,807.44534 972.5,806.49327 z M 639.57148,781.20782 C 602.94726,766.88896 579.10201,750.33715 545.44332,715.87021 C 529.83055,699.88252 525.5104,694.44879 511.75641,673.5 C 493.41966,645.57117 480.37077,619.7687 475.40162,601.61314 C 474.02978,596.60092 471.01753,586.65 468.70773,579.5 L 464.50809,566.5 L 464.60728,545.5 C 464.70657,524.47893 465.48015,516.33443 468.97644,499.5 C 470.00449,494.55 471.15606,487.8 471.53549,484.5 C 473.45477,467.8076 487.89319,413.01018 493.02007,402.96067 C 494.21483,400.61874 496.69242,394.83203 498.52583,390.10131 C 504.37801,375.00102 515.70928,351.46724 523.32306,338.60026 C 525.5686,334.8054 529.54347,329.70103 532.15611,327.2572 C 538.95689,320.89588 561.15271,307.08546 577.48989,299.05018 C 593.77368,291.04115 628.93495,279.00244 636.06184,278.99598 C 638.50283,278.99377 644.55,278.36059 649.5,277.58891 C 665.52939,275.09002 675.69096,274.84796 695,276.50507 C 705.175,277.37829 715.54878,278.43707 718.05284,278.85792 C 722.93759,279.67887 737.94833,287.3535 744.5,292.37971 C 756.19617,301.35262 771.12084,316.72837 783.42218,332.47828 C 785.57937,335.24022 789.87284,340.425 792.9632,344 C 805.20357,358.1599 809.6562,377.38519 807.11735,405.1139 C 806.40058,412.94235 804.68583,423.06699 802.98722,429.5 C 801.29624,435.90408 799.41765,446.97606 798.49093,456 C 797.61545,464.525 795.37464,479.825 793.51136,490 C 791.64807,500.175 789.62467,513.9 789.01491,520.5 C 788.40515,527.1 787.27109,538.8 786.49477,546.5 C 785.18335,559.50746 782.57575,605.68698 779.85993,664 C 779.15443,679.14819 777.49288,698.03459 775.50697,713.47887 L 772.29505,738.45774 L 760.65163,749.62551 C 748.34895,761.42561 740.93901,766.10784 724,772.78516 C 709.43513,778.5266 683.71418,783.53541 662.07148,784.84491 L 650.64295,785.5364 L 639.57148,781.20782 z"
     id="path2463" /></g><g
   style="opacity:0.94927536000000001;fill:#a39277;fill-opacity:1;display:inline"
   id="g3431"
   transform="matrix(-1.1437974e-2,7.9524739e-3,-7.7113719e-3,-1.1091198e-2,115.39972,116.38547)"
   inkscape:transform-center-y="1.7205528"
   inkscape:transform-center-x="-1.9007575"><path
     style="fill:#a39277;fill-opacity:1"
     d="M 1030,1596.5103 C 1021.7281,1595.5919 1019.5035,1594.9029 1012.7917,1591.1807 C 1004.232,1586.4338 991.89414,1576.9509 982,1567.5141 C 970.99759,1557.0203 960.17866,1548.8958 951.83243,1544.8596 C 944.51567,1541.3213 943.15299,1541 935.4641,1541 C 927.2564,1541 926.72852,1541.1524 910.78849,1548.1261 C 880.00277,1561.5947 863.00733,1564.8114 828.4736,1563.7056 C 808.86493,1563.0777 794.03202,1561.3118 775.5,1557.3989 C 757.67496,1553.6352 724.08965,1550.0539 706.5,1550.0412 C 675.80623,1550.019 650.58052,1557.3997 628.46066,1572.8743 L 619.5,1579.143 L 598.5,1578.7609 L 577.5,1578.3787 L 559.75924,1573.6827 C 535.28276,1567.2037 517.33527,1559.6833 502.5,1549.6899 C 463.58816,1523.4778 436.33182,1493.8053 412.56529,1451.7829 C 408.29841,1444.2385 403.01413,1433.4978 400.82245,1427.9147 C 394.57199,1411.9922 389.24071,1389.1671 386.97318,1368.6209 C 384.63546,1347.4386 384.52391,1335.269 386.5,1317 C 387.30313,1309.575 387.96919,1300.5497 387.98012,1296.9437 C 388.00794,1287.7698 395.27002,1254.7141 399.94097,1242.5 C 402.0443,1237 404.78273,1229.35 406.02639,1225.5 C 408.95605,1216.4306 415.882,1199.4606 420.8286,1189.2317 C 429.41077,1171.4849 432.54831,1167.2915 448.44441,1152.3226 C 456.72499,1144.525 468.9,1133.7582 475.5,1128.3965 C 482.1,1123.0348 492,1114.5371 497.5,1109.5129 C 503,1104.4887 512.225,1096.5133 518,1091.7897 C 523.775,1087.0662 537.98051,1073.5936 549.5678,1061.8507 C 575.82773,1035.2381 591.54566,1015.0357 595.43851,1002.8926 C 599.43487,990.42658 611.24154,968.24448 620.87724,955.09887 C 631.58886,940.48544 661.54765,913.4837 676.5,904.96631 C 693.10022,895.51023 716.32437,887.63754 736.5,884.62707 L 744.5,883.43336 L 838.5,899.12323 C 890.2,907.75266 935.425,915.62442 939,916.61604 C 948.59245,919.27675 964.07515,928.88509 973.27962,937.88949 C 983.12788,947.52368 985.73646,951.93416 1031.0114,1035.5 C 1068.2657,1104.262 1070.6466,1108.3747 1081.1809,1122.1622 C 1084.8554,1126.9715 1089.7708,1133.7399 1092.104,1137.2032 C 1097.3451,1144.9828 1120.0306,1174.6907 1128.9842,1185.5 C 1138.9084,1197.481 1147.1673,1208.661 1160.7887,1228.5537 C 1177.8065,1253.4062 1188.0836,1271.1508 1194.639,1287 C 1197.7101,1294.425 1201.7477,1304.0667 1203.6114,1308.4261 L 1207,1316.3522 L 1207,1347.6212 C 1207,1379.5287 1205.7836,1394.0494 1201.5723,1412.4122 C 1200.8044,1415.7605 1199.8524,1421.2 1199.4568,1424.5 C 1199.0612,1427.8 1197.5014,1434.55 1195.9906,1439.5 C 1194.4798,1444.45 1191.7924,1453.675 1190.0188,1460 C 1188.2451,1466.325 1185.539,1474.65 1184.0053,1478.5 C 1182.4715,1482.35 1179.5647,1490.7383 1177.5456,1497.1408 C 1173.0988,1511.2418 1161.5072,1535.3658 1155.8069,1542.3827 C 1143.5933,1557.4175 1129.1235,1569.3232 1115.5425,1575.5123 C 1096.5227,1584.1799 1070.6577,1592.1644 1050,1595.7451 C 1041.1243,1597.2836 1038.0304,1597.402 1030,1596.5103 z M 1241.3701,1044.8023 C 1233.556,1043.6579 1217.4588,1037.4662 1212.7222,1033.7831 C 1202.2057,1025.6057 1187.7013,1009.3258 1177.7344,994.51246 C 1161.5195,970.41311 1154.0098,951.85172 1154.0611,936 C 1154.0912,926.66948 1162.6435,890.30329 1167.6405,878.2568 C 1169.5212,873.72303 1173.2685,863.82303 1175.9678,856.2568 C 1182.1531,838.91897 1195.5249,808.58245 1201.6953,797.8889 C 1203.476,794.80279 1210.9554,779.72779 1218.316,764.3889 C 1225.6767,749.05 1233.3653,733.89738 1235.4017,730.7164 C 1237.4382,727.53543 1240.8923,721.23543 1243.0774,716.7164 C 1245.2625,712.19738 1254.3515,697.46365 1263.2752,683.97478 L 1279.5,659.44956 L 1290.5,656.19391 C 1310.1255,650.38539 1320.2041,648.9792 1342.3203,648.96388 L 1362.1405,648.95015 L 1376.3203,653.09627 C 1384.1191,655.37664 1391.3596,657.48419 1392.4102,657.77972 C 1394.7174,658.42872 1407.5537,667.38284 1414.5922,673.25304 C 1426.3175,683.03212 1432.839,695.59974 1437.5178,717.43299 C 1438.4528,721.79614 1439.8405,727.13074 1440.6015,729.28766 C 1442.782,735.46776 1448.7813,766.97518 1451.0193,784 C 1452.1399,792.525 1453.3279,808.05 1453.6593,818.5 C 1454.3067,838.91571 1453.6974,843.67014 1446.4674,874.62006 C 1442.5212,891.51289 1431.8724,911.29655 1416.7896,929.75671 C 1404.3564,944.97396 1362.2678,985.34186 1345.913,997.7357 C 1340.1859,1002.0758 1333.3775,1007.248 1330.7833,1009.2295 C 1318.3965,1018.6908 1289.1624,1034.3857 1273.4964,1039.9851 C 1262.9794,1043.7441 1248.7318,1045.8805 1241.3701,1044.8023 z M 345,1028.4727 C 333.84133,1027.1058 304.84516,1021.0507 296.5,1018.3447 C 293.75,1017.453 289.475,1015.722 287,1014.4981 C 284.525,1013.2741 280.72485,1011.9495 278.55523,1011.5545 C 268.66251,1009.7534 261.94204,1003.9848 244.63796,982.44107 C 233.40428,968.45507 226.68507,957.69108 215.86453,936.34684 C 203.51078,911.97821 196.31533,888.47023 192.4342,859.79847 C 189.12666,835.36399 193.05046,806.99256 204.42576,773.09237 C 206.90019,765.71818 209.23127,757.64059 209.60593,755.14218 C 209.98059,752.64376 211.32173,748.2602 212.58623,745.40093 C 213.85074,742.54166 215.62487,737.56925 216.52874,734.35113 C 217.43261,731.13301 219.88583,725.125 221.98033,721 C 224.07483,716.875 227.72188,708.775 230.08488,703 C 232.44788,697.225 235.81901,690.7 237.57627,688.5 C 239.33353,686.3 242.56886,681.7011 244.76591,678.28021 C 249.74605,670.52594 263.02122,655.55476 268.99271,650.95824 C 284.92998,638.69062 292.48655,634.75377 306.5,631.41756 C 319.09937,628.418 325.18641,628.28962 342.5,630.65832 C 360.84793,633.16853 365.59902,637.78464 371.40932,658.74631 C 375.12283,672.14345 379.41727,682.71412 384.34634,690.59052 C 386.72453,694.39073 390.56625,700.875 392.8835,705 C 395.20076,709.125 400.7482,717.675 405.21115,724 C 409.67409,730.325 415.88171,739.325 419.00585,744 C 422.12999,748.675 425.50465,753.175 426.50508,754 C 427.50552,754.825 433.63863,762.10321 440.13421,770.17379 C 446.62979,778.24437 452.41043,785.13563 452.98007,785.48768 C 454.43113,786.38449 463.6836,799.01448 472.15547,811.66287 L 479.30509,822.33716 L 478.6831,840.93294 C 477.98504,861.80261 474.49552,887.7853 470.34736,903 C 468.92281,908.225 466.48068,917.35006 464.9204,923.27791 C 463.36013,929.20576 461.78167,934.54425 461.41272,935.14122 C 461.04378,935.73819 458.83006,941.46313 456.49336,947.86331 C 450.61376,963.96743 443.13684,980.38591 437.45382,989.67197 C 434.81893,993.97739 429.84009,1002.1272 426.38972,1007.7827 C 415.98906,1024.8303 415.29384,1025.5075 406.7824,1026.8822 C 385.98761,1030.2409 364.04526,1030.8058 345,1028.4727 z M 972.5,806.49327 C 945.00681,802.6942 939.72785,801.82194 930.14584,799.49493 C 924.45105,798.11194 912.95095,794.04589 904.59006,790.45925 C 890.11751,784.25084 889.04547,783.59186 882.23716,776.71904 C 876.41712,770.84386 874.20939,767.64499 870.37752,759.53509 C 865.94682,750.15784 865.58932,748.772 864.31528,736.03509 C 863.29391,725.82416 863.2109,719.79845 863.97729,711.5 C 864.53602,705.45 864.9947,697.10689 864.99658,692.95975 C 864.99846,688.81261 866.18648,678.91261 867.63661,670.95975 C 870.72264,654.03533 871.30282,632.7237 869.25,611.69553 C 867.5764,594.55187 867.69184,558.91924 869.49789,535.18063 C 870.30629,524.55497 871.19229,515.49788 871.46678,515.05376 C 871.74126,514.60963 872.67164,504.62835 873.53429,492.87313 C 874.39693,481.11791 876.16398,464.3 877.46105,455.5 C 878.75813,446.7 880.38614,431.4 881.07886,421.5 L 882.33835,403.5 L 887.06842,393.7947 C 896.75731,373.91471 917.91308,352.97955 944.5,336.96202 C 953.1155,331.77153 977.2471,319.86645 998.5,310.32167 C 1016.0091,302.45827 1035.0591,297.99411 1051.0677,298.00303 C 1063.2734,298.00982 1087.068,304.006 1099.6247,310.23926 C 1113.6206,317.18695 1117.4931,319.64711 1131.1803,330.2861 C 1150.3981,345.22408 1164.0631,359.8886 1183.5626,386.5 C 1196.6697,404.38743 1200.3517,410.15033 1213.0228,432.60936 L 1222.6757,449.71871 L 1224.0274,460.60936 C 1226.1248,477.50876 1225.6703,504.37717 1223.0903,516 C 1220.0866,529.53182 1213.4119,551.2537 1210.4791,557.04133 C 1209.1055,559.75189 1206.458,566.13896 1204.5957,571.23482 C 1202.7334,576.33067 1198.185,587.025 1194.488,595 C 1187.5927,609.87466 1176.5648,634.29782 1170.331,648.5 C 1168.3998,652.9 1165.9089,659.425 1164.7959,663 C 1162.1703,671.43327 1158.8569,677.96378 1153.1305,685.99129 C 1150.5837,689.5615 1146.7,695.28852 1144.5,698.718 C 1130.9676,719.81304 1104.8771,749.63692 1088,763.30264 C 1083.875,766.64274 1078.4004,771.29864 1075.8342,773.64907 C 1069.2861,779.64672 1051.5621,791.13848 1044.4603,793.99112 C 1041.1821,795.3079 1036.4053,797.66082 1033.8452,799.21982 C 1024.3977,804.97296 1016.8608,806.72127 998.90837,807.3241 C 987.60304,807.70373 979.38998,807.44534 972.5,806.49327 z M 639.57148,781.20782 C 602.94726,766.88896 579.10201,750.33715 545.44332,715.87021 C 529.83055,699.88252 525.5104,694.44879 511.75641,673.5 C 493.41966,645.57117 480.37077,619.7687 475.40162,601.61314 C 474.02978,596.60092 471.01753,586.65 468.70773,579.5 L 464.50809,566.5 L 464.60728,545.5 C 464.70657,524.47893 465.48015,516.33443 468.97644,499.5 C 470.00449,494.55 471.15606,487.8 471.53549,484.5 C 473.45477,467.8076 487.89319,413.01018 493.02007,402.96067 C 494.21483,400.61874 496.69242,394.83203 498.52583,390.10131 C 504.37801,375.00102 515.70928,351.46724 523.32306,338.60026 C 525.5686,334.8054 529.54347,329.70103 532.15611,327.2572 C 538.95689,320.89588 561.15271,307.08546 577.48989,299.05018 C 593.77368,291.04115 628.93495,279.00244 636.06184,278.99598 C 638.50283,278.99377 644.55,278.36059 649.5,277.58891 C 665.52939,275.09002 675.69096,274.84796 695,276.50507 C 705.175,277.37829 715.54878,278.43707 718.05284,278.85792 C 722.93759,279.67887 737.94833,287.3535 744.5,292.37971 C 756.19617,301.35262 771.12084,316.72837 783.42218,332.47828 C 785.57937,335.24022 789.87284,340.425 792.9632,344 C 805.20357,358.1599 809.6562,377.38519 807.11735,405.1139 C 806.40058,412.94235 804.68583,423.06699 802.98722,429.5 C 801.29624,435.90408 799.41765,446.97606 798.49093,456 C 797.61545,464.525 795.37464,479.825 793.51136,490 C 791.64807,500.175 789.62467,513.9 789.01491,520.5 C 788.40515,527.1 787.27109,538.8 786.49477,546.5 C 785.18335,559.50746 782.57575,605.68698 779.85993,664 C 779.15443,679.14819 777.49288,698.03459 775.50697,713.47887 L 772.29505,738.45774 L 760.65163,749.62551 C 748.34895,761.42561 740.93901,766.10784 724,772.78516 C 709.43513,778.5266 683.71418,783.53541 662.07148,784.84491 L 650.64295,785.5364 L 639.57148,781.20782 z"
     id="path3433" /></g><path
   style="overflow:visible;enable-background:accumulate;fill-rule:evenodd;clip-rule:evenodd;fill:url(#linearGradient2437);fill-opacity:1;opacity:1;color:#000000;stroke-width:1;stroke-linecap:butt;stroke-linejoin:miter;marker:none;marker-start:none;marker-mid:none;marker-end:none;stroke-miterlimit:4;stroke-dasharray:none;stroke-dashoffset:0;stroke-opacity:1;visibility:visible;display:inline"
   d="M86.992,14c0,6.065,4.938,11,11.008,11s11.008-4.935,11.008-11  S104.07,3,98,3S86.992,7.935,86.992,14z"
   id="path2438" /></svg>