<?xml version="1.0" encoding="UTF-8" standalone="no"?>
<svg
   xmlns:dc="http://purl.org/dc/elements/1.1/"
   xmlns:cc="http://creativecommons.org/ns#"
   xmlns:rdf="http://www.w3.org/1999/02/22-rdf-syntax-ns#"
   xmlns:svg="http://www.w3.org/2000/svg"
   xmlns="http://www.w3.org/2000/svg"
   xmlns:xlink="http://www.w3.org/1999/xlink"
   xmlns:sodipodi="http://sodipodi.sourceforge.net/DTD/sodipodi-0.dtd"
   xmlns:inkscape="http://www.inkscape.org/namespaces/inkscape"
   version="1.1"
   width="128"
   height="128"
   viewBox="0 0 128 128"
   style="overflow:visible;enable-background:new 0 0 128 128;"
   xml:space="preserve"
   id="svg2"
   sodipodi:version="0.32"
   inkscape:version="0.46"
   sodipodi:docname="fb-logo-CoF-3-HQ.svg"
   inkscape:output_extension="org.inkscape.output.svg.inkscape"
   inkscape:export-filename="/media/Shnatsel/Furbuntu/Моя графика/fb-logo-CoF-3-HQ.png"
   inkscape:export-xdpi="7031.25"
   inkscape:export-ydpi="7031.25"><metadata
   id="metadata51"><rdf:RDF><cc:Work
       rdf:about=""><dc:format>image/svg+xml</dc:format><dc:type
         rdf:resource="http://purl.org/dc/dcmitype/StillImage" /></cc:Work></rdf:RDF></metadata><defs
   id="defs49"><inkscape:perspective
     sodipodi:type="inkscape:persp3d"
     inkscape:vp_x="0 : 64 : 1"
     inkscape:vp_y="0 : 1000 : 0"
     inkscape:vp_z="128 : 64 : 1"
     inkscape:persp3d-origin="64 : 42.666667 : 1"
     id="perspective53" /><linearGradient
     inkscape:collect="always"
     xlink:href="#XMLID_4_"
     id="linearGradient3284"
     gradientUnits="userSpaceOnUse"
     x1="1.367"
     y1="29.851837"
     x2="23.732"
     y2="78.54007" /><linearGradient
     y2="-6.2254333"
     x2="-15.286263"
     y1="7.1375623"
     x1="-10.638614"
     gradientTransform="translate(22.43465,4.820297)"
     gradientUnits="userSpaceOnUse"
     id="linearGradient3217"
     xlink:href="#linearGradient9233"
     inkscape:collect="always" /><inkscape:perspective
     sodipodi:type="inkscape:persp3d"
     inkscape:vp_x="0 : 24 : 1"
     inkscape:vp_y="0 : 1000 : 0"
     inkscape:vp_z="48 : 24 : 1"
     inkscape:persp3d-origin="24 : 16 : 1"
     id="perspective19" /><linearGradient
     id="linearGradient9233"><stop
       id="stop9235"
       offset="0"
       style="stop-color:#eeeeec;stop-opacity:1;" /><stop
       id="stop9237"
       offset="1"
       style="stop-color:#eeeeec;stop-opacity:0;" /></linearGradient><linearGradient
     inkscape:collect="always"
     xlink:href="#linearGradient9233"
     id="linearGradient16096"
     gradientUnits="userSpaceOnUse"
     gradientTransform="translate(22.43465,4.820297)"
     x1="-10.638614"
     y1="7.1375623"
     x2="-15.286263"
     y2="-6.2254333" /><linearGradient
     id="linearGradient2778"><stop
       id="stop2780"
       offset="0"
       style="stop-color:#ff0202;stop-opacity:1;" /><stop
       id="stop2782"
       offset="1"
       style="stop-color:#b20000;stop-opacity:1;" /></linearGradient><linearGradient
     id="linearGradient2796"><stop
       id="stop2798"
       offset="0"
       style="stop-color:white;stop-opacity:1;" /><stop
       id="stop2800"
       offset="1"
       style="stop-color:#dfdfdf;stop-opacity:1;" /></linearGradient><inkscape:perspective
     id="perspective28"
     inkscape:persp3d-origin="24 : 16 : 1"
     inkscape:vp_z="48 : 24 : 1"
     inkscape:vp_y="0 : 1000 : 0"
     inkscape:vp_x="0 : 24 : 1"
     sodipodi:type="inkscape:persp3d" /><linearGradient
     y2="-6.2254333"
     x2="-15.286263"
     y1="7.1375623"
     x1="-10.638614"
     gradientTransform="translate(22.43465,4.820297)"
     gradientUnits="userSpaceOnUse"
     id="linearGradient3366"
     xlink:href="#linearGradient9233"
     inkscape:collect="always" /><inkscape:perspective
     sodipodi:type="inkscape:persp3d"
     inkscape:vp_x="0 : 24 : 1"
     inkscape:vp_y="0 : 1000 : 0"
     inkscape:vp_z="48 : 24 : 1"
     inkscape:persp3d-origin="24 : 16 : 1"
     id="perspective3364" /><linearGradient
     id="linearGradient3358"><stop
       id="stop3360"
       offset="0"
       style="stop-color:#eeeeec;stop-opacity:1;" /><stop
       id="stop3362"
       offset="1"
       style="stop-color:#eeeeec;stop-opacity:0;" /></linearGradient><linearGradient
     inkscape:collect="always"
     xlink:href="#linearGradient9233"
     id="linearGradient3356"
     gradientUnits="userSpaceOnUse"
     gradientTransform="translate(22.43465,4.820297)"
     x1="-10.638614"
     y1="7.1375623"
     x2="-15.286263"
     y2="-6.2254333" /><linearGradient
     id="linearGradient3350"><stop
       id="stop3352"
       offset="0"
       style="stop-color:#ff0202;stop-opacity:1;" /><stop
       id="stop3354"
       offset="1"
       style="stop-color:#b20000;stop-opacity:1;" /></linearGradient><linearGradient
     id="linearGradient3344"><stop
       id="stop3346"
       offset="0"
       style="stop-color:white;stop-opacity:1;" /><stop
       id="stop3348"
       offset="1"
       style="stop-color:#dfdfdf;stop-opacity:1;" /></linearGradient><inkscape:perspective
     id="perspective3342"
     inkscape:persp3d-origin="24 : 16 : 1"
     inkscape:vp_z="48 : 24 : 1"
     inkscape:vp_y="0 : 1000 : 0"
     inkscape:vp_x="0 : 24 : 1"
     sodipodi:type="inkscape:persp3d" /><linearGradient
     inkscape:collect="always"
     xlink:href="#XMLID_4_"
     id="linearGradient3500"
     gradientUnits="userSpaceOnUse"
     x1="31.078154"
     y1="-10.60223"
     x2="40.239052"
     y2="64.485939" /><linearGradient
     inkscape:collect="always"
     xlink:href="#XMLID_3_"
     id="linearGradient3220"
     gradientUnits="userSpaceOnUse"
     x1="-1332.4691"
     y1="-1436.056"
     x2="2739.0889"
     y2="3313.9075" /><linearGradient
     inkscape:collect="always"
     xlink:href="#XMLID_3_"
     id="linearGradient3222"
     gradientUnits="userSpaceOnUse"
     x1="59.143181"
     y1="-26.543121"
     x2="79.01947"
     y2="54.517281" /><linearGradient
     inkscape:collect="always"
     xlink:href="#XMLID_3_"
     id="linearGradient2437"
     gradientUnits="userSpaceOnUse"
     x1="81.539497"
     y1="-26.543121"
     x2="101.37206"
     y2="53.784409" /><linearGradient
     inkscape:collect="always"
     xlink:href="#XMLID_3_"
     id="linearGradient2443"
     gradientUnits="userSpaceOnUse"
     x1="59.143181"
     y1="-26.543121"
     x2="79.01947"
     y2="54.517281"
     gradientTransform="matrix(1.0210572,0,0,1.0210572,-1.7169966,-0.521693)" /><linearGradient
     inkscape:collect="always"
     xlink:href="#XMLID_3_"
     id="linearGradient2447"
     gradientUnits="userSpaceOnUse"
     gradientTransform="matrix(1.0210572,0,0,1.0210572,-1.7169966,-0.521693)"
     x1="59.143181"
     y1="-26.543121"
     x2="79.01947"
     y2="54.517281" /><linearGradient
     inkscape:collect="always"
     xlink:href="#XMLID_4_"
     id="linearGradient2452"
     gradientUnits="userSpaceOnUse"
     x1="31.078154"
     y1="-10.60223"
     x2="40.239052"
     y2="64.485939" /><linearGradient
     inkscape:collect="always"
     xlink:href="#XMLID_4_"
     id="linearGradient2456"
     gradientUnits="userSpaceOnUse"
     x1="31.078154"
     y1="-10.60223"
     x2="40.239052"
     y2="64.485939" /><filter
     inkscape:collect="always"
     id="filter3272"><feGaussianBlur
       inkscape:collect="always"
       stdDeviation="0.67512609"
       id="feGaussianBlur3274" /></filter></defs><sodipodi:namedview
   inkscape:window-height="695"
   inkscape:window-width="1024"
   inkscape:pageshadow="2"
   inkscape:pageopacity="0"
   guidetolerance="10.0"
   gridtolerance="10.0"
   objecttolerance="10.0"
   borderopacity="1.0"
   bordercolor="#666666"
   pagecolor="#000000"
   id="base"
   showgrid="false"
   inkscape:zoom="1"
   inkscape:cx="98.488368"
   inkscape:cy="40.391857"
   inkscape:window-x="0"
   inkscape:window-y="24"
   inkscape:current-layer="svg2" />

<path
   style="opacity:0.40000035000000000;fill-rule:evenodd;clip-rule:evenodd;fill:#141414;filter:url(#filter3272)"
   d="M51.868,85.936  c-6.409-5.639-10.084-13.715-10.084-22.156c0-8.504,3.714-16.616,10.19-22.257c0.365-0.319,0.445-0.856,0.186-1.267L42.036,24.192  c-0.148-0.234-0.388-0.396-0.661-0.444s-0.556,0.021-0.773,0.189c-8.268,6.368-14.483,15.328-17.502,25.23  c-0.118,0.387,0.012,0.807,0.331,1.059c4.155,3.291,6.635,8.357,6.635,13.553s-2.481,10.264-6.637,13.555  c-0.317,0.251-0.449,0.67-0.331,1.058c2.995,9.819,9.14,18.728,17.306,25.082c0.219,0.171,0.499,0.241,0.773,0.193  c0.273-0.047,0.514-0.208,0.663-0.441l10.209-16.022C52.309,86.794,52.232,86.256,51.868,85.936z M12.803,51.223  C5.732,51.223,0,56.951,0,64.016C0,71.081,5.732,76.81,12.803,76.81s12.803-5.729,12.803-12.794  C25.606,56.951,19.874,51.223,12.803,51.223z M58.779,36.162c0.257,0.408,0.772,0.57,1.217,0.383  c3.754-1.587,7.654-2.392,11.59-2.392c14.478,0,27.107,10.734,29.377,24.969c0.076,0.478,0.488,0.829,0.971,0.829l19.08,0.029  c0.278,0,0.543-0.117,0.73-0.323s0.277-0.479,0.251-0.757c-1.028-10.562-5.524-20.75-12.659-28.685  c-0.322-0.36-0.859-0.432-1.266-0.169c-2.877,1.858-6.145,2.842-9.447,2.842c-9.633,0-17.469-7.79-17.47-17.364  c0.001-0.005,0.019-0.366,0.019-0.382c0-0.477-0.343-0.888-0.816-0.97c-3.012-0.522-5.962-0.888-8.77-0.888  c-7.711,0-15.502,1.937-22.532,5.411c-0.25,0.124-0.436,0.348-0.511,0.616c-0.076,0.268-0.034,0.555,0.114,0.791L58.779,36.162z   M98,28.5c6.908,0,12.51-5.598,12.51-12.5c0-6.904-5.602-12.5-12.51-12.5S85.49,9.096,85.49,16C85.49,22.902,91.092,28.5,98,28.5z   M120.994,67.733l-19.078,0.062c-0.481,0.001-0.892,0.352-0.969,0.826C98.646,82.75,86.024,93.405,71.586,93.405  c-3.982,0-7.926-0.824-11.722-2.45c-0.444-0.189-0.958-0.03-1.219,0.375l-10.203,16.015c-0.149,0.235-0.192,0.522-0.118,0.791  c0.074,0.268,0.259,0.493,0.508,0.617c7.085,3.547,14.954,5.421,22.754,5.421c2.893,0,5.906-0.273,8.955-0.814  c0.428-0.075,0.756-0.424,0.807-0.855c1.016-8.775,8.443-15.393,17.275-15.393c2.738,0,5.524,0.698,8.056,2.018  c0.385,0.201,0.854,0.127,1.159-0.184c7.985-8.143,13.008-18.842,14.14-30.129c0.028-0.277-0.063-0.553-0.251-0.76  S121.272,67.732,120.994,67.733z M98.486,101.545c-7.071,0-12.804,5.697-12.804,12.728c0,7.029,5.732,12.728,12.804,12.728  c7.07,0,12.803-5.698,12.803-12.728C111.289,107.242,105.557,101.545,98.486,101.545z"
   id="path6" />

<path
   style="fill:#ffefba;stroke:#a39277;fill-opacity:1;stroke-opacity:1;stroke-width:1;stroke-miterlimit:4;stroke-dasharray:none"
   d="M40.602,21.938c-8.268,6.368-14.483,15.328-17.502,25.23c-0.118,0.387,0.012,0.807,0.331,1.059  c4.155,3.291,6.635,8.357,6.635,13.553s-2.481,10.264-6.637,13.555c-0.317,0.251-0.449,0.67-0.331,1.058  c2.995,9.819,9.14,18.728,17.306,25.082c0.219,0.171,0.499,0.241,0.773,0.193c0.273-0.047,0.514-0.208,0.663-0.441l10.209-16.022  c0.261-0.409,0.185-0.947-0.18-1.268c-6.409-5.639-10.084-13.715-10.084-22.156c0-8.504,3.714-16.616,10.19-22.257  c0.365-0.319,0.445-0.856,0.186-1.267L42.036,22.192c-0.148-0.234-0.388-0.396-0.661-0.444S40.819,21.769,40.602,21.938z"
   id="path10" />

<ellipse
   style="fill-rule:evenodd;clip-rule:evenodd;fill:#a39277;fill-opacity:1"
   cx="12.803"
   cy="62.016"
   rx="12.803"
   ry="12.794"
   id="ellipse14" />
<path
   style="fill:#ffefba;fill-opacity:1;fill-rule:evenodd"
   d="M 1.3504359,62.016016 C 1.3504359,68.326101 6.488039,73.460797 12.802,73.460797 C 19.115961,73.460797 24.253564,68.326101 24.253564,62.016016 C 24.253564,55.70593 19.115961,50.572203 12.802,50.572203 C 6.488039,50.572203 1.3504359,55.70593 1.3504359,62.016016 z"
   id="path16" /><path
   d="M 20.876652,58.732692 C 20.680842,59.196176 20.034669,59.636192 20.420174,60.183688 C 20.925526,61.005342 20.641957,61.989336 20.675443,62.89066 C 20.691597,63.502447 21.213805,63.965523 21.178031,64.594974 C 21.203519,65.925383 20.168906,67.070248 18.997462,67.483446 C 18.053213,67.805054 16.996924,67.659334 16.089282,67.270203 C 15.409951,66.879016 14.962754,66.181341 14.351071,65.695812 C 13.9545,65.278151 13.420188,65.110785 12.919966,64.879528 C 12.191679,64.434304 11.610537,63.581242 11.775448,62.67872 C 11.870387,61.918042 11.866243,61.140801 11.997124,60.387696 C 12.234177,59.731938 12.948086,59.50511 13.443559,59.104282 C 14.511138,58.505166 15.291597,57.520141 16.264594,56.792434 C 16.825687,56.315332 17.577818,56.264732 18.27073,56.370255 C 19.079663,56.482896 20.068535,56.542006 20.548994,57.337155 C 20.735869,57.760002 21.037771,58.256614 20.876652,58.732692 z M 13.2108,56.607232 C 12.840931,57.093196 12.285503,57.653779 11.62723,57.494979 C 10.554427,57.282563 9.5390527,56.829472 8.5582426,56.343893 C 8.0605567,56.147866 7.8777238,55.583486 7.9271498,55.075112 C 7.8577826,54.393194 8.3793404,53.877945 9.0003404,53.773736 C 9.8660821,53.475652 10.926903,53.33502 11.684871,53.99143 C 12.347441,54.559034 13.092467,55.185361 13.311837,56.081734 C 13.330485,56.262789 13.289054,56.445868 13.2108,56.607232 z M 14.20777,68.546414 C 14.166803,69.21676 13.898294,69.895847 13.320284,70.253009 C 12.636892,70.779324 11.733775,71.031023 10.898018,70.765671 C 10.132436,70.609941 9.2005923,70.348761 8.8903746,69.52052 C 8.5676676,68.82517 9.2167331,68.551726 9.6971894,68.305165 C 10.259237,67.937863 10.657881,67.370316 11.198979,66.981178 C 11.905068,66.807216 12.666029,66.985323 13.337381,67.246988 C 13.858132,67.371596 14.285476,67.804163 14.206898,68.386833 L 14.207766,68.467194 L 14.20777,68.546414 L 14.20777,68.546414 z M 10.456493,60.165357 C 10.451566,60.768411 10.356625,61.641308 9.6317103,61.73677 C 8.9491255,61.789131 8.2603168,61.7396 7.5784838,61.832281 C 6.7377746,61.880177 5.8866484,61.946301 5.0502946,61.802324 C 4.3412162,61.471069 3.9554313,60.701161 3.6556411,60.00432 C 3.3763269,59.121152 3.9831372,58.267944 4.6105633,57.732969 C 5.0398512,57.302712 5.6020658,56.983914 6.2199898,57.042498 C 7.0098322,57.145807 7.7678776,57.454684 8.5045562,57.759266 C 9.1646212,58.083764 9.7789077,58.563188 10.213041,59.172492 C 10.414497,59.46118 10.472429,59.817692 10.456493,60.165357 z M 10.503712,64.77226 C 10.135805,66.013802 9.090473,66.985895 7.9068626,67.378696 C 7.2026722,67.544226 6.4620111,67.405975 5.7664197,67.242922 C 5.1748427,67.071176 4.4827531,66.901111 4.2035715,66.263287 C 3.811697,65.642368 3.6082648,64.859241 3.75321,64.129071 C 4.0307244,63.549034 4.5304475,62.877571 5.2251216,62.889471 C 6.3580529,62.997466 7.4970549,63.050396 8.6338322,62.97927 C 9.1444078,62.989276 9.8069507,62.83692 10.141855,63.355463 C 10.404909,63.765307 10.564794,64.279793 10.503712,64.77226 z"
   id="path3329"
   style="opacity:0.94927536000000001;fill:#a39277;fill-opacity:1;fill-rule:nonzero;stroke-width:0.61003532999999999;stroke-linecap:butt;stroke-linejoin:miter;marker:none;marker-start:none;marker-mid:none;marker-end:none;stroke-miterlimit:4;stroke-dasharray:none;stroke-dashoffset:0;stroke-opacity:1;visibility:visible;display:inline;overflow:visible;enable-background:accumulate;color:#000000" />
<path
   style="fill:#ffefba;fill-opacity:1;stroke:#a39277;stroke-opacity:1;stroke-width:1;stroke-miterlimit:4;stroke-dasharray:none"
   d="M49.054,16.696c-0.25,0.124-0.436,0.348-0.511,0.616c-0.076,0.268-0.034,0.555,0.114,0.791  l10.122,16.059c0.257,0.408,0.772,0.57,1.217,0.383c3.754-1.587,7.654-2.392,11.59-2.392c14.478,0,27.107,10.734,29.377,24.969  c0.076,0.478,0.488,0.829,0.971,0.829l19.08,0.029c0.278,0,0.543-0.117,0.73-0.323s0.277-0.479,0.251-0.757  c-1.028-10.562-5.524-20.75-12.659-28.685c-0.322-0.36-0.859-0.432-1.266-0.169c-2.877,1.858-6.145,2.842-9.447,2.842  c-9.633,0-17.469-7.79-17.47-17.364c0.001-0.005,0.019-0.366,0.019-0.382c0-0.477-0.343-0.888-0.816-0.97  c-3.012-0.522-5.962-0.888-8.77-0.888C63.875,11.285,56.084,13.222,49.054,16.696z"
   id="path18" />

<ellipse
   style="fill-rule:evenodd;clip-rule:evenodd;fill:#b2a288;fill-opacity:1"
   cx="98"
   cy="14"
   rx="12.51"
   ry="12.5"
   id="ellipse22" />
<path
   style="fill-rule:evenodd;clip-rule:evenodd;fill:#fcf4d3;fill-opacity:1"
   d="M86.992,14c0,6.065,4.938,11,11.008,11s11.008-4.935,11.008-11  S104.07,3,98,3S86.992,7.935,86.992,14z"
   id="path24" />
<path
   style="fill:#ffefba;fill-opacity:1;stroke:#a39277;stroke-opacity:1;stroke-width:1;stroke-miterlimit:4;stroke-dasharray:none"
   d="M120.994,65.733l-19.078,0.062c-0.481,0.001-0.892,0.352-0.969,0.826  C98.646,80.75,86.024,91.405,71.586,91.405c-3.982,0-7.926-0.824-11.722-2.45c-0.444-0.189-0.958-0.03-1.219,0.375l-10.203,16.015  c-0.149,0.235-0.192,0.522-0.118,0.791c0.074,0.268,0.259,0.493,0.508,0.617c7.085,3.547,14.954,5.421,22.754,5.421  c2.893,0,5.906-0.273,8.955-0.814c0.428-0.075,0.756-0.424,0.807-0.855c1.016-8.775,8.443-15.393,17.275-15.393  c2.738,0,5.524,0.698,8.056,2.018c0.385,0.201,0.854,0.127,1.159-0.184c7.985-8.143,13.008-18.842,14.14-30.129  c0.028-0.277-0.063-0.553-0.251-0.76S121.272,65.732,120.994,65.733z"
   id="path26" />
<ellipse
   style="fill-rule:evenodd;clip-rule:evenodd;fill:#a39277;fill-opacity:1"
   cx="98.486"
   cy="112.272"
   rx="12.803"
   ry="12.728"
   id="ellipse28" />
<path
   style="fill-rule:evenodd;clip-rule:evenodd;fill:#ffefba;fill-opacity:1"
   d="M86.844,112.272c0,6.379,5.223,11.569,11.643,11.569  s11.643-5.19,11.643-11.569s-5.223-11.569-11.643-11.569S86.844,105.894,86.844,112.272z"
   id="path30" />
<linearGradient
   id="XMLID_3_"
   gradientUnits="userSpaceOnUse"
   x1="59.509617"
   y1="-26.176685"
   x2="79.01947"
   y2="54.517281">
	<stop
   offset="0"
   style="stop-color:#ffffff;stop-opacity:0;"
   id="stop33" />
	<stop
   offset="1"
   style="stop-color:#ffffff;stop-opacity:1;"
   id="stop35" />
</linearGradient>
<path
   transform="matrix(0.9862631,0,0,0.9862631,1.1848982,0.3402204)"
   style="fill:url(#linearGradient2447);fill-rule:evenodd"
   d="M 71.375,11.625 C 63.664854,11.606034 55.903575,13.519834 48.871039,16.984157 C 48.653238,17.088877 48.556272,17.198151 48.508442,17.360424 C 48.452461,17.550353 48.539218,17.697936 48.625,17.84375 C 48.754678,18.06418 51.250369,21.980993 53.698947,25.890843 C 56.166256,29.830602 58.664448,33.785263 58.730197,33.890843 C 58.992422,34.311926 59.247552,34.290208 59.508357,34.176924 C 63.375886,32.566878 67.336712,31.742949 71.382921,31.742949 C 78.079533,31.74295 84.326709,33.904335 89.728811,37.911019 C 89.839399,37.984263 90.086705,37.918836 90.21875,37.90625 C 98.146911,37.348347 106.96827,36.76693 114.89488,36.1875 C 114.73913,35.885705 114.51427,35.563168 114.40307,35.34534 C 112.92714,33.038996 111.46265,31.048972 109.6875,29.0625 C 109.06846,28.25683 108.87994,28.392345 108.51058,28.609102 C 105.59222,30.429542 102.5025,31.454637 99.00159,31.487282 C 88.869991,31.581756 80.566274,23.405894 80.560277,13.287055 C 80.68153,12.412477 80.109517,12.518159 80.013834,12.476779 C 77.049606,11.972295 74.163785,11.625 71.375,11.625 z"
   id="path2445"
   sodipodi:nodetypes="ccsssscsccccccsccc" />
<linearGradient
   id="XMLID_4_"
   gradientUnits="userSpaceOnUse"
   x1="37.674"
   y1="4.7880783"
   x2="37.674"
   y2="78.776939">
	<stop
   offset="0"
   style="stop-color:#f9f9f8;stop-opacity:0"
   id="stop40" />
	<stop
   offset="1"
   style="stop-color:#f9f9f8;stop-opacity:1"
   id="stop42" />
</linearGradient>
<path
   style="fill:url(#linearGradient2456);fill-rule:evenodd"
   d="M 41.226562,22.234375 C 40.968223,22.232314 40.852706,22.377103 40.738281,22.472656 C 32.64214,28.750361 26.583764,37.532876 23.605469,47.222656 C 23.48676,47.582087 23.631775,47.764479 23.84375,47.9375 C 26.08395,49.741223 27.867534,52.068897 29.03125,54.6875 C 29.124195,54.869566 29.252405,55.189885 29.296875,55.308594 C 33.704355,52.446977 38.682394,50.589307 44.125,48.40625 C 44.268053,48.354003 44.52593,48.23925 44.605469,48.109375 C 45.360806,46.564511 46.501503,44.815441 47.800002,43.177684 C 48.96379,41.709833 50.270825,40.35056 51.507812,39.269531 C 51.685851,39.113939 51.815598,38.994286 51.808284,38.778495 C 51.803035,38.623651 51.781037,38.604183 51.636719,38.367188 C 51.489183,38.124908 41.956376,23.0155 41.722656,22.644531 C 41.600145,22.451861 41.505654,22.240511 41.226562,22.234375 z"
   id="path2454"
   sodipodi:nodetypes="ccccccccsssssc" />
<path
   style="fill-rule:evenodd;clip-rule:evenodd;fill:url(#linearGradient3284);opacity:1;color:#000000;fill-opacity:1;stroke-width:1;stroke-linecap:butt;stroke-linejoin:miter;marker:none;marker-start:none;marker-mid:none;marker-end:none;stroke-miterlimit:4;stroke-dasharray:none;stroke-dashoffset:0;stroke-opacity:1;visibility:visible;display:inline;overflow:visible;enable-background:accumulate"
   d="M 23.732,58.691 C 22.313,53.996 17.948,50.566 12.794,50.566 C 6.493,50.566 1.3552812,55.692906 1.3552812,61.988906 C 1.3552812,66.018906 3.4260312,69.59625 6.5900312,71.62825 C 11.883031,67.06625 17.919,62.755 23.732,58.691 z"
   id="path46"
   sodipodi:nodetypes="csscc" />
<path
   d="M 96.626358,22.509535 C 96.339419,22.103089 96.308153,21.331403 95.646051,21.368318 C 94.690751,21.362369 94.012336,20.610242 93.237293,20.167101 C 92.714665,19.860803 92.051891,20.056445 91.541626,19.697382 C 90.410157,19.023214 89.990022,17.557425 90.256491,16.359451 C 90.480904,15.399804 91.156773,14.590559 91.959332,14.033172 C 92.644007,13.668236 93.464645,13.658118 94.193166,13.399211 C 94.751948,13.285139 95.172539,12.924754 95.628965,12.626348 C 96.384703,12.248627 97.406108,12.207467 98.078216,12.817537 C 98.667774,13.294799 99.323161,13.697665 99.887522,14.201095 C 100.31444,14.742631 100.13104,15.459646 100.20832,16.084525 C 100.15253,17.292633 100.57148,18.461814 100.6733,19.657867 C 100.7803,20.377625 100.42878,21.034549 99.977086,21.560212 C 99.458615,22.179407 98.890856,22.977419 97.970873,22.964459 C 97.517594,22.900043 96.942057,22.893486 96.626358,22.509535 z M 102.42885,17.194864 C 102.21421,16.630764 102.03408,15.872109 102.51242,15.403336 C 103.25299,14.615116 104.16575,14.00086 105.0877,13.43256 C 105.51318,13.117861 106.0833,13.259659 106.48465,13.566866 C 107.09409,13.865223 107.25388,14.571788 107.01611,15.146816 C 106.81306,16.028356 106.37549,16.991105 105.42671,17.283297 C 104.60255,17.541951 103.68583,17.839023 102.81756,17.554286 C 102.65562,17.475264 102.52347,17.344822 102.42885,17.194864 z M 91.872511,11.788806 C 91.330596,11.404009 90.900545,10.82391 90.903202,10.152673 C 90.818909,9.3046693 91.080524,8.4160483 91.741398,7.854207 C 92.273372,7.2938775 92.98108,6.649309 93.839684,6.8222724 C 94.593148,6.9152922 94.482904,7.6023231 94.438406,8.1339633 C 94.452635,8.7971204 94.720765,9.4279937 94.764321,10.085005 C 94.540595,10.767826 93.992234,11.312583 93.420594,11.738541 C 93.043043,12.109915 92.45561,12.241987 92.007085,11.871502 L 91.939093,11.830219 L 91.872512,11.788806 L 91.872511,11.788806 z M 100.88151,13.02591 C 100.37728,12.706504 99.693425,12.170573 99.992983,11.51301 C 100.30658,10.913465 100.70909,10.361969 100.98841,9.7419736 C 101.38861,9.012215 101.77894,8.264194 102.33812,7.6383962 C 102.98802,7.2171947 103.83719,7.2963184 104.5799,7.4093272 C 105.46847,7.6369104 105.86763,8.5916205 105.9885,9.397239 C 106.1252,9.9820241 106.09859,10.619966 105.72562,11.107308 C 105.22498,11.715379 104.56824,12.189324 103.92631,12.647608 C 103.30777,13.031255 102.58302,13.295536 101.84349,13.340903 C 101.49534,13.358846 101.16536,13.221025 100.88151,13.02591 z M 96.985019,10.657018 C 96.134339,9.6995479 95.865025,8.3150971 96.155011,7.1175884 C 96.384826,6.4407664 96.889056,5.892189 97.390519,5.3943576 C 97.844792,4.9882598 98.350314,4.4970297 99.032627,4.5964599 C 99.759774,4.5925883 100.5245,4.8314784 101.06223,5.3347086 C 101.40431,5.8705743 101.70682,6.6405034 101.33286,7.2165875 C 100.64855,8.1098003 100.00734,9.0368901 99.471551,10.026971 C 99.195645,10.449727 98.976576,11.08475 98.365317,11.094389 C 97.883057,11.100627 97.366901,10.965677 96.985019,10.657018 z"
   id="path3331"
   style="opacity:0.94927536;fill:#a39277;fill-opacity:1;fill-rule:nonzero;stroke-width:0.01343777;stroke-linecap:butt;stroke-linejoin:miter;marker:none;marker-start:none;marker-mid:none;marker-end:none;stroke-miterlimit:4;stroke-dasharray:none;stroke-dashoffset:0;stroke-opacity:1;visibility:visible;display:inline;overflow:visible;enable-background:accumulate" /><path
   style="overflow:visible;enable-background:accumulate;fill-rule:evenodd;clip-rule:evenodd;fill:url(#linearGradient2437);fill-opacity:1;opacity:1;color:#000000;stroke-width:1;stroke-linecap:butt;stroke-linejoin:miter;marker:none;marker-start:none;marker-mid:none;marker-end:none;stroke-miterlimit:4;stroke-dasharray:none;stroke-dashoffset:0;stroke-opacity:1;visibility:visible;display:inline"
   d="M86.992,14c0,6.065,4.938,11,11.008,11s11.008-4.935,11.008-11  S104.07,3,98,3S86.992,7.935,86.992,14z"
   id="path2438" /><path
   d="M 91.535315,106.84042 C 92.041287,106.77754 92.754884,107.11903 93.039988,106.50713 C 93.504948,105.65261 94.512172,105.40393 95.286171,104.92056 C 95.814871,104.5982 95.956611,103.90967 96.527124,103.62367 C 97.681729,102.93105 99.210724,103.25594 100.16698,104.0688 C 100.92773,104.72977 101.33514,105.7239 101.45362,106.71111 C 101.45459,107.50036 101.06896,108.24173 100.95285,109.01956 C 100.7873,109.57568 100.91119,110.12574 100.96174,110.67829 C 100.94009,111.53743 100.48599,112.47384 99.610397,112.78489 C 98.894734,113.08545 98.214757,113.48072 97.487534,113.74612 C 96.791933,113.86994 96.231093,113.36199 95.62825,113.13209 C 94.561475,112.50346 93.301542,112.31954 92.169846,111.83815 C 91.466815,111.5895 91.041259,110.95941 90.782715,110.30227 C 90.471626,109.54042 90.022375,108.6487 90.476686,107.82925 C 90.753065,107.45327 91.035874,106.93988 91.535315,106.84042 z M 93.554878,114.59326 C 94.16878,114.67077 94.942199,114.87242 95.136435,115.52621 C 95.493687,116.56833 95.610623,117.68169 95.681537,118.78128 C 95.76172,119.31386 95.359093,119.75763 94.887917,119.97072 C 94.324644,120.3748 93.60817,120.17982 93.202016,119.69107 C 92.501702,119.08665 91.840699,118.23287 92.032631,117.24144 C 92.19497,116.3779 92.367062,115.4129 93.042516,114.77001 C 93.191955,114.66251 93.373615,114.60637 93.554878,114.59326 z M 103.52706,107.70801 C 104.1361,107.40592 104.86811,107.29777 105.47446,107.6216 C 106.28265,107.95205 106.96121,108.61241 107.15187,109.4746 C 107.40317,110.22038 107.6462,111.16421 107.07658,111.85196 C 106.6299,112.48364 106.06101,112.05569 105.60116,111.76115 C 104.994,111.45633 104.29392,111.39485 103.67821,111.11931 C 103.16773,110.59151 102.93841,109.8385 102.82782,109.12146 C 102.67327,108.60477 102.8363,108.01431 103.38746,107.78918 L 103.45754,107.74794 L 103.52706,107.70801 L 103.52706,107.70801 z M 98.073154,115.20103 C 98.604871,114.90145 99.419012,114.54433 99.870149,115.12809 C 100.262,115.69667 100.56761,116.32201 100.99447,116.86963 C 101.46253,117.57828 101.9519,118.28682 102.24938,119.08837 C 102.31801,119.87335 101.83787,120.59758 101.37827,121.21004 C 100.74478,121.89853 99.688524,121.79955 98.901094,121.52224 C 98.305965,121.36487 97.741287,121.03547 97.479556,120.46735 C 97.169953,119.72684 97.056862,118.91045 96.950828,118.11485 C 96.901095,117.37601 97.010524,116.59898 97.325222,115.91355 C 97.476477,115.59247 97.75998,115.36233 98.073154,115.20103 z M 102.09208,112.83842 C 103.36806,112.53347 104.75087,112.95477 105.69539,113.78852 C 106.19752,114.3189 106.45153,115.03414 106.66095,115.7226 C 106.81002,116.32479 107.01151,117.01373 106.59325,117.57848 C 106.24694,118.23294 105.66279,118.80489 104.94857,119.04648 C 104.29892,119.09688 103.45642,118.99966 103.11482,118.38817 C 102.63546,117.34624 102.1047,116.32678 101.46621,115.37178 C 101.21625,114.92169 100.74679,114.42097 101.03213,113.86777 C 101.25848,113.43195 101.62896,113.03334 102.09208,112.83842 z"
   id="path3327"
   style="opacity:0.94927546;fill:#a39277;fill-opacity:1;fill-rule:nonzero;stroke-width:0.01371807000000000;stroke-linecap:butt;stroke-linejoin:miter;marker:none;marker-start:none;marker-mid:none;marker-end:none;stroke-miterlimit:4;stroke-dasharray:none;stroke-dashoffset:0;stroke-opacity:1;visibility:visible;display:inline;overflow:visible;enable-background:accumulate" /></svg>