<?xml version="1.0" encoding="UTF-8" standalone="no"?>
<!-- Created with Inkscape (http://www.inkscape.org/) -->

<svg
   xmlns:dc="http://purl.org/dc/elements/1.1/"
   xmlns:cc="http://creativecommons.org/ns#"
   xmlns:rdf="http://www.w3.org/1999/02/22-rdf-syntax-ns#"
   xmlns:svg="http://www.w3.org/2000/svg"
   xmlns="http://www.w3.org/2000/svg"
   xmlns:xlink="http://www.w3.org/1999/xlink"
   xmlns:sodipodi="http://sodipodi.sourceforge.net/DTD/sodipodi-0.dtd"
   xmlns:inkscape="http://www.inkscape.org/namespaces/inkscape"
   width="48px"
   height="48px"
   id="svg3865"
   version="1.1"
   inkscape:version="0.48.0 r9654"
   sodipodi:docname="x-office-document.svg">
  <defs
     id="defs3867">
    <linearGradient
       inkscape:collect="always"
       xlink:href="#linearGradient8589"
       id="linearGradient2979"
       gradientUnits="userSpaceOnUse"
       gradientTransform="matrix(0.9976985,0,0,1.0406866,0.1638029,-1.1057942)"
       x1="32.892288"
       y1="8.0590115"
       x2="36.358372"
       y2="5.4565363" />
    <linearGradient
       id="linearGradient8589">
      <stop
         id="stop8591"
         style="stop-color:#fefefe;stop-opacity:1"
         offset="0" />
      <stop
         id="stop8593"
         style="stop-color:#cbcbcb;stop-opacity:1"
         offset="1" />
    </linearGradient>
    <filter
       color-interpolation-filters="sRGB"
       id="filter3248"
       x="-0.14846256"
       width="1.2969251"
       y="-0.16434373"
       height="1.3286875">
      <feGaussianBlur
         inkscape:collect="always"
         stdDeviation="0.77391625"
         id="feGaussianBlur3250" />
    </filter>
    <linearGradient
       inkscape:collect="always"
       xlink:href="#linearGradient3104"
       id="linearGradient2983"
       gradientUnits="userSpaceOnUse"
       gradientTransform="translate(2.0179033,-3.0470737)"
       x1="22.004084"
       y1="47.813133"
       x2="22.004084"
       y2="3.3638515" />
    <linearGradient
       id="linearGradient3104">
      <stop
         id="stop3106"
         style="stop-color:#a5a5a5;stop-opacity:1;"
         offset="0" />
      <stop
         id="stop3108"
         style="stop-color:#c3c3c3;stop-opacity:1;"
         offset="1" />
    </linearGradient>
    <linearGradient
       inkscape:collect="always"
       xlink:href="#linearGradient3211"
       id="linearGradient2986"
       gradientUnits="userSpaceOnUse"
       gradientTransform="matrix(1,0,0,0.9777778,0,-0.96666964)"
       x1="24"
       y1="1.9999999"
       x2="24"
       y2="46.01725" />
    <linearGradient
       id="linearGradient3211">
      <stop
         id="stop3213"
         style="stop-color:#ffffff;stop-opacity:1"
         offset="0" />
      <stop
         id="stop3215"
         style="stop-color:#ffffff;stop-opacity:0"
         offset="1" />
    </linearGradient>
    <linearGradient
       inkscape:collect="always"
       xlink:href="#linearGradient7012-661-145-733-759-865-745-661-970-94"
       id="linearGradient2989"
       gradientUnits="userSpaceOnUse"
       gradientTransform="matrix(0.7993221,0,0,1.0036506,40.855793,-1.5607197)"
       x1="-22.539846"
       y1="11.109024"
       x2="-22.539846"
       y2="46.263954" />
    <linearGradient
       id="linearGradient7012-661-145-733-759-865-745-661-970-94">
      <stop
         offset="0"
         style="stop-color:#f0c178;stop-opacity:1"
         id="stop3618" />
      <stop
         offset="0.5"
         style="stop-color:#e18941;stop-opacity:1"
         id="stop3270" />
      <stop
         offset="1"
         style="stop-color:#ec4f18;stop-opacity:1"
         id="stop3620" />
    </linearGradient>
    <linearGradient
       inkscape:collect="always"
       xlink:href="#linearGradient3390-178-986-453"
       id="linearGradient2991"
       gradientUnits="userSpaceOnUse"
       gradientTransform="matrix(0.9110051,0,0,0.9769973,0.6027366,-0.94793564)"
       x1="9.4919996"
       y1="46.314064"
       x2="9.4919996"
       y2="1.7164899" />
    <linearGradient
       id="linearGradient3390-178-986-453">
      <stop
         offset="0"
         style="stop-color:#c92e13;stop-opacity:1;"
         id="stop3624" />
      <stop
         offset="1"
         style="stop-color:#dea176;stop-opacity:1;"
         id="stop3626" />
    </linearGradient>
    <radialGradient
       inkscape:collect="always"
       xlink:href="#XMLID_8_"
       id="radialGradient2994"
       gradientUnits="userSpaceOnUse"
       gradientTransform="matrix(0.3617022,0,0,-0.3907784,0.8510637,47.517004)"
       cx="102"
       cy="112.3047"
       r="139.55859" />
    <radialGradient
       cx="102"
       cy="112.3047"
       r="139.55859"
       id="XMLID_8_"
       gradientUnits="userSpaceOnUse">
      <stop
         id="stop41"
         style="stop-color:#b7b8b9;stop-opacity:1"
         offset="0" />
      <stop
         id="stop47"
         style="stop-color:#ececec;stop-opacity:1"
         offset="0.18851049" />
      <stop
         id="stop49"
         style="stop-color:#fafafa;stop-opacity:0"
         offset="0.25718147" />
      <stop
         id="stop51"
         style="stop-color:#ffffff;stop-opacity:0"
         offset="0.30111277" />
      <stop
         id="stop53"
         style="stop-color:#fafafa;stop-opacity:0"
         offset="0.53130001" />
      <stop
         id="stop55"
         style="stop-color:#ebecec;stop-opacity:0"
         offset="0.84490001" />
      <stop
         id="stop57"
         style="stop-color:#e1e2e3;stop-opacity:0"
         offset="1" />
    </radialGradient>
    <linearGradient
       inkscape:collect="always"
       xlink:href="#linearGradient3600"
       id="linearGradient2997"
       gradientUnits="userSpaceOnUse"
       gradientTransform="matrix(1,0,0,0.9561695,-9.9999999e-8,-1.9149223)"
       x1="25.132275"
       y1="0.98520643"
       x2="25.132275"
       y2="47.013336" />
    <linearGradient
       id="linearGradient3600">
      <stop
         id="stop3602"
         style="stop-color:#f4f4f4;stop-opacity:1"
         offset="0" />
      <stop
         id="stop3604"
         style="stop-color:#dbdbdb;stop-opacity:1"
         offset="1" />
    </linearGradient>
    <linearGradient
       inkscape:collect="always"
       xlink:href="#linearGradient3104"
       id="linearGradient2999"
       gradientUnits="userSpaceOnUse"
       gradientTransform="matrix(0.8074968,0,0,0.8948322,59.410232,-2.9805536)"
       x1="-51.786404"
       y1="50.786446"
       x2="-51.786404"
       y2="2.9062471" />
    <radialGradient
       inkscape:collect="always"
       xlink:href="#linearGradient5060"
       id="radialGradient3002"
       gradientUnits="userSpaceOnUse"
       gradientTransform="matrix(0.02303995,0,0,0.01470022,26.360882,37.040176)"
       cx="605.71429"
       cy="486.64789"
       fx="605.71429"
       fy="486.64789"
       r="117.14286" />
    <linearGradient
       id="linearGradient5060">
      <stop
         id="stop5062"
         style="stop-color:#000000;stop-opacity:1"
         offset="0" />
      <stop
         id="stop5064"
         style="stop-color:#000000;stop-opacity:0"
         offset="1" />
    </linearGradient>
    <radialGradient
       inkscape:collect="always"
       xlink:href="#linearGradient5060"
       id="radialGradient3005"
       gradientUnits="userSpaceOnUse"
       gradientTransform="matrix(-0.02303994,0,0,0.01470022,21.62311,37.040176)"
       cx="605.71429"
       cy="486.64789"
       fx="605.71429"
       fy="486.64789"
       r="117.14286" />
    <linearGradient
       id="linearGradient5048">
      <stop
         id="stop5050"
         style="stop-color:#000000;stop-opacity:0"
         offset="0" />
      <stop
         id="stop5056"
         style="stop-color:#000000;stop-opacity:1"
         offset="0.5" />
      <stop
         id="stop5052"
         style="stop-color:#000000;stop-opacity:0"
         offset="1" />
    </linearGradient>
    <linearGradient
       y2="609.50507"
       x2="302.85715"
       y1="366.64789"
       x1="302.85715"
       gradientTransform="matrix(0.06732488,0,0,0.01470022,-0.3411391,37.040146)"
       gradientUnits="userSpaceOnUse"
       id="linearGradient3863"
       xlink:href="#linearGradient5048"
       inkscape:collect="always" />
    <linearGradient
       id="linearGradient3104-7">
      <stop
         id="stop3106-2"
         style="stop-color:#aaaaaa;stop-opacity:1"
         offset="0" />
      <stop
         id="stop3108-6"
         style="stop-color:#c8c8c8;stop-opacity:1"
         offset="1" />
    </linearGradient>
    <linearGradient
       y2="-1.9500469"
       x2="56.709717"
       y1="42.799709"
       x1="56.559174"
       gradientTransform="translate(-17.302738,-0.157695)"
       gradientUnits="userSpaceOnUse"
       id="linearGradient3058"
       xlink:href="#linearGradient3104-7"
       inkscape:collect="always" />
  </defs>
  <sodipodi:namedview
     id="base"
     pagecolor="#ffffff"
     bordercolor="#666666"
     borderopacity="1.0"
     inkscape:pageopacity="0.0"
     inkscape:pageshadow="2"
     inkscape:zoom="16"
     inkscape:cx="34.522822"
     inkscape:cy="11.435794"
     inkscape:current-layer="layer1"
     showgrid="false"
     inkscape:grid-bbox="true"
     inkscape:document-units="px"
     inkscape:window-width="1280"
     inkscape:window-height="947"
     inkscape:window-x="0"
     inkscape:window-y="24"
     inkscape:window-maximized="1"
     inkscape:snap-nodes="true"
     inkscape:object-paths="true"
     inkscape:snap-global="false">
    <inkscape:grid
       empspacing="5"
       visible="true"
       enabled="true"
       snapvisiblegridlinesonly="true"
       type="xygrid"
       id="grid3856" />
  </sodipodi:namedview>
  <metadata
     id="metadata3870">
    <rdf:RDF>
      <cc:Work
         rdf:about="">
        <dc:format>image/svg+xml</dc:format>
        <dc:type
           rdf:resource="http://purl.org/dc/dcmitype/StillImage" />
        <dc:title />
      </cc:Work>
    </rdf:RDF>
  </metadata>
  <g
     id="layer1"
     inkscape:label="Layer 1"
     inkscape:groupmode="layer">
    <rect
       style="opacity:0.3;fill:url(#linearGradient3863);fill-opacity:1;fill-rule:nonzero;stroke:none;stroke-width:1;marker:none;visibility:visible;display:inline;overflow:visible"
       id="rect2879"
       y="42.429947"
       x="7.7378473"
       height="3.5700529"
       width="32.508301" />
    <path
       style="opacity:0.3;fill:url(#radialGradient3005);fill-opacity:1;fill-rule:nonzero;stroke:none;stroke-width:1;marker:none;visibility:visible;display:inline;overflow:visible"
       id="path2881"
       d="m 7.7378475,42.430102 c 0,0 0,3.569856 0,3.569856 -1.1865002,0.0067 -2.8683795,-0.799823 -2.8683795,-1.785158 0,-0.985333 1.3240446,-1.784697 2.8683795,-1.784698 z" />
    <path
       style="opacity:0.3;fill:url(#radialGradient3002);fill-opacity:1;fill-rule:nonzero;stroke:none;stroke-width:1;marker:none;visibility:visible;display:inline;overflow:visible"
       id="path2883"
       d="m 40.246148,42.430102 c 0,0 0,3.569856 0,3.569856 1.1865,0.0067 2.86838,-0.799823 2.86838,-1.785158 0,-0.985333 -1.324045,-1.784697 -2.86838,-1.784698 z" />
    <path
       style="fill:url(#linearGradient2997);fill-opacity:1;stroke:url(#linearGradient2999);stroke-width:0.99992186;stroke-linecap:butt;stroke-linejoin:round;stroke-miterlimit:4;stroke-opacity:1;stroke-dasharray:none;stroke-dashoffset:0;display:inline"
       id="path4160"
       d="m 6.4999609,0.49719839 c 8.0202951,0 16.0405901,0 24.0608861,0 1.406933,0.4746531 8.965454,5.88220471 10.939195,9.62640661 0,11.459733 0,22.919465 0,34.379198 -11.666694,0 -23.333387,0 -35.0000811,0 0,-14.668535 0,-29.33707 0,-44.00560461 z" />
    <path
       style="fill:url(#radialGradient2994);fill-opacity:1"
       id="path4191"
       d="m 7.3617017,44 c -0.199297,0 -0.361702,-0.175459 -0.361702,-0.39078 l 0,-42.2040502 c 0,-0.2157088 0.162405,-0.3907775 0.361702,-0.3907775 C 14.844793,1.122407 23.137385,0.85281719 30.611384,1.0412869 L 40.894021,9.907312 41,43.60922 C 41,43.824541 40.837957,44 40.638297,44 L 7.3617017,44 z" />
    <path
       style="fill:url(#linearGradient2989);fill-opacity:1;fill-rule:nonzero;stroke:url(#linearGradient2991);stroke-width:1.00969923;stroke-linecap:butt;stroke-linejoin:round;stroke-miterlimit:4;stroke-opacity:1;stroke-dasharray:none;stroke-dashoffset:0;marker:none;visibility:visible;display:block;overflow:visible"
       id="path4530"
       d="m 11.99515,44.495152 c -1.754361,0 -3.5087232,0 -5.2630934,0 C 6.3056432,43.974283 6.6298943,42.94015 6.528578,42.202761 c 0,-13.81505 0,-27.630098 0,-41.44514341 l 0.059468,-0.178897 0.1440101,-0.073872 0,0 c 1.8259354,0 3.3655929,0 5.1915199,0" />
    <path
       style="opacity:0.4;fill:none;stroke:url(#linearGradient2986);stroke-width:0.9999218;stroke-linecap:butt;stroke-linejoin:round;stroke-miterlimit:4;stroke-opacity:1;stroke-dasharray:none;stroke-dashoffset:0;display:inline"
       id="path2435"
       d="m 40.500039,10.258811 c 0,10.949037 0,22.31441 0,33.263447 -11.000026,0 -22.000052,0 -33.0000781,0 0,-14.014841 0,-28.029681 0,-42.0445216 7.5619931,0 15.3043341,0 22.8663281,0" />
    <path
       style="fill:none;stroke:url(#linearGradient2983);stroke-width:1px;stroke-linecap:butt;stroke-linejoin:miter;stroke-opacity:1"
       id="path3475"
       d="m 15,8.5000002 2.34375,0 z m 2.6875,0 2.1875,0 z m 2.53125,0 1.9375,0 z m 2.25,0 0.84375,0 z m 1.1875,0 1.875,0 z m 2.25,0 4.9375,0 z m 5.25,0 3.78125,0 z M 15,10.500001 l 3.65625,0 z m 4.0625,0 1.75,0 z m 2.0625,0 0.875,0 z m 1.21875,0 1.59375,0 z m 1.9375,0 1.625,0 z m 1.9375,0 2.59375,0 z m 2.9375,0 3.375,0 z m 3.6875,0 2.25,0 z m 2.5625,0 0.5625,0 z M 15,12.46875 l 3.09375,0 z m 3.40625,0 5.0625,0 z m 5.375,0 2.46875,0 z m 2.78125,0 2.3125,0 z m 2.625,0 1.96875,0 z m 2.28125,0 L 34.5625,12.5 z M 15,14.5 l 4.28125,0 z m 4.625,0 4.625,0 z m 4.9375,0 1.84375,0 z m 2.15625,0 4.34375,0 z m 4.625,0 2.96875,0 z m 3.3125,0 1.1875,0 z M 15,16.5 l 1.59375,0 z m 2.09375,0 L 23,16.5 z M 15,20.46875 l 3.09375,0 z m 3.40625,0 5.0625,0 z m 5.375,0 2.46875,0 z m 2.78125,0 2.3125,0 z m 2.625,0 1.96875,0 z m 2.28125,0 L 34.5625,20.5 z M 15,22.5 l 2.34375,0 z m 2.6875,0 2.15625,0 z m 2.53125,0 1.9375,0 z m 2.25,0 0.84375,0 z m 1.1875,0 1.875,0 z m 2.25,0 4.90625,0 z m 5.25,0 3.75,0 z m 4.0625,0 1.1875,0 z M 15,24.5 l 3.9375,0 z m 4.25,0 4.21875,0 z m 4.53125,0 1.625,0 z m 1.9375,0 3.96875,0 z m 4.28125,0 5,0 z m 5.34375,0 1.84375,0 z M 15,26.5 l 4.28125,0 z m 4.625,0 4.625,0 z m 4.9375,0 1.84375,0 z m 2.15625,0 4.34375,0 z m 4.625,0 2.96875,0 z m 3.3125,0 1.1875,0 z M 15,28.5 l 3.65625,0 z m 4.0625,0 1.75,0 z m 2.0625,0 0.875,0 z m 1.21875,0 1.59375,0 z m 1.9375,0 1.625,0 z m 1.9375,0 2.59375,0 z m 2.9375,0 3.375,0 z m 3.6875,0 2.25,0 z m 2.5625,0 0.5625,0 z M 15,32.46875 l 3.09375,0 z m 3.40625,0 5.0625,0 z m 5.375,0 2.46875,0 z m 2.78125,0 2.84375,0 z M 15,34.5 l 3.65625,0 z m 4.0625,0 1.75,0 z m 2.0625,0 0.875,0 z m 1.21875,0 1.59375,0 z m 1.9375,0 1.625,0 z m 1.9375,0 1.21875,0 z M 15,36.5 l 3.875,0 z m 4.21875,0 1.21875,0 z m 1.53125,0 2.78125,0 z m 3.09375,0 4.40625,0 z M 15,38.5 l 3.875,0 z m 4.21875,0 1.75,0 z m 2.0625,0 2.75,0 z m 3.0625,0 2.21875,0 z"
       inkscape:connector-curvature="0"
       sodipodi:nodetypes="ccccccccccccccccccccccccccccccccccccccccccccccccccccccccccccccccccccccccccccccccccccccccccccccccccccccccccccccccccccccccccccccccccccccccccccccccccccccccccccccccccccccccccccccccccccccccccccccccccccccccccccccccccccccccccccccccccccccccccccccccccccccccc" />
    <path
       style="opacity:0.4;fill:#000000;fill-opacity:1;fill-rule:evenodd;stroke:none;display:inline;filter:url(#filter3248)"
       id="path12038"
       d="m 28.617256,0.92125799 c 4.282522,0 2.15325,8.48317101 2.15325,8.48317101 0,0 10.357642,-1.8023464 10.357642,2.818745 0,-2.609724 -11.302304,-10.7285959 -12.510892,-11.30191601 z" />
    <path
       style="fill:url(#linearGradient2979);fill-opacity:1;fill-rule:evenodd;stroke:none;display:inline"
       id="path4474"
       d="m 28.617256,0.92125799 c 3.186493,0 2.33576,7.66187851 2.33576,7.66187851 0,0 10.175132,-0.9810539 10.175132,3.6400375 0,-1.125939 0.08591,-1.932245 -0.133777,-2.283593 -1.578313,-2.5241788 -8.395516,-8.1884002 -10.8573,-8.9307883 -0.184222,-0.0555547 -0.592704,-0.0875347 -1.519815,-0.0875347 z" />
    <path
       sodipodi:nodetypes="ccscccccccccccccscssssscssccsscscccsssssssssccsssccsc"
       style="fill:url(#linearGradient3058);fill-opacity:1"
       id="path2463"
       d="m 33.693319,42.022151 c -0.183291,-0.214874 -0.24149,-0.649763 -0.613202,-0.594166 -0.53943,0.04672 -0.961814,-0.343176 -1.422492,-0.553216 -0.311038,-0.145866 -0.674787,-4.47e-4 -0.981622,-0.176808 -0.673965,-0.322043 -0.988096,-1.129182 -0.900674,-1.820822 0.07621,-0.554618 0.415107,-1.047827 0.838733,-1.405207 0.367212,-0.242332 0.829801,-0.291081 1.227329,-0.475735 0.309351,-0.09382 0.527769,-0.319737 0.769667,-0.51247 0.406644,-0.253291 0.980903,-0.330126 1.392262,-0.02026 0.357794,0.239068 0.748829,0.432599 1.093779,0.687791 0.269391,0.283952 0.203576,0.699167 0.28003,1.048597 0.032,0.686327 0.329876,1.325744 0.450195,1.996988 0.09821,0.401542 -0.06564,0.79158 -0.292935,1.112619 -0.260057,0.377449 -0.538529,0.858635 -1.058396,0.899538 -0.25919,-0.01268 -0.584334,0.01379 -0.782674,-0.18685 z m 2.995307,-3.310619 c -0.163917,-0.299701 -0.284783,-0.721462 -0.047,-1.017812 0.384035,-0.478612 0.85934,-0.880034 1.349771,-1.249846 0.223584,-0.200327 0.472627,-0.170787 0.800671,-0.01564 0.346156,0.163709 0.463636,0.567978 0.393457,0.913137 -0.102048,0.501904 -0.280367,1.047985 -0.800445,1.263016 -0.451515,0.189525 -0.95663,0.416845 -1.458206,0.290088 -0.09893,-0.025 -0.190117,-0.09493 -0.238254,-0.182939 z m -6.241509,-2.504639 c -0.326048,-0.189259 -0.584952,-0.499779 -0.640432,-0.876563 -0.07043,-0.478339 0.01629,-0.992077 0.3411,-1.360848 0.28939,-0.328557 0.654848,-0.728017 1.148484,-0.675191 0.4301,0.01312 0.403991,0.407535 0.406817,0.710606 0.03919,0.342138 0.195461,0.658173 0.268566,0.991677 0.01262,0.05758 0.01375,0.114691 0.0027,0.154916 -0.102122,0.372342 -0.371238,0.688605 -0.656244,0.945806 -0.193552,0.229872 -0.494903,0.295675 -0.790716,0.149321 l -0.08029,-0.03972 0,0 z m 5.149186,0.227472 c -0.29915,-0.158352 -0.725546,-0.425367 -0.580954,-0.80923 0.13538,-0.359406 0.338642,-0.689406 0.468694,-1.054029 0.158641,-0.444777 0.45608,-1.071892 0.651156,-1.260714 0.312814,-0.302787 0.830544,-0.295351 1.253087,-0.247113 0.515959,0.0589 0.773669,0.605675 0.899413,1.050669 0.09269,0.328024 0.132206,0.689696 -0.0585,0.981133 -0.24474,0.374018 -0.587517,0.683573 -0.934474,0.965651 -0.320131,0.260269 -0.724023,0.436948 -1.138984,0.501384 -0.195542,0.0284 -0.386802,-0.03637 -0.55944,-0.127751 z m -2.323461,-1.135744 c -0.530392,-0.49702 -0.755135,-1.266056 -0.654417,-1.958665 0.09413,-0.394914 0.327713,-0.738082 0.591838,-1.039573 0.227733,-0.259951 0.510033,-0.527791 0.899629,-0.537448 0.410843,-0.01018 0.888485,0.02057 1.184191,0.311202 0.255413,0.251033 0.432396,0.704866 0.251636,1.050351 -0.339248,0.54115 -0.652394,1.099204 -0.902733,1.687363 -0.133488,0.25361 -0.223746,0.624315 -0.568199,0.661815 -0.271832,0.02881 -0.570212,-0.02046 -0.801945,-0.175045 z"
       inkscape:connector-curvature="0" />
  </g>
</svg>
