<?xml version="1.0" encoding="UTF-8" standalone="no"?>
<!-- Created with Inkscape (http://www.inkscape.org/) -->

<svg
   xmlns:dc="http://purl.org/dc/elements/1.1/"
   xmlns:cc="http://creativecommons.org/ns#"
   xmlns:rdf="http://www.w3.org/1999/02/22-rdf-syntax-ns#"
   xmlns:svg="http://www.w3.org/2000/svg"
   xmlns="http://www.w3.org/2000/svg"
   xmlns:xlink="http://www.w3.org/1999/xlink"
   xmlns:sodipodi="http://sodipodi.sourceforge.net/DTD/sodipodi-0.dtd"
   xmlns:inkscape="http://www.inkscape.org/namespaces/inkscape"
   version="1.0"
   width="43.390972"
   height="48"
   id="svg2482"
   inkscape:version="0.47pre4 r22446"
   sodipodi:docname="start-here.svg">
  <metadata
     id="metadata3622">
    <rdf:RDF>
      <cc:Work
         rdf:about="">
        <dc:format>image/svg+xml</dc:format>
        <dc:type
           rdf:resource="http://purl.org/dc/dcmitype/StillImage" />
        <dc:title></dc:title>
      </cc:Work>
    </rdf:RDF>
  </metadata>
  <sodipodi:namedview
     pagecolor="#ffffff"
     bordercolor="#666666"
     borderopacity="1"
     objecttolerance="10"
     gridtolerance="10"
     guidetolerance="10"
     inkscape:pageopacity="0"
     inkscape:pageshadow="2"
     inkscape:window-width="1024"
     inkscape:window-height="696"
     id="namedview3620"
     showgrid="false"
     inkscape:zoom="4.8627772"
     inkscape:cx="42.442518"
     inkscape:cy="7.7760812"
     inkscape:window-x="0"
     inkscape:window-y="24"
     inkscape:window-maximized="1"
     inkscape:current-layer="svg2482" />
  <defs
     id="defs2484">
    <inkscape:perspective
       sodipodi:type="inkscape:persp3d"
       inkscape:vp_x="0 : 12 : 1"
       inkscape:vp_y="0 : 1000 : 0"
       inkscape:vp_z="24 : 12 : 1"
       inkscape:persp3d-origin="12 : 8 : 1"
       id="perspective3624" />
    <linearGradient
       id="linearGradient3584">
      <stop
         id="stop3586"
         style="stop-color:#f19765;stop-opacity:1"
         offset="0" />
      <stop
         id="stop3588"
         style="stop-color:#de1000;stop-opacity:1"
         offset="1" />
    </linearGradient>
    <radialGradient
       cx="11.376413"
       cy="11.482934"
       r="9.936264"
       fx="11.376413"
       fy="11.482934"
       id="radialGradient3590"
       xlink:href="#linearGradient3584"
       gradientUnits="userSpaceOnUse"
       gradientTransform="matrix(2.8900724,-9.6393159e-8,1.0209072e-7,3.0608973,-11.956295,-13.656851)" />
    <inkscape:perspective
       id="perspective3689"
       inkscape:persp3d-origin="0.5 : 0.33333333 : 1"
       inkscape:vp_z="1 : 0.5 : 1"
       inkscape:vp_y="0 : 1000 : 0"
       inkscape:vp_x="0 : 0.5 : 1"
       sodipodi:type="inkscape:persp3d" />
    <inkscape:perspective
       id="perspective3702"
       inkscape:persp3d-origin="0.5 : 0.33333333 : 1"
       inkscape:vp_z="1 : 0.5 : 1"
       inkscape:vp_y="0 : 1000 : 0"
       inkscape:vp_x="0 : 0.5 : 1"
       sodipodi:type="inkscape:persp3d" />
    <inkscape:perspective
       id="perspective3728"
       inkscape:persp3d-origin="0.5 : 0.33333333 : 1"
       inkscape:vp_z="1 : 0.5 : 1"
       inkscape:vp_y="0 : 1000 : 0"
       inkscape:vp_x="0 : 0.5 : 1"
       sodipodi:type="inkscape:persp3d" />
    <inkscape:perspective
       id="perspective3741"
       inkscape:persp3d-origin="0.5 : 0.33333333 : 1"
       inkscape:vp_z="1 : 0.5 : 1"
       inkscape:vp_y="0 : 1000 : 0"
       inkscape:vp_x="0 : 0.5 : 1"
       sodipodi:type="inkscape:persp3d" />
    <inkscape:perspective
       id="perspective2866"
       inkscape:persp3d-origin="0.5 : 0.33333333 : 1"
       inkscape:vp_z="1 : 0.5 : 1"
       inkscape:vp_y="0 : 1000 : 0"
       inkscape:vp_x="0 : 0.5 : 1"
       sodipodi:type="inkscape:persp3d" />
    <radialGradient
       cx="11.376413"
       cy="11.482934"
       r="9.936264"
       fx="11.376413"
       fy="11.482934"
       id="radialGradient3590-3"
       xlink:href="#linearGradient3584-3"
       gradientUnits="userSpaceOnUse"
       gradientTransform="matrix(1.3236902,-4.4149302e-8,4.6758856e-8,1.4019302,-3.4122575,-5.2396272)" />
    <linearGradient
       id="linearGradient3584-3">
      <stop
         id="stop3586-3"
         style="stop-color:#f19765;stop-opacity:1"
         offset="0" />
      <stop
         id="stop3588-8"
         style="stop-color:#de1000;stop-opacity:1"
         offset="1" />
    </linearGradient>
    <radialGradient
       r="9.936264"
       fy="11.482934"
       fx="11.376413"
       cy="11.482934"
       cx="11.376413"
       gradientTransform="matrix(1.3236902,-4.4149302e-8,4.6758856e-8,1.4019302,-3.4122575,-5.2396272)"
       gradientUnits="userSpaceOnUse"
       id="radialGradient2875"
       xlink:href="#linearGradient3584-3"
       inkscape:collect="always" />
    <inkscape:perspective
       id="perspective2905"
       inkscape:persp3d-origin="0.5 : 0.33333333 : 1"
       inkscape:vp_z="1 : 0.5 : 1"
       inkscape:vp_y="0 : 1000 : 0"
       inkscape:vp_x="0 : 0.5 : 1"
       sodipodi:type="inkscape:persp3d" />
    <radialGradient
       cx="11.376413"
       cy="11.482934"
       r="9.936264"
       fx="11.376413"
       fy="11.482934"
       id="radialGradient3590-2"
       xlink:href="#linearGradient3584-6"
       gradientUnits="userSpaceOnUse"
       gradientTransform="matrix(1.3236902,-4.4149302e-8,4.6758856e-8,1.4019302,-3.4122575,-5.2396272)" />
    <linearGradient
       id="linearGradient3584-6">
      <stop
         id="stop3586-5"
         style="stop-color:#f19765;stop-opacity:1"
         offset="0" />
      <stop
         id="stop3588-2"
         style="stop-color:#de1000;stop-opacity:1"
         offset="1" />
    </linearGradient>
    <radialGradient
       r="9.936264"
       fy="11.482934"
       fx="11.376413"
       cy="11.482934"
       cx="11.376413"
       gradientTransform="matrix(1.3236902,-4.4149302e-8,4.6758856e-8,1.4019302,-3.4122575,-5.2396272)"
       gradientUnits="userSpaceOnUse"
       id="radialGradient2914"
       xlink:href="#linearGradient3584-6"
       inkscape:collect="always" />
    <inkscape:perspective
       id="perspective2905-2"
       inkscape:persp3d-origin="0.5 : 0.33333333 : 1"
       inkscape:vp_z="1 : 0.5 : 1"
       inkscape:vp_y="0 : 1000 : 0"
       inkscape:vp_x="0 : 0.5 : 1"
       sodipodi:type="inkscape:persp3d" />
    <radialGradient
       cx="11.376413"
       cy="11.482934"
       r="9.936264"
       fx="11.376413"
       fy="11.482934"
       id="radialGradient3590-4"
       xlink:href="#linearGradient3584-7"
       gradientUnits="userSpaceOnUse"
       gradientTransform="matrix(1.3236902,-4.4149302e-8,4.6758856e-8,1.4019302,-3.4122575,-5.2396272)" />
    <linearGradient
       id="linearGradient3584-7">
      <stop
         id="stop3586-9"
         style="stop-color:#f19765;stop-opacity:1"
         offset="0" />
      <stop
         id="stop3588-3"
         style="stop-color:#de1000;stop-opacity:1"
         offset="1" />
    </linearGradient>
    <radialGradient
       r="9.936264"
       fy="11.482934"
       fx="11.376413"
       cy="11.482934"
       cx="11.376413"
       gradientTransform="matrix(1.3236902,-4.4149302e-8,4.6758856e-8,1.4019302,-3.4122575,-5.2396272)"
       gradientUnits="userSpaceOnUse"
       id="radialGradient2914-9"
       xlink:href="#linearGradient3584-7"
       inkscape:collect="always" />
    <inkscape:perspective
       id="perspective2905-4"
       inkscape:persp3d-origin="0.5 : 0.33333333 : 1"
       inkscape:vp_z="1 : 0.5 : 1"
       inkscape:vp_y="0 : 1000 : 0"
       inkscape:vp_x="0 : 0.5 : 1"
       sodipodi:type="inkscape:persp3d" />
    <radialGradient
       cx="11.376413"
       cy="11.482934"
       r="9.936264"
       fx="11.376413"
       fy="11.482934"
       id="radialGradient3590-9"
       xlink:href="#linearGradient3584-2"
       gradientUnits="userSpaceOnUse"
       gradientTransform="matrix(1.3236902,-4.4149302e-8,4.6758856e-8,1.4019302,-3.4122575,-5.2396272)" />
    <linearGradient
       id="linearGradient3584-2">
      <stop
         id="stop3586-57"
         style="stop-color:#f19765;stop-opacity:1"
         offset="0" />
      <stop
         id="stop3588-4"
         style="stop-color:#de1000;stop-opacity:1"
         offset="1" />
    </linearGradient>
    <radialGradient
       r="9.936264"
       fy="11.482934"
       fx="11.376413"
       cy="11.482934"
       cx="11.376413"
       gradientTransform="matrix(1.3236902,-4.4149302e-8,4.6758856e-8,1.4019302,-3.4122575,-5.2396272)"
       gradientUnits="userSpaceOnUse"
       id="radialGradient2914-99"
       xlink:href="#linearGradient3584-2"
       inkscape:collect="always" />
  </defs>
  <path
     d="m 18.066348,47.141553 c -0.8421,-0.987199 -1.109485,-2.985222 -2.817252,-2.729792 -2.478315,0.214644 -4.418885,-1.576659 -6.535387,-2.541654 -1.4290078,-0.670156 -3.1001903,-0.0021 -4.5098889,-0.812314 -3.0964133,-1.479565 -4.539635,-5.187824 -4.137989,-8.365442 0.3501518,-2.548095 1.9071344,-4.814058 3.8534097,-6.455977 1.6870925,-1.113353 3.8123758,-1.337321 5.6387502,-2.185681 1.421255,-0.431058 2.424738,-1.468976 3.536098,-2.354454 1.868255,-1.163701 4.506587,-1.516704 6.396505,-0.09308 1.643821,1.098354 3.440361,1.987499 5.025172,3.159934 1.237671,1.30457 0.935295,3.212202 1.286551,4.817594 0.147005,3.153209 1.515556,6.090899 2.068342,9.174809 0.451228,1.844817 -0.301579,3.636776 -1.345838,5.111735 -1.194787,1.734121 -2.474177,3.944845 -4.862615,4.132766 -1.190803,-0.05823 -2.684621,0.06336 -3.595858,-0.858448 z M 31.827756,31.931499 c -0.753084,-1.376925 -1.308383,-3.314633 -0.215911,-4.676158 1.764381,-2.198899 3.948086,-4.043162 6.201283,-5.742197 1.027215,-0.920367 2.1714,-0.784653 3.678541,-0.07188 1.590355,0.752134 2.130093,2.609477 1.807672,4.195247 -0.468845,2.305912 -1.288099,4.814785 -3.677506,5.802705 -2.074405,0.87074 -4.395069,1.915123 -6.69947,1.332757 -0.454511,-0.114865 -0.87346,-0.436121 -1.094616,-0.840478 z M 3.1522426,20.424375 c -1.4979712,-0.869517 -2.6874598,-2.29615 -2.94235,-4.027216 -0.3235914,-2.197645 0.074838,-4.557922 1.567121,-6.252175 1.3295551,-1.5095 3.0085828,-3.344748 5.2765085,-3.102047 1.9760169,0.06026 1.8560659,1.872349 1.8690499,3.264756 0.180039,1.571893 0.898009,3.023858 1.23388,4.556084 0.05799,0.264548 0.06316,0.526928 0.01247,0.711735 C 9.699741,17.28617 8.463333,18.739185 7.1539253,19.920852 6.264686,20.976958 4.88018,21.279279 3.5211208,20.606881 l -0.3688826,-0.182506 -2.2e-6,0 z m 23.6570314,1.04508 c -1.374394,-0.727521 -3.333396,-1.954275 -2.669091,-3.717866 0.621978,-1.651226 1.555832,-3.167355 2.15333,-4.84255 0.728847,-2.043452 2.095381,-4.924616 2.991624,-5.79213 1.437167,-1.391098 3.815784,-1.356938 5.757088,-1.135318 2.370479,0.270615 3.554483,2.782669 4.132194,4.827114 0.425857,1.507049 0.607396,3.168688 -0.268759,4.507647 -1.124418,1.718358 -2.699245,3.140552 -4.293279,4.436514 -1.470786,1.195759 -3.326396,2.007476 -5.232858,2.303516 -0.898388,0.130498 -1.777097,-0.16707 -2.570249,-0.586927 z M 16.134539,16.251478 c -2.436792,-2.283473 -3.469335,-5.816671 -3.006604,-8.998744 0.432444,-1.814359 1.50562,-3.390983 2.719097,-4.776132 1.046279,-1.194298 2.343256,-2.42484299 4.133188,-2.46921099 1.887546,-0.04679 4.081987,0.09449 5.440558,1.42976399 1.17345,1.153326 1.986564,3.238381 1.156094,4.825651 -1.558616,2.486218 -2.997309,5.050099 -4.147447,7.752294 -0.613289,1.165164 -1.02796,2.868304 -2.610488,3.040592 -1.248887,0.132376 -2.61974,-0.09401 -3.684398,-0.804214 z"
     id="path2463"
     style="fill:url(#radialGradient3590);fill-opacity:1" />
  <path
     style="opacity:0.74021349;fill:#ffefda;fill-opacity:1;fill-rule:evenodd;stroke:none;display:inline"
     d="m 24.900768,29.168648 c -0.224365,-0.01237 -0.454902,0.06 -0.682295,0.06823 0.373289,-0.01154 0.785714,0.03133 1.159902,0.06823 0.13209,0.01303 0.277676,-0.01887 0.409377,0 -0.300504,-0.05456 -0.576726,-0.119353 -0.886984,-0.136459 z m 0.477607,0.136459 c -0.492879,-0.05299 -0.989592,-0.04345 -1.50105,0 -0.489872,0.04162 -0.997131,0.133455 -1.501049,0.272918 -0.01894,0.0057 -0.04931,-0.0059 -0.06823,0 -0.02172,0.0062 -0.04656,-0.0064 -0.06823,0 -2.304774,0.761274 -3.805034,2.705953 -4.503149,4.912526 0.01665,-0.06568 -0.01833,-0.139552 0,-0.204688 -0.05006,0.178956 -0.09896,0.363492 -0.13646,0.545836 -0.06548,0.318742 -0.108435,0.627723 -0.136459,0.955214 0.0073,-0.112443 -0.01118,-0.228944 0,-0.341148 -0.08584,0.670293 -0.06851,1.368285 0,2.046886 0.02646,0.252167 0.0914,0.5023 0.136459,0.750525 0.04273,0.231447 0.07677,0.454609 0.13646,0.682295 0.0181,0.07143 0.04856,0.133531 0.06823,0.204689 0.01945,0.068 0.04729,0.13716 0.06823,0.204688 0.159744,0.534127 0.36952,1.013767 0.614065,1.50105 -0.07337,-0.143723 -0.206994,-0.261595 -0.272918,-0.409377 0.214066,0.500228 0.458732,1.037512 0.750525,1.501049 0.04969,0.06334 0.153037,0.0747 0.204689,0.13646 0.233395,0.306469 0.479095,0.558689 0.750525,0.818754 0.06366,0.06036 0.16034,0.109829 0.204688,0.136459 -0.01969,-0.03489 0.01908,-0.101316 0,-0.136459 -0.531212,-1.325791 -0.895949,-2.795097 -0.886984,-4.298461 -0.0936,0.984986 -0.02327,1.975773 0.272918,2.93387 -0.440516,-1.311114 -0.51985,-2.699522 -0.204688,-3.957313 0.02494,-0.252822 0.02538,-0.497959 0.06823,-0.750524 -0.466194,1.561473 -0.523723,3.26612 -0.06823,4.776067 -0.107443,-0.134929 -0.175345,-0.261565 -0.272918,-0.409377 -0.390046,-0.59239 -0.686488,-1.208296 -0.886984,-1.910427 -0.697354,-3.081881 0.620185,-5.959246 3.479706,-7.914626 1.431115,-0.948032 2.93966,-0.992658 4.36669,-0.545836 -0.05779,-0.411768 -0.185178,-0.809617 -0.204689,-1.228132 -0.01446,-0.06608 0.01239,-0.137651 0,-0.204688 -0.138529,-0.02233 -0.269171,-0.05316 -0.409377,-0.06823 z m -6.004199,7.505249 c 0.281883,-0.736663 0.767287,-1.412609 1.296361,-1.978657 -0.192446,0.248495 -0.321927,0.54952 -0.477606,0.818754 0.208483,-0.289939 0.411377,-0.570547 0.682295,-0.818754 1.063156,-1.095607 2.806657,-1.955768 4.230231,-1.296361 0.08418,-0.02896 0.188438,-0.04124 0.272918,-0.06823 -1.534664,-0.587268 -3.098383,-0.09754 -4.29846,0.955213 0.215974,-0.234869 0.429566,-0.47533 0.682295,-0.682295 0.990381,-0.703055 2.451621,-0.788059 3.616165,-0.272918 0.350311,0.15496 0.678302,0.345357 0.955214,0.614065 -0.82606,-0.140164 -1.665325,-0.08548 -2.388034,0.136459 0.50082,-0.192265 1.03244,-0.401065 1.569279,-0.477606 -0.125909,-0.08808 -0.277044,-0.143392 -0.409377,-0.204689 -0.716128,0.246349 -1.355759,0.622629 -1.978656,1.023443 -0.336373,0.176285 -0.609302,0.365662 -0.886984,0.614066 -0.02342,0.02115 -0.04528,0.0466 -0.06823,0.06823 -0.02465,0.02309 -0.04414,0.04461 -0.06823,0.06823 -0.02248,0.0221 -0.04624,0.04566 -0.06823,0.06823 -0.464557,0.466926 -0.742287,1.00966 -0.955213,1.637509 -0.01706,0.0513 -0.05308,0.08424 -0.06823,0.136459 -0.06521,0.219974 -0.109822,0.441837 -0.136459,0.682296 -0.03786,0.865209 0.08668,1.752684 0.341148,2.524492 0.133247,0.385531 0.290166,0.743602 0.477606,1.091673 -0.118343,-0.214737 -0.178774,-0.452612 -0.272918,-0.682296 0.175663,0.393441 0.37754,0.820143 0.614066,1.159902 -0.111148,-0.163032 -0.24515,-0.303419 -0.341148,-0.477606 0.921392,1.710993 2.426308,2.915145 4.36669,3.070329 0.01757,-0.02587 0.05074,-0.04243 0.06823,-0.06823 -0.117573,-0.01347 -0.226452,-0.04812 -0.341148,-0.06823 0.118213,0.02104 0.223022,-0.01308 0.341148,0 0.125156,-0.184792 0.287092,-0.36835 0.409377,-0.545837 0.183886,-0.259728 0.31678,-0.540808 0.477607,-0.818754 -0.905831,0.104218 -1.867107,-0.04001 -2.729181,-0.545836 0.126286,0.282933 0.146589,0.262925 0.272918,0.545836 -0.933793,-0.357348 -1.560249,-1.032816 -1.978657,-1.773968 0.315537,0.515232 0.729866,0.894634 1.296361,1.023443 0.72786,0.205219 1.497751,0.430907 2.251575,0.545836 -1.737325,-0.555764 -2.817092,-1.909184 -3.343247,-3.752624 0.12633,0.282922 -0.331017,0.808759 -0.204689,1.091673 -1.419809,-2.419998 0.956,-5.510984 3.411477,-4.571379 0.594682,0.227566 1.052178,0.508045 1.364591,0.886984 -0.629494,-0.727925 -1.490557,-1.21439 -2.592723,-1.228132 0.467417,-0.03373 0.989492,0.0089 1.50105,0.204689 0.407115,0.20995 0.742859,0.456258 1.023443,0.750525 -0.268232,-0.956501 -0.565647,-1.90673 -0.818753,-2.865642 -0.753449,-0.400962 -1.589443,-0.667125 -2.456264,-0.614065 -2.500349,0.132018 -3.995344,1.935873 -4.639608,4.093772 z m -0.06823,0.750524 c -0.01575,0.159679 0.0088,0.318177 0,0.477607 0.06906,-0.414124 0.134806,-0.763345 0.272918,-1.159902 -0.0869,0.22552 -0.213763,0.446206 -0.272918,0.682295 z m 0.272918,-0.682295 c 0.115027,-0.330277 0.315065,-0.64391 0.477607,-0.955213 -0.195838,0.30893 -0.346213,0.614231 -0.477607,0.955213 z m 2.797411,-7.30056 c 0.494744,-0.136278 0.987559,-0.235548 1.501049,-0.272918 0.1156,-0.0084 0.225084,-0.06464 0.341148,-0.06823 -0.619821,0.02243 -1.22397,0.153839 -1.842197,0.341148 z m 0.136459,7.027642 c -0.25836,0.40696 -0.452394,0.882115 -0.545836,1.43282 -0.05429,0.448396 -0.04944,0.90949 0,1.364591 0.047,0.432699 0.19787,0.846587 0.341147,1.228131 -0.161089,-0.408676 -0.271237,-0.808719 -0.341147,-1.228131 -0.05455,-0.32724 -0.124303,-0.646884 -0.13646,-0.955214 0.02819,-0.644248 0.279087,-1.280097 0.682296,-1.842197 z m 5.458362,2.93387 c -0.05871,0.471537 -0.158899,0.926852 -0.272918,1.36459 0.05319,-0.01385 0.08643,-0.05238 0.136459,-0.06823 0.08226,-0.431995 0.169919,-0.849813 0.136459,-1.296361 z m -1.36459,3.343247 c 0.09763,0.02169 0.171587,0.05104 0.272918,0.06823 0.06857,0.003 0.137638,0.0013 0.204688,0 0.0098,-0.01735 -0.0097,-0.05082 0,-0.06823 -0.157849,-0.0014 -0.316916,0.01461 -0.477606,0 z m -3.138559,0.545836 c 0.205968,0.147101 0.456468,0.290182 0.682296,0.409377 -0.110469,-0.05607 -0.233214,-0.07313 -0.341148,-0.136459 -0.119292,-0.08346 -0.229138,-0.186029 -0.341148,-0.272918 z"
     id="path3513" />
  <path
     style="opacity:0.74021349;fill:#ffecd4;fill-opacity:1;fill-rule:evenodd;display:inline"
     d="m 2.7944,9.040936 c -0.034562,0.03509 -0.034091,0.101147 -0.06823,0.136459 1.9131574,0.109704 3.7922038,1.234287 4.6396082,3.070329 0.4788098,1.436427 0.4800106,3.33964 -0.4776067,4.776067 -0.389035,0.47881 -0.839577,0.920737 -1.2963611,1.296361 -0.4570265,0.375627 -0.9216961,0.67918 -1.4328202,0.955214 -0.2798834,0.11607 -0.5891846,0.242634 -0.8869839,0.341147 0.4003351,-0.0688 0.5611585,-0.0784 0.8187544,-0.136459 0.091041,-0.01931 0.1822573,-0.04965 0.2729181,-0.06823 0.092207,-0.01969 0.1808779,-0.04942 0.2729181,-0.06823 C 5.1740622,19.030693 5.6588391,18.608167 6.0694171,18.183692 6.8905732,17.334524 7.5441291,16.28525 7.8433849,14.908675 8.413467,11.67821 5.6284567,9.206637 2.7943996,9.040935 z m 4.0255424,1.842197 C 7.6873155,11.937543 8.1977,13.289107 8.048074,14.635758 7.808668,16.072185 7.22549,17.229668 6.4105652,18.115464 6.5541526,17.978338 6.7520366,17.922855 6.8881719,17.774316 8.718235,15.761246 8.479165,12.822895 6.8199429,10.883133 z m -5.7995103,2.319804 c -0.2679488,0.03908 -0.482576,0.09264 -0.7505248,0.136459 -0.00276,4.52e-4 0.00276,0.06779 0,0.06823 0.4523421,-0.0048 0.8888834,-0.0417 1.2963611,-0.204689 -0.1795533,-0.05985 -0.366283,-0.02618 -0.5458363,0 z M 9.207976,24.187892 c -0.09206,0.03856 -0.179702,0.100327 -0.272918,0.136459 1.181301,0.680361 2.211354,1.655742 2.729181,3.0021 0.718218,1.975088 0.07543,3.680787 -1.091672,5.117215 1.780263,-2.381451 1.483837,-5.632149 -1.091673,-7.505249 -0.27787,-0.231557 -0.564027,-0.385948 -0.886984,-0.545836 -0.114115,0.04093 -0.22592,0.09789 -0.341147,0.136459 1.441007,0.668202 2.626729,1.867485 3.138558,3.275017 0.478812,2.154641 -0.199874,4.294854 -2.115115,5.731281 -1.655707,1.138302 -3.529872,1.750968 -5.3901335,1.910427 -0.4821481,0.04133 -0.9499062,0.01643 -1.4328202,0 -0.3479601,-0.01184 -0.677471,0.04035 -1.023443,0 -0.4233761,-0.04921 -0.879188,-0.114707 -1.2963611,-0.204689 0.0045,0.02641 0.063495,0.04184 0.068229,0.06823 0.3248355,0.06311 0.6283722,0.15791 0.9552135,0.204688 0.9762511,0.139721 1.9753347,0.187858 2.9338699,0.136459 0.9585352,-0.0514 1.9099489,-0.235312 2.7974108,-0.545836 0.4437313,-0.155262 0.8804036,-0.313041 1.2963616,-0.545836 -0.4079761,0.232208 -0.8697602,0.386151 -1.2963611,0.545836 -0.9200321,0.344388 -1.8268908,0.484105 -2.7974108,0.545836 -0.9718394,0.06181 -1.960955,0.01022 -2.9338699,-0.136459 -0.314977,-0.04748 -0.6435632,-0.07232 -0.9552135,-0.136459 0.012988,0.0695 0.053615,0.135429 0.06823,0.204689 0.063884,0.01718 0.139912,0.0534 0.2046886,0.06823 4.2626065,0.80057 9.0948587,-0.313569 11.1896427,-4.503149 1.197026,-2.394046 0.244216,-5.250067 -1.910427,-6.686494 C 9.584987,24.343932 9.385861,24.287866 9.207976,24.187893 z M 2.4532523,35.445765 c 0.4877292,0.02275 0.9481488,0.04053 1.4328202,0 2.4233573,-0.202669 4.7648285,-1.276436 6.3453465,-3.343247 0.957619,-1.197023 0.956419,-2.862031 0.477607,-4.298461 0.478812,3.830474 -2.686045,6.718806 -6.2771173,7.437019 -1.5710901,0.224442 -2.9482998,0.103569 -4.2984605,-0.272918 0.0063,0.04492 -0.00698,0.09159 0,0.136459 0.742117,0.180323 1.552736,0.305376 2.3198041,0.341148 z"
     id="path3527" />
  <path
     style="opacity:0.74021349;fill:#ffdec2;fill-opacity:1;fill-rule:evenodd;display:inline"
     d="m 20.806996,0.03463801 c -1.070854,0.360754 -2.016458,0.910455 -2.388033,1.70573799 -1.075282,1.362441 -0.801264,2.927392 0.06823,4.162001 -0.352461,-0.551243 -0.556617,-1.261519 -0.477606,-2.115115 0.356291,-2.190372 1.99225,-3.15526399 3.889083,-3.68439499 -0.367699,-0.03494 -0.726547,-0.06309 -1.091673,-0.06823 z M 18.487192,5.902377 c 0.671689,0.953743 1.671665,1.668637 2.797411,1.910427 -0.919732,-0.138737 -1.896089,-0.417943 -2.660952,-0.955213 1.323516,1.028688 3.274516,1.269025 4.844297,0.682295 0.04733,0.0085 0.08931,-0.0018 0.136459,0 0.145525,-0.07715 0.337899,-0.170194 0.477607,-0.272918 -0.03638,0.106573 -0.171159,0.191986 -0.272918,0.272918 C 24.860221,7.371764 25.79196,5.847322 26.19713,5.015394 24.834406,7.845489 20.014525,8.2911 18.487192,5.902377 z m 5.321904,1.637509 c -0.07007,0.01121 -0.133972,0.0027 -0.204689,0 -0.233456,0.123764 -0.43892,0.278666 -0.682295,0.341148 0.395823,-0.05548 0.683463,-0.179282 0.886984,-0.341148 z M 18.623651,6.857591 C 18.363953,6.675169 18.139853,6.474289 17.941356,6.243525 c 0.192709,0.248026 0.436071,0.422691 0.682295,0.614066 z m 20.46886,3.752624 c -0.0666,0.01735 -0.164871,0.05224 -0.204689,0.06823 0.03996,-0.0016 0.15423,0.0038 0.204689,0 -0.0059,-0.02002 0.006,-0.04814 0,-0.06823 z m -10.643807,4.230231 c -0.261475,-0.03296 -0.491709,0.02389 -0.682295,0.06823 0.09551,0.0028 0.186728,0.05733 0.272918,0.06823 0.277887,0.03513 0.495811,0.09763 0.682295,0.204689 -0.248816,-0.06218 -0.504042,-0.09151 -0.750525,-0.06823 -0.384897,0.172275 -0.655274,0.345442 -0.886984,0.477607 0.02984,0.126702 0.208685,0.273954 0.545837,0.409377 1.737927,-0.729149 -1.181376,-0.0898 0.614065,-0.818755 0.324718,0.150154 0.558644,0.316926 0.750525,0.477607 0.137058,0.114772 0.264325,0.224168 0.341148,0.341148 0.09234,0.492443 -0.09526,1.075072 -0.409377,1.569279 -0.06612,0.07617 -0.134123,0.206907 -0.204689,0.272918 0.06138,-0.05962 0.1495,-0.07363 0.204689,-0.136459 0.203455,-0.23741 0.379179,-0.488083 0.477607,-0.750525 0.01638,-0.04271 -0.01276,-0.09356 0,-0.136459 0.04234,-0.112124 0.07155,-0.224866 0.06823,-0.341148 0.0085,-0.06618 0.07183,-0.137004 0.06823,-0.204688 0.0151,0.134322 0.02665,0.26947 0,0.409377 0.228277,-0.739172 -0.05831,-1.13862 -0.477607,-1.364591 0.0657,0.06713 0.08515,0.1376 0.136459,0.204689 -0.03188,-0.02915 -0.100264,-0.04072 -0.136459,-0.06823 0.05106,0.06372 0.09962,0.133245 0.136459,0.204689 -0.113097,-0.133536 -0.291114,-0.295165 -0.477607,-0.409378 0.125374,0.05914 0.246635,0.132846 0.341148,0.204689 -0.03161,-0.03945 -0.03097,-0.100428 -0.06823,-0.136459 -0.151406,-0.149117 -0.317117,-0.330683 -0.545836,-0.477607 z m 0.477607,2.865641 c -0.08735,0.125012 -0.164991,0.231813 -0.272918,0.341147 0.117313,-0.102583 0.174073,-0.225806 0.272918,-0.341147 z m -0.272918,0.341147 c -0.06802,0.0689 -0.197543,0.07568 -0.272918,0.136459 -0.169596,0.136751 -0.344161,0.325844 -0.545837,0.409377 0.302649,-0.12873 0.570107,-0.328407 0.818755,-0.545836 z m -0.272918,0.136459 c 0.142976,-0.102748 0.218382,-0.221905 0.341147,-0.341147 -0.772068,0.722236 -1.75366,0.772277 -2.660952,0.477606 0.545461,0.03861 1.113177,-0.03633 1.637509,-0.204688 0.133717,-0.04294 0.21614,-0.15137 0.341148,-0.204689 -0.901112,0.238149 -2.218903,-8.66e-4 -3.138559,-0.614066 0.108139,0.161206 0.202934,0.323709 0.341148,0.477607 0.07507,0.11762 0.190418,0.178193 0.272918,0.272918 -0.180202,-0.123736 -0.406338,-0.193411 -0.545836,-0.341147 0.199527,0.169723 0.381533,0.360945 0.614066,0.477606 -0.111814,-0.02567 -0.236116,-0.02956 -0.341148,-0.06823 -0.03466,-0.01232 -0.102617,0.01342 -0.136459,0 0.422807,0.559796 1.017998,0.733196 1.637509,0.682296 -0.340157,-0.02245 -0.582453,-0.246433 -0.886984,-0.477607 -0.01964,-0.0077 -0.04873,0.0081 -0.06823,0 -0.01314,-0.01051 0.01302,-0.05727 0,-0.06823 0.07181,0.01125 0.131254,0.06161 0.204689,0.06823 -0.03978,-0.01381 -0.09718,0.0154 -0.136459,0 0.504654,0.326037 0.986979,0.451332 1.43282,0.409377 0.365278,-0.108411 0.777122,-0.319789 1.091673,-0.545836 z m -3.411477,-0.477606 c -0.0894,-0.09468 -0.130968,-0.237848 -0.204689,-0.341148 0.02937,0.08564 0.0341,0.195963 0.06823,0.272918 0.03687,0.03448 0.09805,0.03556 0.136459,0.06823 z m -0.136459,-0.06823 c -0.160017,-0.149649 -0.283608,-0.296548 -0.409377,-0.477607 -0.01956,0.04599 -0.04906,0.09031 -0.06823,0.136459 0.140328,0.298969 0.363239,0.512567 0.614066,0.682295 -0.06023,-0.09586 -0.08579,-0.226907 -0.136459,-0.341147 z m 0.06823,-0.341148 c -0.107942,-0.160914 -0.261256,-0.310499 -0.341147,-0.477607 0.03273,0.07217 0.03148,0.131828 0.06823,0.204689 0.0071,0.01299 -0.0073,0.05534 0,0.06823 0.09239,0.07565 0.17126,0.136905 0.272918,0.204688 z m 4.093772,-1.637509 c -0.148666,0.149218 -0.319355,0.259444 -0.477606,0.341148 0.471834,0.702699 0.417946,1.24055 0.06823,1.637509 0.462712,-0.359628 0.696623,-1.012859 0.409377,-1.978657 z m -0.477606,0.341148 c -0.01943,-0.02894 -0.04699,-0.03879 -0.06823,-0.06823 -0.212051,0.151069 -0.377238,0.213977 -0.545836,0.272918 0.199717,-0.01305 0.404292,-0.09638 0.614066,-0.204689 z m -1.432822,-0.409378 c -0.04897,0.02793 -0.168473,0.04876 -0.204688,0.06823 -0.03671,0.03883 -0.05328,0.04781 -0.06823,0.06823 0.0085,-0.0043 0.05855,0.0051 0.06823,0 0.0098,0.04064 0.112979,0.02986 0.136459,0.06823 -0.0041,-0.07084 0.0486,-0.13066 0.06823,-0.204689 z m 0.886984,-0.477607 c 0.05828,-0.02609 0.07755,-0.04448 0.136459,-0.06823 -0.0311,-0.01109 -0.03589,-0.05756 -0.06823,-0.06823 -0.259205,0.03552 -0.446654,0.07551 -0.614066,0.13646 -0.119916,0.08189 -0.208289,0.167374 -0.272918,0.272918 0.125699,-0.14967 0.458889,-0.238925 0.818754,-0.272918 z m -0.818754,0.272918 c 0.06135,-0.05985 0.05252,-0.192819 0.136459,-0.272918 -0.25786,0.112395 -0.370828,0.268467 -0.409377,0.409378 0.02698,-0.02768 0.168556,-0.03255 0.204688,-0.06823 0.01241,-0.02598 0.0527,-0.04288 0.06823,-0.06823 z m 0.272918,-0.272918 c 0.09623,-0.06572 0.139944,-0.166101 0.272918,-0.204688 -0.04758,-3.33e-4 -0.08661,-0.0017 -0.136459,0 -0.0937,0.08846 -0.05992,0.131958 -0.136459,0.204688 z m -0.341148,0.886984 c 0.119054,0.211211 0.346331,0.329482 0.750525,0.204689 -0.32039,0.0052 -0.574333,-0.05834 -0.750525,-0.204689 z m -2.79741,1.50105 c 0.08666,0.10622 0.159971,0.186784 0.272918,0.272918 -0.09143,-0.07862 -0.197226,-0.175285 -0.272918,-0.272918 z m 3.957312,0.341148 c -0.145688,0.07588 -0.25011,0.213404 -0.409377,0.272918 0.210538,-0.07939 0.388199,-0.151934 0.545837,-0.272918 -0.03719,0.01979 -0.09799,-0.01886 -0.13646,0 z m 11.326103,3.002099 c -0.136317,0.17789 -0.280097,0.380985 -0.409377,0.614066 -1.351065,3.047574 2.266351,4.043568 4.230231,2.93387 -0.01254,-0.170253 -0.104002,-0.310481 -0.136459,-0.477607 -0.20346,0.206983 -0.52939,0.30193 -0.886984,0.409377 0.329844,-0.103774 0.630558,-0.305592 0.886984,-0.614066 -0.03514,-0.14291 -0.08595,-0.271922 -0.13646,-0.409377 -0.936141,1.310667 -4.447877,0.09624 -2.86564,-1.773968 -1.569952,1.785944 1.533049,3.554124 2.86564,1.978657 -0.237687,0.335881 -0.514957,0.713028 -0.955213,0.886984 -0.02062,0.0044 -0.04713,-0.0041 -0.06823,0 -0.09794,0.03596 -0.233402,0.0431 -0.341148,0.06823 -0.943869,0.01055 -1.925599,-0.593682 -2.319804,-1.43282 -0.0053,0.153223 -0.04048,0.337722 0,0.477607 -0.165598,-0.331469 -0.224704,-0.735877 -0.136459,-1.091673 0.02015,0.192089 0.05942,0.369726 0.136459,0.545837 0.0391,-0.54002 0.402515,-1.031434 0.818754,-1.50105 0.01797,-0.02014 0.04905,-0.04797 0.06823,-0.06823 0.07942,-0.07967 0.17365,-0.193855 0.272918,-0.272918 -0.09348,-0.03032 -0.182277,-0.04447 -0.272918,-0.06823 -0.458693,0.358854 -0.878993,0.782995 -1.023443,1.296361 -0.02874,-0.449505 0.161484,-0.96334 0.545836,-1.43282 -0.08996,-0.01134 -0.185573,-0.06509 -0.272918,-0.06823 z m 0.06823,3.002099 c 0.08851,0.09598 0.218844,0.187281 0.341148,0.272919 -0.130806,-0.08985 -0.261001,-0.158247 -0.341148,-0.272919 z m 0.955214,0.545837 c 0.215149,0.05189 0.464675,0.129887 0.750525,0.136459 -0.168352,0.01494 -0.289593,0.01148 -0.477607,0 -0.105458,-0.03258 -0.179187,-0.09925 -0.272918,-0.136459 z"
     id="path3616" />
  <path
     style="opacity:0.77021353;fill:#fff6e3;fill-opacity:1;fill-rule:evenodd;display:inline"
     d="m 33.634149,5.902377 c -0.222988,0.391309 -0.394337,0.799588 -0.545837,1.228132 0.03142,-0.09844 0.100978,-0.176143 0.136459,-0.272918 -0.202695,0.52379 -0.329397,1.01728 -0.409377,1.569279 -0.04485,0.309508 -0.06596,0.643431 -0.06823,0.955214 0.0045,0.722052 0.102425,1.463638 0.341147,2.183345 0.523807,0.91092 1.413199,1.534748 2.592722,1.569279 -1.374387,-0.357245 -2.155998,-1.330099 -2.524492,-2.524493 0.361075,0.871255 1.036215,1.604956 1.842197,1.978657 1.410472,0.653979 2.965382,-0.115777 3.820854,-1.432821 -0.870115,0.820624 -2.040845,1.791878 -3.343247,1.432821 -1.7054,-0.545902 -2.412334,-2.126912 -2.456263,-3.616166 0.02352,-1.08134 0.343342,-2.112275 0.886984,-3.070329 -0.06691,-0.0036 -0.137438,0.0027 -0.204689,0 -0.0048,0.0086 -0.0635,-0.0086 -0.06823,0 z m -0.545837,5.663052 c -0.254984,-0.699802 -0.346466,-1.452522 -0.341147,-2.183345 -0.002,-0.320644 0.02799,-0.641038 0.06823,-0.955214 0.05614,-0.43828 0.140219,-0.880601 0.272918,-1.296361 -0.348977,0.987137 -0.570711,2.045753 -0.477606,3.138559 0.07421,0.478545 0.250582,0.901555 0.477606,1.296361 z m 0,-3.820854 c -0.116328,0.48212 -0.216712,1.008595 -0.204688,1.50105 -0.02509,-0.482136 0.04485,-1.024328 0.204688,-1.50105 z"
     id="path3511" />
</svg>
