<?xml version="1.0" encoding="UTF-8" standalone="no"?>
<!-- Created with Inkscape (http://www.inkscape.org/) -->

<svg
   xmlns:svg="http://www.w3.org/2000/svg"
   xmlns="http://www.w3.org/2000/svg"
   xmlns:xlink="http://www.w3.org/1999/xlink"
   version="1.0"
   width="24"
   height="24"
   id="svg2482">
  <defs
     id="defs2484">
    <linearGradient
       id="linearGradient3584">
      <stop
         id="stop3586"
         style="stop-color:#f19765;stop-opacity:1"
         offset="0" />
      <stop
         id="stop3588"
         style="stop-color:#de1000;stop-opacity:1"
         offset="1" />
    </linearGradient>
    <radialGradient
       cx="11.376413"
       cy="11.482934"
       r="9.936264"
       fx="11.376413"
       fy="11.482934"
       id="radialGradient3590"
       xlink:href="#linearGradient3584"
       gradientUnits="userSpaceOnUse"
       gradientTransform="matrix(1.3236902,-4.4149302e-8,4.6758856e-8,1.4019302,-3.4122575,-5.2396272)" />
    <radialGradient
       cx="11.376413"
       cy="11.482934"
       r="9.936264"
       fx="11.376413"
       fy="11.482934"
       id="radialGradient3590-3"
       xlink:href="#linearGradient3584-3"
       gradientUnits="userSpaceOnUse"
       gradientTransform="matrix(1.3236902,-4.4149302e-8,4.6758856e-8,1.4019302,-3.4122575,-5.2396272)" />
    <linearGradient
       id="linearGradient3584-3">
      <stop
         id="stop3586-3"
         style="stop-color:#f19765;stop-opacity:1"
         offset="0" />
      <stop
         id="stop3588-8"
         style="stop-color:#de1000;stop-opacity:1"
         offset="1" />
    </linearGradient>
    <radialGradient
       cx="11.376413"
       cy="11.482934"
       r="9.936264"
       fx="11.376413"
       fy="11.482934"
       id="radialGradient2875"
       xlink:href="#linearGradient3584-3"
       gradientUnits="userSpaceOnUse"
       gradientTransform="matrix(1.3236902,-4.4149302e-8,4.6758856e-8,1.4019302,-3.4122575,-5.2396272)" />
    <radialGradient
       cx="11.376413"
       cy="11.482934"
       r="9.936264"
       fx="11.376413"
       fy="11.482934"
       id="radialGradient3590-2"
       xlink:href="#linearGradient3584-6"
       gradientUnits="userSpaceOnUse"
       gradientTransform="matrix(1.3236902,-4.4149302e-8,4.6758856e-8,1.4019302,-3.4122575,-5.2396272)" />
    <linearGradient
       id="linearGradient3584-6">
      <stop
         id="stop3586-5"
         style="stop-color:#f19765;stop-opacity:1"
         offset="0" />
      <stop
         id="stop3588-2"
         style="stop-color:#de1000;stop-opacity:1"
         offset="1" />
    </linearGradient>
    <radialGradient
       cx="11.376413"
       cy="11.482934"
       r="9.936264"
       fx="11.376413"
       fy="11.482934"
       id="radialGradient2914"
       xlink:href="#linearGradient3584-6"
       gradientUnits="userSpaceOnUse"
       gradientTransform="matrix(1.3236902,-4.4149302e-8,4.6758856e-8,1.4019302,-3.4122575,-5.2396272)" />
    <radialGradient
       cx="11.376413"
       cy="11.482934"
       r="9.936264"
       fx="11.376413"
       fy="11.482934"
       id="radialGradient3590-4"
       xlink:href="#linearGradient3584-7"
       gradientUnits="userSpaceOnUse"
       gradientTransform="matrix(1.3236902,-4.4149302e-8,4.6758856e-8,1.4019302,-3.4122575,-5.2396272)" />
    <linearGradient
       id="linearGradient3584-7">
      <stop
         id="stop3586-9"
         style="stop-color:#f19765;stop-opacity:1"
         offset="0" />
      <stop
         id="stop3588-3"
         style="stop-color:#de1000;stop-opacity:1"
         offset="1" />
    </linearGradient>
    <radialGradient
       cx="11.376413"
       cy="11.482934"
       r="9.936264"
       fx="11.376413"
       fy="11.482934"
       id="radialGradient2914-9"
       xlink:href="#linearGradient3584-7"
       gradientUnits="userSpaceOnUse"
       gradientTransform="matrix(1.3236902,-4.4149302e-8,4.6758856e-8,1.4019302,-3.4122575,-5.2396272)" />
    <radialGradient
       cx="11.376413"
       cy="11.482934"
       r="9.936264"
       fx="11.376413"
       fy="11.482934"
       id="radialGradient3590-9"
       xlink:href="#linearGradient3584-2"
       gradientUnits="userSpaceOnUse"
       gradientTransform="matrix(1.3236902,-4.4149302e-8,4.6758856e-8,1.4019302,-3.4122575,-5.2396272)" />
    <linearGradient
       id="linearGradient3584-2">
      <stop
         id="stop3586-57"
         style="stop-color:#f19765;stop-opacity:1"
         offset="0" />
      <stop
         id="stop3588-4"
         style="stop-color:#de1000;stop-opacity:1"
         offset="1" />
    </linearGradient>
    <radialGradient
       cx="11.376413"
       cy="11.482934"
       r="9.936264"
       fx="11.376413"
       fy="11.482934"
       id="radialGradient2914-99"
       xlink:href="#linearGradient3584-2"
       gradientUnits="userSpaceOnUse"
       gradientTransform="matrix(1.3236902,-4.4149302e-8,4.6758856e-8,1.4019302,-3.4122575,-5.2396272)" />
    <radialGradient
       cx="11.376413"
       cy="11.482934"
       r="9.936264"
       fx="11.376413"
       fy="11.482934"
       id="radialGradient2849"
       xlink:href="#linearGradient3584"
       gradientUnits="userSpaceOnUse"
       gradientTransform="matrix(1.3236902,-4.4149302e-8,4.6758856e-8,1.4019302,-3.4122575,-5.2396272)" />
    <radialGradient
       cx="11.376413"
       cy="11.482934"
       r="9.936264"
       fx="11.376413"
       fy="11.482934"
       id="radialGradient2852"
       xlink:href="#linearGradient3584"
       gradientUnits="userSpaceOnUse"
       gradientTransform="matrix(1.3236902,-4.4149302e-8,4.6758856e-8,1.4019302,-3.4122575,-5.2396272)" />
    <radialGradient
       cx="11.376413"
       cy="11.482934"
       r="9.936264"
       fx="11.376413"
       fy="11.482934"
       id="radialGradient2855"
       xlink:href="#linearGradient3584"
       gradientUnits="userSpaceOnUse"
       gradientTransform="matrix(1.3236902,-4.4149302e-8,4.6758856e-8,1.4019302,-3.4122575,-5.2396272)" />
  </defs>
  <path
     d="m 11.21875,1.03125 c -0.819812,0.020321 -1.4270408,0.5779962 -1.90625,1.125 -0.5557878,0.6344162 -1.051935,1.3565 -1.25,2.1875 -0.211937,1.45743 0.290168,3.07914 1.40625,4.125 0.487627,0.32528 1.115494,0.40438 1.6875,0.34375 0.724818,-0.07891 0.906606,-0.84134 1.1875,-1.375 C 12.870528,6.19986 13.536134,5.01372 14.25,3.875 14.630366,3.14801 14.256205,2.2157384 13.71875,1.6875 13.301607,1.2775111 12.699726,1.1201728 12.09375,1.0625 11.224976,1.3048486 10.475686,1.7467817 10.3125,2.75 10.276312,3.1409577 10.369818,3.4662733 10.53125,3.71875 10.133011,3.1532832 10.007507,2.4365156 10.5,1.8125 c 0.170186,-0.3642496 0.603285,-0.6160197 1.09375,-0.78125 -0.127999,-0.00185 -0.251497,-0.00306 -0.375,0 z M 14.0625,3.3125 c -0.185573,0.381034 -0.612321,1.0792478 -1.09375,1.15625 -0.09322,0.074136 -0.224958,0.1308416 -0.40625,0.15625 0.111469,-0.028618 0.205574,-0.099565 0.3125,-0.15625 -0.02159,-8.359e-4 -0.04082,0.00391 -0.0625,0 -0.312189,0.1166853 -0.659794,0.1497027 -1,0.125 -0.443298,-0.032188 -0.875776,-0.1709269 -1.21875,-0.4375 0.350317,0.2460767 0.797501,0.3739567 1.21875,0.4375 -0.364697,-0.07833 -0.694515,-0.2740703 -0.96875,-0.53125 0.899711,0.6761516 2.672623,0.3841923 3.21875,-0.75 z M 12.875,4.46875 c 0.03239,0.00125 0.06166,0.00513 0.09375,0 0.04661,-0.037068 0.108337,-0.076188 0.125,-0.125 -0.06399,0.047049 -0.152098,0.089666 -0.21875,0.125 z m 4,-0.75 c -0.529392,0.043765 -1.035989,0.2041084 -1.40625,0.5625 -0.410491,0.3973326 -1.041179,1.7203228 -1.375,2.65625 -0.219521,0.6154664 -0.521175,1.1897952 -0.78125,1.78125 0.0045,0.00992 -0.0026,0.022047 0,0.03125 -0.01872,0.042865 -0.04434,0.081865 -0.0625,0.125 0.0576,0.082927 0.11421,0.1502091 0.1875,0.21875 -0.01563,-0.035246 -0.0178,-0.085775 -0.03125,-0.125 0.03377,0.047313 0.0528,0.1128836 0.09375,0.15625 0.06389,0.067665 0.167465,0.099577 0.25,0.15625 -0.03779,-0.043385 -0.09062,-0.071129 -0.125,-0.125 -0.0633,-0.070487 -0.106721,-0.1449157 -0.15625,-0.21875 0.421214,0.2808535 1.024779,0.3903254 1.4375,0.28125 -0.05725,0.024421 -0.09501,0.074084 -0.15625,0.09375 -0.240151,0.077112 -0.500172,0.1114319 -0.75,0.09375 0.415551,0.1349631 0.865133,0.1120433 1.21875,-0.21875 0.03232,-0.030234 0.06347,-0.090112 0.09375,-0.125 0.143872,-0.226353 0.229795,-0.4932048 0.1875,-0.71875 -0.03519,-0.053578 -0.09348,-0.1036829 -0.15625,-0.15625 0.131562,0.4423479 0.02443,0.7415361 -0.1875,0.90625 0.160175,-0.1818119 0.184856,-0.4281549 -0.03125,-0.75 -0.09608,0.049605 -0.189777,0.087775 -0.28125,0.09375 0.07722,-0.026996 0.152878,-0.055808 0.25,-0.125 0.0097,0.013483 0.02235,0.017993 0.03125,0.03125 0.07248,-0.037422 0.150659,-0.087906 0.21875,-0.15625 C 15.255866,8.1139061 15.148725,8.0375221 15,7.96875 c -0.822335,0.3338686 0.514743,0.041041 -0.28125,0.375 -0.15442,-0.062025 -0.236334,-0.1294688 -0.25,-0.1875 -0.009,0.033906 -0.03313,0.061306 -0.03125,0.09375 -0.01075,-0.017575 -0.05799,-0.012636 -0.0625,-0.03125 0.0049,-0.00442 -0.0084,-0.022359 0,-0.03125 0.01659,-0.00892 0.07132,-0.018456 0.09375,-0.03125 0.106126,-0.060533 0.229962,-0.1398458 0.40625,-0.21875 -0.164823,0.015569 -0.317428,0.056449 -0.375,0.125 -0.0071,0.011612 -0.02557,0.019349 -0.03125,0.03125 -0.01655,0.016344 -0.08139,0.018572 -0.09375,0.03125 0.01766,-0.064539 0.0694,-0.1360217 0.1875,-0.1875 -0.03844,0.036686 -0.0344,0.097589 -0.0625,0.125 0.0296,-0.048341 0.07008,-0.087494 0.125,-0.125 0.03506,-0.033311 0.01958,-0.053234 0.0625,-0.09375 0.02283,-7.92e-4 0.04071,-1.525e-4 0.0625,0 -0.0609,0.017673 -0.08093,0.063651 -0.125,0.09375 0.07668,-0.027917 0.162531,-0.04623 0.28125,-0.0625 -0.03948,-0.00499 -0.08126,-0.029989 -0.125,-0.03125 0.08729,-0.020309 0.192741,-0.046346 0.3125,-0.03125 0.104756,0.067293 0.180654,0.1504526 0.25,0.21875 0.01707,0.016502 0.01677,0.044432 0.03125,0.0625 0.01658,0.012602 0.0479,0.017899 0.0625,0.03125 -0.0235,-0.030727 -0.03241,-0.063002 -0.0625,-0.09375 0.192044,0.1034974 0.323304,0.2864498 0.21875,0.625 0.01221,-0.064079 0.0069,-0.1259789 0,-0.1875 0.0016,0.031 -0.02736,0.063439 -0.03125,0.09375 0.0015,0.053258 -0.01186,0.1048958 -0.03125,0.15625 -0.0058,0.01965 0.0075,0.042941 0,0.0625 -0.04508,0.1202017 -0.125565,0.2350131 -0.21875,0.34375 -0.02528,0.028777 -0.06564,0.035193 -0.09375,0.0625 -0.05623,0.054615 -0.09076,0.1091898 -0.15625,0.15625 -0.144068,0.1035324 -0.332698,0.2003463 -0.5,0.25 -0.204201,0.019216 -0.425112,-0.038171 -0.65625,-0.1875 0.139479,0.1058807 0.250454,0.2084692 0.40625,0.21875 -0.283744,0.023313 -0.556349,-0.056106 -0.75,-0.3125 0.0155,0.00615 0.04663,-0.00564 0.0625,0 0.04811,0.017713 0.105038,0.019493 0.15625,0.03125 C 13.674747,9.2903174 13.591386,9.2027354 13.5,9.125 13.482407,9.1100349 13.454386,9.1095422 13.4375,9.09375 13.460709,9.1460736 13.472415,9.206094 13.5,9.25 13.385118,9.1722622 13.283022,9.0744318 13.21875,8.9375 c -0.01255,0.030454 -0.01905,0.063127 -0.03125,0.09375 -0.01734,0.043531 -0.04596,0.081084 -0.0625,0.125 -0.30426,0.807747 0.58926,1.354286 1.21875,1.6875 0.363274,0.1923 0.776027,0.34102 1.1875,0.28125 0.873184,-0.13559 1.701361,-0.514827 2.375,-1.0625 C 18.636338,9.4689329 19.360002,8.8182799 19.875,8.03125 20.27629,7.4179899 20.195048,6.6589979 20,5.96875 c -0.006,-0.021317 -0.02495,-0.040967 -0.03125,-0.0625 -0.02311,0.00175 -0.07545,-7.199e-4 -0.09375,0 0.01824,-0.00732 0.06325,-0.023306 0.09375,-0.03125 C 19.696096,4.9563481 19.175466,3.8699216 18.125,3.75 17.960593,3.7312312 17.774757,3.7223885 17.59375,3.71875 17.344755,4.1575507 17.198271,4.6297321 17.1875,5.125 c 0.02012,0.682097 0.343905,1.40622 1.125,1.65625 0.596517,0.164453 1.132726,-0.280394 1.53125,-0.65625 -0.391817,0.603223 -1.103986,0.955781 -1.75,0.65625 C 17.7246,6.6100905 17.415377,6.2740459 17.25,5.875 17.418775,6.4220475 17.776763,6.8676274 18.40625,7.03125 17.866013,7.0154346 17.45866,6.7297134 17.21875,6.3125 17.11477,6.1316739 17.033989,5.9379301 17,5.71875 c -0.04264,-0.5005191 0.05891,-0.9853788 0.21875,-1.4375 -0.06078,0.1904234 -0.09929,0.3930122 -0.125,0.59375 0.03663,-0.2528226 0.09466,-0.4788476 0.1875,-0.71875 0.05742,-0.1485666 0.108533,-0.2989247 0.1875,-0.4375 -0.0209,-4.366e-4 -0.04189,5.021e-4 -0.0625,0 -0.178092,-0.00434 -0.354786,-0.014588 -0.53125,0 z m -1.5,4.375 C 15.331712,8.0608451 15.276173,8.0270854 15.21875,8 15.304166,8.0523107 15.3857,8.1263392 15.4375,8.1875 15.420629,8.1547781 15.398388,8.122937 15.375,8.09375 z M 14.90625,7.875 c 0.01481,0.00489 0.017,0.026173 0.03125,0.03125 -0.02698,0.010879 -0.03581,0.019302 -0.0625,0.03125 0.112892,-0.010664 0.229789,0.00277 0.34375,0.03125 -0.08541,-0.049035 -0.185224,-0.077661 -0.3125,-0.09375 z m -10,-3.625 c -0.6238837,0.070254 -1.1226122,0.4607587 -1.5625,0.90625 1.2980345,0.075894 2.5736049,1.2079056 2.3125,2.6875 -0.137063,0.630489 -0.4364,1.11107 -0.8125,1.5 C 4.6557,9.538165 4.433666,9.731687 4.1875,9.875 4.1453444,9.8836143 4.1047321,9.89723 4.0625,9.90625 4.0209762,9.9147595 3.9791981,9.928656 3.9375,9.9375 3.8195178,9.9640902 3.7458586,9.9684877 3.5625,10 3.6988959,9.9548794 3.8405598,9.8969118 3.96875,9.84375 4.2028514,9.717323 4.415676,9.578292 4.625,9.40625 4.834213,9.234209 5.040567,9.031801 5.21875,8.8125 5.657351,8.154598 5.656801,7.282902 5.4375,6.625 5.0493779,5.7840691 4.1887506,5.2689959 3.3125,5.21875 3.1694993,5.3663294 3.0034624,5.5104012 2.875,5.65625 2.5063064,6.0748436 2.3228724,6.5853892 2.21875,7.125 c 0.1083492,-0.018941 0.2005757,-0.046178 0.3125,-0.0625 0.082238,-0.011993 0.1677623,-0.027412 0.25,0 C 2.59462,7.1371525 2.3946785,7.1540493 2.1875,7.15625 2.1047841,7.6068904 2.0896261,8.0787789 2.15625,8.53125 2.272993,9.3241002 2.81391,9.9767498 3.5,10.375 l 0.1875,0.09375 C 4.3099665,10.776717 4.936467,10.60871 5.34375,10.125 5.9434753,9.5837813 6.5038593,8.9397534 6.71875,8.15625 6.74197,8.071606 6.74531,7.9336663 6.71875,7.8125 6.5649169,7.1107209 6.23871,6.4699475 6.15625,5.75 6.150303,5.11226 6.186291,4.2776 5.28125,4.25 5.1514076,4.236105 5.0278777,4.2363038 4.90625,4.25 z m 12.3125,0.3125 C 17.145544,4.780845 17.113508,5.0291759 17.125,5.25 17.119493,5.0244495 17.16547,4.7833173 17.21875,4.5625 z M 5.75,7.25 C 5.861685,7.9148596 5.7190005,8.6059741 5.21875,9.15625 5.1563983,9.2242825 5.0657649,9.2496948 5,9.3125 5.373246,8.906794 5.640349,8.376652 5.75,7.71875 5.7671326,7.5645542 5.7684854,7.4023154 5.75,7.25 z m 8.71875,1.09375 c 0.0807,0.067029 0.197007,0.09613 0.34375,0.09375 -0.185126,0.057157 -0.289222,0.00299 -0.34375,-0.09375 z M 15,9.1875 c 0.01762,-0.00864 0.04547,0.00906 0.0625,0 -0.0722,0.055412 -0.153571,0.088639 -0.25,0.125 C 14.885446,9.285242 14.933273,9.2222529 15,9.1875 z M 9.53125,10.5 c -0.5172589,0.02554 -1.0409075,0.171005 -1.46875,0.4375 -0.509017,0.40556 -0.974047,0.89632 -1.625,1.09375 -0.050107,0.02327 -0.1051577,0.04114 -0.15625,0.0625 0.081474,0.04579 0.1726757,0.07147 0.25,0.125 0.986854,0.657902 1.423253,1.965996 0.875,3.0625 -0.959438,1.918881 -3.1726716,2.429171 -5.125,2.0625 -0.029669,-0.0068 -0.06449,-0.02338 -0.09375,-0.03125 0.219684,1.043901 0.8127874,2.022305 1.8125,2.5 0.64566,0.37111 1.407996,0.06806 2.0625,0.375 0.969385,0.44198 1.8649,1.25456 3,1.15625 0.782179,-0.11699 0.8955575,0.79785 1.28125,1.25 C 10.761108,23.01595 11.454597,22.97333 12,23 c 0.957193,-0.07531 1.506284,-0.866681 2,-1.59375 -0.328711,-0.02629 -0.606464,-0.160872 -0.875,-0.3125 -0.103432,-0.05459 -0.218164,-0.120126 -0.3125,-0.1875 -0.249611,-0.186918 -0.475872,-0.410032 -0.65625,-0.6875 C 12.047918,20.063136 11.955456,19.867701 11.875,19.6875 11.848221,19.623014 11.804661,19.567736 11.78125,19.5 11.664701,19.146502 11.607662,18.740027 11.625,18.34375 c 0.0122,-0.110133 0.03263,-0.211749 0.0625,-0.3125 0.0069,-0.02392 0.02343,-0.039 0.03125,-0.0625 0.09752,-0.287563 0.224727,-0.536142 0.4375,-0.75 0.01007,-0.01034 0.02096,-0.02113 0.03125,-0.03125 0.01103,-0.01082 0.01996,-0.02068 0.03125,-0.03125 0.01051,-0.0099 0.02052,-0.02156 0.03125,-0.03125 0.127182,-0.113772 0.252187,-0.200509 0.40625,-0.28125 0.285295,-0.183578 0.578254,-0.355919 0.90625,-0.46875 -0.652015,-0.302017 -1.450561,0.09195 -1.9375,0.59375 -0.124084,0.113682 -0.217012,0.242204 -0.3125,0.375 0.0713,-0.123313 0.130607,-0.261186 0.21875,-0.375 -0.242323,0.259257 -0.464644,0.568849 -0.59375,0.90625 -0.01963,0.115678 -0.01983,0.227954 -0.03125,0.34375 0.02709,-0.108132 0.0852,-0.209209 0.125,-0.3125 -0.06326,0.181628 -0.09337,0.341576 -0.125,0.53125 0.004,-0.07302 -0.0072,-0.145615 0,-0.21875 -0.144348,0.576084 -0.108012,1.211993 0.09375,1.8125 -0.135657,-0.438821 -0.167868,-0.892614 -0.125,-1.34375 -0.0041,0.68856 0.162948,1.361521 0.40625,1.96875 0.0087,0.0161 -0.009,0.04652 0,0.0625 -0.02031,-0.0122 -0.0646,-0.03486 -0.09375,-0.0625 -0.124318,-0.119113 -0.236852,-0.234633 -0.34375,-0.375 -0.02366,-0.02829 -0.07099,-0.03349 -0.09375,-0.0625 -0.133645,-0.212306 -0.245705,-0.458389 -0.34375,-0.6875 0.03019,0.06769 0.09139,0.121673 0.125,0.1875 -0.112005,-0.223182 -0.208085,-0.442863 -0.28125,-0.6875 -0.0096,-0.03093 -0.02234,-0.0626 -0.03125,-0.09375 -0.009,-0.03259 -0.02296,-0.06103 -0.03125,-0.09375 -0.02734,-0.104283 -0.04293,-0.206494 -0.0625,-0.3125 -0.02064,-0.11369 -0.05038,-0.228254 -0.0625,-0.34375 -0.02617,-0.259236 -0.02026,-0.522172 0,-0.78125 0.01284,-0.149995 0.03251,-0.291512 0.0625,-0.4375 0.01717,-0.08352 0.03957,-0.168036 0.0625,-0.25 -0.0084,0.02983 0.0076,0.06367 0,0.09375 0.319746,-1.010639 1.006884,-1.901327 2.0625,-2.25 0.0099,-0.0029 0.0213,0.0028 0.03125,0 0.0087,-0.0027 0.02258,0.0026 0.03125,0 0.232188,-0.07035 0.45647,-0.102487 0.6875,-0.125 0.234254,-0.0199 0.461755,-0.02427 0.6875,0 -0.171383,-0.0169 -0.360279,-0.03653 -0.53125,-0.03125 0.104149,-0.0038 0.209738,-0.03692 0.3125,-0.03125 0.142102,0.0078 0.268615,0.03751 0.40625,0.0625 C 13.751144,13.729382 13.81701,12.90847 13.28125,12.34375 12.555386,11.80676 11.752891,11.40931 11,10.90625 10.567196,10.58023 10.048509,10.474461 9.53125,10.5 z m 4.34375,3.9375 c -0.06032,-0.0086 -0.127001,0.006 -0.1875,0 0.06422,0.0069 0.124052,0.02102 0.1875,0.03125 -0.0019,-0.01023 0.0018,-0.02097 0,-0.03125 z m -2.9375,3.4375 c 0.295081,-0.988345 0.979808,-1.814534 2.125,-1.875 0.397015,-0.0243 0.779911,0.0976 1.125,0.28125 -0.09982,-0.378174 -0.164554,-0.770068 -0.21875,-1.15625 -0.653598,-0.20465 -1.344531,-0.184211 -2,0.25 -1.309697,0.895589 -1.913147,2.213459 -1.59375,3.625 0.09183,0.321585 0.227604,0.603678 0.40625,0.875 0.04469,0.0677 0.07579,0.125701 0.125,0.1875 -0.208622,-0.691575 -0.182273,-1.472325 0.03125,-2.1875 z m 2.625,-1.5 c 0.06061,0.02808 0.129832,0.05341 0.1875,0.09375 -0.245879,0.03506 -0.489368,0.13069 -0.71875,0.21875 0.33101,-0.101651 0.715404,-0.126697 1.09375,-0.0625 -0.126829,-0.123072 -0.277053,-0.210276 -0.4375,-0.28125 -0.03869,0.01236 -0.08644,0.01799 -0.125,0.03125 z m 0.125,-0.03125 c -0.171249,-0.07575 -0.34362,-0.106189 -0.53125,-0.125 0.174577,0.0093 0.355526,0.05776 0.53125,0.125 z m 6.46875,-5.78125 c -0.276109,-0.0037 -0.546011,0.10173 -0.78125,0.3125 -1.031993,0.77818 -2.035641,1.617876 -2.84375,2.625 -0.500366,0.623596 -0.219922,1.494351 0.125,2.125 0.101292,0.185201 0.291828,0.35364 0.5,0.40625 1.055445,0.266731 2.112396,-0.22619 3.0625,-0.625 1.094379,-0.45248 1.472763,-1.600113 1.6875,-2.65625 0.03692,-0.181576 0.04652,-0.376657 0.03125,-0.5625 -0.899482,0.508256 -2.556305,0.05208 -1.9375,-1.34375 0.05921,-0.106754 0.125065,-0.199774 0.1875,-0.28125 -0.0095,-3.81e-4 -0.02182,1.25e-4 -0.03125,0 z m 0.15625,0.03125 c -0.176038,0.215028 -0.263164,0.450371 -0.25,0.65625 0.06616,-0.235128 0.258663,-0.42939 0.46875,-0.59375 -0.07441,-0.02225 -0.147498,-0.05207 -0.21875,-0.0625 z m 0.34375,0.09375 c -0.04547,0.03621 -0.08862,0.08851 -0.125,0.125 -0.0088,0.0093 -0.02302,0.02203 -0.03125,0.03125 -0.0057,0.0064 0.0056,0.02484 0,0.03125 -0.724685,0.856581 0.883735,1.412802 1.3125,0.8125 -0.135933,-0.354939 -0.375649,-0.666706 -0.75,-0.84375 -0.148769,-0.07036 -0.275726,-0.109002 -0.40625,-0.15625 z M 20.5,10.875 c -0.183473,0.209282 -0.357626,0.416267 -0.375,0.65625 -0.03528,-0.08066 -0.05327,-0.162021 -0.0625,-0.25 -0.04042,0.162959 -0.01335,0.348183 0.0625,0.5 -0.01854,-0.06407 -0.0024,-0.148572 0,-0.21875 0.180551,0.384336 0.630196,0.661081 1.0625,0.65625 0.04935,-0.01151 0.111392,-0.01478 0.15625,-0.03125 0.0097,-0.0019 0.0218,0.002 0.03125,0 0.201643,-0.07967 0.328636,-0.252412 0.4375,-0.40625 C 21.202156,12.502834 19.780942,11.692985 20.5,10.875 z m 1.375,1 c -0.117446,0.141285 -0.255177,0.23372 -0.40625,0.28125 0.163783,-0.04921 0.313063,-0.0927 0.40625,-0.1875 -0.0063,-0.03045 0.0078,-0.06371 0,-0.09375 z M 6.15625,12.15625 C 6.1078845,12.174938 6.0489826,12.17001 6,12.1875 c 0.1479185,0.07323 0.2789819,0.143944 0.40625,0.25 1.1796167,0.857904 1.3153836,2.346765 0.5,3.4375 0.5345462,-0.657902 0.828953,-1.439134 0.5,-2.34375 -0.2371714,-0.616649 -0.7089489,-1.063386 -1.25,-1.375 z m 14.5,0.03125 c 0.04293,0.01704 0.0767,0.04758 0.125,0.0625 0.08611,0.0053 0.141643,0.0068 0.21875,0 -0.130923,-0.003 -0.245209,-0.03873 -0.34375,-0.0625 z M 5.84375,12.25 c -0.6856044,0.228189 -1.401341,0.38618 -2,0.78125 -0.891419,0.75202 -1.589626,1.80169 -1.75,2.96875 -0.042204,0.333897 -0.015326,0.68857 0.03125,1.03125 0.6183909,0.172436 1.2491706,0.227797 1.96875,0.125 1.644757,-0.328951 3.094302,-1.651844 2.875,-3.40625 0.219302,0.657903 0.219852,1.420498 -0.21875,1.96875 -0.4071923,0.532477 -0.9253456,0.904732 -1.5,1.15625 0.363382,-0.132764 0.7313181,-0.272311 1.0625,-0.5 0.877205,-0.657902 1.188052,-1.638147 0.96875,-2.625 -0.2344241,-0.644668 -0.7775,-1.193955 -1.4375,-1.5 z m 6.71875,4 c -0.193158,0.04014 -0.377266,0.109439 -0.53125,0.21875 -0.115753,0.09479 -0.213581,0.204927 -0.3125,0.3125 0.309178,-0.271223 0.681172,-0.461711 1.0625,-0.53125 -0.07312,0.0063 -0.147783,-0.01475 -0.21875,0 z M 2.125,17.09375 c 0.00312,0.02063 -0.00344,0.0419 0,0.0625 0.1910706,0.04121 0.3998383,0.07121 0.59375,0.09375 0.1584596,0.01848 0.3093798,-0.0054 0.46875,0 C 2.836173,17.233616 2.4648991,17.17634 2.125,17.09375 z m 3.09375,0 c -0.4064689,0.142224 -0.8422286,0.226459 -1.28125,0.25 0.4445106,-0.02827 0.8598635,-0.09227 1.28125,-0.25 z m 8.1875,0.0625 c 0.378604,0.0047 0.681285,0.140138 0.9375,0.34375 -0.104317,-0.06684 -0.238814,-0.135386 -0.375,-0.1875 -1.12464,-0.430351 -2.212791,0.98536 -1.5625,2.09375 -0.05786,-0.129578 0.151611,-0.370418 0.09375,-0.5 0.240986,0.844319 0.735533,1.464203 1.53125,1.71875 -0.345261,-0.05264 -0.697881,-0.156007 -1.03125,-0.25 -0.129731,-0.0295 -0.24581,-0.07594 -0.34375,-0.15625 0.173477,0.20437 0.371124,0.390887 0.65625,0.5 -0.05786,-0.129577 -0.06716,-0.120413 -0.125,-0.25 0.394841,0.231674 0.835118,0.297733 1.25,0.25 0.0073,-0.01254 0.02412,-0.01863 0.03125,-0.03125 -0.03071,5.74e-4 -0.06234,0.0014 -0.09375,0 -0.04641,-0.0079 -0.08029,-0.02132 -0.125,-0.03125 0.0736,0.0067 0.146453,-6.27e-4 0.21875,0 0.167867,-0.301569 0.280119,-0.603331 0.34375,-0.9375 -0.02291,0.0073 -0.03814,0.02491 -0.0625,0.03125 0.0472,-0.181212 0.0975,-0.368593 0.125,-0.5625 -0.0062,-0.135685 0.0024,-0.268761 -0.03125,-0.40625 -0.07085,-0.39529 -0.172322,-0.799069 -0.28125,-1.1875 -0.128511,-0.134778 -0.282286,-0.24759 -0.46875,-0.34375 -0.2343,-0.08966 -0.473417,-0.109199 -0.6875,-0.09375 z m -11.25,0.03125 c 0.00183,0.01037 -0.00191,0.02089 0,0.03125 0.1427398,0.02938 0.2932365,0.04075 0.4375,0.0625 -0.1496975,-0.02143 -0.2887212,-0.06484 -0.4375,-0.09375 z m 10.0625,0.90625 c -0.0791,0.173246 -0.148226,0.347844 -0.15625,0.53125 0.0056,0.141219 0.03752,0.28762 0.0625,0.4375 -0.02264,-0.208442 -0.02487,-0.419629 0,-0.625 0.0214,-0.126115 0.05139,-0.234515 0.09375,-0.34375 z m 1.65625,3.25 c 0.05253,0.0092 0.1024,0.02508 0.15625,0.03125 0.0047,-0.007 -0.0047,-0.02431 0,-0.03125 -0.0541,-0.006 -0.102107,0.0096 -0.15625,0 z"
     id="path2463"
     style="fill:#ffffff;fill-opacity:1;stroke:none" />
</svg>
