<?xml version="1.0" encoding="UTF-8" standalone="no"?>
<!-- Created with Inkscape (http://www.inkscape.org/) -->

<svg
   xmlns:dc="http://purl.org/dc/elements/1.1/"
   xmlns:cc="http://creativecommons.org/ns#"
   xmlns:rdf="http://www.w3.org/1999/02/22-rdf-syntax-ns#"
   xmlns:svg="http://www.w3.org/2000/svg"
   xmlns="http://www.w3.org/2000/svg"
   xmlns:xlink="http://www.w3.org/1999/xlink"
   xmlns:sodipodi="http://sodipodi.sourceforge.net/DTD/sodipodi-0.dtd"
   xmlns:inkscape="http://www.inkscape.org/namespaces/inkscape"
   version="1.0"
   width="32"
   height="32"
   id="svg2"
   inkscape:version="0.47pre4 r22446"
   sodipodi:docname="applications-internet.svg">
  <sodipodi:namedview
     pagecolor="#ffffff"
     bordercolor="#666666"
     borderopacity="1"
     objecttolerance="10"
     gridtolerance="10"
     guidetolerance="10"
     inkscape:pageopacity="0"
     inkscape:pageshadow="2"
     inkscape:window-width="659"
     inkscape:window-height="489"
     id="namedview48"
     showgrid="false"
     inkscape:zoom="7.375"
     inkscape:cx="16"
     inkscape:cy="16"
     inkscape:window-x="213"
     inkscape:window-y="134"
     inkscape:window-maximized="0"
     inkscape:current-layer="svg2" />
  <metadata
     id="metadata50">
    <rdf:RDF>
      <cc:Work
         rdf:about="">
        <dc:format>image/svg+xml</dc:format>
        <dc:type
           rdf:resource="http://purl.org/dc/dcmitype/StillImage" />
      </cc:Work>
    </rdf:RDF>
  </metadata>
  <defs
     id="defs4">
    <inkscape:perspective
       id="perspective52"
       inkscape:persp3d-origin="16 : 10.666667 : 1"
       inkscape:vp_z="32 : 16 : 1"
       inkscape:vp_y="0 : 1000 : 0"
       inkscape:vp_x="0 : 16 : 1"
       sodipodi:type="inkscape:persp3d" />
    <linearGradient
       id="linearGradient6493">
      <stop
         offset="0"
         style="stop-color:#cd5132;stop-opacity:1"
         id="stop6495" />
      <stop
         offset="1"
         style="stop-color:#bb2b11;stop-opacity:1"
         id="stop6497" />
    </linearGradient>
    <linearGradient
       id="linearGradient4103">
      <stop
         offset="0"
         style="stop-color:#edab62;stop-opacity:1"
         id="stop4105" />
      <stop
         offset="1"
         style="stop-color:#e04922;stop-opacity:1"
         id="stop4107" />
    </linearGradient>
    <linearGradient
       id="linearGradient8918">
      <stop
         offset="0"
         style="stop-color:#da4c12;stop-opacity:1"
         id="stop8920" />
      <stop
         offset="1"
         style="stop-color:#c52c11;stop-opacity:1"
         id="stop8922" />
    </linearGradient>
    <linearGradient
       id="linearGradient3156">
      <stop
         offset="0"
         style="stop-color:#ffffff;stop-opacity:1"
         id="stop3158" />
      <stop
         offset="1"
         style="stop-color:#ffffff;stop-opacity:0"
         id="stop3160" />
    </linearGradient>
    <linearGradient
       id="linearGradient8838">
      <stop
         offset="0"
         style="stop-color:#000000;stop-opacity:1"
         id="stop8840" />
      <stop
         offset="1"
         style="stop-color:#000000;stop-opacity:0"
         id="stop8842" />
    </linearGradient>
    <radialGradient
       gradientTransform="matrix(1,0,0,0.341176,0,3.047059)"
       gradientUnits="userSpaceOnUse"
       xlink:href="#linearGradient8838"
       id="radialGradient6203"
       fy="4.625"
       fx="62.625"
       r="10.625"
       cy="4.625"
       cx="62.625" />
    <linearGradient
       gradientUnits="userSpaceOnUse"
       xlink:href="#linearGradient3156"
       id="linearGradient6223"
       y2="20.663898"
       x2="28.290144"
       y1="61.852856"
       x1="24.335312" />
    <linearGradient
       gradientUnits="userSpaceOnUse"
       xlink:href="#linearGradient3156"
       id="linearGradient6225"
       y2="20.663898"
       x2="28.290144"
       y1="-0.81503254"
       x1="27.888655" />
    <linearGradient
       gradientUnits="userSpaceOnUse"
       xlink:href="#linearGradient3156"
       id="linearGradient6227"
       y2="20.663898"
       x2="28.290144"
       y1="-2.3103411"
       x1="28.220636" />
    <linearGradient
       gradientUnits="userSpaceOnUse"
       xlink:href="#linearGradient3156"
       id="linearGradient6229"
       y2="24.653727"
       x2="29.724815"
       y1="55.647495"
       x1="30.501778" />
    <radialGradient
       gradientTransform="matrix(1.116976,-0.0292278,0.0177748,0.7712933,-11.972445,0.0557831)"
       gradientUnits="userSpaceOnUse"
       xlink:href="#linearGradient3156"
       id="radialGradient5550"
       fy="3.6816926"
       fx="21.799723"
       r="14"
       cy="10.143162"
       cx="21.799723" />
    <radialGradient
       gradientTransform="matrix(1.3261278,-0.02467039,0.01359826,0.7309583,-80.670243,-12.369156)"
       gradientUnits="userSpaceOnUse"
       xlink:href="#linearGradient3156"
       id="radialGradient5553"
       fy="25.94566"
       fx="68.431534"
       r="13"
       cy="25.94566"
       cx="68.431534" />
    <radialGradient
       gradientTransform="matrix(1.1062488,-0.00370368,0.00296292,0.8985308,-9.1961877,-3.0977531)"
       gradientUnits="userSpaceOnUse"
       xlink:href="#linearGradient4103"
       id="radialGradient5563"
       fy="12.904163"
       fx="19.125704"
       r="22.463524"
       cy="12.904163"
       cx="19.125704" />
    <linearGradient
       gradientTransform="translate(-57.999999,-21.005661)"
       gradientUnits="userSpaceOnUse"
       xlink:href="#linearGradient6493"
       id="linearGradient5565"
       y2="51.096096"
       x2="74"
       y1="37.04805"
       x1="74" />
    <radialGradient
       gradientTransform="matrix(1.5860662,0.02799327,-0.03221511,1.825271,-9.1819544,-10.697243)"
       gradientUnits="userSpaceOnUse"
       xlink:href="#linearGradient8918"
       id="radialGradient6347"
       fy="11.715397"
       fx="16.311071"
       r="9.7989264"
       cy="11.715397"
       cx="16.311071" />
    <radialGradient
       gradientTransform="matrix(1,0,0,0.341176,0,3.047059)"
       gradientUnits="userSpaceOnUse"
       xlink:href="#linearGradient8838-802"
       id="radialGradient6203-674"
       fy="4.625"
       fx="62.625"
       r="10.625"
       cy="4.625"
       cx="62.625" />
    <linearGradient
       id="linearGradient8838-802">
      <stop
         offset="0"
         style="stop-color:#000000;stop-opacity:1"
         id="stop2890" />
      <stop
         offset="1"
         style="stop-color:#000000;stop-opacity:0"
         id="stop2892" />
    </linearGradient>
    <radialGradient
       gradientTransform="matrix(1.1062488,-0.00370368,0.00296292,0.8985308,-9.1961877,-3.0977531)"
       gradientUnits="userSpaceOnUse"
       xlink:href="#linearGradient4103-788"
       id="radialGradient5563-895"
       fy="12.904163"
       fx="19.125704"
       r="22.463524"
       cy="12.904163"
       cx="19.125704" />
    <linearGradient
       id="linearGradient4103-788">
      <stop
         offset="0"
         style="stop-color:#ed8161;stop-opacity:1"
         id="stop2896" />
      <stop
         offset="1"
         style="stop-color:#e02133;stop-opacity:1"
         id="stop2898" />
    </linearGradient>
    <linearGradient
       gradientTransform="translate(-57.999999,-21.005661)"
       gradientUnits="userSpaceOnUse"
       xlink:href="#linearGradient6493-874"
       id="linearGradient5565-313"
       y2="51.096096"
       x2="74"
       y1="37.04805"
       x1="74" />
    <linearGradient
       id="linearGradient6493-874">
      <stop
         offset="0"
         style="stop-color:#cd3141;stop-opacity:1"
         id="stop2902" />
      <stop
         offset="1"
         style="stop-color:#bb102a;stop-opacity:1"
         id="stop2904" />
    </linearGradient>
    <radialGradient
       gradientTransform="matrix(1.5860662,0.02799327,-0.03221511,1.825271,-9.1819544,-10.697243)"
       gradientUnits="userSpaceOnUse"
       xlink:href="#linearGradient8918-172"
       id="radialGradient6347-116"
       fy="11.715397"
       fx="16.311071"
       r="9.7989264"
       cy="11.715397"
       cx="16.311071" />
    <linearGradient
       id="linearGradient8918-172">
      <stop
         offset="0"
         style="stop-color:#da1113;stop-opacity:1"
         id="stop2908" />
      <stop
         offset="1"
         style="stop-color:#c5102c;stop-opacity:1"
         id="stop2910" />
    </linearGradient>
    <radialGradient
       gradientTransform="matrix(1.3261278,-0.02467039,0.01359826,0.7309583,-80.670243,-12.369156)"
       gradientUnits="userSpaceOnUse"
       xlink:href="#linearGradient3156-132"
       id="radialGradient5553-452"
       fy="25.94566"
       fx="68.431534"
       r="13"
       cy="25.94566"
       cx="68.431534" />
    <linearGradient
       id="linearGradient3156-132">
      <stop
         offset="0"
         style="stop-color:#ffffff;stop-opacity:1"
         id="stop2914" />
      <stop
         offset="1"
         style="stop-color:#ffffff;stop-opacity:0"
         id="stop2916" />
    </linearGradient>
    <radialGradient
       gradientTransform="matrix(1.116976,-0.0292278,0.0177748,0.7712933,-11.972445,0.0557831)"
       gradientUnits="userSpaceOnUse"
       xlink:href="#linearGradient3156-233"
       id="radialGradient5550-851"
       fy="3.6816926"
       fx="21.799723"
       r="14"
       cy="10.143162"
       cx="21.799723" />
    <linearGradient
       id="linearGradient3156-233">
      <stop
         offset="0"
         style="stop-color:#ffffff;stop-opacity:1"
         id="stop2920" />
      <stop
         offset="1"
         style="stop-color:#ffffff;stop-opacity:0"
         id="stop2922" />
    </linearGradient>
    <linearGradient
       gradientUnits="userSpaceOnUse"
       xlink:href="#linearGradient3156-310"
       id="linearGradient6223-501"
       y2="20.663898"
       x2="28.290144"
       y1="61.852856"
       x1="24.335312" />
    <linearGradient
       id="linearGradient3156-310">
      <stop
         offset="0"
         style="stop-color:#ffffff;stop-opacity:1"
         id="stop2926" />
      <stop
         offset="1"
         style="stop-color:#ffffff;stop-opacity:0"
         id="stop2928" />
    </linearGradient>
    <linearGradient
       gradientUnits="userSpaceOnUse"
       xlink:href="#linearGradient3156-143"
       id="linearGradient6225-251"
       y2="20.663898"
       x2="28.290144"
       y1="-0.81503254"
       x1="27.888655" />
    <linearGradient
       id="linearGradient3156-143">
      <stop
         offset="0"
         style="stop-color:#ffffff;stop-opacity:1"
         id="stop2932" />
      <stop
         offset="1"
         style="stop-color:#ffffff;stop-opacity:0"
         id="stop2934" />
    </linearGradient>
    <linearGradient
       gradientUnits="userSpaceOnUse"
       xlink:href="#linearGradient3156-513"
       id="linearGradient6227-910"
       y2="20.663898"
       x2="28.290144"
       y1="-2.3103411"
       x1="28.220636" />
    <linearGradient
       id="linearGradient3156-513">
      <stop
         offset="0"
         style="stop-color:#ffffff;stop-opacity:1"
         id="stop2938" />
      <stop
         offset="1"
         style="stop-color:#ffffff;stop-opacity:0"
         id="stop2940" />
    </linearGradient>
    <linearGradient
       gradientUnits="userSpaceOnUse"
       xlink:href="#linearGradient3156-432"
       id="linearGradient6229-223"
       y2="24.653727"
       x2="29.724815"
       y1="55.647495"
       x1="30.501778" />
    <linearGradient
       id="linearGradient3156-432">
      <stop
         offset="0"
         style="stop-color:#ffffff;stop-opacity:1"
         id="stop2944" />
      <stop
         offset="1"
         style="stop-color:#ffffff;stop-opacity:0"
         id="stop2946" />
    </linearGradient>
  </defs>
  <g
     id="layer1">
    <g
       id="g6349">
      <path
         style="opacity:0.56043958;fill:url(#radialGradient6203-674);fill-opacity:1;fill-rule:evenodd;stroke:none;stroke-width:1.06081843;marker:none;visibility:visible;display:inline;overflow:visible;enable-background:new"
         id="path6401"
         transform="matrix(1.0352942,0,0,0.9938842,-48.835298,23.000455)"
         d="m 73.25,4.625 c 0,2.0020323 -4.756974,3.6250001 -10.625,3.6250001 C 56.756974,8.2500001 52,6.6270323 52,4.625 52,2.6229677 56.756974,0.99999989 62.625,0.99999989 c 5.868026,0 10.625,1.62296781 10.625,3.62500011 l 0,0 z" />
      <path
         style="fill:url(#radialGradient5563-895);fill-opacity:1;stroke:url(#linearGradient5565-313);stroke-width:0.99742079;stroke-linecap:round;stroke-linejoin:round;stroke-miterlimit:4;stroke-opacity:1;stroke-dasharray:none;stroke-dashoffset:0"
         id="path6453"
         d="m 29.501291,16.042388 c 0,7.479236 -6.048578,13.549337 -13.50129,13.549337 -7.4527126,0 -13.5012906,-6.070101 -13.5012906,-13.549337 0,-7.4792349 6.048578,-13.5493379 13.5012906,-13.5493379 7.452712,0 13.50129,6.070103 13.50129,13.5493379 z" />
      <path
         style="fill:url(#radialGradient6347-116);fill-opacity:1;fill-rule:nonzero;stroke:none"
         id="path6457"
         d="m 28.509111,12.979626 -0.121451,0.457987 c -0.359407,-0.292067 -0.762932,-0.537682 -1.172699,-0.794205 l -0.899485,0.09127 -0.821794,-0.640603 0,0.792795 0.704072,0.367384 0.468628,0.365974 0.626272,-0.488411 c 0.157643,0.203616 0.313135,0.407232 0.469703,0.610847 l 0,0.61018 -0.705147,0.549257 -1.290421,0.610847 -0.977286,0.67251 -0.626271,-0.489894 0.313135,-0.549258 -0.625302,-0.48841 -1.056054,-1.556576 -0.899485,-0.70145 -0.235444,0.182616 0.353058,0.88555 0.664149,0.518834 c 0.379314,0.755099 0.75454,1.476806 1.252652,2.198588 0.772401,0 1.500577,-0.05654 2.267705,-0.123178 l 0,0.427563 -0.938438,1.587371 -0.86064,0.671027 -0.704072,1.039151 c 0,0.56959 0,1.13918 0,1.708696 l 0.235445,0.67251 -0.390936,0.304384 -0.861716,0.366642 -0.899485,0.518834 0.743994,0.579755 -1.017207,0.61159 0.195414,0.395656 -1.525865,1.191344 -1.016131,0 -0.86064,0.366642 -0.548579,0 0,-0.488411 -0.233292,-0.978305 c -0.302698,-0.613073 -0.617877,-1.221768 -0.938439,-1.830463 0,-0.449305 0.03885,-0.894232 0.0778,-1.343463 l 0.392013,-0.610179 -0.54858,-0.733358 0.03992,-1.007244 -0.743994,-0.579755 0.371997,-0.839173 -0.605289,-0.47357 -1.057129,0 -0.351982,-0.274628 -1.056054,0.458357 -0.42978,-0.336589 -0.978362,0.580053 C 11.023472,17.527512 10.358246,17.008678 9.6931291,16.489844 L 8.9112582,15.207229 9.6153295,14.475355 9.2243941,14.170303 10.083957,12.765176 c 0.706223,-0.6058 1.443868,-1.186966 2.190013,-1.770283 l 1.330343,-0.244205 1.485943,-0.121769 1.017208,0.183358 1.446989,1.006502 0.508656,-0.396397 0.702995,-0.06085 1.330343,0.305052 1.017208,0 0.704072,-0.427563 0.313136,-0.305053 -0.705149,-0.305052 -1.173774,-0.06085 C 19.926214,10.256489 19.623516,9.9289526 19.236777,9.6520982 l -0.392012,0.1217681 -0.156568,0.7942047 -0.704071,-0.549257 -0.155492,-0.6115894 -0.781871,-0.4260787 -0.314212,0 0.782839,0.6101786 -0.313135,0.5492575 -0.625303,0.121769 L 16.967888,9.7130934 16.262739,9.46963 15.638513,8.9812202 14.463661,9.1638355 14.30817,9.4072989 l -0.704071,0.3057945 -0.390936,0.6717686 -0.977286,0.335476 -0.430856,-0.335476 -0.468629,0 0,-1.0992576 1.017207,-0.3666417 0.781871,0 -0.157643,-0.4268207 -0.624228,-0.4275633 1.055086,-0.1529348 0.586349,-0.4572447 0.468627,-0.5499998 0.861716,0 -0.235444,-0.4268206 0.54858,-0.2442053 0,0.4884098 1.172698,0.1826161 1.1727,-0.6710259 0.07877,-0.3057945 1.016131,-0.4880396 c -0.3678,0.031537 -0.7356,0.054688 -1.095007,0.1221398 l 0,-0.5499254 0.390936,-0.6105505 -0.390936,0 -0.859132,0.5492579 -0.235444,0.3054235 0.235444,0.4279343 -0.392012,0.7318732 -0.625303,-0.2442053 -0.546428,-0.4268206 -0.861715,0.4268206 -0.313136,-0.9764494 1.485943,-0.6713977 0,-0.3666421 0.939407,-0.4271921 1.485942,-0.2445762 1.017207,0.2445762 1.408143,0.6101795 -1.017207,0 1.017207,0.7326159 0.781872,-0.6101795 c 0,0 3.111202,1.5274822 4.718109,3.6399512 1.563553,2.0554753 2.218043,4.3917373 2.286411,4.8772533 z" />
      <path
         style="opacity:0.7;fill:none;stroke:url(#radialGradient5553-452);stroke-width:0.99112916;stroke-linecap:round;stroke-linejoin:round;stroke-miterlimit:4;stroke-opacity:1;stroke-dasharray:none;stroke-dashoffset:0"
         id="path6461"
         d="m 28.504436,15.956349 c 0,6.923416 -5.601987,12.542426 -12.504433,12.542426 -6.9024506,0 -12.5044386,-5.61901 -12.5044386,-12.542426 0,-6.9234229 5.601988,-12.5424269 12.5044386,-12.5424269 6.902446,0 12.504433,5.619004 12.504433,12.5424269 z" />
      <path
         style="opacity:0.5;fill:url(#radialGradient5550-851);fill-opacity:1;stroke:none"
         id="path6463"
         d="m 28.200001,11.720289 c 0,4.692002 -5.465599,7.27405 -12.199998,7.27405 -6.7344046,0 -12.2000026,-2.582048 -12.2000026,-7.27405 0,-4.6920029 5.465598,-9.7259499 12.2000026,-9.7259499 6.734399,0 12.199998,5.033947 12.199998,9.7259499 z" />
      <path
         style="opacity:0.5;fill:none;stroke:url(#linearGradient6223-501);stroke-width:1.6632086;stroke-linecap:round;stroke-linejoin:miter;stroke-miterlimit:4;stroke-opacity:1;stroke-dasharray:none;stroke-dashoffset:0"
         id="path6465"
         transform="matrix(0.7027849,-0.1941872,0.1275187,0.4762017,-7.1216974,10.480778)"
         d="m 46,24.25 c 0,9.664983 -7.835017,17.5 -17.5,17.5 -9.664983,0 -17.5,-7.835017 -17.5,-17.5 0,-9.664983 7.835017,-17.5 17.5,-17.5 9.664983,0 17.5,7.835017 17.5,17.5 l 0,0 z" />
      <path
         style="opacity:0.5;fill:none;stroke:url(#linearGradient6225-251);stroke-width:1.65567493;stroke-linecap:round;stroke-linejoin:miter;stroke-miterlimit:4;stroke-opacity:1;stroke-dasharray:none;stroke-dashoffset:0"
         id="path6467"
         transform="matrix(0.7157545,-0.00419182,7.1472984e-4,0.4585926,-4.4163366,3.4929371)"
         d="m 46,24.25 c 0,9.664983 -7.835017,17.5 -17.5,17.5 -9.664983,0 -17.5,-7.835017 -17.5,-17.5 0,-9.664983 7.835017,-17.5 17.5,-17.5 9.664983,0 17.5,7.835017 17.5,17.5 l 0,0 z" />
      <path
         style="opacity:0.5;fill:none;stroke:url(#linearGradient6227-910);stroke-width:1.71431875;stroke-linecap:round;stroke-linejoin:miter;stroke-miterlimit:4;stroke-opacity:1;stroke-dasharray:none;stroke-dashoffset:0"
         id="path6469"
         transform="matrix(-0.06483908,-0.7151932,0.4530933,-0.02553993,5.3604014,36.983503)"
         d="m 46,24.25 c 0,9.664983 -7.835017,17.5 -17.5,17.5 -9.664983,0 -17.5,-7.835017 -17.5,-17.5 0,-9.664983 7.835017,-17.5 17.5,-17.5 9.664983,0 17.5,7.835017 17.5,17.5 l 0,0 z" />
      <path
         style="opacity:0.5;fill:none;stroke:url(#linearGradient6229-223);stroke-width:2.07606649;stroke-linecap:round;stroke-linejoin:miter;stroke-miterlimit:4;stroke-opacity:1;stroke-dasharray:none;stroke-dashoffset:0"
         id="path6471"
         transform="matrix(-0.1055021,-0.7248218,0.3200695,0.01111687,11.335116,36.385898)"
         d="m 46,24.25 c 0,9.664983 -7.835017,17.5 -17.5,17.5 -9.664983,0 -17.5,-7.835017 -17.5,-17.5 0,-9.664983 7.835017,-17.5 17.5,-17.5 9.664983,0 17.5,7.835017 17.5,17.5 l 0,0 z" />
      <g
         style="opacity:0.4;stroke-width:1.59137869;stroke-miterlimit:4;stroke-dasharray:none"
         id="g6473"
         transform="matrix(0.6431591,-0.1749478,0.1749474,0.6431588,-3.5337216,4.0368461)">
        <path
           style="opacity:0.5;fill:#ffffff;fill-opacity:1;stroke:none"
           id="path6475"
           transform="matrix(0.857144,0,0,0.857144,4.107111,5.035669)"
           d="m 31.375,37.875 c 0,0.966498 -0.783502,1.75 -1.75,1.75 -0.966498,0 -1.75,-0.783502 -1.75,-1.75 0,-0.966498 0.783502,-1.75 1.75,-1.75 0.966498,0 1.75,0.783502 1.75,1.75 l 0,0 z" />
      </g>
      <g
         style="opacity:0.4;stroke-width:1.7188853;stroke-miterlimit:4;stroke-dasharray:none"
         id="g6477"
         transform="matrix(0.6353013,-0.1513474,0.2016116,0.6491296,-16.301823,5.1167291)">
        <path
           style="opacity:0.5;fill:#ffffff;fill-opacity:1;stroke:none"
           id="path6479"
           transform="matrix(0.857144,0,0,0.857144,4.107111,5.035669)"
           d="m 31.375,37.875 c 0,0.966498 -0.783502,1.75 -1.75,1.75 -0.966498,0 -1.75,-0.783502 -1.75,-1.75 0,-0.966498 0.783502,-1.75 1.75,-1.75 0.966498,0 1.75,0.783502 1.75,1.75 l 0,0 z" />
      </g>
      <g
         style="opacity:0.4;stroke-width:1.71888483;stroke-miterlimit:4;stroke-dasharray:none"
         id="g6481"
         transform="matrix(0.616348,-0.2125241,0.2537658,0.6317358,-9.6984844,-11.426288)">
        <path
           style="opacity:0.5;fill:#ffffff;fill-opacity:1;stroke:none"
           id="path6483"
           transform="matrix(0.857144,0,0,0.857144,4.107111,5.035669)"
           d="m 31.375,37.875 c 0,0.966498 -0.783502,1.75 -1.75,1.75 -0.966498,0 -1.75,-0.783502 -1.75,-1.75 0,-0.966498 0.783502,-1.75 1.75,-1.75 0.966498,0 1.75,0.783502 1.75,1.75 l 0,0 z" />
      </g>
      <g
         style="opacity:0.4;stroke-width:1.71888459;stroke-miterlimit:4;stroke-dasharray:none"
         id="g6485"
         transform="matrix(0.6665696,-0.1880147,-0.01122815,0.639458,-11.242747,-10.438902)">
        <path
           style="opacity:0.5;fill:#ffffff;fill-opacity:1;stroke:none"
           id="path6487"
           transform="matrix(0.857144,0,0,0.857144,4.107111,5.035669)"
           d="m 31.375,37.875 c 0,0.966498 -0.783502,1.75 -1.75,1.75 -0.966498,0 -1.75,-0.783502 -1.75,-1.75 0,-0.966498 0.783502,-1.75 1.75,-1.75 0.966498,0 1.75,0.783502 1.75,1.75 l 0,0 z" />
      </g>
    </g>
  </g>
</svg>
