<?xml version="1.0" encoding="UTF-8" standalone="no"?>
<!-- Created with Inkscape (http://www.inkscape.org/) -->

<svg
   xmlns:dc="http://purl.org/dc/elements/1.1/"
   xmlns:cc="http://creativecommons.org/ns#"
   xmlns:rdf="http://www.w3.org/1999/02/22-rdf-syntax-ns#"
   xmlns:svg="http://www.w3.org/2000/svg"
   xmlns="http://www.w3.org/2000/svg"
   xmlns:xlink="http://www.w3.org/1999/xlink"
   xmlns:sodipodi="http://sodipodi.sourceforge.net/DTD/sodipodi-0.dtd"
   xmlns:inkscape="http://www.inkscape.org/namespaces/inkscape"
   width="1024"
   height="768"
   id="svg2"
   version="1.1"
   inkscape:version="0.47 r22583"
   sodipodi:docname="boot2.svg">
  <defs
     id="defs4">
    <inkscape:perspective
       sodipodi:type="inkscape:persp3d"
       inkscape:vp_x="0 : 526.18109 : 1"
       inkscape:vp_y="0 : 1000 : 0"
       inkscape:vp_z="744.09448 : 526.18109 : 1"
       inkscape:persp3d-origin="372.04724 : 350.78739 : 1"
       id="perspective10" />
    <inkscape:perspective
       id="perspective10-4"
       inkscape:persp3d-origin="399.57904 : 294.90845 : 1"
       inkscape:vp_z="799.15808 : 442.36267 : 1"
       inkscape:vp_y="0 : 1000 : 0"
       inkscape:vp_x="0 : 442.36267 : 1"
       sodipodi:type="inkscape:persp3d" />
    <inkscape:perspective
       id="perspective2832"
       inkscape:persp3d-origin="0.5 : 0.33333333 : 1"
       inkscape:vp_z="1 : 0.5 : 1"
       inkscape:vp_y="0 : 1000 : 0"
       inkscape:vp_x="0 : 0.5 : 1"
       sodipodi:type="inkscape:persp3d" />
    <inkscape:perspective
       id="perspective10-5"
       inkscape:persp3d-origin="399.57904 : 294.90845 : 1"
       inkscape:vp_z="799.15808 : 442.36267 : 1"
       inkscape:vp_y="0 : 1000 : 0"
       inkscape:vp_x="0 : 442.36267 : 1"
       sodipodi:type="inkscape:persp3d" />
    <inkscape:perspective
       id="perspective3626"
       inkscape:persp3d-origin="0.5 : 0.33333333 : 1"
       inkscape:vp_z="1 : 0.5 : 1"
       inkscape:vp_y="0 : 1000 : 0"
       inkscape:vp_x="0 : 0.5 : 1"
       sodipodi:type="inkscape:persp3d" />
    <inkscape:perspective
       id="perspective3648"
       inkscape:persp3d-origin="0.5 : 0.33333333 : 1"
       inkscape:vp_z="1 : 0.5 : 1"
       inkscape:vp_y="0 : 1000 : 0"
       inkscape:vp_x="0 : 0.5 : 1"
       sodipodi:type="inkscape:persp3d" />
  </defs>
  <sodipodi:namedview
     id="base"
     pagecolor="#ffffff"
     bordercolor="#666666"
     borderopacity="1.0"
     inkscape:pageopacity="0.0"
     inkscape:pageshadow="2"
     inkscape:zoom="1"
     inkscape:cx="493.38601"
     inkscape:cy="405.90417"
     inkscape:document-units="px"
     inkscape:current-layer="layer1"
     showgrid="false"
     inkscape:window-width="1280"
     inkscape:window-height="947"
     inkscape:window-x="0"
     inkscape:window-y="24"
     inkscape:window-maximized="1" />
  <metadata
     id="metadata7">
    <rdf:RDF>
      <cc:Work
         rdf:about="">
        <dc:format>image/svg+xml</dc:format>
        <dc:type
           rdf:resource="http://purl.org/dc/dcmitype/StillImage" />
        <dc:title></dc:title>
      </cc:Work>
    </rdf:RDF>
  </metadata>
  <g
     inkscape:label="Layer 1"
     inkscape:groupmode="layer"
     id="layer1"
     transform="translate(164.12872,-167.83159)">
    <image
       y="167.83159"
       x="-164.12872"
       id="image2834"
       height="768"
       width="1024"
       xlink:href="file:///home/serioga/Buffer/boot2.1.png" />
    <path
       sodipodi:nodetypes="ccscccccccccccccscssssscssccsscscccsssssssssccsssccsc"
       style="opacity:0.5;fill:#000000;fill-opacity:1"
       id="path2463"
       d="m 548.13475,555.93111 c -1.04086,-0.58177 -1.9093,-2.21808 -3.29932,-1.45264 -2.06703,0.97633 -4.31122,0.0525 -6.44315,-0.10324 -1.44537,-0.12115 -2.67214,0.9881 -4.14556,0.74016 -3.14063,-0.28619 -5.56841,-3.02073 -6.23699,-5.88714 -0.51196,-2.3075 0.10612,-4.75727 1.25892,-6.7936 1.09824,-1.4981 2.85809,-2.36976 4.16096,-3.68399 1.08705,-0.82529 1.62032,-2.0401 2.29523,-3.158 1.23826,-1.59934 3.39899,-2.74601 5.48215,-2.12273 1.76721,0.42153 3.59921,0.61403 5.33923,1.11825 1.48308,0.72892 1.83168,2.46929 2.647,3.74049 1.13351,2.67019 3.25094,4.76456 4.71204,7.24545 0.97792,1.44559 0.90144,3.23011 0.47259,4.83454 -0.4758,1.87582 -0.87232,4.18934 -2.87041,5.11395 -1.04475,0.33 -2.29311,0.91184 -3.37268,0.40853 z m 7.00125,-17.50086 c -1.08861,-0.94601 -2.18588,-2.43841 -1.67928,-3.96049 0.8182,-2.45819 2.11099,-4.74472 3.51002,-6.92827 0.59126,-1.12109 1.62054,-1.36951 3.14687,-1.23654 1.61058,0.14028 2.66877,1.56839 2.89732,3.03782 0.33233,2.13672 0.42751,4.56021 -1.31597,6.1745 -1.50946,1.41272 -3.17569,3.05371 -5.34734,3.28774 -0.42833,0.0462 -0.89194,-0.0969 -1.21162,-0.3747 z m -28.38418,-0.75888 c -1.56846,-0.27092 -3.04899,-1.12042 -3.82142,-2.53069 -0.9806,-1.79038 -1.39094,-3.95145 -0.64609,-5.8879 0.66367,-1.7253 1.52443,-3.84289 3.55621,-4.35796 1.72198,-0.57904 2.19725,1.02072 2.65308,2.21641 0.65716,1.29698 1.73941,2.3189 2.5181,3.53198 0.13454,0.20939 0.22264,0.43389 0.23852,0.60912 0.14196,1.62389 -0.45946,3.27076 -1.21045,4.70714 -0.42901,1.194 -1.5255,1.89662 -2.91132,1.75119 l -0.37615,-0.0395 0,0 z m 20.71897,-6.65373 c -1.41663,-0.18801 -3.49643,-0.61956 -3.48716,-2.35137 0.009,-1.62147 0.32924,-3.22613 0.30918,-4.86044 -0.0245,-1.99359 0.23303,-4.91265 0.72831,-5.94638 0.7942,-1.65762 2.85476,-2.38773 4.59835,-2.81668 2.12905,-0.52376 3.95147,1.26279 5.10213,2.84001 0.84818,1.16265 1.53522,2.5365 1.2078,3.97007 -0.4202,1.83975 -1.32309,3.56813 -2.28283,5.19388 -0.88555,1.50004 -2.22532,2.79205 -3.77357,3.65592 -0.73247,0.39939 -1.58467,0.42355 -2.40221,0.31499 z m -10.86465,-1.08762 c -2.82895,-1.18954 -4.84694,-3.90437 -5.46431,-6.79413 -0.20673,-1.70152 0.21457,-3.40278 0.8179,-4.98386 0.52022,-1.36323 1.24488,-2.83775 2.7731,-3.44755 1.6116,-0.64297 3.54765,-1.22199 5.14468,-0.50527 1.37946,0.6191 2.74592,2.15614 2.53717,3.78908 -0.54916,2.64008 -0.97017,5.30878 -1.09837,8.00453 -0.1564,1.19987 0.0301,2.79988 -1.27851,3.45368 -1.03392,0.5128 -2.2875,0.75544 -3.43166,0.48352 z"
       inkscape:export-xdpi="90"
       inkscape:export-ydpi="90" />
    <path
       sodipodi:nodetypes="ccscccccccccccccscssssscssccsscscccsssssssssccsssccsc"
       style="opacity:0.35;fill:#000000;fill-opacity:1"
       id="path2463-0"
       d="m 498.73519,643.7245 c -0.63319,-1.01041 -0.60838,-2.86272 -2.19521,-2.85949 -2.28189,-0.13717 -3.80595,-2.02587 -5.6007,-3.18701 -1.2093,-0.80087 -2.8182,-0.41768 -3.99115,-1.34322 -2.61664,-1.76031 -3.4315,-5.32511 -2.64025,-8.16011 0.65997,-2.2696 2.37932,-4.12089 4.3689,-5.35262 1.68306,-0.78597 3.64526,-0.70461 5.41941,-1.23098 1.34991,-0.20136 2.40138,-1.01036 3.53049,-1.66636 1.8545,-0.80745 4.30043,-0.77461 5.82771,0.77311 1.34717,1.21896 2.86123,2.2682 4.14482,3.54659 0.95028,1.35199 0.41958,3.04573 0.52365,4.55233 -0.28921,2.88638 0.56113,5.74064 0.65018,8.61843 0.16286,1.73767 -0.76183,3.26586 -1.90896,4.46675 -1.31875,1.41635 -2.77832,3.25461 -4.97489,3.10521 -1.07479,-0.2127 -2.44916,-0.3024 -3.154,-1.2626 z m 14.55038,-11.98267 c -0.50003,-1.35278 -0.74504,-3.18887 0.4307,-4.28018 1.89889,-1.76249 4.13147,-3.14637 6.40773,-4.38887 1.05728,-0.69899 2.07929,-0.42219 3.35391,0.42795 1.34498,0.89703 1.58662,2.65796 1.08087,4.05642 -0.73545,2.0335 -1.81667,4.20451 -4.12141,4.78228 -2.00265,0.51345 -4.25249,1.15176 -6.26937,0.31334 -0.39783,-0.16534 -0.73563,-0.51364 -0.88246,-0.91088 z M 488.7588,617.43535 c -1.24525,-0.99136 -2.13535,-2.44785 -2.13497,-4.0558 4.8e-4,-2.04133 0.67921,-4.13369 2.26304,-5.47389 1.41115,-1.19405 3.18368,-2.6374 5.21297,-2.11265 1.78838,0.31977 1.43634,1.95109 1.26145,3.21871 -0.047,1.4532 0.41095,2.86949 0.5108,4.30753 0.0169,0.24832 -0.0133,0.48749 -0.0836,0.64879 -0.65593,1.49228 -1.97479,2.64747 -3.32368,3.54619 -0.95004,0.8409 -2.24926,0.93011 -3.39468,0.13658 l -0.31088,-0.21542 0,0 z m 21.36715,4.12222 c -1.15195,-0.84568 -2.76843,-2.22365 -1.92802,-3.7379 0.78714,-1.41762 1.83915,-2.67092 2.60698,-4.11377 0.9366,-1.76005 2.5653,-4.19615 3.49643,-4.86465 1.4931,-1.07197 3.65099,-0.72197 5.38616,-0.2602 2.11878,0.56388 2.85836,3.00643 3.10945,4.94255 0.18501,1.42721 0.1273,2.96218 -0.84878,4.062 -1.25265,1.41142 -2.87506,2.49321 -4.49803,3.45768 -1.49746,0.88987 -3.2933,1.37902 -5.06619,1.39253 -0.83429,-0.002 -1.59323,-0.39015 -2.258,-0.87824 z m -9.00504,-6.17516 c -1.90917,-2.40271 -2.37414,-5.75329 -1.52677,-8.58416 0.63643,-1.59151 1.8235,-2.88095 3.11242,-3.97752 1.11136,-0.94547 2.45548,-1.8903 4.08871,-1.69062 1.72228,0.21068 3.69837,0.63333 4.75444,2.02936 0.91219,1.20585 1.37182,3.21047 0.40404,4.54215 -1.75037,2.05129 -3.40211,4.18927 -4.81006,6.49169 -0.71381,0.97707 -1.31919,2.46983 -2.78098,2.41428 -1.15314,-0.0472 -2.36907,-0.43685 -3.24176,-1.22518 z"
       inkscape:export-filename="/home/serioga/Ubuntu One/Ubuntu Furry Remix/Concepts and stuff/path2463.png"
       inkscape:export-xdpi="90"
       inkscape:export-ydpi="90" />
    <path
       sodipodi:nodetypes="ccscccccccccccccscssssscssccsscscccsssssssssccsssccsc"
       style="opacity:0.2;fill:#000000;fill-opacity:1"
       id="path2463-0-7"
       d="m 432.84848,701.69982 c -0.17196,-1.17994 0.59742,-2.86502 -0.85567,-3.50192 -2.0328,-1.04573 -2.66581,-3.38864 -3.8399,-5.17494 -0.78366,-1.22052 -2.41046,-1.5187 -3.11057,-2.83865 -1.68456,-2.66602 -0.99268,-6.25672 0.87462,-8.5319 1.51919,-1.81072 3.8391,-2.81146 6.15643,-3.13627 1.85709,-0.0405 3.61986,0.82522 5.45564,1.05896 1.31646,0.36014 2.6049,0.0438 3.90266,-0.10114 2.02266,0.009 4.24764,1.02537 5.02109,3.05756 0.7412,1.65871 1.70358,3.22943 2.36264,4.9169 0.32438,1.62039 -0.84427,2.95628 -1.35659,4.37693 -1.42863,2.52464 -1.80153,5.47943 -2.88055,8.14876 -0.55171,1.6558 -2.01413,2.68132 -3.54813,3.31764 -1.77793,0.76428 -3.85487,1.85786 -5.80466,0.83534 -0.89774,-0.62806 -2.11923,-1.26438 -2.37702,-2.42728 z m 18.14699,-5.09752 c 0.088,-1.43953 0.60415,-3.21852 2.12016,-3.74302 2.4484,-0.84707 5.04948,-1.21312 7.63349,-1.43218 1.24939,-0.21328 2.07298,0.45217 2.89653,1.74412 0.86904,1.36323 0.38004,3.07208 -0.64671,4.14784 -1.49303,1.56425 -3.35792,3.11489 -5.69995,2.71417 -2.03965,-0.33779 -4.35585,-0.66092 -5.86337,-2.24148 -0.29736,-0.31173 -0.46603,-0.76667 -0.44019,-1.18938 z m -16.67475,-22.98237 c -0.73974,-1.40934 -0.9669,-3.10108 -0.31814,-4.57235 0.82365,-1.86779 2.28851,-3.50877 4.2783,-4.09647 1.77283,-0.52358 3.9769,-1.12958 5.62226,0.16895 1.50757,1.01381 0.52758,2.36463 -0.14365,3.45409 -0.62905,1.31084 -0.78112,2.79154 -1.26964,4.14774 -0.0847,0.23407 -0.20875,0.44072 -0.33813,0.55998 -1.20201,1.10107 -2.87473,1.62631 -4.4715,1.90476 -1.20848,0.38637 -2.43334,-0.0559 -3.16149,-1.24399 l -0.1976,-0.32249 0,0 z m 17.89039,12.38878 c -0.71311,-1.23841 -1.63663,-3.15124 -0.25695,-4.198 1.29197,-0.97981 2.76006,-1.70245 4.04454,-2.71313 1.56683,-1.2329 4.03962,-2.80534 5.16126,-3.0416 1.7986,-0.37882 3.63211,0.81163 5.03371,1.93395 1.71149,1.37043 1.40327,3.9038 0.85226,5.77676 -0.40624,1.38063 -1.07804,2.762 -2.41475,3.37481 -1.71546,0.78641 -3.63636,1.12208 -5.51043,1.35016 -1.72917,0.21044 -3.56975,-0.0661 -5.19755,-0.76871 -0.76274,-0.33805 -1.30061,-0.99952 -1.71209,-1.71424 z m -5.75016,-9.28219 c -0.77812,-2.96859 0.14756,-6.22216 2.06456,-8.47094 1.22418,-1.19969 2.83043,-1.90095 4.45212,-2.38463 1.39824,-0.41701 3.00924,-0.73957 4.42326,0.10177 1.49109,0.88734 3.12894,2.07097 3.53235,3.77434 0.34844,1.4713 -0.0393,3.49104 -1.46195,4.31936 -2.42894,1.17125 -4.8026,2.4616 -7.01948,4.00073 -1.0472,0.60625 -2.20316,1.72813 -3.51841,1.08781 -1.03618,-0.50823 -1.99173,-1.35514 -2.47241,-2.42844 z"
       inkscape:export-filename="/home/serioga/Ubuntu One/Ubuntu Furry Remix/Concepts and stuff/path2463.png"
       inkscape:export-xdpi="90"
       inkscape:export-ydpi="90" />
  </g>
</svg>
