<?xml version="1.0" encoding="UTF-8" standalone="no"?>
<!-- Created with Inkscape (http://www.inkscape.org/) -->

<svg
   xmlns:dc="http://purl.org/dc/elements/1.1/"
   xmlns:cc="http://creativecommons.org/ns#"
   xmlns:rdf="http://www.w3.org/1999/02/22-rdf-syntax-ns#"
   xmlns:svg="http://www.w3.org/2000/svg"
   xmlns="http://www.w3.org/2000/svg"
   xmlns:xlink="http://www.w3.org/1999/xlink"
   xmlns:sodipodi="http://sodipodi.sourceforge.net/DTD/sodipodi-0.dtd"
   xmlns:inkscape="http://www.inkscape.org/namespaces/inkscape"
   version="1.1"
   width="24"
   height="23.999989"
   id="svg4285"
   inkscape:version="0.47pre4 r22446"
   sodipodi:docname="stock_person.svg">
  <metadata
     id="metadata100">
    <rdf:RDF>
      <cc:Work
         rdf:about="">
        <dc:format>image/svg+xml</dc:format>
        <dc:type
           rdf:resource="http://purl.org/dc/dcmitype/StillImage" />
      </cc:Work>
    </rdf:RDF>
  </metadata>
  <sodipodi:namedview
     pagecolor="#ffffff"
     bordercolor="#666666"
     borderopacity="1"
     objecttolerance="10"
     gridtolerance="10"
     guidetolerance="10"
     inkscape:pageopacity="0"
     inkscape:pageshadow="2"
     inkscape:window-width="659"
     inkscape:window-height="489"
     id="namedview98"
     showgrid="false"
     inkscape:zoom="9.833338"
     inkscape:cx="12"
     inkscape:cy="11.999994"
     inkscape:window-x="0"
     inkscape:window-y="24"
     inkscape:window-maximized="0"
     inkscape:current-layer="svg4285" />
  <defs
     id="defs4287">
    <linearGradient
       id="linearGradient3767">
      <stop
         id="stop3769"
         style="stop-color:#505050;stop-opacity:0"
         offset="0" />
      <stop
         id="stop3771"
         style="stop-color:#ffffff;stop-opacity:1"
         offset="1" />
    </linearGradient>
    <linearGradient
       id="linearGradient3963">
      <stop
         id="stop3965"
         style="stop-color:#ffffff;stop-opacity:1"
         offset="0" />
      <stop
         id="stop3967"
         style="stop-color:#ffffff;stop-opacity:0"
         offset="1" />
    </linearGradient>
    <linearGradient
       id="linearGradient3955">
      <stop
         id="stop3957"
         style="stop-color:#ffffff;stop-opacity:1"
         offset="0" />
      <stop
         id="stop3959"
         style="stop-color:#ffffff;stop-opacity:0"
         offset="1" />
    </linearGradient>
    <linearGradient
       id="linearGradient3926">
      <stop
         id="stop3928"
         style="stop-color:#ffffff;stop-opacity:1"
         offset="0" />
      <stop
         id="stop3930"
         style="stop-color:#ffffff;stop-opacity:0"
         offset="1" />
    </linearGradient>
    <linearGradient
       id="linearGradient3918">
      <stop
         id="stop3920"
         style="stop-color:#ffffff;stop-opacity:1"
         offset="0" />
      <stop
         id="stop3922"
         style="stop-color:#ffffff;stop-opacity:0.76045626"
         offset="1" />
    </linearGradient>
    <linearGradient
       id="linearGradient3910">
      <stop
         id="stop3912"
         style="stop-color:#ffffff;stop-opacity:0"
         offset="0" />
      <stop
         id="stop3914"
         style="stop-color:#ffffff;stop-opacity:1"
         offset="1" />
    </linearGradient>
    <linearGradient
       id="linearGradient3894">
      <stop
         id="stop3896"
         style="stop-color:#ffffff;stop-opacity:0.37262356"
         offset="0" />
      <stop
         id="stop3898"
         style="stop-color:#ffffff;stop-opacity:0.09125476"
         offset="1" />
    </linearGradient>
    <linearGradient
       id="linearGradient3882">
      <stop
         id="stop3884"
         style="stop-color:#ffffff;stop-opacity:1"
         offset="0" />
      <stop
         id="stop3886"
         style="stop-color:#ffffff;stop-opacity:0"
         offset="1" />
    </linearGradient>
    <linearGradient
       id="linearGradient3865">
      <stop
         id="stop3867"
         style="stop-color:#ffffff;stop-opacity:1"
         offset="0" />
      <stop
         id="stop3869"
         style="stop-color:#ffffff;stop-opacity:0"
         offset="1" />
    </linearGradient>
    <linearGradient
       id="linearGradient3844">
      <stop
         id="stop3846"
         style="stop-color:#ffffff;stop-opacity:1"
         offset="0" />
      <stop
         id="stop3863"
         style="stop-color:#ffffff;stop-opacity:0.49803922"
         offset="0.38408825" />
      <stop
         id="stop3848"
         style="stop-color:#ffffff;stop-opacity:0"
         offset="1" />
    </linearGradient>
    <linearGradient
       id="linearGradient3799">
      <stop
         id="stop3801"
         style="stop-color:#ffffff;stop-opacity:1"
         offset="0" />
      <stop
         id="stop3852"
         style="stop-color:#ffffff;stop-opacity:0.49803922"
         offset="0.38922155" />
      <stop
         id="stop3803"
         style="stop-color:#ffffff;stop-opacity:0"
         offset="1" />
    </linearGradient>
    <linearGradient
       x1="124.88369"
       y1="614.24451"
       x2="128.61511"
       y2="616.27576"
       id="linearGradient3674"
       xlink:href="#linearGradient3963"
       gradientUnits="userSpaceOnUse"
       gradientTransform="matrix(0.49999612,0,0,0.49999612,-59.565307,-303.92661)" />
    <linearGradient
       x1="127.77165"
       y1="614.15778"
       x2="130.1864"
       y2="612.53278"
       id="linearGradient3677"
       xlink:href="#linearGradient3955"
       gradientUnits="userSpaceOnUse"
       gradientTransform="matrix(0.49999612,0,0,0.49999612,-59.705931,-303.87973)" />
    <linearGradient
       x1="133.20557"
       y1="614.64185"
       x2="137.68925"
       y2="619.01685"
       id="linearGradient3680"
       xlink:href="#linearGradient3926"
       gradientUnits="userSpaceOnUse"
       gradientTransform="matrix(0.49999612,0,0,0.49999612,-59.705931,-303.87973)" />
    <radialGradient
       cx="204.48492"
       cy="425.3735"
       r="18.704613"
       fx="204.48492"
       fy="425.3735"
       id="radialGradient3683"
       xlink:href="#linearGradient3910"
       gradientUnits="userSpaceOnUse"
       gradientTransform="matrix(0.4026575,-0.00375958,0.00199832,0.2037709,-77.271342,-75.952702)" />
    <linearGradient
       x1="149.10364"
       y1="622.48138"
       x2="147.78259"
       y2="611.10638"
       id="linearGradient3686"
       xlink:href="#linearGradient3918"
       gradientUnits="userSpaceOnUse"
       gradientTransform="matrix(0.51334656,-0.01993656,0.01993656,0.51334656,-74.106241,-309.22956)" />
    <linearGradient
       x1="421.87692"
       y1="568.21527"
       x2="389.03873"
       y2="587.46527"
       id="linearGradient3689"
       xlink:href="#linearGradient3865"
       gradientUnits="userSpaceOnUse"
       gradientTransform="matrix(0.0761583,0,0,0.07242415,-13.305768,-22.567396)" />
    <radialGradient
       cx="334.34973"
       cy="429.258"
       r="28.867611"
       fx="334.34973"
       fy="429.258"
       id="radialGradient3692"
       xlink:href="#linearGradient3767"
       gradientUnits="userSpaceOnUse"
       gradientTransform="matrix(0.08333237,0.00276664,-0.00342067,0.09463629,-14.224901,-31.639541)" />
    <linearGradient
       x1="296.76578"
       y1="377.22821"
       x2="292.28873"
       y2="410.22821"
       id="linearGradient3695"
       xlink:href="#linearGradient3894"
       gradientUnits="userSpaceOnUse"
       gradientTransform="matrix(0.06182314,0,0,0.06182314,-7.5604375,-16.99912)" />
    <linearGradient
       x1="344.16959"
       y1="510.40009"
       x2="322.71857"
       y2="527.15009"
       id="linearGradient3700"
       xlink:href="#linearGradient3844"
       gradientUnits="userSpaceOnUse"
       gradientTransform="matrix(0.06182314,0,0,0.06182314,-7.3824718,-16.541492)" />
    <linearGradient
       x1="270.28873"
       y1="456.40485"
       x2="258.78873"
       y2="437.40485"
       id="linearGradient3703"
       xlink:href="#linearGradient3882"
       gradientUnits="userSpaceOnUse"
       gradientTransform="matrix(0.06182314,0,0,0.06182314,-7.3824718,-16.541492)" />
    <linearGradient
       x1="175.79066"
       y1="562.12231"
       x2="210.78297"
       y2="579.62231"
       id="linearGradient3706"
       xlink:href="#linearGradient3882"
       gradientUnits="userSpaceOnUse"
       gradientTransform="matrix(0.06522138,0,0,0.06522138,-8.0118819,-18.506877)" />
    <linearGradient
       x1="256.84323"
       y1="556.71069"
       x2="287.4155"
       y2="554.46808"
       id="linearGradient3709"
       xlink:href="#linearGradient3799"
       gradientUnits="userSpaceOnUse"
       gradientTransform="matrix(0.07957171,0,0,0.05982656,-11.754634,-15.483571)" />
  </defs>
  <path
     d="M 9.6801459,23.866964 C 6.3593866,23.510541 2.1547642,22.974651 0.17271963,20.806077 -0.13736797,20.384421 -0.10391323,20.295451 0.89533903,18.884197 1.157472,18.513975 2.2578084,17.439379 3.0163275,16.812818 c 0.3809371,-0.314672 0.4131918,-0.328392 0.8655233,-0.368197 0.3408024,-0.03 0.6056703,-0.101894 0.9644226,-0.261803 0.2720228,-0.121249 0.5564256,-0.238888 0.632005,-0.261413 0.1233341,-0.03675 0.133564,-0.06911 0.099789,-0.315532 -0.02545,-0.185824 -0.01495,-0.274573 0.0326,-0.274573 0.0386,0 0.07123,0.02085 0.07245,0.04635 10e-4,0.0255 0.071489,0.129824 0.1561438,0.231833 L 5.99318,15.794951 5.898861,15.565103 c -0.1075642,-0.262123 -0.1128691,-0.295648 -0.0468,-0.295648 0.0261,0 0.088724,0.06793 0.1391039,0.150939 0.087634,0.144404 0.091944,0.134374 0.099684,-0.231838 0.00515,-0.243268 0.064465,-0.529231 0.1627737,-0.784624 0.085074,-0.221018 0.1738737,-0.517571 0.1973235,-0.659005 0.0378,-0.227993 0.0276,-0.261933 -0.090044,-0.299272 -0.07298,-0.02315 -0.3804775,-0.227379 -0.6833402,-0.453807 -0.7220194,-0.539826 -1.4086491,-0.980437 -1.669657,-1.071422 -0.1153192,-0.0402 -0.2798829,-0.109734 -0.3656972,-0.154518 -0.085809,-0.0448 -0.2047034,-0.08161 -0.264208,-0.08181 -0.1359939,-4.95e-4 -0.1352689,-0.01405 0.0167,-0.311962 0.131489,-0.257738 0.1016692,-0.304803 -0.097629,-0.154059 -0.1592588,0.120459 -0.2482981,0.119299 -0.1476939,-0.002 0.070475,-0.08491 0.059125,-0.09133 -0.093704,-0.05297 -0.1730036,0.0434 -0.1736736,0.0424 -0.1314089,-0.197038 0.078144,-0.442742 0.2269182,-0.816174 0.3902219,-0.9794776 0.128154,-0.128154 0.137129,-0.153068 0.04315,-0.119689 -0.0653,0.0232 -0.2091384,0.109009 -0.3196475,0.1907186 -0.2336832,0.172778 -0.260248,0.111404 -0.061914,-0.1430536 l 0.1390139,-0.178354 -0.1853786,0.112819 c -0.1527838,0.09298 -0.1395989,0.06851 0.074974,-0.139103 0.1431939,-0.138554 0.2544731,-0.251559 0.2472931,-0.251119 -0.0072,4.3e-4 -0.1894185,0.05608 -0.4049668,0.123645 -0.5813405,0.182233 -0.5910855,0.151073 -0.04085,-0.130624 C 3.434215,9.1302884 3.9206662,8.7665064 4.0455703,8.5249634 4.1411893,8.3400544 4.1387943,8.3312144 3.9211762,8.0656364 3.686533,7.7792884 3.439475,7.5802954 3.1990368,7.4839964 l -0.1455838,-0.05831 0.1545588,-0.0088 c 0.085004,-0.005 0.119779,-0.02285 0.077279,-0.04 -0.1195291,-0.04825 -0.091249,-0.145129 0.0309,-0.10592 0.091489,0.02935 0.089059,0.01715 -0.01575,-0.07922 -0.258838,-0.237993 -0.4371116,-0.475431 -0.3274424,-0.436112 0.078314,0.0281 0.095304,0.0123 0.066775,-0.06206 -0.0255,-0.06642 -0.0141,-0.0848 0.03405,-0.05502 0.1012142,0.06255 0.090249,-0.0258 -0.01805,-0.145459 -0.0497,-0.05492 -0.1360839,-0.210128 -0.1919385,-0.344897 l -0.1015654,-0.24504 0.1699437,0.154559 0.1699437,0.154554 -0.1047192,-0.163839 c -0.05759,-0.09011 -0.082469,-0.173574 -0.05528,-0.185469 l -0.1122141,-0.482241 -0.0394,0.128704 -0.02945,-0.168619 -0.01665,-0.09532 c -0.0232,-0.123704 -0.02585,-0.415822 -0.00585,-0.649145 0.02,-0.233328 0.057275,-1.175381 0.082859,-2.093454 0.0446,-1.59947699 0.052545,-1.67891199 0.1906635,-1.90105999 0.250648,-0.403132 0.4417615,-0.321262 1.0172421,0.43575699 0.1685137,0.221673 0.390777,0.410437 0.6875397,0.583925 0.2411931,0.140994 0.5498107,0.338278 0.6858246,0.438402 0.3102476,0.228398 0.905613,0.863988 1.0938316,1.167736 0.097329,0.157069 0.1882085,0.230703 0.2861477,0.231838 0.1466189,0.0015 0.3201526,-0.126264 0.3201526,-0.236078 0,-0.0336 0.1077241,-0.002 0.2393881,0.07002 l 0.2393881,0.131129 0.6250202,-0.204708 c 0.4862662,-0.159259 0.7347243,-0.205624 1.1191961,-0.208859 0.491086,-0.004 0.493941,-0.0051 0.456631,-0.153743 -0.0373,-0.148634 -0.03635,-0.148964 0.152329,-0.0514 0.1044341,0.054 0.2306431,0.156384 0.2804631,0.227518 0.07538,0.107619 0.112339,0.117694 0.220133,0.06 0.07125,-0.03815 0.129549,-0.09292 0.129549,-0.121764 0,-0.02885 0.05564,-0.06699 0.123644,-0.08477 0.103664,-0.0271 0.123649,-0.002 0.123649,0.155989 0,0.162799 0.13204,0.348018 0.252749,0.354542 0.0343,0.002 0.758008,-0.904048 0.890978,-1.115306 0.270198,-0.429282 0.356213,-0.558306 0.5534,-0.830153 0.12332,-0.170014 0.327458,-0.48143699 0.453643,-0.69204999 0.276662,-0.461786 0.63227,-0.761179 0.902523,-0.759848996885 C 13.971367,4.9941311e-4 14.089356,0.02140441 14.127725,0.04635441 c 0.0384,0.025 0.129154,0.262678 0.201744,0.528216 0.141749,0.51856099 0.334152,0.93519299 0.58913,1.27571499 0.137849,0.149629 0.170538,0.340678 0.250033,0.519601 0.472291,1.015633 0.666245,1.916176 0.67662,3.141621 0.003,0.362642 0.0161,0.64887 0.02895,0.63606 0.01285,-0.0128 0.07473,-0.170419 0.137494,-0.350237 l 0.114099,-0.326943 -0.01645,0.494587 c -0.009,0.272017 -0.03845,0.550225 -0.06539,0.61823 -0.0438,0.110614 -0.03595,0.108984 0.07434,-0.01545 0.0678,-0.07651 0.150344,-0.139104 0.183434,-0.139104 0.0331,0 0.07471,-0.05564 0.09249,-0.123649 0.0381,-0.145674 0.167559,-0.166829 0.167559,-0.0274 0,0.210958 -0.152059,0.689135 -0.288463,0.907128 -0.187979,0.300408 -0.181999,0.330153 0.03525,0.175454 0.227939,-0.162309 0.305383,-0.164344 0.160469,-0.004 -0.06154,0.068 -0.08317,0.123644 -0.04805,0.123644 0.0351,0 0.09903,-0.0424 0.142039,-0.09423 0.165903,-0.199899 0.122034,-0.02785 -0.05532,0.217008 -0.177849,0.245508 -0.259208,0.439791 -0.343392,0.820024 -0.03155,0.142448 -0.0171,0.170013 0.08917,0.170013 0.06974,0 0.230243,-0.04315 0.356662,-0.09592 l 0.229848,-0.09592 -0.241093,0.247113 c -0.212918,0.218223 -0.223758,0.242768 -0.09274,0.209993 l 0.148364,-0.0371 -0.154559,0.136484 -0.154559,0.136489 0.154559,-0.03745 0.154559,-0.03745 -0.145949,0.126914 c -0.08027,0.0698 -0.191559,0.127824 -0.247293,0.128934 -0.05574,10e-4 0.03835,0.05032 0.209063,0.109349 0.361743,0.125084 0.681305,0.338332 0.778134,0.519266 0.06484,0.1211536 0.05644,0.1253586 -0.170138,0.08513 -0.131089,-0.02325 -0.293988,-0.05575 -0.361993,-0.07218 -0.07992,-0.0193 -0.06287,0.005 0.0482,0.06805 0.09452,0.05386 0.155474,0.1244286 0.135454,0.1568136 -0.02,0.0324 0.007,0.05889 0.05999,0.05889 0.148793,0 0.115004,0.08663 -0.09409,0.241218 -0.104764,0.07745 -0.338552,0.367842 -0.519526,0.64531 -0.620415,0.951192 -1.28908,1.563868 -2.096518,1.920955 l -0.346463,0.153224 0.0015,0.297062 c 0.002,0.385362 0.148549,0.69392 0.577571,1.214066 0.191628,0.232333 0.351642,0.482716 0.355587,0.556411 0.006,0.111199 0.05077,0.241773 0.07496,0.148214 0.112725,-0.114285 0.06954,-0.422567 0.06954,-0.422567 0,0 0.279803,0.241248 0.271288,0.471876 -0.01785,0.224353 -0.018,0.126254 0.0196,0.262368 0.01795,0.06486 0.142043,-0.437836 0.142043,-0.437836 0,0 0.144014,0.437136 0.219584,0.491431 0.09411,0.06761 0.508351,0.330057 1.350634,0.608155 0.358098,0.118234 0.618296,0.253438 0.848364,0.440832 0.182513,0.148658 0.854243,0.53358 1.492733,0.855383 0.63849,0.321802 1.29054,0.676815 1.448999,0.788924 1.121626,0.793534 1.730062,1.244015 1.983895,1.468868 0.255268,0.226134 0.293657,0.291528 0.293657,0.500247 0,0.322432 -0.481101,0.907668 -1.029772,1.452998 -1.31118,1.3032 -2.944707,1.734797 -4.714373,1.942765 -2.422916,0.155919 -5.231695,0.324373 -7.6288961,0.06708 z"
     id="path2844"
     style="fill:#232323;fill-opacity:1" />
  <path
     d="m 10.051088,14.692945 c -0.2894631,0.405067 -1.7662313,1.96021 -2.2435776,2.255952 1.0654617,0.08254 1.7356515,-0.508381 2.6123096,-0.314107 -0.5924051,0.275413 -2.6723091,2.471271 -2.690179,2.951972 0.382947,-0.389302 2.771894,-1.125716 2.941207,-1.197356 -0.0035,0.275448 -0.8662731,1.516413 -1.0074771,1.748647 -0.591285,0.366377 -1.9018802,1.595682 -1.8636605,2.172933 1.5104535,-0.336598 3.3159796,-0.665465 4.2088876,-0.890383 0.08863,-0.844939 0.0955,-4.208523 -0.03855,-5.051376 -0.420487,-0.68882 -1.184071,-1.346045 -1.91891,-1.676282 l -2.5e-5,0 z"
     id="path3795-8"
     style="opacity:0.328;fill:url(#linearGradient3709);fill-opacity:1;stroke:none" />
  <path
     d="m 4.8127586,17.21366 c -0.904538,0.305358 -2.3549017,1.976965 -2.6963691,2.756024 1.1404712,0.852763 1.8984853,1.389569 3.224815,1.256975 0.1779086,-0.0442 0.384332,-1.531463 0.393522,-1.747161 -0.03105,-0.686345 0.6083152,-1.631528 0.066544,-2.186348 -0.2857277,-0.185374 -0.63583,-0.08575 -0.9885123,-0.07949 z"
     id="path3856-7"
     style="opacity:0.28999999;fill:url(#linearGradient3706);fill-opacity:1;stroke:none" />
  <path
     d="m 8.7345082,10.571437 c -0.089274,0 -0.4578815,0.279663 -0.4578815,0.347752 0,0.198049 0.3438424,0.754914 0.6723298,1.091567 0.3992024,0.409127 0.4764664,0.358527 0.2318334,-0.152624 -0.086,-0.179719 -0.133804,-0.349187 -0.106254,-0.376737 0.02755,-0.02755 0.323907,-0.07127 0.66073,-0.0966 l 0.6124401,-0.04635 -0.4945861,-0.0483 c -0.334708,-0.0324 -0.599886,-0.100043 -0.823024,-0.210587 -0.2971827,-0.147224 -0.3281024,-0.180454 -0.3052476,-0.336162 0.01395,-0.09501 0.01885,-0.171944 0.00965,-0.171944 z"
     id="path3892-0"
     style="opacity:0.93199989;fill:url(#linearGradient3703);fill-opacity:1;stroke:none" />
  <path
     d="m 13.112354,13.181532 -0.326502,0.106259 c -0.289068,0.09423 -0.243073,0.194593 -0.411507,0.347752 -0.561501,0.510571 -0.621185,1.190161 -0.558341,1.410344 0.05289,0.450652 0.404192,1.151666 0.604706,1.530118 0.05852,0.161914 1.19714,0.66924 1.269305,0.670395 0.0359,5e-4 0.286293,-0.06599 0.556411,-0.148759 0.270117,-0.08276 0.442036,-0.152314 0.382532,-0.154559 -0.184184,-0.0069 0.248238,-0.52913 0.494581,-0.792108 0.154134,-0.164539 -0.290283,-0.06145 -0.519701,0.08887 -0.157304,0.103074 -0.160179,0.102459 -0.117849,-0.0309 0.0451,-0.142044 -0.0542,-0.195193 -0.108189,-0.05796 -0.0167,0.0425 -0.01445,-0.02705 0.004,-0.154559 0.03555,-0.247093 0.166113,-0.733635 0.02705,-0.566066 -0.07441,0.08966 -0.286572,0.520126 -0.322637,0.417307 -0.03445,-0.09815 -0.05256,-0.08846 -0.139104,0.07148 l -0.100459,0.185469 -0.002,-0.295588 c -0.0015,-0.201263 -0.05817,-0.397607 -0.173879,-0.612435 -0.306073,-0.568261 -0.313793,-0.580521 -0.345822,-0.481061 -0.01605,0.0498 -0.0448,0.132529 -0.06183,0.183533 -0.017,0.05101 -0.0319,0.0093 -0.03475,-0.09273 l 0.05603,-0.417307 -0.220243,0.417307 -0.158424,0.185469 0.03285,-0.195129 0.432761,-0.886773 c -0.233143,0.351907 -0.761729,0.980377 -0.482996,0.117849 0.08786,-0.251888 0.173534,-0.546216 0.191269,-0.653005 l 0.03285,-0.193198 z"
     id="path3946-6"
     style="opacity:0.40500004;fill:url(#linearGradient3700);fill-opacity:1;stroke:none" />
  <path
     d="m 11.838962,5.9001777 -0.247293,0.09853 c -0.136009,0.05455 -0.389887,0.198333 -0.566066,0.318772 -0.193743,0.132449 -0.376272,0.211129 -0.461741,0.198994 -0.136824,-0.0194 -0.143449,0.004 -0.212519,0.695514 -0.03925,0.392927 -0.09144,0.771314 -0.113989,0.842339 -0.03945,0.124254 0.09025,0.328432 0.208654,0.328432 0.0279,0 0.193383,-0.127834 0.367077,-0.283998 l 0.314912,-0.283997 0,-0.490722 c 0,-0.59755 0.09661,-0.851183 0.448217,-1.178505 l 0.262748,-0.245359 z"
     id="path4074-8"
     style="opacity:0.73299997;fill:url(#linearGradient3695);fill-opacity:1;stroke:none" />
  <path
     d="m 13.812729,9.2130154 c -0.07546,0.0168 -0.192393,0.171767 -0.338539,0.449237 -0.176138,0.334413 -0.521249,0.7445526 -1.088528,1.2928126 -0.456663,0.44135 -0.830721,0.849462 -0.830721,0.905972 0,0.202196 0.28089,0.318253 0.989572,0.409307 1.026578,0.131894 1.08753,0.128639 1.463521,-0.04741 0.186348,-0.08726 0.54479,-0.321585 0.796868,-0.521617 0.252079,-0.200032 0.689608,-0.5429 0.971341,-0.761211 0.171217,-0.132669 0.361157,-0.354966 0.466139,-0.456729 0.06777,-0.06569 -1.398074,-0.254372 -1.387998,-0.279524 0.0155,-0.03869 1.47944,0.142753 1.42706,0.09733 -0.05728,-0.04967 -0.147501,-0.134478 -0.30468,-0.169712 -0.753513,-0.1689176 -2.505695,-0.5001076 -0.364582,-0.2695446 0.05985,0.0065 -0.07893,-0.127218 -0.239576,-0.15224 -1.341186,-0.208933 -1.242539,-0.208474 -0.114585,-0.114805 0.120947,0.01001 -0.05479,-0.101549 -0.570306,-0.199663 -0.402841,-0.07668 -0.782533,-0.157189 -0.843741,-0.179699 -0.009,-0.0033 -0.02049,-0.0052 -0.03127,-0.0026 z"
     id="path4121"
     style="opacity:0.38699999;fill:url(#radialGradient3692);fill-opacity:1;stroke:none" />
  <path
     d="m 15.57924,17.559868 c -0.171398,0.0045 -0.329457,0.02425 -0.388047,0.05307 -0.173733,0.08541 -0.179583,0.336818 -0.01775,0.63191 0.06668,0.121584 0.119199,0.252153 0.119199,0.289428 0,0.03725 0.08004,0.154204 0.174999,0.258068 0.09496,0.103869 0.213663,0.257843 0.263768,0.342487 0.05007,0.08464 0.228793,0.384397 0.398192,0.668095 0.340887,0.570886 0.474441,0.885873 0.732974,1.714842 0.195064,0.625485 0.222954,0.63983 0.864854,0.448616 0.436486,-0.130034 1.16907,-0.464436 1.488768,-0.680159 0.311928,-0.210469 0.70254,-0.73831 0.70254,-0.947868 0,-0.256538 -0.401077,-0.685895 -1.080437,-1.157701 -0.334472,-0.232283 -0.626035,-0.422082 -0.64928,-0.422082 -0.0232,0 -0.309688,-0.168813 -0.636595,-0.373837 -1.103797,-0.692274 -1.356905,-0.807358 -1.800721,-0.824863 -0.05741,-0.0025 -0.115334,-0.002 -0.172469,0 z"
     id="path4168"
     style="opacity:0.34000017;fill:url(#linearGradient3689);fill-opacity:1;stroke:none" />
  <path
     d="m 13.636292,0.49068002 -0.0033,0.37558545 c -0.0032,0.27813963 0.594112,1.51559753 0.719391,1.80718983 0.544238,1.2664791 0.573368,1.3645995 0.593318,2.0290663 0.0155,0.5183052 -0.0092,0.7150707 -0.129068,1.0757618 -0.137594,0.4143578 -0.139319,0.4581038 -0.04445,0.6970224 0.197455,0.4972402 0.326337,1.005538 0.267107,1.0464686 -0.03515,0.024295 -0.01435,0.1586087 0.05085,0.3377259 0.123648,0.3394888 0.176481,0.323643 0.36738,-0.1056483 0.152486,-0.3429031 0.259499,-0.7103109 0.217232,-0.749419 -0.01728,-0.015986 -0.09101,0.02811 -0.163079,0.097714 l -0.130169,0.126234 0.128142,-0.2811049 c 0.150441,-0.32795 0.123093,-0.3930094 -0.102388,-0.2324273 -0.08906,0.063436 -0.171172,0.1055962 -0.18108,0.094444 -0.0099,-0.011133 0.02302,-0.1208793 0.07192,-0.2451549 0.04894,-0.1242727 0.09033,-0.3051845 0.09369,-0.4009461 l 0.0072,-0.1731102 -0.120706,0.1656027 C 15.112661,6.3839234 15.076584,6.3178455 15.22056,6.0506488 15.496871,5.5378586 15.475996,4.1653194 15.177653,3.1042753 15.106418,2.850948 15.056501,2.6945885 14.975113,2.543986 14.895637,2.3969133 14.232492,1.2162159 14.051203,0.99504365 l -0.414911,-0.50436161 4.6e-5,-1.79e-6 z M 16.309534,6.417585 c -0.01375,0.00208 -0.04628,0.043493 -0.08114,0.1104233 -0.0465,0.089218 -0.08199,0.1907143 -0.08064,0.2256273 0.0013,0.034907 0.03906,-0.00953 0.08557,-0.098673 0.04651,-0.089218 0.08397,-0.1907923 0.08262,-0.2257053 -3.39e-4,-0.00872 -0.0021,-0.012312 -0.0064,-0.011678 l 6e-6,1.01e-5 z"
     id="path4215"
     style="opacity:0.772;fill:url(#linearGradient3686);fill-opacity:1;stroke:none" />
  <path
     d="m 4.075521,9.0599209 c -0.1044651,0.0055 -0.3676279,0.190145 -0.4126584,0.3046445 -0.025504,0.064786 0.070886,0.033932 0.2226157,-0.071524 0.14575,-0.1012675 0.2446146,-0.2010665 0.2226228,-0.2225181 -0.00738,-0.00714 -0.017635,-0.011377 -0.032602,-0.010662 z m 0.4018029,0.1509988 c -0.1853773,0 -0.6868669,0.7835208 -0.6868669,1.0728693 0,0.117103 0.056561,0.09585 0.2769207,-0.103312 L 4.3415792,9.9314678 4.1542557,10.199021 c -0.1037132,0.14707 -0.1875063,0.395017 -0.1873306,0.551007 l 0,0.121854 c 0.00281,5.08e-4 0.00562,4.26e-4 0.00814,0.0027 0.014615,0.01426 -0.014615,0.04662 0,0.06095 0.012507,0.0122 0.037942,-0.0055 0.054312,-0.0027 l 0.1085958,-0.174837 c 0.094677,-0.151526 0.1889956,-0.2755 0.2090412,-0.2755 0.020024,0 0.01609,0.14668 -0.00815,0.323182 -0.028035,0.204159 0.0099,0.443186 0.1058764,0.65697 0.1470567,0.327645 0.154926,0.328481 0.2199034,0.121855 0.060987,-0.193855 0.065413,-0.194499 0.073303,-0.02646 0.00489,0.101014 0.056982,0.204131 0.1167393,0.230471 0.153401,0.0676 1.1989587,0.471247 1.6747607,0.347074 C 6.9781322,12.018489 6.8795557,11.396539 6.7904084,10.932855 6.705582,10.491678 6.0304415,9.8737938 5.2347821,9.5103134 4.8752693,9.3460761 4.5339965,9.2109692 4.4773309,9.2109692 z"
     id="path2839-2"
     style="opacity:0.672;fill:url(#radialGradient3683);fill-opacity:1;stroke:none" />
  <path
     d="m 9.7873549,3.2265644 c -0.027,-0.0072 -0.0471,0.0347 -0.08694,0.139099 -0.05446,0.142684 -0.08286,0.163803 -0.125579,0.09467 -0.0302,-0.04885 -0.07431,-0.06866 -0.09853,-0.04445 -0.02425,0.0242 -0.08188,0.01275 -0.127509,-0.0251 -0.06361,-0.05279 -0.08308,-0.04405 -0.08308,0.03285 0,0.125284 -0.0268,0.123569 -0.218308,-0.002 -0.143599,-0.09409 -0.150724,-0.09304 -0.1120593,0.0077 0.0324,0.08439 0.01485,0.09984 -0.077274,0.07342 -0.064649,-0.01855 -0.2708629,0.0152 -0.4578814,0.07341 -0.2687629,0.08363 -0.3432073,0.134904 -0.3593472,0.247293 -0.0182,0.126874 -0.02835,0.131254 -0.094664,0.04055 -0.075314,-0.103004 -0.776419,-0.365377 -0.8307485,-0.311048 -0.01625,0.01625 0.0365,0.08283 0.117849,0.148759 0.1743387,0.141339 0.1246341,0.233368 -0.069549,0.129444 -0.1242091,-0.06647 -0.130319,-0.05965 -0.088869,0.07342 0.0435,0.139648 0.04015,0.139533 -0.077279,0.0348 -0.1465789,-0.130764 -0.2047884,-0.08516 -0.2047884,0.158424 0,0.162544 -0.01005,0.173574 -0.1004643,0.09853 -0.090619,-0.07521 -0.096749,-0.07034 -0.05603,0.05796 0.04165,0.131154 0.033,0.138504 -0.085004,0.07534 -0.1577887,-0.08444 -0.1668687,-0.0236 -0.02125,0.141034 0.1052442,0.118984 0.1035642,0.121364 -0.06182,0.08114 -0.1618138,-0.03935 -0.1700137,-0.03175 -0.1700137,0.181608 0,0.173864 -0.0208,0.216928 -0.092734,0.189329 -0.067575,-0.02595 -0.093304,0.0089 -0.098534,0.131379 -0.0054,0.126859 -0.0154,0.139784 -0.03865,0.0483 -0.0268,-0.105439 -0.04185,-0.0974 -0.1120542,0.06182 -0.079464,0.180288 -0.080139,0.179293 -0.086939,0.02705 -0.01255,-0.281203 -0.1154341,0.0064 -0.1333039,0.372867 -0.0091,0.186828 -0.04465,0.357437 -0.079209,0.380602 -0.0346,0.02315 0.01955,0.06096 0.119779,0.08307 0.1002393,0.0221 0.5015411,0.133619 0.8925731,0.247293 0.7382943,0.214623 1.2497103,0.234973 1.5568329,0.119444 0.1725637,-0.06491 0.5137361,-0.408917 0.5139061,-0.517771 3.05e-4,-0.193303 0.6922098,-1.041297 1.2277208,-1.267035 0.5225861,-0.220288 0.7473991,-0.503106 0.9229031,-0.786314 0.115739,-0.186768 0.114394,-0.188718 -0.465607,-0.272408 -0.172498,-0.0249 -0.318682,-0.08411 -0.351617,-0.142964 -0.03095,-0.05528 -0.07577,-0.08072 -0.1004641,-0.05603 -0.0247,0.0247 -0.08032,-0.003 -0.123649,-0.06182 -0.0269,-0.03665 -0.0456,-0.05945 -0.06182,-0.06376 l 5e-6,8.5e-5 z"
     id="path2873"
     style="opacity:0.54900004;fill:url(#linearGradient3680);fill-opacity:1;stroke:none" />
  <path
     d="m 3.3268351,0.68601841 -0.063754,0.166149 c -0.079569,0.20854899 0.065879,0.53286599 0.4211718,0.93893799 0.7275893,0.831593 1.804826,2.883798 1.8121909,3.450503 0.0025,0.173094 0.4514115,-0.489051 0.642695,-0.803049 C 6.4077362,3.9976434 6.5111354,3.6932554 5.9399049,2.9349064 5.4284488,2.2559114 5.0657616,2.3272714 3.7653967,1.0994604 L 3.3268351,0.68601841 z"
     id="path3705"
     style="opacity:0.45899999;fill:url(#linearGradient3677);fill-opacity:1;stroke:none" />
  <path
     d="m 3.343815,1.8640144 c -0.01215,-0.0015 -0.0203,0.0087 -0.03285,0.02125 -0.02065,0.02065 0.093559,0.248293 0.253088,0.504246 0.1595288,0.255953 0.2967777,0.512201 0.3052526,0.569931 0.0085,0.05773 0.092984,0.183788 0.1893336,0.280138 0.2703229,0.270323 0.1000792,0.205978 -0.2782029,-0.104324 -0.5047161,-0.414017 -0.6338201,-0.353143 -0.1642187,0.07728 0.2133133,0.195513 0.4973961,0.447631 0.6317551,0.560271 0.1389089,0.116454 0.1900935,0.187458 0.1197841,0.164218 -0.522851,-0.172848 -0.9501977,-0.06881 -1.1862358,0.287863 -0.1839286,0.277943 -0.1557988,0.355967 0.088874,0.245358 l 0.1700137,-0.07728 -0.1603538,0.175813 c -0.089174,0.09632 -0.1642937,0.215609 -0.1661537,0.266613 -0.002,0.051 -0.04435,0.204014 -0.094664,0.340023 l -0.0483,0.158423 -0.03285,0.10433 0,0.0116 c 0.003,0 10e-4,0.002 0,0.0058 -4.299e-4,-0.002 0,-0.0045 0,-0.0058 -0.0015,0 -0.003,0.001 -0.004,0.002 l -0.002,0.0058 c -6e-5,5e-4 0,0.0015 0,0.002 0,0.0054 0.002,0.0116 0.0058,0.0116 -0.0025,-0.0025 -0.0015,-0.0087 0,-0.0135 0.0015,0.0069 0.00525,0.0135 0,0.0135 0.00515,0.0052 0.0161,-0.0052 0.02125,0 0.0207,0.09971 0.086974,0.270928 0.1190791,0.363998 0.01425,-0.02165 0.03055,-0.0488 0.03355,-0.04715 0.04435,-0.0486 0.123764,-0.154784 0.1989935,-0.272408 0.2095333,-0.327617 0.3990619,-0.544541 0.5428857,-0.622095 0.076494,-0.04125 0.05388,0.0379 -0.085009,0.307182 -0.3639822,0.70575 -0.130089,0.510582 0.3458223,-0.289797 0.2827428,-0.475507 0.4616314,-0.841259 0.4346967,-0.884843 -0.028,-0.0453 -0.0197,-0.05817 0.02125,-0.03285 0.0369,0.0228 0.084569,0.0119 0.1062592,-0.0232 0.0217,-0.0351 -0.096184,-0.250128 -0.262748,-0.479131 C 4.247353,3.2618694 3.9514303,2.8092474 3.7551118,2.4862454 3.4499042,1.9840734 3.3800197,1.8692744 3.343605,1.8641494 l 0,10e-6 z m -0.4520815,3.371294 c -3.1e-4,0.0187 5e-4,0.0359 0.002,0.03865 10e-4,0.0025 0.004,0.004 0.0058,0.0058 l -0.00775,-0.04445 z m 0.02125,0.131374 c -4.95e-4,0.0015 3.7e-4,0.0015 0,0.004 6.5e-5,-5e-4 0.002,-10e-4 0.002,-0.002 l -0.002,-0.002 0,-5e-6 z m 0,0.01355 c -9.999e-4,0.0087 -0.002,0.0175 0.002,0.0251 10e-4,0.002 0.0035,0.0025 0.0058,0.002 l -0.004,-0.0251 c -4.95e-4,4.35e-4 -0.001,0.002 -0.002,0.002 -0.0015,0 -0.0015,-0.0025 -0.002,-0.004 l 0,1e-5 z"
     id="path3752"
     style="opacity:0.60799997;fill:url(#linearGradient3674);fill-opacity:1;stroke:none" />
  <path
     d="m 7.9999923,8.5001084 c 0,0.276139 -0.2238573,0.499996 -0.4999962,0.499996 C 7.2238573,9.0001044 7,8.7762474 7,8.5001084 c 0,-0.276139 0.2238573,-0.499996 0.4999961,-0.499996 0.2761389,0 0.4999962,0.223857 0.4999962,0.499996 z"
     id="path3725"
     style="opacity:0.45100002;color:#000000;fill:#ffffff;fill-opacity:1;fill-rule:nonzero;stroke:none;stroke-width:0.93047386;marker:none;visibility:visible;display:inline;overflow:visible;enable-background:accumulate" />
  <path
     d="m 12.999992,8.5001086 c 0,0.276139 -0.223857,0.499996 -0.499996,0.499996 C 12.223857,9.0001046 12,8.7762476 12,8.5001086 c 0,-0.276139 0.223857,-0.499996 0.499996,-0.499996 0.276139,0 0.499996,0.223857 0.499996,0.499996 z"
     id="path3725-8"
     style="opacity:0.45100002;color:#000000;fill:#ffffff;fill-opacity:1;fill-rule:nonzero;stroke:none;stroke-width:0.93047386;marker:none;visibility:visible;display:inline;overflow:visible;enable-background:accumulate" />
</svg>
