<?xml version="1.0" encoding="UTF-8" standalone="no"?>
<!-- Created with Inkscape (http://www.inkscape.org/) -->

<svg
   xmlns:svg="http://www.w3.org/2000/svg"
   xmlns="http://www.w3.org/2000/svg"
   xmlns:xlink="http://www.w3.org/1999/xlink"
   version="1.0"
   width="24"
   height="24"
   id="svg7205">
  <defs
     id="defs7207">
    <linearGradient
       x1="71.999496"
       y1="14.2578"
       x2="71.999496"
       y2="19.9583"
       id="linearGradient4305-4-8-8"
       gradientUnits="userSpaceOnUse"
       gradientTransform="matrix(1.0033404,0,0,1,-8.2374684,8)">
      <stop
         id="stop4307-0-1-5"
         style="stop-color:#feebd6;stop-opacity:0"
         offset="0.00445589" />
      <stop
         id="stop4309-8-0-7"
         style="stop-color:#f5f5f5;stop-opacity:0.52999997"
         offset="0.46138024" />
      <stop
         id="stop4311-0-3-4"
         style="stop-color:#f5f5f5;stop-opacity:0"
         offset="1" />
    </linearGradient>
    <linearGradient
       x1="7.2379346"
       y1="36.005047"
       x2="132.86028"
       y2="35.857735"
       id="linearGradient10493"
       xlink:href="#linearGradient4305-4-8-8"
       gradientUnits="userSpaceOnUse"
       gradientTransform="matrix(0.206832,0,0,0.94280901,-1.3627107,-26.279216)" />
    <linearGradient
       id="linearGradient9065">
      <stop
         id="stop9067"
         style="stop-color:#c90505;stop-opacity:1"
         offset="0" />
      <stop
         id="stop9069"
         style="stop-color:#a40000;stop-opacity:1"
         offset="1" />
    </linearGradient>
    <linearGradient
       x1="144"
       y1="97.019531"
       x2="144.00374"
       y2="110.00113"
       id="linearGradient10491"
       xlink:href="#linearGradient9065"
       gradientUnits="userSpaceOnUse"
       gradientTransform="translate(-133.99892,-91.000007)" />
    <linearGradient
       id="linearGradient9051">
      <stop
         id="stop9053"
         style="stop-color:#ff4f4f;stop-opacity:1"
         offset="0" />
      <stop
         id="stop9055"
         style="stop-color:#c90505;stop-opacity:1"
         offset="1" />
    </linearGradient>
    <linearGradient
       x1="28.108635"
       y1="327.61179"
       x2="28.108635"
       y2="406.28616"
       id="linearGradient10489"
       xlink:href="#linearGradient9051"
       gradientUnits="userSpaceOnUse"
       gradientTransform="matrix(0.1721822,0,0,0.1780642,7.1612791,-53.343896)" />
    <linearGradient
       id="linearGradient17648">
      <stop
         id="stop17650"
         style="stop-color:#ffffff;stop-opacity:0.60000002"
         offset="0" />
      <stop
         id="stop17652"
         style="stop-color:#ffffff;stop-opacity:0"
         offset="1" />
    </linearGradient>
    <linearGradient
       x1="24.689999"
       y1="9.9026108"
       x2="24.64839"
       y2="42.050255"
       id="linearGradient6327"
       xlink:href="#linearGradient17648"
       gradientUnits="userSpaceOnUse"
       gradientTransform="matrix(0.4276737,0,0,0.4666684,1.4589973,-1.6235582)" />
    <linearGradient
       id="linearGradient6293">
      <stop
         id="stop6295"
         style="stop-color:#888a85;stop-opacity:1"
         offset="0" />
      <stop
         id="stop6297"
         style="stop-color:#555753;stop-opacity:0"
         offset="1" />
    </linearGradient>
    <linearGradient
       x1="25.147449"
       y1="8.9330053"
       x2="25.146053"
       y2="32.880013"
       id="linearGradient17644"
       xlink:href="#linearGradient6293"
       gradientUnits="userSpaceOnUse"
       gradientTransform="matrix(0.4357475,0,0,0.4664545,1.0442561,-2.2591344)" />
    <radialGradient
       cx="605.71429"
       cy="486.64789"
       r="117.14286"
       fx="605.71429"
       fy="486.64789"
       id="radialGradient2099"
       xlink:href="#linearGradient5060"
       gradientUnits="userSpaceOnUse"
       gradientTransform="matrix(-3.0266061,0,0,2.3636471,203.87112,-1112.9945)" />
    <linearGradient
       id="linearGradient5060">
      <stop
         id="stop5062"
         style="stop-color:#000000;stop-opacity:1"
         offset="0" />
      <stop
         id="stop5064"
         style="stop-color:#000000;stop-opacity:0"
         offset="1" />
    </linearGradient>
    <radialGradient
       cx="605.71429"
       cy="486.64789"
       r="117.14286"
       fx="605.71429"
       fy="486.64789"
       id="radialGradient2097"
       xlink:href="#linearGradient5060"
       gradientUnits="userSpaceOnUse"
       gradientTransform="matrix(3.0266061,0,0,2.3636471,-1982.7418,-1112.9945)" />
    <linearGradient
       id="linearGradient5048">
      <stop
         id="stop5050"
         style="stop-color:#000000;stop-opacity:0"
         offset="0" />
      <stop
         id="stop5056"
         style="stop-color:#000000;stop-opacity:1"
         offset="0.5" />
      <stop
         id="stop5052"
         style="stop-color:#000000;stop-opacity:0"
         offset="1" />
    </linearGradient>
    <linearGradient
       x1="302.85715"
       y1="366.64789"
       x2="302.85715"
       y2="609.50507"
       id="linearGradient2095"
       xlink:href="#linearGradient5048"
       gradientUnits="userSpaceOnUse"
       gradientTransform="matrix(3.0266061,0,0,2.3636471,-1983.3374,-1112.9945)" />
    <radialGradient
       cx="17.058823"
       cy="41.058823"
       r="5.7384715"
       fx="15.544384"
       fy="39.027378"
       id="radialGradient2983"
       xlink:href="#linearGradient7067-814-120-245"
       gradientUnits="userSpaceOnUse"
       gradientTransform="matrix(0.37667571,-0.06311262,0,0.36451394,-2.446246,-0.69065449)" />
    <linearGradient
       id="linearGradient7067-814-120-245">
      <stop
         id="stop3877"
         style="stop-color:#aaaaaa;stop-opacity:1"
         offset="0" />
      <stop
         id="stop3879"
         style="stop-color:#4d4d4d;stop-opacity:1"
         offset="1" />
    </linearGradient>
    <radialGradient
       cx="17.058823"
       cy="41.058823"
       r="5.7384715"
       fx="15.970393"
       fy="39.105911"
       id="radialGradient2980"
       xlink:href="#linearGradient7067-814-120-245"
       gradientUnits="userSpaceOnUse"
       gradientTransform="matrix(0.3698584,-0.06212313,0,0.35879901,4.6705097,-1.5148309)" />
    <linearGradient
       id="linearGradient2918">
      <stop
         id="stop2920"
         style="stop-color:#aaaaaa;stop-opacity:1"
         offset="0" />
      <stop
         id="stop2922"
         style="stop-color:#4d4d4d;stop-opacity:1"
         offset="1" />
    </linearGradient>
    <linearGradient
       x1="28.739122"
       y1="144.11652"
       x2="25.400293"
       y2="119.86452"
       id="linearGradient2977"
       xlink:href="#linearGradient2372-5"
       gradientUnits="userSpaceOnUse"
       gradientTransform="matrix(0.12649532,0,0,0.12875595,2.1139996,-14.056928)" />
    <linearGradient
       id="linearGradient2372-5">
      <stop
         id="stop2374-7"
         style="stop-color:#ffffff;stop-opacity:1"
         offset="0" />
      <stop
         id="stop2376-4"
         style="stop-color:#ffffff;stop-opacity:0.37931034"
         offset="1" />
    </linearGradient>
    <linearGradient
       x1="28.739122"
       y1="144.11652"
       x2="26.256771"
       y2="125.39074"
       id="linearGradient2974"
       xlink:href="#linearGradient2372-5"
       gradientUnits="userSpaceOnUse"
       gradientTransform="matrix(0.2545239,0,0,0.12875595,6.0849926,-15.173532)" />
    <linearGradient
       id="linearGradient2929">
      <stop
         id="stop2931"
         style="stop-color:#ffffff;stop-opacity:1"
         offset="0" />
      <stop
         id="stop2933"
         style="stop-color:#ffffff;stop-opacity:0.37931034"
         offset="1" />
    </linearGradient>
    <linearGradient
       x1="28.739122"
       y1="144.11652"
       x2="26.256771"
       y2="125.39074"
       id="linearGradient2942"
       xlink:href="#linearGradient2372-5"
       gradientUnits="userSpaceOnUse"
       gradientTransform="matrix(0.2545239,0,0,0.12875595,6.0849926,-15.173532)" />
  </defs>
  <g
     transform="translate(0,2)"
     id="layer1">
    <g
       transform="matrix(0.0099322,0,0,0.00522622,20.835133,18.287575)"
       id="g13071"
       style="display:inline">
      <rect
         width="1461.4183"
         height="574.02856"
         x="-1620.1449"
         y="-246.36827"
         id="rect13073"
         style="opacity:0.40206185;fill:url(#linearGradient2095);fill-opacity:1;fill-rule:nonzero;stroke:none;stroke-width:1;marker:none;visibility:visible;display:inline;overflow:visible" />
      <path
         d="m -158.72638,-246.3485 c 0,0 0,573.99693 0,573.99693 155.8627195,1.08054 376.80022,-128.60359 376.80013,-287.035403 0,-158.431837 -173.931055,-286.961507 -376.80013,-286.961527 z"
         id="path13075"
         style="opacity:0.40206185;fill:url(#radialGradient2097);fill-opacity:1;fill-rule:nonzero;stroke:none;stroke-width:1;marker:none;visibility:visible;display:inline;overflow:visible" />
      <path
         d="m -1620.1447,-246.3485 c 0,0 0,573.99693 0,573.99693 -155.8628,1.08054 -376.8002,-128.60359 -376.8002,-287.035403 0,-158.431837 173.931,-286.961507 376.8002,-286.961527 z"
         id="path13077"
         style="opacity:0.40206185;fill:url(#radialGradient2099);fill-opacity:1;fill-rule:nonzero;stroke:none;stroke-width:1;marker:none;visibility:visible;display:inline;overflow:visible" />
    </g>
    <path
       d="m 21.502084,5.0000358 c 0.0013,-0.256621 -0.253922,-0.5000001 -0.5,-0.5000001 l -9.99989,0 -1.7511119,-1.5 c -0.229309,-0.183501 -0.50001,-0.496094 -0.75,-0.5 l -5.4989993,0 c -0.3281029,0 -0.501,0.15784 -0.501,0.5 l 0,15.4999643 19.0000012,0 0.001,-13.4999642 z"
       id="path15"
       style="fill:#eeeeec;fill-opacity:1;stroke:url(#linearGradient17644);stroke-width:0.9999305;stroke-miterlimit:4;stroke-dasharray:none" />
    <path
       d="m 20.502084,5.7500025 c 0.0068,-0.2517405 0.0058,-0.255491 -0.251,-0.2499667 l -9.650001,0 -1.7000009,-1.5000001 c -0.746049,-0.5986566 -0.494486,-0.4859206 -0.9,-0.5 l -4.2499996,0 c -0.3055089,0 -0.25,-0.070955 -0.25,0.2499667 l 0,1.2500334 0.001,12.4999642 17.0000015,0 0,-11.7499975 z"
       id="path7263"
       style="fill:none;stroke:url(#linearGradient6327);stroke-width:0.9999305;stroke-miterlimit:4;stroke-opacity:1;stroke-dasharray:none" />
    <path
       d="m 22.001084,18 c 0,0.495153 -0.483993,0.507964 -1,0.5 l -18.0000009,0 c -0.4960881,0 -0.9969056,0.0045 -1,-0.5 l -0.5,-10.9999978 c -0.02072,-0.292919 0.21492,-0.5 0.5,-0.5 l 20.0000009,0 c 0.28509,0 0.52177,0.207081 0.5,0.5 L 22.001084,18 z"
       id="path11507"
       style="opacity:0.9;fill:url(#linearGradient10489);fill-opacity:1;stroke:url(#linearGradient10491);stroke-width:0.99962622;stroke-miterlimit:4;stroke-opacity:1;stroke-dasharray:none;display:inline;enable-background:new" />
    <rect
       width="20"
       height="1"
       rx="0"
       ry="0"
       x="2.0010781"
       y="6.9999981"
       id="rect3521-5-0-1"
       style="fill:url(#linearGradient10493);fill-opacity:1;stroke:none;display:inline;enable-background:new" />
  </g>
  <g
     transform="translate(9.999999,8.000002)"
     id="layer1-1">
    <path
       d="M 12.887143,11.242639 12.520463,8.2875931"
       id="path2931"
       style="fill:none;stroke:none" />
    <path
       d="M 12.862181,0.50107998 C 10.505078,0.88091513 7.3505507,1.2719259 5,1.6729744 4.3775618,1.9766657 4.5174948,2.758676 4.4899572,3.3260967 c 0,2.5319424 0,5.0638848 0,7.5958273 -1.3117262,-0.246608 -2.9113558,0.837273 -2.9807337,2.553424 -0.1132522,1.068438 0.8342068,1.998453 1.8644819,2.023461 1.844664,0.04478 3.1062853,-1.179076 3.1262946,-2.726857 -0.020145,-2.599408 0.00566,-5.1998384 0,-7.7996448 0.2855763,-0.02115 4.61103,-0.8465037 5,-0.901457 0,1.9471472 0,3.8942945 0,5.8414417 -1.146387,-0.2746364 -2.6118971,0.4787211 -2.9752697,2.0172541 -0.15337,0.862385 0.1364969,1.944831 1.0115464,2.309984 1.7082373,0.784936 4.0532683,-0.805037 3.9579313,-2.671065 -0.02646,-3.4661732 0.02169,-6.933764 0,-10.4003066 -0.04486,-0.32575865 -0.265607,-0.69059252 -0.632027,-0.66707842 z"
       id="path4031"
       style="fill:#4d4d4d;fill-opacity:1;stroke:#333333;stroke-width:1;stroke-linecap:round;stroke-linejoin:round;stroke-miterlimit:4;stroke-opacity:1;stroke-dasharray:none" />
    <path
       d="m 5.9735639,12.865117 a 1.7166647,2.0994822 57.095252 0 1 -3.9883314,0.66825 1.7166647,2.0994822 57.095252 0 1 3.9883314,-0.66825 z"
       id="path2937"
       style="fill:url(#radialGradient2983);fill-opacity:1;stroke:none" />
    <path
       d="M 12.937933,11.82841 A 1.6885125,2.0629959 56.769744 0 1 9.0217849,12.486184 1.6885125,2.0629959 56.769744 1 1 12.937933,11.82841 z"
       id="path2941"
       style="fill:url(#radialGradient2980);fill-opacity:1;stroke:none" />
    <path
       d="M 5.0536869,11.476373 5,2.7939369 c 0,0 0.05877,-0.6637646 0.4947159,-0.6657879 0.1546126,-0.027048 6.9317151,-1.15654738 6.9317151,-1.15654738 0,0 0.132983,0.70947368 -6.0694897,1.62965478 -0.516931,0.077068 -0.76544,0.068481 -0.7627163,0.5583664 0.00735,1.3216244 -0.030358,3.795953 -0.030358,8.6082552 0,0.03443 -0.3254384,-0.243938 -0.5101806,-0.291505 z"
       id="path2945"
       style="opacity:0.4;fill:url(#linearGradient2977);fill-opacity:1;fill-rule:evenodd;stroke:none" />
    <path
       d="m 12,10.271349 0.03393,-6.5590211 c 0.357493,-0.0323 0.05489,-0.00519 0.53695,-0.053577 0.0066,1.2251582 2.74e-4,2.2420961 2.74e-4,6.8691941 0,0.03443 -0.199425,-0.209029 -0.571151,-0.256596 z"
       id="path2947"
       style="opacity:0.4;fill:url(#linearGradient2942);fill-opacity:1;fill-rule:evenodd;stroke:none" />
  </g>
</svg>
