<?xml version="1.0" encoding="UTF-8" standalone="no"?>
<!-- Created with Inkscape (http://www.inkscape.org/) -->

<svg
   xmlns:svg="http://www.w3.org/2000/svg"
   xmlns="http://www.w3.org/2000/svg"
   xmlns:xlink="http://www.w3.org/1999/xlink"
   version="1.0"
   width="24"
   height="24"
   id="svg7205">
  <defs
     id="defs7207">
    <linearGradient
       x1="71.999496"
       y1="14.2578"
       x2="71.999496"
       y2="19.9583"
       id="linearGradient4305-4-8-8"
       gradientUnits="userSpaceOnUse"
       gradientTransform="matrix(1.0033404,0,0,1,-8.2374684,8)">
      <stop
         id="stop4307-0-1-5"
         style="stop-color:#feebd6;stop-opacity:0"
         offset="0.00445589" />
      <stop
         id="stop4309-8-0-7"
         style="stop-color:#f5f5f5;stop-opacity:0.52999997"
         offset="0.46138024" />
      <stop
         id="stop4311-0-3-4"
         style="stop-color:#f5f5f5;stop-opacity:0"
         offset="1" />
    </linearGradient>
    <linearGradient
       x1="7.2379346"
       y1="36.005047"
       x2="132.86028"
       y2="35.857735"
       id="linearGradient10493"
       xlink:href="#linearGradient4305-4-8-8"
       gradientUnits="userSpaceOnUse"
       gradientTransform="matrix(0.206832,0,0,0.94280904,-1.3627107,-26.279216)" />
    <linearGradient
       id="linearGradient9065">
      <stop
         id="stop9067"
         style="stop-color:#c90505;stop-opacity:1"
         offset="0" />
      <stop
         id="stop9069"
         style="stop-color:#a40000;stop-opacity:1"
         offset="1" />
    </linearGradient>
    <linearGradient
       x1="144"
       y1="97.019531"
       x2="144.00374"
       y2="110.00113"
       id="linearGradient10491"
       xlink:href="#linearGradient9065"
       gradientUnits="userSpaceOnUse"
       gradientTransform="translate(-133.99892,-91.000007)" />
    <linearGradient
       id="linearGradient9051">
      <stop
         id="stop9053"
         style="stop-color:#ff4f4f;stop-opacity:1"
         offset="0" />
      <stop
         id="stop9055"
         style="stop-color:#c90505;stop-opacity:1"
         offset="1" />
    </linearGradient>
    <linearGradient
       x1="28.108635"
       y1="327.61179"
       x2="28.108635"
       y2="406.28616"
       id="linearGradient10489"
       xlink:href="#linearGradient9051"
       gradientUnits="userSpaceOnUse"
       gradientTransform="matrix(0.1721822,0,0,0.1780642,7.1612791,-53.343896)" />
    <linearGradient
       id="linearGradient17648">
      <stop
         id="stop17650"
         style="stop-color:#ffffff;stop-opacity:0.60000002"
         offset="0" />
      <stop
         id="stop17652"
         style="stop-color:#ffffff;stop-opacity:0"
         offset="1" />
    </linearGradient>
    <linearGradient
       x1="24.689999"
       y1="9.9026108"
       x2="24.64839"
       y2="42.050255"
       id="linearGradient6327"
       xlink:href="#linearGradient17648"
       gradientUnits="userSpaceOnUse"
       gradientTransform="matrix(0.4276737,0,0,0.4666684,1.4589973,-1.6235588)" />
    <linearGradient
       id="linearGradient6293">
      <stop
         id="stop6295"
         style="stop-color:#888a85;stop-opacity:1"
         offset="0" />
      <stop
         id="stop6297"
         style="stop-color:#555753;stop-opacity:0"
         offset="1" />
    </linearGradient>
    <linearGradient
       x1="25.147449"
       y1="8.9330053"
       x2="25.146053"
       y2="32.880013"
       id="linearGradient17644"
       xlink:href="#linearGradient6293"
       gradientUnits="userSpaceOnUse"
       gradientTransform="matrix(0.4357475,0,0,0.4664545,1.0442561,-2.259135)" />
    <radialGradient
       cx="605.71429"
       cy="486.64789"
       r="117.14286"
       fx="605.71429"
       fy="486.64789"
       id="radialGradient2099"
       xlink:href="#linearGradient5060"
       gradientUnits="userSpaceOnUse"
       gradientTransform="matrix(-3.0266061,0,0,2.3636471,203.87112,-1112.9945)" />
    <linearGradient
       id="linearGradient5060">
      <stop
         id="stop5062"
         style="stop-color:#000000;stop-opacity:1"
         offset="0" />
      <stop
         id="stop5064"
         style="stop-color:#000000;stop-opacity:0"
         offset="1" />
    </linearGradient>
    <radialGradient
       cx="605.71429"
       cy="486.64789"
       r="117.14286"
       fx="605.71429"
       fy="486.64789"
       id="radialGradient2097"
       xlink:href="#linearGradient5060"
       gradientUnits="userSpaceOnUse"
       gradientTransform="matrix(3.0266061,0,0,2.3636471,-1982.7418,-1112.9945)" />
    <linearGradient
       id="linearGradient5048">
      <stop
         id="stop5050"
         style="stop-color:#000000;stop-opacity:0"
         offset="0" />
      <stop
         id="stop5056"
         style="stop-color:#000000;stop-opacity:1"
         offset="0.5" />
      <stop
         id="stop5052"
         style="stop-color:#000000;stop-opacity:0"
         offset="1" />
    </linearGradient>
    <linearGradient
       x1="302.85715"
       y1="366.64789"
       x2="302.85715"
       y2="609.50507"
       id="linearGradient2095"
       xlink:href="#linearGradient5048"
       gradientUnits="userSpaceOnUse"
       gradientTransform="matrix(3.0266061,0,0,2.3636471,-1983.3374,-1112.9945)" />
    <linearGradient
       x1="-22.539846"
       y1="11.109024"
       x2="-22.539846"
       y2="46.263954"
       id="linearGradient3131"
       xlink:href="#linearGradient3522-803"
       gradientUnits="userSpaceOnUse"
       gradientTransform="matrix(0.5249863,0,0,0.61774379,31.923336,-3.489209)" />
    <linearGradient
       id="linearGradient3522-803">
      <stop
         id="stop5703"
         style="stop-color:#bb9f93;stop-opacity:1"
         offset="0" />
      <stop
         id="stop5705"
         style="stop-color:#996751;stop-opacity:1"
         offset="1" />
    </linearGradient>
    <linearGradient
       x1="7.5449719"
       y1="32.613293"
       x2="15.029721"
       y2="32.245388"
       id="linearGradient3133"
       xlink:href="#linearGradient6691-281"
       gradientUnits="userSpaceOnUse"
       gradientTransform="matrix(0.59833851,0,0,0.60133878,5.4855546,-3.112042)" />
    <linearGradient
       id="linearGradient6691-281">
      <stop
         id="stop5709"
         style="stop-color:#634437;stop-opacity:1"
         offset="0" />
      <stop
         id="stop5711"
         style="stop-color:#a88778;stop-opacity:1"
         offset="1" />
    </linearGradient>
    <linearGradient
       id="linearGradient3600">
      <stop
         id="stop3602"
         style="stop-color:#f4f4f4;stop-opacity:1"
         offset="0" />
      <stop
         id="stop3604"
         style="stop-color:#dbdbdb;stop-opacity:1"
         offset="1" />
    </linearGradient>
    <linearGradient
       id="linearGradient3931">
      <stop
         id="stop3933"
         style="stop-color:#8d8f8a;stop-opacity:1"
         offset="0" />
      <stop
         id="stop3935"
         style="stop-color:#c1c1c1;stop-opacity:1"
         offset="1" />
    </linearGradient>
    <linearGradient
       x1="32.892288"
       y1="8.0590115"
       x2="36.358372"
       y2="5.4565363"
       id="linearGradient3059"
       xlink:href="#linearGradient8589"
       gradientUnits="userSpaceOnUse"
       gradientTransform="matrix(0.3707081,0,0,0.3548465,-0.8566575,-0.04895116)" />
    <linearGradient
       id="linearGradient8589">
      <stop
         id="stop8591"
         style="stop-color:#fefefe;stop-opacity:1"
         offset="0" />
      <stop
         id="stop8593"
         style="stop-color:#cbcbcb;stop-opacity:1"
         offset="1" />
    </linearGradient>
    <linearGradient
       x1="17.288921"
       y1="2.184907"
       x2="15.179585"
       y2="5.8214641"
       id="linearGradient3061"
       xlink:href="#linearGradient4559"
       gradientUnits="userSpaceOnUse"
       gradientTransform="matrix(0.6844293,0,0,0.6820072,-0.2131519,0.1569169)" />
    <linearGradient
       id="linearGradient4559">
      <stop
         id="stop4561"
         style="stop-color:#c0c0c0;stop-opacity:1"
         offset="0" />
      <stop
         id="stop4563"
         style="stop-color:#949492;stop-opacity:1"
         offset="1" />
    </linearGradient>
    <linearGradient
       x1="5.0678191"
       y1="4.5037227"
       x2="5.0678191"
       y2="18.154421"
       id="linearGradient3003"
       xlink:href="#linearGradient3932"
       gradientUnits="userSpaceOnUse"
       gradientTransform="matrix(0.8527832,0,0,0.8564799,9.352944,8.3271358)" />
    <linearGradient
       id="linearGradient3932">
      <stop
         id="stop3934"
         style="stop-color:#828282;stop-opacity:1"
         offset="0" />
      <stop
         id="stop3936"
         style="stop-color:#434343;stop-opacity:1"
         offset="1" />
    </linearGradient>
    <linearGradient
       x1="2.6708329"
       y1="18.300243"
       x2="2.6708329"
       y2="0.7810511"
       id="linearGradient3005"
       xlink:href="#linearGradient3582"
       gradientUnits="userSpaceOnUse"
       gradientTransform="matrix(0.8527832,0,0,0.8564799,9.352944,8.3271358)" />
    <linearGradient
       id="linearGradient3582">
      <stop
         id="stop3584"
         style="stop-color:#333333;stop-opacity:1"
         offset="0" />
      <stop
         id="stop3586"
         style="stop-color:#5a5a5a;stop-opacity:1"
         offset="1" />
    </linearGradient>
    <linearGradient
       x1="12.872127"
       y1="5.0561161"
       x2="12.872127"
       y2="21.467987"
       id="linearGradient2998"
       xlink:href="#linearGradient3522-803-902"
       gradientUnits="userSpaceOnUse"
       gradientTransform="matrix(0.6581265,0,0,0.6674529,9.3928,8.7872956)" />
    <linearGradient
       id="linearGradient3522-803-902">
      <stop
         id="stop3535"
         style="stop-color:#c5c5c5;stop-opacity:1"
         offset="0" />
      <stop
         id="stop3537"
         style="stop-color:#939393;stop-opacity:1"
         offset="1" />
    </linearGradient>
    <linearGradient
       x1="5.6597543"
       y1="18.299864"
       x2="5.6597543"
       y2="1"
       id="linearGradient3000"
       xlink:href="#linearGradient3582"
       gradientUnits="userSpaceOnUse"
       gradientTransform="matrix(0.8374561,0,0,0.8569233,9.482126,8.3229046)" />
    <linearGradient
       id="linearGradient3074">
      <stop
         id="stop3076"
         style="stop-color:#333333;stop-opacity:1"
         offset="0" />
      <stop
         id="stop3078"
         style="stop-color:#5a5a5a;stop-opacity:1"
         offset="1" />
    </linearGradient>
    <linearGradient
       x1="25"
       y1="0"
       x2="25"
       y2="16.000105"
       id="linearGradient3262"
       xlink:href="#linearGradient3309"
       gradientUnits="userSpaceOnUse"
       gradientTransform="translate(-17.058189,0)" />
    <linearGradient
       x1="63.9995"
       y1="3.1001"
       x2="63.9995"
       y2="122.8994"
       id="linearGradient3309"
       gradientUnits="userSpaceOnUse">
      <stop
         id="stop3311"
         style="stop-color:#f6f6f6;stop-opacity:1"
         offset="0" />
      <stop
         id="stop3313"
         style="stop-color:#cccccc;stop-opacity:1"
         offset="1" />
    </linearGradient>
    <linearGradient
       x1="21"
       y1="0"
       x2="21"
       y2="16.004715"
       id="linearGradient3264"
       xlink:href="#linearGradient3397"
       gradientUnits="userSpaceOnUse"
       gradientTransform="translate(-17.058189,0)" />
    <linearGradient
       id="linearGradient3397">
      <stop
         id="stop3399"
         style="stop-color:#aaaaaa;stop-opacity:1"
         offset="0" />
      <stop
         id="stop3401"
         style="stop-color:#8c8c8c;stop-opacity:1"
         offset="1" />
    </linearGradient>
    <linearGradient
       x1="86.132919"
       y1="105.105"
       x2="84.63858"
       y2="20.895"
       id="linearGradient3260"
       xlink:href="#linearGradient5128"
       gradientUnits="userSpaceOnUse"
       gradientTransform="matrix(0.09614231,0,0,0.09614231,1.8468935,1.9430362)" />
    <linearGradient
       id="linearGradient5128">
      <stop
         id="stop5130"
         style="stop-color:#e5e5e5;stop-opacity:1"
         offset="0" />
      <stop
         id="stop5132"
         style="stop-color:#ababab;stop-opacity:1"
         offset="1" />
    </linearGradient>
  </defs>
  <g
     transform="translate(0,2)"
     id="layer1">
    <g
       transform="matrix(0.0099322,0,0,0.00522622,20.835133,18.287575)"
       id="g13071"
       style="display:inline">
      <rect
         width="1461.4183"
         height="574.02856"
         x="-1620.1449"
         y="-246.36827"
         id="rect13073"
         style="opacity:0.40206185;fill:url(#linearGradient2095);fill-opacity:1;fill-rule:nonzero;stroke:none;stroke-width:1;marker:none;visibility:visible;display:inline;overflow:visible" />
      <path
         d="m -158.72638,-246.3485 c 0,0 0,573.99693 0,573.99693 155.8627195,1.08054 376.80022,-128.60359 376.80013,-287.035403 0,-158.431837 -173.931055,-286.961507 -376.80013,-286.961527 z"
         id="path13075"
         style="opacity:0.40206185;fill:url(#radialGradient2097);fill-opacity:1;fill-rule:nonzero;stroke:none;stroke-width:1;marker:none;visibility:visible;display:inline;overflow:visible" />
      <path
         d="m -1620.1447,-246.3485 c 0,0 0,573.99693 0,573.99693 -155.8628,1.08054 -376.8002,-128.60359 -376.8002,-287.035403 0,-158.431837 173.931,-286.961507 376.8002,-286.961527 z"
         id="path13077"
         style="opacity:0.40206185;fill:url(#radialGradient2099);fill-opacity:1;fill-rule:nonzero;stroke:none;stroke-width:1;marker:none;visibility:visible;display:inline;overflow:visible" />
    </g>
    <path
       d="m 21.502084,5.0000355 c 0.0013,-0.2566213 -0.253922,-0.5000004 -0.5,-0.5000004 l -9.99989,0 -1.7511119,-1.5 c -0.229309,-0.183501 -0.50001,-0.496094 -0.75,-0.5 l -5.4989993,0 c -0.3281029,0 -0.501,0.15784 -0.501,0.5 l 0,15.4999649 19.0000012,0 0.001,-13.4999645 z"
       id="path15"
       style="fill:#eeeeec;fill-opacity:1;stroke:url(#linearGradient17644);stroke-width:0.9999305;stroke-miterlimit:4;stroke-dasharray:none" />
    <path
       d="m 20.502084,5.7500022 c 0.0068,-0.2517405 0.0058,-0.255491 -0.251,-0.2499667 l -9.650001,0 -1.7000009,-1.5000004 c -0.746049,-0.5986566 -0.494486,-0.4859206 -0.9,-0.5 l -4.2499996,0 c -0.3055089,0 -0.25,-0.070955 -0.25,0.2499667 l 0,1.2500337 0.001,12.4999645 17.0000015,0 0,-11.7499978 z"
       id="path7263"
       style="fill:none;stroke:url(#linearGradient6327);stroke-width:0.9999305;stroke-miterlimit:4;stroke-opacity:1;stroke-dasharray:none" />
    <path
       d="m 22.001084,18 c 0,0.495153 -0.483993,0.507964 -1,0.5 l -18.0000009,0 c -0.4960881,0 -0.9969056,0.0045 -1,-0.5 l -0.5,-10.9999981 c -0.02072,-0.292919 0.21492,-0.5 0.5,-0.5 l 20.0000009,0 c 0.28509,0 0.52177,0.207081 0.5,0.5 L 22.001084,18 z"
       id="path11507"
       style="opacity:0.9;fill:url(#linearGradient10489);fill-opacity:1;stroke:url(#linearGradient10491);stroke-width:0.99962622;stroke-miterlimit:4;stroke-opacity:1;stroke-dasharray:none;display:inline;enable-background:new" />
    <rect
       width="20"
       height="1"
       rx="0"
       ry="0"
       x="2.0010781"
       y="6.9999981"
       id="rect3521-5-0-1"
       style="fill:url(#linearGradient10493);fill-opacity:1;stroke:none;display:inline;enable-background:new" />
    <g
       transform="translate(8.0000001,6)"
       id="g2467">
      <g
         id="g2479">
        <path
           d="M 6.9375,0.5 C 6.6890831,0.5 6.5,0.68908218 6.5,0.9375 l 0,1.25 C 5.9460971,2.3297005 5.448836,2.5593783 4.96875,2.84375 L 4.0625,1.9375 c -0.1756569,-0.1756579 -0.449342,-0.1756579 -0.625,0 l -1.5,1.5 c -0.175657,0.1756579 -0.175657,0.4493421 0,0.625 L 2.84375,4.96875 C 2.5593789,5.4488356 2.329701,5.9460968 2.1875,6.5 l -1.25,0 C 0.68908301,6.5 0.5,6.6890821 0.5,6.9375 l 0,2.125 c 1e-8,0.2484178 0.189083,0.4375 0.4375,0.4375 l 1.25,0 c 0.1422009,0.553903 0.371879,1.051164 0.65625,1.53125 L 1.9375,11.9375 c -0.175657,0.175658 -0.175657,0.449342 0,0.625 l 1.5,1.5 c 0.1756579,0.175658 0.449342,0.175658 0.625,0 L 4.96875,13.15625 C 5.4488361,13.440622 5.946097,13.6703 6.5,13.8125 l 0,1.25 c 1e-7,0.248418 0.189083,0.4375 0.4375,0.4375 l 2.125,0 C 9.3109176,15.5 9.5,15.310918 9.5,15.0625 l 0,-1.25 c 0.553903,-0.1422 1.051164,-0.371878 1.53125,-0.65625 l 0.90625,0.90625 c 0.175658,0.175658 0.449342,0.175658 0.625,0 l 1.5,-1.5 c 0.175658,-0.175658 0.175658,-0.449342 0,-0.625 L 13.15625,11.03125 C 13.440622,10.551164 13.6703,10.053903 13.8125,9.5 l 1.25,0 C 15.310918,9.5 15.5,9.3109174 15.5,9.0625 l 0,-2.125 C 15.5,6.6890822 15.310917,6.5 15.0625,6.5 l -1.25,0 C 13.6703,5.9460968 13.440622,5.4488356 13.15625,4.96875 L 14.0625,4.0625 c 0.175658,-0.1756579 0.175658,-0.449342 0,-0.625 l -1.5,-1.5 c -0.175658,-0.1756579 -0.449342,-0.1756579 -0.625,0 L 11.03125,2.84375 C 10.551164,2.5593783 10.053903,2.3297005 9.5,2.1875 l 0,-1.25 C 9.4999996,0.68908218 9.310918,0.5 9.0625,0.5 l -2.125,0 z M 8,6 c 1.104,0 2,0.896 2,2 0,1.104 -0.896,2 -2,2 C 6.896,10 6,9.104 6,8 6,6.896 6.896,6 8,6 z"
           id="path2426"
           style="fill:url(#linearGradient3262);fill-opacity:1;fill-rule:nonzero;stroke:url(#linearGradient3264);stroke-width:0.99999994;stroke-linecap:butt;stroke-linejoin:round;stroke-miterlimit:4;stroke-opacity:1;stroke-dasharray:none;stroke-dashoffset:0;marker:none;visibility:visible;display:block;overflow:visible;enable-background:accumulate" />
        <path
           d="M 8,3.465116 C 5.4994229,3.465116 3.4651163,5.499423 3.4651163,8 3.4651163,10.500577 5.4994229,12.534884 8,12.534884 10.500576,12.534883 12.534884,10.500577 12.534884,8 12.534884,5.499423 10.500576,3.465116 8,3.465116 z M 8,5.55814 c 1.347907,0 2.44186,1.093953 2.44186,2.44186 0,1.347907 -1.093953,2.44186 -2.44186,2.44186 C 6.652093,10.44186 5.5581395,9.347907 5.5581395,8 5.5581395,6.652093 6.652093,5.55814 8,5.55814 z"
           id="path3315"
           style="opacity:0.05;fill:#000000;fill-opacity:1;stroke:none" />
        <path
           d="M 8.0000001,4 C 5.7943997,4 3.9999999,5.7944001 3.9999999,8.0000008 3.9999999,10.2056 5.7943997,12 8.0000001,12 10.2056,12 12,10.2056 12,8.0000008 12,5.7944001 10.2056,4 8.0000001,4 z"
           id="path28"
           style="fill:none;stroke:url(#linearGradient3260);stroke-width:1;stroke-miterlimit:4;stroke-dasharray:none" />
      </g>
    </g>
  </g>
</svg>
