<?xml version="1.0" encoding="UTF-8" standalone="no"?>
<!-- Created with Inkscape (http://www.inkscape.org/) -->

<svg
   xmlns:dc="http://purl.org/dc/elements/1.1/"
   xmlns:cc="http://creativecommons.org/ns#"
   xmlns:rdf="http://www.w3.org/1999/02/22-rdf-syntax-ns#"
   xmlns:svg="http://www.w3.org/2000/svg"
   xmlns="http://www.w3.org/2000/svg"
   xmlns:xlink="http://www.w3.org/1999/xlink"
   xmlns:sodipodi="http://sodipodi.sourceforge.net/DTD/sodipodi-0.dtd"
   xmlns:inkscape="http://www.inkscape.org/namespaces/inkscape"
   version="1.0"
   width="24"
   height="24"
   id="svg2482"
   inkscape:version="0.47 r22583"
   sodipodi:docname="paw_mainmenu_stub.svg">
  <metadata
     id="metadata3622">
    <rdf:RDF>
      <cc:Work
         rdf:about="">
        <dc:format>image/svg+xml</dc:format>
        <dc:type
           rdf:resource="http://purl.org/dc/dcmitype/StillImage" />
        <dc:title></dc:title>
      </cc:Work>
    </rdf:RDF>
  </metadata>
  <sodipodi:namedview
     pagecolor="#ffffff"
     bordercolor="#666666"
     borderopacity="1"
     objecttolerance="10"
     gridtolerance="10"
     guidetolerance="10"
     inkscape:pageopacity="0"
     inkscape:pageshadow="2"
     inkscape:window-width="1024"
     inkscape:window-height="694"
     id="namedview3620"
     showgrid="false"
     inkscape:zoom="13.754011"
     inkscape:cx="11.689316"
     inkscape:cy="9.7560761"
     inkscape:window-x="0"
     inkscape:window-y="25"
     inkscape:window-maximized="1"
     inkscape:current-layer="svg2482" />
  <defs
     id="defs2484">
    <inkscape:perspective
       sodipodi:type="inkscape:persp3d"
       inkscape:vp_x="0 : 12 : 1"
       inkscape:vp_y="0 : 1000 : 0"
       inkscape:vp_z="24 : 12 : 1"
       inkscape:persp3d-origin="12 : 8 : 1"
       id="perspective3624" />
    <linearGradient
       id="linearGradient3584">
      <stop
         id="stop3586"
         style="stop-color:#f19765;stop-opacity:1"
         offset="0" />
      <stop
         id="stop3588"
         style="stop-color:#de1000;stop-opacity:1"
         offset="1" />
    </linearGradient>
    <radialGradient
       cx="11.376413"
       cy="11.482934"
       r="9.936264"
       fx="11.376413"
       fy="11.482934"
       id="radialGradient3590"
       xlink:href="#linearGradient3584"
       gradientUnits="userSpaceOnUse"
       gradientTransform="matrix(1.3236902,-4.4149302e-8,4.6758856e-8,1.4019302,-3.4122575,-5.2396272)" />
    <inkscape:perspective
       id="perspective3689"
       inkscape:persp3d-origin="0.5 : 0.33333333 : 1"
       inkscape:vp_z="1 : 0.5 : 1"
       inkscape:vp_y="0 : 1000 : 0"
       inkscape:vp_x="0 : 0.5 : 1"
       sodipodi:type="inkscape:persp3d" />
    <inkscape:perspective
       id="perspective3702"
       inkscape:persp3d-origin="0.5 : 0.33333333 : 1"
       inkscape:vp_z="1 : 0.5 : 1"
       inkscape:vp_y="0 : 1000 : 0"
       inkscape:vp_x="0 : 0.5 : 1"
       sodipodi:type="inkscape:persp3d" />
    <inkscape:perspective
       id="perspective3728"
       inkscape:persp3d-origin="0.5 : 0.33333333 : 1"
       inkscape:vp_z="1 : 0.5 : 1"
       inkscape:vp_y="0 : 1000 : 0"
       inkscape:vp_x="0 : 0.5 : 1"
       sodipodi:type="inkscape:persp3d" />
    <inkscape:perspective
       id="perspective3741"
       inkscape:persp3d-origin="0.5 : 0.33333333 : 1"
       inkscape:vp_z="1 : 0.5 : 1"
       inkscape:vp_y="0 : 1000 : 0"
       inkscape:vp_x="0 : 0.5 : 1"
       sodipodi:type="inkscape:persp3d" />
    <inkscape:perspective
       id="perspective2866"
       inkscape:persp3d-origin="0.5 : 0.33333333 : 1"
       inkscape:vp_z="1 : 0.5 : 1"
       inkscape:vp_y="0 : 1000 : 0"
       inkscape:vp_x="0 : 0.5 : 1"
       sodipodi:type="inkscape:persp3d" />
    <radialGradient
       cx="11.376413"
       cy="11.482934"
       r="9.936264"
       fx="11.376413"
       fy="11.482934"
       id="radialGradient3590-3"
       xlink:href="#linearGradient3584-3"
       gradientUnits="userSpaceOnUse"
       gradientTransform="matrix(1.3236902,-4.4149302e-8,4.6758856e-8,1.4019302,-3.4122575,-5.2396272)" />
    <linearGradient
       id="linearGradient3584-3">
      <stop
         id="stop3586-3"
         style="stop-color:#f19765;stop-opacity:1"
         offset="0" />
      <stop
         id="stop3588-8"
         style="stop-color:#de1000;stop-opacity:1"
         offset="1" />
    </linearGradient>
    <radialGradient
       r="9.936264"
       fy="11.482934"
       fx="11.376413"
       cy="11.482934"
       cx="11.376413"
       gradientTransform="matrix(1.3236902,-4.4149302e-8,4.6758856e-8,1.4019302,-3.4122575,-5.2396272)"
       gradientUnits="userSpaceOnUse"
       id="radialGradient2875"
       xlink:href="#linearGradient3584-3"
       inkscape:collect="always" />
    <inkscape:perspective
       id="perspective2905"
       inkscape:persp3d-origin="0.5 : 0.33333333 : 1"
       inkscape:vp_z="1 : 0.5 : 1"
       inkscape:vp_y="0 : 1000 : 0"
       inkscape:vp_x="0 : 0.5 : 1"
       sodipodi:type="inkscape:persp3d" />
    <radialGradient
       cx="11.376413"
       cy="11.482934"
       r="9.936264"
       fx="11.376413"
       fy="11.482934"
       id="radialGradient3590-2"
       xlink:href="#linearGradient3584-6"
       gradientUnits="userSpaceOnUse"
       gradientTransform="matrix(1.3236902,-4.4149302e-8,4.6758856e-8,1.4019302,-3.4122575,-5.2396272)" />
    <linearGradient
       id="linearGradient3584-6">
      <stop
         id="stop3586-5"
         style="stop-color:#f19765;stop-opacity:1"
         offset="0" />
      <stop
         id="stop3588-2"
         style="stop-color:#de1000;stop-opacity:1"
         offset="1" />
    </linearGradient>
    <radialGradient
       r="9.936264"
       fy="11.482934"
       fx="11.376413"
       cy="11.482934"
       cx="11.376413"
       gradientTransform="matrix(1.3236902,-4.4149302e-8,4.6758856e-8,1.4019302,-3.4122575,-5.2396272)"
       gradientUnits="userSpaceOnUse"
       id="radialGradient2914"
       xlink:href="#linearGradient3584-6"
       inkscape:collect="always" />
    <inkscape:perspective
       id="perspective2905-2"
       inkscape:persp3d-origin="0.5 : 0.33333333 : 1"
       inkscape:vp_z="1 : 0.5 : 1"
       inkscape:vp_y="0 : 1000 : 0"
       inkscape:vp_x="0 : 0.5 : 1"
       sodipodi:type="inkscape:persp3d" />
    <radialGradient
       cx="11.376413"
       cy="11.482934"
       r="9.936264"
       fx="11.376413"
       fy="11.482934"
       id="radialGradient3590-4"
       xlink:href="#linearGradient3584-7"
       gradientUnits="userSpaceOnUse"
       gradientTransform="matrix(1.3236902,-4.4149302e-8,4.6758856e-8,1.4019302,-3.4122575,-5.2396272)" />
    <linearGradient
       id="linearGradient3584-7">
      <stop
         id="stop3586-9"
         style="stop-color:#f19765;stop-opacity:1"
         offset="0" />
      <stop
         id="stop3588-3"
         style="stop-color:#de1000;stop-opacity:1"
         offset="1" />
    </linearGradient>
    <radialGradient
       r="9.936264"
       fy="11.482934"
       fx="11.376413"
       cy="11.482934"
       cx="11.376413"
       gradientTransform="matrix(1.3236902,-4.4149302e-8,4.6758856e-8,1.4019302,-3.4122575,-5.2396272)"
       gradientUnits="userSpaceOnUse"
       id="radialGradient2914-9"
       xlink:href="#linearGradient3584-7"
       inkscape:collect="always" />
    <inkscape:perspective
       id="perspective2905-4"
       inkscape:persp3d-origin="0.5 : 0.33333333 : 1"
       inkscape:vp_z="1 : 0.5 : 1"
       inkscape:vp_y="0 : 1000 : 0"
       inkscape:vp_x="0 : 0.5 : 1"
       sodipodi:type="inkscape:persp3d" />
    <radialGradient
       cx="11.376413"
       cy="11.482934"
       r="9.936264"
       fx="11.376413"
       fy="11.482934"
       id="radialGradient3590-9"
       xlink:href="#linearGradient3584-2"
       gradientUnits="userSpaceOnUse"
       gradientTransform="matrix(1.3236902,-4.4149302e-8,4.6758856e-8,1.4019302,-3.4122575,-5.2396272)" />
    <linearGradient
       id="linearGradient3584-2">
      <stop
         id="stop3586-57"
         style="stop-color:#f19765;stop-opacity:1"
         offset="0" />
      <stop
         id="stop3588-4"
         style="stop-color:#de1000;stop-opacity:1"
         offset="1" />
    </linearGradient>
    <radialGradient
       r="9.936264"
       fy="11.482934"
       fx="11.376413"
       cy="11.482934"
       cx="11.376413"
       gradientTransform="matrix(1.3236902,-4.4149302e-8,4.6758856e-8,1.4019302,-3.4122575,-5.2396272)"
       gradientUnits="userSpaceOnUse"
       id="radialGradient2914-99"
       xlink:href="#linearGradient3584-2"
       inkscape:collect="always" />
  </defs>
  <path
     d="m 10.338498,22.606821 c -0.3856925,-0.45215 -0.5081585,-1.36727 -1.2903375,-1.25028 -1.1351,0.09831 -2.023906,-0.72213 -2.993291,-1.16411 -0.654504,-0.30694 -1.419927,-9.4e-4 -2.065587,-0.37205 -1.418197,-0.67766 -2.079211,-2.37609 -1.895252,-3.83148 0.160374,-1.16706 0.873492,-2.2049 1.764911,-2.95692 0.77271,-0.50993 1.746117,-0.61251 2.58262,-1.00107 0.650953,-0.19743 1.110561,-0.67281 1.619578,-1.07837 0.855685,-0.53299 2.0640745,-0.69467 2.9296815,-0.04263 0.752891,0.50306 1.575729,0.9103 2.301593,1.44729 0.566869,0.59751 0.428377,1.47123 0.589257,2.20652 0.06733,1.44421 0.694144,2.78971 0.947327,4.20218 0.206668,0.84495 -0.138127,1.66569 -0.616411,2.34124 -0.547228,0.79425 -1.133205,1.80679 -2.22714,1.89286 -0.545403,-0.02667 -1.229591,0.02902 -1.646949,-0.39318 z m 6.302901,-6.9664 c -0.344922,-0.630649 -0.599256,-1.518144 -0.09889,-2.14174 0.808109,-1.007124 1.808274,-1.85182 2.840267,-2.63 0.470478,-0.42154 0.994529,-0.359381 1.684819,-0.03292 0.728403,0.344487 0.97561,1.195174 0.827937,1.921477 -0.214737,1.056137 -0.589966,2.205233 -1.684345,2.657713 -0.950104,0.39881 -2.012998,0.877151 -3.068443,0.61042 -0.208172,-0.05261 -0.400056,-0.199749 -0.501348,-0.38495 z M 3.5076465,10.370011 C 2.8215565,9.9717608 2.2767555,9.3183448 2.1600125,8.5254946 2.0118035,7.5189448 2.1942893,6.4379076 2.877774,5.6619183 3.4867273,4.9705476 4.2557435,4.1299808 5.2944825,4.2411408 c 0.905041,0.0276 0.850102,0.85756 0.856049,1.4953 0.08246,0.7199475 0.4112994,1.3849658 0.5651325,2.0867449 0.02656,0.1211663 0.02893,0.2413399 0.00571,0.3259839 -0.2148907,0.7835034 -0.7811816,1.4490027 -1.3809069,1.9902214 -0.407283,0.48371 -1.0414045,0.622177 -1.663871,0.31421 l -0.168953,-0.08359 -1e-6,0 z m 10.8352235,0.47866 c -0.62949,-0.333214 -1.526738,-0.8950832 -1.222478,-1.7028302 0.284874,-0.756283 0.712591,-1.4506893 0.986253,-2.21795 0.333821,-0.9359272 0.959711,-2.2555374 1.370202,-2.65287 0.658241,-0.6371405 1.747678,-0.6214949 2.63682,-0.51999 1.08571,0.1239451 1.627999,1.2744979 1.892598,2.21088 0.195048,0.6902479 0.278195,1.4512999 -0.123095,2.06456 -0.514998,0.7870299 -1.236289,1.4384131 -1.966377,2.0319802 -0.673639,0.547673 -1.523532,0.91945 -2.396716,1.05504 -0.411473,0.05977 -0.813933,-0.07652 -1.177207,-0.26882 z M 9.4537045,8.4587708 c -1.116082,-1.04586 -1.589,-2.66411 -1.377063,-4.12154 0.198065,-0.831 0.6895932,-1.5531138 1.245381,-2.18753 0.4792092,-0.5470038 1.0732415,-1.1106091 1.8930535,-1.13093 0.86452,-0.0214291 1.869602,0.043278 2.491845,0.65485 0.537455,0.5282384 0.909872,1.48322 0.529506,2.21021 -0.713866,1.13872 -1.372806,2.31301 -1.899584,3.55065 -0.280894,0.53366 -0.470819,1.31372 -1.195637,1.39263 -0.572006,0.06063 -1.1998745,-0.04306 -1.6875015,-0.36834 z"
     id="path2463"
     style="fill:url(#radialGradient3590);fill-opacity:1" />
  <path
     style="opacity:0.74021349;fill:#ffefda;fill-opacity:1;fill-rule:evenodd;stroke:none;display:inline"
     d="M 13.46875 14.375 C 13.365988 14.369334 13.260399 14.402481 13.15625 14.40625 C 13.327221 14.400967 13.516117 14.420598 13.6875 14.4375 C 13.747999 14.443466 13.814679 14.428857 13.875 14.4375 C 13.737365 14.412513 13.610852 14.382835 13.46875 14.375 z M 13.6875 14.4375 C 13.461755 14.413231 13.234254 14.417599 13 14.4375 C 12.775632 14.456561 12.543301 14.498624 12.3125 14.5625 C 12.303827 14.565128 12.289915 14.559798 12.28125 14.5625 C 12.271303 14.565337 12.259923 14.559572 12.25 14.5625 C 11.194384 14.911173 10.507246 15.801861 10.1875 16.8125 C 10.195128 16.782416 10.179103 16.748583 10.1875 16.71875 C 10.164571 16.800714 10.142174 16.885234 10.125 16.96875 C 10.09501 17.114738 10.075335 17.256255 10.0625 17.40625 C 10.065824 17.35475 10.05738 17.301391 10.0625 17.25 C 10.023184 17.557003 10.031123 17.876692 10.0625 18.1875 C 10.074617 18.302996 10.104364 18.41756 10.125 18.53125 C 10.144569 18.637256 10.160162 18.739467 10.1875 18.84375 C 10.195789 18.876468 10.209742 18.904909 10.21875 18.9375 C 10.227657 18.968646 10.240409 19.000321 10.25 19.03125 C 10.323165 19.275887 10.419245 19.495568 10.53125 19.71875 C 10.497644 19.652923 10.436444 19.598936 10.40625 19.53125 C 10.504295 19.760361 10.616355 20.006444 10.75 20.21875 C 10.772759 20.247762 10.820093 20.252961 10.84375 20.28125 C 10.950648 20.421617 11.063182 20.537137 11.1875 20.65625 C 11.216655 20.683895 11.260938 20.706553 11.28125 20.71875 C 11.272231 20.702772 11.289988 20.672346 11.28125 20.65625 C 11.037948 20.049021 10.870894 19.37606 10.875 18.6875 C 10.832132 19.138636 10.864343 19.592429 11 20.03125 C 10.798238 19.430743 10.761902 18.794834 10.90625 18.21875 C 10.917675 18.102954 10.917872 17.990678 10.9375 17.875 C 10.723977 18.590175 10.697628 19.370925 10.90625 20.0625 C 10.85704 20.000701 10.82594 19.9427 10.78125 19.875 C 10.602604 19.603678 10.46683 19.321585 10.375 19 C 10.055603 17.588459 10.659053 16.270589 11.96875 15.375 C 12.624219 14.940789 13.315152 14.92035 13.96875 15.125 C 13.942283 14.936405 13.883936 14.754185 13.875 14.5625 C 13.868378 14.532237 13.880677 14.499454 13.875 14.46875 C 13.811552 14.458521 13.751716 14.444404 13.6875 14.4375 z M 10.9375 17.875 C 11.066606 17.537599 11.288927 17.228007 11.53125 16.96875 C 11.443107 17.082564 11.383803 17.220437 11.3125 17.34375 C 11.407988 17.210954 11.500916 17.082432 11.625 16.96875 C 12.111939 16.466948 12.910485 16.072983 13.5625 16.375 C 13.601057 16.361736 13.648807 16.356113 13.6875 16.34375 C 12.984604 16.074774 12.268401 16.299077 11.71875 16.78125 C 11.817669 16.673677 11.915497 16.563543 12.03125 16.46875 C 12.484857 16.146742 13.154124 16.107809 13.6875 16.34375 C 13.847947 16.414724 13.998171 16.501928 14.125 16.625 C 13.746654 16.560803 13.36226 16.585849 13.03125 16.6875 C 13.260632 16.59944 13.504121 16.503807 13.75 16.46875 C 13.692332 16.428406 13.62311 16.403075 13.5625 16.375 C 13.234504 16.487831 12.941545 16.660172 12.65625 16.84375 C 12.502187 16.924491 12.377182 17.011228 12.25 17.125 C 12.239274 17.134689 12.229262 17.146346 12.21875 17.15625 C 12.207461 17.166823 12.198535 17.17668 12.1875 17.1875 C 12.177206 17.197621 12.16632 17.208413 12.15625 17.21875 C 11.943477 17.432608 11.816273 17.681187 11.71875 17.96875 C 11.710934 17.992248 11.694438 18.007333 11.6875 18.03125 C 11.657631 18.132001 11.6372 18.233617 11.625 18.34375 C 11.607662 18.740027 11.664701 19.146502 11.78125 19.5 C 11.842279 19.676578 11.91415 19.840579 12 20 C 11.945797 19.901648 11.918119 19.792698 11.875 19.6875 C 11.955456 19.867701 12.047918 20.063136 12.15625 20.21875 C 12.105343 20.144079 12.043968 20.07978 12 20 C 12.422009 20.783657 13.11128 21.335174 14 21.40625 C 14.008047 21.394399 14.023241 21.386817 14.03125 21.375 C 13.9774 21.368828 13.927532 21.352962 13.875 21.34375 C 13.929143 21.353385 13.977147 21.33776 14.03125 21.34375 C 14.088573 21.259113 14.162742 21.175041 14.21875 21.09375 C 14.302972 20.974791 14.363839 20.846053 14.4375 20.71875 C 14.022618 20.766483 13.582341 20.700424 13.1875 20.46875 C 13.245341 20.598337 13.25464 20.589173 13.3125 20.71875 C 12.884811 20.55508 12.597886 20.245707 12.40625 19.90625 C 12.55077 20.142233 12.740538 20.316004 13 20.375 C 13.333369 20.468993 13.685989 20.572361 14.03125 20.625 C 13.235533 20.370453 12.740986 19.750569 12.5 18.90625 C 12.557861 19.035832 12.34839 19.276672 12.40625 19.40625 C 11.755959 18.29786 12.84411 16.882149 13.96875 17.3125 C 14.241122 17.416728 14.450661 17.545191 14.59375 17.71875 C 14.305434 17.385351 13.911056 17.162544 13.40625 17.15625 C 13.620333 17.140801 13.85945 17.160342 14.09375 17.25 C 14.280214 17.34616 14.433989 17.458972 14.5625 17.59375 C 14.439646 17.155661 14.303426 16.720444 14.1875 16.28125 C 13.842411 16.097604 13.459515 15.975698 13.0625 16 C 11.917308 16.060466 11.232581 16.886655 10.9375 17.875 z M 10.90625 18.21875 C 10.899034 18.291885 10.91028 18.364479 10.90625 18.4375 C 10.937882 18.247826 10.967993 18.087878 11.03125 17.90625 C 10.991448 18.009541 10.933344 18.110618 10.90625 18.21875 z M 11.03125 17.90625 C 11.083934 17.754979 11.175554 17.611331 11.25 17.46875 C 11.160304 17.610244 11.09143 17.750076 11.03125 17.90625 z M 12.3125 14.5625 C 12.539099 14.500083 12.764815 14.454616 13 14.4375 C 13.052946 14.433647 13.103091 14.407893 13.15625 14.40625 C 12.872364 14.416524 12.595656 14.47671 12.3125 14.5625 z M 12.375 17.78125 C 12.256668 17.967643 12.167798 18.18527 12.125 18.4375 C 12.100133 18.642871 12.102357 18.854058 12.125 19.0625 C 12.146529 19.260682 12.215627 19.450248 12.28125 19.625 C 12.207469 19.437821 12.15702 19.254596 12.125 19.0625 C 12.100017 18.91262 12.068068 18.766219 12.0625 18.625 C 12.07541 18.329926 12.190325 18.038699 12.375 17.78125 z M 14.875 19.125 C 14.848109 19.34097 14.802222 19.54951 14.75 19.75 C 14.774362 19.743655 14.789587 19.726008 14.8125 19.71875 C 14.850175 19.520891 14.890325 19.329525 14.875 19.125 z M 14.25 20.65625 C 14.294714 20.666183 14.328589 20.679625 14.375 20.6875 C 14.406408 20.688874 14.43804 20.688074 14.46875 20.6875 C 14.47324 20.679555 14.464311 20.664224 14.46875 20.65625 C 14.396453 20.655623 14.323598 20.662944 14.25 20.65625 z M 12.8125 20.90625 C 12.906836 20.973624 13.021568 21.039157 13.125 21.09375 C 13.074404 21.068067 13.018185 21.060257 12.96875 21.03125 C 12.914113 20.993025 12.863802 20.946046 12.8125 20.90625 z "
     id="path3513" />
  <path
     style="opacity:0.74021349000000003;fill:#ffecd4;fill-opacity:1;fill-rule:evenodd;display:inline"
     d="M 3.34375 5.15625 C 3.32792 5.1723217 3.3281358 5.2025766 3.3125 5.21875 C 4.1887506 5.2689959 5.0493779 5.7840691 5.4375 6.625 C 5.656801 7.282902 5.657351 8.154598 5.21875 8.8125 C 5.040567 9.031801 4.834213 9.234209 4.625 9.40625 C 4.415676 9.578292 4.2028514 9.717323 3.96875 9.84375 C 3.8405598 9.8969118 3.6988959 9.9548794 3.5625 10 C 3.7458586 9.9684877 3.8195178 9.9640902 3.9375 9.9375 C 3.9791981 9.928656 4.0209762 9.9147595 4.0625 9.90625 C 4.1047321 9.89723 4.1453444 9.8836143 4.1875 9.875 C 4.433666 9.731687 4.6557 9.538165 4.84375 9.34375 C 5.21985 8.95482 5.519187 8.474239 5.65625 7.84375 C 5.9173549 6.3641556 4.6417845 5.2321438 3.34375 5.15625 z M 5.1875 6 C 5.584768 6.482933 5.8185306 7.1019669 5.75 7.71875 C 5.640349 8.376652 5.373246 8.906794 5 9.3125 C 5.0657649 9.2496948 5.1563983 9.2242825 5.21875 9.15625 C 6.0569422 8.234238 5.9474454 6.8884355 5.1875 6 z M 2.53125 7.0625 C 2.408526 7.0803973 2.310224 7.1049309 2.1875 7.125 C 2.1862348 7.1252069 2.1887652 7.1560484 2.1875 7.15625 C 2.3946785 7.1540493 2.59462 7.1371525 2.78125 7.0625 C 2.6990123 7.0350875 2.6134877 7.050507 2.53125 7.0625 z M 6.28125 12.09375 C 6.239087 12.111413 6.198944 12.139701 6.15625 12.15625 C 6.6973011 12.467864 7.1690786 12.914601 7.40625 13.53125 C 7.735203 14.435866 7.4407962 15.217098 6.90625 15.875 C 7.7216336 14.784265 7.5858667 13.295404 6.40625 12.4375 C 6.2789819 12.331444 6.1479185 12.260731 6 12.1875 C 5.9477336 12.206246 5.8965257 12.232335 5.84375 12.25 C 6.50375 12.556045 7.0468259 13.105332 7.28125 13.75 C 7.500552 14.736853 7.189705 15.717098 6.3125 16.375 C 5.5541652 16.896357 4.6957736 17.176966 3.84375 17.25 C 3.62292 17.268929 3.4086808 17.257524 3.1875 17.25 C 3.0281298 17.244579 2.8772096 17.268482 2.71875 17.25 C 2.5248383 17.227462 2.3160706 17.197463 2.125 17.15625 C 2.127061 17.168348 2.1540815 17.175414 2.15625 17.1875 C 2.3050288 17.216406 2.4440525 17.259825 2.59375 17.28125 C 3.0408855 17.345244 3.4984786 17.367291 3.9375 17.34375 C 4.3765214 17.320209 4.8122811 17.235974 5.21875 17.09375 C 5.4219844 17.022638 5.6219859 16.950373 5.8125 16.84375 C 5.6256417 16.950104 5.4141387 17.020612 5.21875 17.09375 C 4.7973635 17.251484 4.3820106 17.315476 3.9375 17.34375 C 3.4923851 17.372062 3.0393575 17.34843 2.59375 17.28125 C 2.4494865 17.259501 2.2989898 17.248126 2.15625 17.21875 C 2.1621985 17.250583 2.1808061 17.280778 2.1875 17.3125 C 2.2167597 17.320367 2.2515815 17.336957 2.28125 17.34375 C 4.2335784 17.710421 6.446812 17.200131 7.40625 15.28125 C 7.954503 14.184746 7.518104 12.876652 6.53125 12.21875 C 6.4539257 12.165218 6.3627238 12.139539 6.28125 12.09375 z M 3.1875 17.25 C 3.4108862 17.260418 3.6217643 17.268565 3.84375 17.25 C 4.9536787 17.157175 6.0261025 16.665376 6.75 15.71875 C 7.188602 15.170498 7.188052 14.407903 6.96875 13.75 C 7.188052 15.504406 5.738507 16.827299 4.09375 17.15625 C 3.3741706 17.259047 2.7433909 17.203686 2.125 17.03125 C 2.1278871 17.051825 2.1218028 17.073199 2.125 17.09375 C 2.4648991 17.17634 2.836173 17.233616 3.1875 17.25 z "
     id="path3527" />
  <path
     style="opacity:0.74021349;fill:#ffdec2;fill-opacity:1;fill-rule:evenodd;display:inline"
     d="M 11.59375 1.03125 C 11.103285 1.1964803 10.670186 1.4482504 10.5 1.8125 C 10.007507 2.4365156 10.133011 3.1532832 10.53125 3.71875 C 10.369818 3.4662733 10.276312 3.1409577 10.3125 2.75 C 10.475686 1.7467817 11.224976 1.3048486 12.09375 1.0625 C 11.925339 1.046496 11.760982 1.033604 11.59375 1.03125 z M 10.53125 3.71875 C 10.838892 4.1555762 11.296894 4.483007 11.8125 4.59375 C 11.391251 4.5302067 10.944067 4.4023267 10.59375 4.15625 C 11.199937 4.6274025 12.09352 4.7374797 12.8125 4.46875 C 12.834176 4.4726578 12.853407 4.4679141 12.875 4.46875 C 12.941652 4.4334156 13.029762 4.3907988 13.09375 4.34375 C 13.077087 4.3925619 13.015357 4.4316818 12.96875 4.46875 C 13.450179 4.3917478 13.876927 3.693534 14.0625 3.3125 C 13.438355 4.6087198 11.230788 4.8128157 10.53125 3.71875 z M 12.96875 4.46875 C 12.936655 4.4738835 12.907389 4.4700038 12.875 4.46875 C 12.768074 4.5254354 12.673969 4.5963823 12.5625 4.625 C 12.743792 4.5995916 12.875535 4.5428864 12.96875 4.46875 z M 10.59375 4.15625 C 10.474805 4.0726984 10.372164 3.9806928 10.28125 3.875 C 10.369513 3.9885992 10.480976 4.0685979 10.59375 4.15625 z M 19.96875 5.875 C 19.938246 5.8829442 19.893237 5.898926 19.875 5.90625 C 19.893302 5.9055301 19.945639 5.9079952 19.96875 5.90625 C 19.96606 5.8970821 19.971493 5.8842017 19.96875 5.875 z M 15.09375 7.8125 C 14.973991 7.7974042 14.868541 7.8234411 14.78125 7.84375 C 14.824993 7.8450107 14.866774 7.87001 14.90625 7.875 C 15.033526 7.8910885 15.133338 7.919715 15.21875 7.96875 C 15.104789 7.9402696 14.987892 7.9268361 14.875 7.9375 C 14.698712 8.0164042 14.574876 8.0957169 14.46875 8.15625 C 14.482416 8.2142812 14.56433 8.2817246 14.71875 8.34375 C 15.514743 8.0097907 14.177665 8.3026186 15 7.96875 C 15.148725 8.0375221 15.255866 8.1139061 15.34375 8.1875 C 15.406524 8.2400671 15.464814 8.2901718 15.5 8.34375 C 15.542295 8.5692952 15.456372 8.836147 15.3125 9.0625 C 15.282215 9.0973877 15.25107 9.157266 15.21875 9.1875 C 15.246864 9.1601927 15.287223 9.1537767 15.3125 9.125 C 15.405685 9.0162631 15.486169 8.9014517 15.53125 8.78125 C 15.538754 8.7616905 15.525404 8.7383996 15.53125 8.71875 C 15.550642 8.6673958 15.564023 8.6157583 15.5625 8.5625 C 15.566392 8.5321893 15.595397 8.4997504 15.59375 8.46875 C 15.600667 8.5302711 15.605957 8.5921709 15.59375 8.65625 C 15.698304 8.3176998 15.567044 8.1347474 15.375 8.03125 C 15.40509 8.0619979 15.414001 8.0942725 15.4375 8.125 C 15.422898 8.1116493 15.391578 8.1063519 15.375 8.09375 C 15.398388 8.122937 15.420629 8.1547781 15.4375 8.1875 C 15.3857 8.1263392 15.304166 8.0523107 15.21875 8 C 15.276173 8.0270854 15.331712 8.0608451 15.375 8.09375 C 15.360522 8.0756819 15.360816 8.0477525 15.34375 8.03125 C 15.274404 7.9629526 15.198506 7.879793 15.09375 7.8125 z M 15.3125 9.125 C 15.272492 9.1822574 15.236932 9.2311734 15.1875 9.28125 C 15.241231 9.2342654 15.267228 9.1778278 15.3125 9.125 z M 15.1875 9.28125 C 15.156347 9.312809 15.097023 9.3159129 15.0625 9.34375 C 14.984823 9.4063836 14.90487 9.4929908 14.8125 9.53125 C 14.951117 9.47229 15.073616 9.3808352 15.1875 9.28125 z M 15.0625 9.34375 C 15.127985 9.2966898 15.162522 9.2421147 15.21875 9.1875 C 14.865133 9.5182933 14.415551 9.5412131 14 9.40625 C 14.249828 9.4239319 14.509849 9.3896124 14.75 9.3125 C 14.811244 9.2928345 14.848995 9.2431707 14.90625 9.21875 C 14.493529 9.3278254 13.889964 9.2183535 13.46875 8.9375 C 13.518279 9.0113343 13.561696 9.0857627 13.625 9.15625 C 13.659382 9.2101215 13.712214 9.2378645 13.75 9.28125 C 13.667465 9.2245771 13.563892 9.1926653 13.5 9.125 C 13.591386 9.2027354 13.674747 9.2903174 13.78125 9.34375 C 13.730038 9.3319932 13.673106 9.3302131 13.625 9.3125 C 13.609127 9.3068557 13.578 9.3186469 13.5625 9.3125 C 13.756151 9.5688937 14.028756 9.6483131 14.3125 9.625 C 14.156704 9.6147192 14.045729 9.5121307 13.90625 9.40625 C 13.897255 9.4027232 13.883932 9.4099563 13.875 9.40625 C 13.868981 9.4014355 13.880964 9.3800217 13.875 9.375 C 13.907892 9.3801529 13.935116 9.4032202 13.96875 9.40625 C 13.950528 9.3999253 13.92424 9.4133036 13.90625 9.40625 C 14.137388 9.5555793 14.358299 9.6129658 14.5625 9.59375 C 14.729802 9.5440963 14.918432 9.4472824 15.0625 9.34375 z M 13.5 9.125 C 13.459052 9.0816336 13.440015 9.0160628 13.40625 8.96875 C 13.4197 9.0079753 13.421866 9.0585035 13.4375 9.09375 C 13.454386 9.1095422 13.482407 9.1100349 13.5 9.125 z M 13.4375 9.09375 C 13.36421 9.0252091 13.307604 8.9579274 13.25 8.875 C 13.241043 8.8960621 13.22753 8.9163624 13.21875 8.9375 C 13.283022 9.0744318 13.385118 9.1722622 13.5 9.25 C 13.472415 9.206094 13.460709 9.1460736 13.4375 9.09375 z M 13.46875 8.9375 C 13.419311 8.8637995 13.349091 8.7952875 13.3125 8.71875 C 13.327492 8.7518065 13.326917 8.779129 13.34375 8.8125 C 13.347022 8.818449 13.340384 8.8378478 13.34375 8.84375 C 13.386066 8.8783976 13.422189 8.9064545 13.46875 8.9375 z M 15.34375 8.1875 C 15.275659 8.2558438 15.197481 8.3063285 15.125 8.34375 C 15.341106 8.6655951 15.316425 8.9119381 15.15625 9.09375 C 15.368178 8.9290361 15.475312 8.6298479 15.34375 8.1875 z M 15.125 8.34375 C 15.116099 8.3304934 15.10348 8.3259825 15.09375 8.3125 C 14.996628 8.3816916 14.92097 8.4105044 14.84375 8.4375 C 14.935223 8.4315248 15.028921 8.3933553 15.125 8.34375 z M 14.46875 8.15625 C 14.44632 8.1690441 14.391587 8.1785808 14.375 8.1875 C 14.358188 8.2052822 14.350597 8.2093992 14.34375 8.21875 C 14.347653 8.21679 14.370567 8.2210894 14.375 8.21875 C 14.379511 8.2373644 14.426746 8.2324253 14.4375 8.25 C 14.435619 8.2175563 14.459758 8.1901561 14.46875 8.15625 z M 14.875 7.9375 C 14.901693 7.9255524 14.91052 7.9171288 14.9375 7.90625 C 14.923254 7.9011726 14.921063 7.8798861 14.90625 7.875 C 14.787531 7.8912696 14.701677 7.9095831 14.625 7.9375 C 14.570077 7.9750063 14.529601 8.0141594 14.5 8.0625 C 14.557572 7.9939489 14.710177 7.9530693 14.875 7.9375 z M 14.5 8.0625 C 14.528099 8.0350885 14.524055 7.9741864 14.5625 7.9375 C 14.444397 7.9889783 14.392656 8.060461 14.375 8.125 C 14.387356 8.1123221 14.452201 8.1100937 14.46875 8.09375 C 14.474432 8.0818486 14.492889 8.0741121 14.5 8.0625 z M 14.625 7.9375 C 14.669075 7.9074015 14.689096 7.8614235 14.75 7.84375 C 14.728206 7.8435975 14.71033 7.842958 14.6875 7.84375 C 14.644582 7.8842665 14.660056 7.9041886 14.625 7.9375 z M 14.46875 8.34375 C 14.523278 8.4404871 14.627374 8.494657 14.8125 8.4375 C 14.665757 8.4398796 14.549448 8.4107789 14.46875 8.34375 z M 13.1875 9.03125 C 13.227194 9.0799003 13.260769 9.1167997 13.3125 9.15625 C 13.270623 9.1202395 13.222168 9.075967 13.1875 9.03125 z M 15 9.1875 C 14.933273 9.2222529 14.885446 9.285242 14.8125 9.3125 C 14.908929 9.2761393 14.9903 9.2429125 15.0625 9.1875 C 15.045466 9.1965649 15.017621 9.1788597 15 9.1875 z M 20.1875 10.5625 C 20.125065 10.643976 20.059212 10.736996 20 10.84375 C 19.381195 12.239578 21.038018 12.695756 21.9375 12.1875 C 21.931758 12.109522 21.889866 12.045296 21.875 11.96875 C 21.781813 12.063551 21.632533 12.107038 21.46875 12.15625 C 21.619823 12.10872 21.757554 12.016285 21.875 11.875 C 21.858904 11.809545 21.835636 11.750456 21.8125 11.6875 C 21.383735 12.287802 19.775315 11.731581 20.5 10.875 C 19.780942 11.692985 21.202156 12.502834 21.8125 11.78125 C 21.703636 11.935088 21.576643 12.107826 21.375 12.1875 C 21.365554 12.189517 21.353412 12.185644 21.34375 12.1875 C 21.298892 12.20397 21.236849 12.20724 21.1875 12.21875 C 20.755196 12.223581 20.305551 11.946836 20.125 11.5625 C 20.122584 11.632678 20.106462 11.717181 20.125 11.78125 C 20.049154 11.629433 20.022083 11.444209 20.0625 11.28125 C 20.071728 11.369229 20.089716 11.450589 20.125 11.53125 C 20.142906 11.283914 20.309357 11.05884 20.5 10.84375 C 20.508231 10.834526 20.522464 10.821781 20.53125 10.8125 C 20.567626 10.776009 20.610784 10.723712 20.65625 10.6875 C 20.613434 10.673613 20.572765 10.667131 20.53125 10.65625 C 20.321163 10.82061 20.12866 11.014872 20.0625 11.25 C 20.049336 11.044121 20.136462 10.808778 20.3125 10.59375 C 20.271295 10.588558 20.227505 10.56394 20.1875 10.5625 z M 20.21875 11.9375 C 20.25929 11.98146 20.318983 12.023277 20.375 12.0625 C 20.315089 12.021347 20.255458 11.990021 20.21875 11.9375 z M 20.65625 12.1875 C 20.754791 12.211268 20.869077 12.24699 21 12.25 C 20.922893 12.256843 20.867363 12.255259 20.78125 12.25 C 20.732949 12.23508 20.69918 12.20454 20.65625 12.1875 z "
     id="path3616" />
  <path
     style="opacity:0.77021353;fill:#fff6e3;fill-opacity:1;fill-rule:evenodd;display:inline"
     d="M 17.46875 3.71875 C 17.366619 3.8979741 17.288139 4.0849713 17.21875 4.28125 C 17.23314 4.2361637 17.264999 4.2005744 17.28125 4.15625 C 17.188413 4.3961524 17.130382 4.6221774 17.09375 4.875 C 17.07321 5.0167584 17.063539 5.1696996 17.0625 5.3125 C 17.064564 5.6432091 17.109412 5.9828653 17.21875 6.3125 C 17.45866 6.7297134 17.866013 7.0154346 18.40625 7.03125 C 17.776763 6.8676274 17.418775 6.4220475 17.25 5.875 C 17.415377 6.2740459 17.7246 6.6100905 18.09375 6.78125 C 18.739764 7.080781 19.451933 6.728223 19.84375 6.125 C 19.445226 6.500856 18.909017 6.945703 18.3125 6.78125 C 17.531405 6.53122 17.20762 5.807097 17.1875 5.125 C 17.198271 4.6297321 17.344755 4.1575507 17.59375 3.71875 C 17.563103 3.7171106 17.530802 3.7199659 17.5 3.71875 C 17.497821 3.722687 17.470915 3.7148048 17.46875 3.71875 z M 17.21875 6.3125 C 17.101964 5.9919819 17.060064 5.6472266 17.0625 5.3125 C 17.061584 5.1656409 17.075318 5.0188967 17.09375 4.875 C 17.119463 4.6742622 17.157972 4.4716734 17.21875 4.28125 C 17.058914 4.7333712 16.957357 5.2182309 17 5.71875 C 17.033989 5.9379301 17.11477 6.1316739 17.21875 6.3125 z M 17.21875 4.5625 C 17.16547 4.7833173 17.119493 5.0244495 17.125 5.25 C 17.113508 5.0291759 17.145544 4.780845 17.21875 4.5625 z "
     id="path3511" />
</svg>
