<?xml version="1.0" encoding="UTF-8" standalone="no"?>
<!-- Created with Inkscape (http://www.inkscape.org/) -->

<svg
   xmlns:dc="http://purl.org/dc/elements/1.1/"
   xmlns:cc="http://creativecommons.org/ns#"
   xmlns:rdf="http://www.w3.org/1999/02/22-rdf-syntax-ns#"
   xmlns:svg="http://www.w3.org/2000/svg"
   xmlns="http://www.w3.org/2000/svg"
   xmlns:xlink="http://www.w3.org/1999/xlink"
   xmlns:sodipodi="http://sodipodi.sourceforge.net/DTD/sodipodi-0.dtd"
   xmlns:inkscape="http://www.inkscape.org/namespaces/inkscape"
   sodipodi:docname="gnome-fs-web.svg"
   inkscape:version="0.47 r22583"
   id="svg2"
   height="48"
   width="48"
   version="1.0">
  <sodipodi:namedview
     pagecolor="#ffffff"
     bordercolor="#666666"
     borderopacity="1"
     objecttolerance="10"
     gridtolerance="10"
     guidetolerance="10"
     inkscape:pageopacity="0"
     inkscape:pageshadow="2"
     inkscape:window-width="659"
     inkscape:window-height="489"
     id="namedview77"
     showgrid="false"
     inkscape:zoom="4.9166667"
     inkscape:cx="24"
     inkscape:cy="24"
     inkscape:window-x="37"
     inkscape:window-y="63"
     inkscape:window-maximized="0"
     inkscape:current-layer="svg2" />
  <metadata
     id="metadata79">
    <rdf:RDF>
      <cc:Work
         rdf:about="">
        <dc:format>image/svg+xml</dc:format>
        <dc:type
           rdf:resource="http://purl.org/dc/dcmitype/StillImage" />
      </cc:Work>
    </rdf:RDF>
  </metadata>
  <defs
     id="defs4">
    <inkscape:perspective
       id="perspective81"
       inkscape:persp3d-origin="24 : 16 : 1"
       inkscape:vp_z="48 : 24 : 1"
       inkscape:vp_y="0 : 1000 : 0"
       inkscape:vp_x="0 : 24 : 1"
       sodipodi:type="inkscape:persp3d" />
    <linearGradient
       id="linearGradient6326">
      <stop
         offset="0"
         style="stop-color:#da4c12;stop-opacity:1"
         id="stop6328" />
      <stop
         offset="1"
         style="stop-color:#c52c11;stop-opacity:1"
         id="stop6330" />
    </linearGradient>
    <linearGradient
       id="linearGradient3156">
      <stop
         offset="0"
         style="stop-color:#ffffff;stop-opacity:1"
         id="stop3158" />
      <stop
         offset="1"
         style="stop-color:#ffffff;stop-opacity:0"
         id="stop3160" />
    </linearGradient>
    <linearGradient
       id="linearGradient6493">
      <stop
         offset="0"
         style="stop-color:#cd5132;stop-opacity:1"
         id="stop6495" />
      <stop
         offset="1"
         style="stop-color:#bb2b11;stop-opacity:1"
         id="stop6497" />
    </linearGradient>
    <linearGradient
       id="linearGradient4103">
      <stop
         offset="0"
         style="stop-color:#edab62;stop-opacity:1"
         id="stop4105" />
      <stop
         offset="1"
         style="stop-color:#e04922;stop-opacity:1"
         id="stop4107" />
    </linearGradient>
    <linearGradient
       id="linearGradient8838">
      <stop
         offset="0"
         style="stop-color:#000000;stop-opacity:1"
         id="stop8840" />
      <stop
         offset="1"
         style="stop-color:#000000;stop-opacity:0"
         id="stop8842" />
    </linearGradient>
    <radialGradient
       gradientTransform="matrix(1,0,0,0.341176,0,3.047059)"
       gradientUnits="userSpaceOnUse"
       xlink:href="#linearGradient8838"
       id="radialGradient5729"
       fy="4.625"
       fx="62.625"
       r="10.625"
       cy="4.625"
       cx="62.625" />
    <linearGradient
       gradientUnits="userSpaceOnUse"
       xlink:href="#linearGradient3156"
       id="linearGradient5745"
       y2="20.663898"
       x2="28.290144"
       y1="61.852856"
       x1="24.335312" />
    <linearGradient
       gradientUnits="userSpaceOnUse"
       xlink:href="#linearGradient3156"
       id="linearGradient5747"
       y2="20.663898"
       x2="28.290144"
       y1="-0.81503254"
       x1="27.888655" />
    <linearGradient
       gradientUnits="userSpaceOnUse"
       xlink:href="#linearGradient3156"
       id="linearGradient5749"
       y2="20.663898"
       x2="28.290144"
       y1="-2.3103411"
       x1="28.220636" />
    <linearGradient
       gradientUnits="userSpaceOnUse"
       xlink:href="#linearGradient3156"
       id="linearGradient5751"
       y2="24.653727"
       x2="29.724815"
       y1="55.647495"
       x1="30.501778" />
    <radialGradient
       gradientTransform="matrix(1.3571044,0.01021839,-0.00631345,0.8384895,-10.874695,1.3057951)"
       gradientUnits="userSpaceOnUse"
       xlink:href="#linearGradient3156"
       id="radialGradient5537"
       fy="4.7612267"
       fx="22.944935"
       r="14"
       cy="11.222695"
       cx="22.944935" />
    <radialGradient
       gradientTransform="matrix(1.0099925,-0.1119962,0.05668752,0.5112133,-5.8375646,1.7934718)"
       gradientUnits="userSpaceOnUse"
       xlink:href="#linearGradient3156"
       id="radialGradient5540"
       fy="10.874998"
       fx="22.125"
       r="20"
       cy="10.874998"
       cx="22.125" />
    <radialGradient
       gradientTransform="matrix(1.9524671,-0.05018139,0.03650944,1.4214826,-20.408334,-5.9089096)"
       gradientUnits="userSpaceOnUse"
       xlink:href="#linearGradient4103"
       id="radialGradient5551"
       fy="12.610249"
       fx="20.038782"
       r="22.463524"
       cy="12.610249"
       cx="20.038782" />
    <linearGradient
       gradientTransform="translate(-5.0000016,-6)"
       gradientUnits="userSpaceOnUse"
       xlink:href="#linearGradient6493"
       id="linearGradient5553"
       y2="50"
       x2="29.75"
       y1="29"
       x1="29.01346" />
    <radialGradient
       gradientTransform="matrix(2.2554569,0,-2.1857407e-8,2.0564463,-32.641879,-17.341228)"
       gradientUnits="userSpaceOnUse"
       xlink:href="#linearGradient6326"
       id="radialGradient6332"
       fy="15.240479"
       fx="26"
       r="15.074549"
       cy="15.240479"
       cx="26" />
    <radialGradient
       gradientTransform="matrix(1.0181815,0,0,0.14545458,-1115.7451,-12.423067)"
       gradientUnits="userSpaceOnUse"
       xlink:href="#linearGradient10997"
       id="radialGradient9214"
       fy="394.78125"
       fx="1120.375"
       r="20.625"
       cy="394.78125"
       cx="1120.375" />
    <linearGradient
       id="linearGradient10997">
      <stop
         offset="0"
         style="stop-color:#000000;stop-opacity:1"
         id="stop10999" />
      <stop
         offset="1"
         style="stop-color:#000000;stop-opacity:0"
         id="stop11001" />
    </linearGradient>
    <linearGradient
       gradientTransform="matrix(9.3885424,0,0,0.2235366,29.130395,-51.784906)"
       gradientUnits="userSpaceOnUse"
       xlink:href="#linearGradient272-6"
       id="linearGradient9216"
       y2="372.57819"
       x2="5.0856376"
       y1="372.57819"
       x1="0.61210024" />
    <linearGradient
       id="linearGradient272-6">
      <stop
         offset="0"
         style="stop-color:#474747;stop-opacity:0"
         id="stop273-1" />
      <stop
         offset="0.1"
         style="stop-color:#474747;stop-opacity:1"
         id="stop275-8" />
      <stop
         offset="0.89999998"
         style="stop-color:#474747;stop-opacity:1"
         id="stop276-3" />
      <stop
         offset="1"
         style="stop-color:#474747;stop-opacity:0"
         id="stop274-5" />
    </linearGradient>
    <linearGradient
       gradientTransform="matrix(9.3885418,0,0,0.2235361,29.130383,-45.865211)"
       gradientUnits="userSpaceOnUse"
       xlink:href="#linearGradient272-6"
       id="linearGradient9218"
       y2="372.57819"
       x2="5.0856376"
       y1="372.57819"
       x1="0.61210024" />
    <linearGradient
       gradientTransform="matrix(3.1119049,0,0,0.09123576,28.948795,19.750004)"
       gradientUnits="userSpaceOnUse"
       xlink:href="#linearGradient178-9"
       id="linearGradient9220"
       y2="117.8271"
       x2="15.343062"
       y1="117.8271"
       x1="1.6422368" />
    <linearGradient
       id="linearGradient178-9">
      <stop
         offset="0"
         style="stop-color:#ffffff;stop-opacity:0"
         id="stop179-9" />
      <stop
         offset="0.10827128"
         style="stop-color:#d9d9d9;stop-opacity:1"
         id="stop180-2" />
      <stop
         offset="0.92053902"
         style="stop-color:#d9d9d9;stop-opacity:1"
         id="stop181-7" />
      <stop
         offset="1"
         style="stop-color:#ffffff;stop-opacity:0"
         id="stop182-0" />
    </linearGradient>
    <linearGradient
       gradientTransform="matrix(0.7312763,0,0,0.6969978,7.86797,14.121439)"
       gradientUnits="userSpaceOnUse"
       xlink:href="#linearGradient9347"
       id="linearGradient9048"
       y2="46.03775"
       x2="23.143667"
       y1="38.296745"
       x1="23.100046" />
    <linearGradient
       id="linearGradient9347">
      <stop
         offset="0"
         style="stop-color:#7a7a7a;stop-opacity:1"
         id="stop9349" />
      <stop
         offset="0.1980198"
         style="stop-color:#ebebeb;stop-opacity:1"
         id="stop9351" />
      <stop
         offset="0.59900987"
         style="stop-color:#b9b9b9;stop-opacity:1"
         id="stop9353" />
      <stop
         offset="1"
         style="stop-color:#878787;stop-opacity:1"
         id="stop9355" />
    </linearGradient>
    <radialGradient
       gradientTransform="matrix(1,0,0,0.341176,0,3.047059)"
       gradientUnits="userSpaceOnUse"
       xlink:href="#linearGradient8838-217"
       id="radialGradient5729-686"
       fy="4.625"
       fx="62.625"
       r="10.625"
       cy="4.625"
       cx="62.625" />
    <linearGradient
       id="linearGradient8838-217">
      <stop
         offset="0"
         style="stop-color:#000000;stop-opacity:1"
         id="stop2942" />
      <stop
         offset="1"
         style="stop-color:#000000;stop-opacity:0"
         id="stop2944" />
    </linearGradient>
    <radialGradient
       gradientTransform="matrix(1.9524671,-0.05018139,0.03650944,1.4214826,-20.408334,-5.9089096)"
       gradientUnits="userSpaceOnUse"
       xlink:href="#linearGradient4103-226"
       id="radialGradient5551-917"
       fy="12.610249"
       fx="20.038782"
       r="22.463524"
       cy="12.610249"
       cx="20.038782" />
    <linearGradient
       id="linearGradient4103-226">
      <stop
         offset="0"
         style="stop-color:#ed8161;stop-opacity:1"
         id="stop2948" />
      <stop
         offset="1"
         style="stop-color:#e02133;stop-opacity:1"
         id="stop2950" />
    </linearGradient>
    <linearGradient
       gradientTransform="translate(-5.0000016,-6)"
       gradientUnits="userSpaceOnUse"
       xlink:href="#linearGradient6493-575"
       id="linearGradient5553-169"
       y2="50"
       x2="29.75"
       y1="29"
       x1="29.01346" />
    <linearGradient
       id="linearGradient6493-575">
      <stop
         offset="0"
         style="stop-color:#cd3141;stop-opacity:1"
         id="stop2954" />
      <stop
         offset="1"
         style="stop-color:#bb102a;stop-opacity:1"
         id="stop2956" />
    </linearGradient>
    <radialGradient
       gradientTransform="matrix(2.2554569,0,-2.1857407e-8,2.0564463,-32.641879,-17.341228)"
       gradientUnits="userSpaceOnUse"
       xlink:href="#linearGradient6326-459"
       id="radialGradient6332-913"
       fy="15.240479"
       fx="26"
       r="15.074549"
       cy="15.240479"
       cx="26" />
    <linearGradient
       id="linearGradient6326-459">
      <stop
         offset="0"
         style="stop-color:#da1113;stop-opacity:1"
         id="stop2960" />
      <stop
         offset="1"
         style="stop-color:#c5102c;stop-opacity:1"
         id="stop2962" />
    </linearGradient>
    <radialGradient
       gradientTransform="matrix(1.0099925,-0.1119962,0.05668752,0.5112133,-5.8375646,1.7934718)"
       gradientUnits="userSpaceOnUse"
       xlink:href="#linearGradient3156-357"
       id="radialGradient5540-261"
       fy="10.874998"
       fx="22.125"
       r="20"
       cy="10.874998"
       cx="22.125" />
    <linearGradient
       id="linearGradient3156-357">
      <stop
         offset="0"
         style="stop-color:#ffffff;stop-opacity:1"
         id="stop2966" />
      <stop
         offset="1"
         style="stop-color:#ffffff;stop-opacity:0"
         id="stop2968" />
    </linearGradient>
    <radialGradient
       gradientTransform="matrix(1.3571044,0.01021839,-0.00631345,0.8384895,-10.874695,1.3057951)"
       gradientUnits="userSpaceOnUse"
       xlink:href="#linearGradient3156-11"
       id="radialGradient5537-133"
       fy="4.7612267"
       fx="22.944935"
       r="14"
       cy="11.222695"
       cx="22.944935" />
    <linearGradient
       id="linearGradient3156-11">
      <stop
         offset="0"
         style="stop-color:#ffffff;stop-opacity:1"
         id="stop2972" />
      <stop
         offset="1"
         style="stop-color:#ffffff;stop-opacity:0"
         id="stop2974" />
    </linearGradient>
    <linearGradient
       gradientUnits="userSpaceOnUse"
       xlink:href="#linearGradient3156-45"
       id="linearGradient5745-17"
       y2="20.663898"
       x2="28.290144"
       y1="61.852856"
       x1="24.335312" />
    <linearGradient
       id="linearGradient3156-45">
      <stop
         offset="0"
         style="stop-color:#ffffff;stop-opacity:1"
         id="stop2978" />
      <stop
         offset="1"
         style="stop-color:#ffffff;stop-opacity:0"
         id="stop2980" />
    </linearGradient>
    <linearGradient
       gradientUnits="userSpaceOnUse"
       xlink:href="#linearGradient3156-969"
       id="linearGradient5747-540"
       y2="20.663898"
       x2="28.290144"
       y1="-0.81503254"
       x1="27.888655" />
    <linearGradient
       id="linearGradient3156-969">
      <stop
         offset="0"
         style="stop-color:#ffffff;stop-opacity:1"
         id="stop2984" />
      <stop
         offset="1"
         style="stop-color:#ffffff;stop-opacity:0"
         id="stop2986" />
    </linearGradient>
    <linearGradient
       gradientUnits="userSpaceOnUse"
       xlink:href="#linearGradient3156-188"
       id="linearGradient5749-815"
       y2="20.663898"
       x2="28.290144"
       y1="-2.3103411"
       x1="28.220636" />
    <linearGradient
       id="linearGradient3156-188">
      <stop
         offset="0"
         style="stop-color:#ffffff;stop-opacity:1"
         id="stop2990" />
      <stop
         offset="1"
         style="stop-color:#ffffff;stop-opacity:0"
         id="stop2992" />
    </linearGradient>
    <linearGradient
       gradientUnits="userSpaceOnUse"
       xlink:href="#linearGradient3156-662"
       id="linearGradient5751-86"
       y2="24.653727"
       x2="29.724815"
       y1="55.647495"
       x1="30.501778" />
    <linearGradient
       id="linearGradient3156-662">
      <stop
         offset="0"
         style="stop-color:#ffffff;stop-opacity:1"
         id="stop2996" />
      <stop
         offset="1"
         style="stop-color:#ffffff;stop-opacity:0"
         id="stop2998" />
    </linearGradient>
    <radialGradient
       gradientTransform="matrix(1.0181815,0,0,0.14545458,-1115.7451,-12.423067)"
       gradientUnits="userSpaceOnUse"
       xlink:href="#linearGradient10997-882"
       id="radialGradient9214-375"
       fy="394.78125"
       fx="1120.375"
       r="20.625"
       cy="394.78125"
       cx="1120.375" />
    <linearGradient
       id="linearGradient10997-882">
      <stop
         offset="0"
         style="stop-color:#000000;stop-opacity:1"
         id="stop3002" />
      <stop
         offset="1"
         style="stop-color:#000000;stop-opacity:0"
         id="stop3004" />
    </linearGradient>
    <linearGradient
       gradientTransform="matrix(9.3885424,0,0,0.2235366,29.130395,-51.784906)"
       gradientUnits="userSpaceOnUse"
       xlink:href="#linearGradient272-6-771"
       id="linearGradient9216-999"
       y2="372.57819"
       x2="5.0856376"
       y1="372.57819"
       x1="0.61210024" />
    <linearGradient
       id="linearGradient272-6-771">
      <stop
         offset="0"
         style="stop-color:#474747;stop-opacity:0"
         id="stop3008" />
      <stop
         offset="0.1"
         style="stop-color:#474747;stop-opacity:1"
         id="stop3010" />
      <stop
         offset="0.89999998"
         style="stop-color:#474747;stop-opacity:1"
         id="stop3012" />
      <stop
         offset="1"
         style="stop-color:#474747;stop-opacity:0"
         id="stop3014" />
    </linearGradient>
    <linearGradient
       gradientTransform="matrix(9.3885418,0,0,0.2235361,29.130383,-45.865211)"
       gradientUnits="userSpaceOnUse"
       xlink:href="#linearGradient272-6-23"
       id="linearGradient9218-647"
       y2="372.57819"
       x2="5.0856376"
       y1="372.57819"
       x1="0.61210024" />
    <linearGradient
       id="linearGradient272-6-23">
      <stop
         offset="0"
         style="stop-color:#474747;stop-opacity:0"
         id="stop3018" />
      <stop
         offset="0.1"
         style="stop-color:#474747;stop-opacity:1"
         id="stop3020" />
      <stop
         offset="0.89999998"
         style="stop-color:#474747;stop-opacity:1"
         id="stop3022" />
      <stop
         offset="1"
         style="stop-color:#474747;stop-opacity:0"
         id="stop3024" />
    </linearGradient>
    <linearGradient
       gradientTransform="matrix(3.1119049,0,0,0.09123576,28.948795,19.750004)"
       gradientUnits="userSpaceOnUse"
       xlink:href="#linearGradient178-9-291"
       id="linearGradient9220-732"
       y2="117.8271"
       x2="15.343062"
       y1="117.8271"
       x1="1.6422368" />
    <linearGradient
       id="linearGradient178-9-291">
      <stop
         offset="0"
         style="stop-color:#ffffff;stop-opacity:0"
         id="stop3028" />
      <stop
         offset="0.10827128"
         style="stop-color:#d9d9d9;stop-opacity:1"
         id="stop3030" />
      <stop
         offset="0.92053902"
         style="stop-color:#d9d9d9;stop-opacity:1"
         id="stop3032" />
      <stop
         offset="1"
         style="stop-color:#ffffff;stop-opacity:0"
         id="stop3034" />
    </linearGradient>
    <linearGradient
       gradientTransform="matrix(0.7312763,0,0,0.6969978,7.86797,14.121439)"
       gradientUnits="userSpaceOnUse"
       xlink:href="#linearGradient9347-665"
       id="linearGradient9048-94"
       y2="46.03775"
       x2="23.143667"
       y1="38.296745"
       x1="23.100046" />
    <linearGradient
       id="linearGradient9347-665">
      <stop
         offset="0"
         style="stop-color:#7a7a7a;stop-opacity:1"
         id="stop3038" />
      <stop
         offset="0.1980198"
         style="stop-color:#ebebeb;stop-opacity:1"
         id="stop3040" />
      <stop
         offset="0.59900987"
         style="stop-color:#b9b9b9;stop-opacity:1"
         id="stop3042" />
      <stop
         offset="1"
         style="stop-color:#878787;stop-opacity:1"
         id="stop3044" />
    </linearGradient>
  </defs>
  <rect
     style="fill:#d9d9d9;fill-opacity:1;stroke:#828282;stroke-width:1;stroke-miterlimit:4;stroke-opacity:1;stroke-dasharray:none"
     id="rect8955"
     y="35.49984"
     x="23.5"
     height="4.9998589"
     width="2.9998589" />
  <g
     id="layer1"
     transform="matrix(0.9,0,0,0.9,3.4000004,-1.55)">
    <g
       id="g6334">
      <path
         style="opacity:0.4;fill:url(#radialGradient5729-686);fill-opacity:1;fill-rule:evenodd;stroke:none;stroke-width:0.49589729;marker:none;visibility:visible;display:inline;overflow:visible"
         id="path8836"
         transform="matrix(1.9262213,0,0,2.1088276,-97.163508,29.602172)"
         d="m 73.25,4.625 c 0,2.0020323 -4.756974,3.6250001 -10.625,3.6250001 C 56.756974,8.2500001 52,6.6270323 52,4.625 52,2.6229677 56.756974,0.99999989 62.625,0.99999989 c 5.868026,0 10.625,1.62296781 10.625,3.62500011 l 0,0 z" />
      <path
         style="fill:url(#radialGradient5551-917);fill-opacity:1;stroke:url(#linearGradient5553-169);stroke-width:0.99815506;stroke-linecap:round;stroke-linejoin:round;stroke-miterlimit:4;stroke-opacity:1;stroke-dasharray:none;stroke-dashoffset:0"
         id="path1307"
         d="m 44.500921,23 c 0,11.316512 -9.178384,20.500922 -20.487463,20.500922 -11.30908,0 -20.4874629,-9.18441 -20.4874629,-20.500922 0,-11.316509 9.1783829,-20.5009224 20.4874629,-20.5009224 11.309079,0 20.487463,9.1844134 20.487463,20.5009224 z" />
      <path
         style="fill:url(#radialGradient6332-913);fill-opacity:1;fill-rule:nonzero;stroke:none"
         id="path6628"
         d="M 43.219099,18.237303 43.03226,18.957842 C 42.479353,18.498341 41.858575,18.11192 41.228194,17.708339 l -1.383757,0.143595 -1.264237,-1.007844 0,1.247283 1.083135,0.577996 0.720932,0.57578 0.963449,-0.768406 c 0.242517,0.320344 0.481723,0.640687 0.722585,0.961031 l 0,0.95998 -1.08479,0.864133 -1.985167,0.961031 -1.503445,1.058044 -0.963448,-0.770739 0.481724,-0.864133 -0.961957,-0.768403 -1.62462,-2.448926 -1.383757,-1.103574 -0.362204,0.287307 0.54314,1.393213 1.021718,0.816269 c 0.583533,1.18798 1.160774,2.323424 1.927064,3.458986 1.188253,0 2.30847,-0.08896 3.48861,-0.193795 l 0,0.672677 -1.443683,2.497372 -1.323998,1.05571 -1.083133,1.634872 c 0,0.896122 0,1.792244 0,2.688249 l 0.362204,1.058043 -0.601411,0.478882 -1.325653,0.576827 -1.383756,0.816269 1.14455,0.912115 -1.564859,0.962198 0.300623,0.622477 -2.347372,1.874314 -1.563204,0 -1.323998,0.576828 -0.843926,0 0,-0.768404 -0.358894,-1.539144 c -0.465667,-0.964534 -0.950536,-1.92218 -1.443684,-2.879825 0,-0.70688 0.05976,-1.406872 0.119686,-2.113636 l 0.603068,-0.95998 -0.843929,-1.153773 0.06142,-1.584674 -1.14455,-0.912115 0.572274,-1.32025 -0.931169,-0.745056 -1.626273,0 -0.541485,-0.432068 -1.62462,0.721124 -0.661169,-0.529547 -1.5051,0.912582 c -1.02172,-0.816853 -2.045094,-1.633121 -3.068303,-2.44939 L 13.07,21.741935 l 1.083137,-1.151436 -0.601412,-0.479933 1.322342,-2.210651 c 1.086444,-0.953092 2.221227,-1.867425 3.369089,-2.785143 l 2.046584,-0.384204 2.285956,-0.191576 1.564859,0.288473 2.226032,1.583506 0.78251,-0.623643 1.081479,-0.09573 2.046584,0.479932 1.564861,0 1.083134,-0.672675 0.481723,-0.479932 -1.08479,-0.479932 -1.80572,-0.09573 c -0.501093,-0.490204 -0.966759,-1.005508 -1.561715,-1.441076 l -0.603065,0.191574 -0.240865,1.249502 -1.083133,-0.864131 -0.239207,-0.962199 -1.20282,-0.670338 -0.48338,0 1.20431,0.959978 -0.481723,0.864134 -0.961959,0.191576 0.60141,-0.864134 -1.084791,-0.383036 -0.960303,-0.768403 -1.807377,0.287304 -0.239206,0.383036 -1.083134,0.481099 -0.601411,1.056877 -1.503445,0.527797 -0.662824,-0.527797 -0.720932,0 0,-1.729435 1.564859,-0.576829 1.20282,0 -0.242517,-0.671507 -0.960303,-0.672675 1.62313,-0.240609 0.902032,-0.719371 0.720931,-0.8653012 1.325654,0 -0.362206,-0.6715064 0.843929,-0.3842031 0,0.7684043 1.804066,0.2873052 1.804067,-1.0557095 0.121174,-0.481099 1.563205,-0.7678216 c -0.56582,0.049618 -1.131638,0.08604 -1.684545,0.1921611 l 0,-0.8651834 0.601409,-0.9605654 -0.601409,0 -1.321678,0.8641345 -0.362207,0.4805153 0.362207,0.673259 -0.603067,1.1514366 -0.96196,-0.3842011 -0.840618,-0.6715065 -1.325651,0.6715065 -0.481725,-1.5362228 2.285956,-1.0562945 0,-0.5768291 L 25.223524,3.6847867 27.509479,3.3 l 1.56486,0.3847867 2.166268,0.9599803 -1.564858,0 1.564858,1.1526075 1.202823,-0.9599824 c 0,0 4.786235,2.4031505 7.258281,5.7266459 2.405352,3.233831 3.412213,6.909414 3.517388,7.673265 z" />
      <path
         style="opacity:0.7;fill:none;stroke:url(#radialGradient5540-261);stroke-width:0.99647081;stroke-linecap:round;stroke-linejoin:round;stroke-miterlimit:4;stroke-opacity:1;stroke-dasharray:none;stroke-dashoffset:0"
         id="path3164"
         d="m 43.501763,23 c 0,10.764976 -8.736791,19.501764 -19.501765,19.501764 C 13.235024,42.501764 4.4982338,33.764976 4.4982338,23 c 0,-10.764974 8.7367902,-19.5017646 19.5017642,-19.5017646 10.764974,0 19.501765,8.7367906 19.501765,19.5017646 z" />
      <path
         style="opacity:0.5;fill:url(#radialGradient5537-133);fill-opacity:1;stroke:none"
         id="path3154"
         d="m 42.999998,16.746704 c 0,7.114117 -8.512001,11.02908 -18.999999,11.02908 -10.488002,0 -19.0000006,-3.914963 -19.0000006,-11.02908 C 4.9999984,9.632588 13.511997,2 23.999999,2 34.487997,2 42.999998,9.632588 42.999998,16.746704 z" />
      <path
         style="opacity:0.5;fill:none;stroke:url(#linearGradient5745-17);stroke-width:1.09524393;stroke-linecap:round;stroke-linejoin:miter;stroke-miterlimit:4;stroke-opacity:1;stroke-dasharray:none;stroke-dashoffset:0"
         id="path2218"
         transform="matrix(1.076193,-0.2912862,0.1952728,0.7143165,-11.182741,14.979481)"
         d="m 46,24.25 c 0,9.664983 -7.835017,17.5 -17.5,17.5 -9.664983,0 -17.5,-7.835017 -17.5,-17.5 0,-9.664983 7.835017,-17.5 17.5,-17.5 9.664983,0 17.5,7.835017 17.5,17.5 l 0,0 z" />
      <path
         style="opacity:0.5;fill:none;stroke:url(#linearGradient5747-540);stroke-width:1.0902828;stroke-linecap:round;stroke-linejoin:miter;stroke-miterlimit:4;stroke-opacity:1;stroke-dasharray:none;stroke-dashoffset:0"
         id="path2230"
         transform="matrix(1.1247273,-0.00679075,0.00112312,0.7429216,-7.8873839,2.6776872)"
         d="m 46,24.25 c 0,9.664983 -7.835017,17.5 -17.5,17.5 -9.664983,0 -17.5,-7.835017 -17.5,-17.5 0,-9.664983 7.835017,-17.5 17.5,-17.5 9.664983,0 17.5,7.835017 17.5,17.5 l 0,0 z" />
      <path
         style="opacity:0.5;fill:none;stroke:url(#linearGradient5749-815);stroke-width:1.12890089;stroke-linecap:round;stroke-linejoin:miter;stroke-miterlimit:4;stroke-opacity:1;stroke-dasharray:none;stroke-dashoffset:0"
         id="path2234"
         transform="matrix(-0.09940095,-1.1197712,0.6946105,-0.03998764,8.1749534,56.475018)"
         d="m 46,24.25 c 0,9.664983 -7.835017,17.5 -17.5,17.5 -9.664983,0 -17.5,-7.835017 -17.5,-17.5 0,-9.664983 7.835017,-17.5 17.5,-17.5 9.664983,0 17.5,7.835017 17.5,17.5 l 0,0 z" />
      <path
         style="opacity:0.5;fill:none;stroke:url(#linearGradient5751-86);stroke-width:1.36711621;stroke-linecap:round;stroke-linejoin:miter;stroke-miterlimit:4;stroke-opacity:1;stroke-dasharray:none;stroke-dashoffset:0"
         id="path2240"
         transform="matrix(-0.1600777,-1.1032472,0.4856389,0.01692093,16.935466,54.089297)"
         d="m 46,24.25 c 0,9.664983 -7.835017,17.5 -17.5,17.5 -9.664983,0 -17.5,-7.835017 -17.5,-17.5 0,-9.664983 7.835017,-17.5 17.5,-17.5 9.664983,0 17.5,7.835017 17.5,17.5 l 0,0 z" />
      <path
         style="opacity:0.4;fill:#ffffff;fill-opacity:1;stroke:none"
         id="path2255"
         transform="matrix(0.7873429,-0.2144143,0.2141677,0.7882494,1.2604149,11.541737)"
         d="m 31.375,37.875 c 0,0.966498 -0.783502,1.75 -1.75,1.75 -0.966498,0 -1.75,-0.783502 -1.75,-1.75 0,-0.966498 0.783502,-1.75 1.75,-1.75 0.966498,0 1.75,0.783502 1.75,1.75 l 0,0 z" />
      <path
         style="opacity:0.4;fill:#ffffff;fill-opacity:1;stroke:none"
         id="path2275"
         transform="matrix(0.6748654,-0.1837837,0.2141677,0.7882494,-14.193998,12.29353)"
         d="m 31.375,37.875 c 0,0.966498 -0.783502,1.75 -1.75,1.75 -0.966498,0 -1.75,-0.783502 -1.75,-1.75 0,-0.966498 0.783502,-1.75 1.75,-1.75 0.966498,0 1.75,0.783502 1.75,1.75 l 0,0 z" />
      <path
         style="opacity:0.4;fill:#ffffff;fill-opacity:1;stroke:none"
         id="path2283"
         transform="matrix(0.7873429,-0.2144143,0.324169,0.6373544,-8.3660962,-9.8985024)"
         d="m 31.375,37.875 c 0,0.966498 -0.783502,1.75 -1.75,1.75 -0.966498,0 -1.75,-0.783502 -1.75,-1.75 0,-0.966498 0.783502,-1.75 1.75,-1.75 0.966498,0 1.75,0.783502 1.75,1.75 l 0,0 z" />
      <path
         style="opacity:0.4;fill:#ffffff;fill-opacity:1;stroke:none"
         id="path2291"
         transform="matrix(0.7873429,-0.2144143,-0.01326253,0.7292459,-10.705973,-10.742804)"
         d="m 31.375,37.875 c 0,0.966498 -0.783502,1.75 -1.75,1.75 -0.966498,0 -1.75,-0.783502 -1.75,-1.75 0,-0.966498 0.783502,-1.75 1.75,-1.75 0.966498,0 1.75,0.783502 1.75,1.75 l 0,0 z" />
    </g>
  </g>
  <path
     style="opacity:0.3;fill:url(#radialGradient9214-375);fill-opacity:1;fill-rule:evenodd;stroke:none;display:inline;enable-background:new"
     id="path6774"
     d="m 45.999992,44.999655 a 20.999994,3 0 0 1 -41.999987,0 20.999994,3 0 1 1 41.999987,0 z" />
  <g
     style="display:inline;enable-background:new"
     id="g7753"
     transform="translate(-30.877103,12.99923)">
    <rect
       style="opacity:0.65;fill:url(#linearGradient9216-999);fill-opacity:1;fill-rule:nonzero;stroke:none;stroke-width:1;marker:none;visibility:visible;display:block;overflow:visible"
       id="rect8601"
       y="31"
       x="34.877113"
       height="1"
       width="41.999989" />
    <rect
       style="opacity:0.65;fill:url(#linearGradient9218-647);fill-opacity:1;fill-rule:nonzero;stroke:none;stroke-width:1;marker:none;visibility:visible;display:block;overflow:visible"
       id="rect8603"
       y="29"
       x="34.877102"
       height="1"
       width="41.999989" />
    <rect
       style="fill:url(#linearGradient9220-732);fill-opacity:1;fill-rule:nonzero;stroke:none;stroke-width:1;marker:none;visibility:visible;display:block;overflow:visible"
       id="rect8605"
       y="30"
       x="34.627102"
       height="1"
       width="41.5" />
    <g
       style="fill:#ffffff;fill-opacity:0.72023806"
       id="g8613"
       transform="matrix(0.544365,0,0,0.9411763,42.076688,-8.6470511)" />
  </g>
  <path
     style="fill:url(#linearGradient9048-94);fill-opacity:1;fill-rule:nonzero;stroke:#5b5b58;stroke-width:1.00006688;stroke-linecap:butt;stroke-linejoin:miter;stroke-miterlimit:4;stroke-opacity:1;stroke-dasharray:none;stroke-dashoffset:0;marker:none;visibility:visible;display:block;overflow:visible;enable-background:new"
     id="path8607"
     d="m 22.778716,40.49973 -3.233398,0 c -0.582372,0 -1.045288,0.42704 -1.045288,0.964275 l 0,4.071083 c 0,0.53723 0.462916,0.964575 1.045288,0.964575 l 10.909354,0 c 0.582367,0 1.04529,-0.427345 1.04529,-0.964575 l 0,-4.071083 c 0,-0.537235 -0.462923,-0.964275 -1.04529,-0.964275 l -2.821165,0 -4.854791,0 z" />
  <rect
     style="fill:#ffffff;fill-opacity:0.72023806;fill-rule:nonzero;stroke:none;stroke-width:1.13999999;marker:none;visibility:visible;display:block;overflow:visible;enable-background:new"
     id="rect8615"
     y="41.249695"
     x="22"
     ry="0.5"
     rx="0.49999997"
     height="1.5"
     width="8" />
  <path
     style="fill:#ffffff;fill-opacity:0.72023806;fill-rule:nonzero;stroke:none;stroke-width:1.13999999;marker:none;visibility:visible;display:block;overflow:visible;enable-background:new"
     id="path8617"
     d="m 21.249999,41.999696 a 0.75,0.75 0 0 1 -1.5,0 0.75,0.75 0 1 1 1.5,0 z" />
</svg>
