<?xml version="1.0" encoding="UTF-8" standalone="no"?>
<!-- Created with Inkscape (http://www.inkscape.org/) -->

<svg
   xmlns:svg="http://www.w3.org/2000/svg"
   xmlns="http://www.w3.org/2000/svg"
   version="1.1"
   width="210.00233"
   height="210"
   id="svg2863">
  <defs
     id="defs2865" />
  <g
     transform="translate(-403.2848,-536.21951)"
     id="layer1">
    <path
       d="m 613.28713,641.22068 c 0,57.98622 -47.01029,104.99883 -105.00116,104.99883 -57.99086,0 -105.00117,-47.01261 -105.00117,-104.99883 0,-57.99088 47.01031,-105.00117 105.00117,-105.00117 57.99087,0 105.00116,47.01029 105.00116,105.00117"
       id="path24"
       style="fill:#000000;fill-opacity:1;fill-rule:nonzero;stroke:none" />
  </g>
  <path
     d="m 89.766593,158.03771 c -12.168669,-3.96011 -15.171468,5.00597 -27.037715,5.39673 -7.313222,-1.55521 -11.635146,-13.48063 -10.487123,-19.19019 1.304501,-7.98592 4.666331,-17.06635 12.81437,-20.2479 11.204089,-11.84996 28.927969,-13.29355 41.338155,-23.37432 5.53337,-4.432593 12.32907,-6.41068 18.23598,-1.282155 4.56959,4.595465 10.4937,8.494075 12.18633,15.164345 2.28881,6.29067 5.76971,11.08479 12.87365,12.47027 8.29456,1.87631 13.17053,9.9033 10.66681,17.90453 1.23007,5.63263 -4.05784,11.07007 -8.44437,14.43989 -10.6342,6.68189 -24.09721,9.68088 -36.29344,5.78871 -7.56636,-2.10227 -19.646554,-2.30444 -25.852647,-7.06991 z M 39.617237,119.06045 c -3.949643,-6.99396 -5.866866,-15.22323 -3.1324,-22.97089 1.014124,-6.986183 8.345516,-19.186333 16.154397,-12.802515 4.877572,6.150444 8.182773,12.559632 9.426845,20.289405 0.02111,6.39056 -1.27458,17.61609 -9.290401,17.40622 -4.400461,0.21695 -9.462305,1.11377 -13.158441,-1.92222 z m 118.461713,-8.16323 c -3.28413,-6.69752 -1.53376,-14.090811 1.89841,-20.313134 1.42329,-8.589819 12.72071,-9.029126 17.18442,-2.375243 5.15557,5.641254 2.13723,13.254497 -1.77833,19.003547 -3.70563,5.73979 -11.589,7.76548 -17.3045,3.68483 z M 65.435809,84.888812 c -1.054202,-6.928874 0.09619,-12.425235 0.978841,-19.188847 -0.233102,-8.842245 9.639654,-10.988558 15.896331,-6.812067 4.503059,1.984725 9.260634,4.677707 8.668905,10.178621 1.513089,1.529492 0.03966,1.369661 1.033866,4.052062 -1.396442,1.994131 0.03112,8.700396 -2.447236,13.309777 -2.892738,6.828623 -9.19235,11.376976 -16.851456,8.747561 -3.938487,-1.799599 -5.874263,-6.446414 -7.279251,-10.287107 z m 66.824561,4.746062 c -4.3231,-8.313816 0.189,-17.768028 -0.56953,-26.577942 -0.73912,-5.180725 -2.16031,-14.371766 4.57992,-17.038297 6.74758,-0.917343 10.95598,8.075127 14.20258,13.078334 3.49442,6.374348 6.78495,15.552086 2.6697,22.564523 -3.42452,5.69076 -9.02727,14.695484 -16.86046,10.05575 -1.37192,-0.631831 -2.70553,-1.343405 -4.02221,-2.082368 z M 93.912176,69.701417 c -0.648165,-6.606195 -1.23704,-13.444879 2.313673,-19.399457 1.04571,-6.580098 9.173141,-13.449324 14.653471,-6.608898 4.19047,4.334325 8.23533,8.305329 10.08537,14.380577 2.73809,6.753355 -2.14421,15.172159 -6.00084,20.790705 -6.01769,5.329745 -15.484391,2.367284 -18.435445,-4.900319 -0.891257,-1.409 -1.758176,-2.833208 -2.616229,-4.262608 z m 74.987784,7.593698 c -0.95325,-2.676256 0.24158,-5.244946 1.56035,-6.510472 1.08108,0.450728 1.81422,0.50628 2.56868,3.039941 1.67203,4.338948 -1.01341,11.939795 -4.12903,3.470531 z M 31.643855,72.738897 c 0.323193,-4.825806 -1.627662,-14.89922 5.711954,-18.936105 2.891229,1.821507 2.310332,5.431201 2.071586,7.996145 -0.147254,3.938493 -1.13515,8.036682 -1.47122,12.696049 -1.28399,2.288072 -6.052998,0.79748 -6.31232,-1.756089 z m 28.096681,-41.19582 c -0.151128,-3.976198 8.289154,-13.642333 8.353066,-4.366376 1.558162,4.796012 -5.195537,17.850362 -8.732751,10.821019 -0.01693,-2.172645 0.965052,-4.287369 0.379685,-6.454643 z m 70.241724,3.227321 c -0.87735,-3.999552 0.59514,-4.611523 2.48715,-6.405847 2.24336,1.404373 3.4647,1.582378 3.58781,5.456635 0.36745,5.480222 -4.59144,5.984654 -6.07496,0.949212 z M 93.912176,28.125913 c -2.817125,-3.081367 -0.557196,-10.93984 2.564147,-13.181827 5.318377,1.906745 4.782317,7.832967 4.649877,11.589893 -0.11407,4.178869 -4.43151,6.346664 -7.214024,1.591934 z"
     id="path2827"
     style="font-size:40px;font-style:normal;font-variant:normal;font-weight:normal;font-stretch:normal;fill:#ffffff;fill-opacity:1;stroke:none;font-family:AnimalTracks;-inkscape-font-specification:AnimalTracks" />
</svg>
