<?xml version="1.0" encoding="UTF-8" standalone="no"?>
<!-- Created with Inkscape (http://www.inkscape.org/) -->

<svg
   xmlns:dc="http://purl.org/dc/elements/1.1/"
   xmlns:cc="http://creativecommons.org/ns#"
   xmlns:rdf="http://www.w3.org/1999/02/22-rdf-syntax-ns#"
   xmlns:svg="http://www.w3.org/2000/svg"
   xmlns="http://www.w3.org/2000/svg"
   xmlns:sodipodi="http://sodipodi.sourceforge.net/DTD/sodipodi-0.dtd"
   xmlns:inkscape="http://www.inkscape.org/namespaces/inkscape"
   width="210.00232"
   height="210"
   id="svg2919"
   version="1.1"
   inkscape:version="0.47 r22583"
   sodipodi:docname="Новый документ 5">
  <defs
     id="defs2921">
    <inkscape:perspective
       sodipodi:type="inkscape:persp3d"
       inkscape:vp_x="0 : 526.18109 : 1"
       inkscape:vp_y="0 : 1000 : 0"
       inkscape:vp_z="744.09448 : 526.18109 : 1"
       inkscape:persp3d-origin="372.04724 : 350.78739 : 1"
       id="perspective2927" />
    <inkscape:perspective
       id="perspective2913"
       inkscape:persp3d-origin="0.5 : 0.33333333 : 1"
       inkscape:vp_z="1 : 0.5 : 1"
       inkscape:vp_y="0 : 1000 : 0"
       inkscape:vp_x="0 : 0.5 : 1"
       sodipodi:type="inkscape:persp3d" />
  </defs>
  <sodipodi:namedview
     id="base"
     pagecolor="#ffffff"
     bordercolor="#666666"
     borderopacity="1.0"
     inkscape:pageopacity="0.0"
     inkscape:pageshadow="2"
     inkscape:zoom="0.35"
     inkscape:cx="-193.99909"
     inkscape:cy="319.57162"
     inkscape:document-units="px"
     inkscape:current-layer="layer1"
     showgrid="false"
     inkscape:window-width="1280"
     inkscape:window-height="949"
     inkscape:window-x="0"
     inkscape:window-y="24"
     inkscape:window-maximized="1" />
  <metadata
     id="metadata2924">
    <rdf:RDF>
      <cc:Work
         rdf:about="">
        <dc:format>image/svg+xml</dc:format>
        <dc:type
           rdf:resource="http://purl.org/dc/dcmitype/StillImage" />
        <dc:title></dc:title>
      </cc:Work>
    </rdf:RDF>
  </metadata>
  <g
     inkscape:label="Layer 1"
     inkscape:groupmode="layer"
     id="layer1"
     transform="translate(-568.99909,-641.9338)">
    <path
       d="m 779.00141,746.93496 c 0,57.98623 -47.01031,104.99884 -105.00116,104.99884 -57.99089,0 -105.00116,-47.01261 -105.00116,-104.99884 0,-57.99087 47.01027,-105.00116 105.00116,-105.00116 57.99085,0 105.00116,47.01029 105.00116,105.00116"
       style="fill:#000000;fill-opacity:1;fill-rule:nonzero;stroke:none"
       id="path24-0" />
    <path
       sodipodi:nodetypes="ccscccccccccccccscssssscssccsscscccsssssssssccsssccsc"
       style="color:#000000;fill:#ffffff;fill-opacity:1;fill-rule:nonzero;stroke:none;marker:none;visibility:visible;display:inline;overflow:visible;enable-background:accumulate"
       id="path2463"
       d="m 667.52913,819.10738 c -2.62677,-3.07889 -3.46028,-9.31032 -8.7868,-8.51372 -7.72949,0.66902 -13.78154,-4.9172 -20.38216,-7.92688 -4.45663,-2.09007 -9.66939,-0.003 -14.06579,-2.53345 -9.65642,-4.61435 -14.15821,-16.17966 -12.90542,-26.08996 1.09225,-7.94695 5.94805,-15.014 12.01771,-20.13479 5.26187,-3.47228 11.89007,-4.17075 17.58606,-6.81663 4.43276,-1.34444 7.56269,-4.58144 11.02852,-7.34307 5.82643,-3.62931 14.05561,-4.73023 19.94899,-0.29023 5.12749,3.42554 10.73013,6.19855 15.67255,9.8551 3.86035,4.0687 2.91727,10.01815 4.01278,15.02506 0.45937,9.83414 4.72651,18.99614 6.45097,28.61422 1.40685,5.75359 -0.94054,11.34231 -4.19718,15.94238 -3.72644,5.40836 -7.71674,12.30311 -15.1664,12.88924 -3.71346,-0.18133 -8.37186,0.19742 -11.21383,-2.67727 z m 42.91851,-47.43688 c -2.34854,-4.29435 -4.08066,-10.33769 -0.6725,-14.584 5.5028,-6.85782 12.3133,-12.60972 19.34017,-17.90868 3.20381,-2.8704 6.77205,-2.44711 11.4733,-0.22378 4.95957,2.34572 6.64233,8.13839 5.63716,13.08406 -1.46222,7.19165 -4.01741,15.01631 -11.46937,18.09736 -6.46903,2.71565 -13.70741,5.97285 -20.89413,4.15662 -1.41774,-0.35835 -2.72428,-1.36018 -3.41372,-2.62124 z m -89.4326,-35.88824 c -4.67208,-2.71184 -8.38162,-7.16117 -9.17667,-12.55999 -1.00955,-6.85398 0.23166,-14.2152 4.88753,-19.49927 4.1469,-4.70773 9.38328,-10.43153 16.45649,-9.67462 6.16256,0.18818 5.78889,5.83949 5.82898,10.18207 0.56175,4.90244 2.80026,9.43083 3.84806,14.20949 0.17832,0.82481 0.19461,1.64337 0,2.21978 -1.46316,5.33513 -5.32003,9.86679 -9.40299,13.55213 -2.77409,3.29379 -7.09197,4.2366 -11.32992,2.13956 l -1.15087,-0.56944 0,0 z m 73.78111,3.25937 c -4.28659,-2.26896 -10.39608,-6.09495 -8.32439,-11.59525 1.93992,-5.14976 4.85253,-9.8783 6.71576,-15.10287 2.27325,-6.37306 6.53529,-15.35882 9.33049,-18.06435 4.48233,-4.33861 11.90024,-4.23203 17.95485,-3.54086 7.39336,0.84434 11.08551,8.67854 12.88735,15.05476 1.32785,4.70017 1.89472,9.88244 -0.83398,14.05837 -3.50684,5.35918 -8.41822,9.79472 -13.38979,13.8365 -4.58707,3.72935 -10.37412,6.26086 -16.3203,7.18415 -2.80144,0.40687 -5.54218,-0.5209 -8.01582,-1.83045 z m -33.29268,-16.27372 c -7.5993,-7.12168 -10.82027,-18.14096 -9.37657,-28.0652 1.34846,-5.6586 4.69592,-10.57574 8.48027,-14.89569 3.26338,-3.72475 7.30812,-7.5626 12.89013,-7.7009 5.88759,-0.14635 12.73122,0.2945 16.96824,4.45912 3.65974,3.59698 6.19569,10.09974 3.60554,15.05009 -4.86112,7.75401 -9.34763,15.75017 -12.93439,24.17772 -1.91373,3.6339 -3.2066,8.94568 -8.14255,9.483 -3.89485,0.41282 -8.17032,-0.29279 -11.49067,-2.50814 z" />
  </g>
</svg>
