<?xml version="1.0" encoding="UTF-8" standalone="no"?>
<!-- Created with Inkscape (http://www.inkscape.org/) -->

<svg
   xmlns:dc="http://purl.org/dc/elements/1.1/"
   xmlns:cc="http://creativecommons.org/ns#"
   xmlns:rdf="http://www.w3.org/1999/02/22-rdf-syntax-ns#"
   xmlns:svg="http://www.w3.org/2000/svg"
   xmlns="http://www.w3.org/2000/svg"
   xmlns:sodipodi="http://sodipodi.sourceforge.net/DTD/sodipodi-0.dtd"
   xmlns:inkscape="http://www.inkscape.org/namespaces/inkscape"
   version="1.1"
   width="210.00232"
   height="210"
   id="svg2919"
   inkscape:version="0.47 r22583"
   sodipodi:docname="big cat 2.svg">
  <metadata
     id="metadata9">
    <rdf:RDF>
      <cc:Work
         rdf:about="">
        <dc:format>image/svg+xml</dc:format>
        <dc:type
           rdf:resource="http://purl.org/dc/dcmitype/StillImage" />
      </cc:Work>
    </rdf:RDF>
  </metadata>
  <sodipodi:namedview
     pagecolor="#ffffff"
     bordercolor="#666666"
     borderopacity="1"
     objecttolerance="10"
     gridtolerance="10"
     guidetolerance="10"
     inkscape:pageopacity="0"
     inkscape:pageshadow="2"
     inkscape:window-width="1280"
     inkscape:window-height="949"
     id="namedview7"
     showgrid="false"
     inkscape:zoom="2.247619"
     inkscape:cx="109.81475"
     inkscape:cy="93.596654"
     inkscape:window-x="0"
     inkscape:window-y="24"
     inkscape:window-maximized="1"
     inkscape:current-layer="svg2919" />
  <defs
     id="defs2921">
    <inkscape:perspective
       sodipodi:type="inkscape:persp3d"
       inkscape:vp_x="0 : 105 : 1"
       inkscape:vp_y="0 : 1000 : 0"
       inkscape:vp_z="210.00232 : 105 : 1"
       inkscape:persp3d-origin="105.00116 : 70 : 1"
       id="perspective11" />
  </defs>
  <path
     style="fill:#000000;fill-opacity:1;fill-rule:nonzero;stroke:none"
     id="path24-0"
     d="M 210.00232,105.00116 C 210.00232,162.98739 162.99201,210 105.00116,210 47.01027,210 0,162.98739 0,105.00116 0,47.01029 47.01027,0 105.00116,0 162.99201,0 210.00232,47.01029 210.00232,105.00116" />
  <path
     style="color:#000000;fill:#ffffff;fill-opacity:1;fill-rule:nonzero;stroke:none;marker:none;visibility:visible;display:inline;overflow:visible;enable-background:accumulate"
     id="path2463"
     d="m 129.82532,178.27432 c -3.83217,-1.88805 -7.24219,-7.58118 -12.07344,-4.58479 -7.21413,3.87607 -15.41393,0.98748 -23.069719,0.82583 -5.193258,-0.16539 -9.375393,4.03459 -14.694159,3.41715 -11.288303,-0.44138 -20.481783,-9.77382 -23.405337,-19.90462 -2.259378,-8.16037 -0.502731,-17.0392 3.243392,-24.53804 3.651335,-5.56338 9.785491,-9.00816 14.202766,-13.95164 3.736033,-3.15429 5.418774,-7.59937 7.625644,-11.72384 4.133085,-5.95136 11.651298,-10.454792 19.218663,-8.611171 6.40129,1.179941 12.99073,1.528871 19.30905,3.010041 5.44138,2.33256 7.01132,8.49413 10.16404,12.89071 4.55163,9.34206 12.51411,16.44255 18.20199,25.0469 3.76634,4.99047 3.82421,11.38871 2.58779,17.20812 -1.35437,6.79923 -2.3439,15.14962 -9.32134,18.8285 -3.67579,1.37478 -8.0338,3.68709 -11.98934,2.08685 z m 21.80055,-63.90924 c -4.06996,-3.18258 -8.27262,-8.31814 -6.74159,-13.85788 2.47127,-8.946149 6.6721,-17.366175 11.27179,-25.43744 1.90744,-4.120518 5.54347,-5.200081 11.02953,-5.007665 5.78761,0.203192 9.83774,5.116349 10.92835,10.330726 1.58533,7.582607 2.37537,16.235283 -3.56255,22.333849 -5.13755,5.3339 -10.79486,11.51407 -18.52051,12.75413 -1.5241,0.24458 -3.20905,-0.18109 -4.404,-1.11578 z m -101.687143,2.55055 c -5.661765,-0.67817 -11.115878,-3.44272 -14.140942,-8.34471 -3.840648,-6.22317 -5.711046,-13.877881 -3.403722,-20.944693 2.054547,-6.295543 4.741035,-14.031039 11.914318,-16.250693 6.052966,-2.390769 8.050436,3.244009 9.902578,7.43726 2.591624,4.518173 6.652634,7.973601 9.663789,12.168835 0.517282,0.725166 0.874864,1.511938 0.926884,2.152004 0.809223,5.783177 -1.037672,11.786907 -3.457127,17.064577 -1.31405,4.35155 -5.10641,7.06853 -10.090588,6.80509 l -1.353493,-0.0714 0,0 z M 122.82795,89.267853 c -5.10312,-0.409793 -12.62361,-1.567925 -12.91186,-7.765309 -0.26962,-5.802545 0.57964,-11.602866 0.20443,-17.445915 -0.45725,-7.127671 -0.0774,-17.618695 1.50275,-21.408764 2.53386,-6.07775 9.76977,-9.071809 15.92811,-10.929866 7.52016,-2.268573 14.37077,3.784745 18.78003,9.213902 3.24987,4.002206 5.96332,8.789544 5.06161,13.97734 -1.16202,6.65984 -4.07135,13.010716 -7.20345,19.004989 -2.8898,5.530823 -7.44311,10.401444 -12.8222,13.779395 -2.546,1.564199 -5.59046,1.809168 -8.53537,1.572482 z M 83.756675,87.392539 C 73.415718,83.661443 65.69196,74.323556 62.947664,64.099523 c -1.05549,-6.048877 0.136579,-12.213622 2.001567,-17.981839 1.60845,-4.973659 3.927178,-10.383216 9.280998,-12.848086 5.64671,-2.600283 12.465442,-5.030475 18.31204,-2.762207 5.049936,1.959014 10.223711,7.204319 9.779691,13.085034 -1.47497,9.547034 -2.485654,19.1724 -2.443932,28.840295 -0.337955,4.322024 0.626612,10.011458 -3.934255,12.5934 -3.603552,2.026528 -8.043102,3.127704 -12.187098,2.366419 z" />
</svg>
