<?xml version="1.0" encoding="UTF-8" standalone="no"?>
<!-- Created with Inkscape (http://www.inkscape.org/) -->

<svg
   xmlns:dc="http://purl.org/dc/elements/1.1/"
   xmlns:cc="http://creativecommons.org/ns#"
   xmlns:rdf="http://www.w3.org/1999/02/22-rdf-syntax-ns#"
   xmlns:svg="http://www.w3.org/2000/svg"
   xmlns="http://www.w3.org/2000/svg"
   xmlns:sodipodi="http://sodipodi.sourceforge.net/DTD/sodipodi-0.dtd"
   xmlns:inkscape="http://www.inkscape.org/namespaces/inkscape"
   id="svg2"
   version="1.1"
   inkscape:version="0.47 r22583"
   width="1488.1875"
   height="1052.3625"
   xml:space="preserve"
   sodipodi:docname="concept2.svg"><metadata
     id="metadata8"><rdf:RDF><cc:Work
         rdf:about=""><dc:format>image/svg+xml</dc:format><dc:type
           rdf:resource="http://purl.org/dc/dcmitype/StillImage" /><dc:title></dc:title></cc:Work></rdf:RDF></metadata><defs
     id="defs6"><inkscape:perspective
       sodipodi:type="inkscape:persp3d"
       inkscape:vp_x="0 : 526.18127 : 1"
       inkscape:vp_y="0 : 1000 : 0"
       inkscape:vp_z="1488.1875 : 526.18127 : 1"
       inkscape:persp3d-origin="744.09375 : 350.78752 : 1"
       id="perspective20" /><clipPath
       clipPathUnits="userSpaceOnUse"
       id="clipPath20"><path
         d="m 0,8418.9 11905.5,0 L 11905.5,0 0,0 0,8418.9 z"
         id="path22" /></clipPath><inkscape:perspective
       id="perspective4390"
       inkscape:persp3d-origin="0.5 : 0.33333333 : 1"
       inkscape:vp_z="1 : 0.5 : 1"
       inkscape:vp_y="0 : 1000 : 0"
       inkscape:vp_x="0 : 0.5 : 1"
       sodipodi:type="inkscape:persp3d" /><inkscape:perspective
       id="perspective2875"
       inkscape:persp3d-origin="0.5 : 0.33333333 : 1"
       inkscape:vp_z="1 : 0.5 : 1"
       inkscape:vp_y="0 : 1000 : 0"
       inkscape:vp_x="0 : 0.5 : 1"
       sodipodi:type="inkscape:persp3d" /><inkscape:perspective
       id="perspective2889"
       inkscape:persp3d-origin="0.5 : 0.33333333 : 1"
       inkscape:vp_z="1 : 0.5 : 1"
       inkscape:vp_y="0 : 1000 : 0"
       inkscape:vp_x="0 : 0.5 : 1"
       sodipodi:type="inkscape:persp3d" /></defs><sodipodi:namedview
     pagecolor="#ffffff"
     bordercolor="#666666"
     borderopacity="1"
     objecttolerance="10"
     gridtolerance="10"
     guidetolerance="10"
     inkscape:pageopacity="0"
     inkscape:pageshadow="2"
     inkscape:window-width="1280"
     inkscape:window-height="949"
     id="namedview4"
     showgrid="false"
     inkscape:zoom="0.35355339"
     inkscape:cx="362.21052"
     inkscape:cy="749.27735"
     inkscape:window-x="0"
     inkscape:window-y="24"
     inkscape:window-maximized="1"
     inkscape:current-layer="g12" /><g
     id="g12"
     inkscape:groupmode="layer"
     inkscape:label="ink_ext_XXXXXX"
     transform="matrix(1.25,0,0,-1.25,0,1052.3625)"><g
       id="g14"
       transform="scale(0.1,0.1)"><g
         id="g16"><g
           id="g18"
           clip-path="url(#clipPath20)"><path
             d="m 9737.77,4833.2 c 0,-250.31 -202.93,-453.25 -453.26,-453.25 -250.33,0 -453.26,202.94 -453.26,453.25 0,250.33 202.93,453.26 453.26,453.26 250.33,0 453.26,-202.93 453.26,-453.26"
             style="fill:#000000;fill-opacity:1;fill-rule:nonzero;stroke:none"
             id="path24" /><path
             d="m 9408.36,5047.75 c 28.95,-16.72 65.94,-6.82 82.64,22.13 16.72,28.94 6.81,65.94 -22.13,82.66 -28.95,16.69 -65.94,6.77 -82.66,-22.17 -16.7,-28.93 -6.78,-65.92 22.15,-82.62 m -123.85,-391.31 c -26.6,0 -51.83,5.92 -74.45,16.45 l -42.05,-75.35 c 35.12,-17.41 74.67,-27.23 116.5,-27.23 24.34,0 47.87,3.38 70.24,9.57 3.94,24.32 18.38,46.7 41.38,60 22.99,13.26 49.55,14.57 72.56,5.88 44.75,44 73.87,103.85 78.11,170.51 l -86.25,1.27 c -7.93,-90.32 -83.69,-161.1 -176.04,-161.1 m 0,353.54 c 92.35,0 168.11,-70.8 176.06,-161.1 l 86.23,1.27 c -4.24,66.66 -33.36,126.51 -78.11,170.51 -23.01,-8.69 -49.59,-7.36 -72.56,5.88 -23,13.28 -37.44,35.68 -41.38,60 -22.37,6.17 -45.9,9.55 -70.24,9.55 -41.83,0 -81.38,-9.82 -116.5,-27.21 l 42.05,-75.35 c 22.62,10.53 47.85,16.45 74.45,16.45 M 9107.75,4833.2 c 0,59.8 29.71,112.64 75.16,144.63 l -44.24,74.1 c -52.95,-35.39 -92.34,-89.47 -108.71,-152.81 19.1,-15.59 31.33,-39.32 31.33,-65.92 0,-26.58 -12.23,-50.31 -31.33,-65.9 16.35,-63.36 55.74,-117.44 108.71,-152.83 l 44.24,74.12 c -45.45,31.97 -75.16,84.8 -75.16,144.61 m 300.63,-214.51 c -28.95,-16.72 -38.87,-53.71 -22.15,-82.64 16.7,-28.94 53.69,-38.87 82.64,-22.15 28.94,16.7 38.87,53.69 22.15,82.64 -16.7,28.92 -53.71,38.85 -82.64,22.15 m -432.07,275.04 c -33.44,0 -60.53,-27.09 -60.53,-60.53 0,-33.42 27.09,-60.51 60.53,-60.51 33.42,0 60.51,27.09 60.51,60.51 0,33.44 -27.09,60.53 -60.51,60.53"
             style="fill:#ffffff;fill-opacity:1;fill-rule:nonzero;stroke:none"
             id="path26" /><path
             d="m 3070.76,3643.89 c -46.06,-11.53 -106.84,-23.75 -182.38,-36.69 -75.54,-12.96 -162.96,-19.42 -262.24,-19.42 -86.34,0 -159.01,12.6 -218,37.75 -59.02,25.16 -106.5,60.79 -142.45,106.85 -35.98,46.03 -61.88,100.37 -77.7,162.96 -15.85,62.59 -23.74,131.99 -23.74,208.28 l 0,630.23 200.72,0 0,-587.06 c 0,-136.72 21.59,-234.56 64.76,-293.53 43.16,-59.03 115.81,-88.51 217.99,-88.51 21.58,0 43.87,0.72 66.91,2.18 23,1.4 44.58,3.23 64.75,5.39 20.13,2.16 38.48,4.3 55.04,6.46 16.53,2.16 28.4,4.65 35.61,7.55 l 0,947.52 200.73,0"
             style="fill:#000000;fill-opacity:1;fill-rule:nonzero;stroke:none"
             id="path28" /><path
             d="m 3560.68,3786.33 c 20.13,-5.76 48.56,-11.15 85.26,-16.17 36.69,-5.06 82.35,-7.57 137.05,-7.57 107.92,0 194.25,35.62 259,106.84 64.75,71.24 97.13,172.31 97.13,303.27 0,57.51 -5.77,111.48 -17.27,161.87 -11.53,50.35 -30.21,93.87 -56.11,130.56 -25.9,36.7 -59.36,65.47 -100.37,86.35 -41.01,20.84 -90.31,31.29 -147.84,31.29 -54.71,0 -105.06,-9.37 -151.09,-28.06 -46.07,-18.72 -81.31,-38.15 -105.76,-58.27 l 0,-710.11 z m 0,897.89 c 24.45,15.81 61.51,32.37 111.15,49.62 49.65,17.28 106.84,25.9 171.59,25.9 80.57,0 152.17,-14.38 214.76,-43.15 62.59,-28.8 115.47,-69.07 158.64,-120.88 43.17,-51.8 75.88,-113.68 98.21,-185.62 22.29,-71.96 33.45,-151.07 33.45,-237.39 0,-90.67 -13.32,-172.36 -39.93,-245 -26.64,-72.66 -64.41,-134.17 -113.31,-184.52 -48.94,-50.39 -107.92,-89.23 -176.99,-116.57 -69.06,-27.31 -146.77,-40.99 -233.1,-40.99 -93.55,0 -176.28,6.46 -248.22,19.42 -71.96,12.95 -130.95,25.89 -176.98,38.85 l 0,1607.98 200.73,34.52"
             style="fill:#000000;fill-opacity:1;fill-rule:nonzero;stroke:none"
             id="path30" /><path
             d="m 5468.64,3643.89 c -46.07,-11.53 -106.84,-23.75 -182.38,-36.69 -75.55,-12.96 -162.96,-19.42 -262.24,-19.42 -86.34,0 -159.01,12.6 -218,37.75 -59.02,25.16 -106.51,60.79 -142.45,106.85 -35.99,46.03 -61.88,100.37 -77.69,162.96 -15.86,62.59 -23.76,131.99 -23.76,208.28 l 0,630.23 200.73,0 0,-587.06 c 0,-136.72 21.59,-234.56 64.75,-293.53 43.17,-59.03 115.82,-88.51 218,-88.51 21.58,0 43.87,0.72 66.91,2.18 23,1.4 44.58,3.23 64.75,5.39 20.13,2.16 38.48,4.3 55.04,6.46 16.52,2.16 28.4,4.65 35.61,7.55 l 0,947.52 200.73,0"
             style="fill:#000000;fill-opacity:1;fill-rule:nonzero;stroke:none"
             id="path32" /><path
             d="m 5757.83,4701.47 c 46.04,11.51 107.17,23.75 183.47,36.71 76.25,12.94 164.02,19.41 263.3,19.41 89.22,0 163.3,-12.6 222.32,-37.76 58.99,-25.2 106.1,-60.43 141.37,-105.76 35.23,-45.33 60.06,-99.67 74.47,-162.96 14.36,-63.33 21.58,-133.12 21.58,-209.37 l 0,-630.23 -200.74,0 0,587.08 c 0,69.05 -4.69,128.04 -14.02,176.97 -9.38,48.9 -24.81,88.49 -46.41,118.7 -21.58,30.24 -50.37,52.16 -86.33,65.84 -35.99,13.67 -80.6,20.51 -133.8,20.51 -21.61,0 -43.93,-0.74 -66.92,-2.16 -23.04,-1.44 -44.99,-3.25 -65.83,-5.41 -20.89,-2.15 -39.6,-4.69 -56.11,-7.55 -16.56,-2.9 -28.44,-5.06 -35.62,-6.46 l 0,-947.52 -200.73,0"
             style="fill:#000000;fill-opacity:1;fill-rule:nonzero;stroke:none"
             id="path34" /><path
             d="m 7128.37,4733.84 425.2,0 0,-168.35 -425.2,0 0,-517.99 c 0,-56.12 4.3,-102.53 12.95,-139.21 8.63,-36.71 21.58,-65.49 38.85,-86.34 17.26,-20.88 38.84,-35.62 64.74,-44.25 25.9,-8.63 56.12,-12.96 90.65,-12.96 61.85,0 110.8,6.82 146.77,20.51 35.94,13.66 60.43,23.37 73.38,29.13 l 43.17,-164.03 c -20.16,-10.08 -55.78,-23.04 -106.84,-38.84 -51.09,-15.82 -108.98,-23.74 -173.75,-23.74 -76.27,0 -139.2,9.7 -188.85,29.13 -49.64,19.44 -89.57,48.57 -119.78,87.41 -30.22,38.86 -51.47,86.68 -63.67,143.55 -12.25,56.81 -18.36,122.64 -18.36,197.48 l 0,1001.47 200.74,34.53"
             style="fill:#000000;fill-opacity:1;fill-rule:nonzero;stroke:none"
             id="path36" /><path
             d="m 8645.68,3643.89 c -46.07,-11.53 -106.87,-23.75 -182.39,-36.69 -75.55,-12.96 -162.95,-19.42 -262.25,-19.42 -86.33,0 -159,12.6 -217.99,37.75 -59.01,25.16 -106.5,60.79 -142.46,106.85 -35.97,46.03 -61.87,100.37 -77.69,162.96 -15.86,62.59 -23.75,131.99 -23.75,208.28 l 0,630.23 200.74,0 0,-587.06 c 0,-136.72 21.58,-234.56 64.74,-293.53 43.17,-59.03 115.82,-88.51 217.99,-88.51 21.59,0 43.87,0.72 66.92,2.18 23,1.4 44.59,3.23 64.75,5.39 20.14,2.16 38.48,4.3 55.03,6.46 16.54,2.16 28.4,4.65 35.61,7.55 l 0,947.52 200.75,0"
             style="fill:#000000;fill-opacity:1;fill-rule:nonzero;stroke:none"
             id="path38" /></g></g></g><g
       style="font-size:40px;font-style:normal;font-variant:normal;font-weight:normal;font-stretch:normal;fill:#000000;fill-opacity:1;stroke:none;font-family:newPushkin;-inkscape-font-specification:newPushkin"
       id="text2816"
       transform="matrix(3.8398597,0,0,-3.8398597,-489.40196,1425.2102)"><path
         d="m 195.40571,284.37362 c -3e-5,0.45335 -0.49336,1.12002 -1.48,2 -1.60002,1.46668 -2.48002,2.28002 -2.64,2.44 -1.78669,1.94668 -3.93335,3.97335 -6.44,6.08 4.79998,-0.95999 7.65331,-1.43999 8.56,-1.44 1.03998,10e-6 1.55997,0.21334 1.56,0.64 -3e-5,0.34668 -0.60002,0.66668 -1.8,0.96 l -3.12,0.64 c -0.88002,0.13334 -1.76002,0.28001 -2.64,0.44 -1.25335,0.21334 -2.30668,0.50668 -3.16,0.88 -0.34668,0.13334 -0.92001,0.42667 -1.72,0.88 l -3.16,3.96 c -1.89334,2.32 -3.54667,4.2 -4.96,5.64 l -4.68,4.92 c -1.73333,1.73332 -3,2.59999 -3.8,2.6 -0.58666,-10e-6 -0.88,-0.26668 -0.88,-0.8 0,-1.06667 2.04,-3.86667 6.12,-8.4 1.09333,-1.22667 2.46666,-2.52 4.12,-3.88 2.23999,-1.83999 3.55999,-2.94666 3.96,-3.32 0.61332,-0.63999 1.70666,-1.87999 3.28,-3.72 -4.40001,2.00001 -7.10667,3.00001 -8.12,3 -0.61334,10e-6 -0.92,-0.39999 -0.92,-1.2 0,-0.10666 0.58666,-0.35999 1.76,-0.76 1.65333,-0.53332 2.98666,-1.03999 4,-1.52 0.90666,-0.42666 2.43999,-1.33332 4.6,-2.72 1.41332,-0.90665 3.57332,-2.62665 6.48,-5.16 2.37331,-2.05331 3.75998,-3.07998 4.16,-3.08 0.61331,2e-5 0.91997,0.30669 0.92,0.92"
         id="path2841" /><path
         d="m 215.00258,297.33362 c -2e-5,0.48001 -1.30669,1.18667 -3.92,2.12 -2.10668,0.74667 -3.68002,1.12 -4.72,1.12 -1.17335,0 -2.10668,-0.2 -2.8,-0.6 -0.24001,-0.10666 -0.70668,-0.47999 -1.4,-1.12 -1.68001,0.85334 -2.89334,1.37334 -3.64,1.56 -1.14667,0.32 -2.76,0.48 -4.84,0.48 -0.69333,0 -1.30667,-0.22666 -1.84,-0.68 -0.50667,-0.45333 -0.76,-1.01333 -0.76,-1.68 0,-0.61333 1.06667,-1.85332 3.2,-3.72 2.08,-1.78665 3.49333,-2.75999 4.24,-2.92 0.34666,-0.08 0.51999,0.17335 0.52,0.76 -10e-6,0.24001 -0.94667,1.17334 -2.84,2.8 -1.89334,1.60001 -2.84,2.62667 -2.84,3.08 0,0.48001 0.49333,0.72001 1.48,0.72 2.63999,10e-6 5.30666,-0.90666 8,-2.72 0.53332,-0.34666 1.62665,-1.18666 3.28,-2.52 1.14665,-0.90665 1.86665,-1.35999 2.16,-1.36 0.39998,1e-5 0.59998,0.28001 0.6,0.84 -2e-5,0.80001 -0.36002,1.52001 -1.08,2.16 -0.26668,0.24001 -0.92002,0.69334 -1.96,1.36 -0.72001,0.45334 -1.08001,0.82667 -1.08,1.12 -1e-5,0.74667 0.62665,1.12001 1.88,1.12 0.58665,10e-6 1.85332,-0.29333 3.8,-0.88 0.42665,-0.13333 1.21331,-0.42666 2.36,-0.88 0.90664,-0.37333 1.46664,-0.55999 1.68,-0.56 0.34664,10e-6 0.51998,0.13334 0.52,0.4"
         id="path2843" /><path
         d="m 230.05446,297.73362 c -2e-5,0.21334 -0.64002,0.62667 -1.92,1.24 -1.25335,0.61334 -2.49335,1.14667 -3.72,1.6 -1.65335,0.58667 -2.74668,0.94667 -3.28,1.08 -1.04001,0.26667 -2.25334,0.4 -3.64,0.4 -0.42668,0 -0.97334,-0.18666 -1.64,-0.56 -0.80001,-0.48 -1.20001,-1.02666 -1.2,-1.64 -1e-5,-0.42666 0.51999,-1.21333 1.56,-2.36 1.17332,-1.25332 1.78666,-1.93332 1.84,-2.04 -0.85334,-0.45332 -1.34668,-0.65332 -1.48,-0.6 -0.13334,0.0533 -0.64001,0.54668 -1.52,1.48 -0.85334,0.93334 -1.34667,1.40001 -1.48,1.4 -0.74667,1e-5 -1.12,-0.43999 -1.12,-1.32 0,-0.31999 0.69333,-1.30666 2.08,-2.96 1.41333,-1.67999 2.39999,-2.51999 2.96,-2.52 0.77332,10e-6 1.23999,0.25335 1.4,0.76 0.0267,0.48001 0.0533,0.97335 0.08,1.48 0.0533,0.48001 0.31999,0.72001 0.8,0.72 0.45332,10e-6 1.11999,-0.29332 2,-0.88 0.87999,-0.61332 1.59998,-0.91999 2.16,-0.92 0.93332,1e-5 1.39998,0.48001 1.4,1.44 -2e-5,0.45334 -0.46668,0.89334 -1.4,1.32 l -3.16,1.24 c -2.42668,1.09334 -3.64001,2.34667 -3.64,3.76 -1e-5,0.37334 0.30666,0.56 0.92,0.56 1.19999,0 3.31999,-0.47999 6.36,-1.44 0.66665,-0.21333 1.66665,-0.61333 3,-1.2 1.09331,-0.50666 1.74665,-0.75999 1.96,-0.76 0.29331,10e-6 0.47998,0.04 0.56,0.12 0.08,0.08 0.11998,0.28001 0.12,0.6"
         id="path2845" /><path
         d="m 245.52321,297.73362 c -2e-5,0.21334 -0.64002,0.62667 -1.92,1.24 -1.25335,0.61334 -2.49335,1.14667 -3.72,1.6 -1.65335,0.58667 -2.74668,0.94667 -3.28,1.08 -1.04001,0.26667 -2.25334,0.4 -3.64,0.4 -0.42668,0 -0.97334,-0.18666 -1.64,-0.56 -0.80001,-0.48 -1.20001,-1.02666 -1.2,-1.64 -1e-5,-0.42666 0.51999,-1.21333 1.56,-2.36 1.17332,-1.25332 1.78666,-1.93332 1.84,-2.04 -0.85334,-0.45332 -1.34668,-0.65332 -1.48,-0.6 -0.13334,0.0533 -0.64001,0.54668 -1.52,1.48 -0.85334,0.93334 -1.34667,1.40001 -1.48,1.4 -0.74667,1e-5 -1.12,-0.43999 -1.12,-1.32 0,-0.31999 0.69333,-1.30666 2.08,-2.96 1.41333,-1.67999 2.39999,-2.51999 2.96,-2.52 0.77332,10e-6 1.23999,0.25335 1.4,0.76 0.0267,0.48001 0.0533,0.97335 0.08,1.48 0.0533,0.48001 0.31999,0.72001 0.8,0.72 0.45332,10e-6 1.11999,-0.29332 2,-0.88 0.87999,-0.61332 1.59998,-0.91999 2.16,-0.92 0.93332,1e-5 1.39998,0.48001 1.4,1.44 -2e-5,0.45334 -0.46668,0.89334 -1.4,1.32 l -3.16,1.24 c -2.42668,1.09334 -3.64001,2.34667 -3.64,3.76 -1e-5,0.37334 0.30666,0.56 0.92,0.56 1.19999,0 3.31999,-0.47999 6.36,-1.44 0.66665,-0.21333 1.66665,-0.61333 3,-1.2 1.09331,-0.50666 1.74665,-0.75999 1.96,-0.76 0.29331,10e-6 0.47998,0.04 0.56,0.12 0.08,0.08 0.11998,0.28001 0.12,0.6"
         id="path2847" /><path
         d="m 263.11196,295.77362 c -2e-5,0.18668 -0.54669,0.48001 -1.64,0.88 -1.76002,0.64001 -2.74669,1.01334 -2.96,1.12 l -5.08,2.2 c -1.65335,0.74667 -3.81334,1.81334 -6.48,3.2 l -6.4,6.28 c -1.33333,1.30666 -4.16,3.93333 -8.48,7.88 l -5.92,5.52 c -2.42665,2.10665 -4.33332,3.15998 -5.72,3.16 -0.23998,-2e-5 -0.46665,-0.14669 -0.68,-0.44 -0.23998,-0.26669 -0.38665,-0.54669 -0.44,-0.84 -0.21331,-1.52002 1.80002,-4.25335 6.04,-8.2 1.49335,-1.38668 3.62668,-3.12001 6.4,-5.2 1.62667,-1.22667 3.53334,-2.48 5.72,-3.76 3.38666,-1.94667 5.26666,-3.04 5.64,-3.28 l 4.12,-3.92 3.08,-2.88 c -2.00001,0.61334 -3.44001,0.92001 -4.32,0.92 -0.61334,1e-5 -1.16001,-0.13333 -1.64,-0.4 -0.61334,-0.31999 -0.92,-0.75999 -0.92,-1.32 0,-0.87999 0.50666,-1.90666 1.52,-3.08 0.74666,-0.87999 1.65333,-1.63999 2.72,-2.28 1.06666,-0.63999 1.89332,-0.95999 2.48,-0.96 0.37332,10e-6 0.55999,0.13335 0.56,0.4 -1e-5,0.18668 -0.33334,0.49335 -1,0.92 -0.96001,0.64001 -1.58668,1.08001 -1.88,1.32 -0.53334,0.45335 -1.05334,1.05334 -1.56,1.8 -0.50667,0.74668 -0.76001,1.21334 -0.76,1.4 -10e-6,0.45334 0.35999,0.68001 1.08,0.68 1.25332,10e-6 2.83999,-0.51999 4.76,-1.56 l 3.04,-1.76 c 1.30665,-0.74665 2.13332,-1.11999 2.48,-1.12 0.26665,10e-6 0.39998,0.28001 0.4,0.84 -2e-5,0.24001 -0.77335,1.05334 -2.32,2.44 -1.76001,1.60001 -2.81335,2.62667 -3.16,3.08 l 6.72,-2.36 2.28,-0.8 c 0.74664,-0.29332 1.29331,-0.43999 1.64,-0.44 0.45331,1e-5 0.67998,0.18668 0.68,0.56 m -24.4,13.12 c -1.36,0.56 -3.57333,1.93333 -6.64,4.12 -2.23999,1.59999 -4.02666,3.03999 -5.36,4.32 -1.51999,1.43999 -2.89332,2.86665 -4.12,4.28 -1.22665,1.43998 -1.83998,2.30665 -1.84,2.6 2e-5,0.34665 0.0934,0.51998 0.28,0.52 0.69335,-2e-5 2.01335,-0.86669 3.96,-2.6 l 5.96,-5.6 c 2.58667,-2.40001 4.22667,-3.94667 4.92,-4.64 1.6,-1.52001 2.54667,-2.52 2.84,-3"
         id="path2849" /><path
         d="m 289.42946,297.73362 c -2e-5,0.21334 -0.64002,0.62667 -1.92,1.24 -1.25335,0.61334 -2.49335,1.14667 -3.72,1.6 -1.65335,0.58667 -2.74668,0.94667 -3.28,1.08 -1.04001,0.26667 -2.25334,0.4 -3.64,0.4 -0.42668,0 -0.97334,-0.18666 -1.64,-0.56 -0.80001,-0.48 -1.20001,-1.02666 -1.2,-1.64 -10e-6,-0.42666 0.51999,-1.21333 1.56,-2.36 1.17332,-1.25332 1.78666,-1.93332 1.84,-2.04 -0.85334,-0.45332 -1.34668,-0.65332 -1.48,-0.6 -0.13334,0.0533 -0.64001,0.54668 -1.52,1.48 -0.85334,0.93334 -1.34667,1.40001 -1.48,1.4 -0.74667,1e-5 -1.12,-0.43999 -1.12,-1.32 0,-0.31999 0.69333,-1.30666 2.08,-2.96 1.41333,-1.67999 2.39999,-2.51999 2.96,-2.52 0.77332,10e-6 1.23999,0.25335 1.4,0.76 0.0267,0.48001 0.0533,0.97335 0.08,1.48 0.0533,0.48001 0.31999,0.72001 0.8,0.72 0.45332,10e-6 1.11999,-0.29332 2,-0.88 0.87999,-0.61332 1.59998,-0.91999 2.16,-0.92 0.93332,1e-5 1.39998,0.48001 1.4,1.44 -2e-5,0.45334 -0.46668,0.89334 -1.4,1.32 l -3.16,1.24 c -2.42668,1.09334 -3.64001,2.34667 -3.64,3.76 -10e-6,0.37334 0.30666,0.56 0.92,0.56 1.19999,0 3.31999,-0.47999 6.36,-1.44 0.66665,-0.21333 1.66665,-0.61333 3,-1.2 1.09331,-0.50666 1.74665,-0.75999 1.96,-0.76 0.29331,10e-6 0.47998,0.04 0.56,0.12 0.08,0.08 0.11998,0.28001 0.12,0.6"
         id="path2851" /><path
         d="m 300.61821,297.89362 c -2e-5,0.34667 -1.09335,0.94667 -3.28,1.8 -2.40001,0.96 -4.40001,1.44 -6,1.44 -1.30667,0 -2.36001,-0.24 -3.16,-0.72 -0.8,-0.47999 -1.2,-1.05333 -1.2,-1.72 0,-1.33333 1.10666,-2.95999 3.32,-4.88 1.19999,-1.03999 2.54666,-2.03999 4.04,-3 1.38665,-0.87998 2.23999,-1.31998 2.56,-1.32 0.85332,2e-5 1.27998,0.34668 1.28,1.04 -2e-5,1.01335 -1.16001,2.33335 -3.48,3.96 -1.81334,1.28001 -3.28001,2.20001 -4.4,2.76 -0.77334,0.53334 -1.16001,1.01334 -1.16,1.44 -1e-5,0.69334 0.85333,1.04001 2.56,1.04 1.17332,1e-5 2.79999,-0.41333 4.88,-1.24 2.10665,-0.82666 3.21332,-1.23999 3.32,-1.24 0.47998,10e-6 0.71998,0.21334 0.72,0.64"
         id="path2853" /><path
         d="m 334.06071,297.37362 c -4e-5,0.21334 -0.45337,0.57334 -1.36,1.08 -0.88004,0.50667 -1.80004,0.92001 -2.76,1.24 -3.2267,1.09334 -5.76003,1.64 -7.6,1.64 -0.64003,0 -1.18669,-0.16 -1.64,-0.48 -0.45336,-0.34666 -0.68003,-0.79999 -0.68,-1.36 -3e-5,-0.29333 0.39997,-0.89333 1.2,-1.8 l 2.04,-2.2 c -1.76003,0.26668 -3.81336,0.96001 -6.16,2.08 -3.65335,1.73334 -5.64002,2.60001 -5.96,2.6 -0.45335,10e-6 -0.68002,-0.33333 -0.68,-1 -2e-5,-0.08 0.58665,-0.65333 1.76,-1.72 1.19998,-1.09332 1.79998,-1.82666 1.8,-2.2 -2e-5,-0.29332 -0.12002,-0.43999 -0.36,-0.44 -0.37335,10e-6 -1.46668,0.32001 -3.28,0.96 -2.00001,0.69334 -3.92001,1.45334 -5.76,2.28 -0.26668,0.10667 -1.52001,0.74667 -3.76,1.92 -1.49334,0.77334 -2.44,1.16 -2.84,1.16 -0.50667,0 -0.76,-0.32 -0.76,-0.96 0,-0.55999 1.53333,-2.02666 4.6,-4.4 3.06666,-2.37332 5.01332,-3.55999 5.84,-3.56 0.39999,1e-5 0.59999,0.17335 0.6,0.52 -10e-6,0.18668 -0.56001,0.72001 -1.68,1.6 -1.30668,1.01334 -2.09334,1.69334 -2.36,2.04 0.0267,10e-6 1.17332,-0.37332 3.44,-1.12 0.42665,-0.13332 1.78665,-0.63999 4.08,-1.52 1.51998,-0.55999 2.49331,-0.83999 2.92,-0.84 0.69331,10e-6 1.23998,0.18668 1.64,0.56 0.42664,0.37334 0.59998,0.82668 0.52,1.36 -0.10669,0.80001 -0.30669,1.41334 -0.6,1.84 1.09331,-0.50666 2.87998,-1.23999 5.36,-2.2 2.55997,-0.82666 4.26664,-1.23999 5.12,-1.24 0.55997,1e-5 0.83997,0.30668 0.84,0.92 -3e-5,0.24001 -0.48003,0.70668 -1.44,1.4 -1.2267,0.85334 -2.0267,1.46667 -2.4,1.84 l -1.12,1.12 c -0.37336,0.37334 -0.56003,0.70667 -0.56,1 -3e-5,0.34667 0.39997,0.52001 1.2,0.52 1.19997,10e-6 3.1333,-0.41333 5.8,-1.24 0.66663,-0.21333 1.59996,-0.57333 2.8,-1.08 1.03996,-0.45333 1.59996,-0.67999 1.68,-0.68 0.34663,10e-6 0.51996,0.12001 0.52,0.36"
         id="path2855" /><path
         d="m 342.68446,288.81362 c -0.82668,2e-5 -1.24001,-0.41332 -1.24,-1.24 -10e-6,-0.82665 0.41332,-1.23998 1.24,-1.24 0.34665,2e-5 0.63998,0.13335 0.88,0.4 0.26665,0.24002 0.39998,0.53335 0.4,0.88 -2e-5,0.80002 -0.42668,1.20002 -1.28,1.2 m 0.92,9.48 c -2e-5,0.40001 -1.20002,0.97334 -3.6,1.72 -2.58668,0.85334 -4.90668,1.28 -6.96,1.28 -0.69334,0 -1.30667,-0.22666 -1.84,-0.68 -0.50667,-0.45333 -0.76,-1.01333 -0.76,-1.68 0,-0.61333 1.06666,-1.85333 3.2,-3.72 2.07999,-1.78665 3.49332,-2.75999 4.24,-2.92 0.34666,-0.08 0.51999,0.17335 0.52,0.76 -10e-6,0.24001 -0.94668,1.17334 -2.84,2.8 -1.89334,1.60001 -2.84001,2.62667 -2.84,3.08 -1e-5,0.48001 0.49333,0.72001 1.48,0.72 1.22666,1e-5 2.89332,-0.34666 5,-1.04 2.10665,-0.69333 3.19998,-1.03999 3.28,-1.04 0.74665,10e-6 1.11998,0.24001 1.12,0.72"
         id="path2857" /><path
         d="m 365.73821,296.57362 c -3e-5,0.40001 -1.25336,1.24001 -3.76,2.52 -2.61336,1.33334 -4.54669,2 -5.8,2 -0.66668,0 -1.30668,-0.14666 -1.92,-0.44 -0.61335,-0.32 -1.00002,-0.66666 -1.16,-1.04 -1.17335,0.53334 -2.69335,1.02667 -4.56,1.48 -2.18668,0.53334 -3.74667,0.8 -4.68,0.8 -0.72001,0 -1.32,-0.2 -1.8,-0.6 -0.48,-0.37333 -0.72,-0.86666 -0.72,-1.48 0,-0.85333 0.92,-1.97333 2.76,-3.36 1.35999,-1.01332 2.53332,-1.75999 3.52,-2.24 0.15999,-0.08 0.35999,-0.0533 0.6,0.08 0.26666,0.10668 0.37332,0.24001 0.32,0.4 -0.0533,0.18668 -0.38668,0.50668 -1,0.96 l -1.88,1.28 c -1.49334,1.12001 -2.24001,2.01334 -2.24,2.68 -10e-6,0.50667 0.61333,0.76 1.84,0.76 1.30666,0 2.85332,-0.39999 4.64,-1.2 1.94665,-0.87999 3.51998,-1.95999 4.72,-3.24 1.41331,-1.51999 2.11998,-2.89332 2.12,-4.12 -2e-5,-0.74665 -0.21335,-1.22665 -0.64,-1.44 -0.26668,-0.13332 -0.76002,-0.18665 -1.48,-0.16 -0.24002,1e-5 -0.58668,0.12001 -1.04,0.36 -0.42668,0.21335 -0.73335,0.32001 -0.92,0.32 -0.40001,10e-6 -0.60001,-0.22665 -0.6,-0.68 -10e-6,-0.31998 0.30665,-0.58665 0.92,-0.8 0.61332,-0.23998 1.46665,-0.35998 2.56,-0.36 1.86665,2e-5 2.79998,0.77335 2.8,2.32 -2e-5,0.16001 -0.0134,0.40001 -0.04,0.72 l 0,0.52 c 1.14664,-0.53332 1.95998,-0.79999 2.44,-0.8 0.82664,10e-6 1.23998,0.17335 1.24,0.52 -2e-5,0.32001 -0.20002,0.58668 -0.6,0.8 l -1.08,0.6 c -1.09335,0.69334 -2.00002,1.42668 -2.72,2.2 -1.36002,1.41334 -2.04002,2.30667 -2.04,2.68 -2e-5,0.45334 0.0533,0.74667 0.16,0.88 0.15998,0.21334 0.50665,0.32001 1.04,0.32 0.50665,10e-6 2.05331,-0.58666 4.64,-1.76 0.42664,-0.18666 1.19998,-0.58666 2.32,-1.2 0.87997,-0.47999 1.37331,-0.71999 1.48,-0.72 0.37331,10e-6 0.55997,0.14668 0.56,0.44"
         id="path2859" /></g><path
       d="m 1078.5741,483.37114 c 0,-25.031 -20.293,-45.325 -45.326,-45.325 -25.033,0 -45.32601,20.294 -45.32601,45.325 0,25.033 20.29301,45.326 45.32601,45.326 25.033,0 45.326,-20.293 45.326,-45.326"
       style="fill:#000000;fill-opacity:1;fill-rule:nonzero;stroke:none"
       id="path24-0" /><path
       sodipodi:nodetypes="ccscccccccccccccscssssscssccsscscccsssssssssccsssccsc"
       style="color:#000000;fill:#ffffff;fill-opacity:1;fill-rule:nonzero;stroke:none;marker:none;visibility:visible;display:inline;overflow:visible;enable-background:accumulate"
       id="path2463"
       d="m 1030.5756,452.98776 c -1.1058,1.29616 -1.4567,3.91948 -3.6991,3.58413 -3.254,-0.28165 -5.8018,2.07006 -8.5805,3.33708 -1.8762,0.87988 -4.0707,0.002 -5.9215,1.06654 -4.0652,1.94256 -5.9604,6.81138 -5.433,10.98345 0.4599,3.34554 2.5041,6.32064 5.0593,8.47642 2.2151,1.46176 5.0055,1.75581 7.4034,2.86968 1.8661,0.56599 3.1838,1.9287 4.6429,3.09131 2.4528,1.52788 5.9171,1.99135 8.3981,0.12219 2.1586,-1.4421 4.5173,-2.60949 6.5979,-4.14884 1.6252,-1.71286 1.2282,-4.21748 1.6893,-6.32531 0.1934,-4.14 1.9898,-7.99706 2.7158,-12.04611 0.5923,-2.42217 -0.396,-4.77492 -1.7669,-6.71148 -1.5688,-2.27683 -3.2487,-5.1794 -6.3848,-5.42615 -1.5634,0.0764 -3.5245,-0.0831 -4.7209,1.12709 z m 18.068,19.97013 c -0.9887,1.80786 -1.7179,4.352 -0.2831,6.13963 2.3166,2.88703 5.1837,5.30848 8.1419,7.53925 1.3487,1.2084 2.8509,1.0302 4.8301,0.0942 2.0878,-0.98751 2.7963,-3.42612 2.3731,-5.50817 -0.6156,-3.02756 -1.6913,-6.32161 -4.8284,-7.61869 -2.7234,-1.14325 -5.7706,-2.51447 -8.7961,-1.74987 -0.5968,0.15086 -1.1469,0.57262 -1.4371,1.10351 z m -37.6497,15.10836 c -1.9668,1.14164 -3.5285,3.01474 -3.8632,5.28755 -0.425,2.88541 0.097,5.98436 2.0576,8.20888 1.7458,1.98187 3.9502,4.3915 6.9279,4.07284 2.5943,-0.0792 2.437,-2.45832 2.4539,-4.28648 0.2365,-2.06384 1.1789,-3.97022 1.62,-5.98196 0.075,-0.34722 0.082,-0.69183 0,-0.93449 -0.616,-2.246 -2.2397,-4.15376 -3.9585,-5.70522 -1.1679,-1.38663 -2.9856,-1.78354 -4.7697,-0.90072 l -0.4845,0.23972 0,0 z m 31.0607,-1.37214 c -1.8046,0.9552 -4.3766,2.56588 -3.5045,4.88141 0.8167,2.16796 2.0429,4.1586 2.8273,6.35805 0.957,2.68297 2.7512,6.46582 3.9279,7.6048 1.887,1.82648 5.0099,1.78162 7.5587,1.49065 3.1125,-0.35546 4.6669,-3.65353 5.4254,-6.33781 0.559,-1.97869 0.7977,-4.16035 -0.3511,-5.91834 -1.4763,-2.25613 -3.5439,-4.12342 -5.6369,-5.82494 -1.931,-1.56999 -4.3673,-2.63572 -6.8705,-3.02441 -1.1794,-0.17129 -2.3332,0.2193 -3.3746,0.77059 z m -14.0157,6.85097 c -3.1992,2.99811 -4.5551,7.63705 -3.9474,11.81499 0.5677,2.38217 1.9769,4.45221 3.5701,6.27083 1.3738,1.56806 3.0766,3.18374 5.4265,3.24196 2.4786,0.0616 5.3596,-0.12398 7.1434,-1.87722 1.5406,-1.51427 2.6082,-4.25183 1.5178,-6.33584 -2.0464,-3.26431 -3.9352,-6.63056 -5.4451,-10.17842 -0.8057,-1.52981 -1.35,-3.76598 -3.4279,-3.99219 -1.6397,-0.17379 -3.4396,0.12326 -4.8374,1.05589 z" /></g></svg>