<?xml version="1.0" encoding="UTF-8" standalone="no"?>
<!-- Created with Inkscape (http://www.inkscape.org/) -->

<svg
   xmlns:svg="http://www.w3.org/2000/svg"
   xmlns="http://www.w3.org/2000/svg"
   version="1.1"
   width="210.00233"
   height="210"
   id="svg2863">
  <defs
     id="defs2865" />
  <g
     transform="translate(-403.2848,-536.21951)"
     id="layer1">
    <path
       d="m 613.28713,641.22068 c 0,57.98622 -47.01029,104.99883 -105.00116,104.99883 -57.99086,0 -105.00117,-47.01261 -105.00117,-104.99883 0,-57.99088 47.01031,-105.00117 105.00117,-105.00117 57.99087,0 105.00116,47.01029 105.00116,105.00117"
       id="path24"
       style="fill:#000000;fill-opacity:1;fill-rule:nonzero;stroke:none" />
    <path
       d="m 450.27274,678.60588 c -2.9636,-11.32715 -6.75115,-22.84227 -5.08376,-34.71658 0.11362,-12.94908 2.14986,-26.0956 7.79503,-37.83169 6.45237,-15.27726 17.38566,-29.40171 32.46995,-36.82851 5.39539,-1.77215 12.50071,-4.01862 17.22218,0.17033 1.06008,3.95286 -1.92733,10.23703 -3.38185,12.68998 -0.18141,9.61312 -3.13029,19.01382 -2.54437,28.66658 -1.56255,5.56797 -0.24875,12.32965 0.0669,18.33008 0.78844,6.54488 1.50132,13.15221 2.64701,19.45385 3.76341,4.27998 2.43313,12.68673 5.25847,16.49598 -0.0346,5.32855 2.14284,13.4198 -0.84813,17.30172 -0.67195,6.12776 -3.77451,13.14589 -9.17028,15.57368 -4.99592,4.6351 -12.86651,4.73455 -19.40091,4.1558 -9.99924,-0.88396 -18.42674,-8.177 -21.9849,-17.37061 -1.01511,-2.03021 -2.03022,-4.06041 -3.04531,-6.09061 z m 67.84989,10.00786 c -2.02121,-6.43171 -3.26425,-13.07341 -4.57986,-19.67647 1.25429,-5.05598 -0.73033,-11.81314 2.03546,-16.66559 0.67622,-5.13636 2.64748,-9.91155 3.06001,-15.09804 0.49088,-4.0558 1.52659,-7.9506 2.06581,-11.87759 0.76546,-14.47225 -3.36123,-28.72099 -2.58142,-43.20664 1.4087,-5.36379 -0.70161,-16.7334 7.97517,-17.38851 7.45641,0.65317 14.98653,4.33595 18.65592,11.1124 4.98088,4.68511 8.50684,10.54222 11.87372,16.28397 2.72095,5.68507 5.04314,11.4804 8.00413,17.13478 1.92124,5.382 2.59436,11.81622 4.10279,16.26013 0.70512,5.73584 1.5051,12.31629 2.82006,17.39299 0,2.97334 0,5.94666 0,8.92 -0.10434,5.13239 -0.79943,11.30166 -1.92952,17.22489 -1.99494,5.71037 -4.27513,11.53173 -7.9591,16.61261 -7.46984,7.71141 -16.77306,16.40846 -28.4042,14.82625 -6.84909,-0.76176 -12.1727,-5.92158 -15.13897,-11.85518 z"
       id="path2855"
       style="font-size:40px;font-style:normal;font-variant:normal;font-weight:normal;font-stretch:normal;fill:#ffffff;fill-opacity:1;stroke:none;font-family:AnimalTracks;-inkscape-font-specification:AnimalTracks" />
  </g>
</svg>
