<?xml version="1.0" encoding="UTF-8" standalone="no"?>
<!-- Created with Inkscape (http://www.inkscape.org/) -->

<svg
   xmlns:dc="http://purl.org/dc/elements/1.1/"
   xmlns:cc="http://creativecommons.org/ns#"
   xmlns:rdf="http://www.w3.org/1999/02/22-rdf-syntax-ns#"
   xmlns:svg="http://www.w3.org/2000/svg"
   xmlns="http://www.w3.org/2000/svg"
   xmlns:sodipodi="http://sodipodi.sourceforge.net/DTD/sodipodi-0.dtd"
   xmlns:inkscape="http://www.inkscape.org/namespaces/inkscape"
   id="svg2"
   version="1.1"
   inkscape:version="0.48.0 r9654"
   width="1036.7832"
   height="444.10297"
   xml:space="preserve"
   sodipodi:docname="main1.svg"><metadata
     id="metadata8"><rdf:RDF><cc:Work
         rdf:about=""><dc:format>image/svg+xml</dc:format><dc:type
           rdf:resource="http://purl.org/dc/dcmitype/StillImage" /><dc:title></dc:title></cc:Work></rdf:RDF></metadata><defs
     id="defs6"><inkscape:perspective
       sodipodi:type="inkscape:persp3d"
       inkscape:vp_x="0 : 526.18127 : 1"
       inkscape:vp_y="0 : 1000 : 0"
       inkscape:vp_z="1488.1875 : 526.18127 : 1"
       inkscape:persp3d-origin="744.09375 : 350.78752 : 1"
       id="perspective20" /><clipPath
       clipPathUnits="userSpaceOnUse"
       id="clipPath20"><path
         d="m 0,8418.9 11905.5,0 L 11905.5,0 0,0 0,8418.9 z"
         id="path22" /></clipPath><inkscape:perspective
       id="perspective4390"
       inkscape:persp3d-origin="0.5 : 0.33333333 : 1"
       inkscape:vp_z="1 : 0.5 : 1"
       inkscape:vp_y="0 : 1000 : 0"
       inkscape:vp_x="0 : 0.5 : 1"
       sodipodi:type="inkscape:persp3d" /><inkscape:perspective
       id="perspective2875"
       inkscape:persp3d-origin="0.5 : 0.33333333 : 1"
       inkscape:vp_z="1 : 0.5 : 1"
       inkscape:vp_y="0 : 1000 : 0"
       inkscape:vp_x="0 : 0.5 : 1"
       sodipodi:type="inkscape:persp3d" /><inkscape:perspective
       id="perspective2889"
       inkscape:persp3d-origin="0.5 : 0.33333333 : 1"
       inkscape:vp_z="1 : 0.5 : 1"
       inkscape:vp_y="0 : 1000 : 0"
       inkscape:vp_x="0 : 0.5 : 1"
       sodipodi:type="inkscape:persp3d" /></defs><sodipodi:namedview
     pagecolor="#ffffff"
     bordercolor="#666666"
     borderopacity="1"
     objecttolerance="10"
     gridtolerance="10"
     guidetolerance="10"
     inkscape:pageopacity="0"
     inkscape:pageshadow="2"
     inkscape:window-width="1280"
     inkscape:window-height="949"
     id="namedview4"
     showgrid="false"
     inkscape:zoom="1.4142136"
     inkscape:cx="950.06437"
     inkscape:cy="338.8446"
     inkscape:window-x="0"
     inkscape:window-y="24"
     inkscape:window-maximized="1"
     inkscape:current-layer="g12" /><g
     id="g12"
     inkscape:groupmode="layer"
     inkscape:label="ink_ext_XXXXXX"
     transform="matrix(1.25,0,0,-1.25,-180.43801,660.8075)"><path
       style="fill:#000000;fill-opacity:1;fill-rule:nonzero;stroke:none"
       d="M 980.125 0 C 948.83375 0 923.46875 25.365 923.46875 56.65625 C 923.46875 87.945 948.83375 113.3125 980.125 113.3125 C 1011.4163 113.3125 1036.7812 87.945 1036.7812 56.65625 C 1036.7812 25.365 1011.4162 0 980.125 0 z M 979.9375 17.21875 C 983.03575 17.14175 986.614 17.37095 988.84375 19.5625 C 990.7695 21.455338 992.113 24.863737 990.75 27.46875 C 988.192 31.549138 985.82488 35.783925 983.9375 40.21875 C 982.93037 42.131012 982.25363 44.904738 979.65625 45.1875 C 977.60663 45.404738 975.37225 45.040787 973.625 43.875 C 969.626 40.127363 967.92787 34.316175 968.6875 29.09375 C 969.39712 26.116038 971.16475 23.554525 973.15625 21.28125 C 974.8735 19.321175 977.00012 17.291525 979.9375 17.21875 z M 1000.875 26.84375 C 1002.1523 26.786487 1003.4615 26.894858 1004.6562 27.03125 C 1008.5469 27.475575 1010.4894 31.58215 1011.4375 34.9375 C 1012.1363 37.410863 1012.436 40.146262 1011 42.34375 C 1009.1546 45.163912 1006.5537 47.4981 1003.9375 49.625 C 1001.5237 51.587488 998.47275 52.920388 995.34375 53.40625 C 993.8695 53.620363 992.42675 53.126613 991.125 52.4375 C 988.86925 51.2435 985.65987 49.238163 986.75 46.34375 C 987.77087 43.6338 989.30075 41.124312 990.28125 38.375 C 991.4775 35.021287 993.71663 30.298725 995.1875 28.875 C 996.66172 27.448063 998.74622 26.939188 1000.875 26.84375 z M 958.03125 28.71875 C 958.25643 28.717965 958.48612 28.725105 958.71875 28.75 C 961.96162 28.849 961.76012 31.8398 961.78125 34.125 C 962.07687 36.7048 963.26112 39.079075 963.8125 41.59375 C 963.90625 42.027775 963.915 42.477925 963.8125 42.78125 C 963.0425 45.58875 960.99225 47.966925 958.84375 49.90625 C 957.38387 51.639537 955.13637 52.134775 952.90625 51.03125 L 952.3125 50.71875 L 952.28125 50.71875 C 949.83355 49.290472 947.88582 46.957172 947.46875 44.125 C 946.9375 40.518238 947.61175 36.6244 950.0625 33.84375 C 952.10836 31.521246 954.65359 28.730525 958.03125 28.71875 z M 974.5625 51.125 C 976.18102 51.163748 977.7682 51.634053 979.125 52.65625 C 981.82325 54.458875 984.77425 55.919562 987.375 57.84375 C 989.4065 59.984825 988.89237 63.115213 989.46875 65.75 C 989.7105 70.925 991.9675 75.751188 992.875 80.8125 C 993.61537 83.840213 992.36987 86.7668 990.65625 89.1875 C 988.69525 92.033538 986.60762 95.660312 982.6875 95.96875 C 980.73325 95.87325 978.27675 96.075238 976.78125 94.5625 C 975.399 92.9423 974.95925 89.674562 972.15625 90.09375 C 968.08875 90.445812 964.91088 87.490025 961.4375 85.90625 C 959.09225 84.8064 956.34475 85.924425 954.03125 84.59375 C 948.94975 82.16555 946.59075 76.058838 947.25 70.84375 C 947.82488 66.661825 950.3685 62.944725 953.5625 60.25 C 956.33137 58.4228 959.81512 58.079838 962.8125 56.6875 C 965.14513 55.980013 966.80112 54.265763 968.625 52.8125 C 970.34963 51.738209 972.48155 51.075181 974.5625 51.125 z M 1011.9062 51.4375 C 1012.8957 51.450625 1013.9818 51.82125 1015.2188 52.40625 C 1017.8285 53.640638 1018.7165 56.678688 1018.1875 59.28125 C 1017.418 63.0657 1016.0776 67.19115 1012.1562 68.8125 C 1008.752 70.241562 1004.9381 71.95575 1001.1562 71 C 1000.4102 70.811425 999.73775 70.288612 999.375 69.625 C 998.13912 67.365175 997.23775 64.172038 999.03125 61.9375 C 1001.927 58.328713 1005.4898 55.288463 1009.1875 52.5 C 1010.0304 51.74475 1010.9168 51.424375 1011.9062 51.4375 z "
       id="path24"
       transform="matrix(0.8,0,0,-0.8,144.35041,528.646)" /><path
       inkscape:connector-curvature="0"
       id="path28"
       style="fill:#000000;fill-opacity:1;fill-rule:nonzero;stroke:none"
       d="m 307.076,364.389 c -4.606,-1.153 -10.684,-2.375 -18.238,-3.669 -7.554,-1.296 -16.296,-1.942 -26.224,-1.942 -8.634,0 -15.901,1.26 -21.8,3.775 -5.902,2.516 -10.65,6.079 -14.245,10.685 -3.598,4.603 -6.188,10.037 -7.77,16.296 -1.585,6.259 -2.374,13.199 -2.374,20.828 l 0,63.023 20.072,0 0,-58.706 c 0,-13.672 2.159,-23.456 6.476,-29.353 4.316,-5.903 11.581,-8.851 21.799,-8.851 2.158,0 4.387,0.072 6.691,0.218 2.3,0.14 4.458,0.323 6.475,0.539 2.013,0.216 3.848,0.43 5.504,0.646 1.653,0.216 2.84,0.465 3.561,0.755 l 0,94.752 20.073,0" /><path
       inkscape:connector-curvature="0"
       id="path30"
       style="fill:#000000;fill-opacity:1;fill-rule:nonzero;stroke:none"
       d="m 356.068,378.633 c 2.013,-0.576 4.856,-1.115 8.526,-1.617 3.669,-0.506 8.235,-0.757 13.705,-0.757 10.792,0 19.425,3.562 25.9,10.684 6.475,7.124 9.713,17.231 9.713,30.327 0,5.751 -0.577,11.148 -1.727,16.187 -1.153,5.035 -3.021,9.387 -5.611,13.056 -2.59,3.67 -5.936,6.547 -10.037,8.635 -4.101,2.084 -9.031,3.129 -14.784,3.129 -5.471,0 -10.506,-0.937 -15.109,-2.806 -4.607,-1.872 -8.131,-3.815 -10.576,-5.827 l 0,-71.011 z m 0,89.789 c 2.445,1.581 6.151,3.237 11.115,4.962 4.965,1.728 10.684,2.59 17.159,2.59 8.057,0 15.217,-1.438 21.476,-4.315 6.259,-2.88 11.547,-6.907 15.864,-12.088 4.317,-5.18 7.588,-11.368 9.821,-18.562 2.229,-7.196 3.345,-15.107 3.345,-23.739 0,-9.067 -1.332,-17.236 -3.993,-24.5 -2.664,-7.266 -6.441,-13.417 -11.331,-18.452 -4.894,-5.039 -10.792,-8.923 -17.699,-11.657 -6.906,-2.731 -14.677,-4.099 -23.31,-4.099 -9.355,0 -17.628,0.646 -24.822,1.942 -7.196,1.295 -13.095,2.589 -17.698,3.885 l 0,160.798 20.073,3.452" /><path
       inkscape:connector-curvature="0"
       id="path32"
       style="fill:#000000;fill-opacity:1;fill-rule:nonzero;stroke:none"
       d="m 546.864,364.389 c -4.607,-1.153 -10.684,-2.375 -18.238,-3.669 -7.555,-1.296 -16.296,-1.942 -26.224,-1.942 -8.634,0 -15.901,1.26 -21.8,3.775 -5.902,2.516 -10.651,6.079 -14.245,10.685 -3.599,4.603 -6.188,10.037 -7.769,16.296 -1.586,6.259 -2.376,13.199 -2.376,20.828 l 0,63.023 20.073,0 0,-58.706 c 0,-13.672 2.159,-23.456 6.475,-29.353 4.317,-5.903 11.582,-8.851 21.8,-8.851 2.158,0 4.387,0.072 6.691,0.218 2.3,0.14 4.458,0.323 6.475,0.539 2.013,0.216 3.848,0.43 5.504,0.646 1.652,0.216 2.84,0.465 3.561,0.755 l 0,94.752 20.073,0" /><path
       inkscape:connector-curvature="0"
       id="path34"
       style="fill:#000000;fill-opacity:1;fill-rule:nonzero;stroke:none"
       d="m 575.783,470.147 c 4.604,1.151 10.717,2.375 18.347,3.671 7.625,1.294 16.402,1.941 26.33,1.941 8.922,0 16.33,-1.26 22.232,-3.776 5.899,-2.52 10.61,-6.043 14.137,-10.576 3.523,-4.533 6.006,-9.967 7.447,-16.296 1.436,-6.333 2.158,-13.312 2.158,-20.937 l 0,-63.023 -20.074,0 0,58.708 c 0,6.905 -0.469,12.804 -1.402,17.697 -0.938,4.89 -2.481,8.849 -4.641,11.87 -2.158,3.024 -5.037,5.216 -8.633,6.584 -3.599,1.367 -8.06,2.051 -13.38,2.051 -2.161,0 -4.393,-0.074 -6.692,-0.216 -2.304,-0.144 -4.499,-0.325 -6.583,-0.541 -2.089,-0.215 -3.96,-0.469 -5.611,-0.755 -1.656,-0.29 -2.844,-0.506 -3.562,-0.646 l 0,-94.752 -20.073,0" /><path
       inkscape:connector-curvature="0"
       id="path36"
       style="fill:#000000;fill-opacity:1;fill-rule:nonzero;stroke:none"
       d="m 712.837,473.384 42.52,0 0,-16.835 -42.52,0 0,-51.799 c 0,-5.612 0.43,-10.253 1.295,-13.921 0.863,-3.671 2.158,-6.549 3.885,-8.634 1.726,-2.088 3.884,-3.562 6.474,-4.425 2.59,-0.863 5.612,-1.296 9.065,-1.296 6.185,0 11.08,0.682 14.677,2.051 3.594,1.366 6.043,2.337 7.338,2.913 l 4.317,-16.403 c -2.016,-1.008 -5.578,-2.304 -10.684,-3.884 -5.109,-1.582 -10.898,-2.374 -17.375,-2.374 -7.627,0 -13.92,0.97 -18.885,2.913 -4.964,1.944 -8.957,4.857 -11.978,8.741 -3.022,3.886 -5.147,8.668 -6.367,14.355 -1.225,5.681 -1.836,12.264 -1.836,19.748 l 0,100.147 20.074,3.453" /><path
       inkscape:connector-curvature="0"
       id="path38"
       style="fill:#000000;fill-opacity:1;fill-rule:nonzero;stroke:none"
       d="m 864.568,364.389 c -4.607,-1.153 -10.687,-2.375 -18.239,-3.669 -7.555,-1.296 -16.295,-1.942 -26.225,-1.942 -8.633,0 -15.9,1.26 -21.799,3.775 -5.901,2.516 -10.65,6.079 -14.246,10.685 -3.597,4.603 -6.187,10.037 -7.769,16.296 -1.586,6.259 -2.375,13.199 -2.375,20.828 l 0,63.023 20.074,0 0,-58.706 c 0,-13.672 2.158,-23.456 6.474,-29.353 4.317,-5.903 11.582,-8.851 21.799,-8.851 2.159,0 4.387,0.072 6.692,0.218 2.3,0.14 4.459,0.323 6.475,0.539 2.014,0.216 3.848,0.43 5.503,0.646 1.654,0.216 2.84,0.465 3.561,0.755 l 0,94.752 20.075,0" /><g
       style="font-size:40px;font-style:normal;font-variant:normal;font-weight:normal;font-stretch:normal;fill:#000000;fill-opacity:1;stroke:none;font-family:newPushkin;-inkscape-font-specification:newPushkin"
       id="text2816"
       transform="matrix(3.8398597,0,0,-3.8398597,-489.40196,1425.2102)"><path
         d="m 195.40571,284.37362 c -3e-5,0.45335 -0.49336,1.12002 -1.48,2 -1.60002,1.46668 -2.48002,2.28002 -2.64,2.44 -1.78669,1.94668 -3.93335,3.97335 -6.44,6.08 4.79998,-0.95999 7.65331,-1.43999 8.56,-1.44 1.03998,10e-6 1.55997,0.21334 1.56,0.64 -3e-5,0.34668 -0.60002,0.66668 -1.8,0.96 l -3.12,0.64 c -0.88002,0.13334 -1.76002,0.28001 -2.64,0.44 -1.25335,0.21334 -2.30668,0.50668 -3.16,0.88 -0.34668,0.13334 -0.92001,0.42667 -1.72,0.88 l -3.16,3.96 c -1.89334,2.32 -3.54667,4.2 -4.96,5.64 l -4.68,4.92 c -1.73333,1.73332 -3,2.59999 -3.8,2.6 -0.58666,-10e-6 -0.88,-0.26668 -0.88,-0.8 0,-1.06667 2.04,-3.86667 6.12,-8.4 1.09333,-1.22667 2.46666,-2.52 4.12,-3.88 2.23999,-1.83999 3.55999,-2.94666 3.96,-3.32 0.61332,-0.63999 1.70666,-1.87999 3.28,-3.72 -4.40001,2.00001 -7.10667,3.00001 -8.12,3 -0.61334,10e-6 -0.92,-0.39999 -0.92,-1.2 0,-0.10666 0.58666,-0.35999 1.76,-0.76 1.65333,-0.53332 2.98666,-1.03999 4,-1.52 0.90666,-0.42666 2.43999,-1.33332 4.6,-2.72 1.41332,-0.90665 3.57332,-2.62665 6.48,-5.16 2.37331,-2.05331 3.75998,-3.07998 4.16,-3.08 0.61331,2e-5 0.91997,0.30669 0.92,0.92"
         id="path2841" /><path
         d="m 215.00258,297.33362 c -2e-5,0.48001 -1.30669,1.18667 -3.92,2.12 -2.10668,0.74667 -3.68002,1.12 -4.72,1.12 -1.17335,0 -2.10668,-0.2 -2.8,-0.6 -0.24001,-0.10666 -0.70668,-0.47999 -1.4,-1.12 -1.68001,0.85334 -2.89334,1.37334 -3.64,1.56 -1.14667,0.32 -2.76,0.48 -4.84,0.48 -0.69333,0 -1.30667,-0.22666 -1.84,-0.68 -0.50667,-0.45333 -0.76,-1.01333 -0.76,-1.68 0,-0.61333 1.06667,-1.85332 3.2,-3.72 2.08,-1.78665 3.49333,-2.75999 4.24,-2.92 0.34666,-0.08 0.51999,0.17335 0.52,0.76 -10e-6,0.24001 -0.94667,1.17334 -2.84,2.8 -1.89334,1.60001 -2.84,2.62667 -2.84,3.08 0,0.48001 0.49333,0.72001 1.48,0.72 2.63999,10e-6 5.30666,-0.90666 8,-2.72 0.53332,-0.34666 1.62665,-1.18666 3.28,-2.52 1.14665,-0.90665 1.86665,-1.35999 2.16,-1.36 0.39998,1e-5 0.59998,0.28001 0.6,0.84 -2e-5,0.80001 -0.36002,1.52001 -1.08,2.16 -0.26668,0.24001 -0.92002,0.69334 -1.96,1.36 -0.72001,0.45334 -1.08001,0.82667 -1.08,1.12 -1e-5,0.74667 0.62665,1.12001 1.88,1.12 0.58665,10e-6 1.85332,-0.29333 3.8,-0.88 0.42665,-0.13333 1.21331,-0.42666 2.36,-0.88 0.90664,-0.37333 1.46664,-0.55999 1.68,-0.56 0.34664,10e-6 0.51998,0.13334 0.52,0.4"
         id="path2843" /><path
         d="m 230.05446,297.73362 c -2e-5,0.21334 -0.64002,0.62667 -1.92,1.24 -1.25335,0.61334 -2.49335,1.14667 -3.72,1.6 -1.65335,0.58667 -2.74668,0.94667 -3.28,1.08 -1.04001,0.26667 -2.25334,0.4 -3.64,0.4 -0.42668,0 -0.97334,-0.18666 -1.64,-0.56 -0.80001,-0.48 -1.20001,-1.02666 -1.2,-1.64 -1e-5,-0.42666 0.51999,-1.21333 1.56,-2.36 1.17332,-1.25332 1.78666,-1.93332 1.84,-2.04 -0.85334,-0.45332 -1.34668,-0.65332 -1.48,-0.6 -0.13334,0.0533 -0.64001,0.54668 -1.52,1.48 -0.85334,0.93334 -1.34667,1.40001 -1.48,1.4 -0.74667,1e-5 -1.12,-0.43999 -1.12,-1.32 0,-0.31999 0.69333,-1.30666 2.08,-2.96 1.41333,-1.67999 2.39999,-2.51999 2.96,-2.52 0.77332,10e-6 1.23999,0.25335 1.4,0.76 0.0267,0.48001 0.0533,0.97335 0.08,1.48 0.0533,0.48001 0.31999,0.72001 0.8,0.72 0.45332,10e-6 1.11999,-0.29332 2,-0.88 0.87999,-0.61332 1.59998,-0.91999 2.16,-0.92 0.93332,1e-5 1.39998,0.48001 1.4,1.44 -2e-5,0.45334 -0.46668,0.89334 -1.4,1.32 l -3.16,1.24 c -2.42668,1.09334 -3.64001,2.34667 -3.64,3.76 -1e-5,0.37334 0.30666,0.56 0.92,0.56 1.19999,0 3.31999,-0.47999 6.36,-1.44 0.66665,-0.21333 1.66665,-0.61333 3,-1.2 1.09331,-0.50666 1.74665,-0.75999 1.96,-0.76 0.29331,10e-6 0.47998,0.04 0.56,0.12 0.08,0.08 0.11998,0.28001 0.12,0.6"
         id="path2845" /><path
         d="m 245.52321,297.73362 c -2e-5,0.21334 -0.64002,0.62667 -1.92,1.24 -1.25335,0.61334 -2.49335,1.14667 -3.72,1.6 -1.65335,0.58667 -2.74668,0.94667 -3.28,1.08 -1.04001,0.26667 -2.25334,0.4 -3.64,0.4 -0.42668,0 -0.97334,-0.18666 -1.64,-0.56 -0.80001,-0.48 -1.20001,-1.02666 -1.2,-1.64 -1e-5,-0.42666 0.51999,-1.21333 1.56,-2.36 1.17332,-1.25332 1.78666,-1.93332 1.84,-2.04 -0.85334,-0.45332 -1.34668,-0.65332 -1.48,-0.6 -0.13334,0.0533 -0.64001,0.54668 -1.52,1.48 -0.85334,0.93334 -1.34667,1.40001 -1.48,1.4 -0.74667,1e-5 -1.12,-0.43999 -1.12,-1.32 0,-0.31999 0.69333,-1.30666 2.08,-2.96 1.41333,-1.67999 2.39999,-2.51999 2.96,-2.52 0.77332,10e-6 1.23999,0.25335 1.4,0.76 0.0267,0.48001 0.0533,0.97335 0.08,1.48 0.0533,0.48001 0.31999,0.72001 0.8,0.72 0.45332,10e-6 1.11999,-0.29332 2,-0.88 0.87999,-0.61332 1.59998,-0.91999 2.16,-0.92 0.93332,1e-5 1.39998,0.48001 1.4,1.44 -2e-5,0.45334 -0.46668,0.89334 -1.4,1.32 l -3.16,1.24 c -2.42668,1.09334 -3.64001,2.34667 -3.64,3.76 -1e-5,0.37334 0.30666,0.56 0.92,0.56 1.19999,0 3.31999,-0.47999 6.36,-1.44 0.66665,-0.21333 1.66665,-0.61333 3,-1.2 1.09331,-0.50666 1.74665,-0.75999 1.96,-0.76 0.29331,10e-6 0.47998,0.04 0.56,0.12 0.08,0.08 0.11998,0.28001 0.12,0.6"
         id="path2847" /><path
         d="m 263.11196,295.77362 c -2e-5,0.18668 -0.54669,0.48001 -1.64,0.88 -1.76002,0.64001 -2.74669,1.01334 -2.96,1.12 l -5.08,2.2 c -1.65335,0.74667 -3.81334,1.81334 -6.48,3.2 l -6.4,6.28 c -1.33333,1.30666 -4.16,3.93333 -8.48,7.88 l -5.92,5.52 c -2.42665,2.10665 -4.33332,3.15998 -5.72,3.16 -0.23998,-2e-5 -0.46665,-0.14669 -0.68,-0.44 -0.23998,-0.26669 -0.38665,-0.54669 -0.44,-0.84 -0.21331,-1.52002 1.80002,-4.25335 6.04,-8.2 1.49335,-1.38668 3.62668,-3.12001 6.4,-5.2 1.62667,-1.22667 3.53334,-2.48 5.72,-3.76 3.38666,-1.94667 5.26666,-3.04 5.64,-3.28 l 4.12,-3.92 3.08,-2.88 c -2.00001,0.61334 -3.44001,0.92001 -4.32,0.92 -0.61334,1e-5 -1.16001,-0.13333 -1.64,-0.4 -0.61334,-0.31999 -0.92,-0.75999 -0.92,-1.32 0,-0.87999 0.50666,-1.90666 1.52,-3.08 0.74666,-0.87999 1.65333,-1.63999 2.72,-2.28 1.06666,-0.63999 1.89332,-0.95999 2.48,-0.96 0.37332,10e-6 0.55999,0.13335 0.56,0.4 -1e-5,0.18668 -0.33334,0.49335 -1,0.92 -0.96001,0.64001 -1.58668,1.08001 -1.88,1.32 -0.53334,0.45335 -1.05334,1.05334 -1.56,1.8 -0.50667,0.74668 -0.76001,1.21334 -0.76,1.4 -10e-6,0.45334 0.35999,0.68001 1.08,0.68 1.25332,10e-6 2.83999,-0.51999 4.76,-1.56 l 3.04,-1.76 c 1.30665,-0.74665 2.13332,-1.11999 2.48,-1.12 0.26665,10e-6 0.39998,0.28001 0.4,0.84 -2e-5,0.24001 -0.77335,1.05334 -2.32,2.44 -1.76001,1.60001 -2.81335,2.62667 -3.16,3.08 l 6.72,-2.36 2.28,-0.8 c 0.74664,-0.29332 1.29331,-0.43999 1.64,-0.44 0.45331,1e-5 0.67998,0.18668 0.68,0.56 m -24.4,13.12 c -1.36,0.56 -3.57333,1.93333 -6.64,4.12 -2.23999,1.59999 -4.02666,3.03999 -5.36,4.32 -1.51999,1.43999 -2.89332,2.86665 -4.12,4.28 -1.22665,1.43998 -1.83998,2.30665 -1.84,2.6 2e-5,0.34665 0.0934,0.51998 0.28,0.52 0.69335,-2e-5 2.01335,-0.86669 3.96,-2.6 l 5.96,-5.6 c 2.58667,-2.40001 4.22667,-3.94667 4.92,-4.64 1.6,-1.52001 2.54667,-2.52 2.84,-3"
         id="path2849" /><path
         d="m 289.42946,297.73362 c -2e-5,0.21334 -0.64002,0.62667 -1.92,1.24 -1.25335,0.61334 -2.49335,1.14667 -3.72,1.6 -1.65335,0.58667 -2.74668,0.94667 -3.28,1.08 -1.04001,0.26667 -2.25334,0.4 -3.64,0.4 -0.42668,0 -0.97334,-0.18666 -1.64,-0.56 -0.80001,-0.48 -1.20001,-1.02666 -1.2,-1.64 -10e-6,-0.42666 0.51999,-1.21333 1.56,-2.36 1.17332,-1.25332 1.78666,-1.93332 1.84,-2.04 -0.85334,-0.45332 -1.34668,-0.65332 -1.48,-0.6 -0.13334,0.0533 -0.64001,0.54668 -1.52,1.48 -0.85334,0.93334 -1.34667,1.40001 -1.48,1.4 -0.74667,1e-5 -1.12,-0.43999 -1.12,-1.32 0,-0.31999 0.69333,-1.30666 2.08,-2.96 1.41333,-1.67999 2.39999,-2.51999 2.96,-2.52 0.77332,10e-6 1.23999,0.25335 1.4,0.76 0.0267,0.48001 0.0533,0.97335 0.08,1.48 0.0533,0.48001 0.31999,0.72001 0.8,0.72 0.45332,10e-6 1.11999,-0.29332 2,-0.88 0.87999,-0.61332 1.59998,-0.91999 2.16,-0.92 0.93332,1e-5 1.39998,0.48001 1.4,1.44 -2e-5,0.45334 -0.46668,0.89334 -1.4,1.32 l -3.16,1.24 c -2.42668,1.09334 -3.64001,2.34667 -3.64,3.76 -10e-6,0.37334 0.30666,0.56 0.92,0.56 1.19999,0 3.31999,-0.47999 6.36,-1.44 0.66665,-0.21333 1.66665,-0.61333 3,-1.2 1.09331,-0.50666 1.74665,-0.75999 1.96,-0.76 0.29331,10e-6 0.47998,0.04 0.56,0.12 0.08,0.08 0.11998,0.28001 0.12,0.6"
         id="path2851" /><path
         d="m 300.61821,297.89362 c -2e-5,0.34667 -1.09335,0.94667 -3.28,1.8 -2.40001,0.96 -4.40001,1.44 -6,1.44 -1.30667,0 -2.36001,-0.24 -3.16,-0.72 -0.8,-0.47999 -1.2,-1.05333 -1.2,-1.72 0,-1.33333 1.10666,-2.95999 3.32,-4.88 1.19999,-1.03999 2.54666,-2.03999 4.04,-3 1.38665,-0.87998 2.23999,-1.31998 2.56,-1.32 0.85332,2e-5 1.27998,0.34668 1.28,1.04 -2e-5,1.01335 -1.16001,2.33335 -3.48,3.96 -1.81334,1.28001 -3.28001,2.20001 -4.4,2.76 -0.77334,0.53334 -1.16001,1.01334 -1.16,1.44 -1e-5,0.69334 0.85333,1.04001 2.56,1.04 1.17332,1e-5 2.79999,-0.41333 4.88,-1.24 2.10665,-0.82666 3.21332,-1.23999 3.32,-1.24 0.47998,10e-6 0.71998,0.21334 0.72,0.64"
         id="path2853" /><path
         d="m 334.06071,297.37362 c -4e-5,0.21334 -0.45337,0.57334 -1.36,1.08 -0.88004,0.50667 -1.80004,0.92001 -2.76,1.24 -3.2267,1.09334 -5.76003,1.64 -7.6,1.64 -0.64003,0 -1.18669,-0.16 -1.64,-0.48 -0.45336,-0.34666 -0.68003,-0.79999 -0.68,-1.36 -3e-5,-0.29333 0.39997,-0.89333 1.2,-1.8 l 2.04,-2.2 c -1.76003,0.26668 -3.81336,0.96001 -6.16,2.08 -3.65335,1.73334 -5.64002,2.60001 -5.96,2.6 -0.45335,10e-6 -0.68002,-0.33333 -0.68,-1 -2e-5,-0.08 0.58665,-0.65333 1.76,-1.72 1.19998,-1.09332 1.79998,-1.82666 1.8,-2.2 -2e-5,-0.29332 -0.12002,-0.43999 -0.36,-0.44 -0.37335,10e-6 -1.46668,0.32001 -3.28,0.96 -2.00001,0.69334 -3.92001,1.45334 -5.76,2.28 -0.26668,0.10667 -1.52001,0.74667 -3.76,1.92 -1.49334,0.77334 -2.44,1.16 -2.84,1.16 -0.50667,0 -0.76,-0.32 -0.76,-0.96 0,-0.55999 1.53333,-2.02666 4.6,-4.4 3.06666,-2.37332 5.01332,-3.55999 5.84,-3.56 0.39999,1e-5 0.59999,0.17335 0.6,0.52 -10e-6,0.18668 -0.56001,0.72001 -1.68,1.6 -1.30668,1.01334 -2.09334,1.69334 -2.36,2.04 0.0267,10e-6 1.17332,-0.37332 3.44,-1.12 0.42665,-0.13332 1.78665,-0.63999 4.08,-1.52 1.51998,-0.55999 2.49331,-0.83999 2.92,-0.84 0.69331,10e-6 1.23998,0.18668 1.64,0.56 0.42664,0.37334 0.59998,0.82668 0.52,1.36 -0.10669,0.80001 -0.30669,1.41334 -0.6,1.84 1.09331,-0.50666 2.87998,-1.23999 5.36,-2.2 2.55997,-0.82666 4.26664,-1.23999 5.12,-1.24 0.55997,1e-5 0.83997,0.30668 0.84,0.92 -3e-5,0.24001 -0.48003,0.70668 -1.44,1.4 -1.2267,0.85334 -2.0267,1.46667 -2.4,1.84 l -1.12,1.12 c -0.37336,0.37334 -0.56003,0.70667 -0.56,1 -3e-5,0.34667 0.39997,0.52001 1.2,0.52 1.19997,10e-6 3.1333,-0.41333 5.8,-1.24 0.66663,-0.21333 1.59996,-0.57333 2.8,-1.08 1.03996,-0.45333 1.59996,-0.67999 1.68,-0.68 0.34663,10e-6 0.51996,0.12001 0.52,0.36"
         id="path2855" /><path
         d="m 342.68446,288.81362 c -0.82668,2e-5 -1.24001,-0.41332 -1.24,-1.24 -10e-6,-0.82665 0.41332,-1.23998 1.24,-1.24 0.34665,2e-5 0.63998,0.13335 0.88,0.4 0.26665,0.24002 0.39998,0.53335 0.4,0.88 -2e-5,0.80002 -0.42668,1.20002 -1.28,1.2 m 0.92,9.48 c -2e-5,0.40001 -1.20002,0.97334 -3.6,1.72 -2.58668,0.85334 -4.90668,1.28 -6.96,1.28 -0.69334,0 -1.30667,-0.22666 -1.84,-0.68 -0.50667,-0.45333 -0.76,-1.01333 -0.76,-1.68 0,-0.61333 1.06666,-1.85333 3.2,-3.72 2.07999,-1.78665 3.49332,-2.75999 4.24,-2.92 0.34666,-0.08 0.51999,0.17335 0.52,0.76 -10e-6,0.24001 -0.94668,1.17334 -2.84,2.8 -1.89334,1.60001 -2.84001,2.62667 -2.84,3.08 -1e-5,0.48001 0.49333,0.72001 1.48,0.72 1.22666,1e-5 2.89332,-0.34666 5,-1.04 2.10665,-0.69333 3.19998,-1.03999 3.28,-1.04 0.74665,10e-6 1.11998,0.24001 1.12,0.72"
         id="path2857" /><path
         d="m 365.73821,296.57362 c -3e-5,0.40001 -1.25336,1.24001 -3.76,2.52 -2.61336,1.33334 -4.54669,2 -5.8,2 -0.66668,0 -1.30668,-0.14666 -1.92,-0.44 -0.61335,-0.32 -1.00002,-0.66666 -1.16,-1.04 -1.17335,0.53334 -2.69335,1.02667 -4.56,1.48 -2.18668,0.53334 -3.74667,0.8 -4.68,0.8 -0.72001,0 -1.32,-0.2 -1.8,-0.6 -0.48,-0.37333 -0.72,-0.86666 -0.72,-1.48 0,-0.85333 0.92,-1.97333 2.76,-3.36 1.35999,-1.01332 2.53332,-1.75999 3.52,-2.24 0.15999,-0.08 0.35999,-0.0533 0.6,0.08 0.26666,0.10668 0.37332,0.24001 0.32,0.4 -0.0533,0.18668 -0.38668,0.50668 -1,0.96 l -1.88,1.28 c -1.49334,1.12001 -2.24001,2.01334 -2.24,2.68 -10e-6,0.50667 0.61333,0.76 1.84,0.76 1.30666,0 2.85332,-0.39999 4.64,-1.2 1.94665,-0.87999 3.51998,-1.95999 4.72,-3.24 1.41331,-1.51999 2.11998,-2.89332 2.12,-4.12 -2e-5,-0.74665 -0.21335,-1.22665 -0.64,-1.44 -0.26668,-0.13332 -0.76002,-0.18665 -1.48,-0.16 -0.24002,1e-5 -0.58668,0.12001 -1.04,0.36 -0.42668,0.21335 -0.73335,0.32001 -0.92,0.32 -0.40001,10e-6 -0.60001,-0.22665 -0.6,-0.68 -10e-6,-0.31998 0.30665,-0.58665 0.92,-0.8 0.61332,-0.23998 1.46665,-0.35998 2.56,-0.36 1.86665,2e-5 2.79998,0.77335 2.8,2.32 -2e-5,0.16001 -0.0134,0.40001 -0.04,0.72 l 0,0.52 c 1.14664,-0.53332 1.95998,-0.79999 2.44,-0.8 0.82664,10e-6 1.23998,0.17335 1.24,0.52 -2e-5,0.32001 -0.20002,0.58668 -0.6,0.8 l -1.08,0.6 c -1.09335,0.69334 -2.00002,1.42668 -2.72,2.2 -1.36002,1.41334 -2.04002,2.30667 -2.04,2.68 -2e-5,0.45334 0.0533,0.74667 0.16,0.88 0.15998,0.21334 0.50665,0.32001 1.04,0.32 0.50665,10e-6 2.05331,-0.58666 4.64,-1.76 0.42664,-0.18666 1.19998,-0.58666 2.32,-1.2 0.87997,-0.47999 1.37331,-0.71999 1.48,-0.72 0.37331,10e-6 0.55997,0.14668 0.56,0.44"
         id="path2859" /></g></g></svg>