<?xml version="1.0" encoding="UTF-8" standalone="no"?>
<!-- Created with Inkscape (http://www.inkscape.org/) -->

<svg
   xmlns:dc="http://purl.org/dc/elements/1.1/"
   xmlns:cc="http://creativecommons.org/ns#"
   xmlns:rdf="http://www.w3.org/1999/02/22-rdf-syntax-ns#"
   xmlns:svg="http://www.w3.org/2000/svg"
   xmlns="http://www.w3.org/2000/svg"
   xmlns:xlink="http://www.w3.org/1999/xlink"
   xmlns:sodipodi="http://sodipodi.sourceforge.net/DTD/sodipodi-0.dtd"
   xmlns:inkscape="http://www.inkscape.org/namespaces/inkscape"
   id="svg2"
   version="1.1"
   inkscape:version="0.48.0 r9654"
   width="225"
   height="80"
   xml:space="preserve"
   sodipodi:docname="relief-alpha.svg"
   inkscape:export-filename="/home/serioga/Загрузки/zorin-firefox/firefox-home/engines/ufurmix.png"
   inkscape:export-xdpi="90"
   inkscape:export-ydpi="90"><metadata
     id="metadata8"><rdf:RDF><cc:Work
         rdf:about=""><dc:format>image/svg+xml</dc:format><dc:type
           rdf:resource="http://purl.org/dc/dcmitype/StillImage" /><dc:title></dc:title></cc:Work></rdf:RDF></metadata><defs
     id="defs6"><linearGradient
       id="linearGradient5646"><stop
         style="stop-color:#ffffff;stop-opacity:0.56923079;"
         offset="0"
         id="stop5648" /><stop
         style="stop-color:#ffffff;stop-opacity:0;"
         offset="1"
         id="stop5650" /></linearGradient><linearGradient
       id="linearGradient5621"><stop
         id="stop5623"
         offset="0"
         style="stop-color:#404041;stop-opacity:0.80769229;" /><stop
         id="stop5625"
         offset="1"
         style="stop-color:#141414;stop-opacity:0.83461541;" /></linearGradient><linearGradient
       id="linearGradient5028"><stop
         id="stop5030"
         offset="0"
         style="stop-color:#3b3b3b;stop-opacity:0.80769229;" /><stop
         id="stop5032"
         offset="1"
         style="stop-color:#141414;stop-opacity:0.8576923;" /></linearGradient><linearGradient
       id="linearGradient4770"><stop
         style="stop-color:#404041;stop-opacity:0.80769229;"
         offset="0"
         id="stop4772" /><stop
         style="stop-color:#141414;stop-opacity:0.83461541;"
         offset="1"
         id="stop4774" /></linearGradient><inkscape:perspective
       sodipodi:type="inkscape:persp3d"
       inkscape:vp_x="0 : 526.18127 : 1"
       inkscape:vp_y="0 : 1000 : 0"
       inkscape:vp_z="1488.1875 : 526.18127 : 1"
       inkscape:persp3d-origin="744.09375 : 350.78752 : 1"
       id="perspective20" /><clipPath
       clipPathUnits="userSpaceOnUse"
       id="clipPath20"><path
         d="m 0,8418.9 11905.5,0 L 11905.5,0 0,0 0,8418.9 z"
         id="path22"
         inkscape:connector-curvature="0" /></clipPath><inkscape:perspective
       id="perspective4390"
       inkscape:persp3d-origin="0.5 : 0.33333333 : 1"
       inkscape:vp_z="1 : 0.5 : 1"
       inkscape:vp_y="0 : 1000 : 0"
       inkscape:vp_x="0 : 0.5 : 1"
       sodipodi:type="inkscape:persp3d" /><inkscape:perspective
       id="perspective2875"
       inkscape:persp3d-origin="0.5 : 0.33333333 : 1"
       inkscape:vp_z="1 : 0.5 : 1"
       inkscape:vp_y="0 : 1000 : 0"
       inkscape:vp_x="0 : 0.5 : 1"
       sodipodi:type="inkscape:persp3d" /><inkscape:perspective
       id="perspective2889"
       inkscape:persp3d-origin="0.5 : 0.33333333 : 1"
       inkscape:vp_z="1 : 0.5 : 1"
       inkscape:vp_y="0 : 1000 : 0"
       inkscape:vp_x="0 : 0.5 : 1"
       sodipodi:type="inkscape:persp3d" /><radialGradient
       inkscape:collect="always"
       xlink:href="#linearGradient4770"
       id="radialGradient4778"
       cx="231.79341"
       cy="231.47253"
       fx="231.79341"
       fy="231.47253"
       r="51.438934"
       gradientTransform="matrix(1.4333503,0,0,0.26240658,-100.44773,159.4891)"
       gradientUnits="userSpaceOnUse" /><radialGradient
       inkscape:collect="always"
       xlink:href="#linearGradient5028"
       id="radialGradient4778-1"
       cx="281.60669"
       cy="269.86996"
       fx="281.60669"
       fy="269.86996"
       r="51.438934"
       gradientTransform="matrix(0.53029875,0,0,0.31316925,136.80626,145.78978)"
       gradientUnits="userSpaceOnUse" /><linearGradient
       id="linearGradient4770-3"><stop
         style="stop-color:#3b3b3b;stop-opacity:0.80769229;"
         offset="0"
         id="stop4772-4" /><stop
         style="stop-color:#141414;stop-opacity:0.8576923;"
         offset="1"
         id="stop4774-0" /></linearGradient><radialGradient
       inkscape:collect="always"
       xlink:href="#linearGradient4770-3"
       id="radialGradient4877"
       cx="231.79341"
       cy="231.47253"
       fx="231.79341"
       fy="231.47253"
       r="51.438934"
       gradientTransform="matrix(1.1283681,0,0,0.26240658,-29.754872,159.4891)"
       gradientUnits="userSpaceOnUse" /><linearGradient
       id="linearGradient4879"><stop
         style="stop-color:#3b3b3b;stop-opacity:0.80769229;"
         offset="0"
         id="stop4881" /><stop
         style="stop-color:#141414;stop-opacity:0.8576923;"
         offset="1"
         id="stop4883" /></linearGradient><radialGradient
       inkscape:collect="always"
       xlink:href="#linearGradient4770-3"
       id="radialGradient4885"
       cx="231.79341"
       cy="231.47253"
       fx="231.79341"
       fy="231.47253"
       r="51.438934"
       gradientTransform="matrix(1.1283681,0,0,0.26240658,-29.754872,159.4891)"
       gradientUnits="userSpaceOnUse" /><linearGradient
       id="linearGradient4887"><stop
         style="stop-color:#3b3b3b;stop-opacity:0.80769229;"
         offset="0"
         id="stop4889" /><stop
         style="stop-color:#141414;stop-opacity:0.8576923;"
         offset="1"
         id="stop4891" /></linearGradient><radialGradient
       inkscape:collect="always"
       xlink:href="#linearGradient4770-3"
       id="radialGradient4893"
       cx="231.79341"
       cy="231.47253"
       fx="231.79341"
       fy="231.47253"
       r="51.438934"
       gradientTransform="matrix(1.1283681,0,0,0.26240658,-29.754872,159.4891)"
       gradientUnits="userSpaceOnUse" /><linearGradient
       id="linearGradient4895"><stop
         style="stop-color:#3b3b3b;stop-opacity:0.80769229;"
         offset="0"
         id="stop4897" /><stop
         style="stop-color:#141414;stop-opacity:0.8576923;"
         offset="1"
         id="stop4899" /></linearGradient><radialGradient
       inkscape:collect="always"
       xlink:href="#linearGradient4770-3"
       id="radialGradient4901"
       cx="231.79341"
       cy="231.47253"
       fx="231.79341"
       fy="231.47253"
       r="51.438934"
       gradientTransform="matrix(1.1283681,0,0,0.26240658,-29.754872,159.4891)"
       gradientUnits="userSpaceOnUse" /><linearGradient
       id="linearGradient4903"><stop
         style="stop-color:#3b3b3b;stop-opacity:0.80769229;"
         offset="0"
         id="stop4905" /><stop
         style="stop-color:#141414;stop-opacity:0.8576923;"
         offset="1"
         id="stop4907" /></linearGradient><radialGradient
       inkscape:collect="always"
       xlink:href="#linearGradient4770-3"
       id="radialGradient4909"
       cx="231.79341"
       cy="231.47253"
       fx="231.79341"
       fy="231.47253"
       r="51.438934"
       gradientTransform="matrix(1.1283681,0,0,0.26240658,-29.754872,159.4891)"
       gradientUnits="userSpaceOnUse" /><linearGradient
       id="linearGradient4911"><stop
         style="stop-color:#3b3b3b;stop-opacity:0.80769229;"
         offset="0"
         id="stop4913" /><stop
         style="stop-color:#141414;stop-opacity:0.8576923;"
         offset="1"
         id="stop4915" /></linearGradient><radialGradient
       inkscape:collect="always"
       xlink:href="#linearGradient4770-3"
       id="radialGradient4917"
       cx="231.79341"
       cy="231.47253"
       fx="231.79341"
       fy="231.47253"
       r="51.438934"
       gradientTransform="matrix(1.1283681,0,0,0.26240658,-29.754872,159.4891)"
       gradientUnits="userSpaceOnUse" /><linearGradient
       id="linearGradient4919"><stop
         style="stop-color:#3b3b3b;stop-opacity:0.80769229;"
         offset="0"
         id="stop4921" /><stop
         style="stop-color:#141414;stop-opacity:0.8576923;"
         offset="1"
         id="stop4923" /></linearGradient><radialGradient
       r="51.438934"
       fy="231.47253"
       fx="231.79341"
       cy="231.47253"
       cx="231.79341"
       gradientTransform="matrix(1.1283681,0,0,0.26240658,-29.754872,159.4891)"
       gradientUnits="userSpaceOnUse"
       id="radialGradient4932"
       xlink:href="#linearGradient4770-3"
       inkscape:collect="always" /><radialGradient
       r="51.438934"
       fy="231.47253"
       fx="231.79341"
       cy="231.47253"
       cx="231.79341"
       gradientTransform="matrix(1.1283681,0,0,0.26240658,-29.754872,159.4891)"
       gradientUnits="userSpaceOnUse"
       id="radialGradient4934"
       xlink:href="#linearGradient4770-3"
       inkscape:collect="always" /><radialGradient
       r="51.438934"
       fy="231.47253"
       fx="231.79341"
       cy="231.47253"
       cx="231.79341"
       gradientTransform="matrix(1.1283681,0,0,0.26240658,-29.754872,159.4891)"
       gradientUnits="userSpaceOnUse"
       id="radialGradient4936"
       xlink:href="#linearGradient4770-3"
       inkscape:collect="always" /><radialGradient
       r="51.438934"
       fy="231.47253"
       fx="231.79341"
       cy="231.47253"
       cx="231.79341"
       gradientTransform="matrix(1.1283681,0,0,0.26240658,-29.754872,159.4891)"
       gradientUnits="userSpaceOnUse"
       id="radialGradient4938"
       xlink:href="#linearGradient4770-3"
       inkscape:collect="always" /><radialGradient
       r="51.438934"
       fy="231.47253"
       fx="231.79341"
       cy="231.47253"
       cx="231.79341"
       gradientTransform="matrix(1.1283681,0,0,0.26240658,-29.754872,159.4891)"
       gradientUnits="userSpaceOnUse"
       id="radialGradient4940"
       xlink:href="#linearGradient4770-3"
       inkscape:collect="always" /><radialGradient
       r="51.438934"
       fy="231.47253"
       fx="231.79341"
       cy="231.47253"
       cx="231.79341"
       gradientTransform="matrix(1.1283681,0,0,0.26240658,-29.754872,159.4891)"
       gradientUnits="userSpaceOnUse"
       id="radialGradient4942"
       xlink:href="#linearGradient4770-3"
       inkscape:collect="always" /><radialGradient
       r="51.438934"
       fy="231.47253"
       fx="231.79341"
       cy="231.47253"
       cx="231.79341"
       gradientTransform="matrix(1.1283681,0,0,0.26240658,-29.754872,159.4891)"
       gradientUnits="userSpaceOnUse"
       id="radialGradient4944"
       xlink:href="#linearGradient4770-3"
       inkscape:collect="always" /><radialGradient
       inkscape:collect="always"
       xlink:href="#linearGradient4770-7"
       id="radialGradient4778-0"
       cx="231.79341"
       cy="231.47253"
       fx="231.79341"
       fy="231.47253"
       r="51.438934"
       gradientTransform="matrix(1.4333503,0,0,0.26240658,-100.44773,159.4891)"
       gradientUnits="userSpaceOnUse" /><linearGradient
       id="linearGradient4770-7"><stop
         style="stop-color:#323232;stop-opacity:1;"
         offset="0"
         id="stop4772-1" /><stop
         style="stop-color:#121212;stop-opacity:1;"
         offset="1"
         id="stop4774-7" /></linearGradient><radialGradient
       inkscape:collect="always"
       xlink:href="#linearGradient4770-7"
       id="radialGradient5131"
       cx="231.79341"
       cy="231.47253"
       fx="231.79341"
       fy="231.47253"
       r="51.438934"
       gradientTransform="matrix(1.4333503,0,0,0.26240658,-100.44773,159.4891)"
       gradientUnits="userSpaceOnUse" /><linearGradient
       id="linearGradient5133"><stop
         style="stop-color:#3b3b3b;stop-opacity:0.80769229;"
         offset="0"
         id="stop5135" /><stop
         style="stop-color:#141414;stop-opacity:0.8576923;"
         offset="1"
         id="stop5137" /></linearGradient><radialGradient
       inkscape:collect="always"
       xlink:href="#linearGradient4770-7"
       id="radialGradient5139"
       cx="231.79341"
       cy="231.47253"
       fx="231.79341"
       fy="231.47253"
       r="51.438934"
       gradientTransform="matrix(1.4333503,0,0,0.26240658,-100.44773,159.4891)"
       gradientUnits="userSpaceOnUse" /><linearGradient
       id="linearGradient5141"><stop
         style="stop-color:#3b3b3b;stop-opacity:0.80769229;"
         offset="0"
         id="stop5143" /><stop
         style="stop-color:#141414;stop-opacity:0.8576923;"
         offset="1"
         id="stop5145" /></linearGradient><radialGradient
       inkscape:collect="always"
       xlink:href="#linearGradient4770-7"
       id="radialGradient5147"
       cx="231.79341"
       cy="231.47253"
       fx="231.79341"
       fy="231.47253"
       r="51.438934"
       gradientTransform="matrix(1.4333503,0,0,0.26240658,-100.44773,159.4891)"
       gradientUnits="userSpaceOnUse" /><linearGradient
       id="linearGradient5149"><stop
         style="stop-color:#3b3b3b;stop-opacity:0.80769229;"
         offset="0"
         id="stop5151" /><stop
         style="stop-color:#141414;stop-opacity:0.8576923;"
         offset="1"
         id="stop5153" /></linearGradient><radialGradient
       inkscape:collect="always"
       xlink:href="#linearGradient4770-7"
       id="radialGradient5155"
       cx="231.79341"
       cy="231.47253"
       fx="231.79341"
       fy="231.47253"
       r="51.438934"
       gradientTransform="matrix(1.4333503,0,0,0.26240658,-100.44773,159.4891)"
       gradientUnits="userSpaceOnUse" /><linearGradient
       id="linearGradient5157"><stop
         style="stop-color:#3b3b3b;stop-opacity:0.80769229;"
         offset="0"
         id="stop5159" /><stop
         style="stop-color:#141414;stop-opacity:0.8576923;"
         offset="1"
         id="stop5161" /></linearGradient><radialGradient
       inkscape:collect="always"
       xlink:href="#linearGradient4770-7"
       id="radialGradient5163"
       cx="231.79341"
       cy="231.47253"
       fx="231.79341"
       fy="231.47253"
       r="51.438934"
       gradientTransform="matrix(1.4333503,0,0,0.26240658,-100.44773,159.4891)"
       gradientUnits="userSpaceOnUse" /><linearGradient
       id="linearGradient5165"><stop
         style="stop-color:#3b3b3b;stop-opacity:0.80769229;"
         offset="0"
         id="stop5167" /><stop
         style="stop-color:#141414;stop-opacity:0.8576923;"
         offset="1"
         id="stop5169" /></linearGradient><radialGradient
       inkscape:collect="always"
       xlink:href="#linearGradient4770-7"
       id="radialGradient5171"
       cx="231.79341"
       cy="231.47253"
       fx="231.79341"
       fy="231.47253"
       r="51.438934"
       gradientTransform="matrix(1.4333503,0,0,0.26240658,-100.44773,159.4891)"
       gradientUnits="userSpaceOnUse" /><linearGradient
       id="linearGradient5173"><stop
         style="stop-color:#3b3b3b;stop-opacity:0.80769229;"
         offset="0"
         id="stop5175" /><stop
         style="stop-color:#141414;stop-opacity:0.8576923;"
         offset="1"
         id="stop5177" /></linearGradient><radialGradient
       r="51.438934"
       fy="231.47253"
       fx="231.79341"
       cy="231.47253"
       cx="231.79341"
       gradientTransform="matrix(1.4333503,0,0,0.26240658,-100.44773,159.4891)"
       gradientUnits="userSpaceOnUse"
       id="radialGradient5198"
       xlink:href="#linearGradient4770-7"
       inkscape:collect="always" /><radialGradient
       inkscape:collect="always"
       xlink:href="#linearGradient4770-5"
       id="radialGradient5391-0"
       gradientUnits="userSpaceOnUse"
       gradientTransform="matrix(1.4333503,0,0,0.26240658,-100.44773,159.4891)"
       cx="231.79341"
       cy="231.47253"
       fx="231.79341"
       fy="231.47253"
       r="51.438934" /><linearGradient
       id="linearGradient4770-5"><stop
         style="stop-color:#3b3b3b;stop-opacity:0.80769229;"
         offset="0"
         id="stop4772-6" /><stop
         style="stop-color:#141414;stop-opacity:0.8576923;"
         offset="1"
         id="stop4774-06" /></linearGradient><radialGradient
       inkscape:collect="always"
       xlink:href="#linearGradient4770-7"
       id="radialGradient5491"
       gradientUnits="userSpaceOnUse"
       gradientTransform="matrix(1.4333503,0,0,0.26240658,-99.741577,158.87713)"
       cx="231.79341"
       cy="231.47253"
       fx="231.79341"
       fy="231.47253"
       r="51.438934" /><radialGradient
       inkscape:collect="always"
       xlink:href="#linearGradient5028-5"
       id="radialGradient4778-1-4"
       cx="277.16867"
       cy="290.1601"
       fx="277.16867"
       fy="290.1601"
       r="51.438934"
       gradientTransform="matrix(1.1283681,0,0,0.26240658,-29.754872,159.4891)"
       gradientUnits="userSpaceOnUse" /><linearGradient
       id="linearGradient5028-5"><stop
         id="stop5030-1"
         offset="0"
         style="stop-color:#303030;stop-opacity:1;" /><stop
         id="stop5032-2"
         offset="1"
         style="stop-color:#141414;stop-opacity:1;" /></linearGradient><radialGradient
       inkscape:collect="always"
       xlink:href="#linearGradient5028-9"
       id="radialGradient4778-1-5"
       cx="277.16867"
       cy="290.1601"
       fx="277.16867"
       fy="290.1601"
       r="51.438934"
       gradientTransform="matrix(1.1283681,0,0,0.26240658,-29.754872,159.4891)"
       gradientUnits="userSpaceOnUse" /><linearGradient
       id="linearGradient5028-9"><stop
         id="stop5030-7"
         offset="0"
         style="stop-color:#3b3b3b;stop-opacity:0.80769229;" /><stop
         id="stop5032-21"
         offset="1"
         style="stop-color:#141414;stop-opacity:0.8576923;" /></linearGradient><radialGradient
       inkscape:collect="always"
       xlink:href="#linearGradient5028-5"
       id="radialGradient5581"
       gradientUnits="userSpaceOnUse"
       gradientTransform="matrix(1.1283681,0,0,0.26240658,-29.012409,158.39309)"
       cx="277.16867"
       cy="290.1601"
       fx="277.16867"
       fy="290.1601"
       r="51.438934" /><radialGradient
       inkscape:collect="always"
       xlink:href="#linearGradient4770"
       id="radialGradient5585"
       gradientUnits="userSpaceOnUse"
       gradientTransform="matrix(1.4333503,0,0,0.26240658,-100.44773,159.4891)"
       cx="231.79341"
       cy="231.47253"
       fx="231.79341"
       fy="231.47253"
       r="51.438934" /><radialGradient
       inkscape:collect="always"
       xlink:href="#linearGradient5621"
       id="radialGradient5585-3"
       gradientUnits="userSpaceOnUse"
       gradientTransform="matrix(1.4333503,0,0,0.26240658,-100.44773,159.4891)"
       cx="229.03079"
       cy="110.75002"
       fx="229.03079"
       fy="110.75002"
       r="51.438934" /><linearGradient
       id="linearGradient4770-9"><stop
         style="stop-color:#404041;stop-opacity:0.80769229;"
         offset="0"
         id="stop4772-13" /><stop
         style="stop-color:#141414;stop-opacity:0.83461541;"
         offset="1"
         id="stop4774-8" /></linearGradient><radialGradient
       r="51.438934"
       fy="231.47253"
       fx="231.79341"
       cy="231.47253"
       cx="231.79341"
       gradientTransform="matrix(1.7916879,0,0,-0.32800823,-349.75276,87.797287)"
       gradientUnits="userSpaceOnUse"
       id="radialGradient5602"
       xlink:href="#linearGradient4770-9"
       inkscape:collect="always" /><linearGradient
       inkscape:collect="always"
       xlink:href="#linearGradient5646"
       id="linearGradient5652"
       x1="298.43613"
       y1="215.99292"
       x2="287.72278"
       y2="227.37735"
       gradientUnits="userSpaceOnUse" /></defs><sodipodi:namedview
     pagecolor="#2606ff"
     bordercolor="#666666"
     borderopacity="1"
     objecttolerance="10"
     gridtolerance="10"
     guidetolerance="10"
     inkscape:pageopacity="0"
     inkscape:pageshadow="2"
     inkscape:window-width="1280"
     inkscape:window-height="949"
     id="namedview4"
     showgrid="false"
     inkscape:zoom="1"
     inkscape:cx="176.56332"
     inkscape:cy="60.203023"
     inkscape:window-x="0"
     inkscape:window-y="24"
     inkscape:window-maximized="1"
     inkscape:current-layer="g12"
     inkscape:snap-bbox="false"
     inkscape:snap-global="false"><inkscape:grid
       type="xygrid"
       id="grid3919"
       empspacing="5"
       visible="true"
       enabled="true"
       snapvisiblegridlinesonly="true" /></sodipodi:namedview><g
     id="g12"
     inkscape:groupmode="layer"
     inkscape:label="ink_ext_XXXXXX"
     transform="matrix(1.25,0,0,-1.25,-180.43801,296.70453)"><path
       style="color:#000000;fill:url(#radialGradient5581);fill-opacity:1;fill-rule:nonzero;stroke:none;stroke-width:1;marker:none;visibility:visible;display:inline;overflow:visible;enable-background:accumulate"
       d="m 298.66505,225.99898 c 0.55378,-1.01941 0.875,-2.18331 0.875,-3.425 0,-3.9731 -3.22658,-7.2 -7.2,-7.2 -2.23504,0 -4.23043,1.02606 -5.55,2.625 1.2183,-2.24264 3.59328,-3.75 6.325,-3.75 3.97342,0 7.2,3.2269 7.2,7.2 0,1.73138 -0.63107,3.30856 -1.65,4.55 z"
       id="path24-0"
       inkscape:connector-curvature="0" /><path
       style="fill:url(#radialGradient5491);fill-opacity:1;fill-rule:nonzero;stroke:none"
       d="m 202.21505,229.10933 -0.725,-0.125 0,-8.75 c 0.19404,0.12548 0.43094,0.26869 0.725,0.4 l 0,8.475 z m 56.65,-3.25 -0.75,-0.125 0,-4.7 0.75,0 0,4.825 z m -76.35,-5.525 0,-8.625 c 0,-2.17012 0.3398,-3.714 1.025,-4.65 0.2002,-0.27381 0.44484,-0.50627 0.725,-0.7 -0.6852,0.936 -1.025,2.50488 -1.025,4.675 l 0,9.3 -0.725,0 z m 11.2,0 0,-16.6 c -0.7311,-0.183 -1.70097,-0.39461 -2.9,-0.6 -1.19902,-0.2057 -2.59916,-0.3 -4.175,-0.3 -1.37045,0 -2.51366,0.20081 -3.45,0.6 -0.45038,0.19201 -0.85926,0.43125 -1.225,0.7 0.52976,-0.57326 1.18451,-1.038 1.975,-1.375 0.93634,-0.39919 2.07955,-0.6 3.45,-0.6 1.57584,0 2.97598,0.0943 4.175,0.3 1.19903,0.20539 2.14389,0.392 2.875,0.575 l 0,17.3 -0.725,0 z m 26.85,0 0,-8.625 c 0,-2.17012 0.33992,-3.714 1.025,-4.65 0.21611,-0.2955 0.49078,-0.54777 0.8,-0.75 -0.0146,0.019 -0.0358,0.0306 -0.05,0.05 -0.68508,0.936 -1.025,2.50488 -1.025,4.675 l 0,9.3 -0.75,0 z m 11.2,0 0,-16.6 c -0.73124,-0.183 -1.70098,-0.39461 -2.9,-0.6 -1.19919,-0.2057 -2.57415,-0.3 -4.15,-0.3 -1.37044,0 -2.53868,0.20081 -3.475,0.6 -0.46165,0.19681 -0.85227,0.44756 -1.225,0.725 0.53256,-0.58203 1.17595,-1.05936 1.975,-1.4 0.93632,-0.39919 2.10456,-0.6 3.475,-0.6 1.57585,0 2.95081,0.0943 4.15,0.3 1.19902,0.20539 2.16876,0.392 2.9,0.575 l 0,17.3 -0.75,0 z m 33.1,0 0,-1.975 -6.75,0 0,-8.225 c 0,-0.89078 0.0626,-1.61779 0.2,-2.2 0.13699,-0.58269 0.35088,-1.04405 0.625,-1.375 0.17928,-0.21688 0.38699,-0.39145 0.625,-0.525 -0.21389,0.31272 -0.38416,0.70728 -0.5,1.2 -0.13736,0.58221 -0.2,1.33422 -0.2,2.225 l 0,8.225 6.75,0 0,2.65 -0.75,0 z m 6.125,0 0,-8.625 c 0,-2.17012 0.33996,-3.714 1.025,-4.65 0.21611,-0.2955 0.49079,-0.54777 0.8,-0.75 -0.0146,0.019 -0.0358,0.0306 -0.05,0.05 -0.68504,0.936 -1.025,2.50488 -1.025,4.675 l 0,9.3 -0.75,0 z m 11.2,0 0,-16.6 c -0.73124,-0.183 -1.7013,-0.39461 -2.9,-0.6 -1.19919,-0.2057 -2.57384,-0.3 -4.15,-0.3 -1.37028,0 -2.51368,0.20081 -3.45,0.6 -0.46158,0.19681 -0.87725,0.44756 -1.25,0.725 0.53274,-0.58203 1.17608,-1.05936 1.975,-1.4 0.93632,-0.39919 2.10472,-0.6 3.475,-0.6 1.57616,0 2.95081,0.0943 4.15,0.3 1.1987,0.20539 2.16876,0.392 2.9,0.575 l 0,17.3 -0.75,0 z m -33.2,-0.925 c 0.0804,-0.0893 0.15116,-0.18009 0.225,-0.275 0.5592,-0.71949 0.97126,-1.59542 1.2,-2.6 0.22792,-1.00522 0.325,-2.11469 0.325,-3.325 l 0,-10 -2.425,0 0,-0.675 3.175,0 0,10 c 0,1.21031 -0.12208,2.31978 -0.35,3.325 -0.22874,1.00458 -0.6158,1.85551 -1.175,2.575 -0.27991,0.35976 -0.60104,0.69527 -0.975,0.975 z m -37.45,-0.2 c 0.12121,-0.1255 0.23716,-0.23956 0.35,-0.375 0.68524,-0.8222 1.22056,-1.80812 1.575,-2.95 0.35382,-1.1422 0.525,-2.40487 0.525,-3.775 0,-1.43918 -0.20263,-2.72201 -0.625,-3.875 -0.42285,-1.15331 -1.02382,-2.12581 -1.8,-2.925 -0.77682,-0.79982 -1.72867,-1.41605 -2.825,-1.85 -1.09618,-0.43349 -2.3297,-0.65 -3.7,-0.65 -1.48488,0 -2.78312,0.0942 -3.925,0.3 -0.79899,0.14379 -1.47743,0.28121 -2.075,0.425 l 0,-0.5 c 0.73063,-0.20571 1.65779,-0.39444 2.8,-0.6 1.14188,-0.20576 2.46512,-0.325 3.95,-0.325 1.3703,0 2.60382,0.21651 3.7,0.65 1.09634,0.43395 2.02318,1.05018 2.8,1.85 0.77617,0.79919 1.37715,1.79669 1.8,2.95 0.42238,1.15299 0.65,2.43582 0.65,3.875 0,1.37013 -0.19618,2.6328 -0.55,3.775 -0.35444,1.14188 -0.86476,2.1278 -1.55,2.95 -0.32744,0.39299 -0.70215,0.74055 -1.1,1.05 z m -5.975,-0.575 c -0.86838,0 -1.6694,-0.15334 -2.4,-0.45 -0.73126,-0.29714 -1.28693,-0.60564 -1.675,-0.925 l 0,-11.275 c 0.1907,-0.0546 0.44053,-0.0996 0.725,-0.15 l 0,10.75 c 0.38808,0.31936 0.96874,0.62786 1.7,0.925 0.7306,0.29666 1.53162,0.425 2.4,0.425 0.91316,0 1.67406,-0.14422 2.325,-0.475 0.21142,-0.10764 0.41388,-0.24092 0.6,-0.375 -0.3695,0.43195 -0.79876,0.78207 -1.325,1.05 -0.65094,0.33078 -1.43684,0.5 -2.35,0.5 z m 37.55,-0.05 c -0.343,0 -0.71008,-0.003 -1.075,-0.025 -0.3657,-0.0229 -0.71921,-0.0407 -1.05,-0.075 -0.33157,-0.0342 -0.61294,-0.0796 -0.875,-0.125 -0.26284,-0.0459 -0.46104,-0.0777 -0.575,-0.1 l 0,-15.05 -2.45,0 0,-0.675 3.2,0 0,15.025 c 0.11396,0.0223 0.28716,0.0791 0.55,0.125 0.26206,0.0454 0.56843,0.0658 0.9,0.1 0.33079,0.0343 0.68431,0.0771 1.05,0.1 0.36492,0.0223 0.707,0.025 1.05,0.025 0.84444,0 1.55376,-0.10803 2.125,-0.325 0.19573,-0.0744 0.38107,-0.16973 0.55,-0.275 -0.33459,0.43481 -0.73964,0.74635 -1.275,0.95 -0.57124,0.21697 -1.28056,0.325 -2.125,0.325 z m 22.525,-12.825 c -0.0873,-0.0388 -0.34663,-0.13851 -0.5,-0.2 l 0.45,-1.725 c -0.31999,-0.16 -0.88954,-0.37421 -1.7,-0.625 -0.81092,-0.2511 -1.72192,-0.375 -2.75,-0.375 -1.21062,0 -2.21192,0.16659 -3,0.475 -0.38254,0.14981 -0.74013,0.32765 -1.05,0.55 0.46364,-0.54358 1.05092,-0.96644 1.775,-1.25 0.78808,-0.30841 1.78939,-0.45 3,-0.45 1.02808,0 1.93908,0.1239 2.75,0.375 0.81046,0.25079 1.38002,0.44 1.7,0.6 l -0.675,2.625 z"
       id="path38-0"
       inkscape:connector-curvature="0" /><path
       inkscape:connector-curvature="0"
       id="path24"
       style="fill:url(#radialGradient4778-1);fill-opacity:1;fill-rule:nonzero;stroke:url(#linearGradient5652);color:#000000;stroke-width:0.44;marker:none;visibility:visible;display:inline;overflow:visible;enable-background:accumulate;stroke-miterlimit:4;stroke-dasharray:none"
       d="m 299.5668,222.53358 c 0,-3.9731 -3.22106,-7.19432 -7.19448,-7.19432 -3.97341,0 -7.19446,3.22122 -7.19446,7.19432 0,3.97341 3.22105,7.19447 7.19446,7.19447 3.97342,0 7.19448,-3.22106 7.19448,-7.19447" /><path
       id="path38"
       style="fill:url(#radialGradient5585);fill-opacity:1;fill-rule:nonzero;stroke:none"
       d="m 282.23235,203.65599 c -0.73125,-0.183 -1.6963,-0.37697 -2.895,-0.58236 -1.19919,-0.2057 -2.58648,-0.30825 -4.16263,-0.30825 -1.37029,0 -2.52377,0.2 -3.46008,0.59919 -0.93667,0.39937 -1.69047,0.96492 -2.26123,1.696 -0.57096,0.73062 -0.98205,1.59315 -1.23316,2.58661 -0.25173,0.99349 -0.37698,2.09506 -0.37698,3.30598 l 0,10.00346 3.18629,0 0,-9.31823 c 0,-2.17012 0.34254,-3.72311 1.02759,-4.65911 0.68523,-0.93697 1.83838,-1.4049 3.46011,-1.4049 0.34269,0 0.69633,0.012 1.06219,0.0346 0.36508,0.0222 0.70778,0.0514 1.02777,0.0856 0.31967,0.0343 0.61078,0.0683 0.87348,0.10248 0.26252,0.0343 0.45077,0.0739 0.56521,0.11985 l 0,15.03972 3.18644,0 m -24.08382,-1.7e-4 6.7491,0 0,-2.67217 -6.7491,0 0,-8.2219 c 0,-0.89078 0.0682,-1.62743 0.20556,-2.20964 0.13698,-0.58269 0.34253,-1.03951 0.61666,-1.37046 0.27395,-0.33142 0.6165,-0.56539 1.02759,-0.70236 0.41111,-0.13699 0.89079,-0.20572 1.43885,-0.20572 0.98174,0 1.75871,0.10822 2.32965,0.32555 0.57047,0.21683 0.95918,0.37095 1.16473,0.46238 l 0.68523,-2.60361 c -0.31998,-0.16 -0.88537,-0.3657 -1.69583,-0.61649 -0.81093,-0.2511 -1.72981,-0.37681 -2.75788,-0.37681 -1.21062,0 -2.20949,0.15396 -2.99756,0.46237 -0.78793,0.30856 -1.42172,0.77094 -1.90124,1.38743 -0.47967,0.61681 -0.81696,1.37585 -1.01061,2.27854 -0.19445,0.90173 -0.29143,1.94661 -0.29143,3.13452 l 0,15.89605 3.18628,0.54809 m -21.75419,-6.02957 c 0.73079,0.18271 1.70109,0.37698 2.91218,0.58268 1.21029,0.20541 2.60343,0.3081 4.17927,0.3081 1.41616,0 2.59202,-0.2 3.52883,-0.59936 0.93633,-0.4 1.68409,-0.95918 2.24392,-1.67869 0.55919,-0.71949 0.95332,-1.58204 1.18206,-2.58662 0.22791,-1.00522 0.34253,-2.11297 0.34253,-3.32328 l 0,-10.00345 -3.1863,0 0,9.31855 c 0,1.09601 -0.0744,2.03234 -0.22252,2.80901 -0.1489,0.77616 -0.39382,1.40456 -0.73667,1.88409 -0.34253,0.47997 -0.7995,0.82792 -1.37029,1.04505 -0.57125,0.21697 -1.27934,0.32555 -2.12377,0.32555 -0.34301,0 -0.69729,-0.012 -1.0622,-0.0343 -0.3657,-0.0229 -0.71412,-0.0516 -1.0449,-0.0859 -0.33158,-0.0342 -0.62856,-0.0744 -0.89062,-0.11984 -0.26285,-0.0459 -0.45142,-0.0802 -0.56538,-0.10248 l 0,-15.03971 -3.18614,0 m -4.59023,0.51393 c -0.73125,-0.183 -1.69583,-0.37697 -2.89485,-0.58236 -1.19919,-0.2057 -2.58662,-0.30825 -4.16247,-0.30825 -1.37044,0 -2.52392,0.2 -3.46024,0.59919 -0.93682,0.39937 -1.69063,0.96492 -2.26108,1.696 -0.57125,0.73062 -0.98221,1.59315 -1.23316,2.58661 -0.25172,0.99349 -0.37714,2.09506 -0.37714,3.30598 l 0,10.00346 3.18614,0 0,-9.31823 c 0,-2.17012 0.34269,-3.72311 1.02777,-4.65911 0.68522,-0.93697 1.83837,-1.4049 3.46025,-1.4049 0.34253,0 0.69635,0.012 1.06204,0.0346 0.36507,0.0222 0.70761,0.0514 1.02776,0.0856 0.3195,0.0343 0.61078,0.0683 0.87364,0.10248 0.26219,0.0343 0.45077,0.0739 0.56521,0.11985 l 0,15.03972 3.18613,0 M 201.51962,205.9169 c 0.3195,-0.0914 0.77078,-0.17697 1.35331,-0.25666 0.58236,-0.0802 1.30711,-0.12011 2.17534,-0.12011 1.71298,0 3.08327,0.56539 4.11105,1.69583 1.02774,1.13079 1.5417,2.73504 1.5417,4.81373 0,0.91283 -0.0915,1.76948 -0.27411,2.56932 -0.18301,0.79919 -0.47952,1.48997 -0.89062,2.07234 -0.41111,0.58253 -0.94221,1.03918 -1.59316,1.37061 -0.65094,0.33078 -1.43346,0.49666 -2.34662,0.49666 -0.86839,0 -1.66759,-0.14873 -2.39819,-0.44539 -0.73126,-0.29714 -1.29063,-0.60555 -1.6787,-0.92491 l 0,-11.27137 z m 0,14.25195 c 0.38807,0.25095 0.97632,0.51382 1.76424,0.78761 0.7881,0.27429 1.69584,0.41111 2.7236,0.41111 1.27887,0 2.41537,-0.22824 3.40882,-0.6849 0.99349,-0.45714 1.83284,-1.09634 2.51804,-1.91871 0.68524,-0.8222 1.20444,-1.80441 1.55888,-2.94629 0.35381,-1.1422 0.53093,-2.39788 0.53093,-3.76801 0,-1.43918 -0.21141,-2.73583 -0.63378,-3.88882 -0.42285,-1.15331 -1.02237,-2.12965 -1.79854,-2.92884 -0.77683,-0.79982 -1.71299,-1.41633 -2.80932,-1.85028 -1.09618,-0.43349 -2.32964,-0.65062 -3.69994,-0.65062 -1.48488,0 -2.79803,0.10248 -3.93991,0.30824 -1.14221,0.20556 -2.07853,0.41094 -2.80916,0.61665 l 0,25.523 3.18614,0.54794 m -7.77635,-26.07094 c -0.73111,-0.183 -1.69586,-0.37697 -2.89489,-0.58236 -1.19903,-0.2057 -2.58662,-0.30825 -4.16246,-0.30825 -1.37045,0 -2.5239,0.2 -3.46024,0.59919 -0.9368,0.39937 -1.69045,0.96492 -2.26108,1.696 -0.5711,0.73062 -0.9822,1.59315 -1.2333,2.58661 -0.25159,0.99349 -0.37682,2.09506 -0.37682,3.30598 l 0,10.00346 3.18597,0 0,-9.31823 c 0,-2.17012 0.3427,-3.72311 1.02791,-4.65911 0.68507,-0.93697 1.83822,-1.4049 3.46011,-1.4049 0.34252,0 0.69633,0.012 1.06204,0.0346 0.36505,0.0222 0.70759,0.0514 1.02775,0.0856 0.31952,0.0343 0.61078,0.0683 0.87363,0.10248 0.26238,0.0343 0.4508,0.0739 0.56524,0.11985 l 0,15.03972 3.18614,0"
       inkscape:connector-curvature="0" /><path
       id="path2859"
       style="font-size:40px;font-style:normal;font-variant:normal;font-weight:normal;font-stretch:normal;fill:url(#radialGradient5585-3);fill-opacity:1;stroke:none;font-family:newPushkin;-inkscape-font-specification:newPushkin;color:#000000;fill-rule:nonzero;marker:none;visibility:visible;display:inline;overflow:visible;enable-background:accumulate"
       d="m 290.23437,191.27848 c 0,-0.24381 -0.76389,-0.75578 -2.29168,-1.53593 -1.59281,-0.81265 -2.77116,-1.21896 -3.53504,-1.21896 -0.40634,0 -0.7964,0.0893 -1.17023,0.26818 -0.37382,0.19503 -0.6095,0.4063 -0.707,0.63385 -0.71516,-0.32505 -1.64157,-0.62574 -2.77926,-0.90203 -1.33277,-0.32508 -2.28358,-0.48761 -2.85243,-0.48761 -0.43883,0 -0.80453,0.12186 -1.09709,0.3657 -0.29256,0.22755 -0.43882,0.52822 -0.43882,0.90205 0,0.52008 0.56071,1.20272 1.68219,2.04789 0.8289,0.61761 1.54404,1.07269 2.14541,1.36526 0.0975,0.0488 0.21941,0.0326 0.36568,-0.0488 0.16254,-0.065 0.22754,-0.14629 0.19506,-0.24379 -0.0326,-0.11385 -0.23569,-0.30881 -0.6095,-0.58511 l -1.14583,-0.78014 c -0.91018,-0.68264 -1.36529,-1.22711 -1.36527,-1.63345 -2e-5,-0.30881 0.37382,-0.4632 1.12147,-0.4632 0.79638,0 1.73906,0.24379 2.82803,0.73138 1.18646,0.53635 2.14539,1.19459 2.8768,1.97477 0.86138,0.9264 1.2921,1.76343 1.29211,2.51108 -10e-6,0.45507 -0.12999,0.74762 -0.39006,0.87767 -0.16255,0.0813 -0.46324,0.11372 -0.90205,0.0975 -0.14629,-1e-5 -0.35759,-0.0732 -0.63389,-0.2194 -0.26005,-0.12999 -0.44696,-0.19506 -0.56073,-0.19506 -0.24378,0 -0.3657,0.13814 -0.36569,0.41446 -10e-6,0.19503 0.18692,0.35757 0.56073,0.48759 0.37382,0.14626 0.89391,0.21941 1.5603,0.21942 1.1377,-10e-6 1.70655,-0.47135 1.70657,-1.41403 -2e-5,-0.0975 -0.007,-0.24378 -0.0244,-0.43882 l 0,-0.31693 c 0.69886,0.32504 1.19458,0.48759 1.48716,0.48759 0.50383,0 0.75575,-0.10578 0.75576,-0.31694 -1e-5,-0.19505 -0.12185,-0.35758 -0.3657,-0.48758 l -0.65824,-0.36571 c -0.66639,-0.42258 -1.21898,-0.86953 -1.65782,-1.34087 -0.82891,-0.86142 -1.24336,-1.40591 -1.24335,-1.63343 -10e-6,-0.27631 0.0326,-0.45509 0.0975,-0.53636 0.0975,-0.12999 0.3088,-0.19504 0.63387,-0.19503 0.30881,-10e-6 1.25147,0.35756 2.82804,1.07269 0.26003,0.11372 0.73137,0.35758 1.41402,0.73141 0.53632,0.29253 0.83701,0.43881 0.90205,0.43882 0.22752,-10e-6 0.34129,-0.0894 0.3413,-0.26818 m -14.051,4.72968 c -0.50386,-10e-6 -0.75577,0.25192 -0.75577,0.75577 0,0.50385 0.25191,0.75577 0.75577,0.75578 0.21129,-10e-6 0.39008,-0.0813 0.53635,-0.2438 0.16252,-0.1463 0.24379,-0.32507 0.2438,-0.53636 -10e-6,-0.4876 -0.26006,-0.7314 -0.78015,-0.73139 m 0.56074,-5.77796 c -2e-5,-0.2438 -0.73139,-0.59324 -2.19417,-1.04832 -1.57655,-0.5201 -2.99057,-0.78015 -4.24204,-0.78015 -0.42259,0 -0.79641,0.13815 -1.12147,0.41445 -0.30881,0.2763 -0.46322,0.61763 -0.46322,1.02396 0,0.37381 0.65012,1.12957 1.95038,2.2673 1.26773,1.08894 2.12915,1.68219 2.58424,1.77971 0.21128,0.0488 0.31692,-0.10578 0.31693,-0.46322 -10e-6,-0.14627 -0.577,-0.71513 -1.73095,-1.70658 -1.15397,-0.97518 -1.73096,-1.60093 -1.73096,-1.87721 0,-0.29256 0.3007,-0.43885 0.90205,-0.43883 0.74764,-2e-5 1.76345,0.21129 3.04745,0.63385 1.28397,0.42259 1.95037,0.63387 1.99913,0.63387 0.45506,0 0.68261,-0.14628 0.68263,-0.43883 m -5.81682,0.56075 c -4e-5,-0.12999 -0.27633,-0.34945 -0.8289,-0.65825 -0.53638,-0.30884 -1.09713,-0.56074 -1.6822,-0.75578 -1.96665,-0.66638 -3.51069,-0.99957 -4.63213,-0.99957 -0.39009,0 -0.72328,0.0975 -0.99957,0.29256 -0.27632,0.21129 -0.41445,0.48758 -0.41444,0.82891 -1e-5,0.17877 0.24377,0.54447 0.73138,1.09707 l 1.24336,1.34088 c -1.07272,-0.16252 -2.3242,-0.5851 -3.75446,-1.26774 -2.22667,-1.05643 -3.43754,-1.58468 -3.63256,-1.58466 -0.27632,-2e-5 -0.41446,0.20316 -0.41445,0.60948 -1e-5,0.0488 0.35755,0.39821 1.07271,1.04832 0.73137,0.66638 1.09707,1.11333 1.09708,1.34088 -10e-6,0.17877 -0.0732,0.26817 -0.21943,0.26818 -0.22754,-1e-5 -0.89393,-0.19504 -1.99913,-0.58511 -1.21898,-0.42259 -2.3892,-0.88579 -3.51065,-1.38964 -0.16254,-0.065 -0.92643,-0.45509 -2.29168,-1.17022 -0.91018,-0.47134 -1.48717,-0.707 -1.73096,-0.707 -0.3088,0 -0.46321,0.19503 -0.46321,0.58511 0,0.3413 0.93454,1.23522 2.80365,2.68175 1.8691,1.44652 3.05558,2.16978 3.55942,2.16978 0.2438,0 0.36569,-0.10578 0.36569,-0.31693 0,-0.11384 -0.3413,-0.43884 -1.02395,-0.97518 -0.79639,-0.61763 -1.27585,-1.03207 -1.43836,-1.24335 0.0162,-3e-5 0.71511,0.22752 2.09662,0.68261 0.26005,0.0811 1.08895,0.39008 2.48672,0.92644 0.92642,0.34129 1.51966,0.51196 1.77972,0.51197 0.42257,-1e-5 0.75576,-0.11373 0.99956,-0.34132 0.26004,-0.22755 0.36567,-0.50387 0.31694,-0.82891 -0.065,-0.4876 -0.18692,-0.86143 -0.3657,-1.12146 0.66635,0.30881 1.75532,0.75576 3.26687,1.34088 1.56027,0.50384 2.60047,0.75576 3.1206,0.75577 0.34129,-1e-5 0.51194,-0.18693 0.51197,-0.56073 -3e-5,-0.14629 -0.29259,-0.43071 -0.87767,-0.85329 -0.74766,-0.5201 -1.23527,-0.89393 -1.46278,-1.12145 l -0.68263,-0.68264 c -0.22755,-0.22755 -0.34133,-0.43072 -0.34131,-0.60949 -2e-5,-0.21129 0.24376,-0.31695 0.73138,-0.31694 0.73137,-1e-5 1.90973,0.25193 3.53504,0.75576 0.40631,0.12999 0.97516,0.34944 1.70657,0.65825 0.63386,0.27631 0.97517,0.41445 1.02396,0.41447 0.21125,-2e-5 0.31689,-0.0732 0.31693,-0.21941 m -20.38289,-0.31694 c -10e-6,-0.21131 -0.66637,-0.577 -1.99912,-1.09709 -1.46277,-0.5851 -2.68175,-0.87766 -3.65692,-0.87766 -0.79641,0 -1.43841,0.14627 -1.92601,0.43883 -0.48758,0.29254 -0.73138,0.642 -0.73138,1.04832 0,0.81265 0.67451,1.80409 2.02349,2.97431 0.7314,0.63385 1.55216,1.24335 2.46235,1.82847 0.84515,0.53635 1.36526,0.80451 1.56029,0.80453 0.5201,-2e-5 0.78015,-0.2113 0.78015,-0.63388 0,-0.61763 -0.70701,-1.42214 -2.12103,-2.41357 -1.10521,-0.78015 -1.99912,-1.34088 -2.68176,-1.68219 -0.47132,-0.32507 -0.707,-0.61762 -0.70699,-0.87767 -1e-5,-0.42258 0.52009,-0.63387 1.5603,-0.63387 0.71512,0 1.70655,0.25191 2.97431,0.75577 1.28398,0.50384 1.95848,0.75575 2.0235,0.75577 0.29255,-2e-5 0.43881,-0.12999 0.43882,-0.39007 m -6.81941,0.0975 c -2e-5,-0.12998 -0.39009,-0.38196 -1.17022,-0.75576 -0.7639,-0.37383 -1.51969,-0.69889 -2.26733,-0.97519 -1.00768,-0.35758 -1.67405,-0.577 -1.99912,-0.65825 -0.63387,-0.16253 -1.37338,-0.24381 -2.21854,-0.24381 -0.26005,0 -0.59324,0.11373 -0.99955,0.34133 -0.48761,0.29256 -0.7314,0.62573 -0.73139,0.99956 -1e-5,0.26005 0.31692,0.73952 0.95079,1.4384 0.71513,0.76389 1.08896,1.17833 1.12147,1.24335 -0.52011,0.27629 -0.82078,0.39821 -0.90205,0.36569 -0.0813,-0.0326 -0.39007,-0.33318 -0.92643,-0.90204 -0.5201,-0.56885 -0.82077,-0.8533 -0.90203,-0.85328 -0.4551,-2e-5 -0.68264,0.26818 -0.68264,0.80453 0,0.19504 0.42258,0.79639 1.26775,1.80409 0.8614,1.02393 1.46277,1.5359 1.80408,1.53592 0.47133,-2e-5 0.75578,-0.15443 0.8533,-0.46322 0.0163,-0.29256 0.0326,-0.59324 0.0488,-0.90206 0.0326,-0.29254 0.19504,-0.43882 0.4876,-0.43882 0.27628,0 0.68262,0.17879 1.21897,0.53635 0.53634,0.37381 0.97518,0.56072 1.31651,0.56072 0.56886,0 0.85327,-0.29255 0.85328,-0.87765 -1e-5,-0.27631 -0.28442,-0.54447 -0.85328,-0.80454 l -1.92601,-0.75575 c -1.47903,-0.6664 -2.21854,-1.43029 -2.21854,-2.29169 0,-0.22755 0.18693,-0.34131 0.56074,-0.34131 0.73138,0 2.0235,0.29254 3.87636,0.87767 0.40632,0.12998 1.01581,0.3738 1.82847,0.73138 0.66637,0.30881 1.06457,0.4632 1.1946,0.46322 0.17878,-2e-5 0.29256,-0.0244 0.34131,-0.0732 0.0488,-0.0488 0.0732,-0.17065 0.0732,-0.36568 m -16.04036,1.19464 c -1e-5,-0.11372 -0.3332,-0.29256 -0.99958,-0.53635 -1.0727,-0.39007 -1.67406,-0.61762 -1.80408,-0.68263 l -3.0962,-1.34088 c -1.00771,-0.45509 -2.3242,-1.10522 -3.9495,-1.95036 l -3.90074,-3.82762 c -0.81265,-0.79638 -2.53548,-2.39731 -5.16847,-4.80277 l -3.60819,-3.36437 c -1.47901,-1.28401 -2.64111,-1.92599 -3.4863,-1.926 -0.14625,1e-5 -0.2844,0.0894 -0.41444,0.26817 -0.14626,0.16255 -0.23564,0.3332 -0.26817,0.51197 -0.12998,0.92643 1.0971,2.59237 3.68132,4.99783 0.91019,0.84516 2.21043,1.9016 3.90073,3.16936 0.99144,0.74763 2.15354,1.51152 3.4863,2.29168 2.06412,1.18647 3.20998,1.85284 3.43752,1.99913 l 2.51109,2.38919 1.87722,1.75533 c -1.21898,-0.37383 -2.09664,-0.56074 -2.63299,-0.56074 -0.37382,0 -0.70701,0.0814 -0.99957,0.2438 -0.37382,0.19503 -0.56072,0.4632 -0.56072,0.80453 0,0.53634 0.3088,1.16209 0.92642,1.87723 0.45509,0.53633 1.00769,0.99956 1.65781,1.38964 0.65013,0.39006 1.15398,0.5851 1.51156,0.5851 0.22753,0 0.3413,-0.0813 0.3413,-0.24379 0,-0.11373 -0.20316,-0.30069 -0.6095,-0.56073 -0.5851,-0.39008 -0.96706,-0.65827 -1.14582,-0.80453 -0.32508,-0.27631 -0.64203,-0.642 -0.95081,-1.09708 -0.30882,-0.4551 -0.46323,-0.73951 -0.46322,-0.85329 -1e-5,-0.2763 0.21941,-0.41446 0.65826,-0.41446 0.76388,0 1.73094,0.31693 2.90117,0.95081 l 1.85286,1.07272 c 0.79638,0.45507 1.30022,0.68262 1.51151,0.68262 0.16253,0 0.24379,-0.17068 0.24381,-0.51197 -2e-5,-0.14628 -0.47136,-0.64201 -1.41403,-1.48716 -1.0727,-0.97519 -1.7147,-1.60094 -1.92598,-1.87722 l 4.09577,1.43839 1.38963,0.4876 c 0.45508,0.17877 0.78827,0.26817 0.99958,0.26817 0.27628,0 0.41444,-0.11372 0.41445,-0.34132 m -14.87157,-7.99651 c -0.82891,-0.34133 -2.1779,-1.17834 -4.047,-2.51109 -1.36527,-0.97518 -2.45421,-1.85285 -3.26686,-2.63301 -0.92642,-0.87767 -1.76347,-1.7472 -2.51111,-2.60863 -0.74764,-0.87764 -1.12145,-1.40587 -1.12146,-1.58465 1e-5,-0.21128 0.057,-0.31694 0.17065,-0.31695 0.4226,1e-5 1.22712,0.52824 2.41359,1.58469 l 3.63257,3.41314 c 1.57654,1.46279 2.57609,2.40546 2.99867,2.82803 0.9752,0.92642 1.55218,1.53592 1.73095,1.82847 m 4.1514,6.80191 c -1e-5,-0.12998 -0.39009,-0.38196 -1.17022,-0.75576 -0.7639,-0.37383 -1.51968,-0.69889 -2.2673,-0.97519 -1.0077,-0.35758 -1.67408,-0.577 -1.99913,-0.65825 -0.63388,-0.16253 -1.37339,-0.24381 -2.21854,-0.24381 -0.26007,0 -0.59325,0.11373 -0.99957,0.34133 -0.4876,0.29256 -0.7314,0.62573 -0.7314,0.99956 0,0.26005 0.31694,0.73952 0.95081,1.4384 0.71512,0.76389 1.08895,1.17833 1.12148,1.24335 -0.52011,0.27629 -0.8208,0.39821 -0.90206,0.36569 -0.0813,-0.0326 -0.39007,-0.33318 -0.92642,-0.90204 -0.5201,-0.56885 -0.82079,-0.8533 -0.90205,-0.85328 -0.4551,-2e-5 -0.68264,0.26818 -0.68264,0.80453 0,0.19504 0.4226,0.79639 1.26775,1.80409 0.86142,1.02393 1.46278,1.5359 1.8041,1.53592 0.47132,-2e-5 0.75576,-0.15443 0.85328,-0.46322 0.0162,-0.29256 0.0326,-0.59324 0.0488,-0.90206 0.0326,-0.29254 0.19501,-0.43882 0.48758,-0.43882 0.2763,0 0.68261,0.17879 1.21899,0.53635 0.53635,0.37381 0.97517,0.56072 1.3165,0.56072 0.56885,0 0.85327,-0.29255 0.85327,-0.87765 0,-0.27631 -0.28442,-0.54447 -0.85327,-0.80454 l -1.92599,-0.75575 c -1.47903,-0.6664 -2.21856,-1.43029 -2.21854,-2.29169 -2e-5,-0.22755 0.18689,-0.34131 0.56073,-0.34131 0.73137,0 2.02348,0.29254 3.87635,0.87767 0.40632,0.12998 1.01579,0.3738 1.82846,0.73138 0.66635,0.30881 1.06457,0.4632 1.19461,0.46322 0.17876,-2e-5 0.29254,-0.0244 0.34131,-0.0732 0.0488,-0.0488 0.0732,-0.17065 0.0732,-0.36568 m -9.42814,4e-5 c -1e-5,-0.12998 -0.39008,-0.38196 -1.17023,-0.75576 -0.76389,-0.37383 -1.51966,-0.69889 -2.26731,-0.97519 -1.00767,-0.35758 -1.67407,-0.577 -1.99912,-0.65825 -0.63389,-0.16253 -1.37338,-0.24381 -2.21853,-0.24381 -0.26007,0 -0.59325,0.11373 -0.99957,0.34133 -0.4876,0.29256 -0.7314,0.62573 -0.73139,0.99956 -1e-5,0.26005 0.31693,0.73952 0.95081,1.4384 0.71513,0.76389 1.08894,1.17833 1.12146,1.24335 -0.5201,0.27629 -0.82079,0.39821 -0.90204,0.36569 -0.0813,-0.0326 -0.39009,-0.33318 -0.92644,-0.90204 -0.52011,-0.56885 -0.82077,-0.8533 -0.90204,-0.85328 -0.4551,-2e-5 -0.68263,0.26818 -0.68263,0.80453 0,0.19504 0.42259,0.79639 1.26774,1.80409 0.86142,1.02393 1.46277,1.5359 1.8041,1.53592 0.47132,-2e-5 0.75575,-0.15443 0.85328,-0.46322 0.0163,-0.29256 0.0326,-0.59324 0.0488,-0.90206 0.0326,-0.29254 0.19503,-0.43882 0.4876,-0.43882 0.27628,0 0.68262,0.17879 1.21897,0.53635 0.53635,0.37381 0.97517,0.56072 1.3165,0.56072 0.56885,0 0.85328,-0.29255 0.85329,-0.87765 -1e-5,-0.27631 -0.28444,-0.54447 -0.85329,-0.80454 l -1.92599,-0.75575 c -1.47904,-0.6664 -2.21854,-1.43029 -2.21854,-2.29169 0,-0.22755 0.18691,-0.34131 0.56074,-0.34131 0.73137,0 2.0235,0.29254 3.87635,0.87767 0.40631,0.12998 1.0158,0.3738 1.82847,0.73138 0.66636,0.30881 1.06456,0.4632 1.19461,0.46322 0.17877,-2e-5 0.29253,-0.0244 0.3413,-0.0732 0.0488,-0.0488 0.0732,-0.17065 0.0732,-0.36568 m -9.17408,0.24383 c -1e-5,-0.29256 -0.79642,-0.72325 -2.38919,-1.29211 -1.284,-0.45508 -2.24294,-0.68263 -2.8768,-0.68263 -0.71515,0 -1.284,0.12184 -1.70657,0.36569 -0.14629,0.065 -0.43071,0.29256 -0.85329,0.68263 -1.02395,-0.5201 -1.76346,-0.83704 -2.21855,-0.9508 -0.69888,-0.19505 -1.68219,-0.29256 -2.94993,-0.29256 -0.42256,0 -0.79641,0.13814 -1.12146,0.41445 -0.3088,0.27631 -0.46321,0.61761 -0.46321,1.02394 0,0.37383 0.65013,1.12959 1.95037,2.26731 1.26774,1.08896 2.12915,1.68219 2.58423,1.77972 0.2113,0.0488 0.31693,-0.10557 0.31693,-0.46323 0,-0.14627 -0.57697,-0.71513 -1.73095,-1.70657 -1.15396,-0.97518 -1.73093,-1.60091 -1.73093,-1.87723 0,-0.29255 0.30066,-0.43884 0.90203,-0.43884 1.60905,0 3.23436,0.55261 4.87592,1.65783 0.32505,0.21128 0.99144,0.72325 1.99913,1.53591 0.69888,0.5526 1.13772,0.82889 1.31651,0.8289 0.24378,-10e-6 0.36567,-0.17065 0.36568,-0.51195 -1e-5,-0.48761 -0.21942,-0.92644 -0.65824,-1.3165 -0.16254,-0.1463 -0.56074,-0.4226 -1.1946,-0.82891 -0.43884,-0.27631 -0.65826,-0.50386 -0.65825,-0.68264 -1e-5,-0.45509 0.38193,-0.68264 1.14583,-0.68264 0.35757,0 1.12959,0.17878 2.31607,0.53637 0.26004,0.0811 0.73951,0.26005 1.4384,0.53635 0.55258,0.22754 0.89391,0.34131 1.02394,0.34131 0.21128,0 0.31692,-0.0814 0.31693,-0.2438 m -11.9441,7.899 c -1e-5,-0.27631 -0.30069,-0.68265 -0.90204,-1.21898 -0.97519,-0.89393 -1.51154,-1.38964 -1.60905,-1.48717 -1.08898,-1.18648 -2.39733,-2.42169 -3.92512,-3.7057 2.92555,0.58511 4.66462,0.87767 5.21725,0.87768 0.63384,-1e-5 0.95077,-0.12999 0.95079,-0.39008 -2e-5,-0.21129 -0.3657,-0.40634 -1.09707,-0.5851 l -1.90162,-0.39007 c -0.53636,-0.0814 -1.07271,-0.17068 -1.60906,-0.26818 -0.7639,-0.12998 -1.40589,-0.30882 -1.92599,-0.53635 -0.21128,-0.0813 -0.56073,-0.26006 -1.04832,-0.53635 l -1.92598,-2.41359 c -1.15397,-1.41402 -2.16166,-2.55986 -3.02308,-3.43753 l -2.8524,-2.99868 c -1.05646,-1.05645 -1.82848,-1.58468 -2.31606,-1.58469 -0.35758,1e-5 -0.53637,0.16255 -0.53637,0.48761 0,0.65012 1.24337,2.35669 3.73009,5.11971 0.66638,0.74764 1.5034,1.53592 2.51109,2.36481 1.36527,1.12148 2.16979,1.79596 2.41358,2.02351 0.37382,0.39008 1.04019,1.14584 1.99913,2.2673 -2.68176,-1.21898 -4.33144,-1.82845 -4.94906,-1.82845 -0.37382,0 -0.56072,0.24377 -0.56072,0.73138 0,0.065 0.35756,0.21941 1.07269,0.46322 1.0077,0.32505 1.82035,0.63385 2.43796,0.92641 0.55262,0.26005 1.48717,0.81266 2.80367,1.65782 0.86141,0.55259 2.1779,1.60092 3.94949,3.14497 1.44649,1.25146 2.29167,1.8772 2.53547,1.87723 0.37381,-3e-5 0.56072,-0.18693 0.56073,-0.56073" /><path
       sodipodi:nodetypes="ccscccccccccccccscssssscssccsscscccsssssssssccsssccsc"
       style="color:#000000;fill:#ffffff;fill-opacity:1;fill-rule:nonzero;stroke:none;marker:none;visibility:visible;display:inline;overflow:visible;enable-background:accumulate"
       id="path2463"
       d="m 291.98996,218.00507 c -0.16582,0.19438 -0.21843,0.58772 -0.55467,0.53743 -0.48793,-0.0422 -0.86998,0.31041 -1.28665,0.50041 -0.28135,0.13194 -0.61042,2.9e-4 -0.88794,0.15992 -0.60957,0.2913 -0.89377,1.02138 -0.81467,1.647 0.0691,0.50164 0.37549,0.94778 0.75864,1.27104 0.33214,0.21917 0.75057,0.26328 1.11016,0.4303 0.2798,0.0848 0.47738,0.2892 0.69621,0.46352 0.36777,0.22912 0.88723,0.29861 1.25927,0.0182 0.32369,-0.21625 0.67737,-0.39128 0.98936,-0.62213 0.2437,-0.25683 0.18416,-0.6324 0.2533,-0.94846 0.0289,-0.6208 0.29839,-1.19918 0.40725,-1.80634 0.0888,-0.3632 -0.0594,-0.71598 -0.26495,-1.00639 -0.23526,-0.3414 -0.48714,-0.77662 -0.95742,-0.81366 -0.23442,0.0113 -0.52849,-0.0125 -0.70789,0.16902 z m 2.70931,2.99453 c -0.14825,0.27109 -0.2576,0.65258 -0.0424,0.92065 0.34738,0.43289 0.77731,0.79599 1.2209,1.13051 0.20225,0.18119 0.42749,0.15447 0.72428,0.0141 0.31305,-0.14809 0.41929,-0.51375 0.35584,-0.82597 -0.0923,-0.45398 -0.25362,-0.94792 -0.72403,-1.14243 -0.40835,-0.17142 -0.86532,-0.37704 -1.31897,-0.26238 -0.0896,0.0225 -0.17199,0.0858 -0.21549,0.16547 z m -5.64558,2.26552 c -0.29492,0.17117 -0.52912,0.45205 -0.57929,0.79286 -0.0637,0.43268 0.0145,0.89735 0.30854,1.23092 0.26177,0.29717 0.59234,0.65851 1.03883,0.61073 0.38903,-0.0114 0.36545,-0.36864 0.36797,-0.64276 0.0354,-0.30948 0.17677,-0.59534 0.24292,-0.897 0.0114,-0.052 0.0126,-0.10383 0,-0.14011 -0.0923,-0.33681 -0.33584,-0.62288 -0.59358,-0.85554 -0.17513,-0.20793 -0.44769,-0.26742 -0.71522,-0.13505 l -0.0726,0.0361 0,0 z m 4.65756,-0.20577 c -0.27059,0.14323 -0.65627,0.38476 -0.5255,0.73198 0.12241,0.32508 0.30633,0.62358 0.42394,0.95339 0.14351,0.40229 0.41256,0.96953 0.589,1.14034 0.28297,0.27389 0.75124,0.26715 1.13343,0.22352 0.46673,-0.0533 0.6998,-0.54786 0.81354,-0.95034 0.084,-0.29672 0.11965,-0.62387 -0.0526,-0.88747 -0.22139,-0.33832 -0.53141,-0.61832 -0.84527,-0.87345 -0.28955,-0.23542 -0.65487,-0.39524 -1.03022,-0.45353 -0.17685,-0.0257 -0.34986,0.0329 -0.50603,0.11562 z m -2.10167,1.02731 c -0.47972,0.44956 -0.68303,1.14518 -0.5919,1.77168 0.0851,0.35719 0.29644,0.66758 0.53532,0.94029 0.20602,0.23514 0.46134,0.47739 0.81374,0.48614 0.37164,0.0106 0.80366,-0.0186 1.07114,-0.2815 0.23101,-0.22707 0.3911,-0.63757 0.22757,-0.95007 -0.30685,-0.48947 -0.59005,-0.99423 -0.81647,-1.52625 -0.12079,-0.22939 -0.20243,-0.5647 -0.51402,-0.59863 -0.24587,-0.0261 -0.51577,0.0185 -0.72538,0.15834 z"
       inkscape:connector-curvature="0"
       inkscape:transform-center-y="0.41333109"
       inkscape:transform-center-x="-1.1733591e-05" /></g></svg>