<?xml version="1.0" encoding="UTF-8" standalone="no"?>
<!-- Created with Inkscape (http://www.inkscape.org/) -->

<svg
   xmlns:svg="http://www.w3.org/2000/svg"
   xmlns="http://www.w3.org/2000/svg"
   xmlns:xlink="http://www.w3.org/1999/xlink"
   version="1.1"
   width="48"
   height="48"
   id="svg7217">
  <defs
     id="defs7219">
    <linearGradient
       x1="71.999496"
       y1="14.2578"
       x2="71.999496"
       y2="19.9583"
       id="linearGradient10176"
       gradientUnits="userSpaceOnUse"
       gradientTransform="matrix(1.0033404,0,0,1,-8.2374684,8)">
      <stop
         id="stop10178"
         style="stop-color:#feebd6;stop-opacity:0"
         offset="0.00445589" />
      <stop
         id="stop10180"
         style="stop-color:#f5f5f5;stop-opacity:0.52999997"
         offset="0.46138024" />
      <stop
         id="stop10182"
         style="stop-color:#f5f5f5;stop-opacity:0"
         offset="1" />
    </linearGradient>
    <linearGradient
       x1="7.2379346"
       y1="36.005047"
       x2="132.86028"
       y2="35.857735"
       id="linearGradient9649"
       xlink:href="#linearGradient10176"
       gradientUnits="userSpaceOnUse"
       gradientTransform="matrix(0.4550303,0,0,0.942809,-5.4003734,-18.279212)" />
    <linearGradient
       id="linearGradient9087">
      <stop
         id="stop9089"
         style="stop-color:#c80c0c;stop-opacity:1"
         offset="0" />
      <stop
         id="stop9091"
         style="stop-color:#a40000;stop-opacity:1"
         offset="1" />
    </linearGradient>
    <linearGradient
       x1="163.02567"
       y1="17"
       x2="162.99203"
       y2="45"
       id="linearGradient9647"
       xlink:href="#linearGradient9087"
       gradientUnits="userSpaceOnUse"
       gradientTransform="translate(-134,-3.0000001)" />
    <linearGradient
       id="linearGradient9073">
      <stop
         id="stop9075"
         style="stop-color:#fb5353;stop-opacity:1"
         offset="0" />
      <stop
         id="stop9077"
         style="stop-color:#c80c0c;stop-opacity:1"
         offset="1" />
    </linearGradient>
    <linearGradient
       x1="28.272148"
       y1="324.68878"
       x2="28.272144"
       y2="409.09872"
       id="linearGradient9645"
       xlink:href="#linearGradient9073"
       gradientUnits="userSpaceOnUse"
       gradientTransform="matrix(0.3515659,0,0,0.3552688,14.060478,-103.34001)" />
    <linearGradient
       x1="71.999496"
       y1="14.2578"
       x2="71.999496"
       y2="19.9583"
       id="linearGradient9101"
       gradientUnits="userSpaceOnUse"
       gradientTransform="matrix(1.0033404,0,0,1,-8.2374684,8)">
      <stop
         id="stop9103"
         style="stop-color:#df5757;stop-opacity:0"
         offset="0.25" />
      <stop
         id="stop9105"
         style="stop-color:#c80c0c;stop-opacity:1"
         offset="1" />
    </linearGradient>
    <linearGradient
       x1="71.999496"
       y1="14.2578"
       x2="71.999496"
       y2="19.9583"
       id="linearGradient9133"
       xlink:href="#linearGradient9101"
       gradientUnits="userSpaceOnUse"
       gradientTransform="matrix(0.3707962,0,0,0.1666666,-2.6965824,10.666667)" />
    <radialGradient
       cx="605.71429"
       cy="486.64789"
       r="117.14286"
       fx="605.71429"
       fy="486.64789"
       id="radialGradient2099"
       xlink:href="#linearGradient5060"
       gradientUnits="userSpaceOnUse"
       gradientTransform="matrix(-2.774389,0,0,1.969706,112.7623,-872.8854)" />
    <linearGradient
       id="linearGradient5060">
      <stop
         id="stop5062"
         style="stop-color:#000000;stop-opacity:1"
         offset="0" />
      <stop
         id="stop5064"
         style="stop-color:#000000;stop-opacity:0"
         offset="1" />
    </linearGradient>
    <radialGradient
       cx="605.71429"
       cy="486.64789"
       r="117.14286"
       fx="605.71429"
       fy="486.64789"
       id="radialGradient2097"
       xlink:href="#linearGradient5060"
       gradientUnits="userSpaceOnUse"
       gradientTransform="matrix(2.774389,0,0,1.969706,-1891.633,-872.8854)" />
    <linearGradient
       id="linearGradient5048">
      <stop
         id="stop5050"
         style="stop-color:#000000;stop-opacity:0"
         offset="0" />
      <stop
         id="stop5056"
         style="stop-color:#000000;stop-opacity:1"
         offset="0.5" />
      <stop
         id="stop5052"
         style="stop-color:#000000;stop-opacity:0"
         offset="1" />
    </linearGradient>
    <linearGradient
       x1="302.85715"
       y1="366.64789"
       x2="302.85715"
       y2="609.50507"
       id="linearGradient2095"
       xlink:href="#linearGradient5048"
       gradientUnits="userSpaceOnUse"
       gradientTransform="matrix(2.774389,0,0,1.969706,-1892.179,-872.8854)" />
    <linearGradient
       id="linearGradient17648">
      <stop
         id="stop17650"
         style="stop-color:#ffffff;stop-opacity:0.60000002"
         offset="0" />
      <stop
         id="stop17652"
         style="stop-color:#ffffff;stop-opacity:0"
         offset="1" />
    </linearGradient>
    <linearGradient
       x1="23.959301"
       y1="10"
       x2="23.984924"
       y2="41.999912"
       id="linearGradient17646"
       xlink:href="#linearGradient17648"
       gradientUnits="userSpaceOnUse"
       gradientTransform="translate(-2.3577825e-6,-0.9999361)" />
    <linearGradient
       id="linearGradient6293">
      <stop
         id="stop6295"
         style="stop-color:#888a85;stop-opacity:1"
         offset="0" />
      <stop
         id="stop6297"
         style="stop-color:#555753;stop-opacity:0"
         offset="1" />
    </linearGradient>
    <linearGradient
       x1="25.0625"
       y1="8.9999352"
       x2="25.0625"
       y2="28.082869"
       id="linearGradient17644"
       xlink:href="#linearGradient6293"
       gradientUnits="userSpaceOnUse"
       gradientTransform="translate(-2.3577825e-6,-0.9999361)" />
    <linearGradient
       x1="32.036148"
       y1="19"
       x2="32.036148"
       y2="47.012184"
       id="linearGradient2644"
       xlink:href="#linearGradient3309"
       gradientUnits="userSpaceOnUse"
       gradientTransform="translate(-61.272483,-10.504231)" />
    <linearGradient
       x1="63.9995"
       y1="3.1001"
       x2="63.9995"
       y2="122.8994"
       id="linearGradient3309"
       gradientUnits="userSpaceOnUse">
      <stop
         id="stop3311"
         style="stop-color:#f6f6f6;stop-opacity:1"
         offset="0" />
      <stop
         id="stop3313"
         style="stop-color:#d2d2d2;stop-opacity:1"
         offset="1" />
    </linearGradient>
    <linearGradient
       x1="25.922546"
       y1="19"
       x2="25.922546"
       y2="47.044857"
       id="linearGradient2646"
       xlink:href="#linearGradient3397"
       gradientUnits="userSpaceOnUse"
       gradientTransform="translate(-61.272483,-10.504231)" />
    <linearGradient
       id="linearGradient3397">
      <stop
         id="stop3399"
         style="stop-color:#a0a0a0;stop-opacity:1"
         offset="0" />
      <stop
         id="stop3401"
         style="stop-color:#787878;stop-opacity:1"
         offset="1" />
    </linearGradient>
    <linearGradient
       x1="62.988873"
       y1="13.182598"
       x2="62.988873"
       y2="16.19013"
       id="linearGradient2648"
       xlink:href="#linearGradient6404"
       gradientUnits="userSpaceOnUse"
       gradientTransform="translate(-112.21338,-10.504231)" />
    <linearGradient
       id="linearGradient6404">
      <stop
         id="stop6406"
         style="stop-color:#f9f9f9;stop-opacity:1"
         offset="0" />
      <stop
         id="stop6408"
         style="stop-color:#c9c9c9;stop-opacity:1"
         offset="1" />
    </linearGradient>
    <linearGradient
       x1="62.988873"
       y1="13.182598"
       x2="62.988873"
       y2="16.19013"
       id="linearGradient2909"
       xlink:href="#linearGradient6404"
       gradientUnits="userSpaceOnUse"
       gradientTransform="translate(-112.21338,-10.504231)" />
  </defs>
  <g
     id="layer1">
    <path
       d="m 44.5,13.499999 c 0.0096,-1.493852 -0.492188,-1.999935 -2,-1.999935 l -23,0 L 17,9.0000641 c -0.266276,-0.259404 -0.623516,-0.500065 -1,-0.500065 l -10.5000024,0 c -1.487341,0 -2.03125,0.516469 -2,2.0000009 l 0,31 41.0000024,0 0,-28.000001 z"
       id="path15"
       style="fill:#eeeeec;fill-opacity:1;stroke:url(#linearGradient17644);stroke-width:0.99986976;stroke-miterlimit:4;stroke-dasharray:none" />
    <path
       d="m 43.5,13.500063 c -0.0081,-0.913513 -0.05544,-0.988951 -1,-1 l -23.5,0 -2.5,-2.499999 C 16.060821,9.3837571 15.95093,9.5313141 15,9.5000641 l -10.0000034,0 c -0.714351,0 -0.5,0.312316 -0.5,0.9999999 L 4.4999976,40.5 43.5,40.5 l 0,-26.999937 z"
       id="path7263"
       style="fill:none;stroke:url(#linearGradient17646);stroke-width:0.9999525;stroke-miterlimit:4;stroke-opacity:1;stroke-dasharray:none" />
    <g
       transform="matrix(0.02364027,0,0,0.02195013,45.026494,37.807815)"
       id="g13071"
       style="display:inline">
      <rect
         width="1339.6335"
         height="478.35718"
         x="-1559.2523"
         y="-150.69685"
         id="rect13073"
         style="opacity:0.40206185;fill:url(#linearGradient2095);fill-opacity:1;fill-rule:nonzero;stroke:none;stroke-width:1;marker:none;visibility:visible;display:inline;overflow:visible" />
      <path
         d="m -219.61876,-150.68038 c 0,0 0,478.33079 0,478.33079 142.874166,0.90045 345.40022,-107.16966 345.40014,-239.196175 0,-132.026537 -159.436816,-239.134595 -345.40014,-239.134615 z"
         id="path13075"
         style="opacity:0.40206185;fill:url(#radialGradient2097);fill-opacity:1;fill-rule:nonzero;stroke:none;stroke-width:1;marker:none;visibility:visible;display:inline;overflow:visible" />
      <path
         d="m -1559.2523,-150.68038 c 0,0 0,478.33079 0,478.33079 -142.8742,0.90045 -345.4002,-107.16966 -345.4002,-239.196175 0,-132.026537 159.4368,-239.134595 345.4002,-239.134615 z"
         id="path13077"
         style="opacity:0.40206185;fill:url(#radialGradient2099);fill-opacity:1;fill-rule:nonzero;stroke:none;stroke-width:1;marker:none;visibility:visible;display:inline;overflow:visible" />
    </g>
    <path
       d="m 4.0007396,13 c 0.00309,0.291666 0.00618,0.625833 0.00926,1 l 39.9807324,0 c 0.0031,-0.374167 0.0062,-0.708334 0.0093,-1 l -40.0000014,0 7.41e-4,0 z"
       id="path39053"
       style="opacity:0.5;fill:url(#linearGradient9133);fill-opacity:1;display:inline;enable-background:new" />
    <path
       d="m 45.25,40.5 c -0.03037,0.585484 -0.66795,1.000209 -1.25,1.000209 l -40.0000004,0 c -0.58204,0 -1.21931,-0.414725 -1.25,-1.000209 l -1.25,-25 c -0.04234,-0.584417 0.41795,-1.000209 1,-1.000209 l 43.0000004,0 c 0.58205,0 1.04444,0.415792 1,1.000209 l -1.25,25 0,0 z"
       id="path39063"
       style="opacity:0.9;fill:url(#linearGradient9645);fill-opacity:1;stroke:url(#linearGradient9647);stroke-width:0.99958181;stroke-miterlimit:4;stroke-dasharray:none;display:inline;enable-background:new" />
    <rect
       width="44"
       height="1"
       rx="0"
       ry="0"
       x="1.9999974"
       y="15.000002"
       id="rect3521-5"
       style="fill:url(#linearGradient9649);fill-opacity:1;stroke:none;display:inline;enable-background:new" />
    <g
       transform="translate(61.272483,11.504231)"
       id="g2639">
      <path
         d="m -32.397483,8.995769 c -0.748739,0 -1.375,0.595012 -1.375,1.34375 l 0,1.75 c -0.473402,0.158876 -0.932751,0.343406 -1.375,0.5625 l -1.21875,-1.21875 c -0.529439,-0.529438 -1.376812,-0.529438 -1.90625,0 l -3.0625,3.03125 c -0.529439,0.529438 -0.529436,1.376813 0,1.90625 l 1.21875,1.21875 c -0.224327,0.449932 -0.400632,0.923932 -0.5625,1.40625 l -1.71875,0 c -0.748739,0 -1.375002,0.595012 -1.375,1.34375 l 0,4.3125 c -10e-7,0.748738 0.626264,1.343752 1.375,1.34375 l 1.71875,0 c 0.161868,0.482318 0.338173,0.956318 0.5625,1.40625 l -1.21875,1.21875 c -0.529439,0.529438 -0.52944,1.376812 0,1.90625 l 3.0625,3.03125 c 0.529437,0.529438 1.376813,0.529436 1.90625,0 l 1.21875,-1.21875 c 0.442249,0.219094 0.901598,0.403624 1.375,0.5625 l 0,1.75 c -10e-7,0.748738 0.626266,1.343752 1.375,1.34375 l 4.28125,0 c 0.748739,0 1.34375,-0.595014 1.34375,-1.34375 l 0,-1.75 c 0.482318,-0.161868 0.956318,-0.338173 1.40625,-0.5625 l 1.21875,1.21875 c 0.529439,0.529438 1.376811,0.529438 1.90625,0 l 3.0625,-3.03125 c 0.529439,-0.529438 0.529434,-1.376814 0,-1.90625 l -1.25,-1.25 c 0.219094,-0.442249 0.403624,-0.901598 0.5625,-1.375 l 1.75,0 c 0.748739,0 1.34375,-0.595014 1.34375,-1.34375 l 0,-4.3125 c 1e-6,-0.748738 -0.595016,-1.34375 -1.34375,-1.34375 l -1.75,0 c -0.158876,-0.473402 -0.343406,-0.932751 -0.5625,-1.375 l 1.25,-1.25 c 0.529439,-0.529438 0.529438,-1.376812 0,-1.90625 l -3.0625,-3.03125 c -0.529437,-0.529438 -1.376814,-0.529438 -1.90625,0 l -1.21875,1.21875 c -0.449932,-0.224327 -0.923932,-0.400632 -1.40625,-0.5625 l 0,-1.75 c 1e-6,-0.748738 -0.595016,-1.34375 -1.34375,-1.34375 l -4.28125,0 z m 2.125,10 c 1.932,0 3.5,1.568 3.5,3.5 0,1.932 -1.568,3.5 -3.5,3.5 -1.932001,0 -3.5,-1.568 -3.5,-3.5 -10e-7,-1.932 1.568,-3.5 3.5,-3.5 z"
         id="rect2576"
         style="fill:url(#linearGradient2644);fill-opacity:1;fill-rule:nonzero;stroke:url(#linearGradient2646);stroke-width:1;stroke-linecap:butt;stroke-linejoin:round;stroke-miterlimit:4;stroke-opacity:1;stroke-dasharray:none;stroke-dashoffset:0;marker:none;visibility:visible;display:block;overflow:visible;enable-background:accumulate" />
      <path
         d="m -30.272483,14.495769 c -4.411273,0 -7.999998,3.588727 -7.999998,8 0,4.411274 3.588725,8 7.999998,8 4.411273,0 8,-3.588726 8,-8 0,-4.411273 -3.588727,-8 -8,-8 z m 0,3.692309 c 2.377844,0 4.307693,1.929846 4.307693,4.307691 0,2.377847 -1.929849,4.307693 -4.307693,4.307693 -2.377846,0 -4.307691,-1.929846 -4.307691,-4.307693 0,-2.377845 1.929845,-4.307691 4.307691,-4.307691 z"
         id="path3315"
         style="opacity:0.05;fill:#000000;fill-opacity:1;stroke:none" />
      <path
         d="m -30.272483,14.11646 c -4.620353,0 -8.379308,3.758957 -8.379308,8.379308 0,4.620352 3.758955,8.37931 8.379308,8.37931 4.620353,0 8.37931,-3.758958 8.37931,-8.37931 0,-4.620351 -3.758957,-8.379308 -8.37931,-8.379308 z"
         id="path28"
         style="fill:none;stroke:url(#linearGradient2909);stroke-width:1;stroke-miterlimit:4;stroke-dasharray:none" />
    </g>
  </g>
</svg>
