<?xml version="1.0" encoding="UTF-8" standalone="no"?>
<!-- Created with Inkscape (http://www.inkscape.org/) -->

<svg
   xmlns:dc="http://purl.org/dc/elements/1.1/"
   xmlns:cc="http://creativecommons.org/ns#"
   xmlns:rdf="http://www.w3.org/1999/02/22-rdf-syntax-ns#"
   xmlns:svg="http://www.w3.org/2000/svg"
   xmlns="http://www.w3.org/2000/svg"
   xmlns:xlink="http://www.w3.org/1999/xlink"
   xmlns:sodipodi="http://sodipodi.sourceforge.net/DTD/sodipodi-0.dtd"
   xmlns:inkscape="http://www.inkscape.org/namespaces/inkscape"
   version="1.0"
   width="22"
   height="22"
   id="svg2482"
   inkscape:version="0.47pre4 r22446"
   sodipodi:docname="paw_mainmenu_stub.svg">
  <metadata
     id="metadata3622">
    <rdf:RDF>
      <cc:Work
         rdf:about="">
        <dc:format>image/svg+xml</dc:format>
        <dc:type
           rdf:resource="http://purl.org/dc/dcmitype/StillImage" />
        <dc:title />
      </cc:Work>
    </rdf:RDF>
  </metadata>
  <sodipodi:namedview
     pagecolor="#ffffff"
     bordercolor="#666666"
     borderopacity="1"
     objecttolerance="10"
     gridtolerance="10"
     guidetolerance="10"
     inkscape:pageopacity="0"
     inkscape:pageshadow="2"
     inkscape:window-width="1024"
     inkscape:window-height="696"
     id="namedview3620"
     showgrid="false"
     inkscape:zoom="13.754011"
     inkscape:cx="10.046815"
     inkscape:cy="8.7560771"
     inkscape:window-x="0"
     inkscape:window-y="24"
     inkscape:window-maximized="1"
     inkscape:current-layer="svg2482" />
  <defs
     id="defs2484">
    <inkscape:perspective
       sodipodi:type="inkscape:persp3d"
       inkscape:vp_x="0 : 12 : 1"
       inkscape:vp_y="0 : 1000 : 0"
       inkscape:vp_z="24 : 12 : 1"
       inkscape:persp3d-origin="12 : 8 : 1"
       id="perspective3624" />
    <linearGradient
       id="linearGradient3584">
      <stop
         id="stop3586"
         style="stop-color:#f19765;stop-opacity:1"
         offset="0" />
      <stop
         id="stop3588"
         style="stop-color:#de1000;stop-opacity:1"
         offset="1" />
    </linearGradient>
    <radialGradient
       cx="11.376413"
       cy="11.482934"
       r="9.936264"
       fx="11.376413"
       fy="11.482934"
       id="radialGradient3590"
       xlink:href="#linearGradient3584"
       gradientUnits="userSpaceOnUse"
       gradientTransform="matrix(1.3236902,-4.4149302e-8,4.6758856e-8,1.4019302,-4.4761365,-6.2396285)" />
    <inkscape:perspective
       id="perspective3689"
       inkscape:persp3d-origin="0.5 : 0.33333333 : 1"
       inkscape:vp_z="1 : 0.5 : 1"
       inkscape:vp_y="0 : 1000 : 0"
       inkscape:vp_x="0 : 0.5 : 1"
       sodipodi:type="inkscape:persp3d" />
    <inkscape:perspective
       id="perspective3702"
       inkscape:persp3d-origin="0.5 : 0.33333333 : 1"
       inkscape:vp_z="1 : 0.5 : 1"
       inkscape:vp_y="0 : 1000 : 0"
       inkscape:vp_x="0 : 0.5 : 1"
       sodipodi:type="inkscape:persp3d" />
    <inkscape:perspective
       id="perspective3728"
       inkscape:persp3d-origin="0.5 : 0.33333333 : 1"
       inkscape:vp_z="1 : 0.5 : 1"
       inkscape:vp_y="0 : 1000 : 0"
       inkscape:vp_x="0 : 0.5 : 1"
       sodipodi:type="inkscape:persp3d" />
    <inkscape:perspective
       id="perspective3741"
       inkscape:persp3d-origin="0.5 : 0.33333333 : 1"
       inkscape:vp_z="1 : 0.5 : 1"
       inkscape:vp_y="0 : 1000 : 0"
       inkscape:vp_x="0 : 0.5 : 1"
       sodipodi:type="inkscape:persp3d" />
    <inkscape:perspective
       id="perspective2866"
       inkscape:persp3d-origin="0.5 : 0.33333333 : 1"
       inkscape:vp_z="1 : 0.5 : 1"
       inkscape:vp_y="0 : 1000 : 0"
       inkscape:vp_x="0 : 0.5 : 1"
       sodipodi:type="inkscape:persp3d" />
    <radialGradient
       cx="11.376413"
       cy="11.482934"
       r="9.936264"
       fx="11.376413"
       fy="11.482934"
       id="radialGradient3590-3"
       xlink:href="#linearGradient3584-3"
       gradientUnits="userSpaceOnUse"
       gradientTransform="matrix(1.3236902,-4.4149302e-8,4.6758856e-8,1.4019302,-3.4122575,-5.2396272)" />
    <linearGradient
       id="linearGradient3584-3">
      <stop
         id="stop3586-3"
         style="stop-color:#f19765;stop-opacity:1"
         offset="0" />
      <stop
         id="stop3588-8"
         style="stop-color:#de1000;stop-opacity:1"
         offset="1" />
    </linearGradient>
    <radialGradient
       r="9.936264"
       fy="11.482934"
       fx="11.376413"
       cy="11.482934"
       cx="11.376413"
       gradientTransform="matrix(1.3236902,-4.4149302e-8,4.6758856e-8,1.4019302,-3.4122575,-5.2396272)"
       gradientUnits="userSpaceOnUse"
       id="radialGradient2875"
       xlink:href="#linearGradient3584-3"
       inkscape:collect="always" />
    <inkscape:perspective
       id="perspective2905"
       inkscape:persp3d-origin="0.5 : 0.33333333 : 1"
       inkscape:vp_z="1 : 0.5 : 1"
       inkscape:vp_y="0 : 1000 : 0"
       inkscape:vp_x="0 : 0.5 : 1"
       sodipodi:type="inkscape:persp3d" />
    <radialGradient
       cx="11.376413"
       cy="11.482934"
       r="9.936264"
       fx="11.376413"
       fy="11.482934"
       id="radialGradient3590-2"
       xlink:href="#linearGradient3584-6"
       gradientUnits="userSpaceOnUse"
       gradientTransform="matrix(1.3236902,-4.4149302e-8,4.6758856e-8,1.4019302,-3.4122575,-5.2396272)" />
    <linearGradient
       id="linearGradient3584-6">
      <stop
         id="stop3586-5"
         style="stop-color:#f19765;stop-opacity:1"
         offset="0" />
      <stop
         id="stop3588-2"
         style="stop-color:#de1000;stop-opacity:1"
         offset="1" />
    </linearGradient>
    <radialGradient
       r="9.936264"
       fy="11.482934"
       fx="11.376413"
       cy="11.482934"
       cx="11.376413"
       gradientTransform="matrix(1.3236902,-4.4149302e-8,4.6758856e-8,1.4019302,-3.4122575,-5.2396272)"
       gradientUnits="userSpaceOnUse"
       id="radialGradient2914"
       xlink:href="#linearGradient3584-6"
       inkscape:collect="always" />
    <inkscape:perspective
       id="perspective2905-2"
       inkscape:persp3d-origin="0.5 : 0.33333333 : 1"
       inkscape:vp_z="1 : 0.5 : 1"
       inkscape:vp_y="0 : 1000 : 0"
       inkscape:vp_x="0 : 0.5 : 1"
       sodipodi:type="inkscape:persp3d" />
    <radialGradient
       cx="11.376413"
       cy="11.482934"
       r="9.936264"
       fx="11.376413"
       fy="11.482934"
       id="radialGradient3590-4"
       xlink:href="#linearGradient3584-7"
       gradientUnits="userSpaceOnUse"
       gradientTransform="matrix(1.3236902,-4.4149302e-8,4.6758856e-8,1.4019302,-3.4122575,-5.2396272)" />
    <linearGradient
       id="linearGradient3584-7">
      <stop
         id="stop3586-9"
         style="stop-color:#f19765;stop-opacity:1"
         offset="0" />
      <stop
         id="stop3588-3"
         style="stop-color:#de1000;stop-opacity:1"
         offset="1" />
    </linearGradient>
    <radialGradient
       r="9.936264"
       fy="11.482934"
       fx="11.376413"
       cy="11.482934"
       cx="11.376413"
       gradientTransform="matrix(1.3236902,-4.4149302e-8,4.6758856e-8,1.4019302,-3.4122575,-5.2396272)"
       gradientUnits="userSpaceOnUse"
       id="radialGradient2914-9"
       xlink:href="#linearGradient3584-7"
       inkscape:collect="always" />
    <inkscape:perspective
       id="perspective2905-4"
       inkscape:persp3d-origin="0.5 : 0.33333333 : 1"
       inkscape:vp_z="1 : 0.5 : 1"
       inkscape:vp_y="0 : 1000 : 0"
       inkscape:vp_x="0 : 0.5 : 1"
       sodipodi:type="inkscape:persp3d" />
    <radialGradient
       cx="11.376413"
       cy="11.482934"
       r="9.936264"
       fx="11.376413"
       fy="11.482934"
       id="radialGradient3590-9"
       xlink:href="#linearGradient3584-2"
       gradientUnits="userSpaceOnUse"
       gradientTransform="matrix(1.3236902,-4.4149302e-8,4.6758856e-8,1.4019302,-3.4122575,-5.2396272)" />
    <linearGradient
       id="linearGradient3584-2">
      <stop
         id="stop3586-57"
         style="stop-color:#f19765;stop-opacity:1"
         offset="0" />
      <stop
         id="stop3588-4"
         style="stop-color:#de1000;stop-opacity:1"
         offset="1" />
    </linearGradient>
    <radialGradient
       r="9.936264"
       fy="11.482934"
       fx="11.376413"
       cy="11.482934"
       cx="11.376413"
       gradientTransform="matrix(1.3236902,-4.4149302e-8,4.6758856e-8,1.4019302,-3.4122575,-5.2396272)"
       gradientUnits="userSpaceOnUse"
       id="radialGradient2914-99"
       xlink:href="#linearGradient3584-2"
       inkscape:collect="always" />
  </defs>
  <path
     d="M 9.274619,21.60682 C 8.8889265,21.15467 8.7664605,20.23955 7.9842815,20.35654 c -1.1351,0.09831 -2.023906,-0.72213 -2.993291,-1.16411 -0.654504,-0.30694 -1.419927,-9.4e-4 -2.065587,-0.37205 -1.418197,-0.67766 -2.07921103,-2.37609 -1.895252,-3.83148 0.160374,-1.16706 0.873492,-2.2049 1.764911,-2.95692 0.77271,-0.50993 1.746117,-0.61251 2.58262,-1.00107 0.650953,-0.19743 1.110561,-0.67281 1.619578,-1.0783703 0.855685,-0.53299 2.0640745,-0.69467 2.9296815,-0.04263 0.752891,0.5030603 1.575729,0.9103003 2.301593,1.4472903 0.566869,0.59751 0.428377,1.47123 0.589257,2.20652 0.06733,1.44421 0.694144,2.78971 0.947327,4.20218 0.206668,0.84495 -0.138127,1.66569 -0.616411,2.34124 C 12.60148,20.90139 12.015503,21.91393 10.921568,22 10.376165,21.97333 9.691977,22.02902 9.274619,21.60682 z m 6.302901,-6.9664 c -0.344922,-0.630649 -0.599256,-1.518144 -0.09889,-2.14174 0.808109,-1.007124 1.808274,-1.85182 2.840267,-2.6300003 0.470478,-0.42154 0.994529,-0.359381 1.684819,-0.03292 0.728403,0.3444873 0.97561,1.1951743 0.827937,1.9214773 -0.214737,1.056137 -0.589966,2.205233 -1.684345,2.657713 -0.950104,0.39881 -2.012998,0.877151 -3.068443,0.61042 -0.208172,-0.05261 -0.400056,-0.199749 -0.501348,-0.38495 z M 2.4437675,9.3700097 C 1.7576775,8.9717595 1.2128765,8.3183435 1.0961335,7.5254933 0.94792449,6.5189435 1.1304103,5.4379063 1.813895,4.661917 2.4228483,3.9705463 3.1918645,3.1299795 4.2306035,3.2411395 c 0.905041,0.0276 0.850102,0.85756 0.856049,1.4953 0.08246,0.7199475 0.4112994,1.3849658 0.5651325,2.0867449 0.02656,0.1211663 0.02893,0.2413399 0.00571,0.3259839 -0.2148907,0.7835034 -0.7811816,1.4490027 -1.3809069,1.9902214 -0.407283,0.48371 -1.0414045,0.622177 -1.663871,0.31421 l -0.168953,-0.08359 -1e-6,0 z m 10.8352235,0.47866 c -0.62949,-0.333214 -1.526738,-0.8950832 -1.222478,-1.7028302 0.284874,-0.756283 0.712591,-1.4506893 0.986253,-2.21795 0.333821,-0.9359272 0.959711,-2.2555374 1.370202,-2.65287 0.658241,-0.6371405 1.747678,-0.6214949 2.63682,-0.51999 1.08571,0.1239451 1.627999,1.2744979 1.892598,2.21088 0.195048,0.6902479 0.278195,1.4512999 -0.123095,2.06456 -0.514998,0.7870299 -1.236289,1.4384131 -1.966377,2.0319802 -0.673639,0.547673 -1.523532,0.91945 -2.396716,1.0550403 -0.411473,0.05977 -0.813933,-0.07652 -1.177207,-0.2688203 z M 8.3898255,7.4587695 c -1.116082,-1.04586 -1.589,-2.66411 -1.377063,-4.12154 0.198065,-0.831 0.6895932,-1.5531138 1.245381,-2.18753 0.4792092,-0.54700378 1.0732415,-1.11060908 1.8930535,-1.13092998 0.86452,-0.0214291 1.869602,0.043278 2.491845,0.65485 0.537455,0.52823838 0.909872,1.48321998 0.529506,2.21020998 -0.713866,1.13872 -1.372806,2.31301 -1.899584,3.55065 -0.280894,0.53366 -0.470819,1.31372 -1.195637,1.39263 -0.572006,0.06063 -1.1998745,-0.04306 -1.6875015,-0.36834 z"
     id="path2463"
     style="fill:url(#radialGradient3590);fill-opacity:1" />
  <path
     style="opacity:0.74021349;fill:#ffefda;fill-opacity:1;fill-rule:evenodd;stroke:none;display:inline"
     d="m 12.404871,13.374999 c -0.102762,-0.0057 -0.208351,0.02748 -0.3125,0.03125 0.170971,-0.0053 0.359867,0.01435 0.53125,0.03125 0.0605,0.006 0.127179,-0.0086 0.1875,0 -0.137635,-0.02499 -0.264148,-0.05466 -0.40625,-0.0625 z m 0.21875,0.0625 c -0.225745,-0.02427 -0.453246,-0.0199 -0.6875,0 -0.224368,0.01906 -0.456699,0.06112 -0.6875,0.125 -0.0087,0.0026 -0.02258,-0.0027 -0.03125,0 -0.0099,0.0028 -0.02133,-0.0029 -0.03125,0 -1.055616,0.348673 -1.742754,1.239361 -2.0625,2.25 0.0076,-0.03008 -0.0084,-0.06392 0,-0.09375 -0.02293,0.08196 -0.04533,0.166484 -0.0625,0.25 -0.02999,0.145988 -0.04966,0.287505 -0.0625,0.4375 0.0033,-0.0515 -0.0051,-0.104859 0,-0.15625 -0.03932,0.307003 -0.03138,0.626692 0,0.9375 0.01212,0.115496 0.04186,0.23006 0.0625,0.34375 0.01957,0.106006 0.03516,0.208217 0.0625,0.3125 0.0083,0.03272 0.02224,0.06116 0.03125,0.09375 0.0089,0.03115 0.02166,0.06282 0.03125,0.09375 0.07316,0.244637 0.169245,0.464318 0.28125,0.6875 -0.03361,-0.06583 -0.09481,-0.119814 -0.125,-0.1875 0.09805,0.229111 0.210105,0.475194 0.34375,0.6875 0.02276,0.02901 0.07009,0.03421 0.09375,0.0625 0.106898,0.140367 0.219432,0.255887 0.34375,0.375 0.02915,0.02764 0.07344,0.0503 0.09375,0.0625 -0.009,-0.01598 0.0087,-0.0464 0,-0.0625 -0.243302,-0.607229 -0.410356,-1.28019 -0.40625,-1.96875 -0.04287,0.451136 -0.01066,0.904929 0.125,1.34375 -0.201762,-0.600507 -0.238098,-1.236416 -0.09375,-1.8125 0.01142,-0.115796 0.01162,-0.228072 0.03125,-0.34375 -0.213523,0.715175 -0.239872,1.495925 -0.03125,2.1875 -0.04921,-0.0618 -0.08031,-0.1198 -0.125,-0.1875 -0.178646,-0.271322 -0.31442,-0.553415 -0.40625,-0.875 -0.319397,-1.411541 0.284053,-2.729411 1.59375,-3.625 0.655469,-0.434211 1.346402,-0.45465 2,-0.25 -0.02647,-0.188595 -0.08481,-0.370815 -0.09375,-0.5625 -0.0066,-0.03026 0.0057,-0.06305 0,-0.09375 -0.06345,-0.01023 -0.123284,-0.02435 -0.1875,-0.03125 z m -2.75,3.4375 c 0.129106,-0.337401 0.351427,-0.646993 0.59375,-0.90625 -0.08814,0.113814 -0.147447,0.251687 -0.21875,0.375 0.09549,-0.132796 0.188416,-0.261318 0.3125,-0.375 0.486939,-0.501802 1.285485,-0.895767 1.9375,-0.59375 0.03856,-0.01326 0.08631,-0.01889 0.125,-0.03125 -0.702896,-0.268976 -1.419099,-0.04467 -1.96875,0.4375 0.09892,-0.107573 0.196747,-0.217707 0.3125,-0.3125 0.453607,-0.322008 1.122874,-0.360941 1.65625,-0.125 0.160447,0.07097 0.310671,0.158178 0.4375,0.28125 -0.378346,-0.0642 -0.76274,-0.03915 -1.09375,0.0625 0.229382,-0.08806 0.472871,-0.183693 0.71875,-0.21875 -0.05767,-0.04034 -0.12689,-0.06567 -0.1875,-0.09375 -0.327996,0.112831 -0.620955,0.285172 -0.90625,0.46875 -0.154063,0.08074 -0.279068,0.167478 -0.40625,0.28125 -0.01073,0.0097 -0.02074,0.02135 -0.03125,0.03125 -0.01129,0.01057 -0.02022,0.02043 -0.03125,0.03125 -0.01029,0.01012 -0.02118,0.02091 -0.03125,0.03125 -0.212773,0.213858 -0.339977,0.462437 -0.4375,0.75 -0.0078,0.0235 -0.02431,0.03858 -0.03125,0.0625 -0.02987,0.100751 -0.0503,0.202367 -0.0625,0.3125 -0.01734,0.396277 0.0397,0.802752 0.15625,1.15625 0.06103,0.176578 0.1329,0.340579 0.21875,0.5 -0.0542,-0.09835 -0.08188,-0.207302 -0.125,-0.3125 0.08046,0.180201 0.172918,0.375636 0.28125,0.53125 -0.05091,-0.07467 -0.112282,-0.13897 -0.15625,-0.21875 0.422009,0.783657 1.11128,1.335174 2,1.40625 0.008,-0.01185 0.02324,-0.01943 0.03125,-0.03125 -0.05385,-0.0062 -0.103718,-0.02204 -0.15625,-0.03125 0.05414,0.0096 0.102147,-0.006 0.15625,0 0.05732,-0.08464 0.131492,-0.168709 0.1875,-0.25 0.08422,-0.118959 0.145089,-0.247697 0.21875,-0.375 -0.414882,0.04773 -0.855159,-0.01833 -1.25,-0.25 0.05784,0.129587 0.06714,0.120423 0.125,0.25 -0.427689,-0.16367 -0.714614,-0.473043 -0.90625,-0.8125 0.14452,0.235983 0.334288,0.409754 0.59375,0.46875 0.333369,0.09399 0.685989,0.197361 1.03125,0.25 -0.795717,-0.254547 -1.290264,-0.874431 -1.53125,-1.71875 0.05786,0.129582 -0.15161,0.370422 -0.09375,0.5 -0.650291,-1.10839 0.43786,-2.524101 1.5625,-2.09375 0.272372,0.104228 0.481911,0.232691 0.625,0.40625 -0.288316,-0.333399 -0.682694,-0.556206 -1.1875,-0.5625 0.214083,-0.01545 0.4532,0.0041 0.6875,0.09375 0.186464,0.09616 0.340239,0.208972 0.46875,0.34375 -0.122854,-0.438089 -0.259074,-0.873306 -0.375,-1.3125 -0.345089,-0.183646 -0.727985,-0.305552 -1.125,-0.28125 -1.145192,0.06047 -1.829919,0.886655 -2.125,1.875 z m -0.03125,0.34375 c -0.0072,0.07314 0.004,0.145729 0,0.21875 0.03163,-0.189674 0.06174,-0.349622 0.125,-0.53125 -0.0398,0.103291 -0.09791,0.204368 -0.125,0.3125 z m 0.125,-0.3125 c 0.05268,-0.151271 0.144304,-0.294919 0.21875,-0.4375 -0.0897,0.141494 -0.15857,0.281326 -0.21875,0.4375 z m 1.28125,-3.34375 c 0.226599,-0.06242 0.452315,-0.107884 0.6875,-0.125 0.05295,-0.0039 0.103091,-0.02961 0.15625,-0.03125 -0.283886,0.01027 -0.560594,0.07046 -0.84375,0.15625 z m 0.0625,3.21875 c -0.118332,0.186393 -0.207202,0.40402 -0.25,0.65625 -0.02487,0.205371 -0.02264,0.416558 0,0.625 0.02153,0.198182 0.09063,0.387748 0.15625,0.5625 -0.07378,-0.187179 -0.12423,-0.370404 -0.15625,-0.5625 -0.02498,-0.14988 -0.05693,-0.296281 -0.0625,-0.4375 0.01291,-0.295074 0.127825,-0.586301 0.3125,-0.84375 z m 2.5,1.34375 c -0.02689,0.21597 -0.07278,0.42451 -0.125,0.625 0.02436,-0.0063 0.03959,-0.02399 0.0625,-0.03125 0.03768,-0.197859 0.07783,-0.389225 0.0625,-0.59375 z m -0.625,1.53125 c 0.04471,0.0099 0.07859,0.02338 0.125,0.03125 0.03141,0.0014 0.06304,5.74e-4 0.09375,0 0.0045,-0.0079 -0.0044,-0.02328 0,-0.03125 -0.0723,-6.27e-4 -0.145152,0.0067 -0.21875,0 z m -1.4375,0.25 c 0.09434,0.06737 0.209068,0.132907 0.3125,0.1875 -0.0506,-0.02568 -0.106815,-0.03349 -0.15625,-0.0625 -0.05464,-0.03823 -0.104948,-0.0852 -0.15625,-0.125 z"
     id="path3513" />
  <path
     style="opacity:0.74021349;fill:#ffecd4;fill-opacity:1;fill-rule:evenodd;display:inline"
     d="m 2.279871,4.1562487 c -0.01583,0.016072 -0.015614,0.046327 -0.03125,0.0625 0.8762506,0.050246 1.7368779,0.5653191 2.125,1.40625 0.219301,0.657902 0.219851,1.529598 -0.21875,2.1875 -0.178183,0.219301 -0.384537,0.421709 -0.59375,0.59375 -0.209324,0.172042 -0.4221486,0.311073 -0.65625,0.4375 -0.1281902,0.053162 -0.2698541,0.1111294 -0.40625,0.15625 0.1833586,-0.031512 0.2570178,-0.03591 0.375,-0.0625 0.041698,-0.00884 0.083476,-0.022741 0.125,-0.03125 0.042232,-0.00902 0.082844,-0.022636 0.125,-0.03125 0.246166,-0.143313 0.4682,-0.336835 0.65625,-0.53125 0.3761,-0.38893 0.675437,-0.869511 0.8125,-1.5 0.2611049,-1.4795944 -1.0144655,-2.6116062 -2.3125,-2.6875 z m 1.84375,0.84375 c 0.397268,0.482933 0.6310306,1.1019669 0.5625,1.71875 -0.109651,0.657902 -0.376754,1.188044 -0.75,1.59375 0.065765,-0.062805 0.1563983,-0.088218 0.21875,-0.15625 0.8381922,-0.922012 0.7286954,-2.2678145 -0.03125,-3.15625 z m -2.65625,1.0625 c -0.122724,0.017897 -0.221026,0.042431 -0.34375,0.0625 -0.00127,2.069e-4 0.00127,0.031048 0,0.03125 0.2071785,-0.0022 0.40712,-0.019097 0.59375,-0.09375 -0.082238,-0.027412 -0.1677623,-0.011993 -0.25,0 z m 3.75,5.0312503 c -0.042163,0.01766 -0.082306,0.04595 -0.125,0.0625 0.5410511,0.311614 1.0128286,0.758351 1.25,1.375 0.328953,0.904616 0.034546,1.685848 -0.5,2.34375 0.8153836,-1.090735 0.6796167,-2.579596 -0.5,-3.4375 -0.1272681,-0.106056 -0.2583315,-0.176769 -0.40625,-0.25 -0.052266,0.01875 -0.1034743,0.04484 -0.15625,0.0625 0.66,0.306045 1.2030759,0.855332 1.4375,1.5 0.219302,0.986853 -0.091545,1.967098 -0.96875,2.625 -0.7583348,0.521357 -1.6167264,0.801966 -2.46875,0.875 -0.22083,0.01893 -0.4350692,0.0075 -0.65625,0 -0.1593702,-0.0054 -0.3102904,0.01848 -0.46875,0 -0.1939117,-0.02254 -0.4026794,-0.05254 -0.59375,-0.09375 0.00206,0.0121 0.029082,0.01916 0.03125,0.03125 0.1487788,0.02891 0.2878025,0.07232 0.4375,0.09375 0.4471355,0.06399 0.9047286,0.08604 1.34375,0.0625 0.4390214,-0.02354 0.8747811,-0.107776 1.28125,-0.25 0.2032344,-0.07111 0.4032359,-0.143377 0.59375,-0.25 -0.1868583,0.106354 -0.3983613,0.176862 -0.59375,0.25 -0.4213865,0.157734 -0.8367394,0.221726 -1.28125,0.25 -0.4451149,0.02831 -0.8981425,0.0047 -1.34375,-0.0625 -0.1442635,-0.02175 -0.2947602,-0.03312 -0.4375,-0.0625 0.00595,0.03183 0.024556,0.06203 0.03125,0.09375 0.02926,0.0079 0.064081,0.02446 0.09375,0.03125 1.9523284,0.366671 4.165562,-0.143619 5.125,-2.0625 0.548253,-1.096504 0.111854,-2.404598 -0.875,-3.0625 -0.077324,-0.05353 -0.1685262,-0.07921 -0.25,-0.125 z m -3.09375,5.15625 c 0.2233862,0.01042 0.4342643,0.01856 0.65625,0 1.1099287,-0.09283 2.1823525,-0.584624 2.90625,-1.53125 0.438602,-0.548252 0.438052,-1.310847 0.21875,-1.96875 0.219302,1.754406 -1.230243,3.077299 -2.875,3.40625 -0.7195794,0.102797 -1.3503591,0.04744 -1.96875,-0.125 0.00289,0.02058 -0.0032,0.04195 0,0.0625 0.3398991,0.08259 0.711173,0.139866 1.0625,0.15625 z"
     id="path3527" />
  <path
     style="opacity:0.74021349;fill:#ffdec2;fill-opacity:1;fill-rule:evenodd;display:inline"
     d="m 10.529871,0.03124872 c -0.490465,0.1652303 -0.923564,0.4170004 -1.09375,0.78125 C 8.943628,1.4365143 9.069132,2.1532819 9.467371,2.7187487 9.305939,2.466272 9.212433,2.1409564 9.248621,1.7499987 c 0.163186,-1.00321828 0.912476,-1.44515138 1.78125,-1.68749998 -0.168411,-0.016004 -0.332768,-0.028896 -0.5,-0.03125 z m -1.0625,2.68749998 c 0.307642,0.4368262 0.765644,0.764257 1.28125,0.875 -0.421249,-0.063543 -0.868433,-0.1914233 -1.21875,-0.4375 0.606187,0.4711525 1.49977,0.5812297 2.21875,0.3125 0.02168,0.00391 0.04091,-8.359e-4 0.0625,0 0.06665,-0.035334 0.154762,-0.077951 0.21875,-0.125 -0.01666,0.048812 -0.07839,0.087932 -0.125,0.125 0.481429,-0.077002 0.908177,-0.775216 1.09375,-1.15625 -0.624145,1.2962198 -2.831712,1.5003157 -3.53125,0.40625 z m 2.4375,0.75 c -0.03209,0.00513 -0.06136,0.00125 -0.09375,0 -0.106926,0.056685 -0.201031,0.1276323 -0.3125,0.15625 0.181292,-0.025408 0.313035,-0.082114 0.40625,-0.15625 z m -2.375,-0.3125 c -0.118945,-0.083552 -0.221586,-0.1755572 -0.3125,-0.28125 0.08826,0.1135992 0.199726,0.1935979 0.3125,0.28125 z m 9.375,1.71875 c -0.0305,0.00794 -0.07551,0.023926 -0.09375,0.03125 0.0183,-7.199e-4 0.07064,0.00175 0.09375,0 -0.0027,-0.00917 0.0027,-0.022048 0,-0.03125 z m -4.875,1.9375 c -0.119759,-0.015096 -0.225209,0.010941 -0.3125,0.03125 0.04374,0.00126 0.08552,0.02626 0.125,0.03125 0.127276,0.016089 0.227088,0.044715 0.3125,0.09375 -0.113961,-0.02848 -0.230858,-0.041914 -0.34375,-0.03125 -0.176288,0.078904 -0.300124,0.1582169 -0.40625,0.21875 0.01367,0.058031 0.09558,0.1254746 0.25,0.1875 0.795993,-0.3339593 -0.541085,-0.041131 0.28125,-0.375 0.148725,0.068772 0.255866,0.1451561 0.34375,0.21875 0.06277,0.052567 0.121064,0.1026718 0.15625,0.15625 0.04229,0.2255452 -0.04363,0.492397 -0.1875,0.71875 -0.03028,0.034888 -0.06143,0.094766 -0.09375,0.125 0.02811,-0.027307 0.06847,-0.033723 0.09375,-0.0625 0.09319,-0.1087369 0.173669,-0.2235483 0.21875,-0.34375 0.0075,-0.019559 -0.0058,-0.04285 0,-0.0625 0.01939,-0.051354 0.03277,-0.1029917 0.03125,-0.15625 0.0039,-0.030311 0.0329,-0.06275 0.03125,-0.09375 0.0069,0.061521 0.01221,0.1234209 0,0.1875 0.104554,-0.3385502 -0.02671,-0.5215026 -0.21875,-0.625 0.03009,0.030748 0.039,0.063023 0.0625,0.09375 -0.0146,-0.013351 -0.04592,-0.018648 -0.0625,-0.03125 0.02339,0.029187 0.04563,0.061028 0.0625,0.09375 -0.0518,-0.061161 -0.133334,-0.1351893 -0.21875,-0.1875 0.05742,0.027085 0.112962,0.060845 0.15625,0.09375 -0.01448,-0.018068 -0.01418,-0.045998 -0.03125,-0.0625 -0.06935,-0.068297 -0.145244,-0.151457 -0.25,-0.21875 z m 0.21875,1.3125 c -0.04001,0.057257 -0.07557,0.1061734 -0.125,0.15625 0.05373,-0.046985 0.07973,-0.1034222 0.125,-0.15625 z m -0.125,0.15625 c -0.03115,0.031559 -0.09048,0.034663 -0.125,0.0625 -0.07768,0.062634 -0.15763,0.1492408 -0.25,0.1875 0.138617,-0.05896 0.261116,-0.1504148 0.375,-0.25 z m -0.125,0.0625 c 0.06549,-0.04706 0.100022,-0.1016353 0.15625,-0.15625 -0.353617,0.3307933 -0.803199,0.3537131 -1.21875,0.21875 0.249828,0.017682 0.509849,-0.016638 0.75,-0.09375 0.06124,-0.019666 0.099,-0.069329 0.15625,-0.09375 -0.412721,0.1090754 -1.016286,-3.965e-4 -1.4375,-0.28125 0.04953,0.073834 0.09295,0.1482627 0.15625,0.21875 0.03438,0.053871 0.08721,0.081615 0.125,0.125 -0.08254,-0.056673 -0.186108,-0.088585 -0.25,-0.15625 0.09139,0.077735 0.174747,0.1653174 0.28125,0.21875 -0.05121,-0.011757 -0.108144,-0.013537 -0.15625,-0.03125 -0.01587,-0.00564 -0.047,0.00615 -0.0625,0 0.193651,0.2563937 0.466256,0.3358131 0.75,0.3125 -0.155796,-0.010281 -0.266771,-0.1128693 -0.40625,-0.21875 -0.009,-0.00353 -0.02232,0.00371 -0.03125,0 -0.006,-0.00481 0.006,-0.026228 0,-0.03125 0.03289,0.00515 0.06012,0.02822 0.09375,0.03125 -0.01822,-0.00632 -0.04451,0.00705 -0.0625,0 0.231138,0.1493293 0.452049,0.2067158 0.65625,0.1875 0.167302,-0.049654 0.355932,-0.1464676 0.5,-0.25 z m -1.5625,-0.21875 c -0.04095,-0.043366 -0.05998,-0.1089372 -0.09375,-0.15625 0.01345,0.039225 0.01562,0.089754 0.03125,0.125 0.01689,0.015792 0.04491,0.016285 0.0625,0.03125 z m -0.0625,-0.03125 c -0.07329,-0.068541 -0.129896,-0.1358226 -0.1875,-0.21875 -0.009,0.021062 -0.02247,0.041362 -0.03125,0.0625 0.06427,0.1369318 0.166368,0.2347622 0.28125,0.3125 -0.02759,-0.043906 -0.03929,-0.1039264 -0.0625,-0.15625 z m 0.03125,-0.15625 c -0.04944,-0.0737 -0.119659,-0.1422125 -0.15625,-0.21875 0.01499,0.033057 0.01442,0.060379 0.03125,0.09375 0.0033,0.00595 -0.0034,0.025348 0,0.03125 0.04232,0.034648 0.07844,0.062705 0.125,0.09375 z m 1.875,-0.75 c -0.06809,0.068344 -0.146269,0.1188285 -0.21875,0.15625 0.216106,0.3218451 0.191425,0.5681881 0.03125,0.75 0.211928,-0.1647139 0.319062,-0.4639021 0.1875,-0.90625 z m -0.21875,0.15625 c -0.0089,-0.013257 -0.02152,-0.017767 -0.03125,-0.03125 -0.09712,0.069192 -0.17278,0.098004 -0.25,0.125 0.09147,-0.00598 0.185171,-0.044145 0.28125,-0.09375 z m -0.65625,-0.1875 c -0.02243,0.012794 -0.07716,0.022331 -0.09375,0.03125 -0.01681,0.017782 -0.0244,0.021899 -0.03125,0.03125 0.0039,-0.00196 0.02682,0.00234 0.03125,0 0.0045,0.018614 0.05175,0.013675 0.0625,0.03125 -0.0019,-0.032444 0.02226,-0.059844 0.03125,-0.09375 z m 0.40625,-0.21875 c 0.02669,-0.011948 0.03552,-0.020371 0.0625,-0.03125 -0.01425,-0.00508 -0.01644,-0.026364 -0.03125,-0.03125 -0.118719,0.01627 -0.204573,0.034583 -0.28125,0.0625 -0.05492,0.037506 -0.0954,0.076659 -0.125,0.125 0.05757,-0.068551 0.210177,-0.1094307 0.375,-0.125 z m -0.375,0.125 c 0.0281,-0.027411 0.02406,-0.088314 0.0625,-0.125 -0.118103,0.051478 -0.169844,0.122961 -0.1875,0.1875 0.01236,-0.012678 0.0772,-0.014906 0.09375,-0.03125 0.0057,-0.011901 0.02414,-0.019638 0.03125,-0.03125 z m 0.125,-0.125 c 0.04407,-0.030099 0.0641,-0.076077 0.125,-0.09375 -0.02179,-1.525e-4 -0.03967,-7.92e-4 -0.0625,0 -0.04292,0.040516 -0.02744,0.060439 -0.0625,0.09375 z m -0.15625,0.40625 c 0.05453,0.096737 0.158624,0.150907 0.34375,0.09375 -0.146743,0.00238 -0.263052,-0.026721 -0.34375,-0.09375 z m -1.28125,0.6875 c 0.03969,0.04865 0.07327,0.08555 0.125,0.125 -0.04188,-0.03601 -0.09033,-0.080283 -0.125,-0.125 z m 1.8125,0.15625 c -0.06673,0.034753 -0.114554,0.097742 -0.1875,0.125 0.09643,-0.036361 0.1778,-0.069588 0.25,-0.125 -0.01703,0.00906 -0.04488,-0.00864 -0.0625,0 z m 5.1875,1.375 c -0.06244,0.08148 -0.128288,0.174496 -0.1875,0.28125 -0.618805,1.3958283 1.038018,1.8520063 1.9375,1.3437503 -0.0057,-0.07798 -0.04763,-0.142204 -0.0625,-0.21875 -0.09319,0.0948 -0.242467,0.138288 -0.40625,0.1875 0.151073,-0.04753 0.288804,-0.139965 0.40625,-0.28125 -0.0161,-0.06546 -0.03936,-0.124544 -0.0625,-0.1875 -0.428765,0.600302 -2.037185,0.04408 -1.3125,-0.8125003 -0.719058,0.8179853 0.702156,1.6278343 1.3125,0.9062503 -0.108864,0.153838 -0.235857,0.326576 -0.4375,0.40625 -0.0094,0.002 -0.02159,-0.0019 -0.03125,0 -0.04486,0.01647 -0.106901,0.01974 -0.15625,0.03125 -0.432304,0.0048 -0.881949,-0.271914 -1.0625,-0.65625 -0.0024,0.07018 -0.01854,0.154681 0,0.21875 -0.07585,-0.151817 -0.102917,-0.337041 -0.0625,-0.5 0.0092,0.08798 0.02722,0.169339 0.0625,0.25 0.01791,-0.247336 0.184357,-0.47241 0.375,-0.6875003 0.0082,-0.0092 0.02246,-0.02197 0.03125,-0.03125 0.03638,-0.03649 0.07953,-0.08879 0.125,-0.125 -0.04282,-0.01389 -0.08348,-0.02037 -0.125,-0.03125 -0.210087,0.16436 -0.40259,0.3586223 -0.46875,0.5937503 -0.01316,-0.205879 0.07396,-0.4412223 0.25,-0.6562503 -0.04121,-0.0052 -0.08499,-0.02981 -0.125,-0.03125 z m 0.03125,1.3750003 c 0.04054,0.04396 0.100233,0.08578 0.15625,0.125 -0.05991,-0.04115 -0.119542,-0.07248 -0.15625,-0.125 z m 0.4375,0.25 c 0.09854,0.02377 0.212827,0.05949 0.34375,0.0625 -0.07711,0.0068 -0.132637,0.0053 -0.21875,0 -0.0483,-0.01492 -0.08207,-0.04546 -0.125,-0.0625 z"
     id="path3616" />
  <path
     style="opacity:0.77021353;fill:#fff6e3;fill-opacity:1;fill-rule:evenodd;display:inline"
     d="m 16.404871,2.7187487 c -0.102131,0.1792241 -0.180611,0.3662213 -0.25,0.5625 0.01439,-0.045086 0.04625,-0.080676 0.0625,-0.125 -0.09284,0.2399024 -0.150868,0.4659274 -0.1875,0.71875 -0.02054,0.1417584 -0.03021,0.2946996 -0.03125,0.4375 0.0021,0.3307091 0.04691,0.6703653 0.15625,1 0.23991,0.4172134 0.647263,0.7029346 1.1875,0.71875 -0.629487,-0.1636226 -0.987475,-0.6092025 -1.15625,-1.15625 0.165377,0.3990459 0.4746,0.7350905 0.84375,0.90625 0.646014,0.299531 1.358183,-0.053027 1.75,-0.65625 -0.398524,0.375856 -0.934733,0.820703 -1.53125,0.65625 -0.781095,-0.25003 -1.10488,-0.974153 -1.125,-1.65625 0.01077,-0.4952679 0.157255,-0.9674493 0.40625,-1.40625 -0.03065,-0.00164 -0.06295,0.00122 -0.09375,0 -0.0022,0.00394 -0.02908,-0.00395 -0.03125,0 z m -0.25,2.59375 c -0.116786,-0.3205181 -0.158686,-0.6652734 -0.15625,-1 -9.16e-4,-0.1468591 0.01282,-0.2936033 0.03125,-0.4375 0.02571,-0.2007378 0.06422,-0.4033266 0.125,-0.59375 -0.159836,0.4521212 -0.261393,0.9369809 -0.21875,1.4375 0.03399,0.2191801 0.11477,0.4129239 0.21875,0.59375 z m 0,-1.75 c -0.05328,0.2208173 -0.09926,0.4619495 -0.09375,0.6875 -0.01149,-0.2208241 0.02054,-0.469155 0.09375,-0.6875 z"
     id="path3511" />
</svg>
