<?xml version="1.0" encoding="UTF-8" standalone="no"?>
<!-- Created with Inkscape (http://www.inkscape.org/) -->

<svg
   xmlns:dc="http://purl.org/dc/elements/1.1/"
   xmlns:cc="http://creativecommons.org/ns#"
   xmlns:rdf="http://www.w3.org/1999/02/22-rdf-syntax-ns#"
   xmlns:svg="http://www.w3.org/2000/svg"
   xmlns="http://www.w3.org/2000/svg"
   xmlns:xlink="http://www.w3.org/1999/xlink"
   xmlns:sodipodi="http://sodipodi.sourceforge.net/DTD/sodipodi-0.dtd"
   xmlns:inkscape="http://www.inkscape.org/namespaces/inkscape"
   version="1.0"
   width="22"
   height="22"
   id="svg2950"
   inkscape:version="0.47 r22583"
   sodipodi:docname="user-trash-full.svg">
  <sodipodi:namedview
     pagecolor="#ffffff"
     bordercolor="#666666"
     borderopacity="1"
     objecttolerance="10"
     gridtolerance="10"
     guidetolerance="10"
     inkscape:pageopacity="0"
     inkscape:pageshadow="2"
     inkscape:window-width="659"
     inkscape:window-height="489"
     id="namedview104"
     showgrid="false"
     inkscape:zoom="10.727273"
     inkscape:cx="11"
     inkscape:cy="11"
     inkscape:window-x="0"
     inkscape:window-y="24"
     inkscape:window-maximized="0"
     inkscape:current-layer="svg2950" />
  <metadata
     id="metadata106">
    <rdf:RDF>
      <cc:Work
         rdf:about="">
        <dc:format>image/svg+xml</dc:format>
        <dc:type
           rdf:resource="http://purl.org/dc/dcmitype/StillImage" />
      </cc:Work>
    </rdf:RDF>
  </metadata>
  <defs
     id="defs2952">
    <inkscape:perspective
       id="perspective108"
       inkscape:persp3d-origin="11 : 7.3333333 : 1"
       inkscape:vp_z="22 : 11 : 1"
       inkscape:vp_y="0 : 1000 : 0"
       inkscape:vp_x="0 : 11 : 1"
       sodipodi:type="inkscape:persp3d" />
    <linearGradient
       gradientTransform="matrix(0.4146342,0,0,0.5000001,1.0487805,-0.2500015)"
       gradientUnits="userSpaceOnUse"
       xlink:href="#linearGradient9472"
       id="linearGradient2529"
       y2="8.5"
       x2="45"
       y1="8.5"
       x1="3" />
    <linearGradient
       id="linearGradient9472">
      <stop
         offset="0"
         style="stop-color:#50524d;stop-opacity:1"
         id="stop9474" />
      <stop
         offset="0.78686917"
         style="stop-color:#787977;stop-opacity:1"
         id="stop9486" />
      <stop
         offset="1"
         style="stop-color:#989794;stop-opacity:1"
         id="stop9476" />
    </linearGradient>
    <linearGradient
       gradientTransform="matrix(0.4146342,0,0,0.5000001,1.0487805,-0.2500015)"
       gradientUnits="userSpaceOnUse"
       xlink:href="#linearGradient9472"
       id="linearGradient2527"
       y2="8.5"
       x2="45"
       y1="8.5"
       x1="3" />
    <linearGradient
       id="linearGradient161-689-862">
      <stop
         offset="0"
         style="stop-color:#83847e;stop-opacity:1"
         id="stop3698" />
      <stop
         offset="1"
         style="stop-color:#b3b4b0;stop-opacity:1"
         id="stop3700" />
    </linearGradient>
    <linearGradient
       gradientTransform="matrix(0.9905791,0,0,0.1186378,-0.02397413,1.485349)"
       gradientUnits="userSpaceOnUse"
       xlink:href="#linearGradient161-689-862"
       id="linearGradient2516"
       y2="21.169638"
       x2="19.737663"
       y1="38.746311"
       x1="5.3863635" />
    <linearGradient
       id="linearGradient157">
      <stop
         offset="0"
         style="stop-color:#cbcac5;stop-opacity:1"
         id="stop158" />
      <stop
         offset="1"
         style="stop-color:#f0f0f0;stop-opacity:1"
         id="stop159" />
    </linearGradient>
    <linearGradient
       gradientTransform="matrix(0.5003912,0,0,0.3999998,-2.966919,0.600002)"
       gradientUnits="userSpaceOnUse"
       xlink:href="#linearGradient157"
       id="linearGradient2506"
       y2="8.5"
       x2="43.699654"
       y1="8.5"
       x1="40.702" />
    <linearGradient
       id="linearGradient157-8">
      <stop
         offset="0"
         style="stop-color:#cbcac5;stop-opacity:1"
         id="stop158-5" />
      <stop
         offset="1"
         style="stop-color:#f0f0f0;stop-opacity:1"
         id="stop159-9" />
    </linearGradient>
    <linearGradient
       gradientTransform="matrix(0.4858186,0,0,0.5191859,-2.23011,0.5961951)"
       gradientUnits="userSpaceOnUse"
       xlink:href="#linearGradient157-8"
       id="linearGradient2939"
       y2="8.5"
       x2="43.699654"
       y1="8.5"
       x1="40.702" />
    <linearGradient
       gradientTransform="matrix(-1,0,0,1,-164.71303,28.239477)"
       gradientUnits="userSpaceOnUse"
       xlink:href="#linearGradient5176"
       id="linearGradient2903"
       y2="18.389904"
       x2="38.714096"
       y1="10.611729"
       x1="25.632622" />
    <linearGradient
       gradientTransform="matrix(-1,0,0,1,-164.71303,28.239477)"
       gradientUnits="userSpaceOnUse"
       xlink:href="#linearGradient5162"
       id="linearGradient2901"
       y2="28.554564"
       x2="32.600704"
       y1="20.246058"
       x1="24.365993" />
    <linearGradient
       gradientTransform="matrix(-1,0,0,1,-164.71303,28.239477)"
       gradientUnits="userSpaceOnUse"
       xlink:href="#linearGradient5162"
       id="linearGradient2899"
       y2="14.412428"
       x2="23.585091"
       y1="36.509514"
       x1="22.008699" />
    <radialGradient
       gradientTransform="matrix(-1.790269,0,0,1.769263,-148.89909,16.289507)"
       gradientUnits="userSpaceOnUse"
       xlink:href="#linearGradient5196"
       id="radialGradient2897"
       fy="10.853651"
       fx="20.089987"
       r="22.597088"
       cy="10.853651"
       cx="20.089987" />
    <radialGradient
       gradientTransform="matrix(-2.135667,0,0,2.110607,-137.81127,12.570337)"
       gradientUnits="userSpaceOnUse"
       xlink:href="#linearGradient5188"
       id="radialGradient2895"
       fy="14.210698"
       fx="23.688078"
       r="22.597088"
       cy="14.210698"
       cx="23.688078" />
    <linearGradient
       gradientTransform="matrix(-1,0,0,1,-164.71303,28.239477)"
       gradientUnits="userSpaceOnUse"
       xlink:href="#linearGradient5176"
       id="linearGradient2913"
       y2="18.389904"
       x2="38.714096"
       y1="10.611729"
       x1="25.632622" />
    <linearGradient
       gradientTransform="matrix(-1,0,0,1,-164.71303,28.239477)"
       gradientUnits="userSpaceOnUse"
       xlink:href="#linearGradient5162"
       id="linearGradient2911"
       y2="28.554564"
       x2="32.600704"
       y1="20.246058"
       x1="24.365993" />
    <linearGradient
       gradientTransform="matrix(-1,0,0,1,-164.71303,28.239477)"
       gradientUnits="userSpaceOnUse"
       xlink:href="#linearGradient5162"
       id="linearGradient2909"
       y2="14.412428"
       x2="23.585091"
       y1="36.509514"
       x1="22.008699" />
    <radialGradient
       gradientTransform="matrix(-1.790269,0,0,1.769263,-148.89909,16.289507)"
       gradientUnits="userSpaceOnUse"
       xlink:href="#linearGradient5196"
       id="radialGradient2907"
       fy="10.853651"
       fx="20.089987"
       r="22.597088"
       cy="10.853651"
       cx="20.089987" />
    <radialGradient
       gradientTransform="matrix(-2.135667,0,0,2.110607,-137.81127,12.570337)"
       gradientUnits="userSpaceOnUse"
       xlink:href="#linearGradient5188"
       id="radialGradient2905"
       fy="14.210698"
       fx="23.688078"
       r="22.597088"
       cy="14.210698"
       cx="23.688078" />
    <linearGradient
       id="linearGradient5176">
      <stop
         offset="0"
         style="stop-color:#000000;stop-opacity:1"
         id="stop5178" />
      <stop
         offset="1"
         style="stop-color:#000000;stop-opacity:0"
         id="stop5180" />
    </linearGradient>
    <linearGradient
       gradientTransform="matrix(-1,0,0,1,-164.71303,28.239477)"
       gradientUnits="userSpaceOnUse"
       xlink:href="#linearGradient5176"
       id="linearGradient2933"
       y2="18.389904"
       x2="38.714096"
       y1="10.611729"
       x1="25.632622" />
    <linearGradient
       gradientTransform="matrix(-1,0,0,1,-164.71303,28.239477)"
       gradientUnits="userSpaceOnUse"
       xlink:href="#linearGradient5162"
       id="linearGradient2931"
       y2="28.554564"
       x2="32.600704"
       y1="20.246058"
       x1="24.365993" />
    <linearGradient
       id="linearGradient5162">
      <stop
         offset="0"
         style="stop-color:#bcbdb6;stop-opacity:1"
         id="stop5164" />
      <stop
         offset="1"
         style="stop-color:#ffffff;stop-opacity:1"
         id="stop5166" />
    </linearGradient>
    <linearGradient
       gradientTransform="matrix(-1,0,0,1,-164.71303,28.239477)"
       gradientUnits="userSpaceOnUse"
       xlink:href="#linearGradient5162"
       id="linearGradient2929"
       y2="14.412428"
       x2="23.585091"
       y1="36.509514"
       x1="22.008699" />
    <linearGradient
       id="linearGradient5196">
      <stop
         offset="0"
         style="stop-color:#e0e2dc;stop-opacity:1"
         id="stop5198" />
      <stop
         offset="1"
         style="stop-color:#8c9179;stop-opacity:1"
         id="stop5200" />
    </linearGradient>
    <radialGradient
       gradientTransform="matrix(-1.790269,0,0,1.769263,-148.89909,16.289507)"
       gradientUnits="userSpaceOnUse"
       xlink:href="#linearGradient5196"
       id="radialGradient2927"
       fy="10.853651"
       fx="20.089987"
       r="22.597088"
       cy="10.853651"
       cx="20.089987" />
    <linearGradient
       id="linearGradient5188">
      <stop
         offset="0"
         style="stop-color:#ffffff;stop-opacity:1"
         id="stop5190" />
      <stop
         offset="1"
         style="stop-color:#aeaaa3;stop-opacity:1"
         id="stop5192" />
    </linearGradient>
    <radialGradient
       gradientTransform="matrix(-2.135667,0,0,2.110607,-137.81127,12.570337)"
       gradientUnits="userSpaceOnUse"
       xlink:href="#linearGradient5188"
       id="radialGradient2925"
       fy="14.210698"
       fx="23.688078"
       r="22.597088"
       cy="14.210698"
       cx="23.688078" />
    <linearGradient
       id="linearGradient3390-178-986-453">
      <stop
         offset="0"
         style="stop-color:#bb2b11;stop-opacity:1"
         id="stop3624" />
      <stop
         offset="1"
         style="stop-color:#cd5132;stop-opacity:1"
         id="stop3626" />
    </linearGradient>
    <linearGradient
       gradientTransform="matrix(0.4146342,0,0,0.4242424,1.0487805,0.6212126)"
       gradientUnits="userSpaceOnUse"
       xlink:href="#linearGradient3390-178-986-453"
       id="linearGradient2524"
       y2="10.995625"
       x2="16.258741"
       y1="45"
       x1="16.258741" />
    <linearGradient
       id="linearGradient7012-661-145-733-759-865-745-661-970-94">
      <stop
         offset="0"
         style="stop-color:#edab62;stop-opacity:1"
         id="stop3618" />
      <stop
         offset="1"
         style="stop-color:#e04922;stop-opacity:1"
         id="stop3620" />
    </linearGradient>
    <radialGradient
       gradientTransform="matrix(0,0.6747301,-0.8705968,0,18.268715,-8.1878479)"
       gradientUnits="userSpaceOnUse"
       xlink:href="#linearGradient7012-661-145-733-759-865-745-661-970-94"
       id="radialGradient2522"
       fy="13.30493"
       fx="19.972029"
       r="21"
       cy="13.30493"
       cx="19.972029" />
    <linearGradient
       id="linearGradient6265">
      <stop
         offset="0"
         style="stop-color:#ffffff;stop-opacity:1"
         id="stop6267" />
      <stop
         offset="1"
         style="stop-color:#ffffff;stop-opacity:0"
         id="stop6269" />
    </linearGradient>
    <linearGradient
       gradientTransform="matrix(0.3846154,0,0,0.3870968,1.7692308,0.8870961)"
       gradientUnits="userSpaceOnUse"
       xlink:href="#linearGradient6265"
       id="linearGradient2519"
       y2="46.625"
       x2="25"
       y1="13.25"
       x1="25" />
    <linearGradient
       id="linearGradient8265-821-176-38-919-66-249">
      <stop
         offset="0"
         style="stop-color:#ffffff;stop-opacity:0.27450982"
         id="stop2687" />
      <stop
         offset="1"
         style="stop-color:#ffffff;stop-opacity:0.07843138"
         id="stop2689" />
    </linearGradient>
    <linearGradient
       gradientTransform="matrix(0.3475432,0,0,0.3687412,2.6267147,0.1013076)"
       gradientUnits="userSpaceOnUse"
       xlink:href="#linearGradient8265-821-176-38-919-66-249"
       id="linearGradient2503"
       y2="33.95525"
       x2="15.214532"
       y1="22.292103"
       x1="11.566265" />
    <linearGradient
       gradientTransform="matrix(0.4146342,0,0,0.5000001,1.0487805,-0.2500015)"
       gradientUnits="userSpaceOnUse"
       xlink:href="#linearGradient9472-92"
       id="linearGradient2527-346"
       y2="8.5"
       x2="45"
       y1="8.5"
       x1="3" />
    <linearGradient
       id="linearGradient9472-92">
      <stop
         offset="0"
         style="stop-color:#51524d;stop-opacity:1"
         id="stop2982" />
      <stop
         offset="0.78686917"
         style="stop-color:#787977;stop-opacity:1"
         id="stop2984" />
      <stop
         offset="1"
         style="stop-color:#989594;stop-opacity:1"
         id="stop2986" />
    </linearGradient>
    <linearGradient
       gradientTransform="matrix(0.4146342,0,0,0.5000001,1.0487805,-0.2500015)"
       gradientUnits="userSpaceOnUse"
       xlink:href="#linearGradient9472-202"
       id="linearGradient2529-788"
       y2="8.5"
       x2="45"
       y1="8.5"
       x1="3" />
    <linearGradient
       id="linearGradient9472-202">
      <stop
         offset="0"
         style="stop-color:#51524d;stop-opacity:1"
         id="stop2990" />
      <stop
         offset="0.78686917"
         style="stop-color:#787977;stop-opacity:1"
         id="stop2992" />
      <stop
         offset="1"
         style="stop-color:#989594;stop-opacity:1"
         id="stop2994" />
    </linearGradient>
    <linearGradient
       gradientTransform="matrix(0.9905791,0,0,0.1186378,-0.02397413,1.485349)"
       gradientUnits="userSpaceOnUse"
       xlink:href="#linearGradient161-689-862-772"
       id="linearGradient2516-609"
       y2="21.169638"
       x2="19.737663"
       y1="38.746311"
       x1="5.3863635" />
    <linearGradient
       id="linearGradient161-689-862-772">
      <stop
         offset="0"
         style="stop-color:#83837e;stop-opacity:1"
         id="stop2998" />
      <stop
         offset="1"
         style="stop-color:#b4b3af;stop-opacity:1"
         id="stop3000" />
    </linearGradient>
    <linearGradient
       gradientTransform="matrix(0.5003912,0,0,0.3999998,-2.966919,0.600002)"
       gradientUnits="userSpaceOnUse"
       xlink:href="#linearGradient157-300"
       id="linearGradient2506-269"
       y2="8.5"
       x2="43.699654"
       y1="8.5"
       x1="40.702" />
    <linearGradient
       id="linearGradient157-300">
      <stop
         offset="0"
         style="stop-color:#cbc8c5;stop-opacity:1"
         id="stop3004" />
      <stop
         offset="1"
         style="stop-color:#f0f0f0;stop-opacity:1"
         id="stop3006" />
    </linearGradient>
    <linearGradient
       gradientTransform="matrix(0.4858186,0,0,0.5191859,-2.23011,0.5961951)"
       gradientUnits="userSpaceOnUse"
       xlink:href="#linearGradient157-8-254"
       id="linearGradient2939-93"
       y2="8.5"
       x2="43.699654"
       y1="8.5"
       x1="40.702" />
    <linearGradient
       id="linearGradient157-8-254">
      <stop
         offset="0"
         style="stop-color:#cbc8c5;stop-opacity:1"
         id="stop3010" />
      <stop
         offset="1"
         style="stop-color:#f0f0f0;stop-opacity:1"
         id="stop3012" />
    </linearGradient>
    <radialGradient
       gradientTransform="matrix(-2.135667,0,0,2.110607,-137.81127,12.570337)"
       gradientUnits="userSpaceOnUse"
       xlink:href="#linearGradient5188-888"
       id="radialGradient2895-33"
       fy="14.210698"
       fx="23.688078"
       r="22.597088"
       cy="14.210698"
       cx="23.688078" />
    <linearGradient
       id="linearGradient5188-888">
      <stop
         offset="0"
         style="stop-color:#ffffff;stop-opacity:1"
         id="stop3016" />
      <stop
         offset="1"
         style="stop-color:#aea6a3;stop-opacity:1"
         id="stop3018" />
    </linearGradient>
    <radialGradient
       gradientTransform="matrix(-1.790269,0,0,1.769263,-148.89909,16.289507)"
       gradientUnits="userSpaceOnUse"
       xlink:href="#linearGradient5196-578"
       id="radialGradient2897-957"
       fy="10.853651"
       fx="20.089987"
       r="22.597088"
       cy="10.853651"
       cx="20.089987" />
    <linearGradient
       id="linearGradient5196-578">
      <stop
         offset="0"
         style="stop-color:#e1e2dc;stop-opacity:1"
         id="stop3022" />
      <stop
         offset="1"
         style="stop-color:#918e78;stop-opacity:1"
         id="stop3024" />
    </linearGradient>
    <linearGradient
       gradientTransform="matrix(-1,0,0,1,-164.71303,28.239477)"
       gradientUnits="userSpaceOnUse"
       xlink:href="#linearGradient5162-423"
       id="linearGradient2899-867"
       y2="14.412428"
       x2="23.585091"
       y1="36.509514"
       x1="22.008699" />
    <linearGradient
       id="linearGradient5162-423">
      <stop
         offset="0"
         style="stop-color:#bdbbb6;stop-opacity:1"
         id="stop3028" />
      <stop
         offset="1"
         style="stop-color:#ffffff;stop-opacity:1"
         id="stop3030" />
    </linearGradient>
    <linearGradient
       gradientTransform="matrix(-1,0,0,1,-164.71303,28.239477)"
       gradientUnits="userSpaceOnUse"
       xlink:href="#linearGradient5162-842"
       id="linearGradient2901-519"
       y2="28.554564"
       x2="32.600704"
       y1="20.246058"
       x1="24.365993" />
    <linearGradient
       id="linearGradient5162-842">
      <stop
         offset="0"
         style="stop-color:#bdbbb6;stop-opacity:1"
         id="stop3034" />
      <stop
         offset="1"
         style="stop-color:#ffffff;stop-opacity:1"
         id="stop3036" />
    </linearGradient>
    <linearGradient
       gradientTransform="matrix(-1,0,0,1,-164.71303,28.239477)"
       gradientUnits="userSpaceOnUse"
       xlink:href="#linearGradient5176-775"
       id="linearGradient2903-517"
       y2="18.389904"
       x2="38.714096"
       y1="10.611729"
       x1="25.632622" />
    <linearGradient
       id="linearGradient5176-775">
      <stop
         offset="0"
         style="stop-color:#000000;stop-opacity:1"
         id="stop3040" />
      <stop
         offset="1"
         style="stop-color:#000000;stop-opacity:0"
         id="stop3042" />
    </linearGradient>
    <radialGradient
       gradientTransform="matrix(-2.135667,0,0,2.110607,-137.81127,12.570337)"
       gradientUnits="userSpaceOnUse"
       xlink:href="#linearGradient5188-919"
       id="radialGradient2905-531"
       fy="14.210698"
       fx="23.688078"
       r="22.597088"
       cy="14.210698"
       cx="23.688078" />
    <linearGradient
       id="linearGradient5188-919">
      <stop
         offset="0"
         style="stop-color:#ffffff;stop-opacity:1"
         id="stop3046" />
      <stop
         offset="1"
         style="stop-color:#aea6a3;stop-opacity:1"
         id="stop3048" />
    </linearGradient>
    <radialGradient
       gradientTransform="matrix(-1.790269,0,0,1.769263,-148.89909,16.289507)"
       gradientUnits="userSpaceOnUse"
       xlink:href="#linearGradient5196-898"
       id="radialGradient2907-179"
       fy="10.853651"
       fx="20.089987"
       r="22.597088"
       cy="10.853651"
       cx="20.089987" />
    <linearGradient
       id="linearGradient5196-898">
      <stop
         offset="0"
         style="stop-color:#e1e2dc;stop-opacity:1"
         id="stop3052" />
      <stop
         offset="1"
         style="stop-color:#918e78;stop-opacity:1"
         id="stop3054" />
    </linearGradient>
    <linearGradient
       gradientTransform="matrix(-1,0,0,1,-164.71303,28.239477)"
       gradientUnits="userSpaceOnUse"
       xlink:href="#linearGradient5162-528"
       id="linearGradient2909-32"
       y2="14.412428"
       x2="23.585091"
       y1="36.509514"
       x1="22.008699" />
    <linearGradient
       id="linearGradient5162-528">
      <stop
         offset="0"
         style="stop-color:#bdbbb6;stop-opacity:1"
         id="stop3058" />
      <stop
         offset="1"
         style="stop-color:#ffffff;stop-opacity:1"
         id="stop3060" />
    </linearGradient>
    <linearGradient
       gradientTransform="matrix(-1,0,0,1,-164.71303,28.239477)"
       gradientUnits="userSpaceOnUse"
       xlink:href="#linearGradient5162-725"
       id="linearGradient2911-604"
       y2="28.554564"
       x2="32.600704"
       y1="20.246058"
       x1="24.365993" />
    <linearGradient
       id="linearGradient5162-725">
      <stop
         offset="0"
         style="stop-color:#bdbbb6;stop-opacity:1"
         id="stop3064" />
      <stop
         offset="1"
         style="stop-color:#ffffff;stop-opacity:1"
         id="stop3066" />
    </linearGradient>
    <linearGradient
       gradientTransform="matrix(-1,0,0,1,-164.71303,28.239477)"
       gradientUnits="userSpaceOnUse"
       xlink:href="#linearGradient5176-844"
       id="linearGradient2913-664"
       y2="18.389904"
       x2="38.714096"
       y1="10.611729"
       x1="25.632622" />
    <linearGradient
       id="linearGradient5176-844">
      <stop
         offset="0"
         style="stop-color:#000000;stop-opacity:1"
         id="stop3070" />
      <stop
         offset="1"
         style="stop-color:#000000;stop-opacity:0"
         id="stop3072" />
    </linearGradient>
    <radialGradient
       gradientTransform="matrix(-2.135667,0,0,2.110607,-137.81127,12.570337)"
       gradientUnits="userSpaceOnUse"
       xlink:href="#linearGradient5188-650"
       id="radialGradient2925-761"
       fy="14.210698"
       fx="23.688078"
       r="22.597088"
       cy="14.210698"
       cx="23.688078" />
    <linearGradient
       id="linearGradient5188-650">
      <stop
         offset="0"
         style="stop-color:#ffffff;stop-opacity:1"
         id="stop3076" />
      <stop
         offset="1"
         style="stop-color:#aea6a3;stop-opacity:1"
         id="stop3078" />
    </linearGradient>
    <radialGradient
       gradientTransform="matrix(-1.790269,0,0,1.769263,-148.89909,16.289507)"
       gradientUnits="userSpaceOnUse"
       xlink:href="#linearGradient5196-627"
       id="radialGradient2927-442"
       fy="10.853651"
       fx="20.089987"
       r="22.597088"
       cy="10.853651"
       cx="20.089987" />
    <linearGradient
       id="linearGradient5196-627">
      <stop
         offset="0"
         style="stop-color:#e1e2dc;stop-opacity:1"
         id="stop3082" />
      <stop
         offset="1"
         style="stop-color:#918e78;stop-opacity:1"
         id="stop3084" />
    </linearGradient>
    <linearGradient
       gradientTransform="matrix(-1,0,0,1,-164.71303,28.239477)"
       gradientUnits="userSpaceOnUse"
       xlink:href="#linearGradient5162-772"
       id="linearGradient2929-213"
       y2="14.412428"
       x2="23.585091"
       y1="36.509514"
       x1="22.008699" />
    <linearGradient
       id="linearGradient5162-772">
      <stop
         offset="0"
         style="stop-color:#bdbbb6;stop-opacity:1"
         id="stop3088" />
      <stop
         offset="1"
         style="stop-color:#ffffff;stop-opacity:1"
         id="stop3090" />
    </linearGradient>
    <linearGradient
       gradientTransform="matrix(-1,0,0,1,-164.71303,28.239477)"
       gradientUnits="userSpaceOnUse"
       xlink:href="#linearGradient5162-24"
       id="linearGradient2931-409"
       y2="28.554564"
       x2="32.600704"
       y1="20.246058"
       x1="24.365993" />
    <linearGradient
       id="linearGradient5162-24">
      <stop
         offset="0"
         style="stop-color:#bdbbb6;stop-opacity:1"
         id="stop3094" />
      <stop
         offset="1"
         style="stop-color:#ffffff;stop-opacity:1"
         id="stop3096" />
    </linearGradient>
    <linearGradient
       gradientTransform="matrix(-1,0,0,1,-164.71303,28.239477)"
       gradientUnits="userSpaceOnUse"
       xlink:href="#linearGradient5176-976"
       id="linearGradient2933-113"
       y2="18.389904"
       x2="38.714096"
       y1="10.611729"
       x1="25.632622" />
    <linearGradient
       id="linearGradient5176-976">
      <stop
         offset="0"
         style="stop-color:#000000;stop-opacity:1"
         id="stop3100" />
      <stop
         offset="1"
         style="stop-color:#000000;stop-opacity:0"
         id="stop3102" />
    </linearGradient>
    <radialGradient
       gradientTransform="matrix(0,0.6747301,-0.8705968,0,18.268715,-8.1878479)"
       gradientUnits="userSpaceOnUse"
       xlink:href="#linearGradient7012-661-145-733-759-865-745-661-970-94-990"
       id="radialGradient2522-132"
       fy="13.30493"
       fx="19.972029"
       r="21"
       cy="13.30493"
       cx="19.972029" />
    <linearGradient
       id="linearGradient7012-661-145-733-759-865-745-661-970-94-990">
      <stop
         offset="0"
         style="stop-color:#ed8161;stop-opacity:1"
         id="stop3106" />
      <stop
         offset="1"
         style="stop-color:#e02133;stop-opacity:1"
         id="stop3108" />
    </linearGradient>
    <linearGradient
       gradientTransform="matrix(0.4146342,0,0,0.4242424,1.0487805,0.6212126)"
       gradientUnits="userSpaceOnUse"
       xlink:href="#linearGradient3390-178-986-453-895"
       id="linearGradient2524-430"
       y2="10.995625"
       x2="16.258741"
       y1="45"
       x1="16.258741" />
    <linearGradient
       id="linearGradient3390-178-986-453-895">
      <stop
         offset="0"
         style="stop-color:#bb102a;stop-opacity:1"
         id="stop3112" />
      <stop
         offset="1"
         style="stop-color:#cd3141;stop-opacity:1"
         id="stop3114" />
    </linearGradient>
    <linearGradient
       gradientTransform="matrix(0.3846154,0,0,0.3870968,1.7692308,0.8870961)"
       gradientUnits="userSpaceOnUse"
       xlink:href="#linearGradient6265-156"
       id="linearGradient2519-834"
       y2="46.625"
       x2="25"
       y1="13.25"
       x1="25" />
    <linearGradient
       id="linearGradient6265-156">
      <stop
         offset="0"
         style="stop-color:#ffffff;stop-opacity:1"
         id="stop3118" />
      <stop
         offset="1"
         style="stop-color:#ffffff;stop-opacity:0"
         id="stop3120" />
    </linearGradient>
    <linearGradient
       gradientTransform="matrix(0.3475432,0,0,0.3687412,2.6267147,0.1013076)"
       gradientUnits="userSpaceOnUse"
       xlink:href="#linearGradient8265-821-176-38-919-66-249-102"
       id="linearGradient2503-98"
       y2="33.95525"
       x2="15.214532"
       y1="22.292103"
       x1="11.566265" />
    <linearGradient
       id="linearGradient8265-821-176-38-919-66-249-102">
      <stop
         offset="0"
         style="stop-color:#ffffff;stop-opacity:0.27450982"
         id="stop3124" />
      <stop
         offset="1"
         style="stop-color:#ffffff;stop-opacity:0.07843138"
         id="stop3126" />
    </linearGradient>
  </defs>
  <g
     id="layer1">
    <path
       style="fill:url(#linearGradient2527-346);fill-opacity:1;fill-rule:evenodd;stroke:url(#linearGradient2529-788);stroke-width:0.99999982px;stroke-linecap:square;stroke-linejoin:round;stroke-opacity:1;display:inline;enable-background:new"
       id="path8410"
       d="m 3.7439028,2.4999999 -1.2439028,3 17.000001,0 -1.243902,-3 -14.5121962,0 0,0 z" />
    <path
       style="fill:url(#linearGradient2516-609);fill-opacity:1;fill-rule:evenodd;stroke:none;stroke-width:0;marker:none;visibility:visible;display:block;enable-background:new"
       id="path1864"
       d="M 4.3621008,3.0062787 C 3.951293,3.0033207 4.0489535,3.0085973 3.9564791,3.1717877 3.9351323,3.2094511 3.0337127,4.9424481 3,5 L 19,5 C 18.97076,4.9435093 18.075313,3.1555665 18.043161,3.1273665 17.992281,3.0320483 17.937418,3.0005177 17.86359,3.0000115 17.81483,2.9996791 4.4103258,3.0066449 4.3621008,3.0063249 l 0,-4.62e-5 z" />
    <path
       style="fill:#727272;fill-opacity:1;fill-rule:evenodd;stroke:none;stroke-width:0;marker:none;visibility:visible;display:block;enable-background:new"
       id="path1880"
       d="M 4.0856314,3.2051275 C 3.9363363,3.2111735 3.944779,3.2343849 3.8822901,3.3376946 3.8616872,3.3717526 3.0325372,4.9479636 3,5 l 1.2000001,0 -0.1143687,-1.7948725 0,0 z" />
    <path
       style="fill:url(#linearGradient2506-269);fill-opacity:1;fill-rule:evenodd;stroke:none;stroke-width:0;marker:none;visibility:visible;display:block;enable-background:new"
       id="path9454"
       d="m 17.542961,3.0000001 c 0.18662,0.00674 0.176066,0.032601 0.254176,0.1477176 C 17.822888,3.1856677 18.859327,4.9420166 18.9,5 l -1.5,0 0.142961,-1.9999999 0,0 z" />
    <path
       style="fill:url(#linearGradient2939-93);fill-opacity:1;fill-rule:evenodd;stroke:none;stroke-width:0;marker:none;visibility:visible;display:block"
       id="path2658"
       d="m 17.682481,3.7113098 c 0.181184,0.00867 0.170938,0.042314 0.246775,0.1917302 0.025,0.049262 1.031256,2.3289395 1.070744,2.4042002 l -1.456317,0 0.138798,-2.5959304 0,0 z" />
    <g
       id="g2586"
       transform="matrix(0,0.1937786,0.1813248,0,1.6318302,42.275027)">
      <path
         style="fill:url(#radialGradient2895-33);fill-opacity:1;fill-rule:evenodd;stroke:url(#radialGradient2897-957);stroke-width:2.66740155;stroke-linecap:butt;stroke-linejoin:miter;stroke-miterlimit:4;stroke-opacity:1;stroke-dasharray:none;stroke-dashoffset:0;marker:none;visibility:visible;display:inline;overflow:visible"
         id="path2588"
         d="m -173.72864,65.809652 1.76777,2.828427 -3.71232,1.59099 -2.65165,-2.12132 -11.84403,0.883883 -3.71231,4.949748 -3.35876,-5.480078 -4.24264,2.298097 -5.65685,-0.707106 1.41421,-3.005204 -3.88909,-3.889088 5.48008,-6.187184 -5.3033,0.707107 -2.2981,-2.12132 3.00521,0.53033 3.18198,-5.480078 4.59619,-1.06066 -3.71231,-1.237437 -0.17678,-3.18198 7.24785,-6.363961 2.65165,-8.485282 12.02081,3.535534 3.0052,7.071068 1.06066,-2.298097 3.00521,0.176777 0,2.828427 3.53553,-4.065864 4.77297,5.126524 0,7.247844 -8.3085,7.247845 5.3033,3.005204 -0.17678,3.005203 -3.0052,2.651651 z" />
      <path
         style="opacity:0.76966289;fill:url(#linearGradient2899-867);fill-opacity:1;fill-rule:evenodd;stroke:none;stroke-width:1;marker:none;visibility:visible;display:inline;overflow:visible"
         id="path2590"
         d="m -184.15847,50.96041 0.88389,6.540737 -2.12132,3.358757 4.59619,1.414214 2.65165,5.303301 -12.02081,0.883883 -2.82843,4.065864 -2.2981,-6.187184 4.41942,-2.828427 6.71751,1.944544 -2.65165,-3.535534 1.41422,-6.187185 1.23743,-4.77297 0,0 z" />
      <path
         style="opacity:0.61797755;fill:url(#linearGradient2901-519);fill-opacity:1;fill-rule:evenodd;stroke:none;stroke-width:1;marker:none;visibility:visible;display:inline;overflow:visible"
         id="path2592"
         d="m -185.21913,52.02107 -4.41941,6.894291 -7.24785,-4.949748 -4.41941,2.474874 -3.53554,-3.005204 -3.18198,2.828427 3.00521,-4.949747 6.89429,-1.59099 8.66205,-4.242641 c 0,0 12.37437,3.712311 11.66726,3.712311 -0.7071,0 -10.25304,0.176776 -10.25304,0.176776 l -1.59099,-2.298097 -4.24264,1.944544 8.66205,3.005204 z" />
      <path
         style="fill:#ffffff;fill-opacity:1;fill-rule:evenodd;stroke:none;stroke-width:1;marker:none;visibility:visible;display:inline;overflow:visible"
         id="path2594"
         d="m -194.23474,31.69175 10.42983,3.535534 1.41421,3.889087 -6.01041,4.242641 -5.65685,-5.480078 -0.17678,-6.187184 z" />
      <path
         style="opacity:0.13483145;fill:url(#linearGradient2903-517);fill-opacity:1;fill-rule:evenodd;stroke:none;stroke-width:1;marker:none;visibility:visible;display:inline;overflow:visible"
         id="path2596"
         d="m -194.41151,32.045303 -2.2981,7.424621 -4.24264,3.712311 8.66206,-1.944544 c 0,0 2.47487,2.828427 1.41421,2.828427 -1.06066,0 -12.55114,1.414214 -12.55114,1.414214 l 0.17677,2.298097 16.26346,-3.005204 -7.07107,-6.540738 -0.35355,-6.187184 z" />
      <path
         style="fill:#ffffff;fill-opacity:1;fill-rule:evenodd;stroke:none;stroke-width:1;marker:none;visibility:visible;display:inline;overflow:visible"
         id="path2598"
         d="m -172.13765,42.475128 0.88388,8.838835 -1.94454,-6.010408 -5.12653,1.590991 -1.23743,-2.651651 -6.18719,0.883884 -1.41421,-1.237437 9.01561,-0.353554 0.88388,2.474874 3.88909,-1.944544 1.23744,-1.59099 0,0 z" />
      <path
         style="fill:#ffffff;fill-opacity:1;fill-rule:evenodd;stroke:none;stroke-width:1;marker:none;visibility:visible;display:inline;overflow:visible"
         id="path2600"
         d="m -187.16367,55.556604 -3.0052,3.535534 -6.89429,-4.596195 -4.24264,2.298097 -6.89429,6.540738 7.60139,-5.833631 3.71231,-1.06066 7.24785,4.949748 2.47487,-5.833631 z" />
    </g>
    <g
       id="g2552"
       transform="matrix(0.1813248,0,0,0.1937786,48.915556,-3.5835914)">
      <path
         style="fill:url(#radialGradient2905-531);fill-opacity:1;fill-rule:evenodd;stroke:url(#radialGradient2907-179);stroke-width:2.66740155;stroke-linecap:butt;stroke-linejoin:miter;stroke-miterlimit:4;stroke-opacity:1;stroke-dasharray:none;stroke-dashoffset:0;marker:none;visibility:visible;display:inline;overflow:visible"
         id="path2554"
         d="m -173.72864,65.809652 1.76777,2.828427 -3.71232,1.59099 -2.65165,-2.12132 -11.84403,0.883883 -3.71231,4.949748 -3.35876,-5.480078 -4.24264,2.298097 -5.65685,-0.707106 1.41421,-3.005204 -3.88909,-3.889088 5.48008,-6.187184 -5.3033,0.707107 -2.2981,-2.12132 3.00521,0.53033 3.18198,-5.480078 4.59619,-1.06066 -3.71231,-1.237437 -0.17678,-3.18198 7.24785,-6.363961 2.65165,-8.485282 12.02081,3.535534 3.0052,7.071068 1.06066,-2.298097 3.00521,0.176777 0,2.828427 3.53553,-4.065864 4.77297,5.126524 0,7.247844 -8.3085,7.247845 5.3033,3.005204 -0.17678,3.005203 -3.0052,2.651651 z" />
      <path
         style="opacity:0.76966289;fill:url(#linearGradient2909-32);fill-opacity:1;fill-rule:evenodd;stroke:none;stroke-width:1;marker:none;visibility:visible;display:inline;overflow:visible"
         id="path2556"
         d="m -184.15847,50.96041 0.88389,6.540737 -2.12132,3.358757 4.59619,1.414214 2.65165,5.303301 -12.02081,0.883883 -2.82843,4.065864 -2.2981,-6.187184 4.41942,-2.828427 6.71751,1.944544 -2.65165,-3.535534 1.41422,-6.187185 1.23743,-4.77297 0,0 z" />
      <path
         style="opacity:0.61797755;fill:url(#linearGradient2911-604);fill-opacity:1;fill-rule:evenodd;stroke:none;stroke-width:1;marker:none;visibility:visible;display:inline;overflow:visible"
         id="path2558"
         d="m -185.21913,52.02107 -4.41941,6.894291 -7.24785,-4.949748 -4.41941,2.474874 -3.53554,-3.005204 -3.18198,2.828427 3.00521,-4.949747 6.89429,-1.59099 8.66205,-4.242641 c 0,0 12.37437,3.712311 11.66726,3.712311 -0.7071,0 -10.25304,0.176776 -10.25304,0.176776 l -1.59099,-2.298097 -4.24264,1.944544 8.66205,3.005204 z" />
      <path
         style="fill:#ffffff;fill-opacity:1;fill-rule:evenodd;stroke:none;stroke-width:1;marker:none;visibility:visible;display:inline;overflow:visible"
         id="path2560"
         d="m -194.23474,31.69175 10.42983,3.535534 1.41421,3.889087 -6.01041,4.242641 -5.65685,-5.480078 -0.17678,-6.187184 z" />
      <path
         style="opacity:0.13483145;fill:url(#linearGradient2913-664);fill-opacity:1;fill-rule:evenodd;stroke:none;stroke-width:1;marker:none;visibility:visible;display:inline;overflow:visible"
         id="path2562"
         d="m -194.41151,32.045303 -2.2981,7.424621 -4.24264,3.712311 8.66206,-1.944544 c 0,0 2.47487,2.828427 1.41421,2.828427 -1.06066,0 -12.55114,1.414214 -12.55114,1.414214 l 0.17677,2.298097 16.26346,-3.005204 -7.07107,-6.540738 -0.35355,-6.187184 z" />
      <path
         style="fill:#ffffff;fill-opacity:1;fill-rule:evenodd;stroke:none;stroke-width:1;marker:none;visibility:visible;display:inline;overflow:visible"
         id="path2564"
         d="m -172.13765,42.475128 0.88388,8.838835 -1.94454,-6.010408 -5.12653,1.590991 -1.23743,-2.651651 -6.18719,0.883884 -1.41421,-1.237437 9.01561,-0.353554 0.88388,2.474874 3.88909,-1.944544 1.23744,-1.59099 0,0 z" />
      <path
         style="fill:#ffffff;fill-opacity:1;fill-rule:evenodd;stroke:none;stroke-width:1;marker:none;visibility:visible;display:inline;overflow:visible"
         id="path2566"
         d="m -187.16367,55.556604 -3.0052,3.535534 -6.89429,-4.596195 -4.24264,2.298097 -6.89429,6.540738 7.60139,-5.833631 3.71231,-1.06066 7.24785,4.949748 2.47487,-5.833631 z" />
    </g>
    <g
       id="g2507"
       transform="matrix(-0.1813248,0,0,0.1937786,-27.144075,-4.6219636)">
      <path
         style="fill:url(#radialGradient2925-761);fill-opacity:1;fill-rule:evenodd;stroke:url(#radialGradient2927-442);stroke-width:2.66740155;stroke-linecap:butt;stroke-linejoin:miter;stroke-miterlimit:4;stroke-opacity:1;stroke-dasharray:none;stroke-dashoffset:0;marker:none;visibility:visible;display:inline;overflow:visible"
         id="path2425"
         d="m -173.72864,65.809652 1.76777,2.828427 -3.71232,1.59099 -2.65165,-2.12132 -11.84403,0.883883 -3.71231,4.949748 -3.35876,-5.480078 -4.24264,2.298097 -5.65685,-0.707106 1.41421,-3.005204 -3.88909,-3.889088 5.48008,-6.187184 -5.3033,0.707107 -2.2981,-2.12132 3.00521,0.53033 3.18198,-5.480078 4.59619,-1.06066 -3.71231,-1.237437 -0.17678,-3.18198 7.24785,-6.363961 2.65165,-8.485282 12.02081,3.535534 3.0052,7.071068 1.06066,-2.298097 3.00521,0.176777 0,2.828427 3.53553,-4.065864 4.77297,5.126524 0,7.247844 -8.3085,7.247845 5.3033,3.005204 -0.17678,3.005203 -3.0052,2.651651 z" />
      <path
         style="opacity:0.76966289;fill:url(#linearGradient2929-213);fill-opacity:1;fill-rule:evenodd;stroke:none;stroke-width:1;marker:none;visibility:visible;display:inline;overflow:visible"
         id="path2427"
         d="m -184.15847,50.96041 0.88389,6.540737 -2.12132,3.358757 4.59619,1.414214 2.65165,5.303301 -12.02081,0.883883 -2.82843,4.065864 -2.2981,-6.187184 4.41942,-2.828427 6.71751,1.944544 -2.65165,-3.535534 1.41422,-6.187185 1.23743,-4.77297 0,0 z" />
      <path
         style="opacity:0.61797755;fill:url(#linearGradient2931-409);fill-opacity:1;fill-rule:evenodd;stroke:none;stroke-width:1;marker:none;visibility:visible;display:inline;overflow:visible"
         id="path2429"
         d="m -185.21913,52.02107 -4.41941,6.894291 -7.24785,-4.949748 -4.41941,2.474874 -3.53554,-3.005204 -3.18198,2.828427 3.00521,-4.949747 6.89429,-1.59099 8.66205,-4.242641 c 0,0 12.37437,3.712311 11.66726,3.712311 -0.7071,0 -10.25304,0.176776 -10.25304,0.176776 l -1.59099,-2.298097 -4.24264,1.944544 8.66205,3.005204 z" />
      <path
         style="fill:#ffffff;fill-opacity:1;fill-rule:evenodd;stroke:none;stroke-width:1;marker:none;visibility:visible;display:inline;overflow:visible"
         id="path2431"
         d="m -194.23474,31.69175 10.42983,3.535534 1.41421,3.889087 -6.01041,4.242641 -5.65685,-5.480078 -0.17678,-6.187184 z" />
      <path
         style="opacity:0.13483145;fill:url(#linearGradient2933-113);fill-opacity:1;fill-rule:evenodd;stroke:none;stroke-width:1;marker:none;visibility:visible;display:inline;overflow:visible"
         id="path2433"
         d="m -194.41151,32.045303 -2.2981,7.424621 -4.24264,3.712311 8.66206,-1.944544 c 0,0 2.47487,2.828427 1.41421,2.828427 -1.06066,0 -12.55114,1.414214 -12.55114,1.414214 l 0.17677,2.298097 16.26346,-3.005204 -7.07107,-6.540738 -0.35355,-6.187184 z" />
      <path
         style="fill:#ffffff;fill-opacity:1;fill-rule:evenodd;stroke:none;stroke-width:1;marker:none;visibility:visible;display:inline;overflow:visible"
         id="path2435"
         d="m -172.13765,42.475128 0.88388,8.838835 -1.94454,-6.010408 -5.12653,1.590991 -1.23743,-2.651651 -6.18719,0.883884 -1.41421,-1.237437 9.01561,-0.353554 0.88388,2.474874 3.88909,-1.944544 1.23744,-1.59099 0,0 z" />
      <path
         style="fill:#ffffff;fill-opacity:1;fill-rule:evenodd;stroke:none;stroke-width:1;marker:none;visibility:visible;display:inline;overflow:visible"
         id="path2437"
         d="m -187.16367,55.556604 -3.0052,3.535534 -6.89429,-4.596195 -4.24264,2.298097 -6.89429,6.540738 7.60139,-5.833631 3.71231,-1.06066 7.24785,4.949748 2.47487,-5.833631 z" />
    </g>
    <path
       style="fill:url(#radialGradient2522-132);fill-opacity:1;stroke:url(#linearGradient2524-430);stroke-width:0.99999994;stroke-linejoin:round;stroke-miterlimit:4;stroke-opacity:1;display:inline;enable-background:new"
       id="rect3228"
       d="m 2.5,5.5 17.000001,0 -0.829269,13.151516 C 18.645571,19.050667 18.232385,19.5 17.841464,19.5 l -13.6829273,0 C 3.767616,19.5 3.3544368,19.050667 3.3292685,18.651516 L 2.5,5.5 z" />
    <path
       style="opacity:0.4;fill:none;stroke:url(#linearGradient2519-834);stroke-width:0.99999994;stroke-linejoin:miter;stroke-miterlimit:4;stroke-opacity:1;display:inline;enable-background:new"
       id="path8398"
       d="M 3.5000001,6.5 18.500001,6.5 17.73077,17.919354 C 17.706238,18.283477 17.516466,18.5 17.153847,18.5 l -12.3076929,0 C 4.4835352,18.5 4.2937591,18.283477 4.269231,17.919354 L 3.5000001,6.5 z" />
    <path
       style="opacity:0.8;fill:#ffffff;fill-opacity:1;fill-rule:evenodd;stroke:none;display:inline;enable-background:new"
       id="path41"
       d="m 10.939649,11.060792 2.802136,0.2194 1.083561,-2.7071547 -1.28208,0.9247029 c 0,0 -0.549734,-1.3158051 -0.944855,-1.4215827 -0.395122,-0.1057779 -2.080903,-0.070515 -2.080903,-0.070515 0.536197,0.1360851 0.952917,1.0815768 0.959325,1.0923025 0.167279,0.2801056 0.635535,1.222634 0.635535,1.222634 l -1.172719,0.740218 0,-5e-6 z" />
    <path
       style="opacity:0.6;fill:#ffffff;fill-opacity:1;fill-rule:evenodd;stroke:none;stroke-width:1px;marker:none;visibility:visible;display:inline;overflow:visible;enable-background:new"
       id="path130"
       d="M 11.286317,9.1881332 10.358759,11.003983 8.4518699,9.7699096 c 0,0 0.8647007,-1.6748148 1.5461265,-1.6748148 0.6871916,0 0.9942776,0.607867 1.2883206,1.0930384 l 0,0 z" />
    <path
       style="opacity:0.8;fill:#ffffff;fill-opacity:1;fill-rule:evenodd;stroke:none;display:inline;enable-background:new"
       id="path139"
       d="M 12.651658,13.499498 10.845039,15.715276 12.569076,18 l 0.03189,-1.439036 c 0,0 1.269901,0.122985 1.561362,-0.170515 0.29146,-0.293499 1.503984,-1.773325 1.503984,-1.773325 -0.389289,0.402125 -1.393815,0.283151 -1.406072,0.283281 -0.320115,0.0034 -1.587088,-0.02699 -1.587088,-0.02699 l -0.02149,-1.373902 -2e-6,-1.2e-5 z" />
    <path
       style="opacity:0.6;fill:#ffffff;fill-opacity:1;fill-rule:evenodd;stroke:none;stroke-width:1px;marker:none;visibility:visible;display:inline;overflow:visible;enable-background:new"
       id="path140"
       d="m 14.347139,14.647483 -1.041349,-1.749674 2.011494,-1.044641 c 0,0 0.955749,1.621864 0.605595,2.221773 -0.353115,0.604986 -1.019067,0.562981 -1.57574,0.572542 l 0,0 z" />
    <path
       style="opacity:0.8;fill:#ffffff;fill-opacity:1;fill-rule:evenodd;stroke:none;display:inline;enable-background:new"
       id="path142"
       d="M 9.4924869,13.370832 8.60063,10.960434 6,11.149041 l 1.0675878,0.79809 c 0,0 -0.7372788,1.068176 -0.6347707,1.473808 0.1025086,0.405633 0.680827,2.086163 0.680827,2.086163 -0.1454565,-0.546824 0.4560691,-1.380961 0.4620748,-1.39193 0.1568515,-0.286389 0.8144225,-1.398167 0.8144225,-1.398167 l 1.1023455,0.653827 0,0 z" />
    <path
       style="opacity:0.6;fill:#ffffff;fill-opacity:1;fill-rule:evenodd;stroke:none;stroke-width:1px;marker:none;visibility:visible;display:inline;overflow:visible;enable-background:new"
       id="path143"
       d="m 7.7084571,14.344391 1.9971524,-0.05351 -0.12102,2.310179 c 0,0 -1.8465086,0.04113 -2.1785297,-0.569539 -0.3348296,-0.615837 0.03281,-1.187217 0.3023972,-1.687123 l 1e-7,-4e-6 z" />
    <path
       style="fill:url(#linearGradient2503-98);fill-opacity:1;stroke:none;display:inline;enable-background:new"
       id="path3455"
       d="m 18.526818,6.0011687 c -5.056612,0.027044 -10.0830197,-0.0078 -15.1403531,0 C 2.7585377,6.1527643 3.0964725,6.910709 3.0485048,7.3918853 3.1256695,8.9270832 3.2891103,10.469009 3.3924681,12 8.605795,11.128739 13.600746,10.33206 18.722811,9.4314446 18.994239,8.4776669 19.028541,7.3095203 18.983353,6.2922991 18.903719,6.1062462 18.709834,5.9969939 18.526818,6.0011687 z" />
  </g>
</svg>
