<?xml version="1.0" encoding="UTF-8" standalone="no"?>
<!-- Created with Inkscape (http://www.inkscape.org/) -->

<svg
   xmlns:dc="http://purl.org/dc/elements/1.1/"
   xmlns:cc="http://creativecommons.org/ns#"
   xmlns:rdf="http://www.w3.org/1999/02/22-rdf-syntax-ns#"
   xmlns:svg="http://www.w3.org/2000/svg"
   xmlns="http://www.w3.org/2000/svg"
   xmlns:xlink="http://www.w3.org/1999/xlink"
   xmlns:sodipodi="http://sodipodi.sourceforge.net/DTD/sodipodi-0.dtd"
   xmlns:inkscape="http://www.inkscape.org/namespaces/inkscape"
   version="1.1"
   width="594.039"
   height="594.03906"
   id="svg2843"
   inkscape:version="0.47pre4 r22446"
   sodipodi:docname="xsplash_paw_3.svg"
   inkscape:export-filename="/home/serioga/Buffer/xsplash_paw_3.png"
   inkscape:export-xdpi="150"
   inkscape:export-ydpi="150">
  <metadata
     id="metadata70">
    <rdf:RDF>
      <cc:Work
         rdf:about="">
        <dc:format>image/svg+xml</dc:format>
        <dc:type
           rdf:resource="http://purl.org/dc/dcmitype/StillImage" />
        <dc:title></dc:title>
      </cc:Work>
    </rdf:RDF>
  </metadata>
  <sodipodi:namedview
     pagecolor="#000000"
     bordercolor="#666666"
     borderopacity="1"
     objecttolerance="10"
     gridtolerance="10"
     guidetolerance="10"
     inkscape:pageopacity="0"
     inkscape:pageshadow="2"
     inkscape:window-width="1024"
     inkscape:window-height="688"
     id="namedview68"
     showgrid="false"
     inkscape:zoom="0.7071068"
     inkscape:cx="181.06748"
     inkscape:cy="319.48736"
     inkscape:window-x="0"
     inkscape:window-y="24"
     inkscape:window-maximized="1"
     inkscape:current-layer="svg2843" />
  <defs
     id="defs2845">
    <linearGradient
       id="linearGradient3684">
      <stop
         offset="0"
         style="stop-color:#fff0cd;stop-opacity:1"
         id="stop3686" />
      <stop
         id="stop3688"
         style="stop-color:#7f7866;stop-opacity:1;"
         offset="0.16588822" />
      <stop
         offset="0.78541267"
         style="stop-color:#12110f;stop-opacity:1;"
         id="stop3736" />
      <stop
         offset="1"
         style="stop-color:#000000;stop-opacity:1;"
         id="stop3690" />
    </linearGradient>
    <inkscape:perspective
       sodipodi:type="inkscape:persp3d"
       inkscape:vp_x="0 : 384 : 1"
       inkscape:vp_y="0 : 1000 : 0"
       inkscape:vp_z="1024 : 384 : 1"
       inkscape:persp3d-origin="512 : 256 : 1"
       id="perspective72" />
    <linearGradient
       id="linearGradient3667">
      <stop
         id="stop3669"
         style="stop-color:#fef4db;stop-opacity:1"
         offset="0" />
      <stop
         id="stop3671"
         style="stop-color:#fef4db;stop-opacity:0"
         offset="1" />
    </linearGradient>
    <linearGradient
       id="linearGradient3649">
      <stop
         id="stop3651"
         style="stop-color:#fef4db;stop-opacity:0.03137255;"
         offset="0" />
      <stop
         offset="0.5"
         style="stop-color:#fef4db;stop-opacity:0;"
         id="stop3955" />
      <stop
         id="stop3653"
         style="stop-color:#fef4db;stop-opacity:0;"
         offset="1" />
    </linearGradient>
    <linearGradient
       id="linearGradient3627">
      <stop
         id="stop3629"
         style="stop-color:#fff0cd;stop-opacity:1"
         offset="0" />
      <stop
         offset="0.5"
         style="stop-color:#7f7866;stop-opacity:1;"
         id="stop3682" />
      <stop
         id="stop3631"
         style="stop-color:#000000;stop-opacity:1;"
         offset="1" />
    </linearGradient>
    <radialGradient
       cx="512"
       cy="384"
       r="512"
       fx="512"
       fy="384"
       id="radialGradient3633"
       xlink:href="#linearGradient3627"
       gradientUnits="userSpaceOnUse"
       gradientTransform="matrix(1.2157918,1.8530731e-8,-1.40625e-8,0.92263349,-110.48541,29.708728)" />
    <radialGradient
       cx="512"
       cy="383.99997"
       r="641.59369"
       fx="512"
       fy="383.99997"
       id="radialGradient3655"
       xlink:href="#linearGradient3649"
       gradientUnits="userSpaceOnUse"
       gradientTransform="translate(0,-8.9776436e-6)" />
    <radialGradient
       cx="517.07184"
       cy="387.93011"
       r="90.598053"
       fx="517.07184"
       fy="387.93011"
       id="radialGradient3673"
       xlink:href="#linearGradient3667"
       gradientUnits="userSpaceOnUse" />
    <radialGradient
       cx="517.07184"
       cy="387.93011"
       r="90.598053"
       fx="517.07184"
       fy="387.93011"
       id="radialGradient3673-8"
       xlink:href="#linearGradient3667-0"
       gradientUnits="userSpaceOnUse" />
    <linearGradient
       id="linearGradient3667-0">
      <stop
         id="stop3669-6"
         style="stop-color:#fef4db;stop-opacity:1"
         offset="0" />
      <stop
         id="stop3671-6"
         style="stop-color:#fef4db;stop-opacity:0"
         offset="1" />
    </linearGradient>
    <radialGradient
       cx="517.07184"
       cy="387.93011"
       r="90.598053"
       fx="517.07184"
       fy="387.93011"
       id="radialGradient3692"
       xlink:href="#linearGradient3667-0"
       gradientUnits="userSpaceOnUse" />
    <radialGradient
       cx="11.376413"
       cy="11.482934"
       r="9.936264"
       fx="11.376413"
       fy="11.482934"
       id="radialGradient2914-99"
       xlink:href="#linearGradient3584-2"
       gradientUnits="userSpaceOnUse"
       gradientTransform="matrix(1.3236902,-4.4149302e-8,4.6758856e-8,1.4019302,-3.4122575,-5.2396272)" />
    <linearGradient
       id="linearGradient3584-2">
      <stop
         id="stop3586-57"
         style="stop-color:#f19765;stop-opacity:1"
         offset="0" />
      <stop
         id="stop3588-4"
         style="stop-color:#de1000;stop-opacity:1"
         offset="1" />
    </linearGradient>
    <radialGradient
       cx="11.376413"
       cy="11.482934"
       r="9.936264"
       fx="11.376413"
       fy="11.482934"
       id="radialGradient3590-9"
       xlink:href="#linearGradient3584-2"
       gradientUnits="userSpaceOnUse"
       gradientTransform="matrix(1.3236902,-4.4149302e-8,4.6758856e-8,1.4019302,-3.4122575,-5.2396272)" />
    <radialGradient
       cx="11.376413"
       cy="11.482934"
       r="9.936264"
       fx="11.376413"
       fy="11.482934"
       id="radialGradient2914-9"
       xlink:href="#linearGradient3584-7"
       gradientUnits="userSpaceOnUse"
       gradientTransform="matrix(1.3236902,-4.4149302e-8,4.6758856e-8,1.4019302,-3.4122575,-5.2396272)" />
    <linearGradient
       id="linearGradient3584-7">
      <stop
         id="stop3586-9"
         style="stop-color:#f19765;stop-opacity:1"
         offset="0" />
      <stop
         id="stop3588-3"
         style="stop-color:#de1000;stop-opacity:1"
         offset="1" />
    </linearGradient>
    <radialGradient
       cx="11.376413"
       cy="11.482934"
       r="9.936264"
       fx="11.376413"
       fy="11.482934"
       id="radialGradient3590-4"
       xlink:href="#linearGradient3584-7"
       gradientUnits="userSpaceOnUse"
       gradientTransform="matrix(1.3236902,-4.4149302e-8,4.6758856e-8,1.4019302,-3.4122575,-5.2396272)" />
    <radialGradient
       cx="11.376413"
       cy="11.482934"
       r="9.936264"
       fx="11.376413"
       fy="11.482934"
       id="radialGradient2914"
       xlink:href="#linearGradient3584-6"
       gradientUnits="userSpaceOnUse"
       gradientTransform="matrix(1.3236902,-4.4149302e-8,4.6758856e-8,1.4019302,-3.4122575,-5.2396272)" />
    <linearGradient
       id="linearGradient3584-6">
      <stop
         id="stop3586-5"
         style="stop-color:#f19765;stop-opacity:1"
         offset="0" />
      <stop
         id="stop3588-2"
         style="stop-color:#de1000;stop-opacity:1"
         offset="1" />
    </linearGradient>
    <radialGradient
       cx="11.376413"
       cy="11.482934"
       r="9.936264"
       fx="11.376413"
       fy="11.482934"
       id="radialGradient3590-2"
       xlink:href="#linearGradient3584-6"
       gradientUnits="userSpaceOnUse"
       gradientTransform="matrix(1.3236902,-4.4149302e-8,4.6758856e-8,1.4019302,-3.4122575,-5.2396272)" />
    <radialGradient
       cx="11.376413"
       cy="11.482934"
       r="9.936264"
       fx="11.376413"
       fy="11.482934"
       id="radialGradient2875"
       xlink:href="#linearGradient3584-3"
       gradientUnits="userSpaceOnUse"
       gradientTransform="matrix(1.3236902,-4.4149302e-8,4.6758856e-8,1.4019302,-3.4122575,-5.2396272)" />
    <linearGradient
       id="linearGradient3584-3">
      <stop
         id="stop3586-3"
         style="stop-color:#f19765;stop-opacity:1"
         offset="0" />
      <stop
         id="stop3588-8"
         style="stop-color:#de1000;stop-opacity:1"
         offset="1" />
    </linearGradient>
    <radialGradient
       cx="11.376413"
       cy="11.482934"
       r="9.936264"
       fx="11.376413"
       fy="11.482934"
       id="radialGradient3590-3"
       xlink:href="#linearGradient3584-3"
       gradientUnits="userSpaceOnUse"
       gradientTransform="matrix(1.3236902,-4.4149302e-8,4.6758856e-8,1.4019302,-3.4122575,-5.2396272)" />
    <radialGradient
       cx="11.376413"
       cy="11.482934"
       r="9.936264"
       fx="11.376413"
       fy="11.482934"
       id="radialGradient3590"
       xlink:href="#linearGradient3584"
       gradientUnits="userSpaceOnUse"
       gradientTransform="matrix(1.3236902,-4.4149302e-8,4.6758856e-8,1.4019302,-3.4122575,-5.2396272)" />
    <linearGradient
       id="linearGradient3584">
      <stop
         id="stop3586"
         style="stop-color:#f19765;stop-opacity:1"
         offset="0" />
      <stop
         id="stop3588"
         style="stop-color:#de1000;stop-opacity:1"
         offset="1" />
    </linearGradient>
    <radialGradient
       inkscape:collect="always"
       xlink:href="#linearGradient3649"
       id="radialGradient3650"
       gradientUnits="userSpaceOnUse"
       gradientTransform="translate(0,-8.9776436e-6)"
       cx="512"
       cy="383.99997"
       fx="512"
       fy="383.99997"
       r="641.59369" />
    <radialGradient
       inkscape:collect="always"
       xlink:href="#linearGradient3649"
       id="radialGradient3652"
       gradientUnits="userSpaceOnUse"
       gradientTransform="translate(0,-8.9776436e-6)"
       cx="512"
       cy="383.99997"
       fx="512"
       fy="383.99997"
       r="641.59369" />
    <radialGradient
       inkscape:collect="always"
       xlink:href="#linearGradient3649"
       id="radialGradient3654"
       gradientUnits="userSpaceOnUse"
       gradientTransform="translate(0,-8.9776436e-6)"
       cx="512"
       cy="383.99997"
       fx="512"
       fy="383.99997"
       r="641.59369" />
    <radialGradient
       inkscape:collect="always"
       xlink:href="#linearGradient3649"
       id="radialGradient3656"
       gradientUnits="userSpaceOnUse"
       gradientTransform="translate(0,-8.9776436e-6)"
       cx="512"
       cy="383.99997"
       fx="512"
       fy="383.99997"
       r="641.59369" />
    <radialGradient
       inkscape:collect="always"
       xlink:href="#linearGradient3649"
       id="radialGradient3658"
       gradientUnits="userSpaceOnUse"
       gradientTransform="translate(0,-8.9776436e-6)"
       cx="512"
       cy="383.99997"
       fx="512"
       fy="383.99997"
       r="641.59369" />
    <radialGradient
       inkscape:collect="always"
       xlink:href="#linearGradient3649"
       id="radialGradient3660"
       gradientUnits="userSpaceOnUse"
       gradientTransform="translate(0,-8.9776436e-6)"
       cx="512"
       cy="383.99997"
       fx="512"
       fy="383.99997"
       r="641.59369" />
    <radialGradient
       inkscape:collect="always"
       xlink:href="#linearGradient3649"
       id="radialGradient3662"
       gradientUnits="userSpaceOnUse"
       gradientTransform="translate(0,-8.9776436e-6)"
       cx="512"
       cy="383.99997"
       fx="512"
       fy="383.99997"
       r="641.59369" />
    <radialGradient
       inkscape:collect="always"
       xlink:href="#linearGradient3649"
       id="radialGradient3664"
       gradientUnits="userSpaceOnUse"
       gradientTransform="translate(0,-8.9776436e-6)"
       cx="512"
       cy="383.99997"
       fx="512"
       fy="383.99997"
       r="641.59369" />
    <radialGradient
       inkscape:collect="always"
       xlink:href="#linearGradient3649"
       id="radialGradient3666"
       gradientUnits="userSpaceOnUse"
       gradientTransform="translate(0,-8.9776436e-6)"
       cx="512"
       cy="383.99997"
       fx="512"
       fy="383.99997"
       r="641.59369" />
    <radialGradient
       inkscape:collect="always"
       xlink:href="#linearGradient3649"
       id="radialGradient3668"
       gradientUnits="userSpaceOnUse"
       gradientTransform="translate(0,-8.9776436e-6)"
       cx="512"
       cy="383.99997"
       fx="512"
       fy="383.99997"
       r="641.59369" />
    <radialGradient
       inkscape:collect="always"
       xlink:href="#linearGradient3649"
       id="radialGradient3670"
       gradientUnits="userSpaceOnUse"
       gradientTransform="translate(0,-8.9776436e-6)"
       cx="512"
       cy="383.99997"
       fx="512"
       fy="383.99997"
       r="641.59369" />
    <radialGradient
       inkscape:collect="always"
       xlink:href="#linearGradient3649"
       id="radialGradient3672"
       gradientUnits="userSpaceOnUse"
       gradientTransform="translate(0,-8.9776436e-6)"
       cx="512"
       cy="383.99997"
       fx="512"
       fy="383.99997"
       r="641.59369" />
    <radialGradient
       inkscape:collect="always"
       xlink:href="#linearGradient3667-0"
       id="radialGradient3681"
       gradientUnits="userSpaceOnUse"
       cx="517.07184"
       cy="387.93011"
       fx="517.07184"
       fy="387.93011"
       r="90.598053"
       gradientTransform="matrix(3.130073,0,0,3.130073,-1106.4727,-830.24959)" />
    <radialGradient
       inkscape:collect="always"
       xlink:href="#linearGradient3667"
       id="radialGradient3684"
       gradientUnits="userSpaceOnUse"
       cx="517.07184"
       cy="387.93011"
       fx="517.07184"
       fy="387.93011"
       r="90.598053"
       gradientTransform="matrix(1.1463415,0,0,1.1463415,-80.740891,-60.700378)" />
    <inkscape:perspective
       id="perspective2941"
       inkscape:persp3d-origin="0.5 : 0.33333333 : 1"
       inkscape:vp_z="1 : 0.5 : 1"
       inkscape:vp_y="0 : 1000 : 0"
       inkscape:vp_x="0 : 0.5 : 1"
       sodipodi:type="inkscape:persp3d" />
    <radialGradient
       inkscape:collect="always"
       xlink:href="#linearGradient3667-0-4"
       id="radialGradient3681-2"
       gradientUnits="userSpaceOnUse"
       cx="517.07184"
       cy="387.93011"
       fx="517.07184"
       fy="387.93011"
       r="90.598053"
       gradientTransform="matrix(3.130073,0,0,3.130073,-1106.4727,-830.24959)" />
    <linearGradient
       id="linearGradient3667-0-4">
      <stop
         id="stop3669-6-0"
         style="stop-color:#fef4db;stop-opacity:1"
         offset="0" />
      <stop
         id="stop3671-6-6"
         style="stop-color:#fef4db;stop-opacity:0"
         offset="1" />
    </linearGradient>
    <radialGradient
       r="90.598053"
       fy="387.93011"
       fx="517.07184"
       cy="387.93011"
       cx="517.07184"
       gradientTransform="matrix(2.0528924,0,0,2.0528924,-549.49294,-412.37142)"
       gradientUnits="userSpaceOnUse"
       id="radialGradient2950"
       xlink:href="#linearGradient3667-0-4"
       inkscape:collect="always" />
    <inkscape:perspective
       id="perspective3682"
       inkscape:persp3d-origin="0.5 : 0.33333333 : 1"
       inkscape:vp_z="1 : 0.5 : 1"
       inkscape:vp_y="0 : 1000 : 0"
       inkscape:vp_x="0 : 0.5 : 1"
       sodipodi:type="inkscape:persp3d" />
    <radialGradient
       cx="11.376413"
       cy="11.482934"
       r="9.936264"
       fx="11.376413"
       fy="11.482934"
       id="radialGradient3590-7"
       xlink:href="#linearGradient3584-9"
       gradientUnits="userSpaceOnUse"
       gradientTransform="matrix(1.3236902,-4.4149302e-8,4.6758856e-8,1.4019302,-3.4122575,-5.2396272)" />
    <linearGradient
       id="linearGradient3584-9">
      <stop
         id="stop3586-1"
         style="stop-color:#f29d6e;stop-opacity:1;"
         offset="0" />
      <stop
         id="stop3588-0"
         style="stop-color:#f21100;stop-opacity:1;"
         offset="1" />
    </linearGradient>
    <inkscape:perspective
       id="perspective3836"
       inkscape:persp3d-origin="0.5 : 0.33333333 : 1"
       inkscape:vp_z="1 : 0.5 : 1"
       inkscape:vp_y="0 : 1000 : 0"
       inkscape:vp_x="0 : 0.5 : 1"
       sodipodi:type="inkscape:persp3d" />
    <radialGradient
       cx="11.376413"
       cy="11.482934"
       r="9.936264"
       fx="11.376413"
       fy="11.482934"
       id="radialGradient3590-43"
       xlink:href="#linearGradient3584-4"
       gradientUnits="userSpaceOnUse"
       gradientTransform="matrix(1.3236902,-4.4149302e-8,4.6758856e-8,1.4019302,-3.4122575,-5.2396272)" />
    <linearGradient
       id="linearGradient3584-4">
      <stop
         id="stop3586-7"
         style="stop-color:#f19765;stop-opacity:1"
         offset="0" />
      <stop
         id="stop3588-7"
         style="stop-color:#de1000;stop-opacity:1"
         offset="1" />
    </linearGradient>
    <inkscape:perspective
       id="perspective3965"
       inkscape:persp3d-origin="0.5 : 0.33333333 : 1"
       inkscape:vp_z="1 : 0.5 : 1"
       inkscape:vp_y="0 : 1000 : 0"
       inkscape:vp_x="0 : 0.5 : 1"
       sodipodi:type="inkscape:persp3d" />
    <radialGradient
       cx="11.376413"
       cy="11.482934"
       r="9.936264"
       fx="11.376413"
       fy="11.482934"
       id="radialGradient3590-43-3"
       xlink:href="#linearGradient3584-4-6"
       gradientUnits="userSpaceOnUse"
       gradientTransform="matrix(1.3236902,-4.4149302e-8,4.6758856e-8,1.4019302,-3.4122575,-5.2396272)" />
    <linearGradient
       id="linearGradient3584-4-6">
      <stop
         id="stop3586-7-3"
         style="stop-color:#f19765;stop-opacity:1"
         offset="0" />
      <stop
         id="stop3588-7-9"
         style="stop-color:#de1000;stop-opacity:1"
         offset="1" />
    </linearGradient>
    <radialGradient
       inkscape:collect="always"
       xlink:href="#linearGradient3584-9"
       id="radialGradient2984"
       gradientUnits="userSpaceOnUse"
       gradientTransform="matrix(27.521464,-9.1792884e-7,9.721853e-7,29.148188,318.10769,163.24601)"
       cx="11.376413"
       cy="11.482934"
       fx="11.376413"
       fy="11.482934"
       r="9.936264" />
    <inkscape:perspective
       id="perspective2971"
       inkscape:persp3d-origin="0.5 : 0.33333333 : 1"
       inkscape:vp_z="1 : 0.5 : 1"
       inkscape:vp_y="0 : 1000 : 0"
       inkscape:vp_x="0 : 0.5 : 1"
       sodipodi:type="inkscape:persp3d" />
    <radialGradient
       r="9.936264"
       fy="11.482934"
       fx="11.376413"
       cy="11.482934"
       cx="11.376413"
       gradientTransform="matrix(27.521464,-9.1792884e-7,9.721853e-7,29.148188,318.10769,163.24601)"
       gradientUnits="userSpaceOnUse"
       id="radialGradient3691-3"
       xlink:href="#linearGradient3584-9-5"
       inkscape:collect="always" />
    <linearGradient
       id="linearGradient3584-9-5">
      <stop
         id="stop3586-1-6"
         style="stop-color:#f29d6e;stop-opacity:1;"
         offset="0" />
      <stop
         id="stop3588-0-5"
         style="stop-color:#f21100;stop-opacity:1;"
         offset="1" />
    </linearGradient>
    <filter
       inkscape:collect="always"
       id="filter3899"
       x="-0.21727961"
       width="1.4345592"
       y="-0.19640528"
       height="1.3928106">
      <feGaussianBlur
         inkscape:collect="always"
         stdDeviation="37.406403"
         id="feGaussianBlur3901" />
    </filter>
    <inkscape:perspective
       id="perspective3911"
       inkscape:persp3d-origin="0.5 : 0.33333333 : 1"
       inkscape:vp_z="1 : 0.5 : 1"
       inkscape:vp_y="0 : 1000 : 0"
       inkscape:vp_x="0 : 0.5 : 1"
       sodipodi:type="inkscape:persp3d" />
    <radialGradient
       inkscape:collect="always"
       xlink:href="#linearGradient3584-9-0"
       id="radialGradient2984-6"
       gradientUnits="userSpaceOnUse"
       gradientTransform="matrix(27.521464,-9.1792884e-7,9.721853e-7,29.148188,318.10769,163.24601)"
       cx="11.376413"
       cy="11.482934"
       fx="11.376413"
       fy="11.482934"
       r="9.936264" />
    <linearGradient
       id="linearGradient3584-9-0">
      <stop
         id="stop3586-1-64"
         style="stop-color:#f29d6e;stop-opacity:1;"
         offset="0" />
      <stop
         id="stop3588-0-0"
         style="stop-color:#f21100;stop-opacity:1;"
         offset="1" />
    </linearGradient>
    <radialGradient
       r="9.936264"
       fy="11.482934"
       fx="11.376413"
       cy="11.482934"
       cx="11.376413"
       gradientTransform="matrix(27.521464,-9.1792884e-7,9.721853e-7,29.148188,318.10769,163.24601)"
       gradientUnits="userSpaceOnUse"
       id="radialGradient3922"
       xlink:href="#linearGradient3584-9-0"
       inkscape:collect="always" />
    <inkscape:perspective
       id="perspective3971"
       inkscape:persp3d-origin="0.5 : 0.33333333 : 1"
       inkscape:vp_z="1 : 0.5 : 1"
       inkscape:vp_y="0 : 1000 : 0"
       inkscape:vp_x="0 : 0.5 : 1"
       sodipodi:type="inkscape:persp3d" />
    <radialGradient
       inkscape:collect="always"
       xlink:href="#linearGradient3584-4-6-6"
       id="radialGradient2986"
       gradientUnits="userSpaceOnUse"
       gradientTransform="matrix(1.3236902,-4.4149302e-8,4.6758856e-8,1.4019302,-3.4122575,-5.2396272)"
       cx="11.376413"
       cy="11.482934"
       fx="11.376413"
       fy="11.482934"
       r="9.936264" />
    <linearGradient
       id="linearGradient3584-4-6-6">
      <stop
         id="stop3586-7-3-6"
         style="stop-color:#f19765;stop-opacity:1"
         offset="0" />
      <stop
         id="stop3588-7-9-1"
         style="stop-color:#de1000;stop-opacity:1"
         offset="1" />
    </linearGradient>
    <radialGradient
       inkscape:collect="always"
       xlink:href="#linearGradient3584-4-6-6"
       id="radialGradient4149"
       gradientUnits="userSpaceOnUse"
       gradientTransform="matrix(1.3236902,-4.4149302e-8,4.6758856e-8,1.4019302,-3.4122575,-5.2396272)"
       cx="11.376413"
       cy="11.482934"
       fx="11.376413"
       fy="11.482934"
       r="9.936264" />
    <filter
       inkscape:collect="always"
       id="filter3741"
       x="-0.33700511"
       width="1.6740102"
       y="-0.30462859"
       height="1.6092572">
      <feGaussianBlur
         inkscape:collect="always"
         stdDeviation="58.018094"
         id="feGaussianBlur3743" />
    </filter>
  </defs>
  <path
     style="fill:url(#radialGradient2984);fill-opacity:1;filter:url(#filter3899);opacity:0.71174377"
     id="path2463-3"
     d="m 604.00609,742.21457 c -8.01911,-9.40086 -10.56536,-28.42755 -26.82801,-25.99516 -23.60039,2.04401 -42.07998,-15.01414 -62.23492,-24.20355 -13.6081,-6.38174 -29.52236,-0.0195 -42.94658,-7.73547 -29.4864,-14.08955 -43.22985,-49.4024 -39.40508,-79.6621 3.33441,-24.26489 18.16118,-45.84311 36.6951,-61.47871 16.06577,-10.60219 36.30433,-12.73498 53.69646,-20.81371 13.53427,-4.10486 23.09019,-13.98871 33.67341,-22.4209 17.79094,-11.08164 42.91514,-14.44321 60.91238,-0.88634 15.65371,10.45936 32.76172,18.92648 47.8535,30.09129 11.78604,12.42311 8.90658,30.58903 12.25152,45.87679 1.39989,30.02725 14.43227,58.00217 19.69632,87.36949 4.29693,17.56776 -2.87187,34.63215 -12.81609,48.67782 -11.37768,16.51363 -23.561,37.56582 -46.30552,39.35534 -11.33973,-0.55451 -25.565,0.60337 -34.24249,-8.17479 z M 735.05266,597.37288 c -7.17143,-13.11212 -12.45941,-31.56444 -2.05606,-44.52992 16.80177,-20.93959 37.59667,-38.50206 59.05332,-54.68156 9.78193,-8.76444 20.67772,-7.47206 35.02986,-0.68446 15.14457,7.16239 20.28437,24.84943 17.21403,39.95033 -4.4647,21.95864 -12.26626,45.85004 -35.02001,55.25776 -19.75406,8.29185 -41.85318,18.23726 -63.79744,12.69153 -4.3282,-1.09384 -8.31775,-4.15308 -10.42376,-8.00368 z m -273.07,-109.57956 c -14.26482,-8.28021 -25.59204,-21.86569 -28.01929,-38.35021 -3.08149,-20.92765 0.71266,-43.404 14.92331,-59.53796 12.66104,-14.37461 28.65001,-31.85123 50.24692,-29.54005 18.81713,0.57385 17.67487,17.82993 17.79852,31.08949 1.71446,14.96876 8.55152,28.79547 11.74993,43.38649 0.55222,2.51922 0.6015,5.01781 0.11872,6.77768 -4.46789,16.29019 -16.24191,30.1269 -28.71108,41.37963 -8.46801,10.05704 -21.65233,12.93597 -34.59432,6.53289 l -3.51278,-1.73796 -3e-5,0 z m 225.28021,9.95204 c -13.08802,-6.92801 -31.74313,-18.61009 -25.41711,-35.40434 5.92295,-15.72423 14.81581,-30.16196 20.50565,-46.11444 6.94062,-19.4593 19.9538,-46.89593 28.48851,-55.15706 13.6858,-13.24709 36.33679,-12.92179 54.82336,-10.81136 22.57351,2.577 33.84849,26.49869 39.34989,45.96744 4.05534,14.35127 5.78408,30.17466 -2.55932,42.92524 -10.70757,16.36351 -25.70427,29.90672 -40.88387,42.24785 -14.00594,11.38693 -31.67647,19.11672 -49.83125,21.93583 -8.55512,1.24271 -16.92286,-1.59096 -24.47586,-5.58916 z M 585.60994,448.05583 c -23.20499,-21.74497 -33.03765,-55.39076 -28.63117,-85.69288 4.11807,-17.27771 14.33766,-32.29151 25.89331,-45.48196 9.96346,-11.37301 22.31426,-23.09119 39.35936,-23.51369 17.97464,-0.44555 38.87177,0.89981 51.80912,13.61529 11.17448,10.98285 18.91757,30.83832 11.0092,45.95351 -14.84232,23.67566 -28.54265,48.09088 -39.49514,73.82323 -5.8402,11.09558 -9.78902,27.31417 -24.85905,28.95483 -11.89284,1.26058 -24.94715,-0.89529 -35.08563,-7.65833 z"
     transform="matrix(0.46294019,0,0,0.46294019,12.542762,43.92462)" />
  <path
     style="opacity:0.69395018;fill:url(#radialGradient3922);fill-opacity:1;filter:url(#filter3741)"
     id="path2463-3-5"
     d="m 604.00609,742.21457 c -8.01911,-9.40086 -10.56536,-28.42755 -26.82801,-25.99516 -23.60039,2.04401 -42.07998,-15.01414 -62.23492,-24.20355 -13.6081,-6.38174 -29.52236,-0.0195 -42.94658,-7.73547 -29.4864,-14.08955 -43.22985,-49.4024 -39.40508,-79.6621 3.33441,-24.26489 18.16118,-45.84311 36.6951,-61.47871 16.06577,-10.60219 36.30433,-12.73498 53.69646,-20.81371 13.53427,-4.10486 23.09019,-13.98871 33.67341,-22.4209 17.79094,-11.08164 42.91514,-14.44321 60.91238,-0.88634 15.65371,10.45936 32.76172,18.92648 47.8535,30.09129 11.78604,12.42311 8.90658,30.58903 12.25152,45.87679 1.39989,30.02725 14.43227,58.00217 19.69632,87.36949 4.29693,17.56776 -2.87187,34.63215 -12.81609,48.67782 -11.37768,16.51363 -23.561,37.56582 -46.30552,39.35534 -11.33973,-0.55451 -25.565,0.60337 -34.24249,-8.17479 z M 735.05266,597.37288 c -7.17143,-13.11212 -12.45941,-31.56444 -2.05606,-44.52992 16.80177,-20.93959 37.59667,-38.50206 59.05332,-54.68156 9.78193,-8.76444 20.67772,-7.47206 35.02986,-0.68446 15.14457,7.16239 20.28437,24.84943 17.21403,39.95033 -4.4647,21.95864 -12.26626,45.85004 -35.02001,55.25776 -19.75406,8.29185 -41.85318,18.23726 -63.79744,12.69153 -4.3282,-1.09384 -8.31775,-4.15308 -10.42376,-8.00368 z m -273.07,-109.57956 c -14.26482,-8.28021 -25.59204,-21.86569 -28.01929,-38.35021 -3.08149,-20.92765 0.71266,-43.404 14.92331,-59.53796 12.66104,-14.37461 28.65001,-31.85123 50.24692,-29.54005 18.81713,0.57385 17.67487,17.82993 17.79852,31.08949 1.71446,14.96876 8.55152,28.79547 11.74993,43.38649 0.55222,2.51922 0.6015,5.01781 0.11872,6.77768 -4.46789,16.29019 -16.24191,30.1269 -28.71108,41.37963 -8.46801,10.05704 -21.65233,12.93597 -34.59432,6.53289 l -3.51278,-1.73796 -3e-5,0 z m 225.28021,9.95204 c -13.08802,-6.92801 -31.74313,-18.61009 -25.41711,-35.40434 5.92295,-15.72423 14.81581,-30.16196 20.50565,-46.11444 6.94062,-19.4593 19.9538,-46.89593 28.48851,-55.15706 13.6858,-13.24709 36.33679,-12.92179 54.82336,-10.81136 22.57351,2.577 33.84849,26.49869 39.34989,45.96744 4.05534,14.35127 5.78408,30.17466 -2.55932,42.92524 -10.70757,16.36351 -25.70427,29.90672 -40.88387,42.24785 -14.00594,11.38693 -31.67647,19.11672 -49.83125,21.93583 -8.55512,1.24271 -16.92286,-1.59096 -24.47586,-5.58916 z M 585.60994,448.05583 c -23.20499,-21.74497 -33.03765,-55.39076 -28.63117,-85.69288 4.11807,-17.27771 14.33766,-32.29151 25.89331,-45.48196 9.96346,-11.37301 22.31426,-23.09119 39.35936,-23.51369 17.97464,-0.44555 38.87177,0.89981 51.80912,13.61529 11.17448,10.98285 18.91757,30.83832 11.0092,45.95351 -14.84232,23.67566 -28.54265,48.09088 -39.49514,73.82323 -5.8402,11.09558 -9.78902,27.31417 -24.85905,28.95483 -11.89284,1.26058 -24.94715,-0.89529 -35.08563,-7.65833 z"
     transform="matrix(0.57119187,0,0,0.57119187,-48.803624,-20.755023)" />
  <g
     style="opacity:0.88256226;fill:url(#radialGradient3655);fill-opacity:1"
     id="g2839"
     transform="matrix(0.46294019,0,0,0.46294019,59.994132,119.25049)">
    <path
       style="fill:url(#radialGradient3650);fill-opacity:1"
       id="path2864-2"
       d="m 481.89062,-257.59372 28.15625,641.59375 -28.15625,641.59367 60.21875,0 -31.9375,-641.59368 31.9375,-641.59375 -60.21875,0 z" />
    <path
       style="fill:url(#radialGradient3652);fill-opacity:1"
       id="path2864-2-3"
       d="M 375.02675,-243.52479 513.88658,383.49455 707.14009,995.93905 648.97324,1011.5248 513.76584,383.52689 316.8599,-227.93905 375.02675,-243.5248 z" />
    <path
       style="fill:url(#radialGradient3654);fill-opacity:1"
       id="path2864-2-3-8"
       d="M 648.97324,-243.52479 510.11341,383.49455 316.8599,995.939 l 58.16685,15.5858 135.2074,-627.99791 196.90594,-611.46594 -58.16685,-15.58575 z" />
    <path
       style="fill:url(#radialGradient3656);fill-opacity:1"
       id="path2864-2-0"
       d="M 806.72136,-186.69112 510.30851,383.02349 165.12766,924.58176 217.27863,954.69113 510.41677,383.08598 858.87233,-156.58176 806.72136,-186.69113 z" />
    <path
       style="fill:url(#radialGradient3658);fill-opacity:1"
       id="path2864-2-0-5"
       d="m 217.27863,-186.69112 296.41285,569.71461 345.18085,541.55828 -52.15097,30.1094 -293.13814,-571.60519 -348.45556,-539.66774 52.15097,-30.10937 z" />
    <path
       style="fill:url(#radialGradient3660);fill-opacity:1"
       id="path2864-2-8"
       d="M 79.615286,-90.965792 513.38111,382.61897 986.96579,816.38471 944.3847,858.9658 513.29271,382.70736 37.034196,-48.384713 79.615276,-90.965799 z" />
    <path
       style="fill:url(#radialGradient3662);fill-opacity:1"
       id="path2864-2-8-7"
       d="M 944.3847,-90.965793 510.61888,382.61897 37.034196,816.38471 79.615282,858.9658 510.70728,382.70736 986.96579,-48.384714 944.38471,-90.9658 z" />
    <path
       style="fill:url(#radialGradient3664);fill-opacity:1"
       id="path2864-2-04"
       d="M 1052.5817,37.127671 511.02338,382.30857 -58.691136,678.72137 -28.581761,730.87233 511.08589,382.41682 1082.6911,89.278634 1052.5818,37.127666 z" />
    <path
       style="fill:url(#radialGradient3666);fill-opacity:1"
       id="path2864-2-04-6"
       d="M -28.581736,37.127675 512.97658,382.30857 1082.6911,678.72137 1052.5817,730.87233 512.91407,382.41682 -58.691136,89.278638 -28.581836,37.12767 z" />
    <path
       style="fill:url(#radialGradient3668);fill-opacity:1"
       id="path2864-2-4"
       d="M -99.93901,188.85991 512.50556,382.11344 1139.5248,520.97325 1123.939,579.14009 512.4732,382.23418 -115.52481,247.02675 -99.93901,188.85991 z" />
    <path
       style="fill:url(#radialGradient3670);fill-opacity:1"
       id="path2864-2-4-2"
       d="M 1123.939,188.85991 511.49443,382.11344 -115.52481,520.97325 -99.93905,579.14009 511.52679,382.23418 1139.5248,247.02675 1123.939,188.85991 z" />
    <path
       style="fill:url(#radialGradient3672);fill-opacity:1"
       id="path2864-2-01"
       d="m 1153.5937,353.89063 -641.59376,28.15625 -641.59364,-28.15625 0,60.21875 641.59365,-31.9375 641.59375,31.9375 0,-60.21875 z" />
  </g>
  <g
     id="g3809"
     transform="matrix(9.6252066,0,0,9.6252066,192.65128,169.93025)">
    <path
       style="fill:url(#radialGradient4149);fill-opacity:1"
       id="path2463"
       d="m 10.338498,22.606821 c -0.3856925,-0.45215 -0.5081585,-1.36727 -1.2903375,-1.25028 -1.1351,0.09831 -2.023906,-0.72213 -2.993291,-1.16411 -0.654504,-0.30694 -1.419927,-9.4e-4 -2.065587,-0.37205 -1.418197,-0.67766 -2.079211,-2.37609 -1.895252,-3.83148 0.160374,-1.16706 0.873492,-2.2049 1.764911,-2.95692 0.77271,-0.50993 1.746117,-0.61251 2.58262,-1.00107 0.650953,-0.19743 1.110561,-0.67281 1.619578,-1.07837 0.855685,-0.53299 2.0640745,-0.69467 2.9296815,-0.04263 0.752891,0.50306 1.575729,0.9103 2.301593,1.44729 0.566869,0.59751 0.428377,1.47123 0.589257,2.20652 0.06733,1.44421 0.694144,2.78971 0.947327,4.20218 0.206668,0.84495 -0.138127,1.66569 -0.616411,2.34124 -0.547228,0.79425 -1.133205,1.80679 -2.22714,1.89286 -0.545403,-0.02667 -1.229591,0.02902 -1.646949,-0.39318 z m 6.302901,-6.9664 c -0.344922,-0.630649 -0.599256,-1.518144 -0.09889,-2.14174 0.808109,-1.007124 1.808274,-1.85182 2.840267,-2.63 0.470478,-0.42154 0.994529,-0.359381 1.684819,-0.03292 0.728403,0.344487 0.97561,1.195174 0.827937,1.921477 -0.214737,1.056137 -0.589966,2.205233 -1.684345,2.657713 -0.950104,0.39881 -2.012998,0.877151 -3.068443,0.61042 -0.208172,-0.05261 -0.400056,-0.199749 -0.501348,-0.38495 z M 3.5076465,10.370011 C 2.8215565,9.9717608 2.2767555,9.3183448 2.1600125,8.5254946 2.0118035,7.5189448 2.1942893,6.4379076 2.877774,5.6619183 3.4867273,4.9705476 4.2557435,4.1299808 5.2944825,4.2411408 c 0.905041,0.0276 0.850102,0.85756 0.856049,1.4953 0.08246,0.7199475 0.4112994,1.3849658 0.5651325,2.0867449 0.02656,0.1211663 0.02893,0.2413399 0.00571,0.3259839 -0.2148907,0.7835034 -0.7811816,1.4490027 -1.3809069,1.9902214 -0.407283,0.48371 -1.0414045,0.622177 -1.663871,0.31421 l -0.168953,-0.08359 -1e-6,0 z m 10.8352235,0.47866 c -0.62949,-0.333214 -1.526738,-0.8950832 -1.222478,-1.7028302 0.284874,-0.756283 0.712591,-1.4506893 0.986253,-2.21795 0.333821,-0.9359272 0.959711,-2.2555374 1.370202,-2.65287 0.658241,-0.6371405 1.747678,-0.6214949 2.63682,-0.51999 1.08571,0.1239451 1.627999,1.2744979 1.892598,2.21088 0.195048,0.6902479 0.278195,1.4512999 -0.123095,2.06456 -0.514998,0.7870299 -1.236289,1.4384131 -1.966377,2.0319802 -0.673639,0.547673 -1.523532,0.91945 -2.396716,1.05504 -0.411473,0.05977 -0.813933,-0.07652 -1.177207,-0.26882 z M 9.4537045,8.4587708 c -1.116082,-1.04586 -1.589,-2.66411 -1.377063,-4.12154 0.198065,-0.831 0.6895932,-1.5531138 1.245381,-2.18753 0.4792092,-0.5470038 1.0732415,-1.1106091 1.8930535,-1.13093 0.86452,-0.0214291 1.869602,0.043278 2.491845,0.65485 0.537455,0.5282384 0.909872,1.48322 0.529506,2.21021 -0.713866,1.13872 -1.372806,2.31301 -1.899584,3.55065 -0.280894,0.53366 -0.470819,1.31372 -1.195637,1.39263 -0.572006,0.06063 -1.1998745,-0.04306 -1.6875015,-0.36834 z" />
    <path
       style="opacity:0.35231317;fill:#ffefda;fill-opacity:1;fill-rule:evenodd;stroke:none;display:inline"
       id="path3513"
       d="m 13.46875,14.375 c -0.102762,-0.0057 -0.208351,0.02748 -0.3125,0.03125 0.170971,-0.0053 0.359867,0.01435 0.53125,0.03125 0.0605,0.006 0.127179,-0.0086 0.1875,0 -0.137635,-0.02499 -0.264148,-0.05466 -0.40625,-0.0625 z m 0.21875,0.0625 c -0.225745,-0.02427 -0.453246,-0.0199 -0.6875,0 -0.224368,0.01906 -0.456699,0.06112 -0.6875,0.125 -0.0087,0.0026 -0.02258,-0.0027 -0.03125,0 -0.0099,0.0028 -0.02133,-0.0029 -0.03125,0 -1.055616,0.348673 -1.742754,1.239361 -2.0625,2.25 0.0076,-0.03008 -0.0084,-0.06392 0,-0.09375 -0.02293,0.08196 -0.04533,0.166484 -0.0625,0.25 -0.02999,0.145988 -0.04966,0.287505 -0.0625,0.4375 0.0033,-0.0515 -0.0051,-0.104859 0,-0.15625 -0.03932,0.307003 -0.03138,0.626692 0,0.9375 0.01212,0.115496 0.04186,0.23006 0.0625,0.34375 0.01957,0.106006 0.03516,0.208217 0.0625,0.3125 0.0083,0.03272 0.02224,0.06116 0.03125,0.09375 0.0089,0.03115 0.02166,0.06282 0.03125,0.09375 0.07316,0.244637 0.169245,0.464318 0.28125,0.6875 -0.03361,-0.06583 -0.09481,-0.119814 -0.125,-0.1875 0.09805,0.229111 0.210105,0.475194 0.34375,0.6875 0.02276,0.02901 0.07009,0.03421 0.09375,0.0625 0.106898,0.140367 0.219432,0.255887 0.34375,0.375 0.02915,0.02764 0.07344,0.0503 0.09375,0.0625 -0.009,-0.01598 0.0087,-0.0464 0,-0.0625 -0.243302,-0.607229 -0.410356,-1.28019 -0.40625,-1.96875 -0.04287,0.451136 -0.01066,0.904929 0.125,1.34375 -0.201762,-0.600507 -0.238098,-1.236416 -0.09375,-1.8125 0.01142,-0.115796 0.01162,-0.228072 0.03125,-0.34375 -0.213523,0.715175 -0.239872,1.495925 -0.03125,2.1875 -0.04921,-0.0618 -0.08031,-0.1198 -0.125,-0.1875 C 10.602604,19.603678 10.46683,19.321585 10.375,19 c -0.319397,-1.411541 0.284053,-2.729411 1.59375,-3.625 0.655469,-0.434211 1.346402,-0.45465 2,-0.25 -0.02647,-0.188595 -0.08481,-0.370815 -0.09375,-0.5625 -0.0066,-0.03026 0.0057,-0.06305 0,-0.09375 -0.06345,-0.01023 -0.123284,-0.02435 -0.1875,-0.03125 z m -2.75,3.4375 c 0.129106,-0.337401 0.351427,-0.646993 0.59375,-0.90625 -0.08814,0.113814 -0.147447,0.251687 -0.21875,0.375 0.09549,-0.132796 0.188416,-0.261318 0.3125,-0.375 0.486939,-0.501802 1.285485,-0.895767 1.9375,-0.59375 0.03856,-0.01326 0.08631,-0.01889 0.125,-0.03125 -0.702896,-0.268976 -1.419099,-0.04467 -1.96875,0.4375 0.09892,-0.107573 0.196747,-0.217707 0.3125,-0.3125 0.453607,-0.322008 1.122874,-0.360941 1.65625,-0.125 0.160447,0.07097 0.310671,0.158178 0.4375,0.28125 -0.378346,-0.0642 -0.76274,-0.03915 -1.09375,0.0625 0.229382,-0.08806 0.472871,-0.183693 0.71875,-0.21875 -0.05767,-0.04034 -0.12689,-0.06567 -0.1875,-0.09375 -0.327996,0.112831 -0.620955,0.285172 -0.90625,0.46875 -0.154063,0.08074 -0.279068,0.167478 -0.40625,0.28125 -0.01073,0.0097 -0.02074,0.02135 -0.03125,0.03125 -0.01129,0.01057 -0.02022,0.02043 -0.03125,0.03125 -0.01029,0.01012 -0.02118,0.02091 -0.03125,0.03125 -0.212773,0.213858 -0.339977,0.462437 -0.4375,0.75 -0.0078,0.0235 -0.02431,0.03858 -0.03125,0.0625 -0.02987,0.100751 -0.0503,0.202367 -0.0625,0.3125 -0.01734,0.396277 0.0397,0.802752 0.15625,1.15625 0.06103,0.176578 0.1329,0.340579 0.21875,0.5 -0.0542,-0.09835 -0.08188,-0.207302 -0.125,-0.3125 0.08046,0.180201 0.172918,0.375636 0.28125,0.53125 C 12.105343,20.144079 12.043968,20.07978 12,20 c 0.422009,0.783657 1.11128,1.335174 2,1.40625 0.008,-0.01185 0.02324,-0.01943 0.03125,-0.03125 -0.05385,-0.0062 -0.103718,-0.02204 -0.15625,-0.03125 0.05414,0.0096 0.102147,-0.006 0.15625,0 0.05732,-0.08464 0.131492,-0.168709 0.1875,-0.25 0.08422,-0.118959 0.145089,-0.247697 0.21875,-0.375 -0.414882,0.04773 -0.855159,-0.01833 -1.25,-0.25 0.05784,0.129587 0.06714,0.120423 0.125,0.25 -0.427689,-0.16367 -0.714614,-0.473043 -0.90625,-0.8125 0.14452,0.235983 0.334288,0.409754 0.59375,0.46875 0.333369,0.09399 0.685989,0.197361 1.03125,0.25 -0.795717,-0.254547 -1.290264,-0.874431 -1.53125,-1.71875 0.05786,0.129582 -0.15161,0.370422 -0.09375,0.5 -0.650291,-1.10839 0.43786,-2.524101 1.5625,-2.09375 0.272372,0.104228 0.481911,0.232691 0.625,0.40625 -0.288316,-0.333399 -0.682694,-0.556206 -1.1875,-0.5625 0.214083,-0.01545 0.4532,0.0041 0.6875,0.09375 0.186464,0.09616 0.340239,0.208972 0.46875,0.34375 -0.122854,-0.438089 -0.259074,-0.873306 -0.375,-1.3125 C 13.842411,16.097604 13.459515,15.975698 13.0625,16 c -1.145192,0.06047 -1.829919,0.886655 -2.125,1.875 z m -0.03125,0.34375 c -0.0072,0.07314 0.004,0.145729 0,0.21875 0.03163,-0.189674 0.06174,-0.349622 0.125,-0.53125 -0.0398,0.103291 -0.09791,0.204368 -0.125,0.3125 z m 0.125,-0.3125 c 0.05268,-0.151271 0.144304,-0.294919 0.21875,-0.4375 -0.0897,0.141494 -0.15857,0.281326 -0.21875,0.4375 z M 12.3125,14.5625 c 0.226599,-0.06242 0.452315,-0.107884 0.6875,-0.125 0.05295,-0.0039 0.103091,-0.02961 0.15625,-0.03125 -0.283886,0.01027 -0.560594,0.07046 -0.84375,0.15625 z m 0.0625,3.21875 c -0.118332,0.186393 -0.207202,0.40402 -0.25,0.65625 -0.02487,0.205371 -0.02264,0.416558 0,0.625 0.02153,0.198182 0.09063,0.387748 0.15625,0.5625 -0.07378,-0.187179 -0.12423,-0.370404 -0.15625,-0.5625 -0.02498,-0.14988 -0.05693,-0.296281 -0.0625,-0.4375 0.01291,-0.295074 0.127825,-0.586301 0.3125,-0.84375 z m 2.5,1.34375 c -0.02689,0.21597 -0.07278,0.42451 -0.125,0.625 0.02436,-0.0063 0.03959,-0.02399 0.0625,-0.03125 0.03768,-0.197859 0.07783,-0.389225 0.0625,-0.59375 z m -0.625,1.53125 c 0.04471,0.0099 0.07859,0.02338 0.125,0.03125 0.03141,0.0014 0.06304,5.74e-4 0.09375,0 0.0045,-0.0079 -0.0044,-0.02328 0,-0.03125 -0.0723,-6.27e-4 -0.145152,0.0067 -0.21875,0 z m -1.4375,0.25 c 0.09434,0.06737 0.209068,0.132907 0.3125,0.1875 -0.0506,-0.02568 -0.106815,-0.03349 -0.15625,-0.0625 -0.05464,-0.03823 -0.104948,-0.0852 -0.15625,-0.125 z" />
    <path
       style="opacity:0.38078296;fill:#ffecd4;fill-opacity:1;fill-rule:evenodd;display:inline"
       id="path3527"
       d="M 3.34375,5.15625 C 3.32792,5.1723217 3.3281358,5.2025766 3.3125,5.21875 4.1887506,5.2689959 5.0493779,5.7840691 5.4375,6.625 5.656801,7.282902 5.657351,8.154598 5.21875,8.8125 5.040567,9.031801 4.834213,9.234209 4.625,9.40625 4.415676,9.578292 4.2028514,9.717323 3.96875,9.84375 3.8405598,9.8969118 3.6988959,9.9548794 3.5625,10 3.7458586,9.9684877 3.8195178,9.9640902 3.9375,9.9375 3.9791981,9.928656 4.0209762,9.9147595 4.0625,9.90625 4.1047321,9.89723 4.1453444,9.8836143 4.1875,9.875 4.433666,9.731687 4.6557,9.538165 4.84375,9.34375 5.21985,8.95482 5.519187,8.474239 5.65625,7.84375 5.9173549,6.3641556 4.6417845,5.2321438 3.34375,5.15625 z M 5.1875,6 C 5.584768,6.482933 5.8185306,7.1019669 5.75,7.71875 5.640349,8.376652 5.373246,8.906794 5,9.3125 5.0657649,9.2496948 5.1563983,9.2242825 5.21875,9.15625 6.0569422,8.234238 5.9474454,6.8884355 5.1875,6 z M 2.53125,7.0625 C 2.408526,7.0803973 2.310224,7.1049309 2.1875,7.125 c -0.00127,2.069e-4 0.00127,0.031048 0,0.03125 0.2071785,-0.0022 0.40712,-0.019097 0.59375,-0.09375 -0.082238,-0.027412 -0.1677623,-0.011993 -0.25,0 z m 3.75,5.03125 c -0.042163,0.01766 -0.082306,0.04595 -0.125,0.0625 0.5410511,0.311614 1.0128286,0.758351 1.25,1.375 0.328953,0.904616 0.034546,1.685848 -0.5,2.34375 0.8153836,-1.090735 0.6796167,-2.579596 -0.5,-3.4375 C 6.2789819,12.331444 6.1479185,12.260731 6,12.1875 5.947734,12.20625 5.8965257,12.23234 5.84375,12.25 c 0.66,0.306045 1.2030759,0.855332 1.4375,1.5 0.219302,0.986853 -0.091545,1.967098 -0.96875,2.625 -0.7583348,0.521357 -1.6167264,0.801966 -2.46875,0.875 -0.22083,0.01893 -0.4350692,0.0075 -0.65625,0 -0.1593702,-0.0054 -0.3102904,0.01848 -0.46875,0 C 2.5248383,17.22746 2.3160706,17.19746 2.125,17.15625 c 0.00206,0.0121 0.029082,0.01916 0.03125,0.03125 0.1487788,0.02891 0.2878025,0.07232 0.4375,0.09375 0.4471355,0.06399 0.9047286,0.08604 1.34375,0.0625 0.4390214,-0.02354 0.8747811,-0.107776 1.28125,-0.25 0.2032344,-0.07111 0.4032359,-0.143377 0.59375,-0.25 -0.1868583,0.106354 -0.3983613,0.176862 -0.59375,0.25 -0.4213865,0.157734 -0.8367394,0.221726 -1.28125,0.25 -0.4451149,0.02831 -0.8981425,0.0047 -1.34375,-0.0625 -0.1442635,-0.02175 -0.2947602,-0.03312 -0.4375,-0.0625 0.00595,0.03183 0.024556,0.06203 0.03125,0.09375 0.02926,0.0079 0.064081,0.02446 0.09375,0.03125 1.9523284,0.366671 4.165562,-0.143619 5.125,-2.0625 0.548253,-1.096504 0.111854,-2.404598 -0.875,-3.0625 -0.077324,-0.05353 -0.1685262,-0.07921 -0.25,-0.125 z M 3.1875,17.25 c 0.2233862,0.01042 0.4342643,0.01856 0.65625,0 C 4.9536787,17.157175 6.0261025,16.665376 6.75,15.71875 7.188602,15.170498 7.188052,14.407903 6.96875,13.75 c 0.219302,1.754406 -1.230243,3.077299 -2.875,3.40625 -0.7195794,0.102797 -1.3503591,0.04744 -1.96875,-0.125 0.00289,0.02058 -0.0032,0.04195 0,0.0625 0.3398991,0.08259 0.711173,0.139866 1.0625,0.15625 z" />
    <path
       style="opacity:0.46975086;fill:#ffdec2;fill-opacity:1;fill-rule:evenodd;display:inline"
       id="path3616"
       d="M 11.59375,1.03125 C 11.103285,1.1964803 10.670186,1.4482504 10.5,1.8125 10.007507,2.4365156 10.133011,3.1532832 10.53125,3.71875 10.369818,3.4662733 10.276312,3.1409577 10.3125,2.75 10.475686,1.7467817 11.224976,1.3048486 12.09375,1.0625 11.925339,1.046496 11.760982,1.033604 11.59375,1.03125 z m -1.0625,2.6875 c 0.307642,0.4368262 0.765644,0.764257 1.28125,0.875 -0.421249,-0.063543 -0.868433,-0.1914233 -1.21875,-0.4375 0.606187,0.4711525 1.49977,0.5812297 2.21875,0.3125 0.02168,0.00391 0.04091,-8.359e-4 0.0625,0 0.06665,-0.035334 0.154762,-0.077951 0.21875,-0.125 -0.01666,0.048812 -0.07839,0.087932 -0.125,0.125 0.481429,-0.077002 0.908177,-0.775216 1.09375,-1.15625 -0.624145,1.2962198 -2.831712,1.5003157 -3.53125,0.40625 z m 2.4375,0.75 C 12.93666,4.47388 12.90739,4.47 12.875,4.46875 12.768074,4.525435 12.673969,4.5963823 12.5625,4.625 12.743792,4.599592 12.875535,4.542886 12.96875,4.46875 z m -2.375,-0.3125 C 10.474805,4.0726984 10.372164,3.9806928 10.28125,3.875 c 0.08826,0.1135992 0.199726,0.1935979 0.3125,0.28125 z m 9.375,1.71875 c -0.0305,0.00794 -0.07551,0.023926 -0.09375,0.03125 0.0183,-7.199e-4 0.07064,0.00175 0.09375,0 -0.0027,-0.00917 0.0027,-0.022048 0,-0.03125 z m -4.875,1.9375 c -0.119759,-0.015096 -0.225209,0.010941 -0.3125,0.03125 0.04374,0.00126 0.08552,0.02626 0.125,0.03125 0.127276,0.016089 0.227088,0.044715 0.3125,0.09375 C 15.104789,7.94027 14.987892,7.926836 14.875,7.9375 c -0.176288,0.078904 -0.300124,0.1582169 -0.40625,0.21875 0.01367,0.058031 0.09558,0.1254746 0.25,0.1875 C 15.514743,8.0097907 14.177665,8.302619 15,7.96875 c 0.148725,0.068772 0.255866,0.1451561 0.34375,0.21875 0.06277,0.052567 0.121064,0.1026718 0.15625,0.15625 0.04229,0.2255452 -0.04363,0.492397 -0.1875,0.71875 -0.03028,0.034888 -0.06143,0.094766 -0.09375,0.125 0.02811,-0.027307 0.06847,-0.033723 0.09375,-0.0625 0.09319,-0.1087369 0.173669,-0.2235483 0.21875,-0.34375 0.0075,-0.019559 -0.0058,-0.04285 0,-0.0625 0.01939,-0.051354 0.03277,-0.1029917 0.03125,-0.15625 0.0039,-0.030311 0.0329,-0.06275 0.03125,-0.09375 0.0069,0.061521 0.01221,0.1234209 0,0.1875 C 15.698304,8.3176998 15.56704,8.1347474 15.375,8.03125 15.40509,8.061998 15.414,8.094273 15.4375,8.125 15.4229,8.111649 15.39158,8.106352 15.375,8.09375 15.39839,8.122937 15.42063,8.154778 15.4375,8.1875 15.3857,8.1263392 15.304166,8.0523107 15.21875,8 15.27617,8.027085 15.331712,8.060845 15.375,8.09375 15.36052,8.075682 15.36082,8.047752 15.34375,8.03125 15.2744,7.962953 15.198506,7.879793 15.09375,7.8125 z M 15.3125,9.125 c -0.04001,0.057257 -0.07557,0.1061734 -0.125,0.15625 0.05373,-0.046985 0.07973,-0.1034222 0.125,-0.15625 z m -0.125,0.15625 c -0.03115,0.031559 -0.09048,0.034663 -0.125,0.0625 -0.07768,0.062634 -0.15763,0.1492408 -0.25,0.1875 0.138617,-0.05896 0.261116,-0.1504148 0.375,-0.25 z m -0.125,0.0625 C 15.127985,9.2966898 15.162522,9.2421147 15.21875,9.1875 14.865133,9.5182933 14.415551,9.5412131 14,9.40625 14.249828,9.423932 14.509849,9.389612 14.75,9.3125 14.81124,9.292834 14.849,9.243171 14.90625,9.21875 14.493529,9.3278254 13.889964,9.2183535 13.46875,8.9375 13.51828,9.011334 13.5617,9.0857627 13.625,9.15625 13.65938,9.210121 13.71221,9.237865 13.75,9.28125 13.66746,9.224577 13.563892,9.192665 13.5,9.125 13.59139,9.202735 13.674747,9.2903174 13.78125,9.34375 13.73004,9.331993 13.673106,9.330213 13.625,9.3125 c -0.01587,-0.00564 -0.047,0.00615 -0.0625,0 0.193651,0.2563937 0.466256,0.3358131 0.75,0.3125 -0.155796,-0.010281 -0.266771,-0.1128693 -0.40625,-0.21875 -0.009,-0.00353 -0.02232,0.00371 -0.03125,0 -0.006,-0.00481 0.006,-0.026228 0,-0.03125 0.03289,0.00515 0.06012,0.02822 0.09375,0.03125 -0.01822,-0.00632 -0.04451,0.00705 -0.0625,0 0.231138,0.1493293 0.452049,0.2067158 0.65625,0.1875 0.167302,-0.049654 0.355932,-0.1464676 0.5,-0.25 z M 13.5,9.125 C 13.45905,9.081634 13.44002,9.0160628 13.40625,8.96875 13.4197,9.007975 13.42187,9.058504 13.4375,9.09375 13.45439,9.109542 13.48241,9.110035 13.5,9.125 z M 13.4375,9.09375 C 13.36421,9.0252091 13.307604,8.9579274 13.25,8.875 13.241,8.896062 13.22753,8.916362 13.21875,8.9375 13.283022,9.0744318 13.385118,9.1722622 13.5,9.25 13.472415,9.206094 13.460709,9.1460736 13.4375,9.09375 z M 13.46875,8.9375 C 13.41931,8.8638 13.349091,8.7952875 13.3125,8.71875 c 0.01499,0.033057 0.01442,0.060379 0.03125,0.09375 0.0033,0.00595 -0.0034,0.025348 0,0.03125 0.04232,0.034648 0.07844,0.062705 0.125,0.09375 z m 1.875,-0.75 c -0.06809,0.068344 -0.146269,0.1188285 -0.21875,0.15625 0.216106,0.3218451 0.191425,0.5681881 0.03125,0.75 0.211928,-0.1647139 0.319062,-0.4639021 0.1875,-0.90625 z M 15.125,8.34375 C 15.1161,8.330493 15.10348,8.325983 15.09375,8.3125 14.99663,8.381692 14.92097,8.410504 14.84375,8.4375 14.93522,8.43152 15.028921,8.393355 15.125,8.34375 z M 14.46875,8.15625 C 14.44632,8.169044 14.39159,8.178581 14.375,8.1875 c -0.01681,0.017782 -0.0244,0.021899 -0.03125,0.03125 0.0039,-0.00196 0.02682,0.00234 0.03125,0 0.0045,0.018614 0.05175,0.013675 0.0625,0.03125 -0.0019,-0.032444 0.02226,-0.059844 0.03125,-0.09375 z M 14.875,7.9375 C 14.90169,7.925552 14.91052,7.917129 14.9375,7.90625 14.92325,7.90117 14.92106,7.879886 14.90625,7.875 14.787531,7.89127 14.701677,7.909583 14.625,7.9375 14.57008,7.975006 14.5296,8.014159 14.5,8.0625 14.55757,7.993949 14.710177,7.9530693 14.875,7.9375 z M 14.5,8.0625 C 14.5281,8.035089 14.52406,7.974186 14.5625,7.9375 14.444397,7.988978 14.392656,8.060461 14.375,8.125 14.38736,8.112322 14.4522,8.110094 14.46875,8.09375 14.47445,8.081849 14.49289,8.074112 14.5,8.0625 z m 0.125,-0.125 c 0.04407,-0.030099 0.0641,-0.076077 0.125,-0.09375 -0.02179,-1.525e-4 -0.03967,-7.92e-4 -0.0625,0 C 14.64458,7.884266 14.66006,7.904189 14.625,7.9375 z M 14.46875,8.34375 C 14.52328,8.440487 14.627374,8.494657 14.8125,8.4375 14.665757,8.43988 14.549448,8.410779 14.46875,8.34375 z m -1.28125,0.6875 c 0.03969,0.04865 0.07327,0.08555 0.125,0.125 -0.04188,-0.03601 -0.09033,-0.080283 -0.125,-0.125 z M 15,9.1875 c -0.06673,0.034753 -0.114554,0.097742 -0.1875,0.125 0.09643,-0.036361 0.1778,-0.069588 0.25,-0.125 -0.01703,0.00906 -0.04488,-0.00864 -0.0625,0 z m 5.1875,1.375 c -0.06244,0.08148 -0.128288,0.174496 -0.1875,0.28125 -0.618805,1.395828 1.038018,1.852006 1.9375,1.34375 -0.0057,-0.07798 -0.04763,-0.142204 -0.0625,-0.21875 -0.09319,0.0948 -0.242467,0.138288 -0.40625,0.1875 0.151073,-0.04753 0.288804,-0.139965 0.40625,-0.28125 -0.0161,-0.06546 -0.03936,-0.124544 -0.0625,-0.1875 -0.428765,0.600302 -2.037185,0.04408 -1.3125,-0.8125 -0.719058,0.817985 0.702156,1.627834 1.3125,0.90625 -0.108864,0.153838 -0.235857,0.326576 -0.4375,0.40625 -0.0094,0.002 -0.02159,-0.0019 -0.03125,0 -0.04486,0.01647 -0.106901,0.01974 -0.15625,0.03125 -0.432304,0.0048 -0.881949,-0.271914 -1.0625,-0.65625 -0.0024,0.07018 -0.01854,0.154681 0,0.21875 -0.07585,-0.151817 -0.102917,-0.337041 -0.0625,-0.5 0.0092,0.08798 0.02722,0.169339 0.0625,0.25 0.01791,-0.247336 0.184357,-0.47241 0.375,-0.6875 0.0082,-0.0092 0.02246,-0.02197 0.03125,-0.03125 0.03638,-0.03649 0.07953,-0.08879 0.125,-0.125 -0.04282,-0.01389 -0.08348,-0.02037 -0.125,-0.03125 -0.210087,0.16436 -0.40259,0.358622 -0.46875,0.59375 -0.01316,-0.205879 0.07396,-0.441222 0.25,-0.65625 -0.04121,-0.0052 -0.08499,-0.02981 -0.125,-0.03125 z m 0.03125,1.375 c 0.04054,0.04396 0.100233,0.08578 0.15625,0.125 -0.05991,-0.04115 -0.119542,-0.07248 -0.15625,-0.125 z m 0.4375,0.25 c 0.09854,0.02377 0.212827,0.05949 0.34375,0.0625 -0.07711,0.0068 -0.132637,0.0053 -0.21875,0 -0.0483,-0.01492 -0.08207,-0.04546 -0.125,-0.0625 z" />
    <path
       style="opacity:0.45195731;fill:#fff6e3;fill-opacity:1;fill-rule:evenodd;display:inline"
       id="path3511"
       d="m 17.46875,3.71875 c -0.102131,0.1792241 -0.180611,0.3662213 -0.25,0.5625 0.01439,-0.045086 0.04625,-0.080676 0.0625,-0.125 -0.09284,0.2399024 -0.150868,0.4659274 -0.1875,0.71875 -0.02054,0.1417584 -0.03021,0.2946996 -0.03125,0.4375 0.0021,0.3307091 0.04691,0.6703653 0.15625,1 0.23991,0.4172134 0.647263,0.7029346 1.1875,0.71875 C 17.776763,6.8676274 17.418775,6.4220475 17.25,5.875 c 0.165377,0.3990459 0.4746,0.7350905 0.84375,0.90625 0.646014,0.299531 1.358183,-0.053027 1.75,-0.65625 C 19.445226,6.500856 18.909017,6.945703 18.3125,6.78125 17.531405,6.53122 17.20762,5.807097 17.1875,5.125 17.19827,4.6297321 17.344755,4.1575507 17.59375,3.71875 17.5631,3.71711 17.5308,3.71997 17.5,3.71875 c -0.0022,0.00394 -0.02908,-0.00395 -0.03125,0 z m -0.25,2.59375 C 17.101964,5.9919819 17.060064,5.6472266 17.0625,5.3125 17.061584,5.1656409 17.07532,5.0188967 17.09375,4.875 17.11946,4.6742622 17.15797,4.4716734 17.21875,4.28125 17.058914,4.7333712 16.957357,5.2182309 17,5.71875 c 0.03399,0.2191801 0.11477,0.4129239 0.21875,0.59375 z m 0,-1.75 C 17.16547,4.7833173 17.119493,5.0244495 17.125,5.25 17.113508,5.0291759 17.145544,4.780845 17.21875,4.5625 z" />
  </g>
</svg>
