<?xml version="1.0" encoding="UTF-8" standalone="no"?>
<!-- Created with Inkscape (http://www.inkscape.org/) -->

<svg
   xmlns:dc="http://purl.org/dc/elements/1.1/"
   xmlns:cc="http://creativecommons.org/ns#"
   xmlns:rdf="http://www.w3.org/1999/02/22-rdf-syntax-ns#"
   xmlns:svg="http://www.w3.org/2000/svg"
   xmlns="http://www.w3.org/2000/svg"
   xmlns:xlink="http://www.w3.org/1999/xlink"
   xmlns:sodipodi="http://sodipodi.sourceforge.net/DTD/sodipodi-0.dtd"
   xmlns:inkscape="http://www.inkscape.org/namespaces/inkscape"
   version="1.0"
   width="32"
   height="32"
   id="svg2424"
   inkscape:version="0.48.0 r9654"
   sodipodi:docname="image-x-xcf.svg">
  <metadata
     id="metadata52">
    <rdf:RDF>
      <cc:Work
         rdf:about="">
        <dc:format>image/svg+xml</dc:format>
        <dc:type
           rdf:resource="http://purl.org/dc/dcmitype/StillImage" />
        <dc:title />
      </cc:Work>
    </rdf:RDF>
  </metadata>
  <sodipodi:namedview
     pagecolor="#ffffff"
     bordercolor="#666666"
     borderopacity="1"
     objecttolerance="10"
     gridtolerance="10"
     guidetolerance="10"
     inkscape:pageopacity="0"
     inkscape:pageshadow="2"
     inkscape:window-width="1280"
     inkscape:window-height="947"
     id="namedview50"
     showgrid="false"
     inkscape:snap-global="false"
     inkscape:zoom="1"
     inkscape:cx="14.963702"
     inkscape:cy="8.3742911"
     inkscape:window-x="0"
     inkscape:window-y="24"
     inkscape:window-maximized="1"
     inkscape:current-layer="svg2424">
    <inkscape:grid
       type="xygrid"
       id="grid3099" />
  </sodipodi:namedview>
  <defs
     id="defs2426">
    <linearGradient
       inkscape:collect="always"
       id="linearGradient3818">
      <stop
         style="stop-color:#000000;stop-opacity:1;"
         offset="0"
         id="stop3820" />
      <stop
         style="stop-color:#000000;stop-opacity:0;"
         offset="1"
         id="stop3822" />
    </linearGradient>
    <linearGradient
       id="linearGradient5048">
      <stop
         id="stop5050"
         style="stop-color:#000000;stop-opacity:0"
         offset="0" />
      <stop
         id="stop5056"
         style="stop-color:#000000;stop-opacity:1"
         offset="0.5" />
      <stop
         id="stop5052"
         style="stop-color:#000000;stop-opacity:0"
         offset="1" />
    </linearGradient>
    <linearGradient
       id="linearGradient5060">
      <stop
         id="stop5062"
         style="stop-color:#000000;stop-opacity:1"
         offset="0" />
      <stop
         id="stop5064"
         style="stop-color:#000000;stop-opacity:0"
         offset="1" />
    </linearGradient>
    <linearGradient
       id="linearGradient3104">
      <stop
         id="stop3106"
         style="stop-color:#aaaaaa;stop-opacity:1"
         offset="0" />
      <stop
         id="stop3108"
         style="stop-color:#c8c8c8;stop-opacity:1"
         offset="1" />
    </linearGradient>
    <linearGradient
       id="linearGradient3600">
      <stop
         id="stop3602"
         style="stop-color:#f4f4f4;stop-opacity:1"
         offset="0" />
      <stop
         id="stop3604"
         style="stop-color:#dbdbdb;stop-opacity:1"
         offset="1" />
    </linearGradient>
    <radialGradient
       cx="102"
       cy="112.3047"
       r="139.55859"
       id="XMLID_8_"
       gradientUnits="userSpaceOnUse">
      <stop
         id="stop41"
         style="stop-color:#b7b8b9;stop-opacity:1"
         offset="0" />
      <stop
         id="stop47"
         style="stop-color:#ececec;stop-opacity:1"
         offset="0.18851049" />
      <stop
         id="stop49"
         style="stop-color:#fafafa;stop-opacity:0"
         offset="0.25718147" />
      <stop
         id="stop51"
         style="stop-color:#ffffff;stop-opacity:0"
         offset="0.30111277" />
      <stop
         id="stop53"
         style="stop-color:#fafafa;stop-opacity:0"
         offset="0.53130001" />
      <stop
         id="stop55"
         style="stop-color:#ebecec;stop-opacity:0"
         offset="0.84490001" />
      <stop
         id="stop57"
         style="stop-color:#e1e2e3;stop-opacity:0"
         offset="1" />
    </radialGradient>
    <linearGradient
       id="linearGradient3211">
      <stop
         id="stop3213"
         style="stop-color:#ffffff;stop-opacity:1"
         offset="0" />
      <stop
         id="stop3215"
         style="stop-color:#ffffff;stop-opacity:0"
         offset="1" />
    </linearGradient>
    <filter
       height="1.3286875"
       y="-0.16434373"
       width="1.2969251"
       x="-0.14846256"
       id="filter3212">
      <feGaussianBlur
         id="feGaussianBlur3214"
         stdDeviation="0.77391625"
         inkscape:collect="always" />
    </filter>
    <linearGradient
       id="linearGradient8589">
      <stop
         id="stop8591"
         style="stop-color:#fefefe;stop-opacity:1"
         offset="0" />
      <stop
         id="stop8593"
         style="stop-color:#cbcbcb;stop-opacity:1"
         offset="1" />
    </linearGradient>
    <linearGradient
       x1="32.892288"
       y1="8.0590115"
       x2="36.358372"
       y2="5.4565363"
       id="linearGradient2506"
       xlink:href="#linearGradient8589"
       gradientUnits="userSpaceOnUse"
       gradientTransform="matrix(0.6371285,0,0,0.6445638,0.8296804,0.7445175)" />
    <linearGradient
       x1="24"
       y1="1.9999999"
       x2="24"
       y2="46.01725"
       id="linearGradient2510"
       xlink:href="#linearGradient3211"
       gradientUnits="userSpaceOnUse"
       gradientTransform="matrix(0.6363646,0,0,0.6279076,0.7272514,0.9302159)" />
    <radialGradient
       cx="102"
       cy="112.3047"
       r="139.55859"
       id="radialGradient2513"
       xlink:href="#XMLID_8_"
       gradientUnits="userSpaceOnUse"
       gradientTransform="matrix(0.2340426,0,0,-0.2542968,1.0212767,32.288672)" />
    <linearGradient
       x1="25.132275"
       y1="0.98520643"
       x2="25.132275"
       y2="47.013336"
       id="linearGradient2516"
       xlink:href="#linearGradient3600"
       gradientUnits="userSpaceOnUse"
       gradientTransform="matrix(0.6571436,0,0,0.6301241,0.2285531,-8.9647831e-2)" />
    <linearGradient
       x1="-51.786404"
       y1="50.786446"
       x2="-51.786404"
       y2="2.9062471"
       id="linearGradient2518"
       xlink:href="#linearGradient3104"
       gradientUnits="userSpaceOnUse"
       gradientTransform="matrix(0.5306412,0,0,0.5897023,39.269605,-0.7919081)" />
    <radialGradient
       cx="605.71429"
       cy="486.64789"
       r="117.14286"
       fx="605.71429"
       fy="486.64789"
       id="radialGradient2521"
       xlink:href="#linearGradient5060"
       gradientUnits="userSpaceOnUse"
       gradientTransform="matrix(1.566318e-2,0,0,8.2352934e-3,17.610433,26.980566)" />
    <radialGradient
       cx="605.71429"
       cy="486.64789"
       r="117.14286"
       fx="605.71429"
       fy="486.64789"
       id="radialGradient2524"
       xlink:href="#linearGradient5060"
       gradientUnits="userSpaceOnUse"
       gradientTransform="matrix(-1.5663176e-2,0,0,8.2352934e-3,14.389566,26.980566)" />
    <linearGradient
       x1="302.85715"
       y1="366.64789"
       x2="302.85715"
       y2="609.50507"
       id="linearGradient2527"
       xlink:href="#linearGradient5048"
       gradientUnits="userSpaceOnUse"
       gradientTransform="matrix(4.5769278e-2,0,0,8.2352934e-3,-0.5423243,26.980549)" />
    <linearGradient
       inkscape:collect="always"
       xlink:href="#linearGradient3924"
       id="linearGradient3937"
       x1="23.143536"
       y1="9.0272236"
       x2="23.143536"
       y2="38.04184"
       gradientUnits="userSpaceOnUse" />
    <linearGradient
       id="linearGradient3924">
      <stop
         id="stop3926"
         offset="0"
         style="stop-color:#000000;stop-opacity:1;" />
      <stop
         id="stop3928"
         offset="1"
         style="stop-color:#000000;stop-opacity:0.38759691;" />
    </linearGradient>
    <linearGradient
       inkscape:collect="always"
       xlink:href="#linearGradient3990-3"
       id="linearGradient3118"
       gradientUnits="userSpaceOnUse"
       x1="10.793174"
       y1="14.423345"
       x2="23.534342"
       y2="28.416178" />
    <linearGradient
       id="linearGradient3990-3">
      <stop
         style="stop-color:#000000;stop-opacity:0.37254903;"
         offset="0"
         id="stop3992-4" />
      <stop
         style="stop-color:#000000;stop-opacity:0;"
         offset="1"
         id="stop3994-4" />
    </linearGradient>
    <linearGradient
       id="linearGradient3927">
      <stop
         id="stop3929"
         offset="0"
         style="stop-color:#ffffff;stop-opacity:0.46899223;" />
      <stop
         style="stop-color:#ffffff;stop-opacity:1;"
         offset="0.31613758"
         id="stop3931" />
      <stop
         id="stop3933"
         offset="1"
         style="stop-color:#ffffff;stop-opacity:0;" />
    </linearGradient>
    <linearGradient
       inkscape:collect="always"
       xlink:href="#linearGradient3927"
       id="linearGradient3106"
       gradientUnits="userSpaceOnUse"
       gradientTransform="matrix(1.0234376,0,0,1.0236879,-0.92479045,-0.92370694)"
       x1="35.792591"
       y1="36.383247"
       x2="32.414753"
       y2="22.375317" />
    <linearGradient
       inkscape:collect="always"
       xlink:href="#linearGradient3818"
       id="linearGradient3824"
       x1="7.4267182"
       y1="16.046642"
       x2="8.40625"
       y2="18.390392"
       gradientUnits="userSpaceOnUse"
       gradientTransform="translate(0,-0.9999998)" />
  </defs>
  <g
     id="layer1">
    <rect
       width="22.100021"
       height="2"
       x="4.9499893"
       y="30"
       id="rect2879"
       style="opacity:0.15;fill:url(#linearGradient2527);fill-opacity:1;fill-rule:nonzero;stroke:none;stroke-width:1;stroke-linecap:round;stroke-linejoin:miter;marker:none;marker-start:none;marker-mid:none;marker-end:none;stroke-miterlimit:4;stroke-dasharray:none;stroke-dashoffset:0;stroke-opacity:1;visibility:visible;display:inline;overflow:visible" />
    <path
       d="M 4.9499887,30.000087 C 4.9499887,30.000087 4.9499887,31.999977 4.9499887,31.999977 C 4.1433737,32.003743 2.9999867,31.551903 2.9999867,30.999903 C 2.9999867,30.447903 3.9001077,30.000087 4.9499887,30.000087 z"
       id="path2881"
       style="opacity:0.15;fill:url(#radialGradient2524);fill-opacity:1;fill-rule:nonzero;stroke:none;stroke-width:1;stroke-linecap:round;stroke-linejoin:miter;marker:none;marker-start:none;marker-mid:none;marker-end:none;stroke-miterlimit:4;stroke-dasharray:none;stroke-dashoffset:0;stroke-opacity:1;visibility:visible;display:inline;overflow:visible" />
    <path
       d="M 27.050011,30.000087 C 27.050011,30.000087 27.050011,31.999977 27.050011,31.999977 C 27.856625,32.003743 29.000013,31.551903 29.000013,30.999903 C 29.000013,30.447903 28.099891,30.000087 27.050011,30.000087 z"
       id="path2883"
       style="opacity:0.15;fill:url(#radialGradient2521);fill-opacity:1;fill-rule:nonzero;stroke:none;stroke-width:1;stroke-linecap:round;stroke-linejoin:miter;marker:none;marker-start:none;marker-mid:none;marker-end:none;stroke-miterlimit:4;stroke-dasharray:none;stroke-dashoffset:0;stroke-opacity:1;visibility:visible;display:inline;overflow:visible" />
    <path
       d="M 4.499961,1.4999609 C 9.7704453,1.4999609 15.04093,1.4999609 20.311419,1.4999609 C 21.235975,1.8127611 26.20301,5.3763851 27.50004,7.8438467 C 27.50004,15.395911 27.50004,22.947975 27.50004,30.50004 C 19.833346,30.50004 12.166654,30.50004 4.499961,30.50004 C 4.499961,20.833346 4.499961,11.166652 4.499961,1.4999609 z"
       id="path4160"
       style="fill:url(#linearGradient2516);fill-opacity:1;stroke:url(#linearGradient2518);stroke-width:0.99992174;stroke-linecap:butt;stroke-linejoin:round;stroke-miterlimit:4;stroke-dasharray:none;stroke-dashoffset:0;stroke-opacity:1;display:inline" />
    <path
       d="M 5.2340427,30 C 5.1050853,30 5,29.885821 5,29.745703 L 5,2.2816602 C 5,2.141289 5.1050853,2.0273644 5.2340427,2.0273644 C 10.076044,2.0976535 15.441839,1.9222203 20.277954,2.0448649 L 26.931426,7.8143805 L 27,29.745703 C 27,29.885821 26.895148,30 26.765957,30 L 5.2340427,30 z"
       id="path4191"
       style="fill:url(#radialGradient2513);fill-opacity:1" />
    <path
       d="M 26.50004,8.1389757 C 26.50004,15.170208 26.50004,22.468805 26.50004,29.50004 C 19.500015,29.50004 12.499989,29.50004 5.4999611,29.50004 C 5.4999611,20.500011 5.4999611,11.499986 5.4999611,2.4999608 C 10.312145,2.4999608 15.239097,2.4999608 20.051281,2.4999608"
       id="path2435"
       style="opacity:0.6;fill:none;fill-opacity:1;stroke:url(#linearGradient2510);stroke-width:1;stroke-linecap:butt;stroke-linejoin:miter;stroke-miterlimit:4;stroke-dasharray:none;stroke-dashoffset:0;stroke-opacity:1;display:inline" />
    <path
       d="M 28.617256,0.92125832 C 32.899778,0.92125832 30.770506,9.4044296 30.770506,9.4044296 C 30.770506,9.4044296 41.128148,7.6020829 41.128148,12.223174 C 41.128148,9.6134507 29.825844,1.4945784 28.617256,0.92125832 z"
       transform="matrix(0.6385981,0,0,0.6193639,0.7250758,1.4294058)"
       id="path12038"
       style="opacity:0.4;fill:#000000;fill-opacity:1;fill-rule:evenodd;stroke:none;stroke-width:1px;stroke-linecap:butt;stroke-linejoin:miter;stroke-opacity:1;display:inline;filter:url(#filter3212)" />
    <path
       d="M 19.000002,2.0000004 C 21.03489,2.0000004 20.491614,6.7454911 20.491614,6.7454911 C 20.491614,6.7454911 26.989432,6.1378635 26.989432,9 C 26.989432,8.3026345 27.044298,7.803237 26.904003,7.5856242 C 25.896098,6.0222381 21.542643,2.5140243 19.970553,2.0542158 C 19.85291,2.0198078 19.592053,2.0000004 19.000002,2.0000004 z"
       id="path4474"
       style="fill:url(#linearGradient2506);fill-opacity:1;fill-rule:evenodd;stroke:none;stroke-width:1px;stroke-linecap:butt;stroke-linejoin:miter;stroke-opacity:1;display:inline" />
  </g>
  <g
     id="g3168"
     transform="matrix(0.56748167,0,0,0.56748167,2.6133969,2.1094795)">
    <g
       id="layer1-7"
       transform="matrix(0.7400127,0,0,0.7400127,7.8444241,9.1459649)">
      <path
         inkscape:connector-curvature="0"
         id="path4323"
         d="m 36.943886,6.7968089 c -0.157078,0.077222 -0.296498,0.3277294 -0.432188,0.7348984 -0.361839,1.085785 -2.90791,8.5865417 -17.33072,8.9484697 C 12.298633,16.651365 9.3703212,10.60099 9.3703212,10.60099 l -0.1728749,7.781278 c 0,0 0.7397713,1.734074 -0.7347189,3.544803 C 8.3825784,21.801792 8.334663,21.660029 8.2466337,21.538008 7.7159378,20.802389 7.093816,20.183401 6.4314461,19.722376 5.6703811,19.192657 4.8787477,18.842912 4.0976334,18.728102 c -0.9005432,-0.132364 -1.7715733,0.0627 -2.4634688,0.561981 -0.69210616,0.499428 -1.09501379,1.264576 -1.25334389,2.161466 -0.13725792,0.777524 -0.0896357,1.618044 0.17287499,2.5073 0.22849391,0.774024 0.5932276,1.55551 1.1236876,2.291155 0.5603944,0.777156 1.258548,1.465348 1.9880627,1.945319 0.8227411,0.541308 1.6949827,0.858408 2.5499063,0.907816 0.2645554,0.01529 0.5348545,-0.04961 0.7779375,-0.08646 5.5372972,4.390835 16.5282672,8.826123 23.8135332,4.141916 0.157588,0.05364 0.316997,0.118164 0.475406,0.172917 0.0039,0.075 -0.01968,0.149333 0,0.216147 l 0.34575,-0.129688 c 1.079761,0.571255 2.42979,0.95671 3.630377,1.383339 -0.13475,1.140796 0.429353,2.098162 1.858407,2.645088 2.573572,0.984956 4.970156,2.247925 4.970156,2.247925 -1.227624,-4.168174 -1.518855,-7.297764 -4.701862,-7.531052 -0.540537,-0.03962 -1.213274,0.501691 -1.383,0.64844 l -2.895657,-1.85886 -0.129656,0 -0.04322,-0.04323 c 3.899384,-3.8385 5.997743,-10.741185 4.615425,-23.291454 -0.08,-0.627178 -0.343267,-0.9500602 -0.605063,-0.8213581 z"
         style="opacity:0.5;color:#000000;fill:url(#linearGradient3937);fill-opacity:1;fill-rule:nonzero;stroke:none;stroke-width:0.99999994;marker:none;visibility:visible;display:inline;overflow:visible;enable-background:accumulate"
         sodipodi:nodetypes="ssccccsssssssssccccccscscccccs" />
    </g>
    <g
       style="color:#000000;fill:none;stroke:url(#linearGradient3118);stroke-width:2.38127184;stroke-linecap:butt;stroke-linejoin:miter;stroke-miterlimit:4;stroke-opacity:1;stroke-dasharray:none;stroke-dashoffset:0;marker:none;visibility:visible;display:inline;overflow:visible;enable-background:accumulate"
       id="layer1-7-5"
       transform="matrix(0.7400127,0,0,0.7400127,7.8444241,9.1459649)" />
    <path
       style="opacity:0.5;color:#000000;fill:none;stroke:url(#linearGradient3106);stroke-width:1.76217163;stroke-linecap:butt;stroke-linejoin:miter;stroke-miterlimit:4;stroke-opacity:1;stroke-dashoffset:0;marker:none;visibility:visible;display:inline;overflow:visible;enable-background:accumulate"
       d="m 35.625,13.28125 c -0.274263,-0.09603 -0.569144,-0.05714 -0.8125,0.0625 -0.512977,0.252176 -0.729068,0.718371 -0.84375,1.0625 -0.137961,0.413982 -0.521956,1.746663 -2.1875,3.125 -1.665766,1.378521 -4.569753,2.776257 -9.75,2.90625 -4.554714,0.113292 -6.4375,-3.8125 -6.4375,-3.8125 3.63e-4,-0.01041 3.63e-4,-0.02084 0,-0.03125 -1.11e-4,-2.07e-4 -0.03113,-0.03105 -0.03125,-0.03125 -1.19e-4,-2.02e-4 -0.03112,-0.03105 -0.03125,-0.03125 -1.27e-4,-1.97e-4 1.35e-4,-0.03106 0,-0.03125 -1.35e-4,-1.91e-4 -0.03111,-0.03106 -0.03125,-0.03125 -1.42e-4,-1.86e-4 -0.0311,-0.03107 -0.03125,-0.03125 -1.49e-4,-1.8e-4 1.56e-4,-0.03108 0,-0.03125 -1.56e-4,-1.73e-4 -0.03109,1.67e-4 -0.03125,0 -1.63e-4,-1.67e-4 -0.03108,-0.03109 -0.03125,-0.03125 -1.7e-4,-1.6e-4 -0.03107,-0.0311 -0.03125,-0.03125 -1.76e-4,-1.53e-4 -0.03107,-0.0311 -0.03125,-0.03125 -1.82e-4,-1.46e-4 -0.03106,-0.03111 -0.03125,-0.03125 -1.87e-4,-1.38e-4 -0.03106,1.3e-4 -0.03125,0 C 15.281057,16.28112 15.2502,16.25012 15.25,16.25 c -1.97e-4,-1.22e-4 -0.03105,1.14e-4 -0.03125,0 -2.02e-4,-1.14e-4 -0.03104,-0.03114 -0.03125,-0.03125 -2.06e-4,-1.06e-4 -0.03104,-0.03115 -0.03125,-0.03125 -2.1e-4,-9.7e-5 -0.03104,8.9e-5 -0.03125,0 -2.14e-4,-8.9e-5 -0.03103,8e-5 -0.03125,0 -2.17e-4,-8e-5 -0.03103,-0.03118 -0.03125,-0.03125 -2.2e-4,-7.1e-5 -0.03103,6.2e-5 -0.03125,0 -2.23e-4,-6.2e-5 -0.03102,5.3e-5 -0.03125,0 -2.25e-4,-5.3e-5 -0.06227,-0.03121 -0.0625,-0.03125 -2.27e-4,-4.4e-5 -0.03102,3.5e-5 -0.03125,0 -2.29e-4,-3.5e-5 -0.03102,2.6e-5 -0.03125,0 -2.3e-4,-2.6e-5 -0.03102,1.6e-5 -0.03125,0 -2.31e-4,-1.6e-5 -0.03102,7e-6 -0.03125,0 -2.31e-4,-7e-6 -0.03102,-2e-6 -0.03125,0 -2.31e-4,2e-6 -0.06227,-1.2e-5 -0.0625,0 -2.31e-4,1.2e-5 -0.03102,-2.1e-5 -0.03125,0 -2.3e-4,2.1e-5 -0.03102,-3e-5 -0.03125,0 -2.29e-4,3e-5 -0.03102,-3.9e-5 -0.03125,0 -2.28e-4,3.9e-5 -0.03102,-4.8e-5 -0.03125,0 -2.26e-4,4.8e-5 -0.03103,0.03119 -0.03125,0.03125 -2.24e-4,5.8e-5 -0.06228,-6.7e-5 -0.0625,0 -2.22e-4,6.7e-5 -0.03103,-7.5e-5 -0.03125,0 -2.19e-4,7.5e-5 -0.03103,0.03117 -0.03125,0.03125 -2.16e-4,8.4e-5 -0.03104,-9.3e-5 -0.03125,0 -2.12e-4,9.3e-5 -0.03104,0.03115 -0.03125,0.03125 -2.09e-4,1.02e-4 -0.03105,-1.1e-4 -0.03125,0 -2.04e-4,1.1e-4 -0.03105,0.03113 -0.03125,0.03125 -2e-4,1.18e-4 -0.03106,-1.26e-4 -0.03125,0 -1.95e-4,1.26e-4 -0.03106,0.03112 -0.03125,0.03125 -1.9e-4,1.34e-4 -0.03106,0.03111 -0.03125,0.03125 -1.85e-4,1.42e-4 -0.03107,0.0311 -0.03125,0.03125 -1.79e-4,1.49e-4 -0.03108,-1.56e-4 -0.03125,0 -1.73e-4,1.56e-4 -0.03108,0.03109 -0.03125,0.03125 -1.67e-4,1.63e-4 1.6e-4,0.03108 0,0.03125 -1.6e-4,1.7e-4 -0.0311,0.03107 -0.03125,0.03125 -1.53e-4,1.76e-4 -0.0311,0.03107 -0.03125,0.03125 -1.46e-4,1.83e-4 -0.03111,0.03106 -0.03125,0.03125 -1.39e-4,1.88e-4 1.31e-4,0.03106 0,0.03125 -1.31e-4,1.94e-4 -0.03113,0.03105 -0.03125,0.03125 -1.23e-4,1.99e-4 -0.03114,0.03105 -0.03125,0.03125 -1.15e-4,2.04e-4 1.07e-4,0.03104 0,0.03125 -1.07e-4,2.09e-4 -0.03115,0.03104 -0.03125,0.03125 -9.8e-5,2.13e-4 9e-5,0.03103 0,0.03125 -9e-5,2.17e-4 -0.03117,0.03103 -0.03125,0.03125 -8.1e-5,2.21e-4 7.2e-5,0.03103 0,0.03125 -7.2e-5,2.24e-4 6.3e-5,0.03102 0,0.03125 -6.3e-5,2.27e-4 -0.0312,0.03102 -0.03125,0.03125 -5.4e-5,2.29e-4 4.5e-5,0.03102 0,0.03125 -4.5e-5,2.31e-4 3.5e-5,0.06227 0,0.0625 -3.5e-5,2.33e-4 2.6e-5,0.03102 0,0.03125 -2.6e-5,2.34e-4 1.7e-5,0.03102 0,0.03125 -3.63e-4,0.01041 -3.63e-4,0.02084 0,0.03125 l -0.15625,5.75 c -0.0033,0.03114 -0.0033,0.06261 0,0.09375 7.8e-5,3.22e-4 -9.6e-5,0.06218 0,0.0625 9.6e-5,3.17e-4 0.03114,0.06219 0.03125,0.0625 1.14e-4,3.11e-4 0.03112,0.03095 0.03125,0.03125 1.31e-4,3.04e-4 -1.48e-4,0.0622 0,0.0625 1.48e-4,2.96e-4 0.03109,0.03096 0.03125,0.03125 8.2e-5,1.43e-4 0.02453,-0.01099 0.03125,0 0.0067,0.01099 -9e-5,0.03111 0,0.03125 0.0098,0.02442 -0.0032,0.232295 -0.03125,0.53125 C 13.589647,23.421845 13.395547,23.157056 13.125,22.96875 12.461927,22.507235 11.738215,22.233505 11,22.125 10.131949,21.997418 9.2543433,22.134459 8.53125,22.65625 7.7882671,23.192389 7.3969582,24.042528 7.25,24.875 c -0.1263626,0.715808 -0.1066574,1.465257 0.125,2.25 0.1931125,0.65417 0.4755002,1.328047 0.9375,1.96875 0.4801195,0.665832 1.104156,1.262578 1.75,1.6875 0.715111,0.470494 1.489783,0.764952 2.3125,0.8125 0.188058,0.01088 0.291616,-0.0076 0.40625,-0.03125 2.152465,1.629598 5.15687,3.144382 8.375,3.875 3.136506,0.712087 6.44343,0.819856 9.28125,-0.718822 0.195705,0.195519 0.513201,0.1283 0.75,0.1875 l 1.96875,0.6875 c 0.146945,0.968587 0.708503,1.690592 1.84375,2.125072 1.253684,0.470434 2.50599,1.101635 3.6875,1.6875 2.02e-4,7.5e-5 0.03104,-6.8e-5 0.03125,0 1.117626,0.189446 1.449557,-0.171332 1.1875,-0.9375 -0.312397,-1.448067 -0.891206,-3.02426 -1.34375,-4.25 -0.292462,-0.579528 -0.691456,-1.132198 -1.25,-1.5 -0.563842,-0.371291 -1.112539,-0.737316 -1.865423,-0.668203 -0.372015,0.03415 -0.640214,0.19018 -0.90625,0.34375 l -0.9375,-0.59375 C 36.27199,28.542912 37.483265,23.299733 36.53125,14.65625 36.48786,14.31603 36.374064,13.974524 36.15625,13.6875 36.035399,13.52825 35.867021,13.365997 35.625,13.28125 z"
       id="path3101"
       inkscape:connector-curvature="0"
       sodipodi:nodetypes="ccssccccccccccscccccccccccccccsccccscccccccccccccccccsccccccccccccccccccccccccccccsssssssccsccccccccsscccsc" />
  </g>
  <path
     style="opacity:0.4;fill:none;stroke:url(#linearGradient3824);stroke-width:1px;stroke-linecap:butt;stroke-linejoin:miter;stroke-opacity:1"
     d="M 10.234375,16.8125 C 8.7044404,14.474552 6.4173488,16.020538 8.53125,18.4375"
     id="path3048"
     inkscape:connector-curvature="0"
     sodipodi:nodetypes="cc" />
</svg>
