<?xml version="1.0" encoding="UTF-8" standalone="no"?>
<!-- Created with Inkscape (http://www.inkscape.org/) -->

<svg
   xmlns:dc="http://purl.org/dc/elements/1.1/"
   xmlns:cc="http://creativecommons.org/ns#"
   xmlns:rdf="http://www.w3.org/1999/02/22-rdf-syntax-ns#"
   xmlns:svg="http://www.w3.org/2000/svg"
   xmlns="http://www.w3.org/2000/svg"
   xmlns:sodipodi="http://sodipodi.sourceforge.net/DTD/sodipodi-0.dtd"
   xmlns:inkscape="http://www.inkscape.org/namespaces/inkscape"
   width="1306.939"
   height="789.67126"
   id="svg2"
   version="1.1"
   inkscape:version="0.47 r22583"
   sodipodi:docname="Новый документ 1">
  <defs
     id="defs4">
    <inkscape:perspective
       sodipodi:type="inkscape:persp3d"
       inkscape:vp_x="0 : 526.18109 : 1"
       inkscape:vp_y="0 : 1000 : 0"
       inkscape:vp_z="744.09448 : 526.18109 : 1"
       inkscape:persp3d-origin="372.04724 : 350.78739 : 1"
       id="perspective10" />
    <inkscape:perspective
       id="perspective2824"
       inkscape:persp3d-origin="0.5 : 0.33333333 : 1"
       inkscape:vp_z="1 : 0.5 : 1"
       inkscape:vp_y="0 : 1000 : 0"
       inkscape:vp_x="0 : 0.5 : 1"
       sodipodi:type="inkscape:persp3d" />
    <inkscape:perspective
       id="perspective2894"
       inkscape:persp3d-origin="0.5 : 0.33333333 : 1"
       inkscape:vp_z="1 : 0.5 : 1"
       inkscape:vp_y="0 : 1000 : 0"
       inkscape:vp_x="0 : 0.5 : 1"
       sodipodi:type="inkscape:persp3d" />
  </defs>
  <sodipodi:namedview
     id="base"
     pagecolor="#ffffff"
     bordercolor="#666666"
     borderopacity="1.0"
     inkscape:pageopacity="0.0"
     inkscape:pageshadow="2"
     inkscape:zoom="0.35355339"
     inkscape:cx="903.94879"
     inkscape:cy="357.81235"
     inkscape:document-units="px"
     inkscape:current-layer="layer1"
     showgrid="false"
     inkscape:window-width="1280"
     inkscape:window-height="949"
     inkscape:window-x="0"
     inkscape:window-y="24"
     inkscape:window-maximized="1" />
  <metadata
     id="metadata7">
    <rdf:RDF>
      <cc:Work
         rdf:about="">
        <dc:format>image/svg+xml</dc:format>
        <dc:type
           rdf:resource="http://purl.org/dc/dcmitype/StillImage" />
        <dc:title></dc:title>
      </cc:Work>
    </rdf:RDF>
  </metadata>
  <g
     inkscape:label="Layer 1"
     inkscape:groupmode="layer"
     id="layer1"
     transform="translate(427.34262,-200.58606)">
    <path
       style="fill:#000000"
       d="m -277.45171,984.4868 c -59.23509,-4.55382 -114.06527,-40.28213 -146.09272,-89.39795 -19.18986,-40.5828 38.99653,-81.3372 70.35409,-48.70707 21.83407,33.83523 58.16729,66.01346 101.47689,58.92889 63.54968,-11.40429 105.64658,-67.3189 138.05398,-118.47658 28.506962,-50.38896 52.564383,-103.48281 66.069324,-159.9232 20.587978,-87.9499 26.196314,-184.9988 -11.209615,-269.42122 -17.862577,-43.21284 -58.976809,-79.70687 -108.066309,-75.64291 -73.63739,10.374 -133.70752,70.38979 -158.67351,138.39419 -16.68879,46.79258 -21.87988,111.95264 21.62425,146.07321 61.43568,35.55693 140.43775,6.71156 187.47424,-40.43192 26.554795,-13.87951 48.165334,-93.66685 79.197997,-47.28081 5.920962,46.31607 -30.079106,85.5271 -61.568984,114.81901 -65.975053,57.77309 -174.758073,76.28257 -247.533543,20.38161 -59.91797,-45.79588 -70.75754,-129.72092 -53.73844,-198.83699 22.62546,-93.09295 94.99907,-174.27709 188.3884,-199.8115 57.92323,-15.25702 122.941988,-4.41844 169.817468,33.90216 62.580499,49.1712 92.216682,128.19244 103.756389,204.57996 4.949325,45.94633 7.541673,93.14919 -0.809564,138.78471 -2.760163,38.04498 -15.409013,74.37701 -25.499187,110.68066 -13.179999,36.73919 -28.4175127,72.72092 -48.642328,106.25772 -20.57323,31.681 -42.757061,62.77671 -69.018399,89.93674 -50.204589,52.48176 -120.269809,92.5704 -195.360429,85.19129 z"
       id="path2844" />
    <path
       style="fill:#000000"
       d="M 43.566958,976.39752 C -17.200994,962.13618 -36.109196,861.7696 24.395023,834.66255 c 45.476244,-17.23424 85.145157,33.78129 82.898507,76.02734 3.22259,34.64306 -26.283489,73.85614 -63.726572,65.70763 z"
       id="path2842" />
    <path
       style="fill:#000000"
       d="M 183.99359,989.14126 C 148.42622,963.02931 155.91172,912.28653 154.57092,874.296 c -2.03339,-57.61426 6.518,-114.55351 13.86472,-171.60153 4.56044,-35.41236 9.73643,-70.62555 16.59752,-105.65174 7.46835,-38.12627 13.95965,-76.30535 23.35469,-113.90245 9.03915,-36.17292 18.86318,-72.17076 29.98557,-108.06246 9.78127,-31.56398 16.614,-64.20889 29.15053,-94.87991 11.97315,-29.29265 17.70662,-79.8876 62.71571,-78.01885 47.89145,11.43587 26.31474,64.06508 23.05042,95.56548 -5.12189,49.42588 -13.70465,98.39637 -22.32113,147.3424 -6.88533,39.11214 -15.82561,77.70793 -24.29574,116.42911 -8.04698,36.78677 -13.68312,74.16053 -21.27921,111.06807 -8.769,42.60642 -18.19282,85.11648 -28.13535,127.60679 -13.81457,59.03793 -28.2877,118.12947 -46.40635,176.31977 -3.55172,10.39582 -15.30608,17.71294 -26.85871,12.63058 z"
       id="path2837"
       sodipodi:nodetypes="csssssscssssscc" />
    <path
       style="fill:#000000"
       d="m 506.78963,983.14756 c -29.11877,-10.75573 -56.14679,-29.9745 -77.52861,-59.86346 -32.52913,-39.18011 -54.71611,-97.28844 -66.23092,-161.49033 -15.45808,-77.30185 -11.52344,-168.66584 9.50376,-253.8223 26.88726,-115.55833 91.32479,-216.52791 164.97337,-257.96223 68.09216,-43.87368 169.20075,-61.76933 209.52423,21.0398 22.48696,24.32995 6.34042,120.92101 -23.88903,82.15836 -16.55246,-52.18909 -79.63306,-42.77198 -116.90633,-32.42645 -56.65132,15.72407 -120.45631,67.42426 -150.65446,156.11759 -36.7717,103.305 -30.81165,231.10657 6.72348,309.78755 24.55503,54.68137 67.13861,94.75032 116.3676,77.11241 46.30945,-15.46464 94.88905,-68.33561 122.91772,-121.03129 27.56371,-51.82154 97.40408,-184.53172 73.94951,-458.63107 6.961,-63.51 51.5796,-106.63798 79.81269,-70.23358 57.17674,223.06879 1.37163,454.82401 -45.6187,550.87282 -23.45197,47.93613 -59.22337,99.66112 -93.83327,135.37238 -32.80214,33.84588 -68.53142,64.49771 -105.29915,76.19739 -34.89645,17.71817 -71.11735,16.79748 -103.81189,6.80241 z"
       id="path2883"
       sodipodi:nodetypes="cccccccscccsccsscc" />
  </g>
</svg>
