<?xml version="1.0" encoding="UTF-8" standalone="no"?>
<!-- Created with Inkscape (http://www.inkscape.org/) -->

<svg
   xmlns:svg="http://www.w3.org/2000/svg"
   xmlns="http://www.w3.org/2000/svg"
   xmlns:xlink="http://www.w3.org/1999/xlink"
   version="1.1"
   width="22"
   height="22"
   id="svg4285">
  <defs
     id="defs4287">
    <linearGradient
       id="linearGradient3767">
      <stop
         id="stop3769"
         style="stop-color:#505050;stop-opacity:0"
         offset="0" />
      <stop
         id="stop3771"
         style="stop-color:#ffffff;stop-opacity:1"
         offset="1" />
    </linearGradient>
    <linearGradient
       id="linearGradient3963">
      <stop
         id="stop3965"
         style="stop-color:#ffffff;stop-opacity:1"
         offset="0" />
      <stop
         id="stop3967"
         style="stop-color:#ffffff;stop-opacity:0"
         offset="1" />
    </linearGradient>
    <linearGradient
       id="linearGradient3955">
      <stop
         id="stop3957"
         style="stop-color:#ffffff;stop-opacity:1"
         offset="0" />
      <stop
         id="stop3959"
         style="stop-color:#ffffff;stop-opacity:0"
         offset="1" />
    </linearGradient>
    <linearGradient
       id="linearGradient3926">
      <stop
         id="stop3928"
         style="stop-color:#ffffff;stop-opacity:1"
         offset="0" />
      <stop
         id="stop3930"
         style="stop-color:#ffffff;stop-opacity:0"
         offset="1" />
    </linearGradient>
    <linearGradient
       id="linearGradient3918">
      <stop
         id="stop3920"
         style="stop-color:#ffffff;stop-opacity:1"
         offset="0" />
      <stop
         id="stop3922"
         style="stop-color:#ffffff;stop-opacity:0.76045626"
         offset="1" />
    </linearGradient>
    <linearGradient
       id="linearGradient3910">
      <stop
         id="stop3912"
         style="stop-color:#ffffff;stop-opacity:0"
         offset="0" />
      <stop
         id="stop3914"
         style="stop-color:#ffffff;stop-opacity:1"
         offset="1" />
    </linearGradient>
    <linearGradient
       id="linearGradient3894">
      <stop
         id="stop3896"
         style="stop-color:#ffffff;stop-opacity:0.37262356"
         offset="0" />
      <stop
         id="stop3898"
         style="stop-color:#ffffff;stop-opacity:0.09125476"
         offset="1" />
    </linearGradient>
    <linearGradient
       id="linearGradient3882">
      <stop
         id="stop3884"
         style="stop-color:#ffffff;stop-opacity:1"
         offset="0" />
      <stop
         id="stop3886"
         style="stop-color:#ffffff;stop-opacity:0"
         offset="1" />
    </linearGradient>
    <linearGradient
       id="linearGradient3865">
      <stop
         id="stop3867"
         style="stop-color:#ffffff;stop-opacity:1"
         offset="0" />
      <stop
         id="stop3869"
         style="stop-color:#ffffff;stop-opacity:0"
         offset="1" />
    </linearGradient>
    <linearGradient
       id="linearGradient3844">
      <stop
         id="stop3846"
         style="stop-color:#ffffff;stop-opacity:1"
         offset="0" />
      <stop
         id="stop3863"
         style="stop-color:#ffffff;stop-opacity:0.49803922"
         offset="0.38408825" />
      <stop
         id="stop3848"
         style="stop-color:#ffffff;stop-opacity:0"
         offset="1" />
    </linearGradient>
    <linearGradient
       id="linearGradient3799">
      <stop
         id="stop3801"
         style="stop-color:#ffffff;stop-opacity:1"
         offset="0" />
      <stop
         id="stop3852"
         style="stop-color:#ffffff;stop-opacity:0.49803922"
         offset="0.38922155" />
      <stop
         id="stop3803"
         style="stop-color:#ffffff;stop-opacity:0"
         offset="1" />
    </linearGradient>
    <linearGradient
       x1="124.88369"
       y1="614.24451"
       x2="128.61511"
       y2="616.27576"
       id="linearGradient3674"
       xlink:href="#linearGradient3963"
       gradientUnits="userSpaceOnUse"
       gradientTransform="matrix(0.45833001,0,0,0.45833001,-54.60156,-278.59954)" />
    <linearGradient
       x1="127.77165"
       y1="614.15778"
       x2="130.1864"
       y2="612.53278"
       id="linearGradient3677"
       xlink:href="#linearGradient3955"
       gradientUnits="userSpaceOnUse"
       gradientTransform="matrix(0.45833001,0,0,0.45833001,-54.730465,-278.55657)" />
    <linearGradient
       x1="133.20557"
       y1="614.64185"
       x2="137.68925"
       y2="619.01685"
       id="linearGradient3680"
       xlink:href="#linearGradient3926"
       gradientUnits="userSpaceOnUse"
       gradientTransform="matrix(0.45833001,0,0,0.45833001,-54.730465,-278.55657)" />
    <radialGradient
       cx="204.48492"
       cy="425.3735"
       r="18.704613"
       fx="204.48492"
       fy="425.3735"
       id="radialGradient3683"
       xlink:href="#linearGradient3910"
       gradientUnits="userSpaceOnUse"
       gradientTransform="matrix(0.3691029,-0.00344628,0.00183179,0.18679009,-70.8321,-69.623348)" />
    <linearGradient
       x1="149.10364"
       y1="622.48138"
       x2="147.78259"
       y2="611.10638"
       id="linearGradient3686"
       xlink:href="#linearGradient3918"
       gradientUnits="userSpaceOnUse"
       gradientTransform="matrix(0.47056792,-0.01827519,0.01827519,0.47056792,-67.930756,-283.46058)" />
    <linearGradient
       x1="421.87692"
       y1="568.21527"
       x2="389.03873"
       y2="587.46527"
       id="linearGradient3689"
       xlink:href="#linearGradient3865"
       gradientUnits="userSpaceOnUse"
       gradientTransform="matrix(0.06981181,0,0,0.06638884,-12.19696,-20.686792)" />
    <radialGradient
       cx="334.34973"
       cy="429.258"
       r="28.867611"
       fx="334.34973"
       fy="429.258"
       id="radialGradient3692"
       xlink:href="#linearGradient3767"
       gradientUnits="userSpaceOnUse"
       gradientTransform="matrix(0.07638805,0.00253609,-0.00313562,0.08674998,-13.039499,-29.002929)" />
    <linearGradient
       x1="296.76578"
       y1="377.22821"
       x2="292.28873"
       y2="410.22821"
       id="linearGradient3695"
       xlink:href="#linearGradient3894"
       gradientUnits="userSpaceOnUse"
       gradientTransform="matrix(0.05667124,0,0,0.05667124,-6.9304046,-15.582536)" />
    <linearGradient
       x1="344.16959"
       y1="510.40009"
       x2="322.71857"
       y2="527.15009"
       id="linearGradient3700"
       xlink:href="#linearGradient3844"
       gradientUnits="userSpaceOnUse"
       gradientTransform="matrix(0.05667124,0,0,0.05667124,-6.7672693,-15.163044)" />
    <linearGradient
       x1="270.28873"
       y1="456.40485"
       x2="258.78873"
       y2="437.40485"
       id="linearGradient3703"
       xlink:href="#linearGradient3882"
       gradientUnits="userSpaceOnUse"
       gradientTransform="matrix(0.05667124,0,0,0.05667124,-6.7672693,-15.163044)" />
    <linearGradient
       x1="175.79066"
       y1="562.12231"
       x2="210.78297"
       y2="579.62231"
       id="linearGradient3706"
       xlink:href="#linearGradient3882"
       gradientUnits="userSpaceOnUse"
       gradientTransform="matrix(0.0597863,0,0,0.0597863,-7.3442289,-16.964647)" />
    <linearGradient
       x1="256.84323"
       y1="556.71069"
       x2="287.4155"
       y2="554.46808"
       id="linearGradient3709"
       xlink:href="#linearGradient3799"
       gradientUnits="userSpaceOnUse"
       gradientTransform="matrix(0.07294077,0,0,0.05484104,-10.775087,-14.193282)" />
  </defs>
  <path
     d="M 8.8734717,21.87806 C 5.8294407,21.551339 1.9752015,21.060106 0.15832641,19.072246 -0.1259207,18.685727 -0.09525384,18.604172 0.82072787,17.310521 1.0610165,16.971151 2.0696588,15.986104 2.7649683,15.411756 3.1141608,15.123307 3.1437277,15.11073 3.5583651,15.074242 c 0.3124023,-0.0275 0.555198,-0.0934 0.8840545,-0.239986 0.2493543,-0.111145 0.5100571,-0.218981 0.5793382,-0.239629 0.1130563,-0.03369 0.1224337,-0.06335 0.091473,-0.289237 -0.023329,-0.170339 -0.013704,-0.251692 0.029883,-0.251692 0.035383,0 0.065294,0.01911 0.066413,0.04249 9.167e-4,0.02337 0.065532,0.119005 0.1431319,0.212514 l 0.1410925,0.170009 -0.086459,-0.210694 c -0.098601,-0.24028 -0.1034634,-0.271011 -0.0429,-0.271011 0.023925,0 0.08133,0.06227 0.127512,0.138361 0.080331,0.13237 0.084282,0.123176 0.091377,-0.212518 0.00472,-0.222996 0.059093,-0.485129 0.1492093,-0.719239 0.077985,-0.2026 0.1593843,-0.474441 0.1808799,-0.604088 0.03465,-0.208994 0.0253,-0.240106 -0.08254,-0.274333 -0.066899,-0.02122 -0.3487717,-0.208431 -0.626396,-0.41599 C 4.542583,11.414358 3.9131721,11.010464 3.6739147,10.927061 3.5682054,10.890211 3.4173553,10.826472 3.3386921,10.78542 3.2600341,10.74435 3.1510472,10.71061 3.0965013,10.71043 c -0.1246611,-4.53e-4 -0.1239965,-0.01288 0.015308,-0.285965 0.1205316,-0.23626 0.093197,-0.279403 -0.089493,-0.141221 -0.1459873,0.110421 -0.2276067,0.109358 -0.1353862,-0.0018 0.064602,-0.07783 0.054198,-0.08372 -0.085895,-0.04856 -0.1585868,0.03978 -0.1592009,0.03887 -0.1204583,-0.180618 0.071632,-0.4058466 0.2080085,-0.7481596 0.3577036,-0.8978546 0.1174746,-0.117475 0.1257017,-0.140313 0.039554,-0.109715 -0.059858,0.02127 -0.1917103,0.09992 -0.2930103,0.174825 -0.2142098,0.15838 -0.2385608,0.102121 -0.056755,-0.131132 L 2.855499,8.9248654 2.6855685,9.0282834 c -0.1400519,0.08523 -0.1279657,0.0628 0.068726,-0.127511 0.1312612,-0.127008 0.2332672,-0.230596 0.2266855,-0.230193 -0.0066,3.94e-4 -0.1736337,0.05141 -0.3712198,0.113342 C 2.0768645,8.9509684 2.0679316,8.9224044 2.5723142,8.6641824 3.1480316,8.3694344 3.5939455,8.0359674 3.708441,7.8145528 3.796092,7.6450528 3.793896,7.6369495 3.594413,7.3935028 3.3793237,7.131017 3.1528537,6.9486067 2.9324519,6.8603325 L 2.799,6.8068817 2.940679,6.798815 C 3.018599,6.794235 3.0504765,6.777869 3.011518,6.762148 2.9019496,6.717919 2.927873,6.629113 3.039843,6.665055 3.123708,6.691959 3.12148,6.680776 3.025405,6.592437 2.7881373,6.3742762 2.6247198,6.1566246 2.7252499,6.192667 2.7970379,6.218425 2.8126119,6.203942 2.7864609,6.135779 2.7630859,6.074894 2.7735359,6.058046 2.8176729,6.085344 2.9104529,6.142682 2.9004009,6.061694 2.8011269,5.9520066 2.7555687,5.9016628 2.6763834,5.7593887 2.6251834,5.6358504 L 2.5320817,5.4112303 2.6878635,5.5529095 2.8436453,5.694584 2.7476526,5.5443982 C 2.6948618,5.4617973 2.672056,5.3852886 2.6969793,5.3743849 L 2.5941163,4.9323304 2.5579996,5.0503091 2.5310038,4.8957416 2.5157413,4.8083649 C 2.4944746,4.6949695 2.4920454,4.4271945 2.5103788,4.213315 2.5287121,3.9994309 2.5628809,3.1358819 2.5863329,2.2943145 2.6272162,0.82812654 2.6344992,0.75531114 2.7611079,0.55167534 2.9908686,0.18213744 3.1660561,0.25718504 3.6935803,0.95111944 3.8480512,1.1543198 4.0517927,1.3273535 4.3238253,1.4863843 4.5449191,1.6156288 4.8278187,1.7964726 4.9524982,1.888253 5.236892,2.0976179 5.7826439,2.6802424 5.9551777,2.9586782 c 0.089218,0.14398 0.1725245,0.2114779 0.2623022,0.2125183 0.1344007,0.00138 0.2934733,-0.1157421 0.2934733,-0.216405 0,-0.0308 0.098747,-0.00183 0.2194392,0.064185 L 6.9498317,3.1391782 7.5227671,2.9515291 C 7.9685114,2.8055416 8.1962648,2.7630403 8.5486974,2.7600749 8.9988598,2.7564083 9.0014769,2.7553999 8.9672761,2.6191438 8.9330844,2.4828959 8.9339552,2.4825934 9.106911,2.5720271 c 0.095731,0.0495 0.211423,0.1433521 0.2570914,0.2085583 0.069098,0.098651 0.1029774,0.1078862 0.2017886,0.055 0.065313,-0.034971 0.1187534,-0.085177 0.1187534,-0.1116171 0,-0.026446 0.051003,-0.061408 0.1133403,-0.077706 0.095025,-0.024842 0.113345,-0.00183 0.113345,0.14299 0,0.1492325 0.1210363,0.3190167 0.2316863,0.324997 0.03144,0.00183 0.694841,-0.8287111 0.816731,-1.0223643 C 11.207328,1.6983763 11.286175,1.5801042 11.46693,1.330911 11.579974,1.1750648 11.7671,0.88959354 11.88277,0.69653154 12.136377,0.27322754 12.462351,-0.00121626 12.710083,2.9440918e-6 12.807093,4.5674409e-4 12.91525,0.01961994 12.950421,0.04249094 c 0.0352,0.022917 0.118392,0.2407883 0.184932,0.4841983 0.129937,0.47534776 0.306307,0.85726066 0.540037,1.16940596 0.126361,0.13716 0.156326,0.3122883 0.229197,0.4763012 0.432933,0.9309974 0.610724,1.7564955 0.620235,2.8798207 0.0027,0.332422 0.01476,0.5947978 0.02654,0.5830553 0.01178,-0.011733 0.0685,-0.1562175 0.126037,-0.3210508 l 0.10459,-0.2996979 -0.01508,0.4533717 c -0.0083,0.249349 -0.03525,0.5043732 -0.05994,0.5667111 -0.04015,0.1013962 -0.03295,0.099902 0.06815,-0.014162 0.06215,-0.070134 0.137816,-0.1275121 0.168148,-0.1275121 0.03034,0 0.06849,-0.051003 0.08478,-0.1133449 0.03493,-0.1335346 0.153596,-0.1529267 0.153596,-0.025117 0,0.1933783 -0.139388,0.6317074 -0.264425,0.8315344 -0.172314,0.2753742 -0.166832,0.3026404 0.03231,0.1608329 0.208944,-0.1487833 0.279934,-0.1506487 0.147096,-0.00367 -0.05641,0.062333 -0.07624,0.1133404 -0.04405,0.1133404 0.03218,0 0.09078,-0.038867 0.130203,-0.086378 0.152078,-0.1832408 0.111865,-0.025529 -0.05071,0.1989241 -0.163028,0.2250491 -0.237608,0.403142 -0.314776,0.7516891 -0.02892,0.1305774 -0.01567,0.1558453 0.08174,0.1558453 0.06393,0 0.211056,-0.039554 0.32694,-0.087927 l 0.210694,-0.087927 -0.221002,0.2265204 c -0.195175,0.2000373 -0.205111,0.2225373 -0.08501,0.1924933 l 0.136,-0.03401 -0.141679,0.12511 -0.141679,0.125115 0.141679,-0.03433 0.141679,-0.03433 -0.133787,0.116338 c -0.07358,0.06398 -0.175595,0.117172 -0.226685,0.118189 -0.0511,9.17e-4 0.03515,0.04613 0.191641,0.100237 0.331598,0.11466 0.62453,0.310138 0.71329,0.475994 0.05944,0.111057 0.05174,0.114912 -0.15596,0.07804 -0.120165,-0.02131 -0.269489,-0.0511 -0.331827,-0.06616 -0.07326,-0.01769 -0.05763,0.0046 0.04418,0.06238 0.08664,0.04937 0.142518,0.11406 0.124167,0.143746 -0.01833,0.0297 0.0064,0.05398 0.05499,0.05398 0.136393,0 0.10542,0.07941 -0.08625,0.221117 -0.09603,0.071 -0.310339,0.337189 -0.476232,0.5915336 -0.568714,0.871927 -1.181657,1.433547 -1.921809,1.760877 l -0.317591,0.140455 0.0014,0.272307 c 0.0018,0.353249 0.13617,0.636094 0.52944,1.112895 0.175659,0.212972 0.322339,0.44249 0.325955,0.510043 0.0055,0.101933 0.04654,0.221626 0.06871,0.135863 0.103331,-0.104761 0.06374,-0.387353 0.06374,-0.387353 0,0 0.256486,0.221144 0.248681,0.432553 -0.01636,0.205657 -0.0165,0.115733 0.01797,0.240504 0.01645,0.05945 0.130206,-0.40135 0.130206,-0.40135 0,0 0.132013,0.400709 0.201285,0.450479 0.08627,0.06198 0.465989,0.302552 1.238082,0.557476 0.328257,0.108381 0.566772,0.232318 0.777667,0.404096 0.167304,0.13627 0.783057,0.489115 1.36834,0.784101 0.585283,0.294986 1.182995,0.620415 1.32825,0.723181 1.028157,0.727407 1.585891,1.140348 1.818571,1.346463 0.233996,0.20729 0.269186,0.267234 0.269186,0.45856 0,0.295563 -0.44101,0.83203 -0.943959,1.331916 -1.201915,1.1946 -2.699316,1.590231 -4.32151,1.780869 -2.221008,0.142925 -4.795723,0.297342 -6.9931587,0.06149 z"
     id="path2844"
     style="fill:#232323;fill-opacity:1" />
  <path
     d="m 9.2135021,13.468538 c -0.2653413,0.371312 -1.6190462,1.796861 -2.0566139,2.067958 0.9766738,0.07566 1.5910147,-0.466017 2.3946184,-0.287932 -0.5430383,0.252462 -2.4496179,2.265333 -2.4659987,2.705976 0.351035,-0.356861 2.5409042,-1.031907 2.6961078,-1.097577 -0.00321,0.252494 -0.794084,1.390046 -0.9235211,1.602927 -0.5420115,0.335846 -1.7433911,1.462709 -1.7083564,1.991856 1.3845831,-0.308548 3.0396498,-0.61001 3.8581488,-0.816185 0.08124,-0.774527 0.08754,-3.857814 -0.03534,-4.63043 C 10.5871,14.373712 9.8871477,13.771256 9.2135449,13.468538 l -2.29e-5,0 z"
     id="path3795-8"
     style="opacity:0.328;fill:url(#linearGradient3709);fill-opacity:1;stroke:none" />
  <path
     d="m 4.4116977,15.779195 c -0.8291603,0.279912 -2.158661,1.812219 -2.471673,2.526357 1.0454325,0.7817 1.7402791,1.273772 2.956082,1.152227 0.1630829,-0.04052 0.3523045,-1.403841 0.3607286,-1.601565 -0.028462,-0.62915 0.5576226,-1.495568 0.060999,-2.004153 -0.2619171,-0.169926 -0.5828444,-0.0786 -0.9061367,-0.07287 z"
     id="path3856-7"
     style="opacity:0.28999999;fill:url(#linearGradient3706);fill-opacity:1;stroke:none" />
  <path
     d="m 8.0066367,9.6904874 c -0.081835,0 -0.419725,0.256358 -0.419725,0.3187726 0,0.181545 0.3151891,0.692005 0.6163027,1.000604 0.3659357,0.375033 0.4367611,0.32865 0.212514,-0.139905 -0.078833,-0.164743 -0.1226537,-0.320089 -0.0974,-0.345343 0.025254,-0.02525 0.2969149,-0.06533 0.6056695,-0.08855 l 0.5614037,-0.04249 -0.4533708,-0.04428 C 8.7252154,10.319603 8.4821355,10.257597 8.2775922,10.156265 8.0051746,10.02131 7.9768315,9.9908494 7.9977818,9.8481174 c 0.012787,-0.08709 0.017279,-0.157616 0.00885,-0.157616 z"
     id="path3892-0"
     style="opacity:0.93199978;fill:url(#linearGradient3703);fill-opacity:1;stroke:none" />
  <path
     d="m 12.019664,12.083076 -0.299294,0.0974 c -0.264979,0.08638 -0.222817,0.178377 -0.377215,0.318773 -0.514709,0.468023 -0.569419,1.090981 -0.511812,1.292816 0.04848,0.413098 0.370509,1.055694 0.554314,1.402609 0.05364,0.148421 1.097379,0.61347 1.16353,0.614529 0.03291,4.58e-4 0.262435,-0.06049 0.510044,-0.136363 0.247607,-0.07586 0.405199,-0.139621 0.350654,-0.141679 -0.168835,-0.0063 0.227552,-0.485036 0.453366,-0.726099 0.14129,-0.150828 -0.266093,-0.05633 -0.476393,0.08146 -0.144195,0.09448 -0.14683,0.09392 -0.108028,-0.02832 0.04134,-0.130207 -0.04968,-0.178927 -0.09917,-0.05313 -0.01531,0.03896 -0.01325,-0.0248 0.0037,-0.141679 0.03259,-0.226502 0.15227,-0.672499 0.02479,-0.518894 -0.06821,0.08219 -0.262691,0.476782 -0.29575,0.382531 -0.03158,-0.08997 -0.04818,-0.08109 -0.127512,0.06552 l -0.09209,0.170013 -0.0018,-0.270956 c -0.0014,-0.184491 -0.05332,-0.364473 -0.159389,-0.561399 -0.280567,-0.520906 -0.287644,-0.532144 -0.317004,-0.440973 -0.01471,0.04565 -0.04107,0.121485 -0.05668,0.168239 -0.01558,0.04676 -0.02924,0.0085 -0.03185,-0.085 l 0.05136,-0.382531 -0.201889,0.382531 -0.145223,0.170014 0.03011,-0.178869 0.396698,-0.812875 c -0.213715,0.322581 -0.698252,0.898679 -0.442747,0.108028 0.08054,-0.230897 0.159073,-0.500698 0.17533,-0.598588 l 0.03011,-0.177098 z"
     id="path3946-6"
     style="opacity:0.40500004;fill:url(#linearGradient3700);fill-opacity:1;stroke:none" />
  <path
     d="M 10.852387,5.408498 10.625702,5.498817 C 10.501027,5.5488214 10.268305,5.6806225 10.106808,5.791025 9.9292101,5.9124367 9.7618918,5.98456 9.6835452,5.9734363 9.5581231,5.9556529 9.5520502,5.9771029 9.488736,6.6109911 9.452757,6.9711744 9.404916,7.3180293 9.384246,7.3831356 9.348084,7.4970352 9.466975,7.6841984 9.5755123,7.6841984 c 0.025575,0 0.1772678,-0.1171812 0.3364874,-0.2603316 l 0.2886693,-0.2603307 0,-0.4498288 c 0,-0.5477544 0.08856,-0.7802515 0.410866,-1.0802968 L 10.852387,5.408498 z"
     id="path4074-8"
     style="opacity:0.73299997;fill:url(#linearGradient3695);fill-opacity:1;stroke:none" />
  <path
     d="m 12.661675,8.4452674 c -0.06917,0.0154 -0.176361,0.157453 -0.310328,0.411801 -0.16146,0.306545 -0.477812,0.682507 -0.997818,1.1850786 -0.418608,0.404571 -0.761494,0.778674 -0.761494,0.830474 0,0.185347 0.257482,0.291733 0.907108,0.375199 0.94103,0.120903 0.996903,0.117919 1.341561,-0.04346 0.17082,-0.07999 0.499392,-0.294787 0.730463,-0.47815 0.231073,-0.183362 0.632141,-0.497658 0.890397,-0.697777 0.156949,-0.1216126 0.33106,-0.3253846 0.427294,-0.4186676 0.06212,-0.06022 -1.281569,-0.233175 -1.272332,-0.256231 0.01421,-0.03547 1.356154,0.130857 1.308139,0.08922 -0.05251,-0.04553 -0.13521,-0.123272 -0.27929,-0.15557 -0.690721,-0.154841 -2.296889,-0.458432 -0.334201,-0.247083 0.05486,0.006 -0.07235,-0.116616 -0.219611,-0.139553 -1.229421,-0.191522 -1.138995,-0.191101 -0.105037,-0.105238 0.110869,0.0092 -0.05022,-0.09309 -0.52278,-0.183024 -0.369271,-0.07029 -0.717323,-0.14409 -0.77343,-0.164725 -0.0082,-0.003 -0.01878,-0.0048 -0.02866,-0.0024 z"
     id="path4121"
     style="opacity:0.38699999;fill:url(#radialGradient3692);fill-opacity:1;stroke:none" />
  <path
     d="m 14.280977,16.096553 c -0.157115,0.0041 -0.302002,0.02223 -0.35571,0.04865 -0.159255,0.07829 -0.164617,0.30875 -0.01627,0.579251 0.06112,0.111452 0.109265,0.231141 0.109265,0.265309 0,0.03415 0.07337,0.141354 0.160416,0.236563 0.08705,0.09521 0.195858,0.236356 0.241788,0.313946 0.0459,0.07759 0.209727,0.352365 0.365009,0.612421 0.31248,0.523313 0.434905,0.812051 0.671893,1.571939 0.178809,0.573362 0.204375,0.586512 0.792784,0.411232 0.400112,-0.119198 1.071648,-0.425733 1.364704,-0.623479 0.285935,-0.19293 0.643996,-0.676785 0.643996,-0.86888 0,-0.23516 -0.367654,-0.628737 -0.990401,-1.061226 -0.3066,-0.212927 -0.573866,-0.386909 -0.595174,-0.386909 -0.02127,0 -0.283881,-0.154745 -0.583546,-0.342684 -1.011814,-0.634585 -1.24383,-0.740079 -1.650662,-0.756125 -0.05263,-0.0023 -0.105722,-0.0018 -0.158096,0 z"
     id="path4168"
     style="opacity:0.34000017;fill:url(#linearGradient3689);fill-opacity:1;stroke:none" />
  <path
     d="m 12.499941,0.44978924 -0.003,0.3442869 c -0.0029,0.25496136 0.544603,1.38929836 0.659442,1.65659146 0.498885,1.1609398 0.525588,1.2508835 0.543875,1.8599784 0.01421,0.4751133 -0.0084,0.6554818 -0.118312,0.9861155 -0.126128,0.3798282 -0.12771,0.4199287 -0.04075,0.6389375 0.181,0.4558038 0.299142,0.9217437 0.244848,0.9592634 -0.03222,0.02227 -0.01315,0.1453914 0.04661,0.3095822 0.113344,0.3111983 0.161774,0.2966729 0.336765,-0.096844 0.139779,-0.314328 0.237874,-0.6511187 0.199129,-0.6869678 -0.01584,-0.014654 -0.08343,0.025768 -0.149489,0.089571 l -0.119322,0.1157145 0.117464,-0.2576796 c 0.137904,-0.300621 0.112835,-0.3602588 -0.09386,-0.2130585 -0.08164,0.05815 -0.156908,0.096797 -0.16599,0.086574 -0.0091,-0.010205 0.0211,-0.1108061 0.06593,-0.2247254 0.04486,-0.1139167 0.0828,-0.2797526 0.08588,-0.3675341 l 0.0066,-0.1586845 -0.110647,0.1518026 C 13.85328,5.8519318 13.820209,5.7913603 13.952187,5.5464299 14.205472,5.076372 14.186337,3.8182104 13.912856,2.8455861 13.847557,2.6133693 13.8018,2.4700397 13.727194,2.3319873 13.654341,2.1971706 13.046458,1.1148641 12.880276,0.91212284 l -0.380335,-0.4623317 4.2e-5,-1.7e-6 z m 2.450473,5.43299906 c -0.0126,0.00191 -0.04242,0.039869 -0.07438,0.1012214 -0.04262,0.081783 -0.07516,0.1748215 -0.07392,0.2068251 0.0012,0.031998 0.0358,-0.00874 0.07844,-0.09045 0.04263,-0.081783 0.07697,-0.174893 0.07573,-0.2068966 -3.11e-4,-0.00799 -0.0019,-0.011286 -0.0059,-0.010705 l 6e-6,9.3e-6 z"
     id="path4215"
     style="opacity:0.772;fill:url(#linearGradient3686);fill-opacity:1;stroke:none" />
  <path
     d="m 3.7358962,8.3049304 c -0.09576,0.005 -0.3369924,0.1743 -0.3782704,0.279258 -0.023379,0.05939 0.064979,0.0311 0.2040645,-0.06556 0.1336042,-0.09283 0.2242302,-0.184311 0.204071,-0.203975 -0.00676,-0.0065 -0.016165,-0.01043 -0.029885,-0.0098 z m 0.3683195,0.138416 c -0.1699293,0 -0.6296283,0.718228 -0.6296283,0.983464 0,0.107345 0.051848,0.08786 0.2538441,-0.0947 L 3.979783,9.1038494 3.8080697,9.3491064 c -0.09507,0.134814 -0.1718809,0.362099 -0.1717198,0.50509 l 0,0.1117 c 0.00258,4.65e-4 0.00515,3.9e-4 0.00746,0.0025 0.013397,0.01307 -0.013397,0.04273 0,0.05587 0.011465,0.01118 0.03478,-0.005 0.049786,-0.0025 l 0.099546,-0.1602662 c 0.086787,-0.138899 0.173246,-0.252542 0.1916212,-0.252542 0.018355,0 0.014749,0.134457 -0.00747,0.296251 -0.025699,0.1871442 0.00908,0.4062532 0.097053,0.6022212 0.134802,0.300342 0.1420155,0.301108 0.2015782,0.111701 0.055905,-0.177701 0.059962,-0.178291 0.067194,-0.02426 0.00448,0.0926 0.052234,0.18712 0.1070111,0.211265 0.1406177,0.06197 1.0990461,0.431977 1.5351981,0.318151 0.411297,-0.107334 0.3209352,-0.677456 0.2392168,-1.102499 C 6.1467867,9.6173754 5.5279076,9.0509814 4.7985527,8.7177904 4.4689992,8.5672394 4.1561656,8.4433914 4.1042221,8.4433914 z"
     id="path2839-2"
     style="opacity:0.672;fill:url(#radialGradient3683);fill-opacity:1;stroke:none" />
  <path
     d="m 8.9717466,2.9576845 c -0.02475,-0.0066 -0.043175,0.031808 -0.079695,0.1275075 C 8.8421296,3.2159857 8.8160966,3.2353448 8.7769375,3.171973 8.7492545,3.127194 8.7088195,3.109035 8.6866185,3.131227 8.6643895,3.15341 8.6115615,3.142914 8.5697352,3.108219 8.5114262,3.059828 8.4935782,3.06784 8.4935782,3.138331 c 0,0.1148437 -0.024567,0.1132716 -0.2001157,-0.00183 C 8.16183,3.050252 8.1552987,3.051214 8.1907414,3.143561 c 0.0297,0.077357 0.013612,0.09152 -0.070835,0.067302 C 8.0606452,3.1938537 7.8716157,3.2247912 7.700182,3.2781504 7.4538159,3.3548113 7.3855752,3.4018125 7.3707802,3.5048358 7.3540969,3.621137 7.3447927,3.625152 7.2840049,3.5420067 7.214967,3.4475863 6.5722871,3.2070776 6.522485,3.2568792 c -0.014896,0.014896 0.033458,0.075927 0.1080283,0.1363625 0.1598106,0.1295608 0.114248,0.2139207 -0.063753,0.118657 -0.1138584,-0.060931 -0.1194591,-0.054679 -0.081463,0.067302 0.039875,0.1280108 0.036804,0.1279053 -0.070839,0.0319 -0.134364,-0.119867 -0.1877228,-0.078063 -0.1877228,0.1452221 0,0.1489988 -0.00921,0.1591096 -0.092092,0.090319 -0.083068,-0.068943 -0.088687,-0.064478 -0.051361,0.05313 0.038179,0.1202245 0.03025,0.126962 -0.07792,0.069062 -0.144641,-0.077404 -0.1529643,-0.021634 -0.01948,0.1292809 0.096474,0.1090687 0.094934,0.1112504 -0.056668,0.074378 -0.1483294,-0.036071 -0.1558459,-0.029104 -0.1558459,0.1664741 0,0.1593754 -0.019067,0.1988507 -0.085006,0.1735516 -0.061944,-0.023787 -0.085529,0.00816 -0.090323,0.1204308 -0.00495,0.1162875 -0.014117,0.1281354 -0.035429,0.044275 -0.024567,-0.096653 -0.038362,-0.089283 -0.1027164,0.056668 -0.072842,0.1652641 -0.073461,0.164352 -0.079694,0.024796 -0.011504,-0.2577696 -0.1058146,0.00587 -0.1221953,0.3417949 -0.00834,0.1712591 -0.040929,0.3276508 -0.072608,0.3488854 -0.031717,0.021221 0.017921,0.05588 0.1097974,0.076148 0.091886,0.020258 0.4597463,0.1224841 0.8181925,0.2266854 0.6767686,0.196738 1.1455668,0.2153922 1.427096,0.1094905 C 7.6986663,5.8021916 8.0114078,5.4868517 8.0115637,5.3870688 8.0118432,5.2098743 8.6460896,4.432546 9.136975,4.2256194 9.6160125,4.0236887 9.8220912,3.7644387 9.9829699,3.5048312 10.089064,3.3336271 10.087831,3.3318396 9.5561633,3.2551238 9.39804,3.2322988 9.264038,3.1780229 9.2338475,3.1240734 c -0.028371,-0.050673 -0.069456,-0.073993 -0.092092,-0.051361 -0.022642,0.022642 -0.073627,-0.00275 -0.113345,-0.056668 -0.024658,-0.033596 -0.0418,-0.054496 -0.056668,-0.058447 l 4.5e-6,7.8e-5 z"
     id="path2873"
     style="opacity:0.54900004;fill:url(#linearGradient3680);fill-opacity:1;stroke:none" />
  <path
     d="m 3.0496004,0.62884954 -0.058441,0.1523033 C 2.9182214,0.97232284 3.0515484,1.2696136 3.3772338,1.6418464 4.044191,2.4041404 5.0316585,4.2853293 5.0384096,4.8048091 5.0407011,4.9634787 5.4522035,4.3565122 5.6275468,4.0686805 5.8737612,3.6645073 5.9685439,3.3854848 5.4449156,2.6903312 4.9760806,2.0679188 4.6436172,2.1333322 3.4516154,1.0078382 L 3.0496004,0.62884954 z"
     id="path3705"
     style="opacity:0.45899999;fill:url(#linearGradient3677);fill-opacity:1;stroke:none" />
  <path
     d="m 3.0651653,1.7086797 c -0.011137,-0.00137 -0.018608,0.00798 -0.030112,0.019479 -0.018929,0.018929 0.085762,0.227602 0.2319975,0.4622257 0.1462348,0.2346237 0.2720463,0.4695179 0.279815,0.522437 0.00779,0.052919 0.085235,0.1684725 0.1735559,0.2567933 C 3.9682178,3.217411 3.8121607,3.158428 3.4654022,2.8739847 3.0027451,2.4944688 2.8843997,2.55027 3.3148679,2.9448246 3.5104051,3.1240449 3.7708145,3.3551532 3.893977,3.4584066 4.0213102,3.5651562 4.0682295,3.6302432 4.0037791,3.6089399 3.5244988,3.4504958 3.1327641,3.545864 2.9163958,3.8728144 2.7477945,4.1275956 2.7735801,4.1991177 2.9978636,4.097726 l 0.155846,-0.07084 -0.146991,0.161162 c -0.081743,0.088293 -0.1506027,0.1976417 -0.1523077,0.2443954 -0.00183,0.04675 -0.040654,0.1870129 -0.086775,0.3116879 l -0.044275,0.1452211 -0.030112,0.095636 0,0.010633 c 0.00275,0 9.167e-4,0.00183 0,0.00532 -3.941e-4,-0.00183 0,-0.00412 0,-0.00532 -0.00137,0 -0.00275,9.166e-4 -0.00367,0.00183 l -0.00183,0.00532 c -5.5e-5,4.583e-4 0,0.00137 0,0.00183 0,0.00495 0.00183,0.010633 0.00532,0.010633 -0.00229,-0.00229 -0.00137,-0.00798 0,-0.012375 0.00138,0.00633 0.00481,0.012375 0,0.012375 0.00472,0.00477 0.014758,-0.00477 0.019479,0 0.018975,0.091401 0.079726,0.2483508 0.1091559,0.333665 0.013063,-0.019846 0.028004,-0.044733 0.030754,-0.043221 0.040654,-0.04455 0.1134504,-0.1418854 0.1824108,-0.2497075 0.1920723,-0.3003157 0.365807,-0.4991628 0.4976455,-0.570254 0.07012,-0.037813 0.04939,0.034742 -0.077925,0.2815836 -0.3336544,0.646942 -0.1192522,0.4680379 0.3170001,-0.2656433 0.259181,-0.4358816 0.4231623,-0.7711544 0.3984722,-0.8111065 -0.025667,-0.041525 -0.018058,-0.053323 0.019479,-0.030113 0.033825,0.0209 0.077522,0.010908 0.097404,-0.021267 C 4.3068365,3.6069965 4.1987762,3.4098874 4.0460924,3.1999679 3.8934089,2.9900475 3.6221463,2.5751437 3.4421876,2.2790584 3.1624138,1.8187339 3.098353,1.7135014 3.0649728,1.7088035 l 0,9.1e-6 z M 2.6507571,4.7990341 c -2.842e-4,0.017142 4.583e-4,0.032908 0.00183,0.035429 9.167e-4,0.00229 0.00367,0.00367 0.00532,0.00532 l -0.0071,-0.040746 z m 0.019479,0.1204263 c -4.538e-4,0.00137 3.391e-4,0.00137 0,0.00367 5.95e-5,-4.583e-4 0.00183,-9.166e-4 0.00183,-0.00183 l -0.00183,-0.00183 0,-4.6e-6 z m 0,0.012421 c -9.166e-4,0.00798 -0.00183,0.016042 0.00183,0.023008 9.167e-4,0.00183 0.00321,0.00229 0.00532,0.00183 l -0.00367,-0.023008 c -4.538e-4,3.987e-4 -9.167e-4,0.00183 -0.00183,0.00183 -0.00138,0 -0.00138,-0.00229 -0.00183,-0.00367 l 0,9.2e-6 z"
     id="path3752"
     style="opacity:0.60799997;fill:url(#linearGradient3674);fill-opacity:1;stroke:none" />
  <path
     d="M 7.217,7.7500991 C 7.217,8.02624 6.9931409,8.2500994 6.7169999,8.2500994 6.440859,8.2500994 6.217,8.02624 6.217,7.7500991 c 0,-0.276141 0.223859,-0.4999997 0.4999999,-0.4999997 0.276141,0 0.5000001,0.2238587 0.5000001,0.4999997 z"
     id="path3725"
     style="opacity:0.45100002;color:#000000;fill:#ffffff;fill-opacity:1;fill-rule:nonzero;stroke:none;stroke-width:0.93047386;marker:none;visibility:visible;display:inline;overflow:visible;enable-background:accumulate" />
  <path
     d="m 12.000006,7.7500992 c 0,0.2761408 -0.223859,0.5000002 -0.5,0.5000002 -0.276142,0 -0.5,-0.2238594 -0.5,-0.5000002 0,-0.2761411 0.223858,-0.4999999 0.5,-0.4999999 0.276141,0 0.5,0.2238588 0.5,0.4999999 z"
     id="path3725-8"
     style="opacity:0.45100002;color:#000000;fill:#ffffff;fill-opacity:1;fill-rule:nonzero;stroke:none;stroke-width:0.93047386;marker:none;visibility:visible;display:inline;overflow:visible;enable-background:accumulate" />
</svg>
