<?xml version="1.0" encoding="UTF-8" standalone="no"?>
<!-- Created with Inkscape (http://www.inkscape.org/) -->

<svg
   xmlns:dc="http://purl.org/dc/elements/1.1/"
   xmlns:cc="http://creativecommons.org/ns#"
   xmlns:rdf="http://www.w3.org/1999/02/22-rdf-syntax-ns#"
   xmlns:svg="http://www.w3.org/2000/svg"
   xmlns="http://www.w3.org/2000/svg"
   xmlns:xlink="http://www.w3.org/1999/xlink"
   xmlns:sodipodi="http://sodipodi.sourceforge.net/DTD/sodipodi-0.dtd"
   xmlns:inkscape="http://www.inkscape.org/namespaces/inkscape"
   version="1.0"
   width="64"
   height="64"
   id="svg2"
   inkscape:version="0.47pre4 r22446"
   sodipodi:docname="computer.svg">
  <metadata
     id="metadata69">
    <rdf:RDF>
      <cc:Work
         rdf:about="">
        <dc:format>image/svg+xml</dc:format>
        <dc:type
           rdf:resource="http://purl.org/dc/dcmitype/StillImage" />
        <dc:title />
      </cc:Work>
    </rdf:RDF>
  </metadata>
  <sodipodi:namedview
     pagecolor="#000000"
     bordercolor="#666666"
     borderopacity="1"
     objecttolerance="10"
     gridtolerance="10"
     guidetolerance="10"
     inkscape:pageopacity="1"
     inkscape:pageshadow="2"
     inkscape:window-width="1024"
     inkscape:window-height="691"
     id="namedview67"
     showgrid="false"
     inkscape:showpageshadow="false"
     inkscape:zoom="4"
     inkscape:cx="29.894676"
     inkscape:cy="30.567936"
     inkscape:window-x="0"
     inkscape:window-y="24"
     inkscape:window-maximized="1"
     inkscape:current-layer="svg2"
     inkscape:snap-nodes="false" />
  <defs
     id="defs4">
    <linearGradient
       inkscape:collect="always"
       id="linearGradient3783">
      <stop
         style="stop-color:#ffffff;stop-opacity:1;"
         offset="0"
         id="stop3785" />
      <stop
         style="stop-color:#ffffff;stop-opacity:0.85"
         offset="1"
         id="stop3787" />
    </linearGradient>
    <inkscape:perspective
       sodipodi:type="inkscape:persp3d"
       inkscape:vp_x="0 : 32 : 1"
       inkscape:vp_y="0 : 1000 : 0"
       inkscape:vp_z="64 : 32 : 1"
       inkscape:persp3d-origin="32 : 21.333333 : 1"
       id="perspective71" />
    <linearGradient
       id="linearGradient3215">
      <stop
         id="stop3217"
         style="stop-color:#505050;stop-opacity:1"
         offset="0" />
      <stop
         id="stop3219"
         style="stop-color:#a0a0a0;stop-opacity:1"
         offset="0.35046947" />
      <stop
         id="stop3221"
         style="stop-color:#aaa;stop-opacity:1"
         offset="0.55130547" />
      <stop
         id="stop3223"
         style="stop-color:#bebebe;stop-opacity:1"
         offset="0.69074172" />
      <stop
         id="stop3225"
         style="stop-color:#6e6e6e;stop-opacity:1"
         offset="1" />
    </linearGradient>
    <linearGradient
       id="linearGradient3203">
      <stop
         id="stop3205"
         style="stop-color:#787878;stop-opacity:1"
         offset="0" />
      <stop
         id="stop3207"
         style="stop-color:#bebebe;stop-opacity:1"
         offset="0.35046947" />
      <stop
         id="stop3209"
         style="stop-color:#c8c8c8;stop-opacity:1"
         offset="0.55130541" />
      <stop
         id="stop3211"
         style="stop-color:#e6e6e6;stop-opacity:1"
         offset="0.68275177" />
      <stop
         id="stop3213"
         style="stop-color:#8c8c8c;stop-opacity:1"
         offset="1" />
    </linearGradient>
    <linearGradient
       id="linearGradient10691">
      <stop
         id="stop10693"
         style="stop-color:#ffffff;stop-opacity:1;"
         offset="0" />
      <stop
         id="stop10695"
         style="stop-color:#ffffff;stop-opacity:0;"
         offset="1" />
    </linearGradient>
    <linearGradient
       id="linearGradient6544">
      <stop
         id="stop6546"
         style="stop-color:#f0f0f0;stop-opacity:1"
         offset="0" />
      <stop
         id="stop6548"
         style="stop-color:#d2d2d2;stop-opacity:1"
         offset="1" />
    </linearGradient>
    <linearGradient
       id="linearGradient6568">
      <stop
         id="stop6570"
         style="stop-color:#430d0d;stop-opacity:1"
         offset="0" />
      <stop
         id="stop6572"
         style="stop-color:#643314;stop-opacity:1"
         offset="1" />
    </linearGradient>
    <linearGradient
       id="linearGradient6560">
      <stop
         id="stop6562"
         style="stop-color:#a14c13;stop-opacity:1"
         offset="0" />
      <stop
         id="stop6564"
         style="stop-color:#6b0c0c;stop-opacity:1"
         offset="1" />
    </linearGradient>
    <linearGradient
       id="linearGradient4574">
      <stop
         id="stop4576"
         style="stop-color:#282828;stop-opacity:1"
         offset="0" />
      <stop
         id="stop4578"
         style="stop-color:#5a5c58;stop-opacity:1"
         offset="1" />
    </linearGradient>
    <linearGradient
       id="linearGradient6592">
      <stop
         id="stop6594"
         style="stop-color:white;stop-opacity:0.27450982"
         offset="0" />
      <stop
         id="stop6596"
         style="stop-color:white;stop-opacity:0"
         offset="1" />
    </linearGradient>
    <linearGradient
       id="linearGradient6602">
      <stop
         id="stop6604"
         style="stop-color:white;stop-opacity:1"
         offset="0" />
      <stop
         id="stop6606"
         style="stop-color:white;stop-opacity:0"
         offset="1" />
    </linearGradient>
    <radialGradient
       cx="5.9687753"
       cy="-0.64647216"
       r="19.999998"
       fx="5.9687753"
       fy="-0.64647216"
       id="radialGradient2992"
       xlink:href="#linearGradient6602"
       gradientUnits="userSpaceOnUse"
       gradientTransform="matrix(1.9085306,-0.01048139,0.00330842,0.69841009,-1.1188459,10.059823)" />
    <linearGradient
       x1="12.9375"
       y1="8.4375"
       x2="15.25"
       y2="19.8125"
       id="linearGradient2995"
       xlink:href="#linearGradient6592"
       gradientUnits="userSpaceOnUse"
       gradientTransform="matrix(1.1907193,0,0,1.3503848,3.4277403,1.9329937)" />
    <linearGradient
       x1="316.86465"
       y1="85.620255"
       x2="319.38727"
       y2="93.916313"
       id="linearGradient3056"
       xlink:href="#linearGradient4574"
       gradientUnits="userSpaceOnUse"
       gradientTransform="matrix(1.1428573,0,0,0.93704324,-333.71433,-28.522762)" />
    <radialGradient
       cx="6.702713"
       cy="73.615715"
       r="7.228416"
       fx="6.702713"
       fy="73.615715"
       id="radialGradient3063"
       xlink:href="#linearGradient10691"
       gradientUnits="userSpaceOnUse"
       gradientTransform="matrix(4.1786292,-0.06327181,0.00432322,0.28547889,3.6735942,39.908361)" />
    <radialGradient
       cx="12.244348"
       cy="4.8630676"
       r="20.999998"
       fx="12.244348"
       fy="4.8630676"
       id="radialGradient3066"
       xlink:href="#linearGradient6560"
       gradientUnits="userSpaceOnUse"
       gradientTransform="matrix(1.6532275,0.0228347,-0.0153928,1.2764574,-2.2151357,7.2015446)" />
    <linearGradient
       x1="24.875"
       y1="29"
       x2="24.999996"
       y2="3.0000005"
       id="linearGradient3068"
       xlink:href="#linearGradient6568"
       gradientUnits="userSpaceOnUse"
       gradientTransform="matrix(1.195366,0,0,1.2793124,3.3162172,2.0395958)" />
    <radialGradient
       cx="-6.7749066"
       cy="5.4763622"
       r="22.999998"
       fx="-6.7749066"
       fy="5.4763622"
       id="radialGradient3071"
       xlink:href="#linearGradient6602"
       gradientUnits="userSpaceOnUse"
       gradientTransform="matrix(1.2429955,0,0,1.0053067,4.0428958,8.4574917)" />
    <linearGradient
       x1="20.147005"
       y1="-0.00049710274"
       x2="20.103531"
       y2="31.98299"
       id="linearGradient3074"
       xlink:href="#linearGradient6544"
       gradientUnits="userSpaceOnUse"
       gradientTransform="matrix(1.1721192,0,0,1.2270921,3.8688117,2.8668381)" />
    <radialGradient
       cx="24.000004"
       cy="38.641167"
       r="7.9999971"
       fx="24.000004"
       fy="38.641167"
       id="radialGradient3077"
       xlink:href="#linearGradient6602"
       gradientUnits="userSpaceOnUse"
       gradientTransform="matrix(2.2859785,-3.1440359e-8,0,0.43815044,-22.903193,33.06937)" />
    <linearGradient
       x1="320.03125"
       y1="85.028099"
       x2="320.03125"
       y2="94.126122"
       id="linearGradient3080"
       xlink:href="#linearGradient3203"
       gradientUnits="userSpaceOnUse"
       gradientTransform="matrix(1.2308346,0,0,1.0001443,-361.90554,-44.012763)" />
    <linearGradient
       x1="22.380917"
       y1="29.027483"
       x2="22.380917"
       y2="38.126816"
       id="linearGradient3082"
       xlink:href="#linearGradient3215"
       gradientUnits="userSpaceOnUse"
       gradientTransform="matrix(1.2352706,0,0,1.0000006,2.3535127,12.000104)" />
    <radialGradient
       cx="6.702713"
       cy="73.615715"
       r="7.228416"
       fx="6.702713"
       fy="73.615715"
       id="radialGradient3085"
       xlink:href="#linearGradient10691"
       gradientUnits="userSpaceOnUse"
       gradientTransform="matrix(1.9368007,0,0,0.5533716,19.018182,8.2631533)" />
    <linearGradient
       id="linearGradient6602-3">
      <stop
         id="stop6604-5"
         style="stop-color:#ffffff;stop-opacity:0.90114069;"
         offset="0" />
      <stop
         id="stop6606-8"
         style="stop-color:#ffffff;stop-opacity:0.26274511;"
         offset="1" />
    </linearGradient>
    <linearGradient
       x1="327.1875"
       y1="79.993057"
       x2="327.1875"
       y2="86.1875"
       id="linearGradient4427"
       xlink:href="#linearGradient6602-3"
       gradientUnits="userSpaceOnUse"
       gradientTransform="translate(-292,-25.6875)" />
    <linearGradient
       x1="145.43718"
       y1="372.66776"
       x2="145.43718"
       y2="416.82895"
       id="linearGradient4430"
       xlink:href="#linearGradient6544"
       gradientUnits="userSpaceOnUse"
       gradientTransform="matrix(0.23107685,0,0,0.18490844,-1.6071628,-15.992308)" />
    <filter
       inkscape:collect="always"
       id="filter3649">
      <feGaussianBlur
         inkscape:collect="always"
         stdDeviation="0.15030434"
         id="feGaussianBlur3651" />
    </filter>
    <radialGradient
       gradientTransform="matrix(1.3236902,-4.4149302e-8,4.6758856e-8,1.4019302,-3.4122575,-5.2396272)"
       gradientUnits="userSpaceOnUse"
       xlink:href="#linearGradient3584"
       id="radialGradient2855"
       fy="11.482934"
       fx="11.376413"
       r="9.936264"
       cy="11.482934"
       cx="11.376413" />
    <radialGradient
       gradientTransform="matrix(1.3236902,-4.4149302e-8,4.6758856e-8,1.4019302,-3.4122575,-5.2396272)"
       gradientUnits="userSpaceOnUse"
       xlink:href="#linearGradient3584"
       id="radialGradient2852"
       fy="11.482934"
       fx="11.376413"
       r="9.936264"
       cy="11.482934"
       cx="11.376413" />
    <radialGradient
       gradientTransform="matrix(1.3236902,-4.4149302e-8,4.6758856e-8,1.4019302,-3.4122575,-5.2396272)"
       gradientUnits="userSpaceOnUse"
       xlink:href="#linearGradient3584"
       id="radialGradient2849"
       fy="11.482934"
       fx="11.376413"
       r="9.936264"
       cy="11.482934"
       cx="11.376413" />
    <radialGradient
       gradientTransform="matrix(1.3236902,-4.4149302e-8,4.6758856e-8,1.4019302,-3.4122575,-5.2396272)"
       gradientUnits="userSpaceOnUse"
       xlink:href="#linearGradient3584-2"
       id="radialGradient2914-99"
       fy="11.482934"
       fx="11.376413"
       r="9.936264"
       cy="11.482934"
       cx="11.376413" />
    <linearGradient
       id="linearGradient3584-2">
      <stop
         offset="0"
         style="stop-color:#f19765;stop-opacity:1"
         id="stop3586-57" />
      <stop
         offset="1"
         style="stop-color:#de1000;stop-opacity:1"
         id="stop3588-4" />
    </linearGradient>
    <radialGradient
       gradientTransform="matrix(1.3236902,-4.4149302e-8,4.6758856e-8,1.4019302,-3.4122575,-5.2396272)"
       gradientUnits="userSpaceOnUse"
       xlink:href="#linearGradient3584-2"
       id="radialGradient3590-9"
       fy="11.482934"
       fx="11.376413"
       r="9.936264"
       cy="11.482934"
       cx="11.376413" />
    <radialGradient
       gradientTransform="matrix(1.3236902,-4.4149302e-8,4.6758856e-8,1.4019302,-3.4122575,-5.2396272)"
       gradientUnits="userSpaceOnUse"
       xlink:href="#linearGradient3584-7"
       id="radialGradient2914-9"
       fy="11.482934"
       fx="11.376413"
       r="9.936264"
       cy="11.482934"
       cx="11.376413" />
    <linearGradient
       id="linearGradient3584-7">
      <stop
         offset="0"
         style="stop-color:#f19765;stop-opacity:1"
         id="stop3586-9" />
      <stop
         offset="1"
         style="stop-color:#de1000;stop-opacity:1"
         id="stop3588-3" />
    </linearGradient>
    <radialGradient
       gradientTransform="matrix(1.3236902,-4.4149302e-8,4.6758856e-8,1.4019302,-3.4122575,-5.2396272)"
       gradientUnits="userSpaceOnUse"
       xlink:href="#linearGradient3584-7"
       id="radialGradient3590-4"
       fy="11.482934"
       fx="11.376413"
       r="9.936264"
       cy="11.482934"
       cx="11.376413" />
    <radialGradient
       gradientTransform="matrix(1.3236902,-4.4149302e-8,4.6758856e-8,1.4019302,-3.4122575,-5.2396272)"
       gradientUnits="userSpaceOnUse"
       xlink:href="#linearGradient3584-6"
       id="radialGradient2914"
       fy="11.482934"
       fx="11.376413"
       r="9.936264"
       cy="11.482934"
       cx="11.376413" />
    <linearGradient
       id="linearGradient3584-6">
      <stop
         offset="0"
         style="stop-color:#f19765;stop-opacity:1"
         id="stop3586-5" />
      <stop
         offset="1"
         style="stop-color:#de1000;stop-opacity:1"
         id="stop3588-2" />
    </linearGradient>
    <radialGradient
       gradientTransform="matrix(1.3236902,-4.4149302e-8,4.6758856e-8,1.4019302,-3.4122575,-5.2396272)"
       gradientUnits="userSpaceOnUse"
       xlink:href="#linearGradient3584-6"
       id="radialGradient3590-2"
       fy="11.482934"
       fx="11.376413"
       r="9.936264"
       cy="11.482934"
       cx="11.376413" />
    <radialGradient
       gradientTransform="matrix(1.3236902,-4.4149302e-8,4.6758856e-8,1.4019302,-3.4122575,-5.2396272)"
       gradientUnits="userSpaceOnUse"
       xlink:href="#linearGradient3584-3"
       id="radialGradient2875"
       fy="11.482934"
       fx="11.376413"
       r="9.936264"
       cy="11.482934"
       cx="11.376413" />
    <linearGradient
       id="linearGradient3584-3">
      <stop
         offset="0"
         style="stop-color:#f19765;stop-opacity:1"
         id="stop3586-3" />
      <stop
         offset="1"
         style="stop-color:#de1000;stop-opacity:1"
         id="stop3588-8" />
    </linearGradient>
    <radialGradient
       gradientTransform="matrix(1.3236902,-4.4149302e-8,4.6758856e-8,1.4019302,-3.4122575,-5.2396272)"
       gradientUnits="userSpaceOnUse"
       xlink:href="#linearGradient3584-3"
       id="radialGradient3590-3"
       fy="11.482934"
       fx="11.376413"
       r="9.936264"
       cy="11.482934"
       cx="11.376413" />
    <radialGradient
       gradientTransform="matrix(1.3236902,-4.4149302e-8,4.6758856e-8,1.4019302,-3.4122575,-5.2396272)"
       gradientUnits="userSpaceOnUse"
       xlink:href="#linearGradient3584"
       id="radialGradient3590"
       fy="11.482934"
       fx="11.376413"
       r="9.936264"
       cy="11.482934"
       cx="11.376413" />
    <linearGradient
       id="linearGradient3584">
      <stop
         offset="0"
         style="stop-color:#f19765;stop-opacity:1"
         id="stop3586" />
      <stop
         offset="1"
         style="stop-color:#de1000;stop-opacity:1"
         id="stop3588" />
    </linearGradient>
    <inkscape:perspective
       id="perspective3752"
       inkscape:persp3d-origin="12 : 8 : 1"
       inkscape:vp_z="24 : 12 : 1"
       inkscape:vp_y="0 : 1000 : 0"
       inkscape:vp_x="0 : 12 : 1"
       sodipodi:type="inkscape:persp3d" />
    <linearGradient
       inkscape:collect="always"
       xlink:href="#linearGradient3783"
       id="linearGradient3789"
       x1="21.680222"
       y1="13.951933"
       x2="38.566532"
       y2="34.590942"
       gradientUnits="userSpaceOnUse" />
  </defs>
  <path
     d="m 46,49 c 0,2.20914 -6.268014,4 -14.000001,4 C 24.268013,53 18,51.20914 18,49 18,46.790861 24.268013,45 31.999999,45 39.731986,45 46,46.790861 46,49 l 0,0 z"
     id="path2589"
     style="opacity:0.5;fill:url(#radialGradient3085);fill-opacity:1;fill-rule:nonzero;stroke:none;stroke-width:0.80000001;marker:none;visibility:visible;display:inline;overflow:visible" />
  <path
     d="m 25.5,41.499139 c 0,0 0,4.001004 0,4.001004 -0.0272,1.802231 -2.616175,3.000431 -2.616175,3.000431 -0.924798,0.08844 -1.384689,0.446073 -1.384689,1.000151 0,0.554081 0.622588,1.00014 1.384689,1.00014 l 18.232346,0 c 0.762101,0 1.38469,-0.446059 1.38469,-1.00014 0,-0.554078 -0.459891,-0.911711 -1.38469,-1.000151 0,0 -2.588969,-1.1982 -2.616171,-3.000431 0,0 0,-4.001004 0,-4.001004 l -13,0 z"
     id="path4675"
     style="fill:url(#linearGradient3080);fill-opacity:1;stroke:url(#linearGradient3082);stroke-width:0.99827486;stroke-linecap:round;stroke-linejoin:round;stroke-miterlimit:4;stroke-opacity:1;stroke-dasharray:none;stroke-dashoffset:0.50000001;display:inline;enable-background:new"
     sodipodi:nodetypes="cccsccscccc" />
  <rect
     width="20.001549"
     height="1"
     rx="0.44444439"
     ry="0.50000012"
     x="21.959534"
     y="49"
     id="rect4703"
     style="opacity:0.8;fill:url(#radialGradient3077);fill-opacity:1;stroke:none;display:inline;enable-background:new" />
  <rect
     width="54.999966"
     height="37.999966"
     rx="1.0016291"
     ry="1.0010487"
     x="4.5000172"
     y="3.5000172"
     id="rect2722"
     style="fill:none;fill-opacity:1;stroke:#aaa;stroke-width:1.00003397000000005;stroke-linecap:round;stroke-linejoin:round;stroke-miterlimit:4;stroke-opacity:1;stroke-dasharray:none;stroke-dashoffset:0.50000001000000005" />
  <rect
     width="52.999935"
     height="35.999931"
     rx="0"
     ry="0"
     x="5.5000329"
     y="4.5000324"
     id="rect4642"
     style="fill:none;stroke:url(#radialGradient3071);stroke-width:1.00006544999999991;stroke-linecap:round;stroke-linejoin:round;stroke-miterlimit:4;stroke-opacity:1;stroke-dasharray:none;stroke-dashoffset:0.50000001000000005;display:inline;enable-background:new" />
  <path
     d="M 61,60.5 C 61,61.328428 48.016256,62 31.999997,62 15.983741,62 3,61.328428 3,60.5 3,59.671572 15.983741,59 31.999997,59 48.016256,59 61,59.671572 61,60.5 l 0,0 z"
     id="path6096"
     style="opacity:0.50000000000000000;fill:url(#radialGradient3063);fill-opacity:1;fill-rule:nonzero;stroke:none;stroke-width:0.80000000999999998;marker:none;visibility:visible;display:inline;overflow:visible" />
  <path
     d="m 9.6794976,53.498597 c -1.0338545,0.259789 -1.3445012,1.469494 -1.9891605,2.218723 -0.7131504,1.089334 -1.4959768,2.1389 -2.1641655,3.253896 -0.3246299,0.978706 0.5183091,1.772002 1.5002481,1.530782 16.8286623,0 33.6573253,0 50.4859873,0 1.255736,0.01982 1.215097,-1.628638 0.489676,-2.263542 -1.083831,-1.49342 -2.086918,-3.061985 -3.220505,-4.508876 -1.062487,-0.451003 -2.295967,-0.137808 -3.435996,-0.230973 -13.888636,-7e-6 -27.777742,1.3e-5 -41.6660844,-1e-5 z"
     id="path3698"
     style="fill:none;fill-opacity:1;stroke:#d7d7d7;stroke-width:1;stroke-linecap:square;stroke-linejoin:miter;stroke-miterlimit:4;stroke-opacity:1;stroke-dasharray:none;stroke-dashoffset:0.36120000000000002;display:inline;enable-background:new;filter:url(#filter3649)" />
  <path
     d="m 6.9998979,5.9841482 50.0102041,0 0,10.8030808 -50.0102041,9.452696 0,-20.2557768 z"
     id="rect6588"
     style="fill:url(#linearGradient2995);fill-opacity:1;stroke:none;opacity:0.9" />
  <path
     d="m 12.28125,54.3125 c -1.059958,0.567844 0.776661,1.702753 0.71875,0.447088 0.0979,-0.491282 -0.395105,-0.463439 -0.71875,-0.447088 z m 2,0 c -1.059958,0.567844 0.776661,1.702753 0.71875,0.447088 0.0979,-0.491282 -0.395105,-0.463439 -0.71875,-0.447088 z m 2,0 c -1.059958,0.567844 0.776661,1.702753 0.71875,0.447088 0.0979,-0.491282 -0.395105,-0.463439 -0.71875,-0.447088 z m 2,0 c -1.059958,0.567844 0.776661,1.702753 0.71875,0.447088 0.0979,-0.491282 -0.395105,-0.463439 -0.71875,-0.447088 z m 2,0 c -1.059958,0.567844 0.776661,1.702753 0.71875,0.447088 0.0979,-0.491282 -0.395105,-0.463439 -0.71875,-0.447088 z m 2,0 c -1.059958,0.567844 0.776661,1.702753 0.71875,0.447088 0.0979,-0.491282 -0.395105,-0.463439 -0.71875,-0.447088 z m 2,0 c -1.059958,0.567844 0.776661,1.702753 0.71875,0.447088 0.0979,-0.491282 -0.395105,-0.463439 -0.71875,-0.447088 z m 2,0 c -1.059958,0.567844 0.776661,1.702753 0.71875,0.447088 0.0979,-0.491282 -0.395105,-0.463439 -0.71875,-0.447088 z m 2,0 c -1.059958,0.567844 0.776661,1.702753 0.71875,0.447088 0.0979,-0.491282 -0.395105,-0.463439 -0.71875,-0.447088 z m 2,0 c -1.059958,0.567844 0.776661,1.702753 0.71875,0.447088 0.0979,-0.491282 -0.395105,-0.463439 -0.71875,-0.447088 z m 2,0 c -1.059958,0.567844 0.776661,1.702753 0.71875,0.447088 0.0979,-0.491282 -0.395105,-0.463439 -0.71875,-0.447088 z m 2,0 c -1.059958,0.567844 0.776661,1.702753 0.71875,0.447088 0.0979,-0.491282 -0.395105,-0.463439 -0.71875,-0.447088 z m 2,0 c -1.059958,0.567844 0.776661,1.702753 0.71875,0.447088 0.0979,-0.491282 -0.395105,-0.463439 -0.71875,-0.447088 z m 4,0 c -1.059958,0.567844 0.776661,1.702753 0.71875,0.447088 0.0979,-0.491282 -0.395105,-0.463439 -0.71875,-0.447088 z m 2,0 c -1.059958,0.567844 0.776661,1.702753 0.71875,0.447088 0.0979,-0.491282 -0.395105,-0.463439 -0.71875,-0.447088 z m 2,0 c -1.059958,0.567844 0.776661,1.702753 0.71875,0.447088 0.0979,-0.491282 -0.395105,-0.463439 -0.71875,-0.447088 z m -33,1 c -1.059958,0.567844 0.776661,1.702753 0.71875,0.447088 0.0979,-0.491282 -0.395105,-0.463439 -0.71875,-0.447088 z m 2,0 c -1.059958,0.567844 0.776661,1.702753 0.71875,0.447088 0.0979,-0.491282 -0.395105,-0.463439 -0.71875,-0.447088 z m 2,0 c -1.059958,0.567844 0.776661,1.702753 0.71875,0.447088 0.0979,-0.491282 -0.395105,-0.463439 -0.71875,-0.447088 z m 2,0 c -1.059958,0.567844 0.776661,1.702753 0.71875,0.447088 0.0979,-0.491282 -0.395105,-0.463439 -0.71875,-0.447088 z m 2,0 c -1.059958,0.567844 0.776661,1.702753 0.71875,0.447088 0.0979,-0.491282 -0.395105,-0.463439 -0.71875,-0.447088 z m 2,0 c -1.059958,0.567844 0.776661,1.702753 0.71875,0.447088 0.0979,-0.491282 -0.395105,-0.463439 -0.71875,-0.447088 z m 2,0 c -1.059958,0.567844 0.776661,1.702753 0.71875,0.447088 0.0979,-0.491282 -0.395105,-0.463439 -0.71875,-0.447088 z m 2,0 c -1.059958,0.567844 0.776661,1.702753 0.71875,0.447088 0.0979,-0.491282 -0.395105,-0.463439 -0.71875,-0.447088 z m 2,0 c -1.059958,0.567844 0.776661,1.702753 0.71875,0.447088 0.0979,-0.491282 -0.395105,-0.463439 -0.71875,-0.447088 z m 2,0 c -1.059958,0.567844 0.776661,1.702753 0.71875,0.447088 0.0979,-0.491282 -0.395105,-0.463439 -0.71875,-0.447088 z m 2,0 c -1.059958,0.567844 0.776661,1.702753 0.71875,0.447088 0.0979,-0.491282 -0.395105,-0.463439 -0.71875,-0.447088 z m 2,0 c -1.059958,0.567844 0.776661,1.702753 0.71875,0.447088 0.0979,-0.491282 -0.395105,-0.463439 -0.71875,-0.447088 z m 2,0 c -1.059958,0.567844 0.776661,1.702753 0.71875,0.447088 0.0979,-0.491282 -0.395105,-0.463439 -0.71875,-0.447088 z m 2,0 c -1.059958,0.567844 0.776661,1.702753 0.71875,0.447088 0.0979,-0.491282 -0.395105,-0.463439 -0.71875,-0.447088 z m 4,0 c -1.059958,0.567844 0.776661,1.702753 0.71875,0.447088 0.0979,-0.491282 -0.395105,-0.463439 -0.71875,-0.447088 z m 2,0 c -1.059958,0.567844 0.776661,1.702753 0.71875,0.447088 0.0979,-0.491282 -0.395105,-0.463439 -0.71875,-0.447088 z m 5,0 c -1.059958,0.567844 0.776661,1.702753 0.71875,0.447088 0.0979,-0.491282 -0.395105,-0.463439 -0.71875,-0.447088 z m 2,0 c -1.059958,0.567844 0.776661,1.702753 0.71875,0.447088 0.0979,-0.491282 -0.395105,-0.463439 -0.71875,-0.447088 z m 2,0 c -1.059958,0.567844 0.776661,1.702753 0.71875,0.447088 0.0979,-0.491282 -0.395105,-0.463439 -0.71875,-0.447088 z m -42,1 C 9.2212917,56.880344 11.057911,58.015253 11,56.759588 11.097902,56.268306 10.604895,56.296149 10.28125,56.3125 z m 2,0 c -1.059958,0.567844 0.776661,1.702753 0.71875,0.447088 0.0979,-0.491282 -0.395105,-0.463439 -0.71875,-0.447088 z m 2,0 c -1.059958,0.567844 0.776661,1.702753 0.71875,0.447088 0.0979,-0.491282 -0.395105,-0.463439 -0.71875,-0.447088 z m 2,0 c -1.059958,0.567844 0.776661,1.702753 0.71875,0.447088 0.0979,-0.491282 -0.395105,-0.463439 -0.71875,-0.447088 z m 2,0 c -1.059958,0.567844 0.776661,1.702753 0.71875,0.447088 0.0979,-0.491282 -0.395105,-0.463439 -0.71875,-0.447088 z m 2,0 c -1.059958,0.567844 0.776661,1.702753 0.71875,0.447088 0.0979,-0.491282 -0.395105,-0.463439 -0.71875,-0.447088 z m 2,0 c -1.059958,0.567844 0.776661,1.702753 0.71875,0.447088 0.0979,-0.491282 -0.395105,-0.463439 -0.71875,-0.447088 z m 2,0 c -1.059958,0.567844 0.776661,1.702753 0.71875,0.447088 0.0979,-0.491282 -0.395105,-0.463439 -0.71875,-0.447088 z m 2,0 c -1.059958,0.567844 0.776661,1.702753 0.71875,0.447088 0.0979,-0.491282 -0.395105,-0.463439 -0.71875,-0.447088 z m 2,0 c -1.059958,0.567844 0.776661,1.702753 0.71875,0.447088 0.0979,-0.491282 -0.395105,-0.463439 -0.71875,-0.447088 z m 2,0 c -1.059958,0.567844 0.776661,1.702753 0.71875,0.447088 0.0979,-0.491282 -0.395105,-0.463439 -0.71875,-0.447088 z m 2,0 c -1.059958,0.567844 0.776661,1.702753 0.71875,0.447088 0.0979,-0.491282 -0.395105,-0.463439 -0.71875,-0.447088 z m 2,0 c -1.059958,0.567844 0.776661,1.702753 0.71875,0.447088 0.0979,-0.491282 -0.395105,-0.463439 -0.71875,-0.447088 z m 2,0 c -1.059958,0.567844 0.776661,1.702753 0.71875,0.447088 0.0979,-0.491282 -0.395105,-0.463439 -0.71875,-0.447088 z m 13,0 c -1.059958,0.567844 0.776661,1.702753 0.71875,0.447088 0.0979,-0.491282 -0.395105,-0.463439 -0.71875,-0.447088 z m 2,0 c -1.059958,0.567844 0.776661,1.702753 0.71875,0.447088 0.0979,-0.491282 -0.395105,-0.463439 -0.71875,-0.447088 z m 2,0 c -1.059958,0.567844 0.776661,1.702753 0.71875,0.447088 0.0979,-0.491282 -0.395105,-0.463439 -0.71875,-0.447088 z m -44,1 C 8.2212917,57.880344 10.057911,59.015253 10,57.759588 10.097902,57.268306 9.6048952,57.296149 9.28125,57.3125 z m 2,0 c -1.059958,0.567844 0.776661,1.702753 0.71875,0.447088 0.0979,-0.491282 -0.395105,-0.463439 -0.71875,-0.447088 z m 2,0 c -1.059958,0.567844 0.776661,1.702753 0.71875,0.447088 0.0979,-0.491282 -0.395105,-0.463439 -0.71875,-0.447088 z m 2,0 c -1.059958,0.567844 0.776661,1.702753 0.71875,0.447088 0.0979,-0.491282 -0.395105,-0.463439 -0.71875,-0.447088 z m 2,0 c -1.059958,0.567844 0.776661,1.702753 0.71875,0.447088 0.0979,-0.491282 -0.395105,-0.463439 -0.71875,-0.447088 z m 2,0 c -1.059958,0.567844 0.776661,1.702753 0.71875,0.447088 0.0979,-0.491282 -0.395105,-0.463439 -0.71875,-0.447088 z m 2,0 c -1.059958,0.567844 0.776661,1.702753 0.71875,0.447088 0.0979,-0.491282 -0.395105,-0.463439 -0.71875,-0.447088 z m 2,0 c -1.059958,0.567844 0.776661,1.702753 0.71875,0.447088 0.0979,-0.491282 -0.395105,-0.463439 -0.71875,-0.447088 z m 2,0 c -1.059958,0.567844 0.776661,1.702753 0.71875,0.447088 0.0979,-0.491282 -0.395105,-0.463439 -0.71875,-0.447088 z m 2,0 c -1.059958,0.567844 0.776661,1.702753 0.71875,0.447088 0.0979,-0.491282 -0.395105,-0.463439 -0.71875,-0.447088 z m 2,0 c -1.059958,0.567844 0.776661,1.702753 0.71875,0.447088 0.0979,-0.491282 -0.395105,-0.463439 -0.71875,-0.447088 z m 2,0 c -1.059958,0.567844 0.776661,1.702753 0.71875,0.447088 0.0979,-0.491282 -0.395105,-0.463439 -0.71875,-0.447088 z m 2,0 c -1.059958,0.567844 0.776661,1.702753 0.71875,0.447088 0.0979,-0.491282 -0.395105,-0.463439 -0.71875,-0.447088 z m 2,0 c -1.059958,0.567844 0.776661,1.702753 0.71875,0.447088 0.0979,-0.491282 -0.395105,-0.463439 -0.71875,-0.447088 z m 2,0 c -1.059958,0.567844 0.776661,1.702753 0.71875,0.447088 0.0979,-0.491282 -0.395105,-0.463439 -0.71875,-0.447088 z m 11,0 c -1.059958,0.567844 0.776661,1.702753 0.71875,0.447088 0.0979,-0.491282 -0.395105,-0.463439 -0.71875,-0.447088 z m 2,0 c -1.059958,0.567844 0.776661,1.702753 0.71875,0.447088 0.0979,-0.491282 -0.395105,-0.463439 -0.71875,-0.447088 z m 2,0 c -1.059958,0.567844 0.776661,1.702753 0.71875,0.447088 0.0979,-0.491282 -0.395105,-0.463439 -0.71875,-0.447088 z m -11,1 c -1.059958,0.567844 0.776661,1.702753 0.71875,0.447088 0.0979,-0.491282 -0.395105,-0.463439 -0.71875,-0.447088 z m 2,0 c -1.059958,0.567844 0.776661,1.702753 0.71875,0.447088 0.0979,-0.491282 -0.395105,-0.463439 -0.71875,-0.447088 z m 2,0 c -1.059958,0.567844 0.776661,1.702753 0.71875,0.447088 0.0979,-0.491282 -0.395105,-0.463439 -0.71875,-0.447088 z"
     id="rect4584"
     style="opacity:1;fill:url(#linearGradient4427);fill-opacity:1;stroke:none;display:inline;enable-background:new" />
</svg>
