<?xml version="1.0" encoding="UTF-8" standalone="no"?>
<!-- Created with Inkscape (http://www.inkscape.org/) -->

<svg
   xmlns:dc="http://purl.org/dc/elements/1.1/"
   xmlns:cc="http://creativecommons.org/ns#"
   xmlns:rdf="http://www.w3.org/1999/02/22-rdf-syntax-ns#"
   xmlns:svg="http://www.w3.org/2000/svg"
   xmlns="http://www.w3.org/2000/svg"
   xmlns:sodipodi="http://sodipodi.sourceforge.net/DTD/sodipodi-0.dtd"
   xmlns:inkscape="http://www.inkscape.org/namespaces/inkscape"
   width="199.41832"
   height="210.12064"
   id="svg2"
   version="1.1"
   inkscape:version="0.48.0 r9654"
   sodipodi:docname="Новый документ 1">
  <defs
     id="defs4" />
  <sodipodi:namedview
     id="base"
     pagecolor="#ffffff"
     bordercolor="#666666"
     borderopacity="1.0"
     inkscape:pageopacity="0.0"
     inkscape:pageshadow="2"
     inkscape:zoom="0.35"
     inkscape:cx="963.61202"
     inkscape:cy="148.27616"
     inkscape:document-units="px"
     inkscape:current-layer="layer1"
     showgrid="false"
     fit-margin-top="0"
     fit-margin-left="0"
     fit-margin-right="0"
     fit-margin-bottom="0"
     inkscape:window-width="1280"
     inkscape:window-height="947"
     inkscape:window-x="0"
     inkscape:window-y="24"
     inkscape:window-maximized="1" />
  <metadata
     id="metadata7">
    <rdf:RDF>
      <cc:Work
         rdf:about="">
        <dc:format>image/svg+xml</dc:format>
        <dc:type
           rdf:resource="http://purl.org/dc/dcmitype/StillImage" />
        <dc:title></dc:title>
      </cc:Work>
    </rdf:RDF>
  </metadata>
  <g
     inkscape:label="Layer 1"
     inkscape:groupmode="layer"
     id="layer1"
     transform="translate(-236.65583,-460.81931)">
    <path
       style="color:#000000;fill:#000000;fill-opacity:1;fill-rule:nonzero;stroke:none;stroke-width:2.79999995;marker:none;visibility:visible;display:inline;overflow:visible;enable-background:accumulate"
       d="m 313.46875,460.84375 c -8.9501,0.36899 -19.37248,4.86613 -23.90625,10.90625 -5.02531,6.69499 -8.90625,20.1877 -8.90625,30.90625 0,8.27637 0.28473,9.60303 3.59375,16.5 6.64023,13.84021 18.52279,24.03134 27.90625,23.9375 2.475,-0.0248 6.525,-0.81267 9,-1.75 6.35338,-2.40615 7.64931,-5.63999 8.96875,-22.03125 0.59055,-7.3364 1.9802,-18.513 3.0625,-24.84375 2.39185,-13.9908 2.42026,-17.49573 0.3125,-21.9375 -2.36666,-4.98736 -8.78554,-10.10454 -14.15625,-11.25 -1.81594,-0.3873 -3.80959,-0.52265 -5.875,-0.4375 z m 62.46875,5.3125 c -4.45622,0 -15.29253,3.85296 -19.59375,6.96875 -8.36618,6.06043 -9.82609,11.04858 -11.375,39.03125 -1.59898,28.88708 -1.63504,27.49755 1.15625,30.46875 4.77244,5.08002 18.7458,7.13172 25.875,3.8125 6.63512,-3.08918 16.27375,-13.90575 21.5,-24.09375 9.42122,-18.36561 10.59357,-25.56305 5.78125,-35.6875 -5.23146,-11.00626 -16.0351,-20.5 -23.34375,-20.5 z m -119.5,51.125 c -1.36451,0.0889 -2.88256,0.49071 -4.625,1.21875 -4.2919,1.79327 -8.28143,6.66262 -12.0625,14.65625 -2.79679,5.91276 -3.08294,7.40549 -3.09375,16.59375 -0.0113,9.58225 0.17969,10.4637 3.5,16.96875 3.97428,7.78628 8.85715,11.88634 16.65625,14 5.49772,1.48996 9.72452,1.03936 13.34375,-1.4375 5.926,-4.05553 12.47119,-24.09401 10,-30.59375 -0.60245,-1.58457 -3.55513,-6.1604 -6.5625,-10.15625 -3.00736,-3.99585 -6.39878,-9.41508 -7.53125,-12.0625 -2.86489,-6.69739 -5.53146,-9.45417 -9.625,-9.1875 z m 163.71875,7.875 c -3.25499,0 -6.96188,0.4756 -8.25,1.0625 -2.99553,1.36486 -9.38362,11.34651 -16.53125,25.84375 -7.31171,14.83004 -7.93618,20.27197 -3.1875,27.375 5.38478,8.05448 10.12954,9.22664 19.3125,4.78125 6.28021,-3.0402 18.34447,-13.71298 21.40625,-18.9375 2.35231,-4.01392 2.76039,-5.93213 3.09375,-14.9375 0.45167,-12.20178 -1.09382,-17.437 -6.46875,-22.15625 -3.03116,-2.6614 -4.20512,-3.03125 -9.375,-3.03125 z m -97.375,35.1875 c -3.08225,-0.0172 -4.99499,0.70344 -8.125,2.1875 -5.88292,2.78932 -10.85014,7.86084 -15.59375,15.96875 -2.52206,4.31077 -6.3714,8.34353 -14.59375,15.25 -8.97861,7.54169 -11.67606,10.43512 -13.65625,14.65625 -5.61059,11.96002 -6.18478,26.72386 -1.46875,36.90625 7.24855,15.65035 22.96727,23.93202 36.78125,19.34375 5.35978,-1.78023 6.10948,-1.78066 26.625,0.0937 5.40091,0.49344 8.36886,0.2266 12.25,-1.0625 5.81177,-1.93036 7.95924,-1.52448 12.46875,2.375 6.63151,5.73443 7.69631,5.93611 17,3.0625 9.50392,-2.93547 12.84476,-7.38062 16.8125,-22.46875 2.22849,-8.47428 2.37323,-18.31131 0.375,-23.09375 -0.8107,-1.94026 -5.22571,-9.01417 -9.84375,-15.71875 -4.61805,-6.70458 -11.00409,-17.3625 -14.15625,-23.6875 -8.69696,-17.45097 -8.41991,-17.27911 -29.75,-21.5 -7.80739,-1.54496 -12.04275,-2.29534 -15.125,-2.3125 z"
       id="rect2998"
       inkscape:connector-curvature="0"
       sodipodi:nodetypes="sssscsssssssssssssssssssssssssssssssssssssssssssssssssss" />
  </g>
</svg>
