<?xml version="1.0" encoding="UTF-8" standalone="no"?>
<!-- Created with Inkscape (http://www.inkscape.org/) -->

<svg
   xmlns:dc="http://purl.org/dc/elements/1.1/"
   xmlns:cc="http://creativecommons.org/ns#"
   xmlns:rdf="http://www.w3.org/1999/02/22-rdf-syntax-ns#"
   xmlns:svg="http://www.w3.org/2000/svg"
   xmlns="http://www.w3.org/2000/svg"
   xmlns:xlink="http://www.w3.org/1999/xlink"
   xmlns:sodipodi="http://sodipodi.sourceforge.net/DTD/sodipodi-0.dtd"
   xmlns:inkscape="http://www.inkscape.org/namespaces/inkscape"
   version="1.0"
   width="48"
   height="48"
   id="svg2482"
   inkscape:version="0.47pre4 r22446"
   sodipodi:docname="emblem-furry-48.svg">
  <metadata
     id="metadata18">
    <rdf:RDF>
      <cc:Work
         rdf:about="">
        <dc:format>image/svg+xml</dc:format>
        <dc:type
           rdf:resource="http://purl.org/dc/dcmitype/StillImage" />
        <dc:title />
      </cc:Work>
    </rdf:RDF>
  </metadata>
  <sodipodi:namedview
     pagecolor="#ffffff"
     bordercolor="#666666"
     borderopacity="1"
     objecttolerance="10"
     gridtolerance="10"
     guidetolerance="10"
     inkscape:pageopacity="0"
     inkscape:pageshadow="2"
     inkscape:window-width="1024"
     inkscape:window-height="688"
     id="namedview16"
     showgrid="false"
     inkscape:zoom="6.9532167"
     inkscape:cx="46.126003"
     inkscape:cy="21.046365"
     inkscape:window-x="0"
     inkscape:window-y="24"
     inkscape:window-maximized="1"
     inkscape:current-layer="svg2482" />
  <defs
     id="defs2484">
    <linearGradient
       id="linearGradient3584-44">
      <stop
         id="stop3586-4"
         style="stop-color:#f19765;stop-opacity:1"
         offset="0" />
      <stop
         id="stop3588-9"
         style="stop-color:#de1000;stop-opacity:1"
         offset="1" />
    </linearGradient>
    <radialGradient
       cx="11.376413"
       cy="11.482934"
       r="9.936264"
       fx="11.376413"
       fy="11.482934"
       id="radialGradient3751"
       xlink:href="#linearGradient3584-44"
       gradientUnits="userSpaceOnUse"
       gradientTransform="matrix(2.6480693,-8.832158e-8,9.3542046e-8,2.80459,-8.0063934,-12.129315)" />
    <filter
       inkscape:collect="always"
       id="filter3597">
      <feGaussianBlur
         inkscape:collect="always"
         stdDeviation="0.41857139"
         id="feGaussianBlur3599" />
    </filter>
  </defs>
  <path
     d="m 11.27919,30.596006 c -0.385693,-0.45215 -0.508159,-1.36727 -1.2903368,-1.25028 -1.1351004,0.09831 -2.0239064,-0.72213 -2.9932914,-1.16411 -0.654504,-0.30694 -1.419927,-9.4e-4 -2.065587,-0.37205 -1.418197,-0.67766 -2.079211,-2.37609 -1.895252,-3.83148 0.160374,-1.16706 0.873492,-2.2049 1.764911,-2.95692 0.77271,-0.50993 1.746117,-0.61251 2.58262,-1.00107 0.650953,-0.19743 1.110561,-0.67281 1.619578,-1.07837 0.8556854,-0.53299 2.0640742,-0.69467 2.9296812,-0.04263 0.752891,0.50306 1.575729,0.9103 2.301593,1.44729 0.566869,0.59751 0.428377,1.47123 0.589257,2.20652 0.06733,1.44421 0.694144,2.78971 0.947327,4.20218 0.206668,0.84495 -0.138127,1.66569 -0.616411,2.34124 -0.547228,0.79425 -1.133205,1.80679 -2.22714,1.89286 -0.545403,-0.02667 -1.229591,0.02902 -1.646949,-0.39318 z m 6.302901,-6.9664 c -0.344922,-0.630649 -0.599256,-1.518144 -0.09889,-2.14174 0.808109,-1.007124 1.808274,-1.85182 2.840267,-2.63 0.470478,-0.42154 0.994529,-0.359381 1.684819,-0.03292 0.728403,0.344487 0.97561,1.195174 0.827937,1.921477 -0.214737,1.056137 -0.589966,2.205233 -1.684345,2.657713 -0.950104,0.39881 -2.012998,0.877151 -3.068443,0.61042 -0.208172,-0.05261 -0.400056,-0.199749 -0.501348,-0.38495 z M 4.4483388,18.359196 c -0.68609,-0.39825 -1.230891,-1.051666 -1.347634,-1.844516 -0.148209,-1.00655 0.034277,-2.087587 0.7177615,-2.863576 0.6089533,-0.691371 1.3779695,-1.531938 2.4167085,-1.420778 0.905041,0.0276 0.850102,0.85756 0.856049,1.4953 0.08246,0.719948 0.4112994,1.384966 0.5651325,2.086745 0.02656,0.121166 0.02893,0.24134 0.00571,0.325984 -0.2148907,0.783503 -0.7811816,1.449003 -1.3809069,1.990221 -0.407283,0.48371 -1.0414045,0.622177 -1.663871,0.31421 l -0.168953,-0.08359 -1e-6,0 z m 10.8352232,0.47866 c -0.62949,-0.333214 -1.526738,-0.895083 -1.222478,-1.70283 0.284874,-0.756283 0.712591,-1.450689 0.986253,-2.21795 0.333821,-0.935927 0.959711,-2.255537 1.370202,-2.65287 0.658241,-0.63714 1.747678,-0.621495 2.63682,-0.51999 1.08571,0.123945 1.627999,1.274498 1.892598,2.21088 0.195048,0.690248 0.278195,1.4513 -0.123095,2.06456 -0.514998,0.78703 -1.236289,1.438413 -1.966377,2.03198 -0.673639,0.547673 -1.523532,0.91945 -2.396716,1.05504 -0.411473,0.05977 -0.813933,-0.07652 -1.177207,-0.26882 z m -4.889165,-2.3899 c -1.1160822,-1.04586 -1.5890002,-2.66411 -1.3770632,-4.12154 0.198065,-0.831 0.6895934,-1.553114 1.2453812,-2.18753 0.479208,-0.5470037 1.073241,-1.110609 1.893053,-1.1309299 0.86452,-0.021429 1.869602,0.043278 2.491845,0.65485 0.537455,0.5282389 0.909872,1.4832199 0.529506,2.2102099 -0.713866,1.13872 -1.372806,2.31301 -1.899584,3.55065 -0.280894,0.53366 -0.470819,1.31372 -1.195637,1.39263 -0.572006,0.06063 -1.199875,-0.04306 -1.687501,-0.36834 z"
     transform="matrix(2.0005204,0,0,2.0005204,-1.0010408,-16.010407)"
     id="path2463-4"
     style="fill:#000000;fill-opacity:1;opacity:0.29999999999999999;filter:url(#filter3597)" />
  <path
     d="m 19.502274,43.578073 c -0.771586,-0.904535 -1.016582,-2.735252 -2.581348,-2.501212 -2.27079,0.196673 -4.048864,-1.444635 -5.988139,-2.328825 -1.3093482,-0.61404 -2.8405926,-0.002 -4.1322486,-0.744294 -2.8371321,-1.355673 -4.159504,-4.753416 -3.7914903,-7.664953 0.3208314,-2.334728 1.7474386,-4.410947 3.5307405,-5.915379 1.5458222,-1.020125 3.4931424,-1.225339 5.1665844,-2.002661 1.302244,-0.394962 2.2217,-1.34597 3.239998,-2.157302 1.711815,-1.066257 4.129223,-1.3897 5.860888,-0.08527 1.506174,1.006383 3.152278,1.821075 4.604383,2.895335 1.134033,1.195331 0.856977,2.943225 1.17882,4.414188 0.1347,2.889171 1.388651,5.580872 1.895148,8.406546 0.413444,1.69034 -0.276325,3.332247 -1.233142,4.683699 -1.094742,1.588913 -2.267001,3.614521 -4.45544,3.786706 -1.091089,-0.05336 -2.459821,0.05805 -3.294754,-0.786566 z M 32.111355,29.641647 c -0.690023,-1.261626 -1.198824,-3.037077 -0.197831,-4.284594 1.616639,-2.014773 3.617489,-3.704604 5.682013,-5.261369 0.9412,-0.8433 1.989574,-0.718948 3.370513,-0.06586 1.457186,0.689154 1.951728,2.39097 1.656306,3.843955 -0.429586,2.112823 -1.180239,4.411614 -3.369567,5.316808 -1.900702,0.797828 -4.027044,1.754759 -6.138483,1.221158 -0.416453,-0.10524 -0.800321,-0.399602 -1.002957,-0.7701 z M 5.8370157,19.098085 C 4.4644788,18.301377 3.3745932,16.994205 3.1410465,15.408093 2.8445514,13.394469 3.209619,11.231832 4.576943,9.6794486 5.7951665,8.2963481 7.3335991,6.6147775 9.4116177,6.8371555 c 1.8105533,0.055215 1.7006463,1.7155666 1.7125433,2.9913781 0.164963,1.4402684 0.822813,2.7706534 1.130559,4.1745754 0.05313,0.242395 0.05787,0.482806 0.01143,0.652138 -0.429893,1.567413 -1.562769,2.898758 -2.7625322,3.981477 C 8.68884,19.604397 7.4202668,19.881405 6.17501,19.265308 l -0.337994,-0.167223 -1.9e-6,0 z M 27.5131,20.055654 c -1.259307,-0.666602 -3.05427,-1.790633 -2.445591,-3.406547 0.569897,-1.512958 1.425552,-2.902132 1.973019,-4.437054 0.667815,-1.87234 1.919921,-4.5122474 2.741117,-5.30712 1.316824,-1.274613 3.496266,-1.243314 5.275012,-1.0402515 2.171986,0.2479545 3.256846,2.5496596 3.786181,4.4229105 0.390198,1.380857 0.556536,2.903357 -0.246254,4.130195 -1.030264,1.57447 -2.473221,2.877574 -3.933777,4.065018 -1.347629,1.09563 -3.047858,1.839378 -4.79468,2.110629 -0.823159,0.119565 -1.628289,-0.15308 -2.355027,-0.53778 z M 17.732227,15.274611 C 15.499481,13.182346 14.5534,9.9450041 14.977384,7.029385 c 0.396232,-1.662432 1.379545,-3.1070355 2.49141,-4.3761991 0.958668,-1.094292 2.14704,-2.22179554 3.787091,-2.26244854 1.729491,-0.04287 3.740178,0.08658 4.984987,1.31004154 1.07519,1.0567515 1.820217,2.9672116 1.059288,4.4215696 -1.428103,2.2780336 -2.746327,4.6272245 -3.800157,7.1031485 -0.561934,1.067598 -0.941883,2.628124 -2.391897,2.785984 -1.144309,0.12129 -2.400372,-0.08615 -3.375879,-0.73687 z"
     id="path2463"
     style="fill:url(#radialGradient3751);fill-opacity:1" />
  <path
     d="m 25.764406,27.110147 c -0.205578,-0.0114 -0.416811,0.05497 -0.625162,0.06252 0.34203,-0.01065 0.71992,0.02871 1.062775,0.06252 0.121035,0.012 0.254426,-0.01721 0.375099,0 -0.275343,-0.04999 -0.528433,-0.10935 -0.812712,-0.12504 z m 0.437613,0.12504 c -0.451606,-0.04856 -0.906727,-0.03981 -1.375357,0 -0.448853,0.03813 -0.913635,0.122265 -1.375358,0.250065 -0.0174,0.0053 -0.04517,-0.0054 -0.06252,0 -0.0198,0.0055 -0.04268,-0.0058 -0.06252,0 -2.111781,0.697528 -3.486414,2.479368 -4.126072,4.501171 0.01521,-0.06018 -0.0168,-0.127875 0,-0.187549 -0.04587,0.163963 -0.09069,0.333055 -0.125025,0.50013 -0.06,0.292053 -0.09934,0.57516 -0.12504,0.875227 0.0066,-0.10302 -0.0102,-0.209772 0,-0.31258 -0.07866,0.614166 -0.06277,1.25371 0,1.875487 0.02424,0.231053 0.08375,0.460241 0.12504,0.68768 0.03915,0.212067 0.07034,0.416542 0.125025,0.625162 0.0166,0.06546 0.04449,0.122355 0.06252,0.187548 0.0178,0.06231 0.04333,0.12567 0.06252,0.18755 0.146355,0.4894 0.338577,0.928878 0.562645,1.375357 -0.06723,-0.1317 -0.189669,-0.239691 -0.250065,-0.375097 0.196152,0.458341 0.42032,0.950635 0.68768,1.375357 0.04552,0.05804 0.14022,0.06843 0.187548,0.125025 0.213852,0.280808 0.438978,0.511908 0.687679,0.750195 0.05832,0.05529 0.146925,0.10062 0.187548,0.12504 -0.018,-0.03196 0.0174,-0.09282 0,-0.12504 -0.48673,-1.214773 -0.820924,-2.561046 -0.81271,-3.938524 -0.08575,0.902506 -0.02133,1.810329 0.250065,2.688199 -0.403629,-1.201326 -0.476321,-2.473476 -0.18755,-3.625942 0.02285,-0.231653 0.02325,-0.456264 0.06252,-0.68768 -0.427158,1.430723 -0.479869,2.992629 -0.06252,4.376139 -0.09845,-0.12363 -0.160662,-0.239662 -0.250065,-0.375097 -0.357384,-0.542786 -0.629002,-1.107119 -0.81271,-1.750457 -0.638961,-2.823816 0.568254,-5.460241 3.188329,-7.251886 1.311279,-0.868647 2.693504,-0.909536 4.00104,-0.50013 -0.05295,-0.377288 -0.169663,-0.741822 -0.187548,-1.125293 -0.0132,-0.06054 0.0114,-0.126135 0,-0.187548 -0.12693,-0.02046 -0.246633,-0.04872 -0.375099,-0.06252 z m -5.50143,6.876789 c 0.258279,-0.674978 0.703037,-1.294323 1.187808,-1.812972 -0.176325,0.227688 -0.29497,0.503505 -0.437613,0.750195 0.19103,-0.265661 0.376931,-0.522771 0.625163,-0.750195 0.974131,-1.003865 2.571639,-1.791999 3.876007,-1.187808 0.07714,-0.02653 0.172665,-0.03778 0.250065,-0.06252 -1.406157,-0.538092 -2.838936,-0.08937 -3.938524,0.875227 0.197892,-0.215202 0.393597,-0.435526 0.625164,-0.625162 0.907449,-0.644184 2.246331,-0.72207 3.31336,-0.250065 0.320978,0.141975 0.621504,0.316438 0.875229,0.562647 -0.756889,-0.12843 -1.525878,-0.07831 -2.188069,0.12504 0.458883,-0.176166 0.945988,-0.367482 1.437873,-0.437615 -0.115365,-0.0807 -0.253845,-0.1314 -0.375098,-0.187548 -0.656161,0.22572 -1.242232,0.570492 -1.81297,0.937743 -0.308207,0.161523 -0.558282,0.335043 -0.812712,0.562647 -0.02146,0.01941 -0.04149,0.0427 -0.06252,0.06252 -0.02259,0.02115 -0.04046,0.04087 -0.06252,0.06252 -0.02058,0.02025 -0.04237,0.04183 -0.06252,0.06252 -0.425658,0.427829 -0.680132,0.925115 -0.875229,1.500392 -0.0156,0.04701 -0.04863,0.07717 -0.06252,0.12504 -0.05976,0.201553 -0.10062,0.404838 -0.125025,0.625162 -0.03469,0.792759 0.07943,1.605921 0.312582,2.313101 0.122085,0.353248 0.265869,0.681336 0.437613,1.000261 -0.10842,-0.196752 -0.163803,-0.414712 -0.250065,-0.625164 0.160962,0.360497 0.345925,0.751469 0.562647,1.062777 -0.10185,-0.149385 -0.224624,-0.278011 -0.312582,-0.437613 0.844237,1.567721 2.223138,2.671043 4.001041,2.813231 0.016,-0.0237 0.04649,-0.03886 0.06252,-0.06252 -0.10773,-0.01245 -0.20749,-0.04408 -0.31258,-0.06252 0.108315,0.0192 0.204346,-0.012 0.31258,0 0.114675,-0.169323 0.263052,-0.337506 0.375098,-0.50013 0.168484,-0.23798 0.290253,-0.495522 0.437614,-0.750195 -0.82998,0.09549 -1.710763,-0.03668 -2.500651,-0.50013 0.11571,0.259242 0.13431,0.240909 0.250065,0.50013 -0.8556,-0.327425 -1.429599,-0.946332 -1.812971,-1.625423 0.289115,0.472089 0.66875,0.819722 1.187808,0.937745 0.666912,0.188028 1.372335,0.394824 2.063037,0.50013 -1.591848,-0.509228 -2.5812,-1.749318 -3.063297,-3.438395 0.115755,0.259232 -0.303298,0.741036 -0.187548,1.00026 -1.300921,-2.217357 0.875948,-5.049516 3.125813,-4.188589 0.544885,0.20851 0.964072,0.465502 1.250325,0.81271 -0.576782,-0.66697 -1.365743,-1.1127 -2.375618,-1.125292 0.428277,-0.0309 0.906636,0.0082 1.375358,0.187549 0.373024,0.192371 0.680655,0.418053 0.937744,0.687678 -0.245772,-0.876405 -0.518283,-1.747065 -0.750195,-2.625682 -0.690358,-0.367388 -1.45635,-0.611264 -2.250586,-0.562646 -2.29098,0.120975 -3.660789,1.773771 -4.251105,3.750975 z m -0.06252,0.687679 c -0.0144,0.146325 0.0079,0.291534 0,0.437613 0.06327,-0.379446 0.12351,-0.699426 0.250065,-1.062775 -0.07962,0.206635 -0.19587,0.408841 -0.250065,0.625162 z m 0.250065,-0.625162 c 0.10539,-0.302622 0.288684,-0.589992 0.437615,-0.875229 -0.179447,0.283062 -0.317223,0.562798 -0.437615,0.875229 z m 2.563167,-6.689241 c 0.453317,-0.124875 0.904866,-0.215825 1.375358,-0.250065 0.10593,-0.0078 0.206236,-0.05924 0.312582,-0.06252 -0.56792,0.02055 -1.12148,0.140955 -1.68794,0.31258 z m 0.12504,6.439176 c -0.236725,0.372882 -0.414511,0.808249 -0.50013,1.31284 -0.04976,0.410849 -0.04528,0.833333 0,1.250325 0.04306,0.396468 0.181308,0.775698 0.312582,1.125293 -0.1476,-0.374454 -0.248524,-0.741 -0.312582,-1.125293 -0.04997,-0.299838 -0.113895,-0.592716 -0.125025,-0.875227 0.02583,-0.590301 0.255717,-1.172907 0.625163,-1.687938 z m 5.001302,2.688198 c -0.05379,0.432052 -0.145605,0.849241 -0.250065,1.250325 0.04874,-0.0126 0.0792,-0.048 0.125025,-0.06252 0.07538,-0.395822 0.1557,-0.778653 0.12504,-1.18781 z m -1.250325,3.063297 c 0.08944,0.0198 0.157221,0.04677 0.250065,0.06252 0.06283,0.0029 0.12612,0.0011 0.187548,0 0.009,-0.01581 -0.0089,-0.04657 0,-0.06252 -0.14463,-0.0013 -0.290379,0.01335 -0.437613,0 z m -2.875749,0.50013 c 0.18873,0.134775 0.418245,0.265884 0.625162,0.375097 -0.10122,-0.05138 -0.213685,-0.06701 -0.31258,-0.12504 -0.109305,-0.07646 -0.209951,-0.170443 -0.312582,-0.250065 z"
     id="path3513"
     style="opacity:0.74021349;fill:#ffefda;fill-opacity:1;fill-rule:evenodd;stroke:none;display:inline" />
  <path
     d="m 5.5091375,8.6678486 c -0.031668,0.032145 -0.031236,0.092685 -0.062515,0.125025 1.7529572,0.10053 3.4746596,1.1309325 4.2511058,2.8132324 0.4387167,1.316146 0.4398157,3.059992 -0.4376137,4.376139 -0.3564588,0.438715 -0.7692741,0.843637 -1.1878091,1.187809 -0.418757,0.344174 -0.8445168,0.622307 -1.3128414,0.875228 -0.2564472,0.10635 -0.5398487,0.222315 -0.8127115,0.31258 0.3668126,-0.06303 0.5141693,-0.07184 0.7501951,-0.12504 0.083418,-0.01761 0.1669954,-0.04549 0.2500651,-0.06252 0.084486,-0.018 0.1657311,-0.04528 0.250065,-0.06252 C 7.6895374,17.821081 8.133721,17.433937 8.5099189,17.045007 9.2623138,16.266958 9.8611436,15.305547 10.135341,14.04424 10.657687,11.084283 8.1058821,8.8196696 5.5091375,8.6678411 z m 3.6884594,1.6879394 c 0.7947428,0.966117 1.2623901,2.204508 1.1252931,3.438395 -0.219359,1.316146 -0.7537044,2.376706 -1.5003906,3.188329 0.1315635,-0.125655 0.312878,-0.176485 0.4376139,-0.312582 1.6768207,-1.844503 1.4577697,-4.536807 -0.062517,-6.314142 z m -5.3138823,2.125553 c -0.2455119,0.0358 -0.442167,0.08488 -0.6876789,0.12504 -0.00253,4.15e-4 0.00253,0.06211 0,0.06252 0.4144649,-0.0044 0.8144519,-0.0382 1.1878091,-0.187548 -0.1645188,-0.05484 -0.335612,-0.02398 -0.5001302,0 z m 7.5019514,10.065118 c -0.08435,0.03533 -0.164655,0.09192 -0.250065,0.125025 1.082384,0.623391 2.026184,1.517098 2.500651,2.750717 0.658077,1.809702 0.06911,3.372573 -1.00026,4.68872 1.631191,-2.182031 1.359587,-5.160528 -1.000261,-6.876782 -0.254602,-0.212168 -0.516797,-0.353631 -0.812711,-0.50013 -0.104559,0.03751 -0.207003,0.08968 -0.312581,0.12504 1.320343,0.612249 2.406777,1.711109 2.875748,3.00078 0.438718,1.974219 -0.183138,3.93522 -1.938005,5.251367 -1.5170637,1.042984 -3.2342936,1.604349 -4.9387843,1.750455 -0.441775,0.03787 -0.8703649,0.015 -1.3128415,0 -0.3188233,-0.0108 -0.6207423,0.03697 -0.9377439,0 -0.3879243,-0.04509 -0.8055684,-0.105105 -1.1878091,-0.18755 0.00413,0.02421 0.058179,0.03833 0.062517,0.06252 0.2976351,0.05784 0.5757548,0.14469 0.8752277,0.187548 0.8945037,0.12801 1.8099281,0.172125 2.6881993,0.125025 0.8782713,-0.04709 1.7500175,-0.215607 2.5631669,-0.50013 0.4065745,-0.14226 0.8066819,-0.286828 1.1878089,-0.50013 -0.373814,0.212765 -0.7969299,0.353817 -1.1878089,0.50013 -0.8429924,0.315551 -1.6739143,0.443568 -2.5631669,0.50013 -0.8904614,0.05664 -1.7967524,0.0095 -2.6881993,-0.125025 -0.288602,-0.04351 -0.5896737,-0.06625 -0.8752277,-0.12504 0.01191,0.06367 0.049125,0.124095 0.062517,0.18755 0.058534,0.01581 0.128196,0.04893 0.1875489,0.06252 3.9056728,0.733533 8.3332919,-0.287312 10.2526669,-4.126073 1.09679,-2.193586 0.223765,-4.810455 -1.750457,-6.126602 -0.154688,-0.107085 -0.33714,-0.158461 -0.50013,-0.250065 z M 5.1965562,32.861643 c 0.4468886,0.02085 0.8687546,0.03715 1.3128415,0 2.220435,-0.185688 4.3658403,-1.169553 5.8140123,-3.063297 0.877432,-1.096789 0.876332,-2.622376 0.437614,-3.938524 0.438718,3.509725 -2.461126,6.156199 -5.7514962,6.814272 -1.4395332,0.205648 -2.701421,0.09491 -3.9385246,-0.250065 0.00578,0.04118 -0.0064,0.08393 0,0.125025 0.6799751,0.165223 1.4227162,0.279805 2.125553,0.312582 z"
     id="path3527"
     style="opacity:0.74021349;fill:#ffecd4;fill-opacity:1;fill-rule:evenodd;display:inline" />
  <path
     d="M 22.01343,0.41570336 C 21.032245,0.74624937 20.165821,1.2499209 19.825362,1.9786089 18.840119,3.2269659 19.091193,4.660873 19.887882,5.792101 19.564935,5.2870165 19.377873,4.636216 19.450269,3.854098 c 0.326457,-2.0069596 1.825426,-2.89105513 3.563427,-3.37587914 -0.336911,-0.03201 -0.665711,-0.05781 -1.000262,-0.06252 z M 19.887877,5.792101 c 0.615444,0.873879 1.531686,1.5289125 2.563167,1.7504551 -0.842716,-0.12711 -1.737318,-0.3829456 -2.438134,-0.8752276 1.21269,0.9425521 3.000321,1.1627626 4.438654,0.6251625 0.04336,0.0078 0.08184,-0.00165 0.12504,0 0.133335,-0.07068 0.309605,-0.15594 0.437615,-0.250065 -0.03333,0.09765 -0.156821,0.1759065 -0.250065,0.250065 0.963108,-0.1540395 1.816827,-1.550835 2.188069,-2.3131005 -1.248615,2.5931146 -5.664898,3.0014116 -7.064338,0.8127105 z m 4.876269,1.50039 c -0.0642,0.0102 -0.122745,0.00255 -0.187549,0 -0.213908,0.1133851 -0.402167,0.2553316 -0.625163,0.3125821 0.362679,-0.050835 0.626234,-0.1642635 0.812712,-0.3125821 z M 20.01291,6.6673285 C 19.774959,6.500185 19.569622,6.316123 19.387747,6.104683 c 0.176567,0.227256 0.399557,0.3872955 0.625163,0.5626455 z m 18.754878,3.4383945 c -0.06102,0.01581 -0.151059,0.04788 -0.187548,0.06252 0.03661,-0.0014 0.141315,0.0036 0.187548,0 -0.0054,-0.0184 0.0054,-0.04411 0,-0.06252 z m -9.752537,3.876009 c -0.23958,-0.03021 -0.450535,0.02189 -0.625162,0.06252 0.0875,0.0025 0.171085,0.05253 0.250065,0.06252 0.254619,0.03219 0.454294,0.08946 0.625162,0.187548 -0.22798,-0.05697 -0.461835,-0.08384 -0.687678,-0.06252 -0.352668,0.157842 -0.600405,0.316517 -0.812712,0.437615 0.02735,0.116085 0.19121,0.251014 0.50013,0.375097 1.5924,-0.668092 -1.082451,-0.08227 0.562647,-0.750195 0.297527,0.13758 0.511865,0.290387 0.687678,0.437613 0.12558,0.105165 0.242192,0.205398 0.312582,0.312582 0.0846,0.451208 -0.08729,0.98505 -0.375097,1.437875 -0.06057,0.06979 -0.122895,0.189589 -0.18755,0.250065 0.05624,-0.05463 0.13698,-0.06745 0.18755,-0.12504 0.186429,-0.217532 0.347428,-0.447213 0.437613,-0.68768 0.015,-0.03913 -0.01155,-0.08573 0,-0.12504 0.03879,-0.10272 0.06556,-0.206037 0.06252,-0.31258 0.0078,-0.06063 0.06582,-0.125535 0.06252,-0.18755 0.0138,0.123075 0.02442,0.246906 0,0.375098 0.209163,-0.677276 -0.05343,-1.043274 -0.437613,-1.250324 0.0602,0.06151 0.07802,0.126075 0.12504,0.187548 -0.02921,-0.0267 -0.09186,-0.03731 -0.12504,-0.06252 0.0468,0.0584 0.09129,0.1221 0.12504,0.18755 -0.103635,-0.122355 -0.266738,-0.270449 -0.437615,-0.375098 0.11487,0.05419 0.225984,0.121725 0.312582,0.187548 -0.02896,-0.03615 -0.02836,-0.09202 -0.06252,-0.125025 -0.138735,-0.136635 -0.290563,-0.302992 -0.50013,-0.437613 z m 0.437615,2.625683 c -0.08004,0.114555 -0.151179,0.212401 -0.250065,0.31258 0.10749,-0.09399 0.159501,-0.206896 0.250065,-0.31258 z m -0.250065,0.31258 c -0.06231,0.06313 -0.181008,0.06934 -0.250065,0.12504 -0.1554,0.125295 -0.315342,0.298559 -0.50013,0.375098 0.277305,-0.117945 0.522367,-0.300909 0.750195,-0.500132 z m -0.250065,0.12504 c 0.13101,-0.09414 0.200095,-0.203323 0.31258,-0.312582 -0.707418,0.661758 -1.606815,0.70761 -2.438133,0.437615 0.499785,0.03537 1.019963,-0.03328 1.50039,-0.18755 0.122505,-0.03933 0.198051,-0.13869 0.312581,-0.187549 -0.825657,0.218209 -2.0331,-7.92e-4 -2.875748,-0.562646 0.09909,0.147705 0.185948,0.296603 0.312581,0.437613 0.06878,0.107775 0.174466,0.163263 0.250065,0.250065 -0.165122,-0.11337 -0.372312,-0.177205 -0.50013,-0.31258 0.182827,0.15552 0.349585,0.33072 0.562647,0.437614 -0.10245,-0.02352 -0.216345,-0.02709 -0.312582,-0.06252 -0.03174,-0.01125 -0.09402,0.01245 -0.12504,0 0.387403,0.512922 0.932755,0.671801 1.500391,0.625163 -0.311673,-0.02057 -0.533682,-0.225797 -0.812712,-0.437613 -0.018,-0.007 -0.04465,0.0073 -0.06252,0 -0.012,-0.0096 0.012,-0.05247 0,-0.06252 0.06579,0.01035 0.12027,0.05646 0.187548,0.06252 -0.03645,-0.0126 -0.08904,0.01395 -0.12504,0 0.462396,0.298735 0.904334,0.413539 1.312842,0.375097 0.334691,-0.09933 0.712049,-0.293013 1.00026,-0.50013 z m -3.125814,-0.437614 c -0.08191,-0.08676 -0.119985,-0.217931 -0.187548,-0.312582 0.02691,0.07848 0.03124,0.179547 0.06252,0.250065 0.0338,0.03159 0.08985,0.03257 0.125025,0.06252 z m -0.125025,-0.06252 c -0.146625,-0.137115 -0.259859,-0.271715 -0.375098,-0.437613 -0.018,0.04213 -0.04496,0.08274 -0.06252,0.125025 0.12858,0.273934 0.332823,0.469645 0.562646,0.625162 -0.0552,-0.08784 -0.0786,-0.207906 -0.125025,-0.312582 z m 0.06252,-0.312581 c -0.09891,-0.147435 -0.239381,-0.284497 -0.312582,-0.437614 0.02998,0.06614 0.02885,0.120795 0.06252,0.187549 0.0066,0.012 -0.0067,0.05071 0,0.06252 0.08466,0.06931 0.156921,0.12546 0.250065,0.18755 z m 3.750975,-1.50039 c -0.136215,0.13671 -0.292614,0.23772 -0.437613,0.312581 0.432324,0.643858 0.38295,1.136671 0.06252,1.50039 0.423966,-0.329513 0.63829,-0.928044 0.375097,-1.812971 z m -0.437613,0.312581 c -0.0178,-0.02652 -0.04305,-0.03555 -0.06252,-0.06252 -0.194291,0.13842 -0.34565,0.19605 -0.50013,0.250065 0.182988,-0.012 0.370438,-0.08832 0.562647,-0.18755 z M 27.764926,14.66941 c -0.04486,0.02559 -0.15436,0.04467 -0.187548,0.06252 -0.03363,0.03557 -0.04881,0.04382 -0.06252,0.06252 0.0078,-0.004 0.05365,0.0046 0.06252,0 0.009,0.03723 0.10353,0.02738 0.12504,0.06252 -0.0038,-0.06491 0.04453,-0.119715 0.06252,-0.187548 z m 0.812712,-0.437613 c 0.0534,-0.02391 0.07106,-0.04076 0.12504,-0.06252 -0.0285,-0.0102 -0.03289,-0.05274 -0.06252,-0.06252 -0.237499,0.03255 -0.409252,0.06918 -0.562645,0.12504 -0.109875,0.07504 -0.19085,0.15336 -0.250065,0.250065 0.11517,-0.13713 0.420463,-0.218919 0.750195,-0.250065 z m -0.750195,0.250065 c 0.05622,-0.05484 0.04814,-0.176667 0.125025,-0.250065 -0.236268,0.10299 -0.339777,0.245985 -0.375097,0.375098 0.02472,-0.02536 0.15444,-0.02984 0.187548,-0.06252 0.0114,-0.02381 0.0483,-0.03929 0.06252,-0.06252 z m 0.250065,-0.250065 c 0.08817,-0.06021 0.128235,-0.1522 0.250065,-0.187549 -0.04359,-3.05e-4 -0.07936,-0.0016 -0.12504,0 -0.08586,0.08106 -0.0549,0.120915 -0.12504,0.187549 z m -0.312582,0.812711 c 0.109095,0.193531 0.317331,0.301893 0.68768,0.187549 -0.293564,0.0048 -0.526242,-0.05346 -0.68768,-0.187549 z m -2.563167,1.375357 c 0.0794,0.09732 0.14658,0.171146 0.250065,0.250065 -0.08377,-0.07203 -0.180706,-0.1606 -0.250065,-0.250065 z m 3.625944,0.312582 c -0.1335,0.06952 -0.229168,0.195531 -0.375097,0.250065 0.19291,-0.07274 0.355692,-0.139215 0.50013,-0.250065 -0.03407,0.01821 -0.08979,-0.01721 -0.12504,0 z m 10.3777,2.750715 c -0.12489,0.163004 -0.256643,0.349086 -0.375098,0.562647 -1.237932,2.792382 2.076576,3.704977 3.876008,2.6882 -0.0114,-0.156002 -0.09528,-0.284483 -0.125025,-0.437615 -0.186428,0.18965 -0.48506,0.276648 -0.812711,0.375098 0.302225,-0.09509 0.577758,-0.280002 0.812711,-0.562646 -0.0322,-0.13095 -0.07874,-0.249153 -0.12504,-0.375097 -0.857753,1.200915 -4.07543,0.08818 -2.625683,-1.625424 -1.438489,1.636396 1.404678,3.256515 2.625683,1.812972 -0.217784,0.307756 -0.471836,0.653322 -0.875228,0.812712 -0.01881,0.004 -0.04319,-0.0038 -0.06252,0 -0.08975,0.03296 -0.213858,0.03949 -0.312582,0.06252 -0.864832,0.0096 -1.764357,-0.543969 -2.125552,-1.312841 -0.0048,0.1404 -0.0371,0.309443 0,0.437613 -0.15174,-0.303712 -0.205887,-0.674257 -0.12504,-1.00026 0.01841,0.176006 0.05445,0.338766 0.12504,0.50013 0.03583,-0.4948 0.368809,-0.945066 0.750195,-1.375357 0.01641,-0.01841 0.04492,-0.04395 0.06252,-0.06252 0.07278,-0.07301 0.1591,-0.177626 0.250065,-0.250065 -0.08566,-0.02778 -0.167004,-0.04076 -0.250065,-0.06252 -0.420284,0.328803 -0.805391,0.717429 -0.937745,1.187806 -0.02632,-0.411865 0.14796,-0.882672 0.50013,-1.312839 -0.08244,-0.01035 -0.170023,-0.05964 -0.250065,-0.06252 z m 0.06252,2.750717 c 0.0811,0.08794 0.200517,0.171604 0.31258,0.250065 -0.11985,-0.08232 -0.239146,-0.145005 -0.31258,-0.250065 z m 0.875227,0.50013 c 0.19713,0.04755 0.425765,0.11901 0.687678,0.12504 -0.15426,0.01365 -0.265342,0.01065 -0.437613,0 -0.09663,-0.02985 -0.164184,-0.09094 -0.250065,-0.12504 z"
     id="path3616"
     style="opacity:0.74021349;fill:#ffdec2;fill-opacity:1;fill-rule:evenodd;display:inline" />
  <path
     d="m 33.766488,5.792101 c -0.204315,0.358542 -0.361316,0.732633 -0.50013,1.1252925 0.02879,-0.09021 0.09252,-0.1614015 0.12504,-0.250065 -0.185729,0.479931 -0.301815,0.9320986 -0.375098,1.4378746 -0.04109,0.2835915 -0.06043,0.5895525 -0.06252,0.8752275 0.0042,0.66159 0.09384,1.3410794 0.312582,2.0005204 0.479945,0.834645 1.294863,1.406236 2.375618,1.437874 -1.259301,-0.32733 -1.975464,-1.218721 -2.313102,-2.313102 0.33084,0.7983 0.949447,1.470564 1.687939,1.812972 1.292364,0.599217 2.717074,-0.10608 3.500911,-1.312842 -0.797259,0.751908 -1.869958,1.641834 -3.063301,1.312842 -1.562596,-0.50019 -2.210335,-1.9488134 -2.250586,-3.3133619 0.02154,-0.9907935 0.314592,-1.9354021 0.812712,-2.8132321 -0.06132,-0.00315 -0.125925,0.0024 -0.18755,0 -0.0044,0.0078 -0.05817,-0.0078 -0.06252,0 z m -0.50013,5.18885 c -0.233633,-0.641202 -0.317456,-1.3308919 -0.312582,-2.0005204 -0.0018,-0.2937945 0.02565,-0.5873595 0.06252,-0.8752275 0.05144,-0.40158 0.128475,-0.8068621 0.250065,-1.1878096 -0.319755,0.9044776 -0.522923,1.8744496 -0.437615,2.8757491 0.06799,0.4384744 0.229601,0.8260624 0.437615,1.1878084 z m 0,-3.5009104 c -0.10659,0.4417485 -0.198572,0.9241395 -0.18755,1.3753575 -0.02298,-0.4417635 0.04108,-0.9385545 0.18755,-1.3753575 z"
     id="path3511"
     style="opacity:0.77021353;fill:#fff6e3;fill-opacity:1;fill-rule:evenodd;display:inline" />
</svg>
