<?xml version="1.0" encoding="UTF-8" standalone="no"?>
<!-- Created with Inkscape (http://www.inkscape.org/) -->

<svg
   xmlns:dc="http://purl.org/dc/elements/1.1/"
   xmlns:cc="http://creativecommons.org/ns#"
   xmlns:rdf="http://www.w3.org/1999/02/22-rdf-syntax-ns#"
   xmlns:svg="http://www.w3.org/2000/svg"
   xmlns="http://www.w3.org/2000/svg"
   xmlns:xlink="http://www.w3.org/1999/xlink"
   xmlns:sodipodi="http://sodipodi.sourceforge.net/DTD/sodipodi-0.dtd"
   xmlns:inkscape="http://www.inkscape.org/namespaces/inkscape"
   version="1.0"
   width="22"
   height="22"
   id="svg2482"
   inkscape:version="0.47pre4 r22446"
   sodipodi:docname="emblem-furry-22.svg">
  <metadata
     id="metadata18">
    <rdf:RDF>
      <cc:Work
         rdf:about="">
        <dc:format>image/svg+xml</dc:format>
        <dc:type
           rdf:resource="http://purl.org/dc/dcmitype/StillImage" />
      </cc:Work>
    </rdf:RDF>
  </metadata>
  <sodipodi:namedview
     pagecolor="#ffffff"
     bordercolor="#666666"
     borderopacity="1"
     objecttolerance="10"
     gridtolerance="10"
     guidetolerance="10"
     inkscape:pageopacity="0"
     inkscape:pageshadow="2"
     inkscape:window-width="1024"
     inkscape:window-height="688"
     id="namedview16"
     showgrid="false"
     inkscape:zoom="10.727273"
     inkscape:cx="3.8884794"
     inkscape:cy="13.997437"
     inkscape:window-x="0"
     inkscape:window-y="24"
     inkscape:window-maximized="1"
     inkscape:current-layer="svg2482" />
  <defs
     id="defs2484">
    <inkscape:perspective
       sodipodi:type="inkscape:persp3d"
       inkscape:vp_x="0 : 11 : 1"
       inkscape:vp_y="0 : 1000 : 0"
       inkscape:vp_z="22 : 11 : 1"
       inkscape:persp3d-origin="11 : 7.3333333 : 1"
       id="perspective20" />
    <linearGradient
       id="linearGradient3584-44">
      <stop
         id="stop3586-4"
         style="stop-color:#f19765;stop-opacity:1"
         offset="0" />
      <stop
         id="stop3588-9"
         style="stop-color:#de1000;stop-opacity:1"
         offset="1" />
    </linearGradient>
    <radialGradient
       cx="11.376413"
       cy="11.482934"
       r="9.936264"
       fx="11.376413"
       fy="11.482934"
       id="radialGradient3751"
       xlink:href="#linearGradient3584-44"
       gradientUnits="userSpaceOnUse"
       gradientTransform="matrix(1.2136984,-4.0480723e-8,4.2873437e-8,1.2854371,-2.5862635,-5.56265)" />
    <filter
       color-interpolation-filters="sRGB"
       id="filter3867">
      <feGaussianBlur
         id="feGaussianBlur3869"
         stdDeviation="0.41857139" />
    </filter>
  </defs>
  <path
     d="m 11.27919,30.596006 c -0.385693,-0.45215 -0.508159,-1.36727 -1.2903368,-1.25028 -1.1351004,0.09831 -2.0239064,-0.72213 -2.9932914,-1.16411 -0.654504,-0.30694 -1.419927,-9.4e-4 -2.065587,-0.37205 -1.418197,-0.67766 -2.079211,-2.37609 -1.895252,-3.83148 0.160374,-1.16706 0.873492,-2.2049 1.764911,-2.95692 0.77271,-0.50993 1.746117,-0.61251 2.58262,-1.00107 0.650953,-0.19743 1.110561,-0.67281 1.619578,-1.07837 0.8556854,-0.53299 2.0640742,-0.69467 2.9296812,-0.04263 0.752891,0.50306 1.575729,0.9103 2.301593,1.44729 0.566869,0.59751 0.428377,1.47123 0.589257,2.20652 0.06733,1.44421 0.694144,2.78971 0.947327,4.20218 0.206668,0.84495 -0.138127,1.66569 -0.616411,2.34124 -0.547228,0.79425 -1.133205,1.80679 -2.22714,1.89286 -0.545403,-0.02667 -1.229591,0.02902 -1.646949,-0.39318 z m 6.302901,-6.9664 c -0.344922,-0.630649 -0.599256,-1.518144 -0.09889,-2.14174 0.808109,-1.007124 1.808274,-1.85182 2.840267,-2.63 0.470478,-0.42154 0.994529,-0.359381 1.684819,-0.03292 0.728403,0.344487 0.97561,1.195174 0.827937,1.921477 -0.214737,1.056137 -0.589966,2.205233 -1.684345,2.657713 -0.950104,0.39881 -2.012998,0.877151 -3.068443,0.61042 -0.208172,-0.05261 -0.400056,-0.199749 -0.501348,-0.38495 z M 4.4483388,18.359196 c -0.68609,-0.39825 -1.230891,-1.051666 -1.347634,-1.844516 -0.148209,-1.00655 0.034277,-2.087587 0.7177615,-2.863576 0.6089533,-0.691371 1.3779695,-1.531938 2.4167085,-1.420778 0.905041,0.0276 0.850102,0.85756 0.856049,1.4953 0.08246,0.719948 0.4112994,1.384966 0.5651325,2.086745 0.02656,0.121166 0.02893,0.24134 0.00571,0.325984 -0.2148907,0.783503 -0.7811816,1.449003 -1.3809069,1.990221 -0.407283,0.48371 -1.0414045,0.622177 -1.663871,0.31421 l -0.168953,-0.08359 -1e-6,0 z m 10.8352232,0.47866 c -0.62949,-0.333214 -1.526738,-0.895083 -1.222478,-1.70283 0.284874,-0.756283 0.712591,-1.450689 0.986253,-2.21795 0.333821,-0.935927 0.959711,-2.255537 1.370202,-2.65287 0.658241,-0.63714 1.747678,-0.621495 2.63682,-0.51999 1.08571,0.123945 1.627999,1.274498 1.892598,2.21088 0.195048,0.690248 0.278195,1.4513 -0.123095,2.06456 -0.514998,0.78703 -1.236289,1.438413 -1.966377,2.03198 -0.673639,0.547673 -1.523532,0.91945 -2.396716,1.05504 -0.411473,0.05977 -0.813933,-0.07652 -1.177207,-0.26882 z m -4.889165,-2.3899 c -1.1160822,-1.04586 -1.5890002,-2.66411 -1.3770632,-4.12154 0.198065,-0.831 0.6895934,-1.553114 1.2453812,-2.18753 0.479208,-0.5470037 1.073241,-1.110609 1.893053,-1.1309299 0.86452,-0.021429 1.869602,0.043278 2.491845,0.65485 0.537455,0.5282389 0.909872,1.4832199 0.529506,2.2102099 -0.713866,1.13872 -1.372806,2.31301 -1.899584,3.55065 -0.280894,0.53366 -0.470819,1.31372 -1.195637,1.39263 -0.572006,0.06063 -1.199875,-0.04306 -1.687501,-0.36834 z"
     transform="matrix(0.91690516,0,0,0.91690516,0.16618967,-7.341484)"
     id="path2463-4"
     style="opacity:0.14;fill:#000000;fill-opacity:1;filter:url(#filter3867)" />
  <path
     d="M 10.021875,19.969902 C 9.6682318,19.555323 9.555942,18.716245 8.8387576,18.823513 7.7979789,18.913655 6.9830283,18.161389 6.0941939,17.756135 5.494076,17.4747 4.7922557,17.755218 4.2002467,17.415 2.8998945,16.79365 2.2938074,15.236351 2.4624804,13.901897 2.6095281,12.831813 3.2633897,11.880213 4.0807364,11.190682 4.7892382,10.723124 5.68176,10.629068 6.4487542,10.272795 7.045616,10.091771 7.4670333,9.655892 7.9337532,9.284032 8.7183351,8.795331 9.8263137,8.647086 10.619994,9.244952 c 0.690329,0.461259 1.444794,0.834659 2.110342,1.327028 0.519765,0.54786 0.392781,1.348978 0.540292,2.02317 0.06174,1.324203 0.636465,2.557899 0.86861,3.853 0.189495,0.774739 -0.126649,1.52728 -0.56519,2.146695 -0.501757,0.728252 -1.039043,1.656656 -2.042077,1.735574 -0.500082,-0.02446 -1.127418,0.02661 -1.510096,-0.36051 z m 5.779162,-6.387528 c -0.31626,-0.578246 -0.549461,-1.391994 -0.09067,-1.963773 0.740959,-0.923437 1.658016,-1.697943 2.604256,-2.41146 0.431383,-0.386513 0.911888,-0.329518 1.544818,-0.03019 0.667877,0.315862 0.894542,1.095861 0.75914,1.761812 -0.196893,0.968378 -0.540942,2.02199 -1.544384,2.436871 -0.871155,0.365671 -1.845729,0.804264 -2.813472,0.559697 -0.190874,-0.04824 -0.366814,-0.183151 -0.459688,-0.352962 z M 3.7586322,8.749908 C 3.1295528,8.38475 2.6300219,7.785629 2.5229796,7.058661 2.387086,6.13575 2.5544087,5.144542 3.1810988,4.433033 3.7394513,3.799112 4.4445662,3.028392 5.3969914,3.130315 6.2268283,3.155625 6.1764542,3.916617 6.181907,4.501363 6.257515,5.161486 6.5590296,5.771246 6.7000799,6.41471 6.7244309,6.525808 6.7266039,6.635997 6.7053199,6.713607 6.5082857,7.432005 5.9890508,8.042204 5.4391594,8.538451 5.0657196,8.981967 4.4842902,9.108929 3.9135475,8.826552 l -0.1549139,-0.07664 -9e-7,0 z M 13.693504,9.188794 C 13.116322,8.883268 12.29363,8.368087 12.572608,7.62746 12.833811,6.93402 13.225986,6.297316 13.476908,5.59381 13.78299,4.735654 14.356872,3.525696 14.733254,3.16138 15.336798,2.577182 16.335709,2.591528 17.150967,2.684598 18.146461,2.798244 18.643689,3.853192 18.8863,4.711765 19.065141,5.344658 19.141379,6.04247 18.773434,6.604771 18.30123,7.326403 17.639874,7.923659 16.970453,8.467904 16.35279,8.970068 15.573518,9.310953 14.772891,9.435276 14.39561,9.490076 14.026592,9.365116 13.693504,9.188794 z M 9.2106039,6.997482 C 8.187262,6.038527 7.7536415,4.554746 7.9479675,3.21842 8.1295739,2.456472 8.580259,1.794362 9.0898638,1.212662 9.5292532,0.711112 10.073924,0.19434 10.825614,0.175707 c 0.792683,-0.01965 1.714248,0.03968 2.284785,0.600436 0.492796,0.484344 0.834267,1.359972 0.485507,2.026552 -0.654547,1.044099 -1.258733,2.120811 -1.741738,3.25561 -0.257553,0.489316 -0.431697,1.204557 -1.096286,1.276909 -0.524475,0.05559 -1.1001708,-0.03948 -1.5472781,-0.337732 z"
     id="path2463"
     style="fill:url(#radialGradient3751);fill-opacity:1" />
  <path
     d="m 12.892019,12.422103 c -0.09422,-0.0052 -0.191038,0.02519 -0.286532,0.02866 0.156763,-0.0049 0.329963,0.01316 0.487105,0.02866 0.05547,0.0055 0.116612,-0.0079 0.17192,0 -0.126199,-0.02291 -0.242198,-0.05012 -0.372493,-0.05731 z m 0.200573,0.05731 c -0.206986,-0.02226 -0.415583,-0.01825 -0.630372,0 -0.205724,0.01748 -0.41875,0.05604 -0.630373,0.114613 -0.008,0.0024 -0.0207,-0.0025 -0.02866,0 -0.0091,0.0025 -0.01956,-0.0027 -0.02865,0 -0.967899,0.3197 -1.597939,1.136377 -1.8911158,2.063037 0.00697,-0.02758 -0.0077,-0.05861 0,-0.08596 -0.021024,0.07515 -0.041566,0.15265 -0.057303,0.229226 -0.0275,0.133857 -0.045531,0.263615 -0.05731,0.401146 0.00303,-0.04722 -0.00468,-0.09615 0,-0.143266 -0.036053,0.281492 -0.028769,0.574617 0,0.859598 0.01111,0.105899 0.038385,0.210944 0.05731,0.315187 0.017944,0.0972 0.032239,0.190915 0.057303,0.286532 0.00761,0.03 0.020391,0.05608 0.028655,0.08596 0.00816,0.02856 0.01986,0.0576 0.028655,0.08596 0.06708,0.224308 0.1551808,0.425736 0.2578788,0.630372 -0.03081,-0.06036 -0.08693,-0.109858 -0.114613,-0.171919 0.0899,0.210072 0.192647,0.435707 0.315187,0.630371 0.02086,0.0266 0.06427,0.03136 0.08596,0.0573 0.09802,0.128703 0.201198,0.234624 0.315186,0.343839 0.02673,0.02534 0.06734,0.04612 0.08596,0.05731 -0.0083,-0.01465 0.008,-0.04254 0,-0.05731 -0.223085,-0.556771 -0.376257,-1.173813 -0.372492,-1.805157 -0.0393,0.413649 -0.0098,0.829734 0.114613,1.232091 -0.184997,-0.550607 -0.218314,-1.133676 -0.08596,-1.66189 0.01047,-0.106174 0.01066,-0.209121 0.02866,-0.315186 -0.19578,0.655748 -0.219939,1.371621 -0.02866,2.00573 -0.04512,-0.05666 -0.07364,-0.109845 -0.114613,-0.17192 -0.163801,-0.248776 -0.288292,-0.507429 -0.372492,-0.802292 -0.2928568,-1.294249 0.26045,-2.502611 1.461318,-3.323781 0.601003,-0.39813 1.234522,-0.416871 1.83381,-0.229227 -0.02427,-0.172923 -0.07776,-0.340001 -0.08596,-0.515759 -0.0061,-0.02775 0.0052,-0.05781 0,-0.08596 -0.05818,-0.0094 -0.11304,-0.02233 -0.17192,-0.02866 z m -2.521489,3.151861 c 0.118378,-0.309365 0.322225,-0.593231 0.544412,-0.830945 -0.08082,0.104357 -0.135194,0.230773 -0.200573,0.343839 0.08756,-0.121761 0.172761,-0.239603 0.286534,-0.343839 0.446476,-0.460105 1.178667,-0.821333 1.776503,-0.544412 0.03536,-0.01216 0.07914,-0.01732 0.114613,-0.02865 -0.644489,-0.246626 -1.301179,-0.04096 -1.805157,0.401146 0.0907,-0.09864 0.180399,-0.199617 0.286533,-0.286533 0.415915,-0.295251 1.029569,-0.330949 1.518624,-0.114613 0.147115,0.06507 0.284856,0.145034 0.401146,0.25788 -0.346907,-0.05886 -0.69936,-0.03589 -1.002865,0.05731 0.210322,-0.08074 0.433578,-0.16843 0.659026,-0.200574 -0.05288,-0.03699 -0.116346,-0.06023 -0.17192,-0.08596 -0.300741,0.103455 -0.569357,0.261475 -0.830945,0.429799 -0.141261,0.07403 -0.255879,0.153561 -0.372493,0.257879 -0.0098,0.0089 -0.01902,0.01957 -0.02865,0.02866 -0.01035,0.0097 -0.01854,0.01873 -0.02866,0.02866 -0.0094,0.0093 -0.01942,0.01917 -0.02866,0.02866 -0.195093,0.196089 -0.311727,0.424011 -0.401147,0.68768 -0.0071,0.02155 -0.02229,0.03537 -0.02865,0.05731 -0.02739,0.09238 -0.04612,0.185551 -0.0573,0.286533 -0.0159,0.363347 0.03641,0.736047 0.143267,1.060171 0.05596,0.161905 0.121857,0.312279 0.200573,0.458453 -0.04969,-0.09018 -0.07508,-0.190077 -0.114613,-0.286534 0.07377,0.165228 0.158549,0.344424 0.257879,0.487106 -0.04668,-0.06847 -0.102952,-0.127421 -0.143266,-0.200572 0.386942,0.718539 1.018938,1.224228 1.83381,1.289397 0.0073,-0.01086 0.02131,-0.01781 0.02866,-0.02866 -0.04938,-0.0057 -0.0951,-0.0202 -0.143266,-0.02866 0.04964,0.0088 0.09366,-0.0055 0.143266,0 0.05256,-0.07761 0.120566,-0.15469 0.17192,-0.229226 0.07722,-0.109074 0.133033,-0.227114 0.200573,-0.343839 -0.380407,0.04377 -0.7841,-0.01681 -1.146132,-0.229227 0.05303,0.11882 0.06156,0.110417 0.114614,0.229227 -0.39215,-0.15007 -0.655233,-0.433736 -0.830945,-0.744986 0.132511,0.216374 0.30651,0.375706 0.544412,0.4298 0.305668,0.08618 0.628986,0.180961 0.945558,0.229226 -0.729597,-0.233396 -1.18305,-0.801771 -1.404011,-1.575931 0.05305,0.118815 -0.139012,0.339642 -0.08596,0.458453 -0.596256,-1.016289 0.401476,-2.314362 1.432664,-1.91977 0.249739,0.09557 0.441866,0.213355 0.573065,0.372492 -0.264358,-0.305695 -0.625965,-0.509988 -1.088824,-0.515759 0.196293,-0.01416 0.415541,0.0038 0.630372,0.08596 0.170969,0.08817 0.311967,0.191608 0.429799,0.315186 -0.112645,-0.401686 -0.237546,-0.800738 -0.343839,-1.203438 -0.316414,-0.168386 -0.667494,-0.280162 -1.031519,-0.257879 -1.050032,0.05545 -1.677861,0.812978 -1.948423,1.719197 z m -0.02866,0.315186 c -0.0066,0.06707 0.0036,0.13362 0,0.200573 0.029,-0.173913 0.05661,-0.32057 0.114613,-0.487105 -0.03649,0.09471 -0.08977,0.187385 -0.114613,0.286532 z m 0.114613,-0.286532 c 0.0483,-0.138702 0.132314,-0.270413 0.200574,-0.401147 -0.08225,0.129737 -0.145394,0.257949 -0.200574,0.401147 z m 1.174785,-3.065902 c 0.20777,-0.05723 0.41473,-0.09892 0.630372,-0.114613 0.04855,-0.0036 0.09453,-0.02715 0.143267,-0.02866 -0.260296,0.0094 -0.514011,0.0646 -0.773639,0.143266 z m 0.05731,2.951289 c -0.108499,0.170904 -0.189984,0.370447 -0.229226,0.601718 -0.02281,0.188306 -0.02075,0.381944 0,0.573066 0.01974,0.181714 0.0831,0.355528 0.143267,0.515759 -0.06765,-0.171625 -0.113907,-0.339625 -0.143267,-0.515759 -0.0229,-0.137426 -0.0522,-0.271662 -0.0573,-0.401146 0.01184,-0.270555 0.117203,-0.537582 0.286533,-0.773638 z m 2.292263,1.232091 c -0.02465,0.198023 -0.06673,0.389235 -0.114613,0.573065 0.02234,-0.0058 0.0363,-0.022 0.0573,-0.02866 0.03455,-0.181418 0.07136,-0.356882 0.05731,-0.544413 z m -0.573065,1.404011 c 0.04099,0.0091 0.07206,0.02144 0.114613,0.02865 0.0288,0.0013 0.05781,5.04e-4 0.08596,0 0.0041,-0.0072 -0.0041,-0.02134 0,-0.02865 -0.06629,-5.96e-4 -0.13309,0.0061 -0.200572,0 z m -1.318052,0.229226 c 0.0865,0.06177 0.191696,0.121863 0.286533,0.171919 -0.04639,-0.02355 -0.09794,-0.03071 -0.143266,-0.05731 -0.0501,-0.03504 -0.09623,-0.07812 -0.143267,-0.114613 z"
     id="path3513"
     style="opacity:0.74021349;fill:#ffefda;fill-opacity:1;fill-rule:evenodd;stroke:none;display:inline" />
  <path
     d="m 3.6083547,3.969383 c -0.014515,0.01473 -0.014317,0.04248 -0.028653,0.0573 0.8034387,0.04608 1.5925523,0.518344 1.9484235,1.289398 0.2010782,0.603234 0.2015824,1.402496 -0.200573,2.00573 C 5.1641753,7.522889 4.9749683,7.708478 4.7831398,7.866224 4.5912095,8.02397 4.3960696,8.151448 4.1814208,8.26737 4.0638825,8.31611 3.9339901,8.369264 3.808928,8.410636 c 0.1681225,-0.02889 0.235661,-0.03293 0.3438394,-0.05731 0.038233,-0.0081 0.07654,-0.02085 0.1146132,-0.02866 0.038723,-0.0083 0.07596,-0.02075 0.1146131,-0.02866 C 4.6077044,8.164601 4.8112885,7.98716 4.9837126,7.808901 5.3285602,7.452295 5.6030239,7.011648 5.7286977,6.433549 5.9681063,5.076902 4.798529,4.038954 3.6083545,3.969366 z M 5.2988985,4.743022 C 5.6631556,5.185825 5.877494,5.753421 5.8146578,6.318953 5.7141183,6.922186 5.46921,7.408276 5.1269788,7.78027 5.1872788,7.72268 5.2703812,7.69938 5.3275519,7.637003 6.0960947,6.791606 5.9956963,5.557634 5.2988979,4.743022 z M 2.8633692,5.717233 c -0.1125263,0.01641 -0.2026599,0.0389 -0.3151862,0.05731 -0.00116,1.91e-4 0.00116,0.02847 0,0.02865 0.1899631,-0.002 0.3732905,-0.01751 0.5444125,-0.08596 -0.075404,-0.02513 -0.1538222,-0.01099 -0.2292263,0 z m 3.4383943,4.613179 c -0.03866,0.01619 -0.075467,0.04213 -0.1146131,0.0573 0.4960926,0.28572 0.9286676,0.695336 1.1461316,1.260745 0.3016187,0.829447 0.031676,1.545762 -0.4584524,2.148996 0.7476291,-1.000097 0.623144,-2.365241 -0.458453,-3.151858 -0.1166926,-0.09724 -0.2368653,-0.162081 -0.3724925,-0.229226 -0.047923,0.01719 -0.094876,0.0411 -0.1432663,0.05731 0.6051572,0.280614 1.1031061,0.784258 1.3180511,1.375357 0.2010791,0.904851 -0.083938,1.803643 -0.8882522,2.406877 -0.6953209,0.478034 -1.4823846,0.735326 -2.2636095,0.802292 -0.2024802,0.01736 -0.3989172,0.0069 -0.601719,0 -0.1461273,-0.005 -0.2845069,0.01694 -0.4297993,0 -0.1777986,-0.02067 -0.3692188,-0.04817 -0.5444124,-0.08596 0.00189,0.0111 0.026665,0.01757 0.028654,0.02866 0.1364161,0.02651 0.2638876,0.06632 0.401146,0.08596 0.4099809,0.05867 0.8295504,0.07889 1.2320913,0.0573 0.402541,-0.02158 0.8020914,-0.09882 1.1747848,-0.229226 0.1863467,-0.0652 0.3697292,-0.131463 0.5444124,-0.229227 -0.1713314,0.09752 -0.3652595,0.162167 -0.5444124,0.229227 -0.3863715,0.144627 -0.7672107,0.203302 -1.1747848,0.229226 -0.4081281,0.02596 -0.8235115,0.0044 -1.2320913,-0.0573 -0.1322759,-0.01994 -0.2702671,-0.03037 -0.401146,-0.05731 0.00546,0.02918 0.022516,0.05688 0.028654,0.08596 0.026828,0.0072 0.058756,0.02243 0.08596,0.02866 1.7901,0.336203 3.8194254,-0.131684 4.6991389,-1.891117 0.5026954,-1.005393 0.102559,-2.204791 -0.8022928,-2.808025 -0.070899,-0.04908 -0.1545225,-0.07263 -0.2292262,-0.114614 z m -2.8366753,4.727793 c 0.204824,0.0096 0.3981792,0.01703 0.601719,0 1.0176994,-0.08511 2.0010101,-0.536045 2.6647556,-1.404011 0.4021563,-0.502695 0.4016522,-1.201922 0.2005731,-1.805157 0.2010791,1.608624 -1.1280161,2.821591 -2.6361024,3.123208 -0.659786,0.09425 -1.2381512,0.0435 -1.805157,-0.114613 0.00265,0.01887 -0.00293,0.03847 0,0.0573 0.3116552,0.07573 0.6520782,0.128244 0.9742117,0.143267 z"
     id="path3527"
     style="opacity:0.74021349;fill:#ffecd4;fill-opacity:1;fill-rule:evenodd;display:inline" />
  <path
     d="M 11.172822,0.18715 C 10.723112,0.33865 10.326001,0.569499 10.169957,0.903481 9.7183877,1.475645 9.8334633,2.132852 10.198617,2.651332 10.0506,2.419835 9.9648633,2.121551 9.9980448,1.763081 10.147671,0.843224 10.834698,0.438014 11.631282,0.215803 11.476865,0.201133 11.326165,0.189303 11.172829,0.187143 z M 10.19861,2.651332 c 0.282079,0.400528 0.702023,0.700751 1.174785,0.802292 -0.386245,-0.05826 -0.796271,-0.175517 -1.117478,-0.401146 0.555816,0.432003 1.375147,0.532933 2.034383,0.286533 0.01987,0.0036 0.03751,-7.57e-4 0.05731,0 0.06111,-0.03239 0.141902,-0.07147 0.200573,-0.114614 -0.01528,0.04476 -0.07188,0.08062 -0.114613,0.114614 0.441425,-0.0706 0.832713,-0.7108 1.002865,-1.060171 -0.572282,1.18851 -2.596411,1.375647 -3.237821,0.372492 z m 2.234957,0.687679 c -0.02942,0.0047 -0.05626,0.0012 -0.08596,0 -0.09804,0.05197 -0.184327,0.117027 -0.286533,0.143266 0.166228,-0.0233 0.287024,-0.07529 0.372493,-0.143266 z M 10.255917,3.052478 C 10.146856,2.975868 10.052743,2.891509 9.9693839,2.794599 10.05031,2.898758 10.152514,2.972109 10.255917,3.052478 z m 8.595985,1.575931 c -0.02797,0.0072 -0.06923,0.02194 -0.08596,0.02865 0.01678,-6.42e-4 0.06477,0.0017 0.08596,0 -0.0025,-0.0084 0.0025,-0.02022 0,-0.02865 z M 14.38199,6.404913 c -0.109808,-0.01385 -0.206495,0.01003 -0.286533,0.02866 0.0401,0.0011 0.07841,0.02408 0.114613,0.02866 0.116701,0.01475 0.208218,0.041 0.286533,0.08596 -0.104491,-0.02611 -0.211674,-0.03843 -0.315186,-0.02866 -0.161639,0.07234 -0.275185,0.14507 -0.372493,0.200574 0.01254,0.0532 0.08764,0.115048 0.229226,0.171919 0.72985,-0.306209 -0.496123,-0.03771 0.25788,-0.343839 0.136367,0.06306 0.234605,0.133094 0.315186,0.200572 0.05756,0.0482 0.111005,0.09414 0.143267,0.143267 0.03877,0.206804 -0.04001,0.451481 -0.17192,0.659026 -0.02776,0.03199 -0.05633,0.08689 -0.08596,0.114613 0.02578,-0.02504 0.06278,-0.03091 0.08596,-0.05731 0.08545,-0.0997 0.159238,-0.204972 0.200573,-0.315186 0.0069,-0.01794 -0.0053,-0.03929 0,-0.05731 0.01778,-0.04708 0.03005,-0.09443 0.02865,-0.143266 0.0036,-0.02779 0.03017,-0.05754 0.02866,-0.08596 0.0063,0.05641 0.01119,0.113166 0,0.17192 0.09587,-0.310418 -0.02449,-0.478167 -0.200573,-0.573065 0.02759,0.02819 0.03576,0.05779 0.05731,0.08596 -0.01339,-0.01224 -0.0421,-0.0171 -0.05731,-0.02866 0.02145,0.02677 0.04184,0.05596 0.05731,0.08596 -0.0475,-0.05608 -0.122255,-0.123956 -0.200573,-0.17192 0.05265,0.02484 0.103576,0.05579 0.143267,0.08596 -0.01327,-0.01657 -0.013,-0.04218 -0.02866,-0.0573 -0.06359,-0.06262 -0.133175,-0.138872 -0.229227,-0.200573 z m 0.200573,1.203438 c -0.03669,0.0525 -0.06929,0.09735 -0.114613,0.143266 0.04927,-0.04308 0.0731,-0.09483 0.114613,-0.143266 z M 14.46795,7.751617 c -0.02856,0.02893 -0.08296,0.03178 -0.114613,0.05731 -0.07123,0.05743 -0.144532,0.136839 -0.229226,0.171919 0.127098,-0.05406 0.239418,-0.137916 0.343839,-0.229227 z m -0.114613,0.05731 c 0.06005,-0.04315 0.09171,-0.09319 0.143266,-0.143267 -0.324233,0.303306 -0.736457,0.324321 -1.117478,0.200573 0.229068,0.01621 0.467483,-0.01525 0.687679,-0.08596 0.05615,-0.01803 0.09077,-0.06357 0.143266,-0.08596 -0.378426,0.100012 -0.931837,-3.63e-4 -1.318051,-0.257879 0.04542,0.0677 0.08523,0.135943 0.143266,0.200572 0.03153,0.0494 0.07996,0.07483 0.114614,0.114613 -0.07568,-0.05196 -0.170643,-0.08122 -0.229227,-0.143266 0.0838,0.07128 0.160227,0.15158 0.25788,0.200574 -0.04696,-0.01078 -0.09916,-0.01242 -0.143267,-0.02866 -0.01455,-0.0052 -0.04309,0.0057 -0.05731,0 0.17756,0.235089 0.427513,0.307908 0.68768,0.286533 -0.14285,-0.0094 -0.244605,-0.103491 -0.372493,-0.200573 -0.0083,-0.0032 -0.02046,0.0033 -0.02866,0 -0.0055,-0.0044 0.0055,-0.02405 0,-0.02865 0.03015,0.0047 0.05512,0.02588 0.08596,0.02865 -0.01671,-0.0058 -0.04081,0.0064 -0.05731,0 0.211932,0.13692 0.414487,0.189539 0.601719,0.171919 0.1534,-0.04553 0.326356,-0.134297 0.458453,-0.229226 z M 12.920672,7.608353 c -0.03754,-0.03977 -0.05499,-0.09989 -0.08596,-0.143266 0.01233,0.03597 0.01432,0.08229 0.02865,0.114613 0.01549,0.01448 0.04118,0.01493 0.0573,0.02866 z m -0.0573,-0.02866 c -0.0672,-0.06284 -0.119102,-0.124536 -0.17192,-0.200572 -0.0083,0.01931 -0.02061,0.03792 -0.02866,0.0573 0.05893,0.125553 0.152544,0.215254 0.25788,0.286533 -0.0253,-0.04026 -0.03603,-0.09529 -0.0573,-0.143267 z m 0.02865,-0.143266 c -0.04533,-0.06757 -0.109716,-0.130394 -0.143267,-0.200573 0.01374,0.03031 0.01322,0.05536 0.02866,0.08596 0.003,0.0055 -0.0031,0.02324 0,0.02866 0.0388,0.03177 0.07192,0.0575 0.114614,0.08596 z m 1.719197,-0.687679 c -0.06243,0.06266 -0.134115,0.108955 -0.200573,0.143267 0.198149,0.295101 0.175519,0.520974 0.02866,0.687678 0.194318,-0.151026 0.29255,-0.425353 0.17192,-0.830945 z m -0.200573,0.143267 c -0.0082,-0.01215 -0.01973,-0.01629 -0.02866,-0.02866 -0.08905,0.06344 -0.158422,0.08986 -0.229226,0.114613 0.08387,-0.0055 0.169784,-0.04048 0.25788,-0.08596 z M 13.808922,6.720093 c -0.02056,0.01173 -0.07075,0.02047 -0.08596,0.02866 -0.01541,0.0163 -0.02237,0.02009 -0.02866,0.02866 0.0036,-0.0018 0.02459,0.0021 0.02866,0 0.0041,0.01706 0.04745,0.01255 0.05731,0.02866 -0.0017,-0.02975 0.02041,-0.05487 0.02866,-0.08596 z m 0.372493,-0.200572 c 0.02448,-0.01096 0.03257,-0.01868 0.05731,-0.02866 -0.01306,-0.0047 -0.01507,-0.02417 -0.02866,-0.02866 -0.108854,0.01492 -0.187574,0.03171 -0.257879,0.05731 -0.05036,0.03439 -0.08747,0.07029 -0.114613,0.114613 0.05279,-0.06285 0.192712,-0.100338 0.343839,-0.114613 z m -0.343839,0.114613 c 0.02577,-0.02513 0.02206,-0.08097 0.0573,-0.114613 -0.10829,0.0472 -0.155731,0.112743 -0.17192,0.17192 0.01133,-0.01162 0.07079,-0.01368 0.08596,-0.02866 0.0052,-0.01091 0.02214,-0.01801 0.02866,-0.02866 z m 0.114613,-0.114613 c 0.04041,-0.0276 0.05877,-0.06976 0.114613,-0.08596 -0.01998,-1.4e-4 -0.03637,-7.34e-4 -0.05731,0 -0.03935,0.03715 -0.02516,0.05542 -0.05731,0.08596 z m -0.143267,0.372492 c 0.05,0.0887 0.145444,0.138368 0.315187,0.08596 -0.13455,0.0022 -0.241194,-0.0245 -0.315187,-0.08596 z m -1.174785,0.630372 c 0.03639,0.0446 0.06718,0.07844 0.114613,0.114613 -0.03839,-0.03301 -0.08282,-0.07361 -0.114613,-0.114613 z m 1.661891,0.143267 c -0.06119,0.03186 -0.105035,0.08962 -0.171919,0.114613 0.08842,-0.03334 0.163025,-0.06381 0.229226,-0.114613 -0.01562,0.0083 -0.04115,-0.0079 -0.05731,0 z m 4.756446,1.260744 c -0.05724,0.07471 -0.117628,0.159998 -0.17192,0.25788 -0.567385,1.279842 0.951764,1.698115 1.776504,1.232092 -0.0052,-0.0715 -0.04367,-0.130388 -0.0573,-0.200574 -0.08545,0.08692 -0.22232,0.126797 -0.372493,0.17192 0.13852,-0.04358 0.264806,-0.128334 0.372493,-0.257879 -0.01476,-0.06002 -0.03609,-0.114195 -0.05731,-0.17192 -0.393137,0.55042 -1.867906,0.04042 -1.203438,-0.744986 -0.659308,0.750015 0.64381,1.49257 1.203438,0.830946 -0.09982,0.141055 -0.216259,0.299439 -0.401147,0.372493 -0.0086,0.0018 -0.0198,-0.0017 -0.02866,0 -0.04114,0.01511 -0.09802,0.0181 -0.143266,0.02866 -0.396382,0.0044 -0.808664,-0.249319 -0.974212,-0.601719 -0.0022,0.06435 -0.017,0.141828 0,0.200573 -0.06955,-0.139202 -0.09436,-0.309035 -0.05731,-0.458453 0.0084,0.08067 0.02496,0.155268 0.05731,0.229226 0.01642,-0.226783 0.169038,-0.433155 0.34384,-0.630371 0.0075,-0.0084 0.02059,-0.02014 0.02866,-0.02866 0.03336,-0.03346 0.07292,-0.08141 0.114613,-0.114614 -0.03926,-0.01273 -0.07654,-0.01868 -0.114613,-0.02866 -0.19263,0.150702 -0.369138,0.328822 -0.4298,0.544411 -0.01206,-0.188771 0.06781,-0.404558 0.229226,-0.601717 -0.03778,-0.0047 -0.07793,-0.02733 -0.114613,-0.02865 z m 0.02866,1.260746 c 0.03717,0.0403 0.0919,0.07865 0.143266,0.114613 -0.05493,-0.03773 -0.109609,-0.06646 -0.143266,-0.114613 z m 0.401146,0.229226 c 0.09035,0.02179 0.195142,0.05455 0.315185,0.05731 -0.0707,0.0063 -0.121615,0.0049 -0.200572,0 -0.04429,-0.01368 -0.07525,-0.04168 -0.114613,-0.05731 z"
     id="path3616"
     style="opacity:0.74021349;fill:#ffdec2;fill-opacity:1;fill-rule:evenodd;display:inline" />
  <path
     d="m 16.55964,2.651332 c -0.09364,0.164332 -0.165603,0.33579 -0.229226,0.515759 0.01319,-0.04135 0.0424,-0.07398 0.05731,-0.114613 -0.08513,0.219968 -0.138332,0.427212 -0.17192,0.659026 -0.01883,0.129979 -0.0277,0.270211 -0.02865,0.401146 0.0019,0.303228 0.04301,0.614661 0.143267,0.916905 C 16.550395,5.4121 16.923899,5.67408 17.419245,5.68858 16.842066,5.538554 16.513825,5.13 16.359074,4.628409 c 0.151635,0.365887 0.435163,0.674008 0.773638,0.830945 0.592334,0.274641 1.245326,-0.04862 1.604585,-0.601719 -0.365411,0.344624 -0.857064,0.752507 -1.404013,0.601719 -0.71619,-0.229254 -1.01307,-0.893206 -1.031519,-1.518624 0.0099,-0.454114 0.144188,-0.887059 0.372493,-1.289398 -0.02811,-0.0014 -0.05772,0.0011 -0.08596,0 -0.002,0.0036 -0.02666,-0.0036 -0.02866,0 z M 16.330414,5.029555 C 16.223332,4.73567 16.184913,4.419563 16.187147,4.11265 c -8.25e-4,-0.134656 0.01176,-0.269207 0.02866,-0.401146 0.02358,-0.184058 0.05888,-0.369812 0.114613,-0.544413 -0.146554,0.414552 -0.239673,0.859123 -0.200573,1.318052 0.03116,0.200967 0.105233,0.378611 0.200573,0.544412 z m 0,-1.604584 c -0.04885,0.202468 -0.09101,0.423564 -0.08596,0.630372 -0.01053,-0.202475 0.01883,-0.430171 0.08596,-0.630372 z"
     id="path3511"
     style="opacity:0.77021353;fill:#fff6e3;fill-opacity:1;fill-rule:evenodd;display:inline" />
</svg>
