<?xml version="1.0" encoding="UTF-8" standalone="no"?>
<!-- Created with Inkscape (http://www.inkscape.org/) -->

<svg
   xmlns:dc="http://purl.org/dc/elements/1.1/"
   xmlns:cc="http://creativecommons.org/ns#"
   xmlns:rdf="http://www.w3.org/1999/02/22-rdf-syntax-ns#"
   xmlns:svg="http://www.w3.org/2000/svg"
   xmlns="http://www.w3.org/2000/svg"
   xmlns:xlink="http://www.w3.org/1999/xlink"
   xmlns:sodipodi="http://sodipodi.sourceforge.net/DTD/sodipodi-0.dtd"
   xmlns:inkscape="http://www.inkscape.org/namespaces/inkscape"
   version="1.0"
   width="32"
   height="32"
   id="svg2482"
   inkscape:version="0.47pre4 r22446"
   sodipodi:docname="emblem-furry-24.svg">
  <metadata
     id="metadata3622">
    <rdf:RDF>
      <cc:Work
         rdf:about="">
        <dc:format>image/svg+xml</dc:format>
        <dc:type
           rdf:resource="http://purl.org/dc/dcmitype/StillImage" />
        <dc:title></dc:title>
      </cc:Work>
    </rdf:RDF>
  </metadata>
  <sodipodi:namedview
     pagecolor="#ffffff"
     bordercolor="#666666"
     borderopacity="1"
     objecttolerance="10"
     gridtolerance="10"
     guidetolerance="10"
     inkscape:pageopacity="0"
     inkscape:pageshadow="2"
     inkscape:window-width="1024"
     inkscape:window-height="688"
     id="namedview3620"
     showgrid="false"
     inkscape:zoom="7.2407734"
     inkscape:cx="29.982889"
     inkscape:cy="20.470112"
     inkscape:window-x="0"
     inkscape:window-y="24"
     inkscape:window-maximized="1"
     inkscape:current-layer="svg2482" />
  <defs
     id="defs2484">
    <inkscape:perspective
       sodipodi:type="inkscape:persp3d"
       inkscape:vp_x="0 : 12 : 1"
       inkscape:vp_y="0 : 1000 : 0"
       inkscape:vp_z="24 : 12 : 1"
       inkscape:persp3d-origin="12 : 8 : 1"
       id="perspective3624" />
    <linearGradient
       id="linearGradient3584">
      <stop
         id="stop3586"
         style="stop-color:#f19765;stop-opacity:1"
         offset="0" />
      <stop
         id="stop3588"
         style="stop-color:#de1000;stop-opacity:1"
         offset="1" />
    </linearGradient>
    <radialGradient
       cx="11.376413"
       cy="11.482934"
       r="9.936264"
       fx="11.376413"
       fy="11.482934"
       id="radialGradient3590"
       xlink:href="#linearGradient3584"
       gradientUnits="userSpaceOnUse"
       gradientTransform="matrix(1.3236902,-4.4149302e-8,4.6758856e-8,1.4019302,-3.4122575,-5.2396272)" />
    <inkscape:perspective
       id="perspective3689"
       inkscape:persp3d-origin="0.5 : 0.33333333 : 1"
       inkscape:vp_z="1 : 0.5 : 1"
       inkscape:vp_y="0 : 1000 : 0"
       inkscape:vp_x="0 : 0.5 : 1"
       sodipodi:type="inkscape:persp3d" />
    <inkscape:perspective
       id="perspective3702"
       inkscape:persp3d-origin="0.5 : 0.33333333 : 1"
       inkscape:vp_z="1 : 0.5 : 1"
       inkscape:vp_y="0 : 1000 : 0"
       inkscape:vp_x="0 : 0.5 : 1"
       sodipodi:type="inkscape:persp3d" />
    <inkscape:perspective
       id="perspective3728"
       inkscape:persp3d-origin="0.5 : 0.33333333 : 1"
       inkscape:vp_z="1 : 0.5 : 1"
       inkscape:vp_y="0 : 1000 : 0"
       inkscape:vp_x="0 : 0.5 : 1"
       sodipodi:type="inkscape:persp3d" />
    <inkscape:perspective
       id="perspective3741"
       inkscape:persp3d-origin="0.5 : 0.33333333 : 1"
       inkscape:vp_z="1 : 0.5 : 1"
       inkscape:vp_y="0 : 1000 : 0"
       inkscape:vp_x="0 : 0.5 : 1"
       sodipodi:type="inkscape:persp3d" />
    <inkscape:perspective
       id="perspective2866"
       inkscape:persp3d-origin="0.5 : 0.33333333 : 1"
       inkscape:vp_z="1 : 0.5 : 1"
       inkscape:vp_y="0 : 1000 : 0"
       inkscape:vp_x="0 : 0.5 : 1"
       sodipodi:type="inkscape:persp3d" />
    <radialGradient
       cx="11.376413"
       cy="11.482934"
       r="9.936264"
       fx="11.376413"
       fy="11.482934"
       id="radialGradient3590-3"
       xlink:href="#linearGradient3584-3"
       gradientUnits="userSpaceOnUse"
       gradientTransform="matrix(1.3236902,-4.4149302e-8,4.6758856e-8,1.4019302,-3.4122575,-5.2396272)" />
    <linearGradient
       id="linearGradient3584-3">
      <stop
         id="stop3586-3"
         style="stop-color:#f19765;stop-opacity:1"
         offset="0" />
      <stop
         id="stop3588-8"
         style="stop-color:#de1000;stop-opacity:1"
         offset="1" />
    </linearGradient>
    <radialGradient
       r="9.936264"
       fy="11.482934"
       fx="11.376413"
       cy="11.482934"
       cx="11.376413"
       gradientTransform="matrix(1.3236902,-4.4149302e-8,4.6758856e-8,1.4019302,-3.4122575,-5.2396272)"
       gradientUnits="userSpaceOnUse"
       id="radialGradient2875"
       xlink:href="#linearGradient3584-3"
       inkscape:collect="always" />
    <inkscape:perspective
       id="perspective2905"
       inkscape:persp3d-origin="0.5 : 0.33333333 : 1"
       inkscape:vp_z="1 : 0.5 : 1"
       inkscape:vp_y="0 : 1000 : 0"
       inkscape:vp_x="0 : 0.5 : 1"
       sodipodi:type="inkscape:persp3d" />
    <radialGradient
       cx="11.376413"
       cy="11.482934"
       r="9.936264"
       fx="11.376413"
       fy="11.482934"
       id="radialGradient3590-2"
       xlink:href="#linearGradient3584-6"
       gradientUnits="userSpaceOnUse"
       gradientTransform="matrix(1.3236902,-4.4149302e-8,4.6758856e-8,1.4019302,-3.4122575,-5.2396272)" />
    <linearGradient
       id="linearGradient3584-6">
      <stop
         id="stop3586-5"
         style="stop-color:#f19765;stop-opacity:1"
         offset="0" />
      <stop
         id="stop3588-2"
         style="stop-color:#de1000;stop-opacity:1"
         offset="1" />
    </linearGradient>
    <radialGradient
       r="9.936264"
       fy="11.482934"
       fx="11.376413"
       cy="11.482934"
       cx="11.376413"
       gradientTransform="matrix(1.3236902,-4.4149302e-8,4.6758856e-8,1.4019302,-3.4122575,-5.2396272)"
       gradientUnits="userSpaceOnUse"
       id="radialGradient2914"
       xlink:href="#linearGradient3584-6"
       inkscape:collect="always" />
    <inkscape:perspective
       id="perspective2905-2"
       inkscape:persp3d-origin="0.5 : 0.33333333 : 1"
       inkscape:vp_z="1 : 0.5 : 1"
       inkscape:vp_y="0 : 1000 : 0"
       inkscape:vp_x="0 : 0.5 : 1"
       sodipodi:type="inkscape:persp3d" />
    <radialGradient
       cx="11.376413"
       cy="11.482934"
       r="9.936264"
       fx="11.376413"
       fy="11.482934"
       id="radialGradient3590-4"
       xlink:href="#linearGradient3584-7"
       gradientUnits="userSpaceOnUse"
       gradientTransform="matrix(1.3236902,-4.4149302e-8,4.6758856e-8,1.4019302,-3.4122575,-5.2396272)" />
    <linearGradient
       id="linearGradient3584-7">
      <stop
         id="stop3586-9"
         style="stop-color:#f19765;stop-opacity:1"
         offset="0" />
      <stop
         id="stop3588-3"
         style="stop-color:#de1000;stop-opacity:1"
         offset="1" />
    </linearGradient>
    <radialGradient
       r="9.936264"
       fy="11.482934"
       fx="11.376413"
       cy="11.482934"
       cx="11.376413"
       gradientTransform="matrix(1.3236902,-4.4149302e-8,4.6758856e-8,1.4019302,-3.4122575,-5.2396272)"
       gradientUnits="userSpaceOnUse"
       id="radialGradient2914-9"
       xlink:href="#linearGradient3584-7"
       inkscape:collect="always" />
    <inkscape:perspective
       id="perspective2905-4"
       inkscape:persp3d-origin="0.5 : 0.33333333 : 1"
       inkscape:vp_z="1 : 0.5 : 1"
       inkscape:vp_y="0 : 1000 : 0"
       inkscape:vp_x="0 : 0.5 : 1"
       sodipodi:type="inkscape:persp3d" />
    <radialGradient
       cx="11.376413"
       cy="11.482934"
       r="9.936264"
       fx="11.376413"
       fy="11.482934"
       id="radialGradient3590-9"
       xlink:href="#linearGradient3584-2"
       gradientUnits="userSpaceOnUse"
       gradientTransform="matrix(1.3236902,-4.4149302e-8,4.6758856e-8,1.4019302,-3.4122575,-5.2396272)" />
    <linearGradient
       id="linearGradient3584-2">
      <stop
         id="stop3586-57"
         style="stop-color:#f19765;stop-opacity:1"
         offset="0" />
      <stop
         id="stop3588-4"
         style="stop-color:#de1000;stop-opacity:1"
         offset="1" />
    </linearGradient>
    <radialGradient
       r="9.936264"
       fy="11.482934"
       fx="11.376413"
       cy="11.482934"
       cx="11.376413"
       gradientTransform="matrix(1.3236902,-4.4149302e-8,4.6758856e-8,1.4019302,-3.4122575,-5.2396272)"
       gradientUnits="userSpaceOnUse"
       id="radialGradient2914-99"
       xlink:href="#linearGradient3584-2"
       inkscape:collect="always" />
    <inkscape:perspective
       id="perspective2866-3"
       inkscape:persp3d-origin="0.5 : 0.33333333 : 1"
       inkscape:vp_z="1 : 0.5 : 1"
       inkscape:vp_y="0 : 1000 : 0"
       inkscape:vp_x="0 : 0.5 : 1"
       sodipodi:type="inkscape:persp3d" />
    <radialGradient
       cx="15.458734"
       cy="48.859558"
       r="10.625"
       fx="15.458734"
       fy="48.859558"
       id="radialGradient5572"
       xlink:href="#linearGradient6672"
       gradientUnits="userSpaceOnUse"
       gradientTransform="matrix(1.6461551,0.01604175,-0.00396633,0.1646925,74.183821,41.296166)" />
    <linearGradient
       id="linearGradient6672">
      <stop
         id="stop6674"
         style="stop-color:black;stop-opacity:1"
         offset="0" />
      <stop
         id="stop6676"
         style="stop-color:black;stop-opacity:0"
         offset="1" />
    </linearGradient>
    <inkscape:perspective
       id="perspective2857"
       inkscape:persp3d-origin="0.5 : 0.33333333 : 1"
       inkscape:vp_z="1 : 0.5 : 1"
       inkscape:vp_y="0 : 1000 : 0"
       inkscape:vp_x="0 : 0.5 : 1"
       sodipodi:type="inkscape:persp3d" />
    <radialGradient
       cx="11.25"
       cy="19.03125"
       r="8.0625"
       fx="11.25"
       fy="19.03125"
       id="radialGradient4811"
       xlink:href="#linearGradient5105-262-943-861"
       gradientUnits="userSpaceOnUse"
       gradientTransform="matrix(1,0,0,0.282946,0,13.64644)" />
    <linearGradient
       id="linearGradient5105-262-943-861">
      <stop
         id="stop2487"
         style="stop-color:#0d0d0d;stop-opacity:1"
         offset="0" />
      <stop
         id="stop2489"
         style="stop-color:#0d0d0d;stop-opacity:0"
         offset="1" />
    </linearGradient>
    <inkscape:perspective
       id="perspective2894"
       inkscape:persp3d-origin="0.5 : 0.33333333 : 1"
       inkscape:vp_z="1 : 0.5 : 1"
       inkscape:vp_y="0 : 1000 : 0"
       inkscape:vp_x="0 : 0.5 : 1"
       sodipodi:type="inkscape:persp3d" />
    <radialGradient
       cx="11.376413"
       cy="11.482934"
       r="9.936264"
       fx="11.376413"
       fy="11.482934"
       id="radialGradient3590-39"
       xlink:href="#linearGradient3584-4"
       gradientUnits="userSpaceOnUse"
       gradientTransform="matrix(1.3236902,-4.4149302e-8,4.6758856e-8,1.4019302,-3.4122575,-5.2396272)" />
    <linearGradient
       id="linearGradient3584-4">
      <stop
         id="stop3586-1"
         style="stop-color:#f19765;stop-opacity:1"
         offset="0" />
      <stop
         id="stop3588-5"
         style="stop-color:#de1000;stop-opacity:1"
         offset="1" />
    </linearGradient>
    <inkscape:perspective
       id="perspective3742"
       inkscape:persp3d-origin="0.5 : 0.33333333 : 1"
       inkscape:vp_z="1 : 0.5 : 1"
       inkscape:vp_y="0 : 1000 : 0"
       inkscape:vp_x="0 : 0.5 : 1"
       sodipodi:type="inkscape:persp3d" />
    <radialGradient
       cx="11.376413"
       cy="11.482934"
       r="9.936264"
       fx="11.376413"
       fy="11.482934"
       id="radialGradient3590-392"
       xlink:href="#linearGradient3584-44"
       gradientUnits="userSpaceOnUse"
       gradientTransform="matrix(1.3236902,-4.4149302e-8,4.6758856e-8,1.4019302,-3.4122575,-5.2396272)" />
    <linearGradient
       id="linearGradient3584-44">
      <stop
         id="stop3586-4"
         style="stop-color:#f19765;stop-opacity:1"
         offset="0" />
      <stop
         id="stop3588-9"
         style="stop-color:#de1000;stop-opacity:1"
         offset="1" />
    </linearGradient>
    <radialGradient
       r="9.936264"
       fy="11.482934"
       fx="11.376413"
       cy="11.482934"
       cx="11.376413"
       gradientTransform="matrix(1.7653795,-5.8881052e-8,6.2361362e-8,1.8697266,-4.6709288,-8.0882903)"
       gradientUnits="userSpaceOnUse"
       id="radialGradient3751"
       xlink:href="#linearGradient3584-44"
       inkscape:collect="always" />
    <filter
       inkscape:collect="always"
       id="filter3867"
       color-interpolation-filters="sRGB">
      <feGaussianBlur
         inkscape:collect="always"
         stdDeviation="0.41857139"
         id="feGaussianBlur3869" />
    </filter>
  </defs>
  <path
     d="m 11.27919,30.596006 c -0.385693,-0.45215 -0.508159,-1.36727 -1.2903368,-1.25028 -1.1351004,0.09831 -2.0239064,-0.72213 -2.9932914,-1.16411 -0.654504,-0.30694 -1.419927,-9.4e-4 -2.065587,-0.37205 -1.418197,-0.67766 -2.079211,-2.37609 -1.895252,-3.83148 0.160374,-1.16706 0.873492,-2.2049 1.764911,-2.95692 0.77271,-0.50993 1.746117,-0.61251 2.58262,-1.00107 0.650953,-0.19743 1.110561,-0.67281 1.619578,-1.07837 0.8556854,-0.53299 2.0640742,-0.69467 2.9296812,-0.04263 0.752891,0.50306 1.575729,0.9103 2.301593,1.44729 0.566869,0.59751 0.428377,1.47123 0.589257,2.20652 0.06733,1.44421 0.694144,2.78971 0.947327,4.20218 0.206668,0.84495 -0.138127,1.66569 -0.616411,2.34124 -0.547228,0.79425 -1.133205,1.80679 -2.22714,1.89286 -0.545403,-0.02667 -1.229591,0.02902 -1.646949,-0.39318 z m 6.302901,-6.9664 c -0.344922,-0.630649 -0.599256,-1.518144 -0.09889,-2.14174 0.808109,-1.007124 1.808274,-1.85182 2.840267,-2.63 0.470478,-0.42154 0.994529,-0.359381 1.684819,-0.03292 0.728403,0.344487 0.97561,1.195174 0.827937,1.921477 -0.214737,1.056137 -0.589966,2.205233 -1.684345,2.657713 -0.950104,0.39881 -2.012998,0.877151 -3.068443,0.61042 -0.208172,-0.05261 -0.400056,-0.199749 -0.501348,-0.38495 z M 4.4483388,18.359196 c -0.68609,-0.39825 -1.230891,-1.051666 -1.347634,-1.844516 -0.148209,-1.00655 0.034277,-2.087587 0.7177615,-2.863576 0.6089533,-0.691371 1.3779695,-1.531938 2.4167085,-1.420778 0.905041,0.0276 0.850102,0.85756 0.856049,1.4953 0.08246,0.719948 0.4112994,1.384966 0.5651325,2.086745 0.02656,0.121166 0.02893,0.24134 0.00571,0.325984 -0.2148907,0.783503 -0.7811816,1.449003 -1.3809069,1.990221 -0.407283,0.48371 -1.0414045,0.622177 -1.663871,0.31421 l -0.168953,-0.08359 -1e-6,0 z m 10.8352232,0.47866 c -0.62949,-0.333214 -1.526738,-0.895083 -1.222478,-1.70283 0.284874,-0.756283 0.712591,-1.450689 0.986253,-2.21795 0.333821,-0.935927 0.959711,-2.255537 1.370202,-2.65287 0.658241,-0.63714 1.747678,-0.621495 2.63682,-0.51999 1.08571,0.123945 1.627999,1.274498 1.892598,2.21088 0.195048,0.690248 0.278195,1.4513 -0.123095,2.06456 -0.514998,0.78703 -1.236289,1.438413 -1.966377,2.03198 -0.673639,0.547673 -1.523532,0.91945 -2.396716,1.05504 -0.411473,0.05977 -0.813933,-0.07652 -1.177207,-0.26882 z m -4.889165,-2.3899 c -1.1160822,-1.04586 -1.5890002,-2.66411 -1.3770632,-4.12154 0.198065,-0.831 0.6895934,-1.553114 1.2453812,-2.18753 0.479208,-0.5470037 1.073241,-1.110609 1.893053,-1.1309299 0.86452,-0.021429 1.869602,0.043278 2.491845,0.65485 0.537455,0.5282389 0.909872,1.4832199 0.529506,2.2102099 -0.713866,1.13872 -1.372806,2.31301 -1.899584,3.55065 -0.280894,0.53366 -0.470819,1.31372 -1.195637,1.39263 -0.572006,0.06063 -1.199875,-0.04306 -1.687501,-0.36834 z"
     id="path2463-4"
     style="opacity:0.11923074;fill:#000000;fill-opacity:1;filter:url(#filter3867)"
     transform="matrix(1.3336802,0,0,1.3336802,-0.66736047,-10.675685)" />
  <path
     d="m 13.668182,29.049967 c -0.51439,-0.603023 -0.677721,-1.823501 -1.720898,-1.667474 -1.51386,0.131115 -2.699243,-0.96309 -3.9920926,-1.55255 -0.872899,-0.40936 -1.8937286,-0.0013 -2.7548326,-0.496196 C 3.3089375,24.429965 2.4273562,22.164803 2.6726987,20.223778 2.8865863,18.667293 3.8376577,17.283147 5.0265256,16.280192 6.0570737,15.600109 7.3552874,15.4633 8.4709149,14.945085 9.339078,14.681777 9.9520481,14.047772 10.630914,13.506884 c 1.14121,-0.710838 2.752815,-0.926467 3.907258,-0.05685 1.004116,0.670922 2.101519,1.21405 3.069589,1.930223 0.756022,0.796887 0.571318,1.96215 0.78588,2.942792 0.0898,1.926114 0.925767,3.720581 1.263432,5.604364 0.275629,1.126893 -0.184217,2.221498 -0.822095,3.122466 -0.729828,1.059275 -1.511334,2.40968 -2.970293,2.52447 -0.727393,-0.03557 -1.639881,0.0387 -2.196503,-0.524377 z m 8.406054,-9.29095 c -0.460015,-0.841084 -0.799216,-2.024718 -0.131887,-2.856396 1.077759,-1.343182 2.411659,-2.469736 3.788008,-3.507579 0.627467,-0.5622 1.326383,-0.479299 2.247009,-0.04391 0.971457,0.459436 1.301152,1.59398 1.104204,2.562636 -0.286391,1.408549 -0.786826,2.941076 -2.246378,3.544539 -1.267135,0.531885 -2.684696,1.169839 -4.092322,0.814105 -0.277635,-0.07016 -0.533547,-0.266401 -0.668638,-0.5134 z M 4.5580104,12.729976 C 3.6429858,12.198837 2.9163954,11.327389 2.7606976,10.269981 2.5630342,8.9275651 2.8064122,7.4858075 3.7179619,6.4508849 4.5301109,5.5288184 5.5557326,4.4077708 6.9410783,4.5560227 8.1481136,4.5928323 8.0748425,5.6997336 8.0827739,6.5502748 8.1927492,7.5104539 8.6313158,8.3973766 8.83648,9.3333254 8.8719025,9.4949221 8.8750633,9.6551957 8.8440953,9.7680838 8.5574998,10.813026 7.8022488,11.700589 7.002407,12.422402 6.4592218,13.067517 5.6135064,13.252189 4.7833352,12.841458 l -0.2253293,-0.111482 -1.3e-6,0 z m 14.4507226,0.638379 c -0.839538,-0.444401 -2.03618,-1.193755 -1.630394,-2.271031 0.379931,-1.008639 0.950368,-1.9347551 1.315346,-2.9580359 0.44521,-1.2482273 1.279947,-3.0081651 1.827411,-3.5380803 0.877883,-0.8497423 2.330844,-0.8288756 3.516675,-0.6935004 1.44799,0.165303 2.17123,1.6997728 2.52412,2.948607 0.260132,0.9205701 0.371024,1.9355701 -0.164169,2.7534629 -0.686843,1.0496467 -1.648814,1.9183827 -2.622518,2.7100117 -0.898419,0.73042 -2.031905,1.226252 -3.196453,1.407086 -0.548773,0.07971 -1.085526,-0.102053 -1.570018,-0.35852 z M 12.488151,10.180993 C 10.999654,8.7861497 10.368933,6.6279217 10.651589,4.6841761 c 0.264155,-1.1082883 0.919697,-2.0713573 1.66094,-2.9174657 0.639112,-0.7295283 1.43136,-1.48119753 2.524727,-1.50829912 1.152994,-0.0285794 2.493452,0.057719 3.323325,0.87336062 0.716793,0.7045011 1.213478,1.9781414 0.706192,2.9477135 C 17.914704,5.5981738 17.035888,7.1643012 16.333335,8.8149172 15.958712,9.526649 15.705413,10.567 14.738737,10.67224 c -0.762873,0.08086 -1.600248,-0.05743 -2.250586,-0.491247 z"
     id="path2463"
     style="fill:url(#radialGradient3751);fill-opacity:1" />
  <path
     style="opacity:0.74021349;fill:#ffefda;fill-opacity:1;fill-rule:evenodd;stroke:none;display:inline"
     d="m 17.842937,18.07135 c -0.137052,-0.0076 -0.277874,0.03665 -0.416775,0.04168 0.22802,-0.0071 0.479947,0.01914 0.708517,0.04168 0.08069,0.008 0.169617,-0.01147 0.250066,0 -0.183562,-0.03333 -0.352289,-0.0729 -0.541808,-0.08336 z m 0.291742,0.08336 c -0.301071,-0.03237 -0.604485,-0.02654 -0.916905,0 -0.299235,0.02542 -0.60909,0.08151 -0.916905,0.16671 -0.0116,0.0035 -0.03011,-0.0036 -0.04168,0 -0.0132,0.0037 -0.02845,-0.0039 -0.04168,0 -1.407854,0.465019 -2.324276,1.652912 -2.750715,3.000781 0.01014,-0.04012 -0.0112,-0.08525 0,-0.125033 -0.03058,0.109309 -0.06046,0.222037 -0.08335,0.33342 -0.04,0.194702 -0.06623,0.38344 -0.08336,0.583485 0.0044,-0.06868 -0.0068,-0.139848 0,-0.208387 -0.05244,0.409444 -0.04185,0.835807 0,1.250325 0.01616,0.154035 0.05583,0.306827 0.08336,0.458453 0.0261,0.141378 0.04689,0.277695 0.08335,0.416775 0.01107,0.04364 0.02966,0.08157 0.04168,0.125032 0.01187,0.04154 0.02889,0.08378 0.04168,0.125033 0.09757,0.326267 0.225718,0.619252 0.375097,0.916905 -0.04482,-0.0878 -0.126446,-0.159794 -0.16671,-0.250065 0.130768,0.305561 0.280213,0.633757 0.458453,0.916905 0.03035,0.03869 0.09348,0.04562 0.125032,0.08335 0.142568,0.187205 0.292652,0.341272 0.458453,0.50013 0.03888,0.03686 0.09795,0.06708 0.125032,0.08336 -0.012,-0.02131 0.0116,-0.06188 0,-0.08336 -0.324487,-0.809849 -0.547283,-1.707364 -0.541807,-2.625683 -0.05717,0.601671 -0.01422,1.206886 0.16671,1.792133 -0.269086,-0.800884 -0.317547,-1.648984 -0.125033,-2.417295 0.01523,-0.154435 0.0155,-0.304176 0.04168,-0.458453 -0.284772,0.953815 -0.319913,1.995086 -0.04168,2.917426 -0.06563,-0.08242 -0.107108,-0.159775 -0.16671,-0.250065 -0.238256,-0.361857 -0.419335,-0.738079 -0.541807,-1.166971 -0.425974,-1.882544 0.378836,-3.640161 2.125553,-4.834591 0.874186,-0.579098 1.795669,-0.606357 2.66736,-0.33342 -0.0353,-0.251525 -0.113109,-0.494548 -0.125032,-0.750195 -0.0088,-0.04036 0.0076,-0.08409 0,-0.125032 -0.08462,-0.01364 -0.164422,-0.03248 -0.250066,-0.04168 z m -3.66762,4.584526 c 0.172186,-0.449985 0.468691,-0.862882 0.791872,-1.208648 -0.11755,0.151792 -0.196647,0.33567 -0.291742,0.50013 0.127353,-0.177107 0.251287,-0.348514 0.416775,-0.50013 0.649421,-0.669243 1.714426,-1.194666 2.584005,-0.791872 0.05143,-0.01769 0.11511,-0.02519 0.16671,-0.04168 -0.937438,-0.358728 -1.892624,-0.05958 -2.625683,0.583485 0.131928,-0.143468 0.262398,-0.290351 0.416776,-0.416775 0.604966,-0.429456 1.497554,-0.48138 2.208907,-0.16671 0.213985,0.09465 0.414336,0.210959 0.583486,0.375098 -0.504593,-0.08562 -1.017252,-0.05221 -1.458713,0.08336 0.305922,-0.117444 0.630659,-0.244988 0.958582,-0.291743 -0.07691,-0.0538 -0.16923,-0.0876 -0.250065,-0.125032 -0.437441,0.15048 -0.828155,0.380328 -1.208647,0.625162 -0.205471,0.107682 -0.372188,0.223362 -0.541808,0.375098 -0.01431,0.01294 -0.02766,0.02847 -0.04168,0.04168 -0.01506,0.0141 -0.02697,0.02725 -0.04168,0.04168 -0.01372,0.0135 -0.02825,0.02789 -0.04168,0.04168 -0.283772,0.285219 -0.453421,0.616743 -0.583486,1.000261 -0.0104,0.03134 -0.03242,0.05145 -0.04168,0.08336 -0.03984,0.134369 -0.06708,0.269892 -0.08335,0.416775 -0.02313,0.528506 0.05295,1.070614 0.208388,1.542067 0.08139,0.235499 0.177246,0.454224 0.291742,0.666841 -0.07228,-0.131168 -0.109202,-0.276475 -0.16671,-0.416776 0.107308,0.240331 0.230617,0.500979 0.375098,0.708518 -0.0679,-0.09959 -0.149749,-0.185341 -0.208388,-0.291742 0.562825,1.045147 1.482092,1.780695 2.667361,1.875487 0.01067,-0.0158 0.03099,-0.02591 0.04168,-0.04168 -0.07182,-0.0083 -0.138327,-0.02939 -0.208387,-0.04168 0.07221,0.0128 0.136231,-0.008 0.208387,0 0.07645,-0.112882 0.175368,-0.225004 0.250065,-0.33342 0.112323,-0.158653 0.193502,-0.330348 0.291743,-0.50013 -0.55332,0.06366 -1.140509,-0.02445 -1.667101,-0.33342 0.07714,0.172828 0.08954,0.160606 0.16671,0.33342 -0.5704,-0.218283 -0.953066,-0.630888 -1.208647,-1.083615 0.192743,0.314726 0.445833,0.546481 0.791872,0.625163 0.444608,0.125352 0.91489,0.263216 1.375358,0.33342 -1.061232,-0.339485 -1.7208,-1.166212 -2.042198,-2.292263 0.07717,0.172821 -0.202199,0.494024 -0.125032,0.66684 -0.867281,-1.478238 0.583965,-3.366344 2.083875,-2.792393 0.363257,0.139007 0.642715,0.310335 0.83355,0.541807 -0.384521,-0.444647 -0.910495,-0.7418 -1.583745,-0.750195 0.285518,-0.0206 0.604424,0.0055 0.916905,0.125033 0.248683,0.128247 0.45377,0.278702 0.625163,0.458452 -0.163848,-0.58427 -0.345522,-1.16471 -0.50013,-1.750455 -0.460239,-0.244925 -0.9709,-0.407509 -1.500391,-0.375097 -1.52732,0.08065 -2.440526,1.182514 -2.83407,2.50065 z m -0.04168,0.458453 c -0.0096,0.09755 0.0053,0.194356 0,0.291742 0.04218,-0.252964 0.08234,-0.466284 0.16671,-0.708517 -0.05308,0.137757 -0.13058,0.272561 -0.16671,0.416775 z m 0.16671,-0.416775 c 0.07026,-0.201748 0.192456,-0.393328 0.291743,-0.583486 -0.119631,0.188708 -0.211482,0.375199 -0.291743,0.583486 z m 1.708778,-4.459494 c 0.302211,-0.08325 0.603244,-0.143883 0.916905,-0.16671 0.07062,-0.0052 0.137491,-0.03949 0.208388,-0.04168 -0.378613,0.0137 -0.747653,0.09397 -1.125293,0.208387 z m 0.08336,4.292784 c -0.157817,0.248588 -0.276341,0.538833 -0.33342,0.875227 -0.03317,0.273899 -0.03019,0.555555 0,0.83355 0.02871,0.264312 0.120872,0.517132 0.208388,0.750195 -0.0984,-0.249636 -0.165683,-0.494 -0.208388,-0.750195 -0.03331,-0.199892 -0.07593,-0.395144 -0.08335,-0.583485 0.01722,-0.393534 0.170478,-0.781938 0.416775,-1.125292 z m 3.334201,1.792132 c -0.03586,0.288035 -0.09707,0.566161 -0.16671,0.83355 0.03249,-0.0084 0.0528,-0.032 0.08335,-0.04168 0.05025,-0.263881 0.1038,-0.519102 0.08336,-0.791873 z m -0.83355,2.042198 c 0.05963,0.0132 0.104814,0.03118 0.16671,0.04168 0.04189,0.0019 0.08408,7.65e-4 0.125032,0 0.006,-0.01054 -0.0059,-0.03105 0,-0.04168 -0.09642,-8.36e-4 -0.193586,0.0089 -0.291742,0 z m -1.917166,0.33342 c 0.12582,0.08985 0.27883,0.177256 0.416775,0.250065 -0.06748,-0.03425 -0.142457,-0.04467 -0.208387,-0.08336 -0.07287,-0.05097 -0.139967,-0.113629 -0.208388,-0.16671 z"
     id="path3513" />
  <path
     style="opacity:0.74021349;fill:#ffecd4;fill-opacity:1;fill-rule:evenodd;display:inline"
     d="m 4.3394249,5.7764855 c -0.021112,0.021432 -0.020824,0.061789 -0.041677,0.083355 1.1686381,0.067018 2.3164397,0.7539548 2.8340705,1.8754879 0.2924774,0.8774309 0.2932109,2.0399946 -0.2917425,2.9174256 -0.2376392,0.292477 -0.5128494,0.562425 -0.7918727,0.791873 -0.2791713,0.229449 -0.5630112,0.414871 -0.8752276,0.583485 -0.1709648,0.0709 -0.3598991,0.14821 -0.5418076,0.208387 0.2445417,-0.04202 0.3427795,-0.04789 0.50013,-0.08336 0.055612,-0.01174 0.1113303,-0.03033 0.1667101,-0.04168 0.056324,-0.012 0.1104874,-0.03019 0.16671,-0.04168 0.3283067,-0.191134 0.6244291,-0.44923 0.8752277,-0.708517 C 6.8415424,10.842563 7.2407622,10.201622 7.4235605,9.3607512 7.7717909,7.3874459 6.0705879,5.8777039 4.3394249,5.7764855 z M 6.7983978,6.9017782 C 7.3282263,7.5458564 7.6399909,8.3714498 7.548593,9.1940411 7.4023536,10.071472 7.0461236,10.778512 6.5483328,11.319594 6.6360423,11.235826 6.7569181,11.201937 6.8400754,11.111206 7.9579557,9.8815373 7.811922,8.0866678 6.7983978,6.9017782 z M 3.2558097,8.3188135 c -0.1636746,0.023873 -0.294778,0.056588 -0.4584526,0.083355 -0.00169,2.761e-4 0.00169,0.041411 0,0.041678 0.2763099,-0.00293 0.5429679,-0.025473 0.7918727,-0.1250325 -0.1096792,-0.036556 -0.2237413,-0.015991 -0.3334201,0 z m 5.0013009,6.7100785 c -0.056232,0.02355 -0.1097699,0.06128 -0.16671,0.08335 0.7215891,0.415594 1.3507895,1.011398 1.6671003,1.833811 0.4387181,1.206468 0.046073,2.248382 -0.6668401,3.125813 C 10.178122,18.617179 9.9970521,16.631514 8.4238206,15.487345 8.2540857,15.3459 8.079289,15.251591 7.882013,15.153925 c -0.069706,0.02501 -0.1380016,0.05979 -0.2083875,0.08336 0.880229,0.408166 1.6045186,1.140739 1.9171653,2.00052 0.2924788,1.316146 -0.1220917,2.62348 -1.2920027,3.500911 -1.0113761,0.695323 -2.156196,1.069566 -3.2925231,1.16697 -0.2945166,0.02525 -0.5802432,0.01 -0.8752276,0 -0.2125489,-0.0072 -0.4138282,0.02465 -0.6251626,0 -0.2586162,-0.03006 -0.5370456,-0.07007 -0.7918727,-0.125033 0.00275,0.01614 0.038786,0.02555 0.041678,0.04168 0.1984234,0.03856 0.3838365,0.09646 0.5834851,0.125032 0.5963358,0.08534 1.2066187,0.11475 1.7921328,0.08335 0.5855142,-0.03139 1.1666783,-0.143738 1.7087779,-0.33342 0.2710497,-0.09484 0.5377877,-0.191219 0.7918726,-0.33342 -0.2492092,0.141843 -0.5312866,0.235878 -0.7918726,0.33342 -0.5619949,0.210367 -1.1159428,0.295712 -1.7087779,0.33342 -0.5936409,0.03776 -1.1978349,0.0063 -1.7921328,-0.08335 -0.1924013,-0.02901 -0.3931158,-0.04417 -0.5834851,-0.08336 0.00794,0.04245 0.03275,0.08273 0.041678,0.125033 0.039023,0.01054 0.085464,0.03262 0.1250326,0.04168 2.6037818,0.489022 5.5555277,-0.191541 6.8351112,-2.750715 C 10.488695,17.817612 9.9066783,16.073033 8.5905307,15.195602 8.4874052,15.12421 8.3657706,15.089961 8.2571106,15.028892 z m -4.1260732,6.876789 c 0.2979257,0.0139 0.5791697,0.02477 0.8752276,0 1.48029,-0.123792 2.9105604,-0.779702 3.8760082,-2.042198 0.5849548,-0.731193 0.5842213,-1.748251 0.2917426,-2.625683 0.2924787,2.339817 -1.6407508,4.104133 -3.8343307,4.542848 -0.9596888,0.137099 -1.8009473,0.06327 -2.625683,-0.16671 0.00385,0.02745 -0.00427,0.05595 0,0.08335 0.4533167,0.110149 0.9484774,0.186537 1.4170353,0.208388 z"
     id="path3527" />
  <path
     style="opacity:0.74021349;fill:#ffdec2;fill-opacity:1;fill-rule:evenodd;display:inline"
     d="M 15.342286,0.27505455 C 14.688163,0.49541893 14.110547,0.83119974 13.883574,1.3169924 13.226746,2.1492296 13.394128,3.105168 13.925251,3.8593202 13.709953,3.5225966 13.585245,3.0887304 13.633509,2.5673176 13.851147,1.2293452 14.85046,0.63994759 16.009127,0.31673205 15.78452,0.29538783 15.56532,0.27819403 15.342286,0.27505455 z M 13.925251,3.8593202 c 0.410296,0.5825862 1.021124,1.0192744 1.708778,1.1669702 -0.561811,-0.084742 -1.158212,-0.2552971 -1.625423,-0.5834851 0.80846,0.6283674 2.000214,0.7751749 2.959103,0.4167751 0.02891,0.0052 0.05456,-0.00111 0.08336,0 0.08889,-0.047119 0.206403,-0.1039604 0.291743,-0.1667101 -0.02222,0.065097 -0.104547,0.1172705 -0.16671,0.1667101 0.642072,-0.1026934 1.211218,-1.0338903 1.458713,-1.5420678 -0.83241,1.728743 -3.776599,2.0009418 -4.709559,0.5418076 z m 3.250846,1.0002602 c -0.0428,0.0068 -0.08183,0.00173 -0.125033,0 -0.142605,0.075593 -0.268111,0.1702202 -0.416775,0.2083875 0.241786,-0.033889 0.417489,-0.1095085 0.541808,-0.2083875 z M 14.008606,4.4428053 c -0.158634,-0.111429 -0.295525,-0.2341369 -0.416775,-0.3750976 0.117711,0.1515048 0.266371,0.2581978 0.416775,0.3750976 z m 12.503252,2.2922629 c -0.04068,0.010536 -0.100706,0.031915 -0.125032,0.041678 0.02441,-9.603e-4 0.09421,0.0024 0.125032,0 -0.0036,-0.01227 0.0036,-0.029408 0,-0.041678 z m -6.501691,2.5840055 c -0.15972,-0.020139 -0.300357,0.01459 -0.416775,0.041677 0.05833,0.00173 0.114057,0.035022 0.16671,0.041678 0.169746,0.021459 0.302863,0.059642 0.416775,0.1250325 -0.151987,-0.037983 -0.30789,-0.055895 -0.458452,-0.041677 -0.235112,0.1052274 -0.40027,0.2110109 -0.541808,0.2917425 0.01823,0.077393 0.127473,0.1673436 0.33342,0.2500648 1.0616,-0.4453942 -0.721634,-0.054854 0.375098,-0.5001298 0.198351,0.091717 0.341243,0.1935917 0.458452,0.2917425 0.08372,0.070112 0.161461,0.1369317 0.208388,0.2083873 0.0564,0.300805 -0.05819,0.6567 -0.250065,0.958583 -0.04038,0.04653 -0.08193,0.126393 -0.125033,0.16671 0.03749,-0.03642 0.09132,-0.04497 0.125033,-0.08336 0.124286,-0.14502 0.231619,-0.298142 0.291742,-0.458453 0.01,-0.02609 -0.0077,-0.05715 0,-0.08336 0.02586,-0.06848 0.04371,-0.137358 0.04168,-0.208387 0.0052,-0.04042 0.04388,-0.08369 0.04168,-0.125033 0.0092,0.08205 0.01628,0.164604 0,0.250065 0.139442,-0.4515171 -0.03562,-0.6955166 -0.291742,-0.8335498 0.04013,0.041011 0.05201,0.084048 0.08336,0.1250325 -0.01947,-0.017805 -0.06124,-0.024873 -0.08336,-0.041678 0.0312,0.03893 0.06086,0.081395 0.08336,0.1250325 -0.06909,-0.081568 -0.177825,-0.1802989 -0.291743,-0.250065 0.07658,0.036129 0.150656,0.081154 0.208388,0.1250325 -0.01931,-0.0241 -0.01891,-0.061349 -0.04168,-0.083355 -0.09249,-0.09109 -0.193709,-0.2019952 -0.33342,-0.2917425 z m 0.291743,1.7504553 c -0.05336,0.07637 -0.100786,0.141601 -0.16671,0.208387 0.07166,-0.06266 0.106334,-0.137931 0.16671,-0.208387 z m -0.16671,0.208387 c -0.04154,0.04209 -0.120672,0.04623 -0.16671,0.08336 -0.1036,0.08353 -0.210228,0.199039 -0.33342,0.250065 0.18487,-0.07863 0.348245,-0.200606 0.50013,-0.333421 z m -0.16671,0.08336 c 0.08734,-0.06276 0.133397,-0.135549 0.208387,-0.208388 -0.471612,0.441172 -1.07121,0.47174 -1.625422,0.291743 0.33319,0.02358 0.679975,-0.02219 1.00026,-0.125033 0.08167,-0.02622 0.132034,-0.09246 0.208387,-0.125033 -0.550438,0.145473 -1.3554,-5.28e-4 -1.917165,-0.375097 0.06606,0.09847 0.123965,0.197735 0.208387,0.291742 0.04585,0.07185 0.116311,0.108842 0.16671,0.16671 -0.110081,-0.07558 -0.248208,-0.118137 -0.33342,-0.208387 0.121885,0.10368 0.233057,0.22048 0.375098,0.291743 -0.0683,-0.01568 -0.14423,-0.01806 -0.208388,-0.04168 -0.02116,-0.0075 -0.06268,0.0083 -0.08336,0 0.258269,0.341948 0.621837,0.447867 1.000261,0.416775 -0.207782,-0.01371 -0.355788,-0.150531 -0.541808,-0.291742 -0.012,-0.0047 -0.02977,0.0049 -0.04168,0 -0.008,-0.0064 0.008,-0.03498 0,-0.04168 0.04386,0.0069 0.08018,0.03764 0.125032,0.04168 -0.0243,-0.0084 -0.05936,0.0093 -0.08336,0 0.308264,0.199157 0.602889,0.275693 0.875228,0.250065 0.223127,-0.06622 0.474699,-0.195342 0.66684,-0.33342 z m -2.083876,-0.291743 c -0.05461,-0.05784 -0.07999,-0.145287 -0.125032,-0.208388 0.01794,0.05232 0.02083,0.119698 0.04168,0.16671 0.02253,0.02106 0.0599,0.02171 0.08335,0.04168 z m -0.08335,-0.04168 c -0.09775,-0.09141 -0.173239,-0.181143 -0.250065,-0.291742 -0.012,0.02809 -0.02997,0.05516 -0.04168,0.08335 0.08572,0.182623 0.221882,0.313097 0.375097,0.416775 -0.0368,-0.05856 -0.0524,-0.138604 -0.08335,-0.208388 z m 0.04168,-0.208387 c -0.06594,-0.09829 -0.159587,-0.189665 -0.208388,-0.291743 0.01999,0.04409 0.01923,0.08053 0.04168,0.125033 0.0044,0.008 -0.0045,0.03381 0,0.04168 0.05644,0.04621 0.104614,0.08364 0.16671,0.125033 z m 2.50065,-1.0002603 c -0.09081,0.091144 -0.195076,0.1584799 -0.291742,0.2083873 0.288216,0.429239 0.2553,0.757781 0.04168,1.00026 0.282644,-0.219675 0.425527,-0.618696 0.250065,-1.2086473 z m -0.291742,0.2083873 c -0.01187,-0.01768 -0.0287,-0.0237 -0.04168,-0.041677 -0.129527,0.092277 -0.230433,0.1307002 -0.33342,0.1667102 0.121992,-0.008 0.246959,-0.05888 0.375098,-0.125033 z M 19.176617,9.7775262 c -0.02991,0.017058 -0.102907,0.029781 -0.125032,0.041677 -0.02242,0.023713 -0.03254,0.029208 -0.04168,0.041678 0.0052,-0.00267 0.03577,0.00307 0.04168,0 0.006,0.02482 0.06902,0.018245 0.08336,0.041678 -0.0025,-0.043265 0.02969,-0.079807 0.04168,-0.1250326 z m 0.541808,-0.2917425 c 0.0356,-0.015938 0.04737,-0.027167 0.08336,-0.041678 -0.019,-0.0068 -0.02193,-0.035156 -0.04168,-0.041678 -0.158333,0.021699 -0.272835,0.046119 -0.375097,0.083355 -0.07325,0.050026 -0.127233,0.1022399 -0.16671,0.16671 0.07678,-0.091424 0.280309,-0.145946 0.50013,-0.16671 z m -0.50013,0.16671 c 0.03748,-0.036556 0.03209,-0.1177773 0.08335,-0.16671 -0.157512,0.068658 -0.226518,0.1639906 -0.250065,0.250065 0.01648,-0.016911 0.10296,-0.019885 0.125032,-0.041678 0.0076,-0.015871 0.0322,-0.026193 0.04168,-0.041677 z m 0.16671,-0.16671 c 0.05878,-0.040144 0.08549,-0.1014664 0.16671,-0.1250325 -0.02906,-2.028e-4 -0.05291,-0.00106 -0.08336,0 -0.05724,0.054041 -0.0366,0.080608 -0.08336,0.1250325 z m -0.208388,0.5418073 c 0.07273,0.129021 0.211554,0.201262 0.458453,0.125033 -0.195709,0.0032 -0.350828,-0.03564 -0.458453,-0.125033 z m -1.708778,0.916905 c 0.05293,0.06488 0.09772,0.114097 0.16671,0.16671 -0.05585,-0.04802 -0.120471,-0.107067 -0.16671,-0.16671 z m 2.417296,0.208388 c -0.089,0.04635 -0.152779,0.130354 -0.250065,0.16671 0.128607,-0.04849 0.237128,-0.09281 0.33342,-0.16671 -0.02271,0.01214 -0.05986,-0.01147 -0.08336,0 z m 6.918466,1.83381 c -0.08326,0.108669 -0.171095,0.232724 -0.250065,0.375098 -0.825288,1.861588 1.384384,2.469984 2.584005,1.792133 -0.0076,-0.104001 -0.06352,-0.189655 -0.08335,-0.291743 -0.124285,0.126433 -0.323373,0.184432 -0.541807,0.250065 0.201483,-0.06339 0.385172,-0.186668 0.541807,-0.375097 -0.02147,-0.0873 -0.05249,-0.166102 -0.08336,-0.250065 -0.571835,0.80061 -2.716953,0.05879 -1.750455,-1.083616 -0.958993,1.090931 0.936452,2.17101 1.750455,1.208648 -0.145189,0.205171 -0.314557,0.435548 -0.583485,0.541808 -0.01254,0.0027 -0.02879,-0.0025 -0.04168,0 -0.05983,0.02197 -0.142572,0.02633 -0.208388,0.04168 -0.576555,0.0064 -1.176238,-0.362646 -1.417035,-0.875227 -0.0032,0.0936 -0.02473,0.206295 0,0.291742 -0.10116,-0.202475 -0.137258,-0.449505 -0.08336,-0.66684 0.01227,0.117337 0.0363,0.225844 0.08336,0.33342 0.02389,-0.329867 0.245873,-0.630044 0.50013,-0.916905 0.01094,-0.01227 0.02995,-0.0293 0.04168,-0.04168 0.04852,-0.04867 0.106067,-0.118417 0.16671,-0.16671 -0.05711,-0.01852 -0.111336,-0.02717 -0.16671,-0.04168 -0.280189,0.219202 -0.536927,0.478286 -0.625163,0.791871 -0.01755,-0.274577 0.09864,-0.588448 0.33342,-0.875226 -0.05496,-0.0069 -0.113349,-0.03976 -0.16671,-0.04168 z m 0.04168,1.833811 c 0.05407,0.05863 0.133678,0.114403 0.208387,0.16671 -0.0799,-0.05488 -0.159431,-0.09667 -0.208387,-0.16671 z m 0.583485,0.33342 c 0.13142,0.0317 0.283843,0.07934 0.458452,0.08336 -0.10284,0.0091 -0.176895,0.0071 -0.291742,0 -0.06442,-0.0199 -0.109456,-0.06063 -0.16671,-0.08336 z"
     id="path3616" />
  <path
     style="opacity:0.77021353;fill:#fff6e3;fill-opacity:1;fill-rule:evenodd;display:inline"
     d="m 23.177658,3.8593202 c -0.13621,0.2390275 -0.240877,0.4884217 -0.33342,0.7501951 0.01919,-0.060136 0.06168,-0.1076013 0.08336,-0.16671 -0.123819,0.3199539 -0.20121,0.621399 -0.250065,0.9585827 -0.02739,0.1890611 -0.04029,0.3930355 -0.04168,0.5834851 0.0028,0.44106 0.06256,0.8940525 0.208388,1.3336802 0.319963,0.5564301 0.863242,0.9374905 1.583745,0.9585827 -0.839534,-0.2182195 -1.316976,-0.8124807 -1.542068,-1.5420678 0.22056,0.5321998 0.632965,0.9803763 1.125293,1.2086477 0.861576,0.3994786 1.811382,-0.070725 2.33394,-0.8752276 C 25.813645,7.56976 25.098513,8.1630436 24.302951,7.9437159 23.26122,7.6102558 22.829394,6.6445073 22.80256,5.734808 c 0.01436,-0.6605291 0.209728,-1.2902676 0.541808,-1.8754878 -0.04088,-0.00213 -0.08395,0.0016 -0.125033,0 -0.0029,0.0052 -0.03878,-0.0052 -0.04168,0 z m -0.33342,3.4592331 C 22.688483,6.8910848 22.632601,6.4312918 22.63585,5.9848731 c -0.0012,-0.195863 0.0171,-0.3915726 0.04168,-0.5834851 0.03429,-0.2677203 0.08565,-0.537908 0.16671,-0.7918727 -0.21317,0.6029849 -0.348615,1.2496331 -0.291743,1.9171654 0.04533,0.292316 0.153067,0.5507085 0.291743,0.7918726 z m 0,-2.3339404 c -0.07106,0.2944993 -0.132381,0.6160936 -0.125033,0.9169051 -0.01532,-0.2945086 0.02739,-0.6257027 0.125033,-0.9169051 z"
     id="path3511" />
</svg>
