<?xml version="1.0" encoding="UTF-8" standalone="no"?>
<!-- Created with Inkscape (http://www.inkscape.org/) -->

<svg
   xmlns:dc="http://purl.org/dc/elements/1.1/"
   xmlns:cc="http://creativecommons.org/ns#"
   xmlns:rdf="http://www.w3.org/1999/02/22-rdf-syntax-ns#"
   xmlns:svg="http://www.w3.org/2000/svg"
   xmlns="http://www.w3.org/2000/svg"
   xmlns:xlink="http://www.w3.org/1999/xlink"
   xmlns:sodipodi="http://sodipodi.sourceforge.net/DTD/sodipodi-0.dtd"
   xmlns:inkscape="http://www.inkscape.org/namespaces/inkscape"
   version="1.1"
   width="16"
   height="16"
   id="svg4285"
   inkscape:version="0.47pre4 r22446"
   sodipodi:docname="stock_person.svg">
  <metadata
     id="metadata87">
    <rdf:RDF>
      <cc:Work
         rdf:about="">
        <dc:format>image/svg+xml</dc:format>
        <dc:type
           rdf:resource="http://purl.org/dc/dcmitype/StillImage" />
      </cc:Work>
    </rdf:RDF>
  </metadata>
  <sodipodi:namedview
     pagecolor="#ffffff"
     bordercolor="#666666"
     borderopacity="1"
     objecttolerance="10"
     gridtolerance="10"
     guidetolerance="10"
     inkscape:pageopacity="0"
     inkscape:pageshadow="2"
     inkscape:window-width="1024"
     inkscape:window-height="688"
     id="namedview85"
     showgrid="false"
     inkscape:zoom="19.666676"
     inkscape:cx="6.5506599"
     inkscape:cy="10.39649"
     inkscape:window-x="0"
     inkscape:window-y="24"
     inkscape:window-maximized="1"
     inkscape:current-layer="svg4285" />
  <defs
     id="defs4287">
    <linearGradient
       id="linearGradient3963">
      <stop
         id="stop3965"
         style="stop-color:#ffffff;stop-opacity:1"
         offset="0" />
      <stop
         id="stop3967"
         style="stop-color:#ffffff;stop-opacity:0"
         offset="1" />
    </linearGradient>
    <linearGradient
       id="linearGradient3955">
      <stop
         id="stop3957"
         style="stop-color:#ffffff;stop-opacity:1"
         offset="0" />
      <stop
         id="stop3959"
         style="stop-color:#ffffff;stop-opacity:0"
         offset="1" />
    </linearGradient>
    <linearGradient
       id="linearGradient3926">
      <stop
         id="stop3928"
         style="stop-color:#ffffff;stop-opacity:1"
         offset="0" />
      <stop
         id="stop3930"
         style="stop-color:#ffffff;stop-opacity:0"
         offset="1" />
    </linearGradient>
    <linearGradient
       id="linearGradient3918">
      <stop
         id="stop3920"
         style="stop-color:#ffffff;stop-opacity:1"
         offset="0" />
      <stop
         id="stop3922"
         style="stop-color:#ffffff;stop-opacity:0.76045626"
         offset="1" />
    </linearGradient>
    <linearGradient
       id="linearGradient3894">
      <stop
         id="stop3896"
         style="stop-color:#ffffff;stop-opacity:0.37262356"
         offset="0" />
      <stop
         id="stop3898"
         style="stop-color:#ffffff;stop-opacity:0.09125476"
         offset="1" />
    </linearGradient>
    <linearGradient
       id="linearGradient3882">
      <stop
         id="stop3884"
         style="stop-color:#ffffff;stop-opacity:1"
         offset="0" />
      <stop
         id="stop3886"
         style="stop-color:#ffffff;stop-opacity:0"
         offset="1" />
    </linearGradient>
    <linearGradient
       id="linearGradient3865">
      <stop
         id="stop3867"
         style="stop-color:#ffffff;stop-opacity:1"
         offset="0" />
      <stop
         id="stop3869"
         style="stop-color:#ffffff;stop-opacity:0"
         offset="1" />
    </linearGradient>
    <linearGradient
       id="linearGradient3844">
      <stop
         id="stop3846"
         style="stop-color:#ffffff;stop-opacity:1"
         offset="0" />
      <stop
         id="stop3863"
         style="stop-color:#ffffff;stop-opacity:0.49803922"
         offset="0.38408825" />
      <stop
         id="stop3848"
         style="stop-color:#ffffff;stop-opacity:0"
         offset="1" />
    </linearGradient>
    <linearGradient
       id="linearGradient3799">
      <stop
         id="stop3801"
         style="stop-color:#ffffff;stop-opacity:1"
         offset="0" />
      <stop
         id="stop3852"
         style="stop-color:#ffffff;stop-opacity:0.49803922"
         offset="0.38922155" />
      <stop
         id="stop3803"
         style="stop-color:#ffffff;stop-opacity:0"
         offset="1" />
    </linearGradient>
    <linearGradient
       x1="124.88369"
       y1="614.24451"
       x2="128.61511"
       y2="616.27576"
       id="linearGradient3674"
       xlink:href="#linearGradient3963"
       gradientUnits="userSpaceOnUse"
       gradientTransform="matrix(0.33333092,0,0,0.33333092,-39.710225,-202.61781)" />
    <linearGradient
       x1="127.77165"
       y1="614.15778"
       x2="130.1864"
       y2="612.53278"
       id="linearGradient3677"
       xlink:href="#linearGradient3955"
       gradientUnits="userSpaceOnUse"
       gradientTransform="matrix(0.33333092,0,0,0.33333092,-39.803975,-202.58655)" />
    <linearGradient
       x1="133.20557"
       y1="614.64185"
       x2="137.68925"
       y2="619.01685"
       id="linearGradient3680"
       xlink:href="#linearGradient3926"
       gradientUnits="userSpaceOnUse"
       gradientTransform="matrix(0.33333092,0,0,0.33333092,-39.803975,-202.58655)" />
    <linearGradient
       x1="421.87692"
       y1="568.21527"
       x2="389.03873"
       y2="587.46527"
       id="linearGradient3689"
       xlink:href="#linearGradient3865"
       gradientUnits="userSpaceOnUse"
       gradientTransform="matrix(0.05077223,0,0,0.04828279,-8.8705166,-15.044896)" />
    <linearGradient
       x1="296.76578"
       y1="377.22821"
       x2="292.28873"
       y2="410.22821"
       id="linearGradient3695"
       xlink:href="#linearGradient3894"
       gradientUnits="userSpaceOnUse"
       gradientTransform="matrix(0.04121545,0,0,0.04121545,-5.0402943,-11.332711)" />
    <linearGradient
       x1="344.16959"
       y1="510.40009"
       x2="322.71857"
       y2="527.15009"
       id="linearGradient3700"
       xlink:href="#linearGradient3844"
       gradientUnits="userSpaceOnUse"
       gradientTransform="matrix(0.04121545,0,0,0.04121545,-4.9216504,-11.027625)" />
    <linearGradient
       x1="270.28873"
       y1="456.40485"
       x2="258.78873"
       y2="437.40485"
       id="linearGradient3703"
       xlink:href="#linearGradient3882"
       gradientUnits="userSpaceOnUse"
       gradientTransform="matrix(0.05032244,0,0,0.05032244,-7.330041,-15.42733)" />
    <linearGradient
       x1="175.79066"
       y1="562.12231"
       x2="210.78297"
       y2="579.62231"
       id="linearGradient3706"
       xlink:href="#linearGradient3882"
       gradientUnits="userSpaceOnUse"
       gradientTransform="matrix(0.04348094,0,0,0.04348094,-5.3412574,-12.337882)" />
    <linearGradient
       x1="256.84323"
       y1="556.71069"
       x2="287.4155"
       y2="554.46808"
       id="linearGradient3709"
       xlink:href="#linearGradient3799"
       gradientUnits="userSpaceOnUse"
       gradientTransform="matrix(0.05304783,0,0,0.03988439,-7.8364267,-10.322344)" />
    <linearGradient
       x1="149.10364"
       y1="622.48138"
       x2="147.78259"
       y2="611.10638"
       id="linearGradient3688"
       xlink:href="#linearGradient3918"
       gradientUnits="userSpaceOnUse"
       gradientTransform="matrix(0.34223122,-0.01329105,0.01329105,0.34223122,-49.497406,-206.16158)" />
  </defs>
  <path
     d="M 6.4534339,15.911359 C 4.2395933,15.673744 1.4365102,15.316483 0.11514648,13.870767 -0.09157869,13.589663 -0.06927552,13.530349 0.596893,12.589513 0.7716484,12.342698 1.5052064,11.6263 2.010886,11.208593 c 0.2539582,-0.209782 0.2754614,-0.218928 0.5770159,-0.245465 0.2272017,-0.02 0.4037804,-0.06793 0.6429487,-0.174536 0.1813486,-0.08083 0.3709506,-0.159258 0.4213369,-0.174275 0.082223,-0.0245 0.089043,-0.04607 0.066526,-0.210355 -0.016967,-0.123882 -0.00997,-0.183048 0.021733,-0.183048 0.025733,0 0.047487,0.0139 0.0483,0.0309 6.667e-4,0.017 0.047659,0.08655 0.1040959,0.154555 l 0.102613,0.123645 -0.062879,-0.153232 c -0.071709,-0.174748 -0.075246,-0.197098 -0.0312,-0.197098 0.0174,0 0.059149,0.04529 0.092736,0.100626 0.058423,0.09627 0.061296,0.08958 0.066456,-0.154559 0.00343,-0.1621786 0.042977,-0.3528206 0.1085159,-0.5230826 0.056716,-0.147346 0.1159159,-0.345048 0.1315491,-0.439337 0.0252,-0.151995 0.0184,-0.174622 -0.060029,-0.199515 C 4.1919502,8.9483834 3.9869518,8.8122304 3.7850432,8.6612784 3.3036967,8.3013944 2.8459433,8.0076534 2.671938,7.9469964 c -0.076879,-0.0268 -0.1865887,-0.07316 -0.2437983,-0.103012 -0.057206,-0.02987 -0.136469,-0.05441 -0.1761387,-0.05454 -0.090663,-3.3e-4 -0.090179,-0.0094 0.011133,-0.207975 0.087659,-0.171825 0.067779,-0.203202 -0.065086,-0.102706 -0.1061726,0.08031 -0.1655322,0.07953 -0.098463,-0.0013 0.046983,-0.05661 0.039417,-0.06089 -0.062469,-0.03531 -0.1153358,0.02893 -0.1157825,0.02827 -0.087606,-0.131359 0.052096,-0.295161 0.1512789,-0.544116 0.260148,-0.652985 0.085436,-0.08544 0.091419,-0.102046 0.028767,-0.07979 -0.043533,0.01547 -0.1394256,0.07267 -0.2130984,0.127146 -0.1557889,0.115185 -0.1734988,0.07427 -0.041276,-0.09537 l 0.092676,-0.118903 -0.1235858,0.07521 c -0.1018559,0.06199 -0.093066,0.04567 0.049983,-0.09274 0.095463,-0.09237 0.1696489,-0.167706 0.1648622,-0.167413 -0.0048,2.87e-4 -0.1262791,0.03739 -0.269978,0.08243 -0.3875606,0.121489 -0.3940572,0.100716 -0.027233,-0.08708 0.4187037,-0.214362 0.7430046,-0.456884 0.8262741,-0.617913 0.063746,-0.123272 0.062149,-0.129166 -0.08293,-0.306218 C 2.4576899,5.1862374 2.2929845,5.0535744 2.1326923,4.9893754 l -0.097056,-0.03887 0.1030392,-0.0059 c 0.056669,-0.0033 0.079853,-0.01523 0.051519,-0.02667 -0.079686,-0.03217 -0.060833,-0.09675 0.0206,-0.07061 0.060993,0.01957 0.059373,0.01143 -0.0105,-0.05281 C 2.0277363,4.6358804 1.9088871,4.4775874 1.982,4.5038004 c 0.052209,0.01873 0.063536,0.0082 0.044517,-0.04137 -0.017,-0.04428 -0.0094,-0.05653 0.0227,-0.03668 0.067476,0.0417 0.060166,-0.0172 -0.012033,-0.09697 -0.033133,-0.03661 -0.090723,-0.140085 -0.127959,-0.229931 l -0.06771,-0.16336 0.1132958,0.103039 0.1132959,0.103036 -0.069813,-0.109226 c -0.038393,-0.06007 -0.054979,-0.115716 -0.036853,-0.123646 l -0.074811,-0.3215 -0.026267,0.0858 -0.019633,-0.112412 -0.0111,-0.06355 C 1.814163,3.4145654 1.812397,3.2198204 1.82573,3.0642714 1.839063,2.9087194 1.863913,2.2806844 1.880969,1.6686351 1.910702,0.6023165 1.915999,0.5493599 2.008078,0.4012611 2.1751768,0.1325063 2.3025859,0.1870863 2.6862398,0.6917659 c 0.1123425,0.1477821 0.2605181,0.2736248 0.45836,0.3892836 0.1607955,0.093996 0.3665407,0.2255187 0.4572167,0.2922681 0.2068318,0.1522654 0.6037423,0.5759923 0.7292214,0.7784908 0.064886,0.104713 0.1254724,0.153802 0.1907652,0.154559 0.097746,10e-4 0.2134352,-0.08418 0.2134352,-0.157385 0,-0.0224 0.071816,-0.0013 0.1595922,0.04668 l 0.1595921,0.08742 0.4166804,-0.136472 c 0.3241776,-0.106173 0.4898164,-0.137083 0.7461311,-0.139239 0.3273908,-0.0027 0.3292942,-0.0034 0.3044208,-0.1024959 -0.024867,-0.099089 -0.024233,-0.099309 0.1015527,-0.034267 0.069623,0.036 0.1537622,0.104256 0.1869755,0.1516789 0.050253,0.07175 0.074893,0.07846 0.1467554,0.04 0.0475,-0.02543 0.086366,-0.06195 0.086366,-0.081176 0,-0.019233 0.037093,-0.04466 0.082429,-0.056513 0.069109,-0.018067 0.082433,-0.00133 0.082433,0.103993 0,0.108532 0.088027,0.232012 0.1684994,0.236361 0.022867,0.0013 0.5053389,-0.6026988 0.5939856,-0.7435375 C 8.1507842,1.2352255 8.2081276,1.1492095 8.3395857,0.9679781 8.421799,0.8546353 8.5578911,0.6470199 8.6420145,0.5066112 8.8264559,0.1987537 9.063528,-8.4179604e-4 9.2436968,4.4903965e-5 9.3142498,3.7490396e-4 9.3929089,0.0143119 9.4184882,0.0309449 c 0.0256,0.016667 0.086103,0.1751188 0.1344961,0.3521442 0.094499,0.3457075 0.2227681,0.6234623 0.3927535,0.8504771 0.091899,0.099753 0.1136922,0.2271188 0.1666892,0.3464008 0.31486,0.6770894 0.444163,1.2774514 0.45108,2.0944154 0.002,0.241761 0.01073,0.43258 0.0193,0.42404 0.0086,-0.0085 0.04982,-0.113613 0.09166,-0.233492 l 0.07607,-0.217962 -0.01097,0.329725 c -0.006,0.181345 -0.02563,0.366817 -0.04359,0.412154 -0.0292,0.07374 -0.02397,0.07266 0.04956,-0.0103 0.0452,-0.05101 0.100229,-0.09274 0.122289,-0.09274 0.02207,0 0.04981,-0.03709 0.06166,-0.08243 0.0254,-0.09712 0.111706,-0.111219 0.111706,-0.01827 0,0.140639 -0.101373,0.459424 -0.192309,0.604753 -0.125319,0.200272 -0.121332,0.220102 0.0235,0.116969 0.15196,-0.108206 0.203589,-0.109563 0.10698,-0.0027 -0.04103,0.04533 -0.05545,0.08243 -0.03203,0.08243 0.0234,0 0.06602,-0.02827 0.09469,-0.06282 0.110602,-0.133266 0.08136,-0.01857 -0.03688,0.144672 -0.118566,0.163672 -0.172805,0.293194 -0.228928,0.546683 -0.02103,0.09497 -0.0114,0.113342 0.05945,0.113342 0.04649,0 0.153495,-0.02877 0.237774,-0.06395 l 0.153232,-0.06395 -0.160728,0.164742 c -0.141946,0.145483 -0.149172,0.161846 -0.06183,0.139996 l 0.09891,-0.02473 -0.103039,0.09099 -0.103039,0.09099 0.103039,-0.02497 0.103039,-0.02497 -0.0973,0.08461 c -0.05351,0.04653 -0.127706,0.08522 -0.164862,0.08596 -0.03716,6.66e-4 0.02557,0.03355 0.139375,0.0729 0.241162,0.08339 0.454204,0.225555 0.518757,0.346178 0.04323,0.08077 0.03763,0.08357 -0.113426,0.05675 -0.08739,-0.0155 -0.195992,-0.03717 -0.241329,-0.04812 -0.05328,-0.01287 -0.04191,0.0033 0.03213,0.04537 0.06301,0.03591 0.103649,0.08295 0.0903,0.104542 -0.01333,0.0216 0.0047,0.03926 0.03999,0.03926 0.09919,0 0.07667,0.05775 -0.06273,0.160812 -0.06984,0.05163 -0.225701,0.245228 -0.346351,0.430207 -0.41361,0.634128 -0.859387,1.042579 -1.3976791,1.280637 l -0.2309754,0.10215 10e-4,0.198041 c 0.00133,0.256908 0.099033,0.462614 0.3850475,0.809378 0.1277521,0.154889 0.2344281,0.3218106 0.2370581,0.3709406 0.004,0.07413 0.033847,0.161182 0.049973,0.09881 0.07515,-0.07619 0.04636,-0.2817106 0.04636,-0.2817106 0,0 0.1865359,0.1608316 0.1808589,0.3145836 -0.0119,0.149569 -0.012,0.08417 0.01307,0.174912 0.01197,0.04324 0.09469,-0.291891 0.09469,-0.291891 0,0 0.09601,0.291424 0.14639,0.327621 0.06274,0.04507 0.338901,0.220038 0.900423,0.405437 0.238732,0.07882 0.412197,0.168959 0.565576,0.293888 0.121676,0.09911 0.569496,0.35572 0.995156,0.570256 0.42566,0.214534 0.86036,0.45121 0.966,0.525949 0.747751,0.529023 1.153375,0.829344 1.322597,0.979246 0.170179,0.150756 0.195772,0.194352 0.195772,0.333498 0,0.214955 -0.320735,0.605113 -0.686515,0.968666 -0.874121,0.868801 -1.963139,1.156532 -3.142917,1.295177 -1.6152789,0.103947 -3.4877992,0.216249 -5.0859341,0.04472 z"
     id="path2844"
     style="fill:#232323;fill-opacity:1" />
  <path
     d="M 6.7007288,9.7953434 C 6.5077533,10.065388 5.5232407,11.102151 5.2050096,11.299312 c 0.7103082,0.05503 1.1571016,-0.338921 1.7415407,-0.209405 -0.394937,0.183609 -1.7815404,1.647515 -1.7934536,1.967983 0.2552981,-0.259535 1.8479303,-0.750478 1.9608057,-0.798238 -0.00233,0.183632 -0.5775157,1.010942 -0.6716518,1.165765 -0.3941902,0.244252 -1.2679208,1.063789 -1.242441,1.448623 1.0069696,-0.224399 2.2106542,-0.443644 2.8059265,-0.593589 0.059087,-0.563293 0.063667,-2.805683 -0.0257,-3.367586 -0.2803248,-0.459213 -0.789381,-0.897364 -1.279274,-1.1175216 l -1.66e-5,0 z"
     id="path3795-8"
     style="opacity:0.28800001;fill:url(#linearGradient3709);fill-opacity:1;stroke:none" />
  <path
     d="m 3.2085074,11.475821 c -0.6030256,0.203572 -1.5699353,1.317977 -1.7975803,1.83735 0.7603145,0.568509 1.2656575,0.92638 2.1498777,0.837984 0.1186058,-0.02947 0.2562215,-1.020976 0.2623482,-1.164775 -0.0207,-0.457563 0.4055437,-1.087686 0.044363,-1.457566 -0.1904853,-0.123583 -0.4238869,-0.05717 -0.6590086,-0.05299 z"
     id="path3856-7"
     style="opacity:0.25;fill:url(#linearGradient3706);fill-opacity:1;stroke:none" />
  <path
     d="m 5.7887628,6.6418912 c -0.072667,0 -0.3727037,0.2276383 -0.3727037,0.2830614 0,0.1612058 0.2798788,0.6144801 0.547259,0.8885063 C 6.2882586,8.1464783 6.3511494,8.1052917 6.1520245,7.6892274 6.0820232,7.5429405 6.0431112,7.4049988 6.0655366,7.3825734 6.0879619,7.3601444 6.3291884,7.3245656 6.6033537,7.3039436 L 7.101864,7.2662159 6.6992838,7.226901 C 6.4268401,7.2005282 6.2109921,7.1454629 6.0293637,7.0554879 5.7874647,6.9356506 5.7622967,6.9086039 5.7808999,6.7818609 c 0.011355,-0.077336 0.015344,-0.1399575 0.00785,-0.1399575 z"
     id="path3892-0"
     style="fill:url(#linearGradient3703);fill-opacity:1;stroke:none" />
  <path
     d="m 8.7415739,8.7877344 -0.2176681,0.07084 c -0.1927121,0.06282 -0.1620488,0.129729 -0.2743382,0.231835 -0.3743342,0.340381 -0.4141235,0.793441 -0.3722275,0.9402296 0.03526,0.300435 0.2694615,0.767778 0.4031375,1.020079 0.039013,0.107943 0.7980938,0.446161 0.8462038,0.446931 0.023933,3.33e-4 0.1908621,-0.04399 0.3709409,-0.09917 0.180078,-0.05517 0.2946908,-0.101543 0.2550214,-0.10304 -0.1227894,-0.0046 0.1654921,-0.352753 0.3297213,-0.528072 0.102756,-0.109693 -0.1935225,-0.04097 -0.346468,0.05925 -0.1048693,0.06872 -0.106786,0.06831 -0.078566,-0.0206 0.030067,-0.0947 -0.036133,-0.130129 -0.072126,-0.03864 -0.011133,0.02833 -0.00963,-0.01803 0.00267,-0.10304 0.0237,-0.164728 0.1107421,-0.48909 0.018033,-0.377377 -0.049607,0.05977 -0.1910481,0.346751 -0.2150915,0.278205 -0.022967,-0.06543 -0.03504,-0.05897 -0.092736,0.04765 l -0.066973,0.123646 -0.00133,-0.197059 c -0.001,-0.134175 -0.03878,-0.265071 -0.1159194,-0.40829 C 8.9098093,9.7522714 8.9046626,9.7440984 8.8833099,9.8104054 c -0.0107,0.0332 -0.029867,0.08835 -0.04122,0.122355 -0.011333,0.03401 -0.021267,0.0062 -0.023167,-0.06182 l 0.037353,-0.278205 -0.1468288,0.278205 -0.105616,0.123646 0.0219,-0.130086 0.2885075,-0.591182 c -0.1554288,0.234604 -0.5078196,0.653585 -0.3219975,0.07857 0.058573,-0.167926 0.1156894,-0.364144 0.1275127,-0.435337 l 0.0219,-0.128799 z"
     id="path3946-6"
     style="opacity:0.36538463;fill:url(#linearGradient3700);fill-opacity:1;stroke:none" />
  <path
     d="m 7.8926454,3.9334954 -0.1648621,0.06569 c -0.090673,0.03637 -0.2599248,0.132222 -0.3773775,0.212515 -0.1291621,0.0883 -0.2508481,0.140753 -0.3078275,0.132663 -0.091216,-0.01293 -0.095633,0.0027 -0.1416794,0.463676 -0.026167,0.261951 -0.06096,0.514209 -0.075993,0.561559 -0.0263,0.08284 0.060167,0.218955 0.1391027,0.218955 0.0186,0 0.1289221,-0.08522 0.2447182,-0.189332 l 0.2099414,-0.189331 0,-0.327148 c 0,-0.398367 0.064407,-0.567456 0.2988115,-0.785671 l 0.1751654,-0.163573 z"
     id="path4074-8"
     style="opacity:0.703;fill:url(#linearGradient3695);fill-opacity:1;stroke:none" />
  <path
     d="m 10.386165,11.706626 c -0.114265,0.003 -0.219638,0.01617 -0.258698,0.03538 -0.115822,0.05694 -0.119722,0.224546 -0.01183,0.421274 0.04445,0.08106 0.07947,0.168102 0.07947,0.192952 0,0.02483 0.05336,0.102803 0.116666,0.172045 0.06331,0.06925 0.142442,0.171896 0.175845,0.228325 0.03338,0.05643 0.152529,0.256265 0.265462,0.445397 0.227258,0.380591 0.316294,0.590582 0.488649,1.143229 0.130043,0.41699 0.148637,0.426553 0.57657,0.299077 0.290991,-0.08669 0.779381,-0.309624 0.992513,-0.453439 0.207952,-0.140313 0.46836,-0.492207 0.46836,-0.631913 0,-0.171025 -0.267385,-0.457263 -0.720292,-0.771801 -0.222981,-0.154855 -0.417357,-0.281388 -0.432853,-0.281388 -0.01547,0 -0.206459,-0.112542 -0.424397,-0.249225 -0.735865,-0.461516 -0.904604,-0.538239 -1.200482,-0.549909 -0.03827,-0.0017 -0.07689,-0.0013 -0.114979,0 z"
     id="path4168"
     style="opacity:0.34000017;fill:url(#linearGradient3689);fill-opacity:1;stroke:none" />
  <path
     d="m 8.997646,0.3186876 -0.0022,0.2503904 c -0.00213,0.1854266 0.3960749,1.0103989 0.4795942,1.2047939 0.3628256,0.8443195 0.3822456,0.9097335 0.3955456,1.3527115 0.010333,0.345537 -0.00613,0.476714 -0.086045,0.717175 -0.091729,0.276239 -0.092879,0.305403 -0.029633,0.464682 0.1316367,0.331493 0.2175581,0.670359 0.1780714,0.697646 -0.023433,0.0162 -0.00957,0.105739 0.0339,0.225151 0.082432,0.226326 0.1176548,0.215762 0.2449208,-0.07043 0.101657,-0.228602 0.172999,-0.47354 0.144821,-0.499613 -0.01152,-0.01066 -0.06067,0.01874 -0.108719,0.06514 l -0.08678,0.08416 0.08543,-0.187403 c 0.100294,-0.218634 0.08206,-0.262007 -0.06826,-0.154952 -0.05937,0.04229 -0.114115,0.0704 -0.12072,0.06296 -0.0066,-0.0074 0.01535,-0.08059 0.04795,-0.163437 0.03263,-0.08285 0.06022,-0.203456 0.06246,-0.267297 l 0.0048,-0.115407 -0.08047,0.110402 c -0.1104148,0.152159 -0.1344661,0.108107 -0.03848,-0.07002 0.184208,-0.34186 0.170291,-1.256887 -0.0286,-1.96425 C 9.9777305,1.8922004 9.9444525,1.7879607 9.8901938,1.687559 9.8372098,1.5895104 9.3951129,0.8023784 9.2742535,0.6549302 L 8.997646,0.3186889 l 3.07e-5,-1.2e-6 z m 1.782162,3.9512718 c -0.0092,0.0014 -0.03085,0.029 -0.05409,0.07362 -0.031,0.05948 -0.05466,0.127143 -0.05376,0.150418 8.67e-4,0.02327 0.02604,-0.0064 0.05705,-0.06578 0.03101,-0.05948 0.05598,-0.127195 0.05508,-0.15047 -2.26e-4,-0.0058 -0.0014,-0.0082 -0.0043,-0.0078 l 4e-6,7e-6 z"
     id="path4215"
     style="opacity:0.74230766;fill:url(#linearGradient3688);fill-opacity:1;stroke:none" />
  <path
     d="m 6.5249066,2.1510864 c -0.018,-0.0048 -0.0314,0.02313 -0.05796,0.09273 -0.036307,0.09512 -0.05524,0.109202 -0.083719,0.06311 -0.020133,-0.03257 -0.04954,-0.04577 -0.065687,-0.02963 -0.016167,0.01613 -0.054587,0.0085 -0.085006,-0.01673 -0.042407,-0.03519 -0.055387,-0.02937 -0.055387,0.0219 0,0.08352 -0.017867,0.08238 -0.1455387,-0.0013 -0.095733,-0.06273 -0.1004828,-0.06203 -0.074706,0.0051 0.0216,0.05626 0.0099,0.06656 -0.051516,0.04895 -0.043099,-0.01237 -0.1805754,0.01013 -0.3052544,0.04894 -0.1791754,0.05575 -0.228805,0.08994 -0.239565,0.164862 -0.012133,0.08458 -0.0189,0.0875 -0.063109,0.02703 -0.050209,-0.06867 -0.517613,-0.243585 -0.5538326,-0.207365 -0.010833,0.01083 0.024333,0.05522 0.078566,0.09917 0.1162259,0.09423 0.083089,0.155579 -0.046366,0.0863 -0.082806,-0.04431 -0.086879,-0.03977 -0.059246,0.04895 0.029,0.0931 0.026767,0.09302 -0.051519,0.0232 -0.097719,-0.08718 -0.1365257,-0.05677 -0.1365257,0.105616 0,0.108363 -0.0067,0.115716 -0.066976,0.06569 -0.060413,-0.05014 -0.064499,-0.04689 -0.037353,0.03864 0.027767,0.08744 0.022,0.09234 -0.056669,0.05023 -0.1051926,-0.05629 -0.1112459,-0.01573 -0.014167,0.09402 0.070163,0.07932 0.069043,0.08091 -0.041213,0.05409 -0.1078759,-0.02623 -0.1133425,-0.02117 -0.1133425,0.121072 0,0.115909 -0.013867,0.144619 -0.061823,0.126219 -0.04505,-0.0173 -0.062203,0.0059 -0.065689,0.08759 -0.0036,0.08457 -0.010267,0.09319 -0.025767,0.0322 -0.017867,-0.07029 -0.0279,-0.06493 -0.074703,0.04121 -0.052976,0.120192 -0.053426,0.119528 -0.057959,0.01803 -0.00837,-0.187469 -0.076956,0.0043 -0.088869,0.248578 -0.00607,0.124552 -0.029767,0.238292 -0.052806,0.253735 -0.023067,0.01543 0.013033,0.04064 0.079853,0.05538 0.066826,0.01473 0.3343609,0.08908 0.5950491,0.164862 0.4921964,0.143082 0.8331406,0.156649 1.0378891,0.07963 0.1150425,-0.04327 0.3424909,-0.272611 0.3426043,-0.34518 2.033e-4,-0.128869 0.4614734,-0.694199 0.8184809,-0.844691 0.3483909,-0.146859 0.4982663,-0.335404 0.6152691,-0.52421 0.077159,-0.124512 0.076263,-0.125812 -0.3104049,-0.181605 -0.1149987,-0.0166 -0.2124547,-0.05607 -0.2344114,-0.09531 -0.020633,-0.03685 -0.050513,-0.05381 -0.066976,-0.03735 -0.016467,0.01647 -0.053547,-0.002 -0.082433,-0.04121 -0.017933,-0.02443 -0.0304,-0.03963 -0.041213,-0.04251 l 3.3e-6,5.7e-5 z"
     id="path2873"
     style="opacity:0.50899999;fill:url(#linearGradient3680);fill-opacity:1;stroke:none" />
  <path
     d="M 2.2178912,0.4573878 2.1753882,0.5681539 C 2.1223422,0.7071866 2.2193072,0.923398 2.4561696,1.1941128 2.9412294,1.7485085 3.6593875,3.1166454 3.6642975,3.4944494 3.6659675,3.6098454 3.9652386,3.1684154 4.092761,2.9590834 4.2718263,2.6651394 4.3407592,2.4622134 3.9599387,1.9566472 3.6189677,1.5039837 3.3771762,1.551557 2.5102658,0.7330159 L 2.2178912,0.4573878 z"
     id="path3705"
     style="opacity:0.33076926;fill:url(#linearGradient3677);fill-opacity:1;stroke:none" />
  <path
     d="m 2.2292112,1.2427189 c -0.0081,-0.001 -0.013533,0.0058 -0.0219,0.014167 -0.013767,0.013767 0.062373,0.1655288 0.1687255,0.3361642 0.1063526,0.1706354 0.1978519,0.3414675 0.2035018,0.3799542 0.00567,0.038486 0.061989,0.1225251 0.1262225,0.1867581 0.1802153,0.180216 0.06672,0.137319 -0.1854687,-0.06955 -0.3364776,-0.2760112 -0.422547,-0.2354285 -0.1094792,0.05152 0.1422089,0.130342 0.3315976,0.298421 0.4211703,0.373514 0.092606,0.07764 0.126729,0.124972 0.079856,0.109479 -0.3485675,-0.115232 -0.6334655,-0.04587 -0.7908243,0.191909 -0.1226191,0.185295 -0.1038659,0.237311 0.059249,0.163572 l 0.1133425,-0.05152 -0.1069026,0.117208 c -0.059449,0.06421 -0.1095292,0.14374 -0.1107692,0.177742 -0.00133,0.034 -0.029567,0.13601 -0.063109,0.226683 l -0.0322,0.105615 -0.0219,0.06955 0,0.0077 c 0.002,0 6.667e-4,0.0013 0,0.0039 -2.866e-4,-0.0013 0,-0.003 0,-0.0039 -0.001,0 -0.002,6.66e-4 -0.00267,0.0013 l -0.00133,0.0039 c -4e-5,3.33e-4 0,10e-4 0,0.0013 0,0.0036 0.00133,0.0077 0.00387,0.0077 -0.00167,-0.0017 -0.001,-0.0058 0,-0.009 10e-4,0.0046 0.0035,0.009 0,0.009 0.00343,0.0035 0.010733,-0.0035 0.014167,0 0.0138,0.06647 0.057983,0.180619 0.079386,0.242666 0.0095,-0.01443 0.020367,-0.03253 0.022367,-0.03143 0.029567,-0.0324 0.082509,-0.103189 0.1326624,-0.181605 0.139689,-0.218411 0.2660414,-0.363027 0.361924,-0.41473 0.050996,-0.0275 0.03592,0.02527 -0.056673,0.204788 -0.2426549,0.4705 -0.086726,0.340388 0.2305484,-0.193198 0.1884953,-0.317005 0.3077544,-0.56084 0.2897979,-0.589896 -0.018667,-0.0302 -0.013133,-0.03878 0.014167,-0.0219 0.0246,0.0152 0.056379,0.0079 0.07084,-0.01547 0.014467,-0.0234 -0.064123,-0.166753 -0.1751654,-0.319421 C 2.8315701,2.1746224 2.6342882,1.8728745 2.5034092,1.6575398 2.2999373,1.3227582 2.2533476,1.2462255 2.2290712,1.2428089 l 0,6.6e-6 z M 1.9278233,3.4902494 c -2.066e-4,0.01247 3.334e-4,0.02393 0.00133,0.02577 6.666e-4,0.0017 0.00267,0.0027 0.00387,0.0039 l -0.00517,-0.02963 z m 0.014167,0.08758 c -3.3e-4,10e-4 2.467e-4,10e-4 0,0.0027 4.33e-5,-3.33e-4 0.00133,-6.66e-4 0.00133,-0.0013 l -0.00133,-0.0013 0,-4e-6 z m 0,0.009 c -6.666e-4,0.0058 -0.00133,0.01167 0.00133,0.01673 6.667e-4,0.0013 0.00233,0.0017 0.00387,0.0013 l -0.00267,-0.01673 c -3.3e-4,2.9e-4 -6.666e-4,0.0013 -0.00133,0.0013 -10e-4,0 -10e-4,-0.0017 -0.00133,-0.0027 l 0,7e-6 z"
     id="path3752"
     style="opacity:0.58846154;fill:url(#linearGradient3674);fill-opacity:1;stroke:none" />
</svg>
