<?xml version="1.0" encoding="UTF-8" standalone="no"?>
<!-- Created with Inkscape (http://www.inkscape.org/) -->

<svg
   xmlns:dc="http://purl.org/dc/elements/1.1/"
   xmlns:cc="http://creativecommons.org/ns#"
   xmlns:rdf="http://www.w3.org/1999/02/22-rdf-syntax-ns#"
   xmlns:svg="http://www.w3.org/2000/svg"
   xmlns="http://www.w3.org/2000/svg"
   xmlns:xlink="http://www.w3.org/1999/xlink"
   xmlns:sodipodi="http://sodipodi.sourceforge.net/DTD/sodipodi-0.dtd"
   xmlns:inkscape="http://www.inkscape.org/namespaces/inkscape"
   version="1.0"
   width="64"
   height="64"
   id="svg2482"
   inkscape:version="0.47 r22583"
   sodipodi:docname="user-info.svg">
  <metadata
     id="metadata12">
    <rdf:RDF>
      <cc:Work
         rdf:about="">
        <dc:format>image/svg+xml</dc:format>
        <dc:type
           rdf:resource="http://purl.org/dc/dcmitype/StillImage" />
      </cc:Work>
    </rdf:RDF>
  </metadata>
  <sodipodi:namedview
     pagecolor="#ffffff"
     bordercolor="#666666"
     borderopacity="1"
     objecttolerance="10"
     gridtolerance="10"
     guidetolerance="10"
     inkscape:pageopacity="0"
     inkscape:pageshadow="2"
     inkscape:window-width="1280"
     inkscape:window-height="947"
     id="namedview10"
     showgrid="false"
     inkscape:zoom="3.6875"
     inkscape:cx="32"
     inkscape:cy="32"
     inkscape:window-x="0"
     inkscape:window-y="24"
     inkscape:window-maximized="1"
     inkscape:current-layer="svg2482" />
  <defs
     id="defs2484">
    <inkscape:perspective
       sodipodi:type="inkscape:persp3d"
       inkscape:vp_x="0 : 32 : 1"
       inkscape:vp_y="0 : 1000 : 0"
       inkscape:vp_z="64 : 32 : 1"
       inkscape:persp3d-origin="32 : 21.333333 : 1"
       id="perspective14" />
    <linearGradient
       id="linearGradient3584">
      <stop
         id="stop3586"
         style="stop-color:#7b6a57;stop-opacity:1;"
         offset="0" />
      <stop
         id="stop4317"
         style="stop-color:#6f5e4b;stop-opacity:1;"
         offset="0.59880239" />
      <stop
         id="stop3588"
         style="stop-color:#61503d;stop-opacity:1;"
         offset="1" />
    </linearGradient>
    <radialGradient
       cx="12.000143"
       cy="12.007693"
       r="9.936264"
       fx="12.000143"
       fy="12.007693"
       id="radialGradient3590"
       xlink:href="#linearGradient3584"
       gradientUnits="userSpaceOnUse"
       gradientTransform="matrix(2.6382087,0,0,2.9186029,1.6190553,-3.0456894)" />
  </defs>
  <path
     d="m 28.894169,59.962737 c -1.017528,-1.192865 -1.340617,-3.607168 -3.404161,-3.298508 -2.994639,0.259355 -5.339483,-1.905142 -7.896934,-3.071182 -1.726736,-0.809772 -3.74607,-0.0017 -5.449455,-0.981545 -3.7415007,-1.787791 -5.4853943,-6.268627 -5.0000736,-10.108246 0.4231016,-3.078928 2.304455,-5.816975 4.6562066,-7.800972 2.038573,-1.345294 4.606629,-1.615929 6.813481,-2.64102 1.717358,-0.520856 2.9299,-1.775031 4.272791,-2.844967 2.257493,-1.406152 5.44545,-1.832683 7.729107,-0.112475 1.986289,1.327182 4.157114,2.401555 6.072104,3.818254 1.495514,1.576358 1.130134,3.881417 1.554573,5.821247 0.177677,3.81015 1.831289,7.359859 2.499258,11.08625 0.545235,2.229146 -0.364408,4.394432 -1.626238,6.176657 C 37.671143,58.101647 36.125203,60.772951 33.23918,61 31.800292,60.92978 29.995264,61.07651 28.894169,59.962715 z M 45.522553,41.583909 c -0.909966,-1.663805 -1.580966,-4.005197 -0.260887,-5.650358 2.13196,-2.656997 4.770595,-4.885495 7.493205,-6.93851 1.241217,-1.112097 2.623781,-0.948117 4.444927,-0.08692 1.921658,0.908825 2.573862,3.153128 2.184265,5.069253 -0.566538,2.786308 -1.55646,5.817852 -4.443653,7.011592 -2.506582,1.052154 -5.310719,2.314105 -8.095205,1.610442 -0.549203,-0.138899 -1.055414,-0.526984 -1.322652,-1.015571 z M 10.872961,27.679465 C 9.062913,26.628786 7.6256135,24.904929 7.3176216,22.813237 c -0.391007,-2.655493 0.090436,-5.507504 1.8936019,-7.554729 1.6065475,-1.82396 3.6353755,-4.041563 6.3757915,-3.748283 2.38769,0.07283 2.242745,2.262426 2.258428,3.944896 0.217557,1.899374 1.085104,3.653825 1.490942,5.505273 0.06988,0.31966 0.07635,0.636719 0.01501,0.860023 -0.56691,2.067046 -2.060905,3.822773 -3.643107,5.250626 -1.074497,1.276117 -2.747439,1.641421 -4.389635,0.828939 l -0.445746,-0.220517 -2e-6,0 z m 28.585593,1.262789 c -1.660736,-0.879087 -4.027871,-2.361406 -3.225164,-4.492424 0.751562,-1.995223 1.879964,-3.827213 2.601938,-5.851399 0.880706,-2.469183 2.531939,-5.950594 3.614897,-6.998831 1.736571,-1.680902 4.610731,-1.639624 6.95648,-1.371832 2.864318,0.326967 4.294998,3.362385 4.993052,5.832745 0.5146,1.821026 0.733944,3.828841 -0.324743,5.446736 -1.358657,2.076366 -3.261589,3.794858 -5.187719,5.360805 -1.777195,1.444877 -4.0194,2.425685 -6.323033,2.783417 -1.085538,0.157656 -2.147327,-0.201889 -3.105708,-0.709217 z M 26.559912,22.637192 c -2.944455,-2.759186 -4.192128,-7.028467 -3.632986,-10.87347 0.522543,-2.192343 1.819303,-4.0974376 3.285583,-5.7711616 1.264236,-1.4431279 2.83142,-2.9300142 4.994254,-2.9836324 2.280796,-0.056531 4.932416,0.1142157 6.574023,1.7276202 1.417919,1.3936211 2.400434,3.9130554 1.396934,5.8310258 -1.883322,3.004155 -3.621747,6.102194 -5.011483,9.367336 -0.741064,1.407917 -1.242136,3.465882 -3.15436,3.674057 -1.509052,0.15998 -3.165501,-0.113598 -4.451965,-0.971775 z"
     id="path2463"
     style="opacity:1;fill:url(#radialGradient3590);fill-opacity:1" />
</svg>
