<?xml version="1.0" encoding="UTF-8" standalone="no"?>
<!-- Created with Inkscape (http://www.inkscape.org/) -->
<svg
   xmlns:svg="http://www.w3.org/2000/svg"
   xmlns="http://www.w3.org/2000/svg"
   xmlns:xlink="http://www.w3.org/1999/xlink"
   version="1.0"
   width="48"
   height="48"
   id="svg4297">
  <defs
     id="defs4299">
    <radialGradient
       cx="5"
       cy="41.5"
       r="5"
       fx="5"
       fy="41.5"
       id="radialGradient3314"
       xlink:href="#linearGradient3681"
       gradientUnits="userSpaceOnUse"
       gradientTransform="matrix(0.5938225,0,0,1.5366531,41.140892,-103.93618)" />
    <linearGradient
       id="linearGradient3703">
      <stop
         id="stop3705"
         style="stop-color:#000000;stop-opacity:0"
         offset="0" />
      <stop
         id="stop3711"
         style="stop-color:#000000;stop-opacity:1"
         offset="0.5" />
      <stop
         id="stop3707"
         style="stop-color:#000000;stop-opacity:0"
         offset="1" />
    </linearGradient>
    <linearGradient
       x1="17.554192"
       y1="46.000275"
       x2="17.554192"
       y2="34.999718"
       id="linearGradient3312"
       xlink:href="#linearGradient3703"
       gradientUnits="userSpaceOnUse"
       gradientTransform="matrix(1.7570316,0,0,1.3969574,-17.394014,-16.411698)" />
    <linearGradient
       id="linearGradient3681">
      <stop
         id="stop3683"
         style="stop-color:#000000;stop-opacity:1"
         offset="0" />
      <stop
         id="stop3685"
         style="stop-color:#000000;stop-opacity:0"
         offset="1" />
    </linearGradient>
    <radialGradient
       cx="5"
       cy="41.5"
       r="5"
       fx="5"
       fy="41.5"
       id="radialGradient3310"
       xlink:href="#linearGradient3681"
       gradientUnits="userSpaceOnUse"
       gradientTransform="matrix(0.5938225,0,0,1.5366531,-6.6594735,-103.93618)" />
    <linearGradient
       id="linearGradient3295">
      <stop
         id="stop3297"
         style="stop-color:#c9af8b;stop-opacity:1"
         offset="0" />
      <stop
         id="stop3299"
         style="stop-color:#ad8757;stop-opacity:1"
         offset="0.23942046" />
      <stop
         id="stop3301"
         style="stop-color:#c2a57f;stop-opacity:1"
         offset="0.27582464" />
      <stop
         id="stop3303"
         style="stop-color:#9d7d53;stop-opacity:1"
         offset="1" />
    </linearGradient>
    <linearGradient
       x1="15.464298"
       y1="7.9756851"
       x2="15.464298"
       y2="45.04248"
       id="linearGradient3293"
       xlink:href="#linearGradient3295"
       gradientUnits="userSpaceOnUse" />
    <linearGradient
       id="linearGradient3199">
      <stop
         id="stop3201"
         style="stop-color:#dac197;stop-opacity:1"
         offset="0" />
      <stop
         id="stop3203"
         style="stop-color:#c1a581;stop-opacity:1"
         offset="0.23942046" />
      <stop
         id="stop3205"
         style="stop-color:#dbc298;stop-opacity:1"
         offset="0.27582464" />
      <stop
         id="stop3207"
         style="stop-color:#a68b60;stop-opacity:1"
         offset="1" />
    </linearGradient>
    <linearGradient
       x1="24.822832"
       y1="15.377745"
       x2="24.996943"
       y2="37.27668"
       id="linearGradient3197"
       xlink:href="#linearGradient3199"
       gradientUnits="userSpaceOnUse"
       gradientTransform="matrix(1.2822251,0,0,1.5572619,-6.0701918,-15.290756)" />
    <linearGradient
       id="linearGradient4559">
      <stop
         id="stop4561"
         style="stop-color:#ffffff;stop-opacity:0"
         offset="0" />
      <stop
         id="stop4563"
         style="stop-color:#ffffff;stop-opacity:0"
         offset="1" />
    </linearGradient>
    <linearGradient
       x1="23.451576"
       y1="30.554907"
       x2="43.00663"
       y2="45.934479"
       id="linearGradient2659"
       xlink:href="#linearGradient4559"
       gradientUnits="userSpaceOnUse"
       gradientTransform="matrix(1.2822251,0,0,1.1746872,-6.0701918,-5.3031677)" />
    <linearGradient
       id="linearGradient3827">
      <stop
         id="stop3829"
         style="stop-color:#ffffff;stop-opacity:1"
         offset="0" />
      <stop
         id="stop4295"
         style="stop-color:#ffffff;stop-opacity:1"
         offset="0.3021296" />
      <stop
         id="stop4293"
         style="stop-color:#ffffff;stop-opacity:0.6901961"
         offset="0.34361121" />
      <stop
         id="stop3832"
         style="stop-color:#ffffff;stop-opacity:0"
         offset="1" />
    </linearGradient>
    <linearGradient
       x1="26"
       y1="22"
       x2="26"
       y2="8"
       id="linearGradient3834"
       xlink:href="#linearGradient3827"
       gradientUnits="userSpaceOnUse" />
    <linearGradient
       id="linearGradient3275">
      <stop
         id="stop3277"
         style="stop-color:#ffffff;stop-opacity:0"
         offset="0" />
      <stop
         id="stop3283"
         style="stop-color:#ffffff;stop-opacity:1"
         offset="0.245" />
      <stop
         id="stop3285"
         style="stop-color:#ffffff;stop-opacity:1"
         offset="0.77350003" />
      <stop
         id="stop3279"
         style="stop-color:#ffffff;stop-opacity:0"
         offset="1" />
    </linearGradient>
    <linearGradient
       x1="44.994774"
       y1="17.5"
       x2="3.0052247"
       y2="17.5"
       id="linearGradient3281"
       xlink:href="#linearGradient3275"
       gradientUnits="userSpaceOnUse"
       spreadMethod="reflect" />
  </defs>
  <g
     id="layer1">
    <g
       transform="matrix(0.9926623,0,0,0.9761474,0.2751901,1.2929634)"
       id="g3305"
       style="opacity:0.4;display:inline">
      <rect
         width="2.9601951"
         height="15.366531"
         x="-3.6903627"
         y="-47.848343"
         transform="scale(-1,-1)"
         id="rect2484"
         style="fill:url(#radialGradient3310);fill-opacity:1;stroke:none" />
      <rect
         width="40.41172"
         height="15.366531"
         x="3.6903627"
         y="32.481812"
         id="rect2486"
         style="fill:url(#linearGradient3312);fill-opacity:1;stroke:none" />
      <rect
         width="2.9601951"
         height="15.366531"
         x="44.110001"
         y="-47.848343"
         transform="scale(1,-1)"
         id="rect3444"
         style="fill:url(#radialGradient3314);fill-opacity:1;stroke:none;display:inline" />
    </g>
    <path
       d="M 9.010725,8.5 L 38.508448,8.5 C 40.230433,8.5 41.00537,8.2134495 41.5,9.5 L 44.501734,17.5 L 44.501734,43.173912 C 44.501734,44.727216 44.604664,44.489888 42.882671,44.489888 L 5.1173288,44.489888 C 3.3953364,44.489888 3.4982653,44.727216 3.4982653,43.173912 L 3.4982653,17.5 L 6.5,9.5 C 6.9808316,8.2394378 7.2887325,8.5 9.010725,8.5 L 9.010725,8.5 z"
       id="path2488"
       style="fill:url(#linearGradient3197);fill-opacity:1;fill-rule:nonzero;stroke:url(#linearGradient3293);stroke-width:0.99420077;stroke-linecap:round;stroke-linejoin:miter;marker:none;stroke-miterlimit:4;stroke-dasharray:none;stroke-dashoffset:0;stroke-opacity:1;visibility:visible;display:block;overflow:visible" />
    <path
       d="M 9.948194,9.5129459 L 37.601066,9.5129459 C 39.215359,9.5129459 40.214446,10.069482 40.890587,11.598974 L 43.219527,18.018695 L 43.219527,41.163252 C 43.219527,42.623928 42.400768,43.359337 40.786471,43.359337 L 7.0532679,43.359337 C 5.4389745,43.359337 4.7804918,42.55051 4.7804918,41.089833 L 4.7804918,18.018695 L 7.0343027,11.461335 C 7.4850649,10.275943 8.3338968,9.5129459 9.948194,9.5129459 z"
       id="path2490"
       style="opacity:0.50549454;fill:none;stroke:url(#linearGradient2659);stroke-width:0.74211526;stroke-linecap:butt;stroke-linejoin:miter;marker:none;stroke-miterlimit:4;stroke-dasharray:none;stroke-dashoffset:0;stroke-opacity:1;visibility:visible;display:block;overflow:visible" />
    <path
       d="M 22,8 C 23.333333,8 24.666667,8 26,8 C 26,12.666667 26,17.333333 26,22 C 25.606271,22 25.212542,22 24.818813,22 C 24.415688,22 24.012563,22 23.609438,22 C 23.284909,22 22.960381,22 22.635853,22 C 22.423902,22 22.211951,22 22,22 C 22,17.333333 22,12.666667 22,8 z"
       id="rect3326"
       style="opacity:0.4;fill:url(#linearGradient3834);fill-opacity:1;fill-rule:nonzero;stroke:none;stroke-width:1;marker:none;visibility:visible;display:inline;overflow:visible;enable-background:accumulate" />
    <path
       d="M 3.5052248,17.5 L 44.494775,17.5"
       id="path3273"
       style="opacity:0.4;fill:none;stroke:url(#linearGradient3281);stroke-width:1px;stroke-linecap:square;stroke-linejoin:miter;stroke-opacity:1;display:inline" />
    <path
       d="M 15.966875,32.930297 C 15.940647,33.048298 15.84887,33.212185 15.691545,33.421958 C 15.534207,33.618625 15.462098,33.775956 15.475214,33.893953 C 15.527652,34.300394 15.383432,34.660945 15.042553,34.975607 C 14.727884,35.604933 14.413221,36.227702 14.098564,36.843918 C 13.416791,38.023902 12.617023,38.69256 11.699259,38.849894 C 11.161709,38.941668 10.715936,38.987556 10.361941,38.987559 C 9.7195044,38.987556 9.1557343,38.76467 8.6706277,38.318901 C 8.2379679,37.912459 8.0216373,37.440464 8.0216354,36.902917 C 8.0216373,36.588253 8.1658577,36.378478 8.4542969,36.273591 C 8.5198533,36.247368 8.5526305,36.293257 8.5526291,36.411256 C 8.5526305,36.424366 8.5526305,36.457144 8.5526291,36.509589 C 8.5526305,36.575142 8.5526305,36.627586 8.5526291,36.66692 C 8.5526305,37.270023 8.9197371,37.59124 9.6539496,37.630575 C 10.152166,37.669906 10.584826,37.578129 10.951934,37.355245 C 11.069932,37.289689 11.410817,37.020915 11.974589,36.548922 C 12.15814,36.378478 12.479359,35.965484 12.938244,35.309936 C 13.449568,34.588835 13.705231,34.123396 13.705235,33.913619 C 13.705231,33.861178 13.69212,33.8284 13.665902,33.815287 C 13.626565,33.789067 13.397124,33.952954 12.977577,34.306948 C 12.518691,34.700278 12.092585,34.896942 11.699259,34.896941 C 11.502592,34.896942 11.305929,34.851054 11.109266,34.759276 C 10.34883,34.379059 9.9686126,33.710402 9.9686126,32.7533 C 9.9686126,32.517306 10.20461,32.117421 10.676604,31.553647 C 11.04371,31.134101 11.417372,30.714551 11.797591,30.294995 C 11.994253,30.045892 12.407248,29.770562 13.036576,29.469005 C 13.731453,29.141237 14.31489,28.977351 14.786889,28.977344 C 15.219545,28.977351 15.534207,29.193681 15.730878,29.626336 C 15.875092,29.954116 15.927536,30.360555 15.88821,30.845655 C 15.717761,31.029213 15.639095,31.1931 15.652212,31.337316 C 15.665317,31.402875 15.737427,31.665094 15.868543,32.123974 C 15.973424,32.504195 16.006202,32.772969 15.966875,32.930297 M 14.373894,30.15733 C 14.151003,30.157336 13.934673,30.236001 13.724902,30.393327 C 13.528233,30.537553 13.390569,30.616219 13.311907,30.629325 C 13.154572,30.642441 12.92513,30.747329 12.623581,30.943987 C 12.335138,31.140656 12.125363,31.311099 11.994255,31.455315 C 11.876255,31.59954 11.745145,31.835537 11.600927,32.163306 C 11.469816,32.491084 11.404261,32.727081 11.404262,32.871298 C 11.404261,32.923745 11.410817,32.956522 11.423929,32.96963 C 11.463261,33.008965 11.784478,32.884412 12.387584,32.595968 C 13.082462,32.255086 13.482346,32.064978 13.587237,32.025641 C 13.639676,32.012534 13.679009,31.946979 13.705235,31.828977 C 13.718342,31.750316 13.718342,31.632317 13.705235,31.474981 C 13.69212,31.252099 13.685564,31.127545 13.685569,31.101319 C 13.685564,31.009547 13.823229,30.852215 14.098564,30.629325 C 14.387001,30.406444 14.53122,30.275334 14.531226,30.235996 C 14.53122,30.183557 14.478776,30.157336 14.373894,30.15733 M 25.076122,33.933286 C 24.997448,34.39217 24.577898,34.621612 23.81747,34.621611 C 23.555245,34.621612 23.129139,34.582279 22.539152,34.503612 C 22.027819,34.438059 21.69349,34.418392 21.536164,34.444613 C 21.444383,34.457725 20.99861,34.601946 20.198846,34.877275 C 19.47774,35.126383 18.907415,35.250937 18.487866,35.250937 C 17.976538,35.250937 17.609431,35.07394 17.386546,34.719943 C 17.268546,34.52328 17.209548,34.339726 17.209548,34.169283 C 17.209548,33.789067 17.589765,33.48096 18.350201,33.24496 C 18.481309,33.218741 18.69764,33.022076 18.999194,32.654967 C 19.313855,32.287864 19.556406,32.058422 19.726852,31.966642 C 20.959277,31.219322 21.601714,30.747329 21.654163,30.550659 C 21.69349,30.458888 21.575492,30.380222 21.300167,30.314662 C 21.024832,30.236001 20.79539,30.209779 20.611841,30.235996 C 20.402063,30.275334 20.218509,30.354 20.061181,30.471993 C 19.916957,30.576886 19.759626,30.622774 19.589187,30.609658 C 18.474753,30.478554 17.917539,29.993449 17.91754,29.154342 C 17.917539,29.062572 17.924094,28.957684 17.937206,28.839679 C 17.963427,28.708576 18.264979,28.643021 18.841862,28.643015 C 19.051635,28.643021 19.366298,28.656132 19.785851,28.682347 C 20.166066,28.708576 20.395507,28.721687 20.474176,28.72168 C 20.513506,28.721687 20.710169,28.70202 21.064169,28.662681 C 21.418161,28.623355 21.713156,28.603688 21.949159,28.603682 C 22.670256,28.603688 23.089806,28.754464 23.207811,29.05601 C 23.312692,29.305124 23.365136,29.567344 23.365142,29.842667 C 23.365136,29.986893 23.312692,30.347444 23.207811,30.924321 C 23.14225,31.238988 22.840698,31.645428 22.303155,32.14364 C 21.844266,32.563194 21.641046,32.78608 21.693495,32.812299 C 21.745934,32.838524 21.962265,32.838524 22.342488,32.812299 C 22.866919,32.78608 23.181582,32.772969 23.286477,32.772966 C 23.496245,32.772969 23.6208,32.792636 23.660139,32.831965 C 23.92235,33.081076 24.263235,33.225296 24.682794,33.264627 C 24.958115,33.290851 25.09578,33.415405 25.095789,33.638289 C 25.09578,33.716957 25.089224,33.815289 25.076122,33.933286 M 33.273952,27.148365 C 33.024838,27.397482 32.749507,27.522035 32.447962,27.522028 C 32.264403,27.522035 32.100516,27.456482 31.956301,27.325363 C 31.759631,27.15493 31.661299,26.886155 31.661305,26.51904 C 31.661299,26.11261 31.74652,25.83728 31.916968,25.693049 C 32.100516,25.535728 32.303736,25.457062 32.526628,25.457052 C 32.710175,25.457062 32.900284,25.509506 33.096954,25.614384 C 33.306723,25.719281 33.411611,25.994611 33.411617,26.440374 C 33.411611,26.8206 33.365722,27.056598 33.273952,27.148365 M 29.891325,29.429672 C 30.087987,29.573899 30.186319,29.816451 30.186322,30.15733 C 30.186319,30.865326 29.779879,31.927313 28.967003,33.343293 C 28.757226,33.723513 28.54745,34.103729 28.337677,34.483946 C 27.98368,34.995274 27.629684,35.250937 27.27569,35.250937 C 27.118357,35.250937 26.961026,35.205048 26.803695,35.113272 C 26.502143,34.929719 26.351367,34.674056 26.351367,34.346281 C 26.351367,34.018509 26.52181,33.598958 26.862694,33.087629 C 27.124912,32.720525 27.393687,32.359974 27.669018,32.005975 C 27.787016,31.835537 28.108233,31.245544 28.632674,30.235996 C 28.960445,29.606676 29.255441,29.292013 29.517663,29.292007 C 29.635659,29.292013 29.760213,29.337902 29.891325,29.429672 M 39.899698,32.300972 C 39.821023,32.733636 39.394917,33.094187 38.62138,33.382625 C 38.293598,33.513737 37.703606,33.671069 36.8514,33.85462 C 36.628509,33.907066 36.110626,33.939843 35.297752,33.952952 C 34.550424,33.952954 34.157095,33.966065 34.117766,33.992285 C 33.540882,34.398726 32.747669,35.5656 31.738127,37.49291 C 30.754805,39.367774 30.250035,40.311762 30.223812,40.324877 C 30.18448,40.351095 30.151703,40.364206 30.12548,40.36421 C 30.046815,40.364206 29.955038,40.298651 29.850149,40.167546 C 29.692819,39.997099 29.587931,39.892211 29.535486,39.852883 C 29.417489,39.800434 29.306046,39.741435 29.201157,39.675885 C 29.083161,39.610326 29.01105,39.518549 28.984826,39.400555 C 28.932385,39.085888 29.410933,38.004236 30.420476,36.155593 C 31.482462,34.241394 32.020012,33.271184 32.033124,33.24496 C 32.059345,33.048298 31.961012,32.851635 31.738127,32.654967 C 31.51524,32.445195 31.416908,32.202643 31.443131,31.927309 C 31.456241,31.678205 31.534906,31.481541 31.679128,31.337316 C 31.836458,31.179989 31.974123,31.114434 32.092123,31.140652 C 32.105233,31.153767 32.131455,31.317654 32.170789,31.632313 C 32.210121,31.946979 32.354341,32.110866 32.60345,32.123974 C 32.747669,32.137088 33.147553,31.474986 33.803103,30.137664 C 34.471758,28.787242 34.91753,28.131695 35.14042,28.17102 C 35.782852,28.223472 36.425289,28.26936 37.067731,28.308685 C 38.103489,28.439802 38.785259,28.70202 39.11304,29.095343 C 39.689914,29.80334 39.978355,30.62933 39.978364,31.573313 C 39.978355,31.822426 39.952133,32.064978 39.899698,32.300972 M 38.483714,30.511326 C 38.470596,30.445777 38.267376,30.380222 37.874055,30.314662 C 37.493831,30.236001 37.126724,30.196668 36.772735,30.196663 C 36.405622,30.196668 36.169625,30.242557 36.064743,30.334328 C 35.815629,30.544109 35.546856,30.825993 35.258419,31.179985 C 34.91753,31.625762 34.766754,31.914202 34.806091,32.045308 C 34.84542,32.189532 35.015862,32.261642 35.317418,32.261639 C 35.684521,32.261642 36.195847,32.16331 36.8514,31.966642 C 37.336499,31.809315 37.75605,31.547096 38.110052,31.179985 C 38.385375,30.878437 38.509929,30.655552 38.483714,30.511326"
       id="text2428"
       style="font-size:18px;font-style:normal;font-variant:normal;font-weight:normal;font-stretch:normal;opacity:0.4;fill:#000000;fill-opacity:1;stroke:none;stroke-width:1px;stroke-linecap:butt;stroke-linejoin:miter;stroke-opacity:1;font-family:Blunter;-inkscape-font-specification:Blunter" />
  </g>
</svg>
