<?xml version="1.0" encoding="UTF-8" standalone="no"?>
<!-- Created with Inkscape (http://www.inkscape.org/) -->

<svg
   xmlns:svg="http://www.w3.org/2000/svg"
   xmlns="http://www.w3.org/2000/svg"
   xmlns:xlink="http://www.w3.org/1999/xlink"
   version="1.1"
   width="32"
   height="32"
   id="svg7280">
  <defs
     id="defs7282">
    <linearGradient
       x1="71.999496"
       y1="14.2578"
       x2="71.999496"
       y2="19.9583"
       id="linearGradient4305-4-8"
       gradientUnits="userSpaceOnUse"
       gradientTransform="matrix(1.0033404,0,0,1,-8.2374684,8)">
      <stop
         id="stop4307-0-1"
         style="stop-color:#feebd6;stop-opacity:0"
         offset="0.00445589" />
      <stop
         id="stop4309-8-0"
         style="stop-color:#f5f5f5;stop-opacity:0.52999997"
         offset="0.46138024" />
      <stop
         id="stop4311-0-3"
         style="stop-color:#f5f5f5;stop-opacity:0"
         offset="1" />
    </linearGradient>
    <linearGradient
       x1="7.2379346"
       y1="36.005047"
       x2="132.86028"
       y2="35.857735"
       id="linearGradient10810"
       xlink:href="#linearGradient4305-4-8"
       gradientUnits="userSpaceOnUse"
       gradientTransform="matrix(0.3102479,0,0,0.942809,-4.0456949,-23.279211)" />
    <linearGradient
       x1="71.999496"
       y1="14.2578"
       x2="71.999496"
       y2="19.9583"
       id="linearGradient10580"
       gradientUnits="userSpaceOnUse"
       gradientTransform="matrix(1.0033404,0,0,1,-8.2374684,8)">
      <stop
         id="stop10582"
         style="stop-color:#df5757;stop-opacity:0"
         offset="0.25" />
      <stop
         id="stop10584"
         style="stop-color:#c90505;stop-opacity:1"
         offset="1" />
    </linearGradient>
    <linearGradient
       x1="65.306877"
       y1="22"
       x2="65.306877"
       y2="28.003984"
       id="linearGradient10808"
       xlink:href="#linearGradient10580"
       gradientUnits="userSpaceOnUse"
       gradientTransform="matrix(0.2402106,0,0,0.1666666,0.6255474,4.3333328)" />
    <linearGradient
       id="linearGradient10572">
      <stop
         id="stop10574"
         style="stop-color:#c90505;stop-opacity:1"
         offset="0" />
      <stop
         id="stop10576"
         style="stop-color:#a40000;stop-opacity:1"
         offset="1" />
    </linearGradient>
    <linearGradient
       x1="151"
       y1="64"
       x2="150.99998"
       y2="83"
       id="linearGradient10806"
       xlink:href="#linearGradient10572"
       gradientUnits="userSpaceOnUse"
       gradientTransform="matrix(0.9997295,0,0,1.0000073,-133.95958,-55.000537)" />
    <linearGradient
       id="linearGradient10566">
      <stop
         id="stop10568"
         style="stop-color:#ff4f4f;stop-opacity:1"
         offset="0" />
      <stop
         id="stop10570"
         style="stop-color:#c90505;stop-opacity:1"
         offset="1" />
    </linearGradient>
    <linearGradient
       x1="28.272753"
       y1="325.34204"
       x2="28.272074"
       y2="409.80386"
       id="linearGradient10804"
       xlink:href="#linearGradient10566"
       gradientUnits="userSpaceOnUse"
       gradientTransform="matrix(0.2421199,0,0,0.2368403,9.1546054,-69.058011)" />
    <linearGradient
       id="linearGradient17648">
      <stop
         id="stop17650"
         style="stop-color:#ffffff;stop-opacity:0.60000002"
         offset="0" />
      <stop
         id="stop17652"
         style="stop-color:#ffffff;stop-opacity:0"
         offset="1" />
    </linearGradient>
    <linearGradient
       x1="24.001408"
       y1="10.238918"
       x2="23.999996"
       y2="38.762936"
       id="linearGradient17646"
       xlink:href="#linearGradient17648"
       gradientUnits="userSpaceOnUse"
       gradientTransform="matrix(0.6666651,0,0,0.6666659,-1.0003886,-1.8332972)" />
    <linearGradient
       id="linearGradient6293">
      <stop
         id="stop6295"
         style="stop-color:#888a85;stop-opacity:1"
         offset="0" />
      <stop
         id="stop6297"
         style="stop-color:#555753;stop-opacity:0"
         offset="1" />
    </linearGradient>
    <linearGradient
       x1="23.999998"
       y1="8.7654715"
       x2="24.046484"
       y2="31.230356"
       id="linearGradient17644"
       xlink:href="#linearGradient6293"
       gradientUnits="userSpaceOnUse"
       gradientTransform="matrix(0.6792506,0,0,0.6663604,-1.3024416,-1.8258142)" />
    <radialGradient
       cx="605.71429"
       cy="486.64789"
       r="117.14286"
       fx="605.71429"
       fy="486.64789"
       id="radialGradient2099"
       xlink:href="#linearGradient5060"
       gradientUnits="userSpaceOnUse"
       gradientTransform="matrix(-2.774389,0,0,1.969706,112.7623,-872.8854)" />
    <linearGradient
       id="linearGradient5060">
      <stop
         id="stop5062"
         style="stop-color:#000000;stop-opacity:1"
         offset="0" />
      <stop
         id="stop5064"
         style="stop-color:#000000;stop-opacity:0"
         offset="1" />
    </linearGradient>
    <radialGradient
       cx="605.71429"
       cy="486.64789"
       r="117.14286"
       fx="605.71429"
       fy="486.64789"
       id="radialGradient2097"
       xlink:href="#linearGradient5060"
       gradientUnits="userSpaceOnUse"
       gradientTransform="matrix(2.774389,0,0,1.969706,-1891.633,-872.8854)" />
    <linearGradient
       id="linearGradient5048">
      <stop
         id="stop5050"
         style="stop-color:#000000;stop-opacity:0"
         offset="0" />
      <stop
         id="stop5056"
         style="stop-color:#000000;stop-opacity:1"
         offset="0.5" />
      <stop
         id="stop5052"
         style="stop-color:#000000;stop-opacity:0"
         offset="1" />
    </linearGradient>
    <linearGradient
       x1="302.85715"
       y1="366.64789"
       x2="302.85715"
       y2="609.50507"
       id="linearGradient2095"
       xlink:href="#linearGradient5048"
       gradientUnits="userSpaceOnUse"
       gradientTransform="matrix(2.774389,0,0,1.969706,-1892.179,-872.8854)" />
    <linearGradient
       x1="32.036148"
       y1="19"
       x2="32.036148"
       y2="47.012184"
       id="linearGradient2644"
       xlink:href="#linearGradient3309"
       gradientUnits="userSpaceOnUse"
       gradientTransform="translate(-61.272483,-10.504231)" />
    <linearGradient
       x1="63.9995"
       y1="3.1001"
       x2="63.9995"
       y2="122.8994"
       id="linearGradient3309"
       gradientUnits="userSpaceOnUse">
      <stop
         id="stop3311"
         style="stop-color:#f6f6f6;stop-opacity:1"
         offset="0" />
      <stop
         id="stop3313"
         style="stop-color:#d2d2d2;stop-opacity:1"
         offset="1" />
    </linearGradient>
    <linearGradient
       x1="25.922546"
       y1="19"
       x2="25.922546"
       y2="47.044857"
       id="linearGradient2646"
       xlink:href="#linearGradient3397"
       gradientUnits="userSpaceOnUse"
       gradientTransform="translate(-61.272483,-10.504231)" />
    <linearGradient
       id="linearGradient3397">
      <stop
         id="stop3399"
         style="stop-color:#a0a0a0;stop-opacity:1"
         offset="0" />
      <stop
         id="stop3401"
         style="stop-color:#787878;stop-opacity:1"
         offset="1" />
    </linearGradient>
    <linearGradient
       x1="62.988873"
       y1="13.182598"
       x2="62.988873"
       y2="16.19013"
       id="linearGradient2648"
       xlink:href="#linearGradient6404"
       gradientUnits="userSpaceOnUse"
       gradientTransform="translate(-112.21338,-10.504231)" />
    <linearGradient
       id="linearGradient6404">
      <stop
         id="stop6406"
         style="stop-color:#f9f9f9;stop-opacity:1"
         offset="0" />
      <stop
         id="stop6408"
         style="stop-color:#c9c9c9;stop-opacity:1"
         offset="1" />
    </linearGradient>
    <linearGradient
       x1="62.988873"
       y1="13.182598"
       x2="62.988873"
       y2="16.19013"
       id="linearGradient2909"
       xlink:href="#linearGradient6404"
       gradientUnits="userSpaceOnUse"
       gradientTransform="translate(-112.21338,-10.504231)" />
  </defs>
  <g
     id="layer1">
    <g
       transform="matrix(0.01576018,0,0,0.01463342,30.017662,25.20521)"
       id="g13071"
       style="display:inline">
      <rect
         width="1339.6335"
         height="478.35718"
         x="-1559.2523"
         y="-150.69685"
         id="rect13073"
         style="opacity:0.40206185;fill:url(#linearGradient2095);fill-opacity:1;fill-rule:nonzero;stroke:none;stroke-width:1;marker:none;visibility:visible;display:inline;overflow:visible" />
      <path
         d="m -219.61876,-150.68038 c 0,0 0,478.33079 0,478.33079 142.874166,0.90045 345.40022,-107.16966 345.40014,-239.196175 0,-132.026537 -159.436816,-239.134595 -345.40014,-239.134615 z"
         id="path13075"
         style="opacity:0.40206185;fill:url(#radialGradient2097);fill-opacity:1;fill-rule:nonzero;stroke:none;stroke-width:1;marker:none;visibility:visible;display:inline;overflow:visible" />
      <path
         d="m -1559.2523,-150.68038 c 0,0 0,478.33079 0,478.33079 -142.8742,0.90045 -345.4002,-107.16966 -345.4002,-239.196175 0,-132.026537 159.4368,-239.134595 345.4002,-239.134615 z"
         id="path13077"
         style="opacity:0.40206185;fill:url(#radialGradient2099);fill-opacity:1;fill-rule:nonzero;stroke:none;stroke-width:1;marker:none;visibility:visible;display:inline;overflow:visible" />
    </g>
    <path
       d="m 29.499569,7.4999985 c -0.0058,-0.4999998 -0.513797,-0.9999997 -1,-0.9999997 l -15,0 -1.75,-1.5 c -0.180867,-0.172857 -0.494272,-0.5 -0.75,-0.5 l -7.4999976,0 c -0.511452,0 -1,0.511203 -1,1 l -1e-6,1 0,21.0000012 26.9999986,0 0,-20.0000015 z"
       id="path15"
       style="fill:#eeeeec;fill-opacity:1;stroke:url(#linearGradient17644);stroke-width:1.0091393;stroke-miterlimit:4;stroke-dasharray:none" />
    <path
       d="m 28.499569,7.9999985 c 0.0098,-0.5411776 -7.73e-4,-0.5315735 -0.500025,-0.5 l -14.899975,0 -1.7,-1.4999997 c -0.480285,-0.410871 -0.547298,-0.541667 -1.3999986,-0.5 l -5.999999,0 c -0.476232,0 -0.5,0.041544 -0.5,0.5 l -1e-6,20.5000012 24.9999986,0 0,-18.5000015 z"
       id="path7263"
       style="fill:none;stroke:url(#linearGradient17646);stroke-width:0.99997574;stroke-miterlimit:4;stroke-opacity:1;stroke-dasharray:none" />
    <path
       d="m 30.745848,27.000062 c -0.02085,0.390318 -0.348966,0.499874 -0.749798,0.499874 l -27.9924236,0 c -0.400852,0 -0.728663,-0.109556 -0.749797,-0.499874 L 0.50403243,9.999937 C 0.47486943,9.610328 0.60304543,9.500063 1.0038964,9.500063 l 29.9918836,0 c 0.400851,0 0.530466,0.110266 0.499865,0.499874 l -0.749797,17.000125 0,0 z"
       id="path40085"
       style="opacity:0.9;fill:url(#linearGradient10804);fill-opacity:1;stroke:url(#linearGradient10806);stroke-width:1.00012851;stroke-miterlimit:4;stroke-opacity:1;stroke-dasharray:none;display:inline;enable-background:new" />
    <path
       d="m 3.0000014,7.9999991 c 0.00186,0.2916667 0.00465,0.625834 0.00652,1 l 25.9869686,0 c 0.0019,-0.374166 0.0047,-0.7083333 0.0065,-1 l -25.9995056,0 -4.93e-4,0 z"
       id="path50"
       style="opacity:0.5;fill:url(#linearGradient10808);fill-opacity:1;display:inline;enable-background:new" />
    <rect
       width="30"
       height="1"
       rx="0"
       ry="0"
       x="1.0000069"
       y="9.999999"
       id="rect3521-5-0"
       style="fill:url(#linearGradient10810);fill-opacity:1;stroke:none;display:inline;enable-background:new" />
    <g
       transform="matrix(0.64285714,0,0,0.64285714,41.460882,8.5384341)"
       id="g2639">
      <path
         d="m -32.397483,8.995769 c -0.748739,0 -1.375,0.595012 -1.375,1.34375 l 0,1.75 c -0.473402,0.158876 -0.932751,0.343406 -1.375,0.5625 l -1.21875,-1.21875 c -0.529439,-0.529438 -1.376812,-0.529438 -1.90625,0 l -3.0625,3.03125 c -0.529439,0.529438 -0.529436,1.376813 0,1.90625 l 1.21875,1.21875 c -0.224327,0.449932 -0.400632,0.923932 -0.5625,1.40625 l -1.71875,0 c -0.748739,0 -1.375002,0.595012 -1.375,1.34375 l 0,4.3125 c -10e-7,0.748738 0.626264,1.343752 1.375,1.34375 l 1.71875,0 c 0.161868,0.482318 0.338173,0.956318 0.5625,1.40625 l -1.21875,1.21875 c -0.529439,0.529438 -0.52944,1.376812 0,1.90625 l 3.0625,3.03125 c 0.529437,0.529438 1.376813,0.529436 1.90625,0 l 1.21875,-1.21875 c 0.442249,0.219094 0.901598,0.403624 1.375,0.5625 l 0,1.75 c -10e-7,0.748738 0.626266,1.343752 1.375,1.34375 l 4.28125,0 c 0.748739,0 1.34375,-0.595014 1.34375,-1.34375 l 0,-1.75 c 0.482318,-0.161868 0.956318,-0.338173 1.40625,-0.5625 l 1.21875,1.21875 c 0.529439,0.529438 1.376811,0.529438 1.90625,0 l 3.0625,-3.03125 c 0.529439,-0.529438 0.529434,-1.376814 0,-1.90625 l -1.25,-1.25 c 0.219094,-0.442249 0.403624,-0.901598 0.5625,-1.375 l 1.75,0 c 0.748739,0 1.34375,-0.595014 1.34375,-1.34375 l 0,-4.3125 c 1e-6,-0.748738 -0.595016,-1.34375 -1.34375,-1.34375 l -1.75,0 c -0.158876,-0.473402 -0.343406,-0.932751 -0.5625,-1.375 l 1.25,-1.25 c 0.529439,-0.529438 0.529438,-1.376812 0,-1.90625 l -3.0625,-3.03125 c -0.529437,-0.529438 -1.376814,-0.529438 -1.90625,0 l -1.21875,1.21875 c -0.449932,-0.224327 -0.923932,-0.400632 -1.40625,-0.5625 l 0,-1.75 c 1e-6,-0.748738 -0.595016,-1.34375 -1.34375,-1.34375 l -4.28125,0 z m 2.125,10 c 1.932,0 3.5,1.568 3.5,3.5 0,1.932 -1.568,3.5 -3.5,3.5 -1.932001,0 -3.5,-1.568 -3.5,-3.5 -10e-7,-1.932 1.568,-3.5 3.5,-3.5 z"
         id="rect2576"
         style="fill:url(#linearGradient2644);fill-opacity:1;fill-rule:nonzero;stroke:url(#linearGradient2646);stroke-width:1;stroke-linecap:butt;stroke-linejoin:round;stroke-miterlimit:4;stroke-opacity:1;stroke-dasharray:none;stroke-dashoffset:0;marker:none;visibility:visible;display:block;overflow:visible;enable-background:accumulate" />
      <path
         d="m -30.272483,14.495769 c -4.411273,0 -7.999998,3.588727 -7.999998,8 0,4.411274 3.588725,8 7.999998,8 4.411273,0 8,-3.588726 8,-8 0,-4.411273 -3.588727,-8 -8,-8 z m 0,3.692309 c 2.377844,0 4.307693,1.929846 4.307693,4.307691 0,2.377847 -1.929849,4.307693 -4.307693,4.307693 -2.377846,0 -4.307691,-1.929846 -4.307691,-4.307693 0,-2.377845 1.929845,-4.307691 4.307691,-4.307691 z"
         id="path3315"
         style="opacity:0.05;fill:#000000;fill-opacity:1;stroke:none" />
      <path
         d="m -30.272483,14.11646 c -4.620353,0 -8.379308,3.758957 -8.379308,8.379308 0,4.620352 3.758955,8.37931 8.379308,8.37931 4.620353,0 8.37931,-3.758958 8.37931,-8.37931 0,-4.620351 -3.758957,-8.379308 -8.37931,-8.379308 z"
         id="path28"
         style="fill:none;stroke:url(#linearGradient2909);stroke-width:1;stroke-miterlimit:4;stroke-dasharray:none" />
    </g>
  </g>
</svg>
