<?xml version="1.0" encoding="UTF-8" standalone="no"?>
<!-- Created with Inkscape (http://www.inkscape.org/) -->

<svg
   xmlns:dc="http://purl.org/dc/elements/1.1/"
   xmlns:cc="http://creativecommons.org/ns#"
   xmlns:rdf="http://www.w3.org/1999/02/22-rdf-syntax-ns#"
   xmlns:svg="http://www.w3.org/2000/svg"
   xmlns="http://www.w3.org/2000/svg"
   xmlns:sodipodi="http://sodipodi.sourceforge.net/DTD/sodipodi-0.dtd"
   xmlns:inkscape="http://www.inkscape.org/namespaces/inkscape"
   id="svg2"
   version="1.1"
   inkscape:version="0.47 r22583"
   width="859.18964"
   height="130.57179"
   xml:space="preserve"
   sodipodi:docname="concept3.svg"><metadata
     id="metadata8"><rdf:RDF><cc:Work
         rdf:about=""><dc:format>image/svg+xml</dc:format><dc:type
           rdf:resource="http://purl.org/dc/dcmitype/StillImage" /><dc:title></dc:title></cc:Work></rdf:RDF></metadata><defs
     id="defs6"><clipPath
       clipPathUnits="userSpaceOnUse"
       id="clipPath20"><path
         d="m 0,8418.9 11905.5,0 L 11905.5,0 0,0 0,8418.9 z"
         id="path22" /></clipPath><inkscape:perspective
       id="perspective3638"
       inkscape:persp3d-origin="0.5 : 0.33333333 : 1"
       inkscape:vp_z="1 : 0.5 : 1"
       inkscape:vp_y="0 : 1000 : 0"
       inkscape:vp_x="0 : 0.5 : 1"
       sodipodi:type="inkscape:persp3d" /><inkscape:perspective
       id="perspective3641"
       inkscape:persp3d-origin="0.5 : 0.33333333 : 1"
       inkscape:vp_z="1 : 0.5 : 1"
       inkscape:vp_y="0 : 1000 : 0"
       inkscape:vp_x="0 : 0.5 : 1"
       sodipodi:type="inkscape:persp3d" /><mask
       id="mask2918"><path
         d="m 58.75,323 c 52.74374,-25.35972 85.01705,-51.53157 106.5,-76.75 -23.16208,-16.57016 -16.35679,-15.27745 4.5,-7.25 9.81312,3.77692 26.75,4 45.75,-28 14.58614,-24.56613 27.5,-35 27.5,-35 -16.42037,1.83647 -45.03297,-3.33251 4.25,-8.625 21.18972,-26.02629 47.60573,-48.5684 72.5,-72.125 -48.10097,19.60374 -30.94199,-1.276363 8.875,-7.625001 26.56651,-36.341988 75.36969,-55.870888 129,-71.75 -37.0127,1.310703 -77.56038,-0.163738 -93.5,17.75 l 0.25,-8.625 c -35.96429,8.944797 -120.91456,39.797852 -123.25159,46.533289 -1.79531,5.174178 -7.70271,16.731254 -10.69499,27.665553 -0.9295,-6.637109 -0.72035,-13.957413 0.70711,-22.008699 -25.08201,11.376989 -71.42469,46.024148 -73.45072,54.270448 -1.17198,4.77015 -4.21779,41.11625 -1.59099,57.27565 -8.65822,-13.41931 -9.85144,-30.2318 -11.38693,-46.88872 -8.81853,8.95956 -45.05008,23.53873 -38.28732,93.91132 -7.49114,-8.30429 -6.00329,-21.59691 -8.13173,-32.88047 C 74.27558,233.48435 53.0941,278.86739 54,324"
         id="path2901-7"
         style="fill:#ffffff;fill-opacity:1;fill-rule:evenodd;stroke:#ffffff;stroke-width:0.625;stroke-linecap:butt;stroke-linejoin:round;stroke-miterlimit:4;stroke-opacity:1;stroke-dasharray:none" /></mask><inkscape:perspective
       id="perspective2861"
       inkscape:persp3d-origin="0.5 : 0.33333333 : 1"
       inkscape:vp_z="1 : 0.5 : 1"
       inkscape:vp_y="0 : 1000 : 0"
       inkscape:vp_x="0 : 0.5 : 1"
       sodipodi:type="inkscape:persp3d" /><inkscape:perspective
       id="perspective2929"
       inkscape:persp3d-origin="0.5 : 0.33333333 : 1"
       inkscape:vp_z="1 : 0.5 : 1"
       inkscape:vp_y="0 : 1000 : 0"
       inkscape:vp_x="0 : 0.5 : 1"
       sodipodi:type="inkscape:persp3d" /><inkscape:perspective
       id="perspective2929-3"
       inkscape:persp3d-origin="0.5 : 0.33333333 : 1"
       inkscape:vp_z="1 : 0.5 : 1"
       inkscape:vp_y="0 : 1000 : 0"
       inkscape:vp_x="0 : 0.5 : 1"
       sodipodi:type="inkscape:persp3d" /><inkscape:perspective
       id="perspective2960"
       inkscape:persp3d-origin="0.5 : 0.33333333 : 1"
       inkscape:vp_z="1 : 0.5 : 1"
       inkscape:vp_y="0 : 1000 : 0"
       inkscape:vp_x="0 : 0.5 : 1"
       sodipodi:type="inkscape:persp3d" /><inkscape:perspective
       id="perspective3693"
       inkscape:persp3d-origin="0.5 : 0.33333333 : 1"
       inkscape:vp_z="1 : 0.5 : 1"
       inkscape:vp_y="0 : 1000 : 0"
       inkscape:vp_x="0 : 0.5 : 1"
       sodipodi:type="inkscape:persp3d" /></defs><sodipodi:namedview
     pagecolor="#ffffff"
     bordercolor="#666666"
     borderopacity="1"
     objecttolerance="10"
     gridtolerance="10"
     guidetolerance="10"
     inkscape:pageopacity="0"
     inkscape:pageshadow="2"
     inkscape:window-width="1280"
     inkscape:window-height="949"
     id="namedview4"
     showgrid="false"
     inkscape:zoom="0.5"
     inkscape:cx="421.76335"
     inkscape:cy="154.4069"
     inkscape:window-x="0"
     inkscape:window-y="24"
     inkscape:window-maximized="1"
     inkscape:current-layer="g12"
     inkscape:snap-global="false" /><g
     id="g12"
     inkscape:groupmode="layer"
     inkscape:label="ink_ext_XXXXXX"
     transform="matrix(1.25,0,0,-1.25,-11.693862,669.43652)"><path
       d="m 229.45624,483.31992 c 0,-28.8433 -23.38369,-52.22814 -52.2293,-52.22814 -28.84561,0 -52.22929,23.38484 -52.22929,52.22814 0,28.84561 23.38368,52.2293 52.22929,52.2293 28.84561,0 52.2293,-23.38369 52.2293,-52.2293"
       style="fill:#000000;fill-opacity:1;fill-rule:nonzero;stroke:none"
       id="path24-0" /><path
       d="m 344.29582,483.31992 c 0,-28.8433 -23.38369,-52.22814 -52.2293,-52.22814 -28.84561,0 -52.2293,23.38484 -52.2293,52.22814 0,28.84561 23.38369,52.2293 52.2293,52.2293 28.84561,0 52.2293,-23.38369 52.2293,-52.2293"
       style="fill:#000000;fill-opacity:1;fill-rule:nonzero;stroke:none"
       id="path24-7" /><path
       sodipodi:nodetypes="ccscccccccccccccscssssscssccsscscccsssssssssccsssccsc"
       style="color:#000000;fill:#ffffff;fill-opacity:1;fill-rule:nonzero;stroke:none;marker:none;visibility:visible;display:inline;overflow:visible;enable-background:accumulate"
       id="path2463"
       d="m 174.0081,447.42018 c -1.3066,1.53149 -1.7212,4.6311 -4.37069,4.23486 -3.84478,-0.33278 -6.85517,2.4459 -10.13843,3.94296 -2.2168,1.03963 -4.80971,0.002 -6.99655,1.26018 -4.80326,2.29525 -7.04253,8.04803 -6.41937,12.97757 0.54331,3.95295 2.95866,7.46821 5.97781,10.01538 2.61734,1.72717 5.91431,2.0746 8.74759,3.3907 2.20493,0.66875 3.76181,2.27888 5.48577,3.65256 2.89816,1.80528 6.99149,2.3529 9.92295,0.14437 2.5505,-1.70392 5.33735,-3.08326 7.79579,-4.90209 1.9202,-2.02384 1.45109,-4.98319 1.99602,-7.47371 0.2285,-4.89166 2.35104,-9.44899 3.20882,-14.23318 0.69979,-2.86193 -0.46784,-5.64185 -2.08775,-7.93 -1.85359,-2.69021 -3.83843,-6.11977 -7.54401,-6.41132 -1.84714,0.0902 -4.16431,-0.0982 -5.57795,1.33172 z m 21.34837,23.59588 c -1.1682,2.13608 -2.02978,5.14213 -0.33451,7.25432 2.73718,3.41119 6.12484,6.27228 9.62012,8.90807 1.59363,1.42778 3.36853,1.21723 5.70701,0.11131 2.46697,-1.1668 3.304,-4.04817 2.80402,-6.50822 -0.72734,-3.57725 -1.99833,-7.46936 -5.70506,-9.00193 -3.2178,-1.35081 -6.81829,-2.97099 -10.39308,-2.06757 -0.70521,0.17825 -1.35511,0.67658 -1.69804,1.30385 z m -44.48524,17.8514 c -2.32397,1.34891 -4.16915,3.56208 -4.56462,6.24754 -0.50217,3.40928 0.11523,7.07087 2.43113,9.69926 2.06274,2.3417 4.6674,5.18881 8.18573,4.81231 3.06536,-0.0936 2.87949,-2.90466 2.89943,-5.06473 0.27943,-2.43855 1.3929,-4.69105 1.91409,-7.06803 0.0887,-0.41027 0.0968,-0.81744 0,-1.10415 -0.7278,-2.65379 -2.64627,-4.90791 -4.6772,-6.74106 -1.37988,-1.63838 -3.52766,-2.10735 -5.63569,-1.06425 l -0.57246,0.28325 0,0 z m 36.69994,-1.62127 c -2.13223,1.12862 -5.17119,3.03173 -4.14069,5.76767 0.96494,2.56157 2.41373,4.91363 3.34053,7.51241 1.13075,3.17007 3.25076,7.63973 4.64113,8.98551 2.22959,2.15809 5.91938,2.10508 8.93104,1.76128 3.67758,-0.41999 5.51412,-4.31685 6.41038,-7.48848 0.6605,-2.33795 0.94247,-4.91569 -0.41483,-6.99287 -1.74436,-2.66574 -4.18736,-4.87205 -6.66031,-6.8825 -2.28168,-1.85504 -5.16025,-3.11426 -8.11798,-3.57351 -1.39348,-0.20239 -2.75677,0.2591 -3.9872,0.91049 z m -16.56033,8.09482 c -3.78002,3.54244 -5.38218,9.02361 -4.66406,13.96009 0.67075,2.81468 2.33583,5.26054 4.21823,7.40936 1.62325,1.85275 3.63517,3.76176 6.41176,3.83055 2.92858,0.0728 6.33272,-0.14649 8.44028,-2.21804 1.82041,-1.78919 3.08184,-5.02378 1.79345,-7.48616 -2.418,-3.85697 -4.64966,-7.83439 -6.43377,-12.02639 -0.95192,-1.80756 -1.59502,-4.44973 -4.05024,-4.717 -1.93736,-0.20535 -4.06405,0.14564 -5.71565,1.24759 z" /><g
       id="g4293"
       transform="matrix(1.8584382,0,0,1.8584382,-1831.2194,-418.49443)"><path
         style="fill:#ffffff;fill-opacity:1;fill-rule:nonzero;stroke:#ffffff;stroke-width:0.80022526;stroke-linecap:round;stroke-linejoin:miter;stroke-miterlimit:4;stroke-opacity:1;stroke-dasharray:none;stroke-dashoffset:0;marker:none;visibility:visible;display:inline;overflow:visible"
         id="path6937"
         d="m 1139.6396,485.35077 3.2527,-3.04227 c 5.75,5.65318 14.2265,19.19263 14.2265,19.19263 0.3436,0.98011 -0.8698,1.59762 -1.4771,0.93693 0,0 -10.9521,-11.28402 -16.0021,-17.08729 z" /><path
         style="fill:#ffffff;fill-opacity:1;fill-rule:nonzero;stroke:#ffffff;stroke-width:0.80022526;stroke-linecap:round;stroke-linejoin:miter;stroke-miterlimit:4;stroke-opacity:1;stroke-dasharray:none;stroke-dashoffset:0;marker:none;visibility:visible;display:inline;overflow:visible"
         id="path6935"
         d="m 1133.5585,477.16443 1.7971,-1.54792 6.7942,5.89694 0.22,0.56498 0.8756,0.0143 c -0.35,1.2507 -2.3532,3.50874 -3.8532,3.50874 l 0.066,-0.87255 -0.536,-0.3042 -5.3633,-7.26025 z" /><path
         style="fill:#ffffff;fill-opacity:1;fill-rule:nonzero;stroke:#ffffff;stroke-width:0.16;stroke-opacity:1;marker:none;visibility:visible;display:inline;overflow:visible"
         id="path6933"
         d="m 1125.3245,470.83285 c 5.2842,0 9.2945,-0.62963 10.0537,3.21707 0.6119,3.09991 -3.6482,4.58527 -5.7593,1.81787 -2.0336,-2.66589 -4.2944,-5.03494 -4.2944,-5.03494 z" /></g><path
       d="m 113.81369,483.31992 c 0,-28.8433 -23.38369,-52.22814 -52.2293,-52.22814 -28.84561,0 -52.2293,23.38484 -52.2293,52.22814 0,28.84561 23.38369,52.2293 52.2293,52.2293 28.84561,0 52.2293,-23.38369 52.2293,-52.2293"
       style="fill:#000000;fill-opacity:1;fill-rule:nonzero;stroke:none"
       id="path24" /><path
       d="m 75.85566,508.04259 c 3.33592,-1.92665 7.59829,-0.78587 9.52264,2.55005 1.92665,3.33476 0.78472,7.59829 -2.55005,9.52494 -3.33592,1.92319 -7.59829,0.78011 -9.52494,-2.55466 -1.92434,-3.33361 -0.78126,-7.59598 2.55235,-9.52033 M 61.58439,462.95181 c -3.06513,0 -5.97239,0.68216 -8.5789,1.89554 l -4.84544,-8.68261 c 4.04689,-2.00616 8.60425,-3.13772 13.42434,-3.13772 2.8047,0 5.51607,0.38948 8.09378,1.10276 0.454,2.8024 2.11793,5.38125 4.76823,6.91382 2.64914,1.52795 5.70966,1.6789 8.36111,0.67755 5.15656,5.07014 8.51206,11.96667 9.00064,19.64792 l -9.93862,0.14635 C 80.95576,471.10781 72.22591,462.95181 61.58439,462.95181 m 0,40.73853 c 10.64152,0 19.37137,-8.15831 20.28745,-18.5636 l 9.93631,0.14634 c -0.48858,7.68125 -3.84408,14.57779 -9.00064,19.64792 -2.65145,-1.00135 -5.71427,-0.84809 -8.36111,0.67756 -2.6503,1.53025 -4.31423,4.11141 -4.76823,6.91381 -2.57771,0.71098 -5.28908,1.10045 -8.09378,1.10045 -4.82009,0 -9.37745,-1.13156 -13.42434,-3.13541 l 4.84544,-8.68261 c 2.60651,1.21338 5.51377,1.89554 8.5789,1.89554 M 41.21628,483.31992 c 0,6.89078 3.42349,12.97955 8.66071,16.66577 l -5.09779,8.53856 c -6.10145,-4.078 -10.64037,-10.30965 -12.52669,-17.60834 2.2009,-1.79644 3.61016,-4.53086 3.61016,-7.59599 0,-3.06282 -1.40926,-5.79723 -3.61016,-7.59367 1.88401,-7.301 6.42294,-13.53265 12.52669,-17.61066 l 5.09779,8.54088 c -5.23722,3.68391 -8.66071,9.77153 -8.66071,16.66345 m 34.64169,-24.71805 c -3.33592,-1.92665 -4.479,-6.18902 -2.55235,-9.52264 1.92434,-3.33476 6.18671,-4.479 9.52263,-2.55235 3.33477,1.92435 4.479,6.18672 2.55235,9.52263 -1.92434,3.33247 -6.18902,4.4767 -9.52263,2.55236 M 26.0704,490.29482 c -3.8533,0 -6.97489,-3.12159 -6.97489,-6.9749 0,-3.85099 3.12159,-6.97258 6.97489,-6.97258 3.851,0 6.97259,3.12159 6.97259,6.97258 0,3.85331 -3.12159,6.9749 -6.97259,6.9749"
       style="fill:#ffffff;fill-opacity:1;fill-rule:nonzero;stroke:none"
       id="path26" /><path
       d="m 460.97539,483.31992 c 0,-28.8433 -23.38369,-52.22814 -52.2293,-52.22814 -28.84561,0 -52.2293,23.38484 -52.2293,52.22814 0,28.84561 23.38369,52.2293 52.2293,52.2293 28.84561,0 52.2293,-23.38369 52.2293,-52.2293"
       style="fill:#000000;fill-opacity:1;fill-rule:nonzero;stroke:none"
       id="path24-7-4" /><path
       d="m 578.3068,483.31992 c 0,-28.8433 -23.38369,-52.22814 -52.2293,-52.22814 -28.84561,0 -52.2293,23.38484 -52.2293,52.22814 0,28.84561 23.38369,52.2293 52.2293,52.2293 28.84561,0 52.2293,-23.38369 52.2293,-52.2293"
       style="fill:#000000;fill-opacity:1;fill-rule:nonzero;stroke:none"
       id="path24-7-0" /><g
       transform="matrix(-0.17140867,0,0,-0.17140867,559.44498,509.61944)"
       id="g3626"><path
         style="fill:#ffffff;fill-opacity:1;fill-rule:evenodd;stroke:#ffffff;stroke-opacity:1"
         id="path2906"
         d="m 56.444021,259.05913 c 41.662497,-21.89782 66.849139,-43.86011 83.390749,-64.74604 -19.09202,-12.65219 -13.58532,-11.80877 3.4084,-5.95629 7.99555,2.75359 21.61448,2.44617 35.96561,-23.8189 11.01724,-20.16347 21.09654,-28.92049 21.09654,-28.92049 -13.14462,1.94788 -36.28971,-1.38431 3.16796,-7.05422 16.28272,-21.5268 36.86603,-40.403479 56.19714,-60.051792 -38.09641,17.1382 -24.9054,-0.136669 6.91391,-6.383412 C 286.89204,32.155733 325.55498,15.057504 368.20248,0.75396991 338.49226,2.8710323 305.86087,2.8511996 293.56464,17.706899 l -0.0469,-6.939278 c -28.64821,8.222617 -96.03792,35.461055 -97.72268,40.941626 -1.29424,4.210187 -5.71003,13.668611 -7.80077,22.542725 -0.93779,-5.307674 -0.98005,-11.197166 -0.0641,-17.709174 -19.832,9.864699 -56.08294,39.043084 -57.47433,45.729032 -0.80487,3.86755 -2.20838,33.1672 0.3672,46.07936 -7.34442,-10.53657 -8.78657,-24.01483 -10.49934,-37.35823 -6.83017,7.45441 -35.531277,20.21317 -28.073627,76.57876 -6.259423,-6.45907 -5.445595,-17.18538 -7.480516,-26.19305 -18.419646,25.2887 -34.139489,62.37269 -32.114434,98.62068" /><g
         style="fill:#ffffff;fill-opacity:1;stroke:#ffffff;stroke-opacity:1"
         id="g2891"
         mask="url(#mask2918)"
         transform="matrix(0.803721,-0.0287367,0.0287367,0.803721,-0.05654158,1.1455322)" /><path
         style="fill:#ffffff;fill-opacity:1;stroke:#ffffff;stroke-width:1.50793982;stroke-linecap:butt;stroke-linejoin:round;stroke-miterlimit:4;stroke-opacity:1;stroke-dasharray:none"
         id="path2768"
         d="m 56.444021,259.05913 c 41.662497,-21.89782 66.849139,-43.86011 83.390749,-64.74604 -19.09202,-12.65219 -13.58532,-11.80877 3.4084,-5.95629 7.99555,2.75359 21.61448,2.44617 35.96561,-23.8189 11.01724,-20.16347 21.09654,-28.92049 21.09654,-28.92049 -13.14462,1.94788 -36.28971,-1.38431 3.16796,-7.05422 16.28272,-21.5268 36.86603,-40.403479 56.19714,-60.051792 -38.09641,17.1382 -24.9054,-0.136669 6.91391,-6.383412 C 286.89204,32.155733 325.55498,15.057504 368.20248,0.75396991 338.49226,2.8710323 305.86087,2.8511996 293.56464,17.706899 l -0.0469,-6.939278 c -28.64821,8.222617 -96.03792,35.461055 -97.72268,40.941626 -1.29424,4.210187 -5.71003,13.668611 -7.80077,22.542725 -0.93779,-5.307674 -0.98005,-11.197166 -0.0641,-17.709174 -19.832,9.864699 -56.08294,39.043084 -57.47433,45.729032 -0.80487,3.86755 -2.20838,33.1672 0.3672,46.07936 -7.34442,-10.53657 -8.78657,-24.01483 -10.49934,-37.35823 -6.83017,7.45441 -35.531277,20.21317 -28.073627,76.57876 -6.259423,-6.45907 -5.445595,-17.18538 -7.480516,-26.19305 -18.419646,25.2887 -34.139489,62.37269 -32.114434,98.62068" /><g
         style="fill:#ffffff;fill-opacity:1;stroke:#ffffff;stroke-opacity:1"
         id="g2764"
         transform="matrix(0.803721,-0.0287367,0.0287367,0.803721,-0.05654158,1.1455322)"><path
           style="fill:#ffffff;fill-opacity:1;fill-rule:evenodd;stroke:#ffffff;stroke-width:1.875;stroke-linecap:round;stroke-linejoin:round;stroke-miterlimit:4;stroke-opacity:1;stroke-dasharray:none"
           id="path1873"
           d="M 281.5,87.25 C 163.1173,181.45514 64.982893,280.99684 11.6875,391.75 l 3.3125,0 c 0,0 6.5,-9.5 11.25,-13.5 4.75,-4 19.25,-13.75 19.25,-13.75 0,0 12.482756,-37.87794 38.292154,-74.64749 C 109.60155,253.08295 145.664,218.08117 153.08862,210.30299 160.51324,202.52482 176.125,185.75 176.125,185.75" /></g></g><path
       d="m 426.58476,513.34004 c -9.41508,-1.50788 -18.85627,-4.63334 -28.26422,-6.17975 -2.56047,-1.28689 -1.55312,-5.14635 -1.71822,-7.45189 0,-9.97504 0,-16.02129 0,-25.99635 -6.5745,1.46743 -14.71039,-3.6694 -14.76635,-10.64732 -0.29615,-4.48109 4.47837,-8.19411 8.82147,-7.78374 5.8873,0.30238 11.00518,6.01375 10.37475,12.11231 0,9.97614 0,18.02055 0,27.9967 7.76431,1.12122 15.8621,4.27227 23.62625,5.39563 0,-7.69027 0,-13.00637 0,-20.69665 -6.29991,1.8176 -13.72233,-2.34905 -14.76635,-9.00993 -0.73828,-4.75433 1.63066,-8.35773 5.37154,-9.47957 7.00333,-2.29902 14.65071,4.96866 13.82468,12.21971 -0.0195,13.60085 0.06,23.27295 0,36.87374 -0.16478,1.35191 -1.03331,2.71549 -2.50355,2.64711 z"
       id="path3406"
       style="fill:#ffffff;fill-opacity:1;stroke:#ffffff;stroke-width:0.44299233;stroke-linecap:round;stroke-linejoin:round;stroke-miterlimit:4;stroke-opacity:1;stroke-dasharray:none"
       sodipodi:nodetypes="ccccccccccccccc" /><path
       d="m 696.7068,483.31992 c 0,-28.8433 -23.3837,-52.22814 -52.2293,-52.22814 -28.84565,0 -52.22934,23.38484 -52.22934,52.22814 0,28.84561 23.38369,52.2293 52.22934,52.2293 28.8456,0 52.2293,-23.38369 52.2293,-52.2293"
       style="fill:#000000;fill-opacity:1;fill-rule:nonzero;stroke:none"
       id="path24-7-0-5" /><g
       transform="matrix(1.3568812,0,0,-1.3568812,612.66242,517.85748)"
       id="g2904"
       style="fill:#ffffff;fill-opacity:1;stroke:#ffffff;stroke-opacity:1"><path
         transform="matrix(1.1094891,0,0,0.5479452,-1.7189781,16.635274)"
         d="m 19.125,46.0625 c 0,2.519799 -3.833562,4.5625 -8.5625,4.5625 C 5.8335618,50.625 2,48.582299 2,46.0625 2,43.542701 5.8335618,41.5 10.5625,41.5 c 4.728938,0 8.5625,2.042701 8.5625,4.5625 z"
         sodipodi:ry="4.5625"
         sodipodi:rx="8.5625"
         sodipodi:cy="46.0625"
         sodipodi:cx="10.5625"
         id="path3305"
         style="opacity:0.1;fill:#ffffff;fill-opacity:1;stroke:#ffffff;stroke-width:1;stroke-linecap:round;stroke-linejoin:round;stroke-miterlimit:4;stroke-opacity:1;stroke-dasharray:none;stroke-dashoffset:0"
         sodipodi:type="arc" /><path
         id="path2193"
         d="M 23.03125,4.5 C 17.164481,4.5769393 9.304703,6.5845978 9.4375,13.03125 9.5791607,19.90817 17.932526,17.194685 18.25,20.25 18.763103,25.188007 8.0762698,40.211023 24.3125,43.15625 35.151762,45.122476 46.655802,38.37184 45.5,24.75 44.460562,12.499581 34.3249,4.8118411 24.1875,4.5 23.81714,4.488607 23.422368,4.49487 23.03125,4.5 z M 20.5,8.5 c 2.76,0 5,1.568 5,3.5 1e-6,1.932 -2.24,3.5 -5,3.5 -2.76,0 -5,-1.568 -5,-3.5 0,-1.932 2.24,-3.5 5,-3.5 z"
         style="fill:#ffffff;fill-opacity:1;fill-rule:evenodd;stroke:#ffffff;stroke-width:0.99999988;stroke-linecap:butt;stroke-linejoin:miter;stroke-miterlimit:4;stroke-opacity:1;stroke-dasharray:none" /><path
         transform="translate(0.4375,-0.875)"
         d="m 35.5,8.3125 a 0.49390987,0.49390987 0 0 0 -0.21875,0.125 c -8.961187,7.001454 -13.581446,12.321817 -16.15625,15.75 -0.0075,0.01 -0.02377,0.02128 -0.03125,0.03125 -1.705965,2.113116 -3.611027,5.285031 -5.15625,8.21875 a 0.49390987,0.49390987 0 0 0 -0.0625,0.15625 c -0.218608,1.997666 -0.07655,4.013442 0.78125,5.78125 a 0.49390987,0.49390987 0 0 0 0.6875,0.21875 C 19.360055,36.282684 24.501651,31.405797 25.875,29.8125 28.811442,26.456567 33.524032,20.521343 38.46875,11.125 A 0.49390987,0.49390987 0 0 0 38.375,10.5625 C 37.596274,9.7997303 36.756404,9.0504646 35.875,8.40625 A 0.49390987,0.49390987 0 0 0 35.5,8.3125 z"
         id="path3260"
         style="opacity:0.16475094;fill:#ffffff;fill-opacity:1;fill-rule:evenodd;stroke:#ffffff;stroke-width:1px;stroke-linecap:butt;stroke-linejoin:round;stroke-opacity:1"
         inkscape:original="M 35.59375 8.8125 C 26.637129 15.810387 22.047254 21.103661 19.5 24.5 C 17.827475 26.564266 15.917493 29.727714 14.375 32.65625 C 14.162554 34.597604 14.291968 36.50388 15.09375 38.15625 C 19.00526 35.905485 24.206667 31.000466 25.5 29.5 C 28.41897 26.164035 33.106845 20.263993 38.03125 10.90625 C 37.265184 10.155881 36.450537 9.4387222 35.59375 8.8125 z "
         inkscape:radius="0.49386048"
         sodipodi:type="inkscape:offset" /><path
         sodipodi:nodetypes="cccc"
         id="path3096"
         d="M 24.377603,26.216886 C 28.122394,22.659661 34.668929,15.824043 42.5,4.9999999 42.815076,4.651051 42.290608,4.3510868 42,4.5 30.168297,12.786013 24.217866,18.976254 20.842673,22.51528"
         style="fill:#ffffff;fill-opacity:1;fill-rule:evenodd;stroke:#ffffff;stroke-width:0.99999994px;stroke-linecap:butt;stroke-linejoin:round;stroke-opacity:1" /><path
         sodipodi:nodetypes="ccccc"
         id="path3098"
         d="m 20.842673,22.51528 c 1.481476,0.593851 2.797936,1.536069 3.53493,3.701606 -1.500396,1.439227 -7.463448,6.424706 -11.18179,8.495374 l -1.092052,-1.514265 c 2.112915,-3.07026 5.97347,-7.921974 8.738912,-10.682715 z"
         style="fill:#ffffff;fill-opacity:1;fill-rule:evenodd;stroke:#ffffff;stroke-width:0.99999994px;stroke-linecap:butt;stroke-linejoin:miter;stroke-opacity:1" /><path
         sodipodi:nodetypes="csssc"
         id="path3100"
         d="m 2.5,39.533975 c 4.693467,0.0018 4.221149,-4.892079 6.5,-6.392279 2.640769,-1.738454 4.954982,0.415683 5.41701,2.188487 C 15,37.56712 14,40.025689 11,41.009116 7.636352,42.111751 2.889473,41.484545 2.5,39.533975 z"
         style="fill:#ffffff;fill-opacity:1;fill-rule:evenodd;stroke:#ffffff;stroke-width:0.99999988;stroke-linecap:butt;stroke-linejoin:miter;stroke-miterlimit:4;stroke-opacity:1" /><path
         sodipodi:nodetypes="cc"
         id="path3212"
         d="M 41.510654,5.5 38.5,8.5088128"
         style="fill:#ffffff;fill-opacity:1;fill-rule:evenodd;stroke:#ffffff;stroke-width:0.99999994px;stroke-linecap:round;stroke-linejoin:miter;stroke-opacity:1" /></g></g></svg>