<?xml version="1.0" encoding="UTF-8" standalone="no"?>
<!-- Created with Inkscape (http://www.inkscape.org/) -->

<svg
   xmlns:dc="http://purl.org/dc/elements/1.1/"
   xmlns:cc="http://creativecommons.org/ns#"
   xmlns:rdf="http://www.w3.org/1999/02/22-rdf-syntax-ns#"
   xmlns:svg="http://www.w3.org/2000/svg"
   xmlns="http://www.w3.org/2000/svg"
   xmlns:sodipodi="http://sodipodi.sourceforge.net/DTD/sodipodi-0.dtd"
   xmlns:inkscape="http://www.inkscape.org/namespaces/inkscape"
   id="svg2"
   version="1.1"
   inkscape:version="0.47 r22583"
   width="1488.1875"
   height="1052.3625"
   xml:space="preserve"
   sodipodi:docname="ubuntu_black_hex.svg"><metadata
     id="metadata8"><rdf:RDF><cc:Work
         rdf:about=""><dc:format>image/svg+xml</dc:format><dc:type
           rdf:resource="http://purl.org/dc/dcmitype/StillImage" /><dc:title></dc:title></cc:Work></rdf:RDF></metadata><defs
     id="defs6"><clipPath
       clipPathUnits="userSpaceOnUse"
       id="clipPath20"><path
         d="m 0,8418.9 11905.5,0 L 11905.5,0 0,0 0,8418.9 z"
         id="path22" /></clipPath><inkscape:perspective
       id="perspective3638"
       inkscape:persp3d-origin="0.5 : 0.33333333 : 1"
       inkscape:vp_z="1 : 0.5 : 1"
       inkscape:vp_y="0 : 1000 : 0"
       inkscape:vp_x="0 : 0.5 : 1"
       sodipodi:type="inkscape:persp3d" /><inkscape:perspective
       id="perspective3641"
       inkscape:persp3d-origin="0.5 : 0.33333333 : 1"
       inkscape:vp_z="1 : 0.5 : 1"
       inkscape:vp_y="0 : 1000 : 0"
       inkscape:vp_x="0 : 0.5 : 1"
       sodipodi:type="inkscape:persp3d" /><mask
       id="mask2918"><path
         d="m 58.75,323 c 52.74374,-25.35972 85.01705,-51.53157 106.5,-76.75 -23.16208,-16.57016 -16.35679,-15.27745 4.5,-7.25 9.81312,3.77692 26.75,4 45.75,-28 14.58614,-24.56613 27.5,-35 27.5,-35 -16.42037,1.83647 -45.03297,-3.33251 4.25,-8.625 21.18972,-26.02629 47.60573,-48.5684 72.5,-72.125 -48.10097,19.60374 -30.94199,-1.276363 8.875,-7.625001 26.56651,-36.341988 75.36969,-55.870888 129,-71.75 -37.0127,1.310703 -77.56038,-0.163738 -93.5,17.75 l 0.25,-8.625 c -35.96429,8.944797 -120.91456,39.797852 -123.25159,46.533289 -1.79531,5.174178 -7.70271,16.731254 -10.69499,27.665553 -0.9295,-6.637109 -0.72035,-13.957413 0.70711,-22.008699 -25.08201,11.376989 -71.42469,46.024148 -73.45072,54.270448 -1.17198,4.77015 -4.21779,41.11625 -1.59099,57.27565 -8.65822,-13.41931 -9.85144,-30.2318 -11.38693,-46.88872 -8.81853,8.95956 -45.05008,23.53873 -38.28732,93.91132 -7.49114,-8.30429 -6.00329,-21.59691 -8.13173,-32.88047 C 74.27558,233.48435 53.0941,278.86739 54,324"
         id="path2901-7"
         style="fill:#ffffff;fill-opacity:1;fill-rule:evenodd;stroke:#ffffff;stroke-width:0.625;stroke-linecap:butt;stroke-linejoin:round;stroke-miterlimit:4;stroke-opacity:1;stroke-dasharray:none" /></mask></defs><sodipodi:namedview
     pagecolor="#ffffff"
     bordercolor="#666666"
     borderopacity="1"
     objecttolerance="10"
     gridtolerance="10"
     guidetolerance="10"
     inkscape:pageopacity="0"
     inkscape:pageshadow="2"
     inkscape:window-width="1280"
     inkscape:window-height="949"
     id="namedview4"
     showgrid="false"
     inkscape:zoom="0.5"
     inkscape:cx="916.62898"
     inkscape:cy="528.06392"
     inkscape:window-x="0"
     inkscape:window-y="24"
     inkscape:window-maximized="1"
     inkscape:current-layer="g12"
     inkscape:snap-global="false" /><g
     id="g12"
     inkscape:groupmode="layer"
     inkscape:label="ink_ext_XXXXXX"
     transform="matrix(1.25,0,0,-1.25,0,1052.3625)"><g
       id="g14"
       transform="scale(0.1,0.1)"><g
         id="g16"><g
           id="g18"
           clip-path="url(#clipPath20)"><path
             d="m 9737.77,4833.2 c 0,-250.31 -202.93,-453.25 -453.26,-453.25 -250.33,0 -453.26,202.94 -453.26,453.25 0,250.33 202.93,453.26 453.26,453.26 250.33,0 453.26,-202.93 453.26,-453.26"
             style="fill:#000000;fill-opacity:1;fill-rule:nonzero;stroke:none"
             id="path24" /><path
             d="m 9408.36,5047.75 c 28.95,-16.72 65.94,-6.82 82.64,22.13 16.72,28.94 6.81,65.94 -22.13,82.66 -28.95,16.69 -65.94,6.77 -82.66,-22.17 -16.7,-28.93 -6.78,-65.92 22.15,-82.62 m -123.85,-391.31 c -26.6,0 -51.83,5.92 -74.45,16.45 l -42.05,-75.35 c 35.12,-17.41 74.67,-27.23 116.5,-27.23 24.34,0 47.87,3.38 70.24,9.57 3.94,24.32 18.38,46.7 41.38,60 22.99,13.26 49.55,14.57 72.56,5.88 44.75,44 73.87,103.85 78.11,170.51 l -86.25,1.27 c -7.93,-90.32 -83.69,-161.1 -176.04,-161.1 m 0,353.54 c 92.35,0 168.11,-70.8 176.06,-161.1 l 86.23,1.27 c -4.24,66.66 -33.36,126.51 -78.11,170.51 -23.01,-8.69 -49.59,-7.36 -72.56,5.88 -23,13.28 -37.44,35.68 -41.38,60 -22.37,6.17 -45.9,9.55 -70.24,9.55 -41.83,0 -81.38,-9.82 -116.5,-27.21 l 42.05,-75.35 c 22.62,10.53 47.85,16.45 74.45,16.45 M 9107.75,4833.2 c 0,59.8 29.71,112.64 75.16,144.63 l -44.24,74.1 c -52.95,-35.39 -92.34,-89.47 -108.71,-152.81 19.1,-15.59 31.33,-39.32 31.33,-65.92 0,-26.58 -12.23,-50.31 -31.33,-65.9 16.35,-63.36 55.74,-117.44 108.71,-152.83 l 44.24,74.12 c -45.45,31.97 -75.16,84.8 -75.16,144.61 m 300.63,-214.51 c -28.95,-16.72 -38.87,-53.71 -22.15,-82.64 16.7,-28.94 53.69,-38.87 82.64,-22.15 28.94,16.7 38.87,53.69 22.15,82.64 -16.7,28.92 -53.71,38.85 -82.64,22.15 m -432.07,275.04 c -33.44,0 -60.53,-27.09 -60.53,-60.53 0,-33.42 27.09,-60.51 60.53,-60.51 33.42,0 60.51,27.09 60.51,60.51 0,33.44 -27.09,60.53 -60.51,60.53"
             style="fill:#ffffff;fill-opacity:1;fill-rule:nonzero;stroke:none"
             id="path26" /><path
             d="m 3070.76,3643.89 c -46.06,-11.53 -106.84,-23.75 -182.38,-36.69 -75.54,-12.96 -162.96,-19.42 -262.24,-19.42 -86.34,0 -159.01,12.6 -218,37.75 -59.02,25.16 -106.5,60.79 -142.45,106.85 -35.98,46.03 -61.88,100.37 -77.7,162.96 -15.85,62.59 -23.74,131.99 -23.74,208.28 l 0,630.23 200.72,0 0,-587.06 c 0,-136.72 21.59,-234.56 64.76,-293.53 43.16,-59.03 115.81,-88.51 217.99,-88.51 21.58,0 43.87,0.72 66.91,2.18 23,1.4 44.58,3.23 64.75,5.39 20.13,2.16 38.48,4.3 55.04,6.46 16.53,2.16 28.4,4.65 35.61,7.55 l 0,947.52 200.73,0"
             style="fill:#000000;fill-opacity:1;fill-rule:nonzero;stroke:none"
             id="path28" /><path
             d="m 3560.68,3786.33 c 20.13,-5.76 48.56,-11.15 85.26,-16.17 36.69,-5.06 82.35,-7.57 137.05,-7.57 107.92,0 194.25,35.62 259,106.84 64.75,71.24 97.13,172.31 97.13,303.27 0,57.51 -5.77,111.48 -17.27,161.87 -11.53,50.35 -30.21,93.87 -56.11,130.56 -25.9,36.7 -59.36,65.47 -100.37,86.35 -41.01,20.84 -90.31,31.29 -147.84,31.29 -54.71,0 -105.06,-9.37 -151.09,-28.06 -46.07,-18.72 -81.31,-38.15 -105.76,-58.27 l 0,-710.11 z m 0,897.89 c 24.45,15.81 61.51,32.37 111.15,49.62 49.65,17.28 106.84,25.9 171.59,25.9 80.57,0 152.17,-14.38 214.76,-43.15 62.59,-28.8 115.47,-69.07 158.64,-120.88 43.17,-51.8 75.88,-113.68 98.21,-185.62 22.29,-71.96 33.45,-151.07 33.45,-237.39 0,-90.67 -13.32,-172.36 -39.93,-245 -26.64,-72.66 -64.41,-134.17 -113.31,-184.52 -48.94,-50.39 -107.92,-89.23 -176.99,-116.57 -69.06,-27.31 -146.77,-40.99 -233.1,-40.99 -93.55,0 -176.28,6.46 -248.22,19.42 -71.96,12.95 -130.95,25.89 -176.98,38.85 l 0,1607.98 200.73,34.52"
             style="fill:#000000;fill-opacity:1;fill-rule:nonzero;stroke:none"
             id="path30" /><path
             d="m 5468.64,3643.89 c -46.07,-11.53 -106.84,-23.75 -182.38,-36.69 -75.55,-12.96 -162.96,-19.42 -262.24,-19.42 -86.34,0 -159.01,12.6 -218,37.75 -59.02,25.16 -106.51,60.79 -142.45,106.85 -35.99,46.03 -61.88,100.37 -77.69,162.96 -15.86,62.59 -23.76,131.99 -23.76,208.28 l 0,630.23 200.73,0 0,-587.06 c 0,-136.72 21.59,-234.56 64.75,-293.53 43.17,-59.03 115.82,-88.51 218,-88.51 21.58,0 43.87,0.72 66.91,2.18 23,1.4 44.58,3.23 64.75,5.39 20.13,2.16 38.48,4.3 55.04,6.46 16.52,2.16 28.4,4.65 35.61,7.55 l 0,947.52 200.73,0"
             style="fill:#000000;fill-opacity:1;fill-rule:nonzero;stroke:none"
             id="path32" /><path
             d="m 5757.83,4701.47 c 46.04,11.51 107.17,23.75 183.47,36.71 76.25,12.94 164.02,19.41 263.3,19.41 89.22,0 163.3,-12.6 222.32,-37.76 58.99,-25.2 106.1,-60.43 141.37,-105.76 35.23,-45.33 60.06,-99.67 74.47,-162.96 14.36,-63.33 21.58,-133.12 21.58,-209.37 l 0,-630.23 -200.74,0 0,587.08 c 0,69.05 -4.69,128.04 -14.02,176.97 -9.38,48.9 -24.81,88.49 -46.41,118.7 -21.58,30.24 -50.37,52.16 -86.33,65.84 -35.99,13.67 -80.6,20.51 -133.8,20.51 -21.61,0 -43.93,-0.74 -66.92,-2.16 -23.04,-1.44 -44.99,-3.25 -65.83,-5.41 -20.89,-2.15 -39.6,-4.69 -56.11,-7.55 -16.56,-2.9 -28.44,-5.06 -35.62,-6.46 l 0,-947.52 -200.73,0"
             style="fill:#000000;fill-opacity:1;fill-rule:nonzero;stroke:none"
             id="path34" /><path
             d="m 7128.37,4733.84 425.2,0 0,-168.35 -425.2,0 0,-517.99 c 0,-56.12 4.3,-102.53 12.95,-139.21 8.63,-36.71 21.58,-65.49 38.85,-86.34 17.26,-20.88 38.84,-35.62 64.74,-44.25 25.9,-8.63 56.12,-12.96 90.65,-12.96 61.85,0 110.8,6.82 146.77,20.51 35.94,13.66 60.43,23.37 73.38,29.13 l 43.17,-164.03 c -20.16,-10.08 -55.78,-23.04 -106.84,-38.84 -51.09,-15.82 -108.98,-23.74 -173.75,-23.74 -76.27,0 -139.2,9.7 -188.85,29.13 -49.64,19.44 -89.57,48.57 -119.78,87.41 -30.22,38.86 -51.47,86.68 -63.67,143.55 -12.25,56.81 -18.36,122.64 -18.36,197.48 l 0,1001.47 200.74,34.53"
             style="fill:#000000;fill-opacity:1;fill-rule:nonzero;stroke:none"
             id="path36" /><path
             d="m 8645.68,3643.89 c -46.07,-11.53 -106.87,-23.75 -182.39,-36.69 -75.55,-12.96 -162.95,-19.42 -262.25,-19.42 -86.33,0 -159,12.6 -217.99,37.75 -59.01,25.16 -106.5,60.79 -142.46,106.85 -35.97,46.03 -61.87,100.37 -77.69,162.96 -15.86,62.59 -23.75,131.99 -23.75,208.28 l 0,630.23 200.74,0 0,-587.06 c 0,-136.72 21.58,-234.56 64.74,-293.53 43.17,-59.03 115.82,-88.51 217.99,-88.51 21.59,0 43.87,0.72 66.92,2.18 23,1.4 44.59,3.23 64.75,5.39 20.14,2.16 38.48,4.3 55.03,6.46 16.54,2.16 28.4,4.65 35.61,7.55 l 0,947.52 200.75,0"
             style="fill:#000000;fill-opacity:1;fill-rule:nonzero;stroke:none"
             id="path38" /></g></g></g><g
       transform="matrix(-4.9758284,0,0,-5.1619468,2040.9584,2167.2563)"
       style="font-size:40px;font-style:normal;font-variant:normal;font-weight:normal;font-stretch:normal;fill:#000000;fill-opacity:1;stroke:none;font-family:newPushkin;-inkscape-font-specification:newPushkin"
       id="text2824"><path
         d="m 230.10571,338.99933 c -4e-5,1.49336 -1.33337,2.96003 -4,4.4 -2.45337,1.33336 -6.21337,2.00002 -11.28,2 -2.45336,2e-5 -5.16002,-0.33331 -8.12,-1 -2.96002,-0.66664 -5.37335,-0.99998 -7.24,-1 -7.01334,2e-5 -11.30667,2.10669 -12.88,6.32 l -0.64,2.16 c -0.26666,0.85335 -0.56,1.28001 -0.88,1.28 -0.64,10e-6 -0.96,-0.43999 -0.96,-1.32 0,-3.30665 1.52,-5.91998 4.56,-7.84 2.66666,-1.67997 5.89333,-2.51997 9.68,-2.52 2.85332,3e-5 5.98665,0.37336 9.4,1.12 3.43998,0.74669 5.90664,1.12002 7.4,1.12 3.6533,2e-5 6.23997,-0.21331 7.76,-0.64 0.74663,-0.85331 1.8133,-1.91997 3.2,-3.2 1.11996,-1.0133 1.94663,-1.51997 2.48,-1.52 0.31996,3e-5 0.65329,0.08 1,0.24 0.34662,0.13336 0.51996,0.2667 0.52,0.4 m -30,20.44 c -10e-6,0.69334 -0.42668,1.05334 -1.28,1.08 -2.29334,0.10667 -4.16001,-0.13333 -5.6,-0.72 -0.50667,-0.21333 -1.06667,-0.61332 -1.68,-1.2 l -2.64,2.68 c -2.56,2.4 -4.45333,4.05334 -5.68,4.96 -2.10666,1.54667 -3.89333,2.32 -5.36,2.32 -0.21332,0 -0.51999,-0.22667 -0.92,-0.68 -0.39999,-0.45333 -0.59999,-0.85333 -0.6,-1.2 1e-5,-0.50667 0.24001,-1.26666 0.72,-2.28 0.61334,-1.2 1.20001,-1.8 1.76,-1.8 0.53334,0 0.80001,0.18667 0.8,0.56 1e-5,0.13334 -0.21333,0.52 -0.64,1.16 -0.45332,0.64 -0.69332,1.08 -0.72,1.32 10e-6,0.37333 0.18668,0.56 0.56,0.56 1.57334,0 4.53334,-2.14666 8.88,-6.44 l 2.48,-2.36 c -0.37334,-0.21332 -0.72,-0.37332 -1.04,-0.48 -0.50667,-0.15999 -0.96,-0.23999 -1.36,-0.24 -0.58667,1e-5 -0.97333,0.36001 -1.16,1.08 -0.21333,0.69334 -0.38667,1.04001 -0.52,1.04 -0.69333,10e-6 -1.04,-0.35999 -1.04,-1.08 0,-2.05332 0.74667,-3.07999 2.24,-3.08 0.77333,1e-5 1.70667,0.20001 2.8,0.6 0.42666,0.16001 0.90666,0.46668 1.44,0.92 l 4.24,-3.92 c 2.07999,-1.91998 3.30665,-2.87998 3.68,-2.88 0.42665,2e-5 0.63999,0.12002 0.64,0.36 -10e-6,0.50668 -2.40001,3.02668 -7.2,7.56 0.69333,0.50668 1.27999,0.86668 1.76,1.08 0.69333,0.29334 1.86666,0.49334 3.52,0.6 1.30665,0.10668 1.94665,0.26667 1.92,0.48"
         id="path2883" /><path
         d="m 223.28383,364.11933 c -2e-5,0.48 -1.30669,1.18667 -3.92,2.12 -2.10668,0.74667 -3.68002,1.12 -4.72,1.12 -1.17335,0 -2.10668,-0.2 -2.8,-0.6 -0.24001,-0.10667 -0.70668,-0.48 -1.4,-1.12 -1.68001,0.85333 -2.89334,1.37333 -3.64,1.56 -1.14667,0.32 -2.76,0.48 -4.84,0.48 -0.69333,0 -1.30667,-0.22667 -1.84,-0.68 -0.50667,-0.45333 -0.76,-1.01333 -0.76,-1.68 0,-0.61333 1.06667,-1.85333 3.2,-3.72 2.08,-1.78666 3.49333,-2.75999 4.24,-2.92 0.34666,-0.08 0.51999,0.17334 0.52,0.76 -10e-6,0.24001 -0.94667,1.17334 -2.84,2.8 -1.89334,1.6 -2.84,2.62667 -2.84,3.08 0,0.48 0.49333,0.72 1.48,0.72 2.63999,0 5.30666,-0.90666 8,-2.72 0.53332,-0.34666 1.62665,-1.18666 3.28,-2.52 1.14665,-0.90666 1.86665,-1.35999 2.16,-1.36 0.39998,1e-5 0.59998,0.28001 0.6,0.84 -2e-5,0.80001 -0.36002,1.52001 -1.08,2.16 -0.26668,0.24 -0.92002,0.69334 -1.96,1.36 -0.72001,0.45334 -1.08001,0.82667 -1.08,1.12 -1e-5,0.74667 0.62665,1.12 1.88,1.12 0.58665,0 1.85332,-0.29333 3.8,-0.88 0.42665,-0.13333 1.21331,-0.42666 2.36,-0.88 0.90664,-0.37333 1.46664,-0.56 1.68,-0.56 0.34664,0 0.51998,0.13334 0.52,0.4"
         id="path2885" /><path
         d="m 238.33571,364.51933 c -2e-5,0.21334 -0.64002,0.62667 -1.92,1.24 -1.25335,0.61333 -2.49335,1.14667 -3.72,1.6 -1.65335,0.58667 -2.74668,0.94667 -3.28,1.08 -1.04001,0.26667 -2.25334,0.4 -3.64,0.4 -0.42668,0 -0.97334,-0.18667 -1.64,-0.56 -0.80001,-0.48 -1.20001,-1.02667 -1.2,-1.64 -1e-5,-0.42667 0.51999,-1.21333 1.56,-2.36 1.17332,-1.25333 1.78666,-1.93333 1.84,-2.04 -0.85334,-0.45333 -1.34668,-0.65333 -1.48,-0.6 -0.13334,0.0533 -0.64001,0.54667 -1.52,1.48 -0.85334,0.93334 -1.34667,1.4 -1.48,1.4 -0.74667,0 -1.12,-0.44 -1.12,-1.32 0,-0.32 0.69333,-1.30666 2.08,-2.96 1.41333,-1.67999 2.39999,-2.51999 2.96,-2.52 0.77332,10e-6 1.23999,0.25334 1.4,0.76 0.0267,0.48001 0.0533,0.97334 0.08,1.48 0.0533,0.48001 0.31999,0.72001 0.8,0.72 0.45332,1e-5 1.11999,-0.29333 2,-0.88 0.87999,-0.61332 1.59998,-0.91999 2.16,-0.92 0.93332,1e-5 1.39998,0.48001 1.4,1.44 -2e-5,0.45334 -0.46668,0.89334 -1.4,1.32 l -3.16,1.24 c -2.42668,1.09334 -3.64001,2.34667 -3.64,3.76 -1e-5,0.37333 0.30666,0.56 0.92,0.56 1.19999,0 3.31999,-0.48 6.36,-1.44 0.66665,-0.21333 1.66665,-0.61333 3,-1.2 1.09331,-0.50666 1.74665,-0.76 1.96,-0.76 0.29331,0 0.47998,0.04 0.56,0.12 0.08,0.08 0.11998,0.28 0.12,0.6"
         id="path2887" /><path
         d="m 253.80446,364.51933 c -2e-5,0.21334 -0.64002,0.62667 -1.92,1.24 -1.25335,0.61333 -2.49335,1.14667 -3.72,1.6 -1.65335,0.58667 -2.74668,0.94667 -3.28,1.08 -1.04001,0.26667 -2.25334,0.4 -3.64,0.4 -0.42668,0 -0.97334,-0.18667 -1.64,-0.56 -0.80001,-0.48 -1.20001,-1.02667 -1.2,-1.64 -1e-5,-0.42667 0.51999,-1.21333 1.56,-2.36 1.17332,-1.25333 1.78666,-1.93333 1.84,-2.04 -0.85334,-0.45333 -1.34668,-0.65333 -1.48,-0.6 -0.13334,0.0533 -0.64001,0.54667 -1.52,1.48 -0.85334,0.93334 -1.34667,1.4 -1.48,1.4 -0.74667,0 -1.12,-0.44 -1.12,-1.32 0,-0.32 0.69333,-1.30666 2.08,-2.96 1.41333,-1.67999 2.39999,-2.51999 2.96,-2.52 0.77332,10e-6 1.23999,0.25334 1.4,0.76 0.0267,0.48001 0.0533,0.97334 0.08,1.48 0.0533,0.48001 0.31999,0.72001 0.8,0.72 0.45332,1e-5 1.11999,-0.29333 2,-0.88 0.87999,-0.61332 1.59998,-0.91999 2.16,-0.92 0.93332,1e-5 1.39998,0.48001 1.4,1.44 -2e-5,0.45334 -0.46668,0.89334 -1.4,1.32 l -3.16,1.24 c -2.42668,1.09334 -3.64001,2.34667 -3.64,3.76 -1e-5,0.37333 0.30666,0.56 0.92,0.56 1.19999,0 3.31999,-0.48 6.36,-1.44 0.66665,-0.21333 1.66665,-0.61333 3,-1.2 1.09331,-0.50666 1.74665,-0.76 1.96,-0.76 0.29331,0 0.47998,0.04 0.56,0.12 0.08,0.08 0.11998,0.28 0.12,0.6"
         id="path2889" /><path
         d="m 271.39321,362.55933 c -2e-5,0.18667 -0.54669,0.48 -1.64,0.88 -1.76002,0.64 -2.74669,1.01334 -2.96,1.12 l -5.08,2.2 c -1.65335,0.74667 -3.81334,1.81333 -6.48,3.2 l -6.4,6.28 c -1.33333,1.30666 -4.16,3.93332 -8.48,7.88 l -5.92,5.52 c -2.42665,2.10664 -4.33332,3.15997 -5.72,3.16 -0.23998,-3e-5 -0.46665,-0.14669 -0.68,-0.44 -0.23998,-0.26669 -0.38665,-0.54669 -0.44,-0.84 -0.21331,-1.52002 1.80002,-4.25335 6.04,-8.2 1.49335,-1.38668 3.62668,-3.12001 6.4,-5.2 1.62667,-1.22668 3.53334,-2.48001 5.72,-3.76 3.38666,-1.94667 5.26666,-3.04 5.64,-3.28 l 4.12,-3.92 3.08,-2.88 c -2.00001,0.61334 -3.44001,0.92 -4.32,0.92 -0.61334,0 -1.16001,-0.13333 -1.64,-0.4 -0.61334,-0.32 -0.92,-0.76 -0.92,-1.32 0,-0.88 0.50666,-1.90666 1.52,-3.08 0.74666,-0.87999 1.65333,-1.63999 2.72,-2.28 1.06666,-0.63999 1.89332,-0.95999 2.48,-0.96 0.37332,10e-6 0.55999,0.13334 0.56,0.4 -10e-6,0.18668 -0.33334,0.49334 -1,0.92 -0.96001,0.64001 -1.58668,1.08001 -1.88,1.32 -0.53334,0.45334 -1.05334,1.05334 -1.56,1.8 -0.50667,0.74667 -0.76001,1.21334 -0.76,1.4 -10e-6,0.45334 0.35999,0.68 1.08,0.68 1.25332,0 2.83999,-0.52 4.76,-1.56 l 3.04,-1.76 c 1.30665,-0.74666 2.13332,-1.11999 2.48,-1.12 0.26665,1e-5 0.39998,0.28001 0.4,0.84 -2e-5,0.24001 -0.77335,1.05334 -2.32,2.44 -1.76001,1.6 -2.81335,2.62667 -3.16,3.08 l 6.72,-2.36 2.28,-0.8 c 0.74664,-0.29333 1.29331,-0.43999 1.64,-0.44 0.45331,1e-5 0.67998,0.18667 0.68,0.56 m -24.4,13.12 c -1.36,0.55999 -3.57333,1.93332 -6.64,4.12 -2.23999,1.59999 -4.02666,3.03998 -5.36,4.32 -1.51999,1.43998 -2.89332,2.86665 -4.12,4.28 -1.22665,1.43998 -1.83998,2.30664 -1.84,2.6 2e-5,0.34664 0.0934,0.51998 0.28,0.52 0.69335,-2e-5 2.01335,-0.86669 3.96,-2.6 l 5.96,-5.6 c 2.58667,-2.40001 4.22667,-3.94668 4.92,-4.64 1.6,-1.52001 2.54667,-2.52001 2.84,-3"
         id="path2891" /><path
         d="m 297.71071,364.51933 c -2e-5,0.21334 -0.64002,0.62667 -1.92,1.24 -1.25335,0.61333 -2.49335,1.14667 -3.72,1.6 -1.65335,0.58667 -2.74668,0.94667 -3.28,1.08 -1.04001,0.26667 -2.25334,0.4 -3.64,0.4 -0.42668,0 -0.97334,-0.18667 -1.64,-0.56 -0.80001,-0.48 -1.20001,-1.02667 -1.2,-1.64 -10e-6,-0.42667 0.51999,-1.21333 1.56,-2.36 1.17332,-1.25333 1.78666,-1.93333 1.84,-2.04 -0.85334,-0.45333 -1.34668,-0.65333 -1.48,-0.6 -0.13334,0.0533 -0.64001,0.54667 -1.52,1.48 -0.85334,0.93334 -1.34667,1.4 -1.48,1.4 -0.74667,0 -1.12,-0.44 -1.12,-1.32 0,-0.32 0.69333,-1.30666 2.08,-2.96 1.41333,-1.67999 2.39999,-2.51999 2.96,-2.52 0.77332,10e-6 1.23999,0.25334 1.4,0.76 0.0267,0.48001 0.0533,0.97334 0.08,1.48 0.0533,0.48001 0.31999,0.72001 0.8,0.72 0.45332,1e-5 1.11999,-0.29333 2,-0.88 0.87999,-0.61332 1.59998,-0.91999 2.16,-0.92 0.93332,1e-5 1.39998,0.48001 1.4,1.44 -2e-5,0.45334 -0.46668,0.89334 -1.4,1.32 l -3.16,1.24 c -2.42668,1.09334 -3.64001,2.34667 -3.64,3.76 -10e-6,0.37333 0.30666,0.56 0.92,0.56 1.19999,0 3.31999,-0.48 6.36,-1.44 0.66665,-0.21333 1.66665,-0.61333 3,-1.2 1.09331,-0.50666 1.74665,-0.76 1.96,-0.76 0.29331,0 0.47998,0.04 0.56,0.12 0.08,0.08 0.11998,0.28 0.12,0.6"
         id="path2893" /><path
         d="m 308.89946,364.67933 c -2e-5,0.34667 -1.09335,0.94667 -3.28,1.8 -2.40001,0.96 -4.40001,1.44 -6,1.44 -1.30667,0 -2.36001,-0.24 -3.16,-0.72 -0.8,-0.48 -1.2,-1.05333 -1.2,-1.72 0,-1.33333 1.10666,-2.95999 3.32,-4.88 1.19999,-1.03999 2.54666,-2.03999 4.04,-3 1.38665,-0.87999 2.23999,-1.31999 2.56,-1.32 0.85332,10e-6 1.27998,0.34668 1.28,1.04 -2e-5,1.01334 -1.16001,2.33334 -3.48,3.96 -1.81334,1.28 -3.28001,2.2 -4.4,2.76 -0.77334,0.53334 -1.16001,1.01334 -1.16,1.44 -1e-5,0.69333 0.85333,1.04 2.56,1.04 1.17332,0 2.79999,-0.41333 4.88,-1.24 2.10665,-0.82666 3.21332,-1.24 3.32,-1.24 0.47998,0 0.71998,0.21334 0.72,0.64"
         id="path2895" /><path
         d="m 342.34196,364.15933 c -4e-5,0.21334 -0.45337,0.57334 -1.36,1.08 -0.88004,0.50667 -1.80004,0.92 -2.76,1.24 -3.2267,1.09333 -5.76003,1.64 -7.6,1.64 -0.64003,0 -1.18669,-0.16 -1.64,-0.48 -0.45336,-0.34667 -0.68003,-0.8 -0.68,-1.36 -3e-5,-0.29333 0.39997,-0.89333 1.2,-1.8 l 2.04,-2.2 c -1.76003,0.26667 -3.81336,0.96 -6.16,2.08 -3.65335,1.73333 -5.64002,2.6 -5.96,2.6 -0.45335,0 -0.68002,-0.33333 -0.68,-1 -2e-5,-0.08 0.58665,-0.65333 1.76,-1.72 1.19998,-1.09333 1.79998,-1.82666 1.8,-2.2 -2e-5,-0.29333 -0.12002,-0.43999 -0.36,-0.44 -0.37335,10e-6 -1.46668,0.32001 -3.28,0.96 -2.00001,0.69334 -3.92001,1.45334 -5.76,2.28 -0.26668,0.10667 -1.52001,0.74667 -3.76,1.92 -1.49334,0.77333 -2.44,1.16 -2.84,1.16 -0.50667,0 -0.76,-0.32 -0.76,-0.96 0,-0.56 1.53333,-2.02666 4.6,-4.4 3.06666,-2.37333 5.01332,-3.55999 5.84,-3.56 0.39999,1e-5 0.59999,0.17334 0.6,0.52 -10e-6,0.18667 -0.56001,0.72001 -1.68,1.6 -1.30668,1.01334 -2.09334,1.69334 -2.36,2.04 0.0267,0 1.17332,-0.37333 3.44,-1.12 0.42665,-0.13333 1.78665,-0.63999 4.08,-1.52 1.51998,-0.55999 2.49331,-0.83999 2.92,-0.84 0.69331,1e-5 1.23998,0.18667 1.64,0.56 0.42664,0.37334 0.59998,0.82667 0.52,1.36 -0.10669,0.80001 -0.30669,1.41334 -0.6,1.84 1.09331,-0.50666 2.87998,-1.23999 5.36,-2.2 2.55997,-0.82666 4.26664,-1.23999 5.12,-1.24 0.55997,1e-5 0.83997,0.30667 0.84,0.92 -3e-5,0.24001 -0.48003,0.70667 -1.44,1.4 -1.2267,0.85334 -2.0267,1.46667 -2.4,1.84 l -1.12,1.12 c -0.37336,0.37334 -0.56003,0.70667 -0.56,1 -3e-5,0.34667 0.39997,0.52 1.2,0.52 1.19997,0 3.1333,-0.41333 5.8,-1.24 0.66663,-0.21333 1.59996,-0.57333 2.8,-1.08 1.03996,-0.45333 1.59996,-0.68 1.68,-0.68 0.34663,0 0.51996,0.12 0.52,0.36"
         id="path2897" /><path
         d="m 350.96571,355.59933 c -0.82668,10e-6 -1.24001,-0.41332 -1.24,-1.24 -10e-6,-0.82665 0.41332,-1.23999 1.24,-1.24 0.34665,1e-5 0.63998,0.13335 0.88,0.4 0.26665,0.24001 0.39998,0.53335 0.4,0.88 -2e-5,0.80001 -0.42668,1.20001 -1.28,1.2 m 0.92,9.48 c -2e-5,0.4 -1.20002,0.97333 -3.6,1.72 -2.58668,0.85333 -4.90668,1.28 -6.96,1.28 -0.69334,0 -1.30667,-0.22667 -1.84,-0.68 -0.50667,-0.45333 -0.76,-1.01333 -0.76,-1.68 0,-0.61333 1.06666,-1.85333 3.2,-3.72 2.07999,-1.78666 3.49332,-2.75999 4.24,-2.92 0.34666,-0.08 0.51999,0.17334 0.52,0.76 -10e-6,0.24001 -0.94668,1.17334 -2.84,2.8 -1.89334,1.6 -2.84001,2.62667 -2.84,3.08 -1e-5,0.48 0.49333,0.72 1.48,0.72 1.22666,0 2.89332,-0.34667 5,-1.04 2.10665,-0.69333 3.19998,-1.04 3.28,-1.04 0.74665,0 1.11998,0.24 1.12,0.72"
         id="path2899" /><path
         d="m 374.01946,363.35933 c -3e-5,0.4 -1.25336,1.24 -3.76,2.52 -2.61336,1.33333 -4.54669,2 -5.8,2 -0.66668,0 -1.30668,-0.14667 -1.92,-0.44 -0.61335,-0.32 -1.00002,-0.66667 -1.16,-1.04 -1.17335,0.53333 -2.69335,1.02667 -4.56,1.48 -2.18668,0.53333 -3.74667,0.8 -4.68,0.8 -0.72001,0 -1.32,-0.2 -1.8,-0.6 -0.48,-0.37333 -0.72,-0.86667 -0.72,-1.48 0,-0.85333 0.92,-1.97333 2.76,-3.36 1.35999,-1.01333 2.53332,-1.75999 3.52,-2.24 0.15999,-0.08 0.35999,-0.0533 0.6,0.08 0.26666,0.10667 0.37332,0.24001 0.32,0.4 -0.0533,0.18667 -0.38668,0.50667 -1,0.96 l -1.88,1.28 c -1.49334,1.12 -2.24001,2.01334 -2.24,2.68 -10e-6,0.50667 0.61333,0.76 1.84,0.76 1.30666,0 2.85332,-0.4 4.64,-1.2 1.94665,-0.88 3.51998,-1.96 4.72,-3.24 1.41331,-1.51999 2.11998,-2.89333 2.12,-4.12 -2e-5,-0.74666 -0.21335,-1.22666 -0.64,-1.44 -0.26668,-0.13332 -0.76002,-0.18666 -1.48,-0.16 -0.24002,1e-5 -0.58668,0.12001 -1.04,0.36 -0.42668,0.21334 -0.73335,0.32001 -0.92,0.32 -0.40001,1e-5 -0.60001,-0.22666 -0.6,-0.68 -10e-6,-0.31999 0.30665,-0.58666 0.92,-0.8 0.61332,-0.23999 1.46665,-0.35999 2.56,-0.36 1.86665,10e-6 2.79998,0.77334 2.8,2.32 -2e-5,0.16001 -0.0134,0.40001 -0.04,0.72 l 0,0.52 c 1.14664,-0.53332 1.95998,-0.79999 2.44,-0.8 0.82664,10e-6 1.23998,0.17334 1.24,0.52 -2e-5,0.32001 -0.20002,0.58667 -0.6,0.8 l -1.08,0.6 c -1.09335,0.69334 -2.00002,1.42667 -2.72,2.2 -1.36002,1.41334 -2.04002,2.30667 -2.04,2.68 -2e-5,0.45334 0.0533,0.74667 0.16,0.88 0.15998,0.21333 0.50665,0.32 1.04,0.32 0.50665,0 2.05331,-0.58667 4.64,-1.76 0.42664,-0.18666 1.19998,-0.58666 2.32,-1.2 0.87997,-0.48 1.37331,-0.72 1.48,-0.72 0.37331,0 0.55997,0.14667 0.56,0.44"
         id="path2901" /></g><path
       d="m 1074.1347,483.32 c 0,-25.031 -20.293,-45.325 -45.326,-45.325 -25.033,0 -45.32599,20.294 -45.32599,45.325 0,25.033 20.29299,45.326 45.32599,45.326 25.033,0 45.326,-20.293 45.326,-45.326"
       style="fill:#000000;fill-opacity:1;fill-rule:nonzero;stroke:none"
       id="path24-0" /><path
       d="m 1173.7956,483.32 c 0,-25.031 -20.293,-45.325 -45.326,-45.325 -25.033,0 -45.326,20.294 -45.326,45.325 0,25.033 20.293,45.326 45.326,45.326 25.033,0 45.326,-20.293 45.326,-45.326"
       style="fill:#000000;fill-opacity:1;fill-rule:nonzero;stroke:none"
       id="path24-7" /><path
       sodipodi:nodetypes="ccscccccccccccccscssssscssccsscscccsssssssssccsssccsc"
       style="color:#000000;fill:#ffffff;fill-opacity:1;fill-rule:nonzero;stroke:none;marker:none;visibility:visible;display:inline;overflow:visible;enable-background:accumulate"
       id="path2463"
       d="m 1026.0153,452.16523 c -1.1339,1.32907 -1.4937,4.01899 -3.793,3.67513 -3.3366,-0.2888 -5.9491,2.12261 -8.7984,3.4218 -1.9238,0.90222 -4.174,0.002 -6.0718,1.09362 -4.1684,1.99188 -6.1117,6.9843 -5.5709,11.26229 0.4715,3.43048 2.5676,6.48111 5.1877,8.69162 2.2714,1.49888 5.1326,1.80039 7.5914,2.94254 1.9135,0.58036 3.2646,1.97767 4.7607,3.16979 2.5151,1.56667 6.0674,2.04191 8.6114,0.12529 2.2134,-1.47871 4.6319,-2.67574 6.7654,-4.25417 1.6664,-1.75634 1.2593,-4.32455 1.7322,-6.48589 0.1983,-4.24511 2.0403,-8.20009 2.7847,-12.35194 0.6073,-2.48366 -0.406,-4.89615 -1.8118,-6.88187 -1.6086,-2.33463 -3.3311,-5.3109 -6.5469,-5.56391 -1.603,0.0783 -3.6139,-0.0852 -4.8407,1.1557 z m 18.5267,20.47714 c -1.0138,1.85375 -1.7615,4.46248 -0.2903,6.2955 2.3754,2.96032 5.3153,5.44325 8.3486,7.73066 1.383,1.23907 2.9233,1.05635 4.9527,0.0966 2.1409,-1.01258 2.8673,-3.51311 2.4334,-5.64801 -0.6312,-3.10443 -1.7342,-6.48211 -4.951,-7.81212 -2.7925,-1.17227 -5.9171,-2.5783 -9.0194,-1.79429 -0.612,0.15469 -1.176,0.58715 -1.4736,1.13152 z m -38.6055,15.49193 c -2.0168,1.17062 -3.6181,3.09127 -3.9613,5.42179 -0.4358,2.95866 0.1,6.13629 2.1098,8.41728 1.7901,2.03219 4.0505,4.50299 7.1038,4.17625 2.6602,-0.0812 2.4989,-2.52074 2.5162,-4.39531 0.2425,-2.11624 1.2088,-4.07102 1.6611,-6.13383 0.077,-0.35604 0.084,-0.70939 0,-0.95821 -0.6316,-2.30303 -2.2965,-4.25922 -4.059,-5.85007 -1.1975,-1.42183 -3.0614,-1.82882 -4.8908,-0.92359 l -0.4968,0.24581 0,0 z m 31.8492,-1.40698 c -1.8504,0.97945 -4.4877,2.63102 -3.5934,5.00534 0.8374,2.223 2.0947,4.26418 2.899,6.51947 0.9813,2.75108 2.8211,6.62997 4.0277,7.79787 1.9349,1.87285 5.137,1.82685 7.7506,1.52849 3.1915,-0.36448 4.7853,-3.74628 5.5631,-6.49871 0.5732,-2.02893 0.8179,-4.26597 -0.36,-6.0686 -1.5138,-2.3134 -3.6339,-4.2281 -5.78,-5.97282 -1.9801,-1.60985 -4.4782,-2.70264 -7.045,-3.10119 -1.2093,-0.17564 -2.3924,0.22486 -3.4602,0.79015 z m -14.3715,7.0249 c -3.2804,3.07423 -4.6708,7.83094 -4.0476,12.11495 0.5821,2.44265 2.0271,4.56524 3.6607,6.43004 1.4087,1.60787 3.1547,3.26456 5.5643,3.32426 2.5415,0.0632 5.4957,-0.12713 7.3247,-1.92488 1.5798,-1.55271 2.6745,-4.35977 1.5564,-6.49669 -2.0984,-3.34718 -4.0351,-6.7989 -5.5834,-10.43683 -0.8261,-1.56865 -1.3842,-3.86159 -3.5149,-4.09354 -1.6813,-0.17821 -3.5269,0.12639 -4.9602,1.08269 z" /><g
       id="g4293"
       transform="matrix(1.5080408,0,0,1.5080408,-609.30647,-235.84372)"><path
         style="fill:#ffffff;fill-opacity:1;fill-rule:nonzero;stroke:#ffffff;stroke-width:0.80022526;stroke-linecap:round;stroke-linejoin:miter;stroke-miterlimit:4;stroke-opacity:1;stroke-dasharray:none;stroke-dashoffset:0;marker:none;visibility:visible;display:inline;overflow:visible"
         id="path6937"
         d="m 1139.6396,485.35077 3.2527,-3.04227 c 5.75,5.65318 14.2265,19.19263 14.2265,19.19263 0.3436,0.98011 -0.8698,1.59762 -1.4771,0.93693 0,0 -10.9521,-11.28402 -16.0021,-17.08729 z" /><path
         style="fill:#ffffff;fill-opacity:1;fill-rule:nonzero;stroke:#ffffff;stroke-width:0.80022526;stroke-linecap:round;stroke-linejoin:miter;stroke-miterlimit:4;stroke-opacity:1;stroke-dasharray:none;stroke-dashoffset:0;marker:none;visibility:visible;display:inline;overflow:visible"
         id="path6935"
         d="m 1133.5585,477.16443 1.7971,-1.54792 6.7942,5.89694 0.22,0.56498 0.8756,0.0143 c -0.35,1.2507 -2.3532,3.50874 -3.8532,3.50874 l 0.066,-0.87255 -0.536,-0.3042 -5.3633,-7.26025 z" /><path
         style="fill:#ffffff;fill-opacity:1;fill-rule:nonzero;stroke:#ffffff;stroke-width:0.16;stroke-opacity:1;marker:none;visibility:visible;display:inline;overflow:visible"
         id="path6933"
         d="m 1125.3245,470.83285 c 5.2842,0 9.2945,-0.62963 10.0537,3.21707 0.6119,3.09991 -3.6482,4.58527 -5.7593,1.81787 -2.0336,-2.66589 -4.2944,-5.03494 -4.2944,-5.03494 z" /></g><path
       d="m 1139.7806,489.06387 c -5.805,-0.9297 -11.6261,-2.85675 -17.4267,-3.81021 -1.5787,-0.79345 -0.9576,-3.17306 -1.0594,-4.59457 0,-6.15025 0,-9.87815 0,-16.02841 -4.0536,0.90476 -9.0699,-2.26243 -9.1044,-6.56476 -0.1826,-2.76288 2.7612,-5.0522 5.439,-4.79918 3.6299,0.18644 6.7854,3.70787 6.3967,7.46802 0,6.15093 0,11.11083 0,17.26176 4.7872,0.6913 9.78,2.63413 14.5671,3.32675 0,-4.74154 0,-8.01926 0,-12.76081 -3.8843,1.12067 -8.4607,-1.44834 -9.1044,-5.5552 -0.4552,-2.93135 1.0054,-5.15308 3.3119,-5.84476 4.318,-1.41749 9.0331,3.0635 8.5238,7.53424 -0.012,8.38579 0.037,14.34926 0,22.73502 -0.1016,0.83354 -0.6371,1.67427 -1.5436,1.63211 z"
       id="path3406"
       style="fill:#ffffff;fill-opacity:1;stroke:#ffffff;stroke-width:0.27313319;stroke-linecap:round;stroke-linejoin:round;stroke-miterlimit:4;stroke-opacity:1;stroke-dasharray:none"
       sodipodi:nodetypes="ccccccccccccccc" /><g
       transform="matrix(-0.14875309,0,0,-0.14875309,1169.3062,520.28556)"
       id="g3626"><path
         style="fill:#ffffff;fill-opacity:1;fill-rule:evenodd;stroke:#ffffff;stroke-opacity:1"
         id="path2906"
         d="m 56.444021,259.05913 c 41.662497,-21.89782 66.849139,-43.86011 83.390749,-64.74604 -19.09202,-12.65219 -13.58532,-11.80877 3.4084,-5.95629 7.99555,2.75359 21.61448,2.44617 35.96561,-23.8189 11.01724,-20.16347 21.09654,-28.92049 21.09654,-28.92049 -13.14462,1.94788 -36.28971,-1.38431 3.16796,-7.05422 16.28272,-21.5268 36.86603,-40.403479 56.19714,-60.051792 -38.09641,17.1382 -24.9054,-0.136669 6.91391,-6.383412 C 286.89204,32.155733 325.55498,15.057504 368.20248,0.75396991 338.49226,2.8710323 305.86087,2.8511996 293.56464,17.706899 l -0.0469,-6.939278 c -28.64821,8.222617 -96.03792,35.461055 -97.72268,40.941626 -1.29424,4.210187 -5.71003,13.668611 -7.80077,22.542725 -0.93779,-5.307674 -0.98005,-11.197166 -0.0641,-17.709174 -19.832,9.864699 -56.08294,39.043084 -57.47433,45.729032 -0.80487,3.86755 -2.20838,33.1672 0.3672,46.07936 -7.34442,-10.53657 -8.78657,-24.01483 -10.49934,-37.35823 -6.83017,7.45441 -35.531277,20.21317 -28.073627,76.57876 -6.259423,-6.45907 -5.445595,-17.18538 -7.480516,-26.19305 -18.419646,25.2887 -34.139489,62.37269 -32.114434,98.62068" /><g
         style="fill:#ffffff;fill-opacity:1;stroke:#ffffff;stroke-opacity:1"
         id="g2891"
         mask="url(#mask2918)"
         transform="matrix(0.803721,-0.0287367,0.0287367,0.803721,-0.05654158,1.1455322)" /><path
         style="fill:#ffffff;fill-opacity:1;stroke:#ffffff;stroke-width:1.50793982;stroke-linecap:butt;stroke-linejoin:round;stroke-miterlimit:4;stroke-opacity:1;stroke-dasharray:none"
         id="path2768"
         d="m 56.444021,259.05913 c 41.662497,-21.89782 66.849139,-43.86011 83.390749,-64.74604 -19.09202,-12.65219 -13.58532,-11.80877 3.4084,-5.95629 7.99555,2.75359 21.61448,2.44617 35.96561,-23.8189 11.01724,-20.16347 21.09654,-28.92049 21.09654,-28.92049 -13.14462,1.94788 -36.28971,-1.38431 3.16796,-7.05422 16.28272,-21.5268 36.86603,-40.403479 56.19714,-60.051792 -38.09641,17.1382 -24.9054,-0.136669 6.91391,-6.383412 C 286.89204,32.155733 325.55498,15.057504 368.20248,0.75396991 338.49226,2.8710323 305.86087,2.8511996 293.56464,17.706899 l -0.0469,-6.939278 c -28.64821,8.222617 -96.03792,35.461055 -97.72268,40.941626 -1.29424,4.210187 -5.71003,13.668611 -7.80077,22.542725 -0.93779,-5.307674 -0.98005,-11.197166 -0.0641,-17.709174 -19.832,9.864699 -56.08294,39.043084 -57.47433,45.729032 -0.80487,3.86755 -2.20838,33.1672 0.3672,46.07936 -7.34442,-10.53657 -8.78657,-24.01483 -10.49934,-37.35823 -6.83017,7.45441 -35.531277,20.21317 -28.073627,76.57876 -6.259423,-6.45907 -5.445595,-17.18538 -7.480516,-26.19305 -18.419646,25.2887 -34.139489,62.37269 -32.114434,98.62068" /><g
         style="fill:#ffffff;fill-opacity:1;stroke:#ffffff;stroke-opacity:1"
         id="g2764"
         transform="matrix(0.803721,-0.0287367,0.0287367,0.803721,-0.05654158,1.1455322)"><path
           style="fill:#ffffff;fill-opacity:1;fill-rule:evenodd;stroke:#ffffff;stroke-width:1.875;stroke-linecap:round;stroke-linejoin:round;stroke-miterlimit:4;stroke-opacity:1;stroke-dasharray:none"
           id="path1873"
           d="M 281.5,87.25 C 163.1173,181.45514 64.982893,280.99684 11.6875,391.75 l 3.3125,0 c 0,0 6.5,-9.5 11.25,-13.5 4.75,-4 19.25,-13.75 19.25,-13.75 0,0 12.482756,-37.87794 38.292154,-74.64749 C 109.60155,253.08295 145.664,218.08117 153.08862,210.30299 160.51324,202.52482 176.125,185.75 176.125,185.75" /></g></g></g></svg>