<?xml version="1.0" encoding="UTF-8" standalone="no"?>
<!-- Created with Inkscape (http://www.inkscape.org/) -->

<svg
   xmlns:svg="http://www.w3.org/2000/svg"
   xmlns="http://www.w3.org/2000/svg"
   version="1.1"
   width="210.00233"
   height="210"
   id="svg2863">
  <defs
     id="defs2865" />
  <g
     transform="translate(-403.2848,-536.21951)"
     id="layer1">
    <path
       d="m 613.28713,641.22068 c 0,57.98622 -47.01029,104.99883 -105.00116,104.99883 -57.99086,0 -105.00117,-47.01261 -105.00117,-104.99883 0,-57.99088 47.01031,-105.00117 105.00117,-105.00117 57.99087,0 105.00116,47.01029 105.00116,105.00117"
       id="path24"
       style="fill:#000000;fill-opacity:1;fill-rule:nonzero;stroke:none" />
    <path
       d="m 495.5646,710.47938 c -5.95944,1.51242 -10.9131,5.71241 -17.14793,1.67164 -5.86008,-4.79082 -8.422,-12.02339 -11.42517,-18.62406 -4.06897,-5.69748 -5.01453,-12.62772 -7.61005,-18.96108 -0.44175,-5.89294 -7.31356,-15.78789 -0.40441,-19.06216 6.37574,3.55834 7.79445,11.56063 11.60717,17.26917 2.46484,7.47322 11.09574,7.34298 10.9601,-1.33465 1.54272,-7.01489 3.00912,-14.13916 3.01982,-21.40787 -1.81578,-6.97445 -1.27718,-13.96815 -1.94134,-20.65301 -0.61307,-5.55377 -1.29751,-11.21326 -1.2892,-16.66231 0.82476,-5.49179 1.86003,-12.08083 2.15199,-18.06488 0.55935,-9.71987 -1.2439,-19.82544 1.91602,-29.18393 -1.08899,-5.2275 7.30033,-14.4703 10.37868,-6.91825 0.99424,7.40399 1.22307,14.20033 1.67173,21.70452 0.11937,4.67409 1.42424,12.59168 1.28062,15.17961 0.0214,4.79719 3.0378,12.36269 3.73427,18.63075 0.88594,4.61077 0.65678,11.65965 3.30447,12.90731 -1.49203,4.90999 6.67111,-4.09276 4.89201,-7.73058 -0.77672,-8.29257 1.10119,-16.13594 3.58931,-23.96333 1.87189,-7.67487 4.32729,-15.14333 4.55321,-23.11239 2.43993,-6.52366 -1.1154,-16.10656 4.77307,-20.43739 4.71158,-1.10169 5.99996,3.39543 6.9824,7.38775 2.45812,7.88558 0.43377,16.03505 0.80892,24.10398 -0.43501,5.66675 -0.17139,12.57011 0.16348,19.15913 0.7785,9.09361 0.6782,18.25578 -1.03218,27.22161 -0.59457,10.19392 -1.18795,20.70623 1.73148,30.62304 6.60248,4.20098 9.32408,-8.0166 14.3977,-10.94657 4.0907,-5.92239 6.72391,-12.88008 11.37798,-18.38813 3.59299,-1.24681 4.40058,2.7645 3.99049,5.77708 -2.93119,3.28482 -1.20217,11.33708 -5.08576,15.37802 -1.37433,6.58395 -5.84542,11.47947 -6.16761,17.77814 -3.05296,5.84193 -5.77987,10.87341 -8.2942,17.16138 -0.52377,5.72892 -2.22183,11.7698 -4.01746,17.18832 -3.18876,3.75947 -0.64371,12.80187 -5.92143,16.97602 -5.34067,5.08946 -12.67131,2.26418 -18.46567,-0.34039 -6.36768,-3.04163 -12.31387,-6.90798 -18.48251,-10.32649 z"
       id="path2825"
       style="font-size:40px;font-style:normal;font-variant:normal;font-weight:normal;font-stretch:normal;fill:#ffffff;fill-opacity:1;stroke:none;font-family:AnimalTracks;-inkscape-font-specification:AnimalTracks" />
  </g>
</svg>
