<?xml version="1.0" encoding="UTF-8" standalone="no"?>
<!-- Created with Inkscape (http://www.inkscape.org/) -->

<svg
   xmlns:dc="http://purl.org/dc/elements/1.1/"
   xmlns:cc="http://creativecommons.org/ns#"
   xmlns:rdf="http://www.w3.org/1999/02/22-rdf-syntax-ns#"
   xmlns:svg="http://www.w3.org/2000/svg"
   xmlns="http://www.w3.org/2000/svg"
   xmlns:sodipodi="http://sodipodi.sourceforge.net/DTD/sodipodi-0.dtd"
   xmlns:inkscape="http://www.inkscape.org/namespaces/inkscape"
   width="210.00233"
   height="210"
   id="svg2863"
   version="1.1"
   inkscape:version="0.47 r22583"
   sodipodi:docname="circle.svg">
  <defs
     id="defs2865">
    <inkscape:perspective
       sodipodi:type="inkscape:persp3d"
       inkscape:vp_x="0 : 105 : 1"
       inkscape:vp_y="0 : 1000 : 0"
       inkscape:vp_z="210.00233 : 105 : 1"
       inkscape:persp3d-origin="105.00117 : 70 : 1"
       id="perspective8" />
    <inkscape:perspective
       id="perspective2884"
       inkscape:persp3d-origin="0.5 : 0.33333333 : 1"
       inkscape:vp_z="1 : 0.5 : 1"
       inkscape:vp_y="0 : 1000 : 0"
       inkscape:vp_x="0 : 0.5 : 1"
       sodipodi:type="inkscape:persp3d" />
  </defs>
  <sodipodi:namedview
     id="base"
     pagecolor="#ffffff"
     bordercolor="#666666"
     borderopacity="1.0"
     inkscape:pageopacity="0.0"
     inkscape:pageshadow="2"
     inkscape:zoom="2"
     inkscape:cx="130.10118"
     inkscape:cy="112.94249"
     inkscape:document-units="px"
     inkscape:current-layer="layer1"
     showgrid="false"
     inkscape:window-width="1280"
     inkscape:window-height="949"
     inkscape:window-x="0"
     inkscape:window-y="24"
     inkscape:window-maximized="1" />
  <metadata
     id="metadata2868">
    <rdf:RDF>
      <cc:Work
         rdf:about="">
        <dc:format>image/svg+xml</dc:format>
        <dc:type
           rdf:resource="http://purl.org/dc/dcmitype/StillImage" />
        <dc:title></dc:title>
      </cc:Work>
    </rdf:RDF>
  </metadata>
  <g
     inkscape:label="Layer 1"
     inkscape:groupmode="layer"
     id="layer1"
     transform="translate(-403.2848,-536.21951)">
    <path
       d="m 613.28713,641.22068 c 0,57.98622 -47.01029,104.99883 -105.00116,104.99883 -57.99086,0 -105.00117,-47.01261 -105.00117,-104.99883 0,-57.99088 47.01031,-105.00117 105.00117,-105.00117 57.99087,0 105.00116,47.01029 105.00116,105.00117"
       style="fill:#000000;fill-opacity:1;fill-rule:nonzero;stroke:none"
       id="path24" />
    <path
       id="path2853"
       style="font-size:40px;font-style:normal;font-variant:normal;font-weight:normal;font-stretch:normal;fill:#ffffff;fill-opacity:1;stroke:none;font-family:AnimalTracks;-inkscape-font-specification:AnimalTracks"
       d="m 490.56122,715.44803 c -1.44303,-1.44298 -4.65693,-2.55803 -9.64178,-3.34511 l 0,-1.57416 c 0.39354,-0.26222 0.59025,-0.45899 0.59031,-0.59033 -6e-5,-0.13133 -0.19677,-0.39354 -0.59031,-0.78708 -0.26221,-0.39354 -0.32812,-0.78709 -0.19677,-1.18063 -1.83657,0 -3.80428,-0.78708 -5.90315,-2.36125 -1.96771,-1.57417 -3.67307,-2.49241 -5.11599,-2.7548 -1.31187,-0.39354 -2.4925,-1.63974 -3.54194,-3.73866 -0.91828,-2.23004 -2.29567,-3.54187 -4.13215,-3.93541 -0.13134,-0.26219 -0.91832,-2.62361 -2.3613,-7.08377 0.13135,-0.13135 0.45898,-1.44297 0.98386,-3.93541 0.39354,-1.44298 0.52473,-2.88595 0.39354,-4.32897 1.57417,-1.04943 3.14834,-3.41069 4.72256,-7.08378 1.70527,-3.67301 3.54183,-6.03427 5.5096,-7.08375 0.52465,-1.57412 3.01708,-5.05038 7.47724,-10.42887 0.26221,-0.39354 0.6559,-1.77089 1.18064,-4.13219 0.2622,-1.83647 1.2462,-2.82033 2.95157,-2.95157 1.70532,-1.57413 3.93537,-4.26329 6.69021,-8.06761 -0.13135,-0.52465 -0.19677,-0.9182 -0.19677,-1.18064 -9e-5,-1.57407 1.11496,-2.62355 3.34507,-3.14834 1.31177,10e-5 2.3612,-0.65584 3.14838,-1.96772 0.91819,-1.31172 1.90204,-2.03322 2.95153,-2.16447 1.18057,-0.13134 3.86978,-0.8526 8.06761,-2.16448 3.27948,-0.91818 5.96866,-1.24615 8.06766,-0.98386 0.2622,-1.44292 1.11491,-2.16439 2.55797,-2.16448 0.65585,9e-5 1.83647,0.2627 3.54195,0.78708 1.83641,0.39355 3.08261,0.59041 3.73865,0.59032 0.65579,0.78718 1.50845,1.04953 2.55797,0.78708 0.13134,0.78718 1.96766,2.68928 5.50959,5.70636 0.2622,0.65599 0.85261,0.98396 1.77099,0.98385 0.65579,1.1e-4 1.31168,1.1e-4 1.96767,0 0.65584,0.13135 0.91818,0.72157 0.78713,1.77095 -0.13135,1.04953 -0.0659,2.4925 0.19677,4.32897 l 0.9839,0 0,0.98386 c -0.39355,-0.13135 -0.78722,1e-4 -1.18062,0.39354 1.44288,0.52479 2.95141,1.18068 4.52568,1.96772 1.70527,0.78712 2.68912,1.8366 2.95157,3.14832 l -3.73866,1.96772 c 0.65585,0.26269 0.98376,1.31187 0.98386,3.14834 0.13135,1.70541 0.59022,2.6237 1.37745,2.7548 1.70522,2.09896 3.08263,5.64083 4.13215,10.62563 l 0.98385,0 c -9e-5,1.57422 0.39355,3.41074 1.18063,5.5096 0.91819,2.0989 1.3773,3.67307 1.37741,4.72251 -1.1e-4,0.91833 -0.26222,1.96776 -0.7871,3.14834 -0.26268,5e-5 -0.65597,0.19677 -1.18062,0.59031 -0.39355,1.70537 -0.72161,4.3946 -0.98386,8.06761 -1.96781,1.83657 -4.26344,2.03334 -6.887,0.59032 -0.91832,-0.65589 -1.90218,-1.31178 -2.95156,-1.96771 -1.04952,-0.78704 -1.63984,-1.7709 -1.77093,-2.95156 -1.44308,-1.44298 -3.21402,-2.16444 -5.31283,-2.16449 -1.04953,5e-5 -2.55807,0.19677 -4.52574,0.59032 -1.8366,0.39354 -3.214,0.59036 -4.13214,0.59031 -1.44312,5e-5 -2.68932,-0.26219 -3.73865,-0.78708 -0.52484,-0.26221 -1.11516,-0.39355 -1.77094,-0.39355 -2.49256,5e-5 -4.91938,1.24626 -7.28059,3.73865 -0.78713,-1.18057 -3.54193,-1.70531 -8.26439,-1.57416 -0.26219,0.78712 -1.1151,1.77098 -2.55803,2.95156 -1.31185,1.18067 -1.96775,2.36125 -1.9677,3.54188 -5e-5,0.65594 0.13134,1.3774 0.39354,2.16448 -2.23015,1.18063 -3.3452,2.16449 -3.34516,2.95157 -4e-5,0.39354 0.0654,0.78709 0.19678,1.18063 0.26219,0.26219 0.78698,1.18063 1.57417,2.75479 0.78698,1.44302 1.57407,2.16448 2.3612,2.16448 0.65584,0 1.31178,-0.26219 1.96775,-0.78709 l 2.16449,0.19678 c -10e-5,0.39354 0.13135,0.91828 0.39354,1.57417 l 0.98386,0 c -0.13135,1.18062 0.39354,2.42688 1.57417,3.73865 1.31177,1.31183 1.96766,2.49246 1.96776,3.54188 -10e-5,0.6559 -0.19677,1.3774 -0.59036,2.16449 -1.04949,0.52473 -1.77099,2.03328 -2.16449,4.52574 -0.65594,-0.26221 -1.31187,-0.39355 -1.96771,-0.39355 -1.04948,0 -2.4925,0.32811 -4.32896,0.98386 -1.70537,0.65588 -2.95162,0.98386 -3.73865,0.98386 -1.57422,0 -2.886,-0.91829 -3.93543,-2.7548 m 24.00607,-0.59032 2.16449,0 0,2.7548 -2.16449,-0.39354 0,-2.36126 m 9.44504,1.18063 c 0.65583,-0.78708 1.37735,-0.85266 2.16447,-0.19677 -4e-5,0.39354 -0.32811,0.65588 -0.98385,0.78709 -0.78713,0.13134 -1.18067,-0.0654 -1.18062,-0.59032 m 7.47729,-2.55802 2.16454,0.39354 0,1.57417 -2.16454,-0.39354 0,-1.57417 m -6.88698,-2.75479 c -0.13135,-0.39354 0.13133,-0.7871 0.78712,-1.18064 l 0.78704,0 0,1.18064 -1.57416,0 m -11.80624,-0.98387 0.78704,0 0,0.7871 -0.78704,0 0,-0.7871 m 14.95457,-1.18062 0,-1.18063 c 0.91818,-0.65588 2.03323,-0.59032 3.34511,0.19677 0.13135,0.78708 -0.0659,1.63975 -0.59031,2.55804 -1.04953,0.13132 -1.96776,-0.39356 -2.7548,-1.57418 m 4.32897,-1.57418 c 0.13135,-0.65588 0.65583,-1.04942 1.57422,-1.18062 0.91813,0 1.50844,0.32812 1.77089,0.98385 1.04938,1.44303 1.04938,2.36126 0,2.7548 -0.39354,0.13134 -0.72157,0.19677 -0.98386,0.19677 -0.78718,0 -1.57426,-0.91823 -2.36125,-2.7548 m 11.21595,0.39355 0,-1.3774 c 1.70527,-0.13134 4.06652,0.13135 7.08377,0.78708 0.13085,1.04944 -0.26269,1.63975 -1.18063,1.77095 -3.27958,0.13134 -5.2473,-0.2622 -5.90314,-1.18063 m -21.25123,-1.57417 c 0.2622,-0.52469 1.11491,-0.72146 2.55798,-0.59032 1.44292,0 2.16442,-0.32811 2.16447,-0.98385 -5e-5,-0.39355 -0.13133,-0.78709 -0.39354,-1.18063 1.04938,-1.18063 2.23,-1.115 3.54188,0.19677 0.2622,0.78709 -0.26219,1.44303 -1.57417,1.96771 -0.52479,-0.26219 -1.44307,-0.13134 -2.75478,0.39355 -1.31188,0.52474 -2.16455,0.78708 -2.55803,0.78708 -0.39354,0 -0.72157,-0.19677 -0.98381,-0.59031 m -12.9869,-3.14834 c 0.78699,-2.09886 2.03319,-2.82037 3.73864,-2.16449 l 1.37735,0.59032 c -0.39354,0.26219 -0.59036,0.72151 -0.59031,1.3774 -5e-5,0.65593 -5e-5,1.24625 0,1.77094 -5e-5,0.65594 -0.2622,0.98385 -0.78704,0.98385 l -0.39354,1.18063 c -1.83655,-0.39354 -2.95161,-1.63974 -3.34505,-3.73865 m 32.27041,1.18062 0.98391,0 0,0.78709 -0.98391,0 0,-0.78709 m -6.88698,-2.75479 c -10e-5,0 0.59022,-0.39355 1.77094,-1.18063 0.78699,-0.52469 1.5085,-0.78709 2.16448,-0.78709 0.52465,0 0.98375,0.13135 1.37739,0.39355 0.39355,1.18062 -0.13133,1.90214 -1.57417,2.16448 -8e-5,0.13135 -0.3281,0.59031 -0.98384,1.3774 -0.52478,0.78708 -1.04953,1.18063 -1.57417,1.18063 -0.39354,0 -0.78718,-0.13134 -1.18063,-0.39355 l 0,-2.75479 m 17.51263,2.16448 0,-1.77094 c 2.36115,-0.65588 4.72241,-0.45897 7.08377,0.59031 0.26219,1.04948 -0.32812,1.6398 -1.77094,1.77094 -1.44308,0.26221 -3.21402,0.0654 -5.31283,-0.59031 m -10.62565,-3.34511 0,-1.3774 c 0.78699,-0.26219 1.70527,-0.13134 2.75485,0.39354 1.04934,0.52475 1.37726,1.18063 0.98386,1.96771 -0.26269,0.39355 -0.78723,0.59032 -1.57417,0.59032 -1.57432,0 -2.29578,-0.52469 -2.16454,-1.57417 m -37.97683,-1.57417 0.59032,-2.16447 c 1.96766,-0.2622 3.54183,0.13133 4.72251,1.18062 l 0,0.98385 c -0.65593,-0.2622 -1.04948,0 -1.18063,0.78708 -0.13134,0.65594 -0.39354,0.98386 -0.78709,0.98386 -1.83656,0.52475 -2.95161,-0.0654 -3.34511,-1.77094 m 21.2513,-0.98385 1.57416,0.39355 -0.78704,1.77093 -1.37743,-0.59032 0.59031,-1.57416 m -8.85471,-0.98385 c 0.78703,-0.2622 1.31173,-0.32812 1.57417,-0.19677 l 0,1.57417 c -0.39354,0 -0.78714,-0.0654 -1.18058,-0.19678 -0.39354,-0.2622 -0.52484,-0.65588 -0.39354,-1.18062 m 19.48039,-3.34511 0,-0.59032 2.16448,-0.39354 c -1.4e-4,0.52473 0.0654,0.85271 0.19677,0.98386 l 0.98391,0 c -0.13135,0.26219 -0.26268,0.45896 -0.39354,0.59031 -0.5248,0 -0.78718,0.13135 -0.78704,0.39354 -0.78723,0.13135 -1.50868,-0.19677 -2.16447,-0.98385 m 14.95455,0.39354 c -9e-5,-0.65589 0.39354,-0.91823 1.18062,-0.78709 0.65579,0.13135 0.98376,0.45897 0.98386,0.98386 l -2.16448,-0.19677 m -99.36944,-4.1322 0,-0.59031 c 2.36126,-0.91823 4.59132,-0.39355 6.69022,1.57417 0.26221,0.65594 0.0654,1.37744 -0.59031,2.16448 -4.06662,-1.04943 -6.09991,-2.09886 -6.09991,-3.14834 m 74.3795,-0.98386 2.16448,0 c -5e-5,0.52474 -0.19677,0.91828 -0.59031,1.18063 -0.39355,0.13135 -0.78714,0.13135 -1.18063,0 -0.39354,-0.26219 -0.52479,-0.65589 -0.39354,-1.18063 m 39.15746,0.39355 c -0.13133,-1.18058 0.65579,-2.23007 2.36125,-3.14834 1.83642,-0.91822 2.7547,-1.96766 2.7548,-3.14833 -0.91838,-0.78704 -1.83666,-1.18058 -2.7548,-1.18063 -0.65603,5e-5 -1.63989,0.26219 -2.95152,0.78708 -1.18076,0.52474 -2.03342,0.78714 -2.55806,0.78709 -1.04953,5e-5 -1.96781,-0.65589 -2.7548,-1.96771 -0.78718,-0.65589 -1.57427,-1.31179 -2.36126,-1.96772 -0.78718,-0.78703 -1.11515,-1.70532 -0.98385,-2.75479 -0.39354,-0.91824 -1.2463,-2.03329 -2.55803,-3.34513 1.44287,-4.4601 4.1321,-10.75678 8.06762,-18.89002 0.52464,-0.78703 2.42674,-2.23001 5.70641,-4.32896 2.49225,-1.57413 3.73851,-3.21387 3.7386,-4.91927 -9e-5,-1.04939 -0.32811,-2.16444 -0.98379,-3.34512 -0.2627,-0.78698 -0.78724,-1.24615 -1.57418,-1.3774 -0.52489,1e-4 -1.37755,0.0659 -2.55808,0.19678 -1.18071,0.13133 -1.9678,0.19677 -2.36121,0.19677 -1.44311,1.31187 -3.21405,1.96781 -5.31286,1.96771 -2.23016,1e-4 -5.05058,-0.85261 -8.46115,-2.55803 -0.78718,-2.62355 -2.75491,-4.59127 -5.90309,-5.90315 -1.70547,0.13135 -3.27964,-0.19677 -4.72256,-0.98385 -0.13134,-1.31171 0.65583,-2.68911 2.36125,-4.13219 1.83647,-1.57407 2.55792,-3.27943 2.16449,-5.11605 0.65583,-2.22996 2.29558,-5.05037 4.91928,-8.46115 2.7547,-3.54179 4.52563,-6.42778 5.31281,-8.65793 -9e-5,-0.787 0.45897,-1.70522 1.37745,-2.75481 1.04928,-1.18052 1.57403,-2.09876 1.57412,-2.7548 -9e-5,-0.65578 -0.26268,-1.31167 -0.78708,-1.96771 -1.70547,-1.31167 -3.80433,-1.63964 -6.29667,-0.98385 -0.78718,0.26269 -1.31193,1.96782 -1.57412,5.11605 -0.13135,1.57428 -0.72167,2.49254 -1.77099,2.75481 0.26219,1.04956 0.0654,2.03336 -0.59032,2.95155 -1.04953,1.31192 -1.63984,2.03344 -1.77094,2.16449 -1.1e-4,0.13134 -0.65599,1.63984 -1.96771,4.52574 -0.78719,10e-5 -2.03339,0.52483 -3.73861,1.57417 l 0,0.78708 c -0.65602,-0.39354 -1.37754,-0.59021 -2.16447,-0.59031 -0.78724,10e-5 -1.90224,0.26219 -3.34512,0.78709 -1.44312,0.39354 -2.42698,0.59039 -2.95162,0.59031 -1.57422,8e-5 -2.4925,-0.98376 -2.7548,-2.95157 -1.96776,-0.26219 -4.5914,-2.22997 -7.87079,-5.90314 -0.26269,-0.91813 -0.59041,-1.90205 -0.9839,-2.95157 -0.2622,-1.31167 -0.13135,-2.29552 0.39354,-2.95156 l 0,-2.36126 0.19677,0 c -5e-5,-0.78698 -0.0659,-1.77084 -0.19677,-2.95157 -0.13135,-0.65579 -0.32812,-1.04933 -0.59031,-1.18063 -1e-4,-1.57406 0.39354,-4.26324 1.18062,-8.06761 0.52459,-1.57402 0.59022,-4.39444 0.19677,-8.46116 -0.39354,-4.06647 -0.26269,-7.14919 0.39355,-9.24824 -0.13135,-1.04929 -0.0659,-2.16434 0.19677,-3.34513 0.26219,-1.31167 0.39354,-2.29553 0.39354,-2.95155 1.31173,-2.22991 3.93538,-2.42668 7.87084,-0.59032 1.04939,1.44311 2.68912,2.4926 4.91928,3.14833 -9e-5,0.2627 0.13135,0.65605 0.39355,1.18064 1.18053,0.26269 2.09882,1.18077 2.75479,2.7548 1.04939,2.09905 1.83646,3.34526 2.36126,3.73865 0.65583,0.26269 1.31172,1.18078 1.96771,2.7548 0.78698,1.5743 1.63969,2.55816 2.55808,2.95156 -0.13135,0.39354 -0.19678,0.78723 -0.19678,1.18063 -9e-5,0.78723 0.52464,1.5087 1.57417,2.16448 1.18053,0.52484 1.77085,1.18077 1.77095,1.96771 1.96761,0.39355 3.86975,2.03344 5.70635,4.91928 1.83641,2.88609 3.93533,4.46026 6.29668,4.7225 0.52464,-0.52459 1.24611,-2.42672 2.16449,-5.70635 0.65579,-2.49231 1.83642,-3.73851 3.54192,-3.73866 0.78694,1.5e-4 1.70517,0.19678 2.75475,0.59032 1.44288,0.78723 2.88585,2.3614 4.32897,4.72251 1.04933,3.41082 1.77084,7.87095 2.16454,13.38044 l 0.98381,0 c 0.26219,1.57426 1.31167,4.26348 3.14832,8.06762 0.91814,1.18072 0.59021,4.52583 -0.98385,10.03532 -0.26269,1.31193 -0.65603,2.68933 -1.18062,4.1322 -0.39354,1.44307 -1.04958,2.36136 -1.96766,2.75479 -0.13135,0.65599 -0.19677,1.44307 -0.19677,2.36125 -10e-5,0.78719 0.0654,1.57428 0.19677,2.36125 l 0.98381,0 c -0.13135,0.65599 -1.1e-4,1.31188 0.39354,1.96772 0.52459,1.04953 0.85255,1.63984 0.98385,1.77094 0.5246,-0.2622 1.2461,-0.72141 2.16448,-1.3774 1.04932,-0.78698 1.90199,-1.18052 2.55807,-1.18063 0.65574,1.1e-4 1.24605,0.13135 1.77089,0.39354 0.65579,0.2627 0.98372,0.7872 0.98391,1.57417 -1.9e-4,0.5248 -1.9e-4,1.11511 0,1.77096 -1.9e-4,0.52478 0.39354,0.72155 1.18058,0.59031 -0.13135,1.96776 0.19677,4.5914 0.9839,7.87084 0.7869,3.27958 1.18044,5.77204 1.18058,7.47731 -1.4e-4,1.18067 -0.13135,2.29572 -0.39354,3.3451 l -0.19677,0 c -0.13135,1.57422 -0.2627,3.60751 -0.39354,6.09991 -0.13135,0.91834 -0.52485,1.57422 -1.18063,1.96771 l 0,0.98386 c -0.78723,0.2622 -1.31193,0.9839 -1.57417,2.16448 -0.52484,1.83656 -0.85281,2.75485 -0.98386,2.75479 -1.5e-4,1.04948 -0.78724,1.96777 -2.36125,2.75481 -1.44313,0.78713 -2.099,1.83655 -1.96772,3.14834 l -3.14832,1.96771 c 0.78697,1.96776 0.72136,3.54192 -0.19678,4.7225 -1.57427,2.49245 -4.52584,3.41074 -8.85471,2.7548 m -120.22717,-9.64178 c 0.78707,-0.39355 1.57416,-0.59027 2.36124,-0.59032 1.04948,5e-5 2.36126,0.59036 3.93543,1.77094 1.70537,1.04948 2.82037,1.70537 3.34516,1.96772 0.2622,0.65594 -0.13134,1.44302 -1.18068,2.36125 -1.70536,-0.65589 -3.41068,-1.2462 -5.11605,-1.77094 -2.09886,-0.91824 -3.21392,-2.16444 -3.3451,-3.73865 m 7.47734,-0.98386 0,-1.18063 2.95152,0 0,2.16449 c -1.70536,4e-5 -2.68922,-0.32812 -2.95152,-0.98386 m -10.62568,-6.88699 c -0.13135,-1.31178 0.59031,-2.03324 2.16448,-2.16449 0.65594,5e-5 1.9677,0.13135 3.93541,0.39354 0.39355,5e-5 0.59032,0.26221 0.59032,0.78709 0,0.91834 0,1.37744 0,1.3774 0.13135,0.39353 0.52473,0.45897 1.18067,0.19677 0.26221,0.65593 0.5247,1.24624 0.78704,1.77093 0.26219,0.52475 0.13135,1.11506 -0.39354,1.77095 -1.70532,0.26219 -4.46012,-1.11501 -8.26438,-4.13219 m 17.51262,-0.59032 c -0.2622,-0.78702 0.13135,-1.18058 1.18062,-1.18063 l 0.98386,0 0,1.18063 -2.16448,0 m -21.25128,-7.08376 0,-2.36126 c 0.52474,-0.13135 1.04948,-0.19677 1.57417,-0.19677 0.91828,5e-5 1.90214,0.52479 2.95162,1.57417 1.04943,1.04948 1.77089,1.6398 2.16447,1.77094 -0.13133,0.39354 -3e-5,0.91834 0.39354,1.57417 0.26221,0.39354 0.13135,0.72157 -0.39354,0.98386 -1.83655,-0.13134 -4.06661,-1.24615 -6.69026,-3.34511 m -0.19677,-5.70636 c -0.91823,-1.04939 -1.70533,-2.75475 -2.36121,-5.11605 -0.78713,-3.0171 -1.37744,-4.91924 -1.77099,-5.70637 -2.09886,-5.50954 -2.4924,-11.7406 -1.18062,-18.69326 0.52473,-1.83646 1.77094,-4.46006 3.73865,-7.87085 1.57417,-5.64068 4.06662,-10.62554 7.47731,-14.9546 l 0,-1.57417 c 1.70535,-2.22996 3.93541,-3.34501 6.69021,-3.34512 1.04944,1.1e-4 2.03329,0.19677 2.95157,0.59032 -0.13135,0.39354 -0.19677,0.72161 -0.19677,0.98385 0,0.39355 0.39354,0.65604 1.18063,0.78709 0.91829,0.13135 1.44297,0.39354 1.57417,0.78708 2.36124,-1.31167 5.9687,-4.52563 10.82242,-9.64179 0.65588,-0.13084 1.115,1.6e-4 1.3774,0.39354 0.26219,0.2627 0.32811,0.72162 0.19677,1.3774 -2.49246,3.27964 -3.73866,5.57532 -3.73866,6.887 -1.83652,0.78719 -3.60746,1.57427 -5.31283,2.36126 -2.0989,1.04957 -3.2139,2.55811 -3.3451,4.52573 1.44297,1.96781 2.03329,3.80433 1.77094,5.5096 -0.39354,9e-5 -0.59032,0.26268 -0.59032,0.78708 0,0.65599 0,1.04953 0,1.18063 0.6559,2.23015 2.09891,3.86994 4.32896,4.91927 0.39354,2.49256 1.11506,6.23116 2.1645,11.21595 0.65588,-0.26219 1.04942,-0.0654 1.18062,0.59031 0.13134,0.65599 0.2622,0.98397 0.39355,0.98386 -0.39355,1.1e-4 -0.59032,0.32812 -0.59032,0.98386 0,0.65599 -0.32812,0.85276 -0.98385,0.59031 0.13133,1.57428 -0.13135,3.67314 -0.78704,6.29669 -5e-5,0.65599 -0.13135,1.57427 -0.39354,2.7548 l -0.39355,0.19677 c 0.2622,0.26268 0.85266,0.65598 1.77099,1.18062 1.04938,0.39354 1.57413,0.78713 1.57413,1.18063 0,0.39354 -0.26221,0.85276 -0.78709,1.37739 -1.04943,0.13135 -2.29569,0.85276 -3.73865,2.16449 -1.31184,1.31187 -2.49246,1.96776 -3.54184,1.96771 -0.39353,5e-5 -0.8527,-0.13135 -1.37744,-0.39354 -4.46017,4.46022 -8.65794,6.69026 -12.59336,6.69021 -2.09885,5e-5 -3.93542,-0.65583 -5.50959,-1.9677 m 27.15447,-5.31282 2.7548,0.59031 c -5e-5,0.78713 -0.59036,1.18068 -1.77099,1.18063 -1.18063,5e-5 -1.5086,-0.59027 -0.98381,-1.77094 m 87.75988,-9.24824 c 0.78699,0.26267 1.31173,0.32811 1.57418,0.19677 l 0,1.96771 c -0.65599,0.13133 -1.11515,4e-5 -1.37736,-0.39354 -0.26268,-0.52464 -0.32811,-1.11496 -0.19677,-1.77094 m -77.92133,0.19677 c -0.13135,-0.78704 0.19677,-1.31174 0.98381,-1.57417 l 1.18068,0.78708 c -0.39355,0.26268 -1.1151,0.52479 -2.16449,0.78709 m 3.73866,-6.49346 c 0.52464,-1.57407 1.5085,-1.90204 2.95152,-0.98386 l 0,1.96771 c -1.70537,1.1e-4 -2.68922,-0.32761 -2.95152,-0.98385 m 4.32892,0 c 0.39353,-0.2622 0.72145,-0.45897 0.98384,-0.59032 0.26222,0.13135 0.45899,0.32812 0.59032,0.59032 l -1.57416,0 m -14.95461,-4.32896 1.57417,0 0,0.98384 c -0.52474,-0.13132 -1.04948,-0.45896 -1.57417,-0.98384 m 19.48039,-4.1322 0,-1.77094 c 0.39355,-0.52464 1.11496,-0.59022 2.16449,-0.19677 1.18052,0.39354 1.77083,0.2627 1.77089,-0.39354 -6e-5,-0.2622 -0.0654,-0.72141 -0.19677,-1.3774 0.78698,-0.52464 1.50849,-0.39355 2.16448,0.39354 -0.13135,0.13135 -0.19677,0.52484 -0.19677,1.18063 0.13134,0.52484 0.19677,0.85276 0.19677,0.98385 -0.13135,0.2627 -0.45897,0.39355 -0.98385,0.39355 0.39354,0.65598 0.26219,1.57426 -0.39355,2.75479 -1.83656,0.5248 -3.34517,-0.13133 -4.52569,-1.96771 m -21.25133,0.39354 1.57422,0.19678 c -0.26269,0.39354 -0.78714,0.72156 -1.57422,0.98385 l 0,-1.18063 m 33.64786,-2.75479 c -2.49246,0.13135 -4.13223,-0.39355 -4.91927,-1.57417 -0.13135,-0.39355 0.2622,-1.2461 1.18067,-2.55803 l 2.16448,0.39354 c -0.13135,0.2627 -9e-5,0.65599 0.39354,1.18063 l 0.78714,0 c 0.13135,0.13135 0.13135,0.52479 0,1.18063 -1e-4,0.52479 -1e-4,0.85276 0,0.98385 0.13135,0.2627 0.45896,0.39355 0.98381,0.39355 l 0.98385,0 0,1.18062 -1.57417,0 0,-1.18062 m -23.61254,-0.98386 c -0.26219,-1.31172 0.5247,-2.55793 2.36131,-3.73865 1.57412,-0.2622 2.75475,0.65598 3.54183,2.75479 -0.26221,0.78719 -0.91828,1.83662 -1.96771,3.14834 -0.78709,0.13135 -2.09891,-0.59021 -3.93543,-2.16448 m 52.93145,-0.59031 2.7548,0 c 0.13135,0.26219 -0.2627,0.78718 -1.18063,1.57417 -0.52479,0.13135 -0.9839,0.0659 -1.3774,-0.19678 -0.2627,-0.39354 -0.32812,-0.85255 -0.19677,-1.37739 m -10.62559,-2.16449 2.16449,0 0,1.18063 -2.16449,-0.39354 0,-0.78709 m -27.35119,-0.39354 c -0.2627,-0.78699 -0.19678,-1.31173 0.19677,-1.57417 0.52469,-0.39354 1.18058,-0.45897 1.96776,-0.19677 0.65584,1.57426 0.26219,2.36135 -1.18068,2.36125 -0.39354,10e-5 -0.72152,-0.19677 -0.98381,-0.59031 m 22.43192,-0.39354 c 0.13134,9e-5 0.32761,-0.19677 0.59031,-0.59032 0.39354,-0.52464 0.91813,-0.72141 1.57417,-0.59031 l -0.78714,1.96771 -1.37734,-0.78708 m -27.54802,0 1.57417,0 0,0.78708 -1.57417,0 0,-0.78708 m -16.13519,-0.19677 c -0.13133,-1.31173 0.26221,-1.96762 1.18058,-1.96771 l 1.57422,0.78708 c -0.65598,1.44307 -1.57422,1.83661 -2.7548,1.18063 m 38.96064,-1.96771 c -5e-5,9e-5 0.0654,-0.39354 0.19677,-1.18062 l 2.16448,0.39354 c 0.26221,0.65598 0.0654,1.37748 -0.59031,2.16447 -0.52478,0.13135 -0.98391,-0.0654 -1.37735,-0.59031 -0.26268,-0.52464 -0.39354,-0.78699 -0.39354,-0.78708 m 4.72257,-1.57417 0,-0.78708 c 1.31167,0.13135 2.82026,0.72161 4.52569,1.77094 -5e-5,9e-5 -0.91834,0.0659 -2.7548,0.19677 -1.04948,9e-5 -1.6398,-0.39354 -1.77089,-1.18063 m -12.00305,-0.78708 c -1e-4,-1.44288 1.18053,-1.77085 3.54183,-0.98386 0.26221,1.44308 -0.39354,2.16458 -1.96766,2.16449 -0.78718,9e-5 -1.31192,-0.39355 -1.57417,-1.18063 m -24.79321,-5.70637 c 0,-1.04934 -0.59031,-2.22996 -1.77095,-3.54188 -1.18063,-1.44288 -1.77094,-2.75469 -1.77094,-3.93542 0,-0.65579 0.13135,-1.3773 0.39354,-2.16449 -1.70541,-3.67293 -2.3613,-7.80513 -1.96776,-12.39658 0.13135,-1.18048 0.65589,-2.55788 1.57417,-4.1322 0.91824,-1.70522 1.44298,-3.08261 1.57422,-4.13219 0.2622,-1.04934 1.04938,-2.16434 2.36121,-3.3451 1.44297,-1.31168 2.36125,-2.36111 2.7548,-3.14834 1.31178,-0.39355 2.75473,-1.37726 4.32896,-2.95157 1.96767,-2.22992 3.21391,-3.47617 3.73866,-3.73867 1.57412,-1.57401 3.2139,-3.14817 4.91928,-4.7225 2.23006,-1.96755 4.32891,-2.95141 6.29667,-2.95157 1.04938,1.6e-4 2.16443,0.2627 3.34511,0.78709 0.39354,0.52489 0.59026,1.50875 0.59036,2.95157 -10e-5,2.09905 -10e-5,3.14848 0,3.14834 0.13135,1.04957 0.59022,1.70551 1.37735,1.96771 0.39354,2.09905 2.23002,3.41083 5.50959,3.93543 4.59126,0.91842 7.08371,1.44312 7.47731,1.57417 -5e-5,1.4e-4 -0.59037,1.18077 -1.77089,3.54188 -1.04958,1.4e-4 -2.49255,-0.32764 -4.32897,-0.98386 -1.70547,-0.65579 -3.01723,-0.98371 -3.93547,-0.98385 -0.78713,1.4e-4 -1.50864,0.13135 -2.16448,0.39354 -0.13135,1.44312 -5e-5,3.73879 0.39354,6.88698 0.5247,3.67319 0.78704,6.16564 0.78713,7.47731 -9e-5,0.91839 -0.0659,1.70546 -0.19677,2.36126 -5e-5,1.18071 -1.04947,4.13229 -3.14829,8.85469 -10e-5,0.78719 0.19677,1.18074 0.59031,1.18063 l 0.78704,0 c -1.31187,1.1e-4 -1.77099,0.72161 -1.37735,2.16449 -1.57427,0.39355 -3.4764,2.16457 -5.70642,5.31282 -1.96776,2.6237 -4.52577,3.67317 -7.67406,3.14834 -1.44303,1.31192 -3.60751,1.96781 -6.49346,1.96771 -4.19781,1e-4 -6.36229,-1.50849 -6.49344,-4.52574 m -16.92233,0.98386 c 0.2622,-1.04934 1.04944,-1.44288 2.36131,-1.18063 0.91824,0.26269 1.90209,0.52483 2.95152,0.78709 l 1.37745,0.98385 c -0.39355,1.04953 -1.31187,1.57427 -2.7548,1.57417 -2.09896,10e-5 -3.41074,-0.72141 -3.93548,-2.16448 m 39.35424,-1.96772 2.75479,0 c -5e-5,0.13134 -5e-5,0.52484 0,1.18063 -5e-5,0.52484 -0.19677,0.78718 -0.59031,0.78709 l -2.16448,-0.39354 0,-1.57418 m 51.75082,-9.64179 2.95157,0 c -0.52485,-0.13084 -0.7872,0.39355 -0.78709,1.57417 l -2.16448,-0.19677 0,-1.3774 m -39.94456,-17.7094 c -5e-5,-1.44288 0.39355,-2.16434 1.18064,-2.16448 l 0.98385,0 0,2.55802 -2.16449,-0.39354" />
  </g>
</svg>
