<?xml version="1.0" encoding="UTF-8" standalone="no"?>
<!-- Created with Inkscape (http://www.inkscape.org/) -->

<svg
   xmlns:dc="http://purl.org/dc/elements/1.1/"
   xmlns:cc="http://creativecommons.org/ns#"
   xmlns:rdf="http://www.w3.org/1999/02/22-rdf-syntax-ns#"
   xmlns:svg="http://www.w3.org/2000/svg"
   xmlns="http://www.w3.org/2000/svg"
   xmlns:sodipodi="http://sodipodi.sourceforge.net/DTD/sodipodi-0.dtd"
   xmlns:inkscape="http://www.inkscape.org/namespaces/inkscape"
   width="210.00233"
   height="210"
   id="svg2863"
   version="1.1"
   inkscape:version="0.47 r22583"
   sodipodi:docname="strange paw 2.svg">
  <defs
     id="defs2865" />
  <sodipodi:namedview
     id="base"
     pagecolor="#ffffff"
     bordercolor="#666666"
     borderopacity="1.0"
     inkscape:pageopacity="0.0"
     inkscape:pageshadow="2"
     inkscape:zoom="0.70710678"
     inkscape:cx="323.78062"
     inkscape:cy="124.8361"
     inkscape:document-units="px"
     inkscape:current-layer="layer1"
     showgrid="false"
     inkscape:window-width="1280"
     inkscape:window-height="949"
     inkscape:window-x="0"
     inkscape:window-y="24"
     inkscape:window-maximized="1" />
  <metadata
     id="metadata2868">
    <rdf:RDF>
      <cc:Work
         rdf:about="">
        <dc:format>image/svg+xml</dc:format>
        <dc:type
           rdf:resource="http://purl.org/dc/dcmitype/StillImage" />
        <dc:title />
      </cc:Work>
    </rdf:RDF>
  </metadata>
  <g
     inkscape:label="Layer 1"
     inkscape:groupmode="layer"
     id="layer1"
     transform="translate(-403.2848,-536.21951)">
    <path
       d="m 613.28713,641.22068 c 0,57.98622 -47.01029,104.99883 -105.00116,104.99883 -57.99086,0 -105.00117,-47.01261 -105.00117,-104.99883 0,-57.99088 47.01031,-105.00117 105.00117,-105.00117 57.99087,0 105.00116,47.01029 105.00116,105.00117"
       style="fill:#000000;fill-opacity:1;fill-rule:nonzero;stroke:none"
       id="path24" />
    <path
       style="font-size:40px;font-style:normal;font-variant:normal;font-weight:normal;font-stretch:normal;fill:#ffffff;fill-opacity:1;stroke:none;font-family:AnimalTracks;-inkscape-font-specification:AnimalTracks"
       d="m 471.72201,695.4045 c -3.12094,-9.31385 4.73412,-18.12403 13.17457,-20.94001 8.87732,-1.9664 13.38302,-9.54536 18.6401,-15.80295 6.67223,-3.74026 16.62853,-1.6407 19.88077,5.66408 4.21247,4.98374 7.83854,11.10654 16.80236,11.59682 4.8943,0.97291 12.37741,3.63964 11.88775,9.06908 1.29673,5.16859 -1.73283,9.63872 -4.326,14.30082 -4.94679,5.61652 -11.2984,11.09949 -18.5195,14.12515 -15.11108,5.1236 -32.38776,3.08917 -46.36931,-4.43287 -4.68124,-3.58169 -8.97057,-8.01832 -11.17074,-13.58012 z m -28.91252,-31.32189 c -6.21788,-6.33603 -9.74047,-16.46926 -9.14455,-24.69592 -0.15743,-7.59199 2.97583,-16.06684 8.92551,-21.41073 8.80298,-5.84296 13.25684,6.03628 16.3728,11.95104 4.44395,5.88966 12.7149,8.82511 11.69434,17.79653 1.16894,8.21009 -3.71044,16.24762 -11.09884,19.7122 -5.78368,2.68308 -11.76272,-0.41925 -16.74926,-3.35312 z M 543.78428,650.0644 c -3.56348,-6.89276 -3.34475,-16.26945 3.01508,-21.51578 6.52986,-4.3075 10.80398,-11.17832 16.53361,-15.939 7.09912,-4.73305 13.25653,2.54229 13.38853,9.39109 1.78715,2.05138 -1.38499,2.04671 0.57501,3.56543 -0.67715,4.87763 -0.66391,9.51759 -3.50455,14.86077 -4.80235,6.47673 -10.75412,14.2991 -19.68232,14.04554 -3.85077,-0.0725 -7.58582,-1.71706 -10.32536,-4.40805 z m -71.62421,-37.01679 c -1.44408,-7.92177 0.15494,-16.24217 4.73406,-23.05669 3.55816,-5.44197 5.64653,-9.26551 11.99642,-9.79842 4.54304,-0.21854 10.3273,-0.21675 11.4701,5.6402 3.82993,4.69583 -0.24665,11.59262 2.9023,18.45357 4.85446,5.02027 7.88695,12.45936 4.63048,19.6789 -2.36195,8.30657 -12.14889,10.81472 -19.72422,8.55863 -8.8475,-2.66451 -12.21817,-12.03103 -16.00914,-19.47619 z m 50.59692,10.95173 c -7.28583,-5.71353 -4.69621,-14.13801 -5.04468,-21.68435 -2.20686,-7.13917 -7.89958,-15.93641 -2.4607,-22.87878 6.50189,-5.40695 16.1059,-3.17529 21.78363,1.84466 5.43128,4.54342 8.7989,11.92669 10.69156,18.02242 0.80396,7.811 -1.30494,16.55081 -7.5584,21.60822 -4.95876,3.28203 -11.84725,7.71902 -17.41141,3.08783 z m 38.55002,-18.17983 c 0.45334,-4.6679 -0.58931,-9.15902 -0.16432,-14.29193 -2.13501,-4.34584 1.02621,-9.86144 4.29849,-3.87413 4.3175,5.4548 6.4822,14.05121 -1.20128,17.25915 0.14655,3.45851 -3.63196,6.70317 -2.93289,0.90691 z M 441.49529,601.2198 c -0.40084,-4.52114 6.43888,-17.84256 8.0495,-10.13032 1.98324,6.44366 -0.0276,13.18924 -7.48771,12.75205 -0.18727,-0.87392 -0.37452,-1.74783 -0.56179,-2.62173 z m 35.70257,-29.13157 c 0.16705,-6.74533 2.14623,-16.21361 7.93557,-19.49406 1.44044,3.69246 -0.371,11.39004 1.92098,14.5066 1.11717,4.51653 -7.06594,3.74632 -6.35199,8.05394 -1.77021,0.11069 -2.74623,-1.80229 -3.50456,-3.06648 z m 43.36878,-8.54234 c 1.07804,-7.53926 -1.26987,-17.16936 1.91648,-23.43657 3.86574,1.59008 5.37677,6.07674 6.3177,10.05489 0.33729,2.93555 3.06109,6.07257 1.18429,8.78198 -2.48736,1.47438 -5.93566,2.46856 -7.22812,6.57102 -1.2835,0.4301 -3.02095,-0.39959 -2.19035,-1.97132 z"
       id="path2837" />
  </g>
</svg>
