<?xml version="1.0" encoding="UTF-8" standalone="no"?>
<svg
   xmlns:dc="http://purl.org/dc/elements/1.1/"
   xmlns:cc="http://creativecommons.org/ns#"
   xmlns:rdf="http://www.w3.org/1999/02/22-rdf-syntax-ns#"
   xmlns:svg="http://www.w3.org/2000/svg"
   xmlns="http://www.w3.org/2000/svg"
   xmlns:sodipodi="http://sodipodi.sourceforge.net/DTD/sodipodi-0.dtd"
   xmlns:inkscape="http://www.inkscape.org/namespaces/inkscape"
   width="225"
   height="80"
   id="svg2"
   sodipodi:version="0.32"
   inkscape:version="0.48.0 r9654"
   sodipodi:docname="Wiki_c.svg"
   inkscape:output_extension="org.inkscape.output.svg.inkscape"
   version="1.1"
   inkscape:export-filename="/home/serioga/Buffer/Wiki_c.png"
   inkscape:export-xdpi="90"
   inkscape:export-ydpi="90">
  <metadata
     id="metadata21">
    <rdf:RDF>
      <cc:Work
         rdf:about="">
        <dc:format>image/svg+xml</dc:format>
        <dc:type
           rdf:resource="http://purl.org/dc/dcmitype/StillImage" />
        <dc:title></dc:title>
      </cc:Work>
    </rdf:RDF>
  </metadata>
  <defs
     id="defs19">
    <inkscape:perspective
       sodipodi:type="inkscape:persp3d"
       inkscape:vp_x="0 : 78 : 1"
       inkscape:vp_y="0 : 1000 : 0"
       inkscape:vp_z="247 : 78 : 1"
       inkscape:persp3d-origin="123.5 : 52 : 1"
       id="perspective23" />
    <inkscape:perspective
       id="perspective2827"
       inkscape:persp3d-origin="0.5 : 0.33333333 : 1"
       inkscape:vp_z="1 : 0.5 : 1"
       inkscape:vp_y="0 : 1000 : 0"
       inkscape:vp_x="0 : 0.5 : 1"
       sodipodi:type="inkscape:persp3d" />
    <inkscape:perspective
       id="perspective2841"
       inkscape:persp3d-origin="0.5 : 0.33333333 : 1"
       inkscape:vp_z="1 : 0.5 : 1"
       inkscape:vp_y="0 : 1000 : 0"
       inkscape:vp_x="0 : 0.5 : 1"
       sodipodi:type="inkscape:persp3d" />
    <inkscape:perspective
       id="perspective2865"
       inkscape:persp3d-origin="0.5 : 0.33333333 : 1"
       inkscape:vp_z="1 : 0.5 : 1"
       inkscape:vp_y="0 : 1000 : 0"
       inkscape:vp_x="0 : 0.5 : 1"
       sodipodi:type="inkscape:persp3d" />
    <inkscape:perspective
       id="perspective2887"
       inkscape:persp3d-origin="0.5 : 0.33333333 : 1"
       inkscape:vp_z="1 : 0.5 : 1"
       inkscape:vp_y="0 : 1000 : 0"
       inkscape:vp_x="0 : 0.5 : 1"
       sodipodi:type="inkscape:persp3d" />
    <inkscape:perspective
       id="perspective2930"
       inkscape:persp3d-origin="0.5 : 0.33333333 : 1"
       inkscape:vp_z="1 : 0.5 : 1"
       inkscape:vp_y="0 : 1000 : 0"
       inkscape:vp_x="0 : 0.5 : 1"
       sodipodi:type="inkscape:persp3d" />
  </defs>
  <sodipodi:namedview
     inkscape:window-height="949"
     inkscape:window-width="1280"
     inkscape:pageshadow="2"
     inkscape:pageopacity="0.0"
     guidetolerance="10.0"
     gridtolerance="10.0"
     objecttolerance="10.0"
     borderopacity="1.0"
     bordercolor="#666666"
     pagecolor="#ffffff"
     id="base"
     showgrid="true"
     inkscape:zoom="2"
     inkscape:cx="130.34962"
     inkscape:cy="44.914667"
     inkscape:window-x="0"
     inkscape:window-y="24"
     inkscape:current-layer="layer1"
     inkscape:window-maximized="1" />
  <g
     inkscape:groupmode="layer"
     id="layer1"
     inkscape:label="Слой"
     transform="translate(-48.791012,-43.929306)"
     style="display:inline">
    <g
       id="g4"
       style="fill:#40469c;fill-opacity:1"
       transform="matrix(0.45505202,0,0,0.45505202,106.70036,49.169918)">
      <path
         d="m 157.954,103.56 c -5.108,10.62 -4.441,22.354 2.734,29.803 9.875,10.251 28.325,8.499 41.207,-3.911 7.766,-7.481 11.615,-17.162 11.615,-25.892 0,-8.73 -3.849,-18.411 -11.615,-25.892 -12.882,-12.41 -31.332,-14.162 -41.207,-3.911 -7.175,7.449 -7.842,19.183 -2.734,29.803 m 10.316,0 C 166,98.83 166.2,93.72 169.5,90.3 c 4.4,-4.56 12.5,-3.86 18.33,1.75 3.18,3.06 5.17,7.63 5.17,11.51 0,3.88 -1.99,8.45 -5.17,11.51 -5.83,5.61 -13.93,6.31 -18.33,1.75 -3.3,-3.42 -3.5,-8.53 -1.23,-13.26 M 188.82,89.3 a 6.8219233,4.8013537 32.9 0 1 5.22,-8.06 6.8219233,4.8013537 32.9 0 1 -5.22,8.06 m 9.67,11.63 a 6.8219233,4.8013537 32.9 0 1 5.22,-8.06 6.8219233,4.8013537 32.9 0 1 -5.22,8.06 m 0,5.26 a 6.8219233,4.8013537 -32.9 0 1 5.22,8.06 6.8219233,4.8013537 -32.9 0 1 -5.22,-8.06 m -9.67,11.63 a 6.8219233,4.8013537 -32.9 0 1 5.22,8.06 6.8219233,4.8013537 -32.9 0 1 -5.22,-8.06"
         id="path6"
         style="fill:#40469c;fill-opacity:1"
         inkscape:connector-curvature="0" />
      <ellipse
         d="M 10.8,0 C 10.8,8.4610022 5.9646754,15.32 0,15.32 -5.9646754,15.32 -10.8,8.4610022 -10.8,0 c 0,-8.4610022 4.8353246,-15.32 10.8,-15.32 5.9646754,0 10.8,6.8589978 10.8,15.32 z"
         sodipodi:ry="15.32"
         sodipodi:rx="10.8"
         sodipodi:cy="0"
         sodipodi:cx="0"
         cy="0"
         cx="0"
         rx="10.8"
         ry="15.32"
         transform="matrix(-0.54317445,0.83961986,-0.83961986,-0.54317445,210.34,62.12)"
         id="ellipse8"
         style="fill:#40469c;fill-opacity:1" />
      <ellipse
         d="M 10.8,0 C 10.8,8.4610022 5.9646754,15.32 0,15.32 -5.9646754,15.32 -10.8,8.4610022 -10.8,0 c 0,-8.4610022 4.8353246,-15.32 10.8,-15.32 5.9646754,0 10.8,6.8589978 10.8,15.32 z"
         sodipodi:ry="15.32"
         sodipodi:rx="10.8"
         sodipodi:cy="0"
         sodipodi:cx="0"
         cy="0"
         cx="0"
         rx="10.8"
         ry="15.32"
         transform="matrix(-0.54317445,0.83961986,-0.83961986,-0.54317445,232.11,88.23)"
         id="ellipse10"
         style="fill:#40469c;fill-opacity:1" />
      <ellipse
         d="M 10.8,0 C 10.8,8.4610022 5.9646754,15.32 0,15.32 -5.9646754,15.32 -10.8,8.4610022 -10.8,0 c 0,-8.4610022 4.8353246,-15.32 10.8,-15.32 5.9646754,0 10.8,6.8589978 10.8,15.32 z"
         sodipodi:ry="15.32"
         sodipodi:rx="10.8"
         sodipodi:cy="0"
         sodipodi:cx="0"
         cy="0"
         cx="0"
         rx="10.8"
         ry="15.32"
         transform="matrix(-0.54317445,-0.83961986,0.83961986,-0.54317445,232.11,118.89)"
         id="ellipse12"
         style="fill:#40469c;fill-opacity:1" />
      <ellipse
         d="M 10.8,0 C 10.8,8.4610022 5.9646754,15.32 0,15.32 -5.9646754,15.32 -10.8,8.4610022 -10.8,0 c 0,-8.4610022 4.8353246,-15.32 10.8,-15.32 5.9646754,0 10.8,6.8589978 10.8,15.32 z"
         sodipodi:ry="15.32"
         sodipodi:rx="10.8"
         sodipodi:cy="0"
         sodipodi:cx="0"
         cy="0"
         cx="0"
         rx="10.8"
         ry="15.32"
         transform="matrix(-0.54317445,-0.83961986,0.83961986,-0.54317445,210.34,143)"
         id="ellipse14"
         style="fill:#40469c;fill-opacity:1" />
    </g>
    <path
       d="m 131.6284,59.403979 3.39386,-0.565643 0,1.65922 -1.47067,0.150837 -0.41481,0.905027 3.28073,9.42738 4.29888,-11.803079 1.20671,0.301676 3.5447,11.916207 3.69553,-9.427378 -0.3771,-1.282124 -1.39525,-0.263966 0.71649,-1.432961 2.79049,0.490222 2.48884,-0.527932 0.33938,1.395252 -1.35755,0.263967 -1.31982,1.357542 -6.67458,16.139673 -3.95951,-12.293302 -4.90224,12.255593 -6.44833,-17.23325 -1.54609,-0.301675 0.0754,-1.244415 4.03492,0.113129 m 26.8592,-10.671793 2.45112,3.280729 -2.90363,2.375698 -2.22485,-2.677375 2.67736,-2.979052 m -4.22346,11.953916 2.97906,-0.905029 2.41339,-1.357541 1.01816,0.678771 -0.56564,14.141068 1.09358,1.357542 1.2067,0.716481 -0.15083,1.244414 -3.69553,-0.490223 -4.26118,0.188547 0.30167,-1.621509 1.5461,-0.188547 0.86731,-1.62151 -0.30167,-9.578217 -1.13128,-1.282123 -0.7919,0.226258 -0.52794,-1.508382 m 9.91406,-10.898049 2.48884,-0.377095 2.0363,-1.395252 0.86732,0.64106 -0.56564,14.178779 0.11314,3.469275 3.39385,-4.374303 -0.0754,-0.82961 -0.67878,-0.07543 -0.30167,-1.659218 3.5824,0.226257 4.48743,-0.716481 0,1.62151 -1.84775,0.188547 -3.28074,1.847766 -2.7905,3.393857 0.30168,-0.03771 5.9958,7.504194 1.81007,1.54609 0.94274,0.03771 -0.11314,1.093575 -2.8282,0.603353 -3.16761,-1.998604 -4.90223,-7.013971 -0.26397,0.339385 0,5.694139 0.60334,0.942736 1.47068,0.188548 0,1.432961 -3.84637,-0.339384 -3.46928,0.414803 -0.30167,-1.357541 1.54608,-0.603353 0.45252,-1.621509 0.15083,0.113129 0,-20.061463 -1.01815,-1.47067 -0.52792,-0.113129 -0.26398,-1.432961 m 20.89755,-1.055867 2.45113,3.280728 -2.90365,2.375698 -2.22486,-2.677374 2.67738,-2.979052 m -4.22346,11.953916 2.97905,-0.905029 2.4134,-1.357541 1.01816,0.67877 -0.56563,14.141069 1.09357,1.357542 1.2067,0.716481 -0.15084,1.244413 -3.69552,-0.490223 -4.26118,0.188547 0.30167,-1.621509 1.54609,-0.188547 0.86731,-1.621509 -0.30166,-9.578218 -1.13128,-1.282123 -0.7919,0.226257 -0.52794,-1.50838"
       id="wiki"
       inkscape:connector-curvature="0" />
    <path
       d="m 106.98601,108.36404 2.13818,-0.62889 1.6351,-2.5784 -0.44022,-18.300382 -4.90526,-0.125776 0,-2.515517 4.77949,-2.641293 0.88043,-8.112541 4.52792,-7.609439 6.22591,-2.138189 2.51552,0.188664 3.89905,3.27017 -4.52794,4.024828 -3.77327,-4.024828 -2.32685,0.754656 -1.88664,5.597025 0,9.307413 5.09392,-0.125777 0.31445,3.899052 -5.15682,0.125776 0.37733,17.671508 0,-0.12578 0.56599,2.76707 3.71039,1.13198 -0.25156,2.51552 -6.66611,-0.75465 -7.23212,0.56599 0.50311,-2.13819 m 15.74949,-26.475819 5.03103,0.440217 4.84238,-0.94332 0,20.501462 2.95573,4.52793 4.52793,0 3.96194,-2.57841 -0.62888,-0.44021 0,-16.413746 -1.44642,-1.82375 -2.57841,-0.503103 -0.37733,-2.641293 5.09392,0.377328 5.91146,-0.94332 -0.50309,13.58379 0,10.690944 1.13199,1.00621 2.45262,-0.5031 -0.37733,2.89284 -4.33926,0.18867 -4.71661,1.94953 -0.18865,-4.46505 -4.02483,2.6413 -6.03725,1.25775 -5.91146,-3.20728 -0.88043,-11.194055 0,-9.118748 -1.63508,-2.012413 -1.63509,-0.628879 -0.62888,-2.641294 m 33.25592,2.76707 3.58462,-1.006207 3.96193,-2.641294 1.32065,1.194871 -0.566,5.78569 3.2073,-4.653706 4.27636,-2.201078 3.77328,4.339266 -4.40215,4.402155 -2.38974,-2.767068 -2.95573,2.201077 -1.13198,4.653704 -0.12578,-0.06288 0,11.068273 1.63508,2.32685 3.52173,0.94333 0.12578,2.20107 -7.67233,-0.62888 -6.22591,0.81755 -0.12576,-2.38974 2.38973,-0.75466 1.25776,-2.70419 -0.50311,-16.099301 -1.63508,-1.760861 -1.19487,0 -0.12578,-2.263965"
       id="fur"
       inkscape:connector-curvature="0" />
  </g>
</svg>
