<?xml version="1.0" encoding="UTF-8" standalone="no"?>
<!-- Created with Inkscape (http://www.inkscape.org/) -->

<svg
   xmlns:svg="http://www.w3.org/2000/svg"
   xmlns="http://www.w3.org/2000/svg"
   xmlns:xlink="http://www.w3.org/1999/xlink"
   version="1.1"
   width="48"
   height="48"
   id="svg7368">
  <defs
     id="defs7370">
    <linearGradient
       id="linearGradient6778">
      <stop
         id="stop6780"
         style="stop-color:#ffffff;stop-opacity:1"
         offset="0" />
      <stop
         id="stop6782"
         style="stop-color:#ffffff;stop-opacity:0"
         offset="1" />
    </linearGradient>
    <linearGradient
       x1="25"
       y1="20.985353"
       x2="25.026558"
       y2="40"
       id="linearGradient6784"
       xlink:href="#linearGradient6778"
       gradientUnits="userSpaceOnUse"
       gradientTransform="translate(-1.3577825e-6,-0.9999999)" />
    <linearGradient
       x1="71.999496"
       y1="14.2578"
       x2="71.999496"
       y2="19.9583"
       id="linearGradient10176"
       gradientUnits="userSpaceOnUse"
       gradientTransform="matrix(1.0033404,0,0,1,-8.2374684,8)">
      <stop
         id="stop10178"
         style="stop-color:#feebd6;stop-opacity:0"
         offset="0.00445589" />
      <stop
         id="stop10180"
         style="stop-color:#f5f5f5;stop-opacity:0.52999997"
         offset="0.46138024" />
      <stop
         id="stop10182"
         style="stop-color:#f5f5f5;stop-opacity:0"
         offset="1" />
    </linearGradient>
    <linearGradient
       x1="7.2379346"
       y1="36.005047"
       x2="132.86028"
       y2="35.857735"
       id="linearGradient9649"
       xlink:href="#linearGradient10176"
       gradientUnits="userSpaceOnUse"
       gradientTransform="matrix(0.4550303,0,0,0.942809,-5.4003743,-18.279212)" />
    <linearGradient
       id="linearGradient9087">
      <stop
         id="stop9089"
         style="stop-color:#c80c0c;stop-opacity:1"
         offset="0" />
      <stop
         id="stop9091"
         style="stop-color:#a40000;stop-opacity:1"
         offset="1" />
    </linearGradient>
    <linearGradient
       x1="163.02567"
       y1="17"
       x2="162.99203"
       y2="45"
       id="linearGradient9647"
       xlink:href="#linearGradient9087"
       gradientUnits="userSpaceOnUse"
       gradientTransform="translate(-134,-2.9999999)" />
    <linearGradient
       id="linearGradient9073">
      <stop
         id="stop9075"
         style="stop-color:#fb5353;stop-opacity:1"
         offset="0" />
      <stop
         id="stop9077"
         style="stop-color:#c80c0c;stop-opacity:1"
         offset="1" />
    </linearGradient>
    <linearGradient
       x1="28.272148"
       y1="324.68878"
       x2="28.272144"
       y2="409.09872"
       id="linearGradient9645"
       xlink:href="#linearGradient9073"
       gradientUnits="userSpaceOnUse"
       gradientTransform="matrix(0.3515659,0,0,0.3552688,14.060478,-103.34001)" />
    <linearGradient
       x1="71.999496"
       y1="14.2578"
       x2="71.999496"
       y2="19.9583"
       id="linearGradient9101"
       gradientUnits="userSpaceOnUse"
       gradientTransform="matrix(1.0033404,0,0,1,-8.2374684,8)">
      <stop
         id="stop9103"
         style="stop-color:#df5757;stop-opacity:0"
         offset="0.25" />
      <stop
         id="stop9105"
         style="stop-color:#c80c0c;stop-opacity:1"
         offset="1" />
    </linearGradient>
    <linearGradient
       x1="71.999496"
       y1="14.2578"
       x2="71.999496"
       y2="19.9583"
       id="linearGradient9133"
       xlink:href="#linearGradient9101"
       gradientUnits="userSpaceOnUse"
       gradientTransform="matrix(0.3707962,0,0,0.1666666,-2.6965833,10.666667)" />
    <radialGradient
       cx="605.71429"
       cy="486.64789"
       r="117.14286"
       fx="605.71429"
       fy="486.64789"
       id="radialGradient2099"
       xlink:href="#linearGradient5060"
       gradientUnits="userSpaceOnUse"
       gradientTransform="matrix(-2.774389,0,0,1.969706,112.7623,-872.8854)" />
    <linearGradient
       id="linearGradient5060">
      <stop
         id="stop5062"
         style="stop-color:#000000;stop-opacity:1"
         offset="0" />
      <stop
         id="stop5064"
         style="stop-color:#000000;stop-opacity:0"
         offset="1" />
    </linearGradient>
    <radialGradient
       cx="605.71429"
       cy="486.64789"
       r="117.14286"
       fx="605.71429"
       fy="486.64789"
       id="radialGradient2097"
       xlink:href="#linearGradient5060"
       gradientUnits="userSpaceOnUse"
       gradientTransform="matrix(2.774389,0,0,1.969706,-1891.633,-872.8854)" />
    <linearGradient
       id="linearGradient5048">
      <stop
         id="stop5050"
         style="stop-color:#000000;stop-opacity:0"
         offset="0" />
      <stop
         id="stop5056"
         style="stop-color:#000000;stop-opacity:1"
         offset="0.5" />
      <stop
         id="stop5052"
         style="stop-color:#000000;stop-opacity:0"
         offset="1" />
    </linearGradient>
    <linearGradient
       x1="302.85715"
       y1="366.64789"
       x2="302.85715"
       y2="609.50507"
       id="linearGradient2095"
       xlink:href="#linearGradient5048"
       gradientUnits="userSpaceOnUse"
       gradientTransform="matrix(2.774389,0,0,1.969706,-1892.179,-872.8854)" />
    <linearGradient
       id="linearGradient17648">
      <stop
         id="stop17650"
         style="stop-color:#ffffff;stop-opacity:0.60000002"
         offset="0" />
      <stop
         id="stop17652"
         style="stop-color:#ffffff;stop-opacity:0"
         offset="1" />
    </linearGradient>
    <linearGradient
       x1="23.959301"
       y1="10"
       x2="23.984924"
       y2="41.999912"
       id="linearGradient17646"
       xlink:href="#linearGradient17648"
       gradientUnits="userSpaceOnUse"
       gradientTransform="translate(-3.3577825e-6,-0.9999359)" />
    <linearGradient
       id="linearGradient6293">
      <stop
         id="stop6295"
         style="stop-color:#888a85;stop-opacity:1"
         offset="0" />
      <stop
         id="stop6297"
         style="stop-color:#555753;stop-opacity:0"
         offset="1" />
    </linearGradient>
    <linearGradient
       x1="25.0625"
       y1="8.9999352"
       x2="25.0625"
       y2="28.082869"
       id="linearGradient17644"
       xlink:href="#linearGradient6293"
       gradientUnits="userSpaceOnUse"
       gradientTransform="translate(-3.3577825e-6,-0.9999359)" />
    <linearGradient
       x1="-172.65306"
       y1="99.667191"
       x2="-166.63983"
       y2="93.653961"
       id="linearGradient2767-168"
       xlink:href="#linearGradient11114-935"
       gradientUnits="userSpaceOnUse"
       gradientTransform="translate(258.94136,-13.269885)" />
    <linearGradient
       id="linearGradient11114-935">
      <stop
         id="stop3012"
         style="stop-color:#242424;stop-opacity:0.99215686"
         offset="0" />
      <stop
         id="stop3014"
         style="stop-color:#656565;stop-opacity:1"
         offset="1" />
    </linearGradient>
    <linearGradient
       x1="277.573"
       y1="146.1507"
       x2="201.87128"
       y2="67.350082"
       id="linearGradient2769-669"
       xlink:href="#linearGradient12093-430"
       gradientUnits="userSpaceOnUse"
       gradientTransform="translate(-127.09317,-2.645081)" />
    <linearGradient
       id="linearGradient12093-430">
      <stop
         id="stop3018"
         style="stop-color:#ffffff;stop-opacity:1"
         offset="0" />
      <stop
         id="stop3020"
         style="stop-color:#ffffff;stop-opacity:0"
         offset="1" />
    </linearGradient>
    <filter
       color-interpolation-filters="sRGB"
       id="filter13078">
      <feGaussianBlur
         stdDeviation="0.66072995"
         id="feGaussianBlur13080" />
    </filter>
    <radialGradient
       cx="7.2646537"
       cy="8.3021259"
       r="20.979567"
       fx="7.2646537"
       fy="8.3021259"
       id="radialGradient2771-882"
       xlink:href="#linearGradient6087-437-184-795-110-662-495-447"
       gradientUnits="userSpaceOnUse"
       gradientTransform="matrix(0,1.2079744,-1.6271642,0,26.371748,8.2664685)" />
    <linearGradient
       id="linearGradient6087-437-184-795-110-662-495-447">
      <stop
         id="stop3024"
         style="stop-color:#ffffff;stop-opacity:0.40000001"
         offset="0" />
      <stop
         id="stop3026"
         style="stop-color:#ffffff;stop-opacity:0"
         offset="1" />
    </linearGradient>
    <radialGradient
       cx="15.414371"
       cy="13.078408"
       r="6.65625"
       fx="15.414371"
       fy="13.078408"
       id="radialGradient2773-3"
       xlink:href="#linearGradient4467-844"
       gradientUnits="userSpaceOnUse"
       gradientTransform="matrix(2.0709796,0,0,1.6093623,-75.801052,-6.777836)" />
    <linearGradient
       id="linearGradient4467-844">
      <stop
         id="stop3030"
         style="stop-color:#ffffff;stop-opacity:1"
         offset="0" />
      <stop
         id="stop3032"
         style="stop-color:#ffffff;stop-opacity:0.24761905"
         offset="1" />
    </linearGradient>
    <linearGradient
       x1="173.09576"
       y1="75.31868"
       x2="173.09576"
       y2="11.949074"
       id="linearGradient2775-524"
       xlink:href="#linearGradient2300-705"
       gradientUnits="userSpaceOnUse"
       gradientTransform="matrix(0.272289,0,0,0.272289,-88.49468,7.5340783)" />
    <linearGradient
       id="linearGradient2300-705">
      <stop
         id="stop3036"
         style="stop-color:#343434;stop-opacity:0.97647059"
         offset="0" />
      <stop
         id="stop3038"
         style="stop-color:#939393;stop-opacity:1"
         offset="1" />
    </linearGradient>
    <linearGradient
       x1="41.541653"
       y1="68.291702"
       x2="41.485142"
       y2="4.5362983"
       id="linearGradient2777-535"
       xlink:href="#linearGradient11104-748"
       gradientUnits="userSpaceOnUse"
       gradientTransform="matrix(0.272289,0,0,0.272289,-53.175758,9.5832993)" />
    <linearGradient
       id="linearGradient11104-748">
      <stop
         id="stop3042"
         style="stop-color:#333333;stop-opacity:1"
         offset="0" />
      <stop
         id="stop3044"
         style="stop-color:#333333;stop-opacity:0.6122449"
         offset="1" />
    </linearGradient>
    <linearGradient
       x1="82.453476"
       y1="45.114193"
       x2="65.340263"
       y2="15.943953"
       id="linearGradient2779-673"
       xlink:href="#linearGradient3390-178-986-453-714"
       gradientUnits="userSpaceOnUse"
       gradientTransform="translate(-53.765393,-0.1141929)" />
    <linearGradient
       id="linearGradient3390-178-986-453-714">
      <stop
         id="stop3048"
         style="stop-color:#666666;stop-opacity:1"
         offset="0" />
      <stop
         id="stop3050"
         style="stop-color:#808080;stop-opacity:1"
         offset="1" />
    </linearGradient>
    <filter
       color-interpolation-filters="sRGB"
       id="filter10131">
      <feGaussianBlur
         stdDeviation="0.31195313"
         id="feGaussianBlur10133" />
    </filter>
    <linearGradient
       x1="82.453476"
       y1="45.114193"
       x2="65.340263"
       y2="15.943953"
       id="linearGradient2960"
       xlink:href="#linearGradient3390-178-986-453-714"
       gradientUnits="userSpaceOnUse"
       gradientTransform="translate(-53.765393,-0.1141929)" />
  </defs>
  <g
     id="layer1">
    <path
       d="m 44.5,13.499999 c 0.0096,-1.493852 -0.492188,-1.999935 -2,-1.999935 l -23,0 L 17,9.0000631 c -0.266276,-0.259404 -0.623516,-0.500065 -1,-0.500065 l -10.5000044,0 c -1.487341,0 -2.03125,0.516469 -2,2.0000019 l 0,31 41.0000044,0 0,-28.000001 z"
       id="path15"
       style="fill:#eeeeec;fill-opacity:1;stroke:url(#linearGradient17644);stroke-width:0.99986976;stroke-miterlimit:4;stroke-dasharray:none" />
    <path
       d="m 43.5,13.500063 c -0.0081,-0.913513 -0.05544,-0.988951 -1,-1 l -23.5,0 -2.5,-2.499999 C 16.060821,9.3837561 15.95093,9.5313131 15,9.5000631 l -10.0000054,0 c -0.714351,0 -0.5,0.312316 -0.5,1.0000009 L 4.4999956,40.5 43.5,40.5 l 0,-26.999937 z"
       id="path7263"
       style="fill:none;stroke:url(#linearGradient17646);stroke-width:0.9999525;stroke-miterlimit:4;stroke-opacity:1;stroke-dasharray:none" />
    <g
       transform="matrix(0.02364027,0,0,0.02195013,45.026494,37.807815)"
       id="g13071"
       style="display:inline">
      <rect
         width="1339.6335"
         height="478.35718"
         x="-1559.2523"
         y="-150.69685"
         id="rect13073"
         style="opacity:0.40206185;fill:url(#linearGradient2095);fill-opacity:1;fill-rule:nonzero;stroke:none;stroke-width:1;marker:none;visibility:visible;display:inline;overflow:visible" />
      <path
         d="m -219.61876,-150.68038 c 0,0 0,478.33079 0,478.33079 142.874166,0.90045 345.40022,-107.16966 345.40014,-239.196175 0,-132.026537 -159.436816,-239.134595 -345.40014,-239.134615 z"
         id="path13075"
         style="opacity:0.40206185;fill:url(#radialGradient2097);fill-opacity:1;fill-rule:nonzero;stroke:none;stroke-width:1;marker:none;visibility:visible;display:inline;overflow:visible" />
      <path
         d="m -1559.2523,-150.68038 c 0,0 0,478.33079 0,478.33079 -142.8742,0.90045 -345.4002,-107.16966 -345.4002,-239.196175 0,-132.026537 159.4368,-239.134595 345.4002,-239.134615 z"
         id="path13077"
         style="opacity:0.40206185;fill:url(#radialGradient2099);fill-opacity:1;fill-rule:nonzero;stroke:none;stroke-width:1;marker:none;visibility:visible;display:inline;overflow:visible" />
    </g>
    <path
       d="m 4.0007376,13 c 0.00309,0.291666 0.00618,0.625833 0.00926,1 l 39.9807344,0 c 0.0031,-0.374167 0.0062,-0.708334 0.0093,-1 l -40.0000034,0 7.41e-4,0 z"
       id="path39053"
       style="opacity:0.5;fill:url(#linearGradient9133);fill-opacity:1;display:inline;enable-background:new" />
    <path
       d="m 45.25,40.5 c -0.03037,0.585484 -0.66795,1.000209 -1.25,1.000209 l -40.0000024,0 c -0.58204,0 -1.21931,-0.414725 -1.25,-1.000209 l -1.25,-25 c -0.04234,-0.584417 0.41795,-1.000209 1,-1.000209 l 43.0000024,0 c 0.58205,0 1.04444,0.415792 1,1.000209 l -1.25,25 0,0 z"
       id="path39063"
       style="opacity:0.9;fill:url(#linearGradient9645);fill-opacity:1;stroke:url(#linearGradient9647);stroke-width:0.99958181;stroke-miterlimit:4;stroke-dasharray:none;display:inline;enable-background:new" />
    <rect
       width="44"
       height="1"
       rx="0"
       ry="0"
       x="1.9999964"
       y="15.000001"
       id="rect3521-5"
       style="fill:url(#linearGradient9649);fill-opacity:1;stroke:none;display:inline;enable-background:new" />
    <g
       transform="translate(69.543475,8.4998995)"
       id="g2664">
      <g
         transform="matrix(0.272289,0,0,0.272289,-54.190059,8.0618533)"
         id="g20913">
        <path
           d="m 73.007297,61.163396 44.712723,41.613814 -6.19781,8.41129 -44.550783,-45.015017 6.03587,-5.010087 z"
           id="path11112"
           style="fill:url(#linearGradient2767-168);fill-opacity:1;fill-rule:evenodd;stroke:#333333;stroke-width:1px;stroke-linecap:round;stroke-linejoin:round;stroke-opacity:1" />
        <path
           d="M 110.63681,109.41771 74.7781,64.704998 l 43.38462,38.072212 -7.52591,6.6405 z"
           id="path11122"
           style="fill:url(#linearGradient2769-669);fill-opacity:1;fill-rule:evenodd;stroke:none;filter:url(#filter13078)" />
        <path
           d="m 248.35479,110.29199 a 5.3124018,2.6562009 0 1 1 -10.6248,0 5.3124018,2.6562009 0 1 1 10.6248,0 z"
           transform="matrix(0.7127002,-0.7965472,0.7965472,0.7127002,-146.21519,222.13969)"
           id="path13082"
           style="fill:#3e3e3e;fill-opacity:1;stroke:none" />
      </g>
      <path
         d="m 25.897786,18.478292 a 8.3085051,8.3085051 0 1 1 -16.61701,0 8.3085051,8.3085051 0 1 1 16.61701,0 z"
         transform="matrix(1.0040995,0,0,0.9796836,-58.601963,0.9474585)"
         id="path4452"
         style="fill:url(#radialGradient2771-882);fill-opacity:1;fill-rule:evenodd;stroke:none;stroke-width:1.07456946;marker:none;visibility:visible" />
      <path
         d="m -41.284234,12.043182 c -4.159261,0 -7.527314,3.013454 -7.527314,6.734818 0,1.074746 0.335699,2.063614 0.836368,2.965537 1.000266,0.32987 2.06283,0.554306 3.19059,0.554306 4.928695,0 8.864912,-3.474145 9.169073,-7.815715 -1.382507,-1.461745 -3.362525,-2.438946 -5.668717,-2.438946 z"
         id="path4462"
         style="opacity:0.6;fill:url(#radialGradient2773-3);fill-opacity:1;fill-rule:evenodd;stroke:none;stroke-width:1;marker:none;visibility:visible;display:inline;overflow:visible" />
      <path
         d="m -41.123977,10.922062 c -5.123534,0 -9.283356,3.835788 -9.283353,8.560086 0,4.724296 4.159819,8.560084 9.283353,8.560085 5.123531,0 9.283353,-3.835789 9.283353,-8.560085 0,-4.724298 -4.159819,-8.560086 -9.283353,-8.560086 z m 0.110617,0.561596 c 4.585595,0 8.313324,3.429852 8.313324,7.658128 0,4.228276 -3.727729,7.658128 -8.313324,7.658128 -4.585597,10e-7 -8.304814,-3.429851 -8.304814,-7.658128 0,-4.228276 3.719217,-7.658128 8.304814,-7.658128 z"
         id="path2298"
         style="fill:url(#linearGradient2775-524);fill-opacity:1;stroke:url(#linearGradient2777-535);stroke-width:0.27228901;stroke-linecap:round;stroke-linejoin:round;stroke-miterlimit:4;stroke-opacity:1;stroke-dasharray:none" />
      <path
         d="m 48.577332,9.920532 c -17.91993,0 -32.4375,13.413928 -32.4375,29.937501 0,16.523571 14.51756,29.937502 32.4375,29.9375 17.91993,0 32.46875,-13.413931 32.46875,-29.9375 0,-16.523572 -14.54883,-29.937501 -32.46875,-29.937501 z m 0.1875,1.15625 c 16.84091,0 30.53125,12.596366 30.53125,28.125001 0,15.528632 -13.69034,28.125 -30.53125,28.125 -16.84092,2e-6 -30.5,-12.596366 -30.5,-28.125 0,-15.528635 13.65908,-28.125001 30.5,-28.125001 z"
         transform="matrix(0.272289,0,0,0.272289,-54.291487,8.4675723)"
         id="path4267"
         style="fill:url(#linearGradient2960);fill-opacity:1;stroke:none;display:inline;filter:url(#filter10131)" />
    </g>
  </g>
</svg>
