<?xml version="1.0" encoding="UTF-8" standalone="no"?>
<!-- Created with Inkscape (http://www.inkscape.org/) -->

<svg
   xmlns:svg="http://www.w3.org/2000/svg"
   xmlns="http://www.w3.org/2000/svg"
   xmlns:xlink="http://www.w3.org/1999/xlink"
   version="1.1"
   width="48"
   height="48"
   id="svg2932">
  <defs
     id="defs2934">
    <linearGradient
       x1="294.20959"
       y1="6.3851075"
       x2="296.40414"
       y2="9.8281822"
       id="linearGradient8576"
       xlink:href="#XMLID_897_"
       gradientUnits="userSpaceOnUse"
       gradientTransform="matrix(-2.1726626,1.0941354,1.2977992,2.7879222,663.95775,-321.12004)" />
    <linearGradient
       x1="292.97168"
       y1="4.7592773"
       x2="296.93979"
       y2="10.711433"
       id="XMLID_897_"
       gradientUnits="userSpaceOnUse">
      <stop
         id="stop45093"
         style="stop-color:#e8e8e5;stop-opacity:1"
         offset="0" />
      <stop
         id="stop45095"
         style="stop-color:#f0f0f0;stop-opacity:1"
         offset="1" />
    </linearGradient>
    <linearGradient
       x1="20.288025"
       y1="6.4603648"
       x2="24.32597"
       y2="23.942537"
       id="linearGradient8573"
       xlink:href="#linearGradient2229"
       gradientUnits="userSpaceOnUse"
       gradientTransform="matrix(0.5489611,-0.2569337,0.3150922,0.6782222,12.146674,16.190988)" />
    <linearGradient
       id="linearGradient2229">
      <stop
         id="stop2231"
         style="stop-color:#e2e2e2;stop-opacity:1"
         offset="0" />
      <stop
         id="stop2233"
         style="stop-color:#d8d8d8;stop-opacity:1"
         offset="1" />
    </linearGradient>
    <linearGradient
       x1="293.00772"
       y1="3.0185187"
       x2="296.64139"
       y2="10.289103"
       id="linearGradient8569"
       xlink:href="#XMLID_897_"
       gradientUnits="userSpaceOnUse"
       gradientTransform="matrix(2.1923888,-1.1088171,1.3883377,2.7644949,-627.96956,330.42304)" />
    <linearGradient
       x1="19.222296"
       y1="18.03648"
       x2="24.32597"
       y2="23.942537"
       id="linearGradient8566"
       xlink:href="#linearGradient2229"
       gradientUnits="userSpaceOnUse"
       gradientTransform="matrix(0.5489611,-0.2569337,0.3150922,0.6782222,12.146674,16.190988)" />
    <linearGradient
       x1="22.225399"
       y1="23.843431"
       x2="24.190449"
       y2="22.860907"
       id="linearGradient8582"
       xlink:href="#XMLID_45_"
       gradientUnits="userSpaceOnUse"
       gradientTransform="matrix(0.5379232,-0.2517676,0.3150922,0.6782222,12.456548,16.817714)" />
    <linearGradient
       x1="68.175293"
       y1="21.424805"
       x2="74.587158"
       y2="27.836672"
       id="XMLID_45_"
       gradientUnits="userSpaceOnUse">
      <stop
         id="stop695"
         style="stop-color:#babdb6;stop-opacity:1"
         offset="0" />
      <stop
         id="stop697"
         style="stop-color:#eeeeec;stop-opacity:1"
         offset="1" />
    </linearGradient>
  </defs>
  <g
     transform="translate(0,16)"
     id="layer1">
    <g
       transform="matrix(1.2006867,0.5720589,-0.5720589,1.2006867,-0.94663416,-42.930476)"
       id="g8586"
       style="display:inline;enable-background:new">
      <path
         d="m 31.161325,8.8075561 c 0.133062,-0.00999 0.265009,-0.01311 0.39667,-0.018811 1.032154,1.3080269 3.318812,2.0048659 3.400756,3.7838489 -0.01199,5.314267 0.01699,10.67834 0.03582,16.018926 -0.346442,0.296677 -0.717303,0.550013 -1.10846,0.761785 -0.822386,0.447602 -1.753211,0.72109 -2.714989,0.756528 -0.0243,-7.102073 -0.05339,-14.21743 -0.0098,-21.3022779 l 0,4e-7 z"
         id="path16717"
         style="fill:url(#linearGradient8576);stroke:#888a85;stroke-width:0.73902136;stroke-linecap:round;stroke-linejoin:round;stroke-miterlimit:4;stroke-opacity:1;stroke-dasharray:none" />
      <path
         d="m 32.309045,10.263478 c -0.03,0.267905 0.02761,0.706209 -0.01228,0.960461 -0.09383,5.619622 -0.228746,11.249078 -0.339621,16.853521 0.04652,0.187226 -0.127851,0.895683 0.290503,0.642635 0.672555,-0.151393 1.357578,-0.345896 1.873369,-0.829711 0.104544,-5.182462 0.154379,-10.378961 0.253527,-15.560696 0.06598,-0.350657 -0.06696,-0.732652 -0.386299,-0.902494 -0.54827,-0.417673 -1.113406,-0.861706 -1.657386,-1.251337 l -0.01645,0.06608 -0.0054,0.02154 3.7e-5,10e-7 z"
         id="path16719"
         style="fill:url(#linearGradient8573);fill-opacity:1;stroke:none" />
      <polygon
         points="297.04443,12.300293 296.39941,13.384766 295.13281,14.71875 294.73242,13.672852 295.74658,11.960449 297.04443,12.300293 "
         transform="matrix(1.9970619,-0.9346976,1.0934885,2.3536864,-572.66375,276.68644)"
         id="polygon45129"
         style="fill:#464646;fill-opacity:1;stroke:#333333;stroke-width:0.31430697;stroke-linecap:round;stroke-linejoin:round;stroke-miterlimit:4;stroke-opacity:1;stroke-dasharray:none" />
      <path
         d="m 19.396198,14.35169 c -0.08957,0.102739 -0.173072,0.208756 -0.258423,0.312972 0.391379,1.64324 -0.467017,3.939283 0.87726,5.092967 4.173437,3.236312 8.360755,6.536547 12.53589,9.814149 0.445395,-0.102156 0.87181,-0.25076 1.278109,-0.441349 0.856083,-0.399274 1.642281,-0.993594 2.260875,-1.758642 C 30.537226,23.013753 24.977078,18.643677 19.396198,14.35169 z"
         id="polygon45097"
         style="fill:url(#linearGradient8569);fill-opacity:1;stroke:#888a85;stroke-width:0.75187969;stroke-linecap:round;stroke-linejoin:round;stroke-miterlimit:4;stroke-opacity:1;stroke-dasharray:none" />
      <path
         d="m 20.46842,15.805322 c 0.144736,0.862559 -0.179499,1.699043 0.05314,2.581236 4.050574,3.383781 8.124717,6.740771 12.171679,10.120477 0.739242,-0.132721 1.362473,-0.560766 1.934354,-1.03437 -0.336936,-0.453684 -0.82461,-0.712999 -1.204913,-1.111846 -4.208309,-3.455632 -8.433278,-6.897491 -12.624535,-10.374385 -0.05581,-0.09906 -0.27151,-0.272665 -0.329724,-0.181112 l -1e-6,0 z"
         id="path16635"
         style="fill:url(#linearGradient8566);fill-opacity:1;stroke:none" />
      <path
         d="m 32.982031,26.898487 c 0.171262,0.368111 0.07331,0.777511 -0.218725,0.914195 -0.292037,0.136683 -0.667459,-0.05116 -0.838321,-0.419459 -0.171262,-0.368111 -0.07331,-0.777511 0.218725,-0.914195 0.292036,-0.136683 0.667458,0.05116 0.838321,0.419459 z"
         id="path16731"
         style="fill:url(#linearGradient8582);fill-opacity:1;fill-rule:nonzero;stroke:none;stroke-width:1.49975467;marker:none;visibility:visible;display:inline;overflow:visible" />
      <path
         d="m 31.470884,32.535107 c 2.46751,0.330701 4.257358,3.490049 3.995225,7.058132 -0.261275,3.569736 -2.472015,6.196443 -4.937832,5.87112 -2.468379,-0.330326 -4.256505,-3.488378 -3.994363,-7.056453 0.261247,-3.567698 2.472852,-6.194775 4.93697,-5.872799 l 0,0 z m -0.164174,2.273387 c -1.09468,-0.144801 -2.45066,1.483567 -2.624693,3.882779 -0.176389,2.400209 0.917466,4.358172 2.010577,4.501801 1.095409,0.148175 2.451437,-1.483898 2.625472,-3.883112 0.177178,-2.400546 -0.916702,-4.356653 -2.011356,-4.501468 z"
         id="path45138"
         style="fill:#464646;fill-opacity:1;stroke:#333333;stroke-width:0.75187969;stroke-miterlimit:4;stroke-opacity:1;stroke-dasharray:none" />
      <polygon
         points="296.95605,12.300293 297.6001,13.384766 298.86719,14.71875 299.26807,13.672852 298.25391,11.960449 296.95605,12.300293 "
         transform="matrix(1.9896757,-0.9312406,1.1420325,2.4581752,-571.31613,275.36214)"
         id="polygon45101"
         style="fill:#464646;fill-opacity:1;stroke:#333333;stroke-width:0.30812469;stroke-linecap:round;stroke-linejoin:round;stroke-miterlimit:4;stroke-opacity:1;stroke-dasharray:none" />
      <path
         d="m 37.890872,29.313461 c -1.168746,2.058688 0.156179,5.535002 2.961883,7.763744 2.806441,2.230501 6.028887,2.37145 7.200667,0.317674 1.169527,-2.059082 -0.155418,-5.533236 -2.961119,-7.761966 -2.804912,-2.229138 -6.028134,-2.369691 -7.201431,-0.319452 z m 1.786015,1.422142 c 0.519917,-0.91201 2.509283,-0.813842 4.394584,0.686437 1.887398,1.499205 2.717319,3.642177 2.197423,4.552228 -0.51783,0.914848 -2.509973,0.814196 -4.395279,-0.686083 -1.888097,-1.498851 -2.716629,-3.640575 -2.196728,-4.552582 z"
         id="path11967"
         style="fill:#464646;fill-opacity:1;stroke:#333333;stroke-width:0.75187969;stroke-miterlimit:4;stroke-opacity:1;stroke-dasharray:none" />
    </g>
  </g>
</svg>
