<?xml version="1.0" encoding="UTF-8" standalone="no"?>
<!-- Created with Inkscape (http://www.inkscape.org/) -->

<svg
   xmlns:dc="http://purl.org/dc/elements/1.1/"
   xmlns:cc="http://creativecommons.org/ns#"
   xmlns:rdf="http://www.w3.org/1999/02/22-rdf-syntax-ns#"
   xmlns:svg="http://www.w3.org/2000/svg"
   xmlns="http://www.w3.org/2000/svg"
   xmlns:xlink="http://www.w3.org/1999/xlink"
   xmlns:sodipodi="http://sodipodi.sourceforge.net/DTD/sodipodi-0.dtd"
   xmlns:inkscape="http://www.inkscape.org/namespaces/inkscape"
   width="320"
   height="170"
   id="svg2"
   version="1.1"
   inkscape:version="0.47 r22583"
   sodipodi:docname="bg_stub.svg"
   inkscape:export-filename="/home/serioga/Buffer/bg_stub.png"
   inkscape:export-xdpi="90"
   inkscape:export-ydpi="90">
  <defs
     id="defs4">
    <linearGradient
       id="linearGradient4157">
      <stop
         style="stop-color:#ffefda;stop-opacity:0.7718631;"
         offset="0"
         id="stop4159" />
      <stop
         style="stop-color:#ffefda;stop-opacity:1;"
         offset="1"
         id="stop4161" />
    </linearGradient>
    <linearGradient
       id="linearGradient3804">
      <stop
         style="stop-color:#000000;stop-opacity:0.75665396;"
         offset="0"
         id="stop3806" />
      <stop
         id="stop3812"
         offset="0.73326832"
         style="stop-color:#000000;stop-opacity:0.4676806;" />
      <stop
         style="stop-color:#000000;stop-opacity:0;"
         offset="1"
         id="stop3808" />
    </linearGradient>
    <radialGradient
       gradientTransform="matrix(2.8900724,-9.6393159e-8,1.0209072e-7,3.0608973,-11.956295,-13.656851)"
       gradientUnits="userSpaceOnUse"
       xlink:href="#linearGradient3584"
       id="radialGradient3590"
       fy="11.482934"
       fx="11.376413"
       r="9.936264"
       cy="11.482934"
       cx="11.376413" />
    <linearGradient
       id="linearGradient3584">
      <stop
         offset="0"
         style="stop-color:#f19765;stop-opacity:1"
         id="stop3586" />
      <stop
         offset="1"
         style="stop-color:#de1000;stop-opacity:1"
         id="stop3588" />
    </linearGradient>
    <linearGradient
       inkscape:collect="always"
       xlink:href="#linearGradient3804"
       id="linearGradient3810"
       x1="372.04724"
       y1="348.48059"
       x2="372.04724"
       y2="500.24384"
       gradientUnits="userSpaceOnUse"
       gradientTransform="matrix(0.93093234,0,0,1.0436718,26.222168,20.116981)" />
    <linearGradient
       inkscape:collect="always"
       xlink:href="#linearGradient4157"
       id="linearGradient4163"
       x1="368.42224"
       y1="433.23431"
       x2="483.32849"
       y2="433.23431"
       gradientUnits="userSpaceOnUse"
       gradientTransform="translate(4.9999988,-10.000005)" />
  </defs>
  <sodipodi:namedview
     id="base"
     pagecolor="#ffffff"
     bordercolor="#666666"
     borderopacity="1.0"
     inkscape:pageopacity="1"
     inkscape:pageshadow="2"
     inkscape:zoom="2.8284271"
     inkscape:cx="145.08531"
     inkscape:cy="131.83572"
     inkscape:document-units="px"
     inkscape:current-layer="layer1"
     showgrid="false"
     inkscape:window-width="1280"
     inkscape:window-height="949"
     inkscape:window-x="0"
     inkscape:window-y="24"
     inkscape:window-maximized="1"
     showborder="true" />
  <metadata
     id="metadata7">
    <rdf:RDF>
      <cc:Work
         rdf:about="">
        <dc:format>image/svg+xml</dc:format>
        <dc:type
           rdf:resource="http://purl.org/dc/dcmitype/StillImage" />
        <dc:title />
      </cc:Work>
    </rdf:RDF>
  </metadata>
  <g
     inkscape:label="Layer 1"
     inkscape:groupmode="layer"
     id="layer1"
     transform="translate(-217.54724,-383.84371)">
    <g
       style="font-size:72.27954102px;font-style:normal;font-variant:normal;font-weight:normal;font-stretch:normal;fill:#e44534;fill-opacity:1;stroke:none;font-family:Blunter;-inkscape-font-specification:Blunter"
       id="text2830">
      <path
         d="m 337.14825,422.36747 c 0.0481,1.20468 -1.22879,2.12022 -3.83082,2.74662 -0.14459,0.0482 -2.60209,0.4337 -7.37251,1.15648 -2.65027,0.43369 -3.9754,0.98783 -3.97538,1.66243 -2e-5,0.57825 1.61423,2.04793 4.84273,4.40905 3.27665,2.31295 4.91498,4.36087 4.91501,6.14376 -3e-5,0.53005 -0.14459,1.03601 -0.43367,1.51787 -1.06013,2.26476 -3.71038,3.39714 -7.95075,3.39714 -0.86738,0 -1.87929,-0.0482 -3.03575,-0.14456 -0.67462,-0.0482 -1.34923,-0.12047 -2.02382,-0.21684 -3.37306,-0.14456 -6.89066,-1.03601 -10.55282,-2.67434 -3.61397,-1.63833 -5.42096,-3.08392 -5.42096,-4.33678 0,-0.57822 0.28912,-0.86734 0.86735,-0.86735 0.0482,10e-6 1.59015,0.67462 4.62589,2.02383 3.03574,1.30103 6.24013,1.97564 9.61318,2.02382 3.08391,0.0482 4.67406,0.0723 4.77045,0.0723 2.60204,-0.14455 3.90307,-0.69869 3.9031,-1.66243 -3e-5,-0.81916 -1.75883,-2.4334 -5.27641,-4.84272 -3.51762,-2.40931 -5.27642,-4.26448 -5.2764,-5.56553 -0.0482,-2.02381 3.42121,-3.66214 10.40825,-4.91501 0.48184,-0.0963 1.95152,-0.45775 4.40905,-1.08419 1.97561,-0.53003 3.4212,-0.79505 4.33677,-0.79508 1.59012,3e-5 2.40929,0.65054 2.45751,1.95155"
         style="fill:#e44534"
         id="path2888" />
      <path
         d="m 361.59229,436.53426 c -3e-5,1.4456 -1.39743,2.96347 -4.19222,4.55361 -2.74664,1.54197 -5.56553,2.31295 -8.4567,2.31295 -0.62644,0 -1.25286,-0.0482 -1.87927,-0.14456 -1.73472,-0.28912 -3.73445,-1.80699 -5.9992,-4.55361 -2.26476,-2.7948 -3.32486,-5.20412 -3.1803,-7.22796 0.19274,-2.36111 2.91527,-5.37276 8.16759,-9.03494 3.95127,-2.7466 6.91472,-4.11991 8.89038,-4.11993 1.78288,2e-5 3.39712,0.72282 4.84273,2.16838 0.86733,0.91557 1.30101,1.99976 1.30103,3.25258 -2e-5,2.5539 -1.44561,5.10777 -4.33677,7.66163 -2.8912,2.5057 -5.80647,3.75855 -8.74583,3.75854 -0.77099,10e-6 -1.46969,-0.12046 -2.0961,-0.3614 -1.06011,-0.33729 -1.90337,-0.74688 -2.52979,-1.22875 -0.38549,-0.28911 -0.65052,-0.38548 -0.79507,-0.28912 -0.33731,0.24094 -0.50596,0.57825 -0.50596,1.01192 0,0.86736 0.55414,1.61425 1.66243,2.24066 1.3974,0.77099 3.20438,1.06011 5.42097,0.86736 2.26474,-0.19274 4.62587,-0.65051 7.08339,-1.37332 2.26474,-0.62641 3.56577,-0.93962 3.9031,-0.93963 0.9637,1e-5 1.44556,0.48187 1.44559,1.44559 m -6.50516,-13.44399 c -0.62644,2e-5 -1.4697,0.50597 -2.52979,1.51787 -1.20467,1.20467 -1.92746,1.85519 -2.16838,1.95154 -2.69845,1.20468 -3.97538,1.90338 -3.83082,2.09611 0.0964,0.24095 1.27693,0.0482 3.5417,-0.57823 0.57822,-0.0482 1.39739,-0.24092 2.4575,-0.57824 2.40931,-1.49376 3.61396,-2.67433 3.61398,-3.5417 -2e-5,-0.57821 -0.36141,-0.86733 -1.08419,-0.86735"
         style="fill:#e44534"
         id="path2890" />
      <path
         d="m 393.99159,420.77732 c 1.54194,1.92748 2.31292,3.75856 2.31295,5.49325 -3e-5,1.39742 -0.60236,2.96347 -1.80699,4.69817 -1.39743,1.92746 -2.16841,3.15621 -2.31295,3.68625 -0.4337,1.78291 -0.53007,3.58989 -0.28912,5.42097 0.2891,2.65025 0.43366,3.73444 0.43368,3.25258 -2e-5,0.96372 -0.81919,1.44559 -2.4575,1.44559 -2.36115,0 -4.40907,-2.36113 -6.14376,-7.0834 -0.4337,1e-5 -1.92747,0.93964 -4.48133,2.81891 -2.50571,1.87927 -4.60181,2.8189 -6.28832,2.8189 -1.7829,0 -3.34896,-0.98782 -4.69818,-2.96346 -0.6746,-1.0601 -1.01191,-2.14429 -1.01191,-3.25258 0,-1.83108 1.01191,-3.8549 3.03574,-6.07148 0.81917,-0.86734 2.72253,-2.57796 5.71009,-5.13185 1.83107,-1.73469 3.68624,-3.4453 5.56552,-5.13185 2.50567,-2.12017 4.72224,-3.18027 6.64972,-3.1803 2.07199,3e-5 3.99944,1.06013 5.78236,3.1803 m -6.64972,3.97538 c -1.30105,10e-6 -3.66218,1.30105 -7.08339,3.90309 -3.37306,2.55389 -5.05958,4.43316 -5.05957,5.63781 -1e-5,0.48187 0.26502,0.7228 0.79508,0.72279 1.39739,10e-6 3.73443,-1.3733 7.01111,-4.11993 3.27665,-2.7948 4.91499,-4.69816 4.91501,-5.71009 -2e-5,-0.2891 -0.19277,-0.43366 -0.57824,-0.43367"
         style="fill:#e44534"
         id="path2892" />
      <path
         d="m 429.8061,423.74078 c -0.0964,1.8311 -0.91557,2.74664 -2.4575,2.74663 -0.48189,10e-6 -1.39743,-0.14455 -2.74662,-0.43368 -1.1565,-0.2891 -1.97567,-0.38548 -2.45751,-0.28912 -3.71037,0.81918 -7.4689,3.18031 -11.27561,7.08339 -0.81917,0.86737 -2.28886,3.08394 -4.40905,6.64972 -1.49378,2.60207 -2.89118,3.9031 -4.19221,3.9031 -0.62643,0 -1.34922,-0.28912 -2.16839,-0.86736 -0.81917,-0.57823 -1.22875,-1.42149 -1.22875,-2.52978 0,-1.34921 0.6987,-3.30076 2.09611,-5.85464 1.97563,-3.61397 3.01164,-5.51733 3.10802,-5.71009 1.20465,-3.22847 2.40931,-6.45695 3.61397,-9.68546 0.72279,-1.83105 1.68652,-2.7225 2.89119,-2.67434 1.78288,0.0964 2.67432,0.96375 2.67434,2.60206 -2e-5,0.62645 -0.14457,1.44562 -0.43368,2.45751 -0.24094,1.01193 -0.36141,1.61426 -0.3614,1.80699 -10e-6,0.28914 0.26502,0.4337 0.79508,0.43368 0.67459,2e-5 1.95153,-0.43366 3.83081,-1.30104 1.87925,-0.86733 3.1321,-1.30101 3.75854,-1.30103 0.24091,2e-5 0.74687,2e-5 1.51787,0 0.81915,-0.0482 1.49375,-0.0723 2.02383,-0.0723 3.71032,2e-5 5.51731,1.01194 5.42096,3.03574"
         style="fill:#e44534"
         id="path2894" />
      <path
         d="m 456.1486,434.2936 c 0.14454,0.24094 -0.89147,1.4215 -3.10802,3.54169 -2.1684,2.12021 -3.54171,3.32486 -4.11993,3.61398 -0.86737,0.43368 -2.21659,0.89145 -4.04765,1.37331 -1.78291,0.43368 -2.8671,0.62642 -3.25258,0.57824 -1.92747,-0.38549 -4.09585,-1.51787 -6.50516,-3.39714 -2.98756,-2.31294 -4.48133,-4.62588 -4.48133,-6.93884 0,-2.69842 1.78289,-5.63778 5.34868,-8.8181 1.15647,-1.06008 3.01164,-2.14427 5.56553,-3.25258 2.89116,-1.30101 5.34867,-1.95152 7.37251,-1.95155 1.44557,3e-5 2.52976,0.38552 3.25258,1.15648 0.86733,0.91556 1.30101,1.80701 1.30103,2.67434 -2e-5,1.49379 -0.91556,2.45752 -2.74662,2.89118 -0.33733,0.0482 -0.53007,-0.0241 -0.57824,-0.21684 -2e-5,-0.2891 -2e-5,-0.55412 0,-0.79507 -0.0964,-0.2891 -0.4096,-0.45776 -0.93963,-0.50596 -1.8311,-0.14454 -4.40907,1.27696 -7.73391,4.26449 -3.27668,2.93938 -4.91502,5.30051 -4.91501,7.0834 -1e-5,0.7228 0.6746,1.30104 2.02383,1.73471 1.0119,0.38549 1.95153,0.57824 2.8189,0.57823 1.0119,10e-6 2.02381,-0.19274 3.03574,-0.57823 1.78288,-0.77098 3.58987,-1.54196 5.42096,-2.31295 2.16837,-0.91553 3.73442,-1.3733 4.69817,-1.37331 0.77096,10e-6 1.30101,0.21685 1.59015,0.65052"
         style="fill:#e44534"
         id="path2896" />
      <path
         d="m 488.73765,430.53506 c -0.62645,2.21658 -1.46971,4.60181 -2.52979,7.15567 -1.63836,3.95129 -3.01167,5.85465 -4.11993,5.71009 -0.771,-0.0964 -1.42152,-0.79508 -1.95155,-2.09611 -0.48188,-1.10828 -0.69872,-2.19247 -0.65052,-3.25258 0.0482,-0.53004 0.72278,-2.12019 2.02383,-4.77045 1.3492,-2.69842 2.02381,-4.38494 2.02383,-5.05957 -2e-5,-0.24091 -0.0723,-0.40956 -0.21684,-0.50595 -0.48188,-0.43366 -2.69846,0.79509 -6.64972,3.68625 -3.75855,2.79482 -6.16786,4.84274 -7.22795,6.14377 -0.48187,1.01191 -0.96374,2.02383 -1.44559,3.03574 -0.86736,1.54196 -1.807,2.31294 -2.8189,2.31294 -0.81918,0 -1.71062,-0.43368 -2.67435,-1.30103 -0.91554,-0.91554 -1.37331,-2.0961 -1.37331,-3.5417 0,-1.92745 0.81917,-4.43313 2.45751,-7.51707 0.91553,-1.59014 1.80698,-3.20438 2.67434,-4.84273 0.24093,-0.81915 1.46968,-3.39712 3.68626,-7.73391 2.26474,-4.33674 3.80671,-7.05927 4.62589,-8.16759 0.24091,-0.33727 0.45775,-1.37327 0.65051,-3.10802 0.0964,-1.10825 0.84325,-1.75876 2.24067,-1.95155 1.83106,-0.28908 2.7466,1.10833 2.74662,4.19222 -2e-5,3.2767 -0.4337,5.49327 -1.30103,6.64971 -3.85492,5.3969 -5.78238,8.9145 -5.78236,10.55282 -2e-5,0.43369 0.19273,0.65053 0.57823,0.65051 0.53004,2e-5 2.31293,-0.96371 5.34869,-2.89118 3.03572,-1.92743 5.13182,-2.89116 6.28832,-2.89118 0.43365,2e-5 0.77095,0.0964 1.01191,0.28912 1.6865,1.20468 2.52976,3.5899 2.52979,7.15567 -3e-5,0.86737 -0.0482,1.56607 -0.14456,2.09611"
         style="fill:#e44534"
         id="path2898" />
    </g>
    <g
       id="g2913"
       transform="matrix(1.0833334,0,0,1.0833334,264.54724,393.8437)">
      <path
         style="fill:url(#radialGradient3590);fill-opacity:1"
         id="path2463"
         d="m 18.066348,47.141553 c -0.8421,-0.987199 -1.109485,-2.985222 -2.817252,-2.729792 -2.478315,0.214644 -4.418885,-1.576659 -6.535387,-2.541654 -1.4290078,-0.670156 -3.1001903,-0.0021 -4.5098889,-0.812314 -3.0964133,-1.479565 -4.539635,-5.187824 -4.137989,-8.365442 0.3501518,-2.548095 1.9071344,-4.814058 3.8534097,-6.455977 1.6870925,-1.113353 3.8123758,-1.337321 5.6387502,-2.185681 1.421255,-0.431058 2.424738,-1.468976 3.536098,-2.354454 1.868255,-1.163701 4.506587,-1.516704 6.396505,-0.09308 1.643821,1.098354 3.440361,1.987499 5.025172,3.159934 1.237671,1.30457 0.935295,3.212202 1.286551,4.817594 0.147005,3.153209 1.515556,6.090899 2.068342,9.174809 0.451228,1.844817 -0.301579,3.636776 -1.345838,5.111735 -1.194787,1.734121 -2.474177,3.944845 -4.862615,4.132766 -1.190803,-0.05823 -2.684621,0.06336 -3.595858,-0.858448 z M 31.827756,31.931499 c -0.753084,-1.376925 -1.308383,-3.314633 -0.215911,-4.676158 1.764381,-2.198899 3.948086,-4.043162 6.201283,-5.742197 1.027215,-0.920367 2.1714,-0.784653 3.678541,-0.07188 1.590355,0.752134 2.130093,2.609477 1.807672,4.195247 -0.468845,2.305912 -1.288099,4.814785 -3.677506,5.802705 -2.074405,0.87074 -4.395069,1.915123 -6.69947,1.332757 -0.454511,-0.114865 -0.87346,-0.436121 -1.094616,-0.840478 z M 3.1522426,20.424375 c -1.4979712,-0.869517 -2.6874598,-2.29615 -2.94235,-4.027216 -0.3235914,-2.197645 0.074838,-4.557922 1.567121,-6.252175 1.3295551,-1.5095 3.0085828,-3.344748 5.2765085,-3.102047 1.9760169,0.06026 1.8560659,1.872349 1.8690499,3.264756 0.180039,1.571893 0.898009,3.023858 1.23388,4.556084 0.05799,0.264548 0.06316,0.526928 0.01247,0.711735 C 9.699741,17.28617 8.463333,18.739185 7.1539253,19.920852 6.264686,20.976958 4.88018,21.279279 3.5211208,20.606881 l -0.3688826,-0.182506 -2.2e-6,0 z m 23.6570314,1.04508 c -1.374394,-0.727521 -3.333396,-1.954275 -2.669091,-3.717866 0.621978,-1.651226 1.555832,-3.167355 2.15333,-4.84255 0.728847,-2.043452 2.095381,-4.924616 2.991624,-5.79213 1.437167,-1.391098 3.815784,-1.356938 5.757088,-1.135318 2.370479,0.270615 3.554483,2.782669 4.132194,4.827114 0.425857,1.507049 0.607396,3.168688 -0.268759,4.507647 -1.124418,1.718358 -2.699245,3.140552 -4.293279,4.436514 -1.470786,1.195759 -3.326396,2.007476 -5.232858,2.303516 -0.898388,0.130498 -1.777097,-0.16707 -2.570249,-0.586927 z M 16.134539,16.251478 c -2.436792,-2.283473 -3.469335,-5.816671 -3.006604,-8.998744 0.432444,-1.814359 1.50562,-3.390983 2.719097,-4.776132 1.046279,-1.194298 2.343256,-2.42484299 4.133188,-2.46921099 1.887546,-0.04679 4.081987,0.09449 5.440558,1.42976399 1.17345,1.153326 1.986564,3.238381 1.156094,4.825651 -1.558616,2.486218 -2.997309,5.050099 -4.147447,7.752294 -0.613289,1.165164 -1.02796,2.868304 -2.610488,3.040592 -1.248887,0.132376 -2.61974,-0.09401 -3.684398,-0.804214 z" />
      <path
         id="path3513"
         d="m 24.900768,29.168648 c -0.224365,-0.01237 -0.454902,0.06 -0.682295,0.06823 0.373289,-0.01154 0.785714,0.03133 1.159902,0.06823 0.13209,0.01303 0.277676,-0.01887 0.409377,0 -0.300504,-0.05456 -0.576726,-0.119353 -0.886984,-0.136459 z m 0.477607,0.136459 c -0.492879,-0.05299 -0.989592,-0.04345 -1.50105,0 -0.489872,0.04162 -0.997131,0.133455 -1.501049,0.272918 -0.01894,0.0057 -0.04931,-0.0059 -0.06823,0 -0.02172,0.0062 -0.04656,-0.0064 -0.06823,0 -2.304774,0.761274 -3.805034,2.705953 -4.503149,4.912526 0.01665,-0.06568 -0.01833,-0.139552 0,-0.204688 -0.05006,0.178956 -0.09896,0.363492 -0.13646,0.545836 -0.06548,0.318742 -0.108435,0.627723 -0.136459,0.955214 0.0073,-0.112443 -0.01118,-0.228944 0,-0.341148 -0.08584,0.670293 -0.06851,1.368285 0,2.046886 0.02646,0.252167 0.0914,0.5023 0.136459,0.750525 0.04273,0.231447 0.07677,0.454609 0.13646,0.682295 0.0181,0.07143 0.04856,0.133531 0.06823,0.204689 0.01945,0.068 0.04729,0.13716 0.06823,0.204688 0.159744,0.534127 0.36952,1.013767 0.614065,1.50105 -0.07337,-0.143723 -0.206994,-0.261595 -0.272918,-0.409377 0.214066,0.500228 0.458732,1.037512 0.750525,1.501049 0.04969,0.06334 0.153037,0.0747 0.204689,0.13646 0.233395,0.306469 0.479095,0.558689 0.750525,0.818754 0.06366,0.06036 0.16034,0.109829 0.204688,0.136459 -0.01969,-0.03489 0.01908,-0.101316 0,-0.136459 -0.531212,-1.325791 -0.895949,-2.795097 -0.886984,-4.298461 -0.0936,0.984986 -0.02327,1.975773 0.272918,2.93387 -0.440516,-1.311114 -0.51985,-2.699522 -0.204688,-3.957313 0.02494,-0.252822 0.02538,-0.497959 0.06823,-0.750524 -0.466194,1.561473 -0.523723,3.26612 -0.06823,4.776067 -0.107443,-0.134929 -0.175345,-0.261565 -0.272918,-0.409377 -0.390046,-0.59239 -0.686488,-1.208296 -0.886984,-1.910427 -0.697354,-3.081881 0.620185,-5.959246 3.479706,-7.914626 1.431115,-0.948032 2.93966,-0.992658 4.36669,-0.545836 -0.05779,-0.411768 -0.185178,-0.809617 -0.204689,-1.228132 -0.01446,-0.06608 0.01239,-0.137651 0,-0.204688 -0.138529,-0.02233 -0.269171,-0.05316 -0.409377,-0.06823 z m -6.004199,7.505249 c 0.281883,-0.736663 0.767287,-1.412609 1.296361,-1.978657 -0.192446,0.248495 -0.321927,0.54952 -0.477606,0.818754 0.208483,-0.289939 0.411377,-0.570547 0.682295,-0.818754 1.063156,-1.095607 2.806657,-1.955768 4.230231,-1.296361 0.08418,-0.02896 0.188438,-0.04124 0.272918,-0.06823 -1.534664,-0.587268 -3.098383,-0.09754 -4.29846,0.955213 0.215974,-0.234869 0.429566,-0.47533 0.682295,-0.682295 0.990381,-0.703055 2.451621,-0.788059 3.616165,-0.272918 0.350311,0.15496 0.678302,0.345357 0.955214,0.614065 -0.82606,-0.140164 -1.665325,-0.08548 -2.388034,0.136459 0.50082,-0.192265 1.03244,-0.401065 1.569279,-0.477606 -0.125909,-0.08808 -0.277044,-0.143392 -0.409377,-0.204689 -0.716128,0.246349 -1.355759,0.622629 -1.978656,1.023443 -0.336373,0.176285 -0.609302,0.365662 -0.886984,0.614066 -0.02342,0.02115 -0.04528,0.0466 -0.06823,0.06823 -0.02465,0.02309 -0.04414,0.04461 -0.06823,0.06823 -0.02248,0.0221 -0.04624,0.04566 -0.06823,0.06823 -0.464557,0.466926 -0.742287,1.00966 -0.955213,1.637509 -0.01706,0.0513 -0.05308,0.08424 -0.06823,0.136459 -0.06521,0.219974 -0.109822,0.441837 -0.136459,0.682296 -0.03786,0.865209 0.08668,1.752684 0.341148,2.524492 0.133247,0.385531 0.290166,0.743602 0.477606,1.091673 -0.118343,-0.214737 -0.178774,-0.452612 -0.272918,-0.682296 0.175663,0.393441 0.37754,0.820143 0.614066,1.159902 -0.111148,-0.163032 -0.24515,-0.303419 -0.341148,-0.477606 0.921392,1.710993 2.426308,2.915145 4.36669,3.070329 0.01757,-0.02587 0.05074,-0.04243 0.06823,-0.06823 -0.117573,-0.01347 -0.226452,-0.04812 -0.341148,-0.06823 0.118213,0.02104 0.223022,-0.01308 0.341148,0 0.125156,-0.184792 0.287092,-0.36835 0.409377,-0.545837 0.183886,-0.259728 0.31678,-0.540808 0.477607,-0.818754 -0.905831,0.104218 -1.867107,-0.04001 -2.729181,-0.545836 0.126286,0.282933 0.146589,0.262925 0.272918,0.545836 -0.933793,-0.357348 -1.560249,-1.032816 -1.978657,-1.773968 0.315537,0.515232 0.729866,0.894634 1.296361,1.023443 0.72786,0.205219 1.497751,0.430907 2.251575,0.545836 -1.737325,-0.555764 -2.817092,-1.909184 -3.343247,-3.752624 0.12633,0.282922 -0.331017,0.808759 -0.204689,1.091673 -1.419809,-2.419998 0.956,-5.510984 3.411477,-4.571379 0.594682,0.227566 1.052178,0.508045 1.364591,0.886984 -0.629494,-0.727925 -1.490557,-1.21439 -2.592723,-1.228132 0.467417,-0.03373 0.989492,0.0089 1.50105,0.204689 0.407115,0.20995 0.742859,0.456258 1.023443,0.750525 -0.268232,-0.956501 -0.565647,-1.90673 -0.818753,-2.865642 -0.753449,-0.400962 -1.589443,-0.667125 -2.456264,-0.614065 -2.500349,0.132018 -3.995344,1.935873 -4.639608,4.093772 z m -0.06823,0.750524 c -0.01575,0.159679 0.0088,0.318177 0,0.477607 0.06906,-0.414124 0.134806,-0.763345 0.272918,-1.159902 -0.0869,0.22552 -0.213763,0.446206 -0.272918,0.682295 z m 0.272918,-0.682295 c 0.115027,-0.330277 0.315065,-0.64391 0.477607,-0.955213 -0.195838,0.30893 -0.346213,0.614231 -0.477607,0.955213 z m 2.797411,-7.30056 c 0.494744,-0.136278 0.987559,-0.235548 1.501049,-0.272918 0.1156,-0.0084 0.225084,-0.06464 0.341148,-0.06823 -0.619821,0.02243 -1.22397,0.153839 -1.842197,0.341148 z m 0.136459,7.027642 c -0.25836,0.40696 -0.452394,0.882115 -0.545836,1.43282 -0.05429,0.448396 -0.04944,0.90949 0,1.364591 0.047,0.432699 0.19787,0.846587 0.341147,1.228131 -0.161089,-0.408676 -0.271237,-0.808719 -0.341147,-1.228131 -0.05455,-0.32724 -0.124303,-0.646884 -0.13646,-0.955214 0.02819,-0.644248 0.279087,-1.280097 0.682296,-1.842197 z m 5.458362,2.93387 c -0.05871,0.471537 -0.158899,0.926852 -0.272918,1.36459 0.05319,-0.01385 0.08643,-0.05238 0.136459,-0.06823 0.08226,-0.431995 0.169919,-0.849813 0.136459,-1.296361 z m -1.36459,3.343247 c 0.09763,0.02169 0.171587,0.05104 0.272918,0.06823 0.06857,0.003 0.137638,0.0013 0.204688,0 0.0098,-0.01735 -0.0097,-0.05082 0,-0.06823 -0.157849,-0.0014 -0.316916,0.01461 -0.477606,0 z m -3.138559,0.545836 c 0.205968,0.147101 0.456468,0.290182 0.682296,0.409377 -0.110469,-0.05607 -0.233214,-0.07313 -0.341148,-0.136459 -0.119292,-0.08346 -0.229138,-0.186029 -0.341148,-0.272918 z"
         style="opacity:0.74021349;fill:#ffefda;fill-opacity:1;fill-rule:evenodd;stroke:none;display:inline" />
      <path
         id="path3527"
         d="m 2.7944,9.040936 c -0.034562,0.03509 -0.034091,0.101147 -0.06823,0.136459 1.9131574,0.109704 3.7922038,1.234287 4.6396082,3.070329 0.4788098,1.436427 0.4800106,3.33964 -0.4776067,4.776067 -0.389035,0.47881 -0.839577,0.920737 -1.2963611,1.296361 -0.4570265,0.375627 -0.9216961,0.67918 -1.4328202,0.955214 -0.2798834,0.11607 -0.5891846,0.242634 -0.8869839,0.341147 0.4003351,-0.0688 0.5611585,-0.0784 0.8187544,-0.136459 0.091041,-0.01931 0.1822573,-0.04965 0.2729181,-0.06823 0.092207,-0.01969 0.1808779,-0.04942 0.2729181,-0.06823 C 5.1740622,19.030693 5.6588391,18.608167 6.0694171,18.183692 6.8905732,17.334524 7.5441291,16.28525 7.8433849,14.908675 8.413467,11.67821 5.6284567,9.206637 2.7943996,9.040935 z m 4.0255424,1.842197 C 7.6873155,11.937543 8.1977,13.289107 8.048074,14.635758 7.808668,16.072185 7.22549,17.229668 6.4105652,18.115464 6.5541526,17.978338 6.7520366,17.922855 6.8881719,17.774316 8.718235,15.761246 8.479165,12.822895 6.8199429,10.883133 z m -5.7995103,2.319804 c -0.2679488,0.03908 -0.482576,0.09264 -0.7505248,0.136459 -0.00276,4.52e-4 0.00276,0.06779 0,0.06823 0.4523421,-0.0048 0.8888834,-0.0417 1.2963611,-0.204689 -0.1795533,-0.05985 -0.366283,-0.02618 -0.5458363,0 z M 9.207976,24.187892 c -0.09206,0.03856 -0.179702,0.100327 -0.272918,0.136459 1.181301,0.680361 2.211354,1.655742 2.729181,3.0021 0.718218,1.975088 0.07543,3.680787 -1.091672,5.117215 1.780263,-2.381451 1.483837,-5.632149 -1.091673,-7.505249 -0.27787,-0.231557 -0.564027,-0.385948 -0.886984,-0.545836 -0.114115,0.04093 -0.22592,0.09789 -0.341147,0.136459 1.441007,0.668202 2.626729,1.867485 3.138558,3.275017 0.478812,2.154641 -0.199874,4.294854 -2.115115,5.731281 -1.655707,1.138302 -3.529872,1.750968 -5.3901335,1.910427 -0.4821481,0.04133 -0.9499062,0.01643 -1.4328202,0 -0.3479601,-0.01184 -0.677471,0.04035 -1.023443,0 -0.4233761,-0.04921 -0.879188,-0.114707 -1.2963611,-0.204689 0.0045,0.02641 0.063495,0.04184 0.068229,0.06823 0.3248355,0.06311 0.6283722,0.15791 0.9552135,0.204688 0.9762511,0.139721 1.9753347,0.187858 2.9338699,0.136459 0.9585352,-0.0514 1.9099489,-0.235312 2.7974108,-0.545836 0.4437313,-0.155262 0.8804036,-0.313041 1.2963616,-0.545836 -0.4079761,0.232208 -0.8697602,0.386151 -1.2963611,0.545836 -0.9200321,0.344388 -1.8268908,0.484105 -2.7974108,0.545836 -0.9718394,0.06181 -1.960955,0.01022 -2.9338699,-0.136459 -0.314977,-0.04748 -0.6435632,-0.07232 -0.9552135,-0.136459 0.012988,0.0695 0.053615,0.135429 0.06823,0.204689 0.063884,0.01718 0.139912,0.0534 0.2046886,0.06823 4.2626065,0.80057 9.0948587,-0.313569 11.1896427,-4.503149 1.197026,-2.394046 0.244216,-5.250067 -1.910427,-6.686494 C 9.584987,24.343932 9.385861,24.287866 9.207976,24.187893 z M 2.4532523,35.445765 c 0.4877292,0.02275 0.9481488,0.04053 1.4328202,0 2.4233573,-0.202669 4.7648285,-1.276436 6.3453465,-3.343247 0.957619,-1.197023 0.956419,-2.862031 0.477607,-4.298461 0.478812,3.830474 -2.686045,6.718806 -6.2771173,7.437019 -1.5710901,0.224442 -2.9482998,0.103569 -4.2984605,-0.272918 0.0063,0.04492 -0.00698,0.09159 0,0.136459 0.742117,0.180323 1.552736,0.305376 2.3198041,0.341148 z"
         style="opacity:0.74021349;fill:#ffecd4;fill-opacity:1;fill-rule:evenodd;display:inline" />
      <path
         id="path3616"
         d="m 20.806996,0.03463801 c -1.070854,0.360754 -2.016458,0.910455 -2.388033,1.70573799 -1.075282,1.362441 -0.801264,2.927392 0.06823,4.162001 -0.352461,-0.551243 -0.556617,-1.261519 -0.477606,-2.115115 0.356291,-2.190372 1.99225,-3.15526399 3.889083,-3.68439499 -0.367699,-0.03494 -0.726547,-0.06309 -1.091673,-0.06823 z M 18.487192,5.902377 c 0.671689,0.953743 1.671665,1.668637 2.797411,1.910427 -0.919732,-0.138737 -1.896089,-0.417943 -2.660952,-0.955213 1.323516,1.028688 3.274516,1.269025 4.844297,0.682295 0.04733,0.0085 0.08931,-0.0018 0.136459,0 0.145525,-0.07715 0.337899,-0.170194 0.477607,-0.272918 -0.03638,0.106573 -0.171159,0.191986 -0.272918,0.272918 C 24.860221,7.371764 25.79196,5.847322 26.19713,5.015394 24.834406,7.845489 20.014525,8.2911 18.487192,5.902377 z m 5.321904,1.637509 c -0.07007,0.01121 -0.133972,0.0027 -0.204689,0 -0.233456,0.123764 -0.43892,0.278666 -0.682295,0.341148 0.395823,-0.05548 0.683463,-0.179282 0.886984,-0.341148 z M 18.623651,6.857591 C 18.363953,6.675169 18.139853,6.474289 17.941356,6.243525 c 0.192709,0.248026 0.436071,0.422691 0.682295,0.614066 z m 20.46886,3.752624 c -0.0666,0.01735 -0.164871,0.05224 -0.204689,0.06823 0.03996,-0.0016 0.15423,0.0038 0.204689,0 -0.0059,-0.02002 0.006,-0.04814 0,-0.06823 z m -10.643807,4.230231 c -0.261475,-0.03296 -0.491709,0.02389 -0.682295,0.06823 0.09551,0.0028 0.186728,0.05733 0.272918,0.06823 0.277887,0.03513 0.495811,0.09763 0.682295,0.204689 -0.248816,-0.06218 -0.504042,-0.09151 -0.750525,-0.06823 -0.384897,0.172275 -0.655274,0.345442 -0.886984,0.477607 0.02984,0.126702 0.208685,0.273954 0.545837,0.409377 1.737927,-0.729149 -1.181376,-0.0898 0.614065,-0.818755 0.324718,0.150154 0.558644,0.316926 0.750525,0.477607 0.137058,0.114772 0.264325,0.224168 0.341148,0.341148 0.09234,0.492443 -0.09526,1.075072 -0.409377,1.569279 -0.06612,0.07617 -0.134123,0.206907 -0.204689,0.272918 0.06138,-0.05962 0.1495,-0.07363 0.204689,-0.136459 0.203455,-0.23741 0.379179,-0.488083 0.477607,-0.750525 0.01638,-0.04271 -0.01276,-0.09356 0,-0.136459 0.04234,-0.112124 0.07155,-0.224866 0.06823,-0.341148 0.0085,-0.06618 0.07183,-0.137004 0.06823,-0.204688 0.0151,0.134322 0.02665,0.26947 0,0.409377 0.228277,-0.739172 -0.05831,-1.13862 -0.477607,-1.364591 0.0657,0.06713 0.08515,0.1376 0.136459,0.204689 -0.03188,-0.02915 -0.100264,-0.04072 -0.136459,-0.06823 0.05106,0.06372 0.09962,0.133245 0.136459,0.204689 -0.113097,-0.133536 -0.291114,-0.295165 -0.477607,-0.409378 0.125374,0.05914 0.246635,0.132846 0.341148,0.204689 -0.03161,-0.03945 -0.03097,-0.100428 -0.06823,-0.136459 -0.151406,-0.149117 -0.317117,-0.330683 -0.545836,-0.477607 z m 0.477607,2.865641 c -0.08735,0.125012 -0.164991,0.231813 -0.272918,0.341147 0.117313,-0.102583 0.174073,-0.225806 0.272918,-0.341147 z m -0.272918,0.341147 c -0.06802,0.0689 -0.197543,0.07568 -0.272918,0.136459 -0.169596,0.136751 -0.344161,0.325844 -0.545837,0.409377 0.302649,-0.12873 0.570107,-0.328407 0.818755,-0.545836 z m -0.272918,0.136459 c 0.142976,-0.102748 0.218382,-0.221905 0.341147,-0.341147 -0.772068,0.722236 -1.75366,0.772277 -2.660952,0.477606 0.545461,0.03861 1.113177,-0.03633 1.637509,-0.204688 0.133717,-0.04294 0.21614,-0.15137 0.341148,-0.204689 -0.901112,0.238149 -2.218903,-8.66e-4 -3.138559,-0.614066 0.108139,0.161206 0.202934,0.323709 0.341148,0.477607 0.07507,0.11762 0.190418,0.178193 0.272918,0.272918 -0.180202,-0.123736 -0.406338,-0.193411 -0.545836,-0.341147 0.199527,0.169723 0.381533,0.360945 0.614066,0.477606 -0.111814,-0.02567 -0.236116,-0.02956 -0.341148,-0.06823 -0.03466,-0.01232 -0.102617,0.01342 -0.136459,0 0.422807,0.559796 1.017998,0.733196 1.637509,0.682296 -0.340157,-0.02245 -0.582453,-0.246433 -0.886984,-0.477607 -0.01964,-0.0077 -0.04873,0.0081 -0.06823,0 -0.01314,-0.01051 0.01302,-0.05727 0,-0.06823 0.07181,0.01125 0.131254,0.06161 0.204689,0.06823 -0.03978,-0.01381 -0.09718,0.0154 -0.136459,0 0.504654,0.326037 0.986979,0.451332 1.43282,0.409377 0.365278,-0.108411 0.777122,-0.319789 1.091673,-0.545836 z m -3.411477,-0.477606 c -0.0894,-0.09468 -0.130968,-0.237848 -0.204689,-0.341148 0.02937,0.08564 0.0341,0.195963 0.06823,0.272918 0.03687,0.03448 0.09805,0.03556 0.136459,0.06823 z m -0.136459,-0.06823 c -0.160017,-0.149649 -0.283608,-0.296548 -0.409377,-0.477607 -0.01956,0.04599 -0.04906,0.09031 -0.06823,0.136459 0.140328,0.298969 0.363239,0.512567 0.614066,0.682295 -0.06023,-0.09586 -0.08579,-0.226907 -0.136459,-0.341147 z m 0.06823,-0.341148 c -0.107942,-0.160914 -0.261256,-0.310499 -0.341147,-0.477607 0.03273,0.07217 0.03148,0.131828 0.06823,0.204689 0.0071,0.01299 -0.0073,0.05534 0,0.06823 0.09239,0.07565 0.17126,0.136905 0.272918,0.204688 z M 28.994541,15.6592 c -0.148666,0.149218 -0.319355,0.259444 -0.477606,0.341148 0.471834,0.702699 0.417946,1.24055 0.06823,1.637509 0.462712,-0.359628 0.696623,-1.012859 0.409377,-1.978657 z m -0.477606,0.341148 c -0.01943,-0.02894 -0.04699,-0.03879 -0.06823,-0.06823 -0.212051,0.151069 -0.377238,0.213977 -0.545836,0.272918 0.199717,-0.01305 0.404292,-0.09638 0.614066,-0.204689 z M 27.084113,15.59097 c -0.04897,0.02793 -0.168473,0.04876 -0.204688,0.06823 -0.03671,0.03883 -0.05328,0.04781 -0.06823,0.06823 0.0085,-0.0043 0.05855,0.0051 0.06823,0 0.0098,0.04064 0.112979,0.02986 0.136459,0.06823 -0.0041,-0.07084 0.0486,-0.13066 0.06823,-0.204689 z m 0.886984,-0.477607 c 0.05828,-0.02609 0.07755,-0.04448 0.136459,-0.06823 -0.0311,-0.01109 -0.03589,-0.05756 -0.06823,-0.06823 -0.259205,0.03552 -0.446654,0.07551 -0.614066,0.13646 -0.119916,0.08189 -0.208289,0.167374 -0.272918,0.272918 0.125699,-0.14967 0.458889,-0.238925 0.818754,-0.272918 z m -0.818754,0.272918 c 0.06135,-0.05985 0.05252,-0.192819 0.136459,-0.272918 -0.25786,0.112395 -0.370828,0.268467 -0.409377,0.409378 0.02698,-0.02768 0.168556,-0.03255 0.204688,-0.06823 0.01241,-0.02598 0.0527,-0.04288 0.06823,-0.06823 z m 0.272918,-0.272918 c 0.09623,-0.06572 0.139944,-0.166101 0.272918,-0.204688 -0.04758,-3.33e-4 -0.08661,-0.0017 -0.136459,0 -0.0937,0.08846 -0.05992,0.131958 -0.136459,0.204688 z m -0.341148,0.886984 c 0.119054,0.211211 0.346331,0.329482 0.750525,0.204689 -0.32039,0.0052 -0.574333,-0.05834 -0.750525,-0.204689 z m -2.79741,1.50105 c 0.08666,0.10622 0.159971,0.186784 0.272918,0.272918 -0.09143,-0.07862 -0.197226,-0.175285 -0.272918,-0.272918 z m 3.957312,0.341148 c -0.145688,0.07588 -0.25011,0.213404 -0.409377,0.272918 0.210538,-0.07939 0.388199,-0.151934 0.545837,-0.272918 -0.03719,0.01979 -0.09799,-0.01886 -0.13646,0 z m 11.326103,3.002099 c -0.136317,0.17789 -0.280097,0.380985 -0.409377,0.614066 -1.351065,3.047574 2.266351,4.043568 4.230231,2.93387 -0.01254,-0.170253 -0.104002,-0.310481 -0.136459,-0.477607 -0.20346,0.206983 -0.52939,0.30193 -0.886984,0.409377 0.329844,-0.103774 0.630558,-0.305592 0.886984,-0.614066 -0.03514,-0.14291 -0.08595,-0.271922 -0.13646,-0.409377 -0.936141,1.310667 -4.447877,0.09624 -2.86564,-1.773968 -1.569952,1.785944 1.533049,3.554124 2.86564,1.978657 -0.237687,0.335881 -0.514957,0.713028 -0.955213,0.886984 -0.02062,0.0044 -0.04713,-0.0041 -0.06823,0 -0.09794,0.03596 -0.233402,0.0431 -0.341148,0.06823 -0.943869,0.01055 -1.925599,-0.593682 -2.319804,-1.43282 -0.0053,0.153223 -0.04048,0.337722 0,0.477607 -0.165598,-0.331469 -0.224704,-0.735877 -0.136459,-1.091673 0.02015,0.192089 0.05942,0.369726 0.136459,0.545837 0.0391,-0.54002 0.402515,-1.031434 0.818754,-1.50105 0.01797,-0.02014 0.04905,-0.04797 0.06823,-0.06823 0.07942,-0.07967 0.17365,-0.193855 0.272918,-0.272918 -0.09348,-0.03032 -0.182277,-0.04447 -0.272918,-0.06823 -0.458693,0.358854 -0.878993,0.782995 -1.023443,1.296361 -0.02874,-0.449505 0.161484,-0.96334 0.545836,-1.43282 -0.08996,-0.01134 -0.185573,-0.06509 -0.272918,-0.06823 z m 0.06823,3.002099 c 0.08851,0.09598 0.218844,0.187281 0.341148,0.272919 -0.130806,-0.08985 -0.261001,-0.158247 -0.341148,-0.272919 z m 0.955214,0.545837 c 0.215149,0.05189 0.464675,0.129887 0.750525,0.136459 -0.168352,0.01494 -0.289593,0.01148 -0.477607,0 -0.105458,-0.03258 -0.179187,-0.09925 -0.272918,-0.136459 z"
         style="opacity:0.74021349;fill:#ffdec2;fill-opacity:1;fill-rule:evenodd;display:inline" />
      <path
         id="path3511"
         d="m 33.634149,5.902377 c -0.222988,0.391309 -0.394337,0.799588 -0.545837,1.228132 0.03142,-0.09844 0.100978,-0.176143 0.136459,-0.272918 -0.202695,0.52379 -0.329397,1.01728 -0.409377,1.569279 -0.04485,0.309508 -0.06596,0.643431 -0.06823,0.955214 0.0045,0.722052 0.102425,1.463638 0.341147,2.183345 0.523807,0.91092 1.413199,1.534748 2.592722,1.569279 -1.374387,-0.357245 -2.155998,-1.330099 -2.524492,-2.524493 0.361075,0.871255 1.036215,1.604956 1.842197,1.978657 1.410472,0.653979 2.965382,-0.115777 3.820854,-1.432821 -0.870115,0.820624 -2.040845,1.791878 -3.343247,1.432821 -1.7054,-0.545902 -2.412334,-2.126912 -2.456263,-3.616166 0.02352,-1.08134 0.343342,-2.112275 0.886984,-3.070329 -0.06691,-0.0036 -0.137438,0.0027 -0.204689,0 -0.0048,0.0086 -0.0635,-0.0086 -0.06823,0 z m -0.545837,5.663052 c -0.254984,-0.699802 -0.346466,-1.452522 -0.341147,-2.183345 -0.002,-0.320644 0.02799,-0.641038 0.06823,-0.955214 0.05614,-0.43828 0.140219,-0.880601 0.272918,-1.296361 -0.348977,0.987137 -0.570711,2.045753 -0.477606,3.138559 0.07421,0.478545 0.250582,0.901555 0.477606,1.296361 z m 0,-3.820854 c -0.116328,0.48212 -0.216712,1.008595 -0.204688,1.50105 -0.02509,-0.482136 0.04485,-1.024328 0.204688,-1.50105 z"
         style="opacity:0.77021353;fill:#fff6e3;fill-opacity:1;fill-rule:evenodd;display:inline" />
    </g>
    <rect
       style="opacity:0.44900004;color:#000000;fill:none;stroke:url(#linearGradient3810);stroke-width:0.91791648;stroke-linecap:butt;stroke-linejoin:miter;stroke-miterlimit:4;stroke-opacity:1;stroke-dasharray:none;stroke-dashoffset:0;marker:none;visibility:visible;display:inline;overflow:visible;enable-background:accumulate"
       id="rect3759"
       width="319.08209"
       height="197.51784"
       x="218.0062"
       y="384.30267"
       ry="27.598694" />
    <path
       sodipodi:type="inkscape:offset"
       inkscape:radius="0"
       inkscape:original="M 327.28125 403.21875 C 326.67615 403.12568 325.77267 403.79914 324.5625 405.21875 C 323.60831 406.31259 322.81585 407.36697 322.1875 408.4375 C 321.95476 408.83315 321.51133 409.98993 320.90625 411.875 C 320.37097 413.5041 319.95081 414.42353 319.625 414.65625 C 319.29918 414.88899 318.9189 414.99203 318.5 414.96875 C 317.68545 414.92222 317.2972 414.90626 317.34375 414.90625 C 317.08775 414.90626 316.73075 414.80322 316.21875 414.59375 C 315.70675 414.38431 315.35041 414.28126 315.1875 414.28125 C 314.86168 414.28126 314.71875 414.48735 314.71875 414.90625 C 314.71875 415.25535 314.93282 415.73069 315.375 416.3125 C 315.84045 416.89433 316.23668 417.18751 316.5625 417.1875 C 316.65559 417.18751 316.75066 417.17953 316.84375 417.15625 C 316.96011 417.10971 317.0472 417.06251 317.09375 417.0625 C 317.27993 417.06251 317.4069 417.32378 317.5 417.8125 C 317.59309 418.34778 316.82456 419.34633 315.21875 420.8125 C 313.61293 422.27868 312.8125 423.15025 312.8125 423.40625 C 312.8125 423.91825 312.96275 424.44943 313.21875 425.03125 C 313.54457 425.72943 313.90157 426.09375 314.34375 426.09375 C 314.46011 426.09375 314.60238 426.04655 314.71875 426 C 314.95148 425.90691 315.40354 425.3837 316.125 424.40625 C 316.61372 423.6848 317.10502 422.97943 317.59375 422.28125 L 319.34375 419.75 C 320.29792 418.44674 321.0824 417.63833 321.6875 417.3125 C 322.57185 417.1496 323.4514 417.00667 324.3125 416.84375 C 325.6623 416.49467 326.28855 415.83717 326.21875 414.90625 C 326.19546 414.30117 325.81519 414.00001 325.09375 414 C 324.83774 414.00001 324.48872 414.06317 324 414.15625 C 323.51126 414.22608 323.1629 414.25001 323 414.25 C 322.6509 414.25001 322.49999 414.12303 322.5 413.84375 C 322.49999 412.9594 323.10231 411.47754 324.3125 409.40625 C 324.56849 408.96409 325.0046 408.37772 325.65625 407.65625 C 326.40096 406.81845 326.90821 406.40627 327.1875 406.40625 C 327.30385 406.40627 327.37499 406.46211 327.375 406.625 C 327.37499 406.78793 327.2008 407.1682 326.875 407.75 C 326.57244 408.33184 326.43749 408.73604 326.4375 408.96875 C 326.43749 409.29458 326.56446 409.46877 326.84375 409.46875 C 327.2161 409.46877 327.77853 408.86645 328.5 407.65625 C 329.10507 406.58572 329.42219 405.88036 329.46875 405.53125 C 329.51528 405.252 329.32514 404.80857 328.90625 404.25 C 328.41751 403.62166 327.88633 403.28859 327.28125 403.21875 z M 452.84375 408.6875 C 452.4481 408.68752 452.10706 408.84574 451.78125 409.125 C 451.4787 409.38102 451.31249 409.87231 451.3125 410.59375 C 451.31249 411.2454 451.49465 411.69747 451.84375 412 C 452.09974 412.23274 452.39292 412.37501 452.71875 412.375 C 453.25401 412.37501 453.74531 412.1297 454.1875 411.6875 C 454.3504 411.52461 454.40624 411.11242 454.40625 410.4375 C 454.40624 409.64624 454.24735 409.15495 453.875 408.96875 C 453.5259 408.78259 453.16956 408.68752 452.84375 408.6875 z M 332.125 412.6875 C 331.61299 412.68751 330.99472 413.19476 330.25 414.21875 C 329.50527 415.24276 328.78395 416.25726 328.0625 417.28125 C 326.45668 419.39907 325.625 421.19805 325.625 422.6875 C 325.625 423.68823 325.9973 424.56777 326.71875 425.3125 C 327.20748 425.8245 327.88891 426.09375 328.75 426.09375 C 330.89108 426.09375 333.41138 424.81 336.34375 422.25 C 339.2761 419.69001 340.74998 417.53469 340.75 415.8125 C 340.74998 415.48669 340.66289 415.19351 340.5 414.9375 C 340.08108 414.2626 339.74801 413.93751 339.46875 413.9375 C 339.23601 413.93751 338.92687 414.24665 338.53125 414.875 C 337.78651 415.9921 337.24003 416.76062 336.9375 417.15625 C 336.09967 418.20353 335.14833 419.12296 334.03125 419.9375 C 330.9127 422.14841 329.12968 423.14696 328.6875 422.9375 C 328.57113 422.89096 328.5 422.78791 328.5 422.625 C 328.5 422.27591 329.28447 420.98419 330.84375 418.75 C 332.42629 416.51583 333.21874 414.93092 333.21875 414 C 333.21874 413.67419 333.1157 413.37304 332.90625 413.09375 C 332.69679 412.81449 332.42754 412.68751 332.125 412.6875 z M 346.21875 412.875 C 345.63693 412.85174 345.19284 413.30315 344.84375 414.1875 L 343.09375 418.84375 C 343.0472 418.93685 342.54793 419.87955 341.59375 421.625 C 340.91884 422.85846 340.5625 423.78587 340.5625 424.4375 C 340.5625 424.97277 340.76061 425.37698 341.15625 425.65625 C 341.55189 425.93552 341.9162 426.09375 342.21875 426.09375 C 342.84711 426.09375 343.52854 425.44423 344.25 424.1875 C 345.27399 422.46532 345.97936 421.41891 346.375 421 C 348.21354 419.11492 350.02049 417.95814 351.8125 417.5625 C 352.04522 417.51596 352.44144 417.57912 353 417.71875 C 353.65162 417.85839 354.07976 417.90626 354.3125 417.90625 C 355.05721 417.90626 355.45344 417.47812 355.5 416.59375 C 355.54653 415.61631 354.69823 415.12501 352.90625 415.125 C 352.65024 415.12501 352.30187 415.13299 351.90625 415.15625 C 351.53388 415.15626 351.30385 415.15626 351.1875 415.15625 C 350.88494 415.15626 350.28263 415.36235 349.375 415.78125 C 348.46736 416.20017 347.85706 416.40626 347.53125 416.40625 C 347.27524 416.40626 347.12499 416.32715 347.125 416.1875 C 347.12499 416.09442 347.19613 415.83249 347.3125 415.34375 C 347.45213 414.85503 347.53124 414.45881 347.53125 414.15625 C 347.53124 413.36499 347.07983 412.92156 346.21875 412.875 z M 360.1875 412.875 C 359.60568 412.85174 359.16159 413.30315 358.8125 414.1875 L 357.0625 418.84375 C 357.01595 418.93685 356.51668 419.87955 355.5625 421.625 C 354.88759 422.85846 354.5625 423.78587 354.5625 424.4375 C 354.5625 424.97277 354.76061 425.37698 355.15625 425.65625 C 355.55189 425.93552 355.88495 426.09375 356.1875 426.09375 C 356.81586 426.09375 357.49729 425.44423 358.21875 424.1875 C 359.24274 422.46532 359.94811 421.41891 360.34375 421 C 362.18229 419.11492 363.98924 417.95814 365.78125 417.5625 C 366.01397 417.51596 366.41019 417.57912 366.96875 417.71875 C 367.62037 417.85839 368.07976 417.90626 368.3125 417.90625 C 369.05721 417.90626 369.45344 417.47812 369.5 416.59375 C 369.54653 415.61631 368.66698 415.12501 366.875 415.125 C 366.61899 415.12501 366.30187 415.13299 365.90625 415.15625 C 365.53388 415.15626 365.2726 415.15626 365.15625 415.15625 C 364.85369 415.15626 364.25138 415.36235 363.34375 415.78125 C 362.43611 416.20017 361.82581 416.40626 361.5 416.40625 C 361.24399 416.40626 361.12499 416.32715 361.125 416.1875 C 361.12499 416.09442 361.16488 415.83249 361.28125 415.34375 C 361.42088 414.85503 361.49999 414.45881 361.5 414.15625 C 361.49999 413.36499 361.04858 412.92156 360.1875 412.875 z M 397.96875 412.875 C 397.38693 412.85174 396.94284 413.30315 396.59375 414.1875 L 394.84375 418.84375 C 394.7972 418.93685 394.29793 419.87955 393.34375 421.625 C 392.66884 422.85846 392.3125 423.78587 392.3125 424.4375 C 392.3125 424.97277 392.51061 425.37698 392.90625 425.65625 C 393.30189 425.93552 393.6662 426.09375 393.96875 426.09375 C 394.59711 426.09375 395.27854 425.44423 396 424.1875 C 397.02399 422.46532 397.72936 421.41891 398.125 421 C 399.96354 419.11492 401.77049 417.95814 403.5625 417.5625 C 403.79522 417.51596 404.19144 417.57912 404.75 417.71875 C 405.40162 417.85839 405.82976 417.90626 406.0625 417.90625 C 406.80721 417.90626 407.20344 417.47812 407.25 416.59375 C 407.29653 415.61631 406.44823 415.12501 404.65625 415.125 C 404.40024 415.12501 404.05187 415.13299 403.65625 415.15625 C 403.28388 415.15626 403.05385 415.15626 402.9375 415.15625 C 402.63494 415.15626 402.03263 415.36235 401.125 415.78125 C 400.21736 416.20017 399.60706 416.40626 399.28125 416.40625 C 399.02524 416.40626 398.87499 416.32715 398.875 416.1875 C 398.87499 416.09442 398.94613 415.83249 399.0625 415.34375 C 399.20213 414.85503 399.28124 414.45881 399.28125 414.15625 C 399.28124 413.36499 398.82983 412.92156 397.96875 412.875 z M 372.1875 412.90625 C 371.79186 412.97608 371.60173 413.75258 371.625 415.21875 L 371.5625 416.90625 C 371.5625 417.62771 371.6815 418.3251 371.9375 419 C 372.79859 421.304 373.16291 422.52459 373 422.6875 C 371.83636 423.82787 370.3545 425.59493 368.5625 427.96875 C 367.86432 428.76002 367.16693 429.5445 366.46875 430.3125 C 365.72403 431.19686 365.34375 431.98134 365.34375 432.65625 C 365.34375 433.1217 365.53389 433.6449 365.90625 434.25 C 366.27862 434.85508 366.67484 435.15624 367.09375 435.15625 C 367.53593 435.15624 368.10634 434.66495 368.78125 433.6875 C 369.5958 432.50059 370.39623 431.3119 371.1875 430.125 C 372.42095 428.37954 373.72066 426.87375 375.09375 425.59375 C 375.62902 425.10502 376.54845 424.00343 377.875 422.28125 C 379.20154 420.55907 380.15222 419.45748 380.6875 418.96875 C 381.05985 418.61967 381.45608 418.06521 381.875 417.34375 C 382.41026 416.43612 382.65624 415.64367 382.65625 414.96875 C 382.65624 414.61967 382.56117 414.2866 382.375 413.9375 C 382.18881 413.58842 381.95081 413.40626 381.625 413.40625 C 381.2759 413.40626 380.81651 413.82642 380.28125 414.6875 C 379.67615 415.68824 379.26397 416.2746 379.03125 416.4375 C 377.75124 417.27533 376.76067 418.25792 376.0625 419.375 C 375.50395 420.2361 375.19481 420.64828 375.125 420.625 L 374.34375 416.65625 C 373.80847 414.02645 373.09513 412.76663 372.1875 412.90625 z M 427.125 413.15625 C 426.84572 413.13299 426.4495 413.74329 425.9375 415 C 425.07641 417.02474 424.39497 418.5066 423.90625 419.4375 C 423.51061 420.08914 423.10641 420.7626 422.6875 421.4375 C 422.24532 422.22878 422.03923 422.84705 422.0625 423.3125 C 422.10905 423.89432 422.363 424.48866 422.875 425.09375 C 423.387 425.67557 423.87829 426.02393 424.34375 426.09375 C 424.59975 426.11702 424.97204 425.66561 425.4375 424.78125 C 426.13568 423.40816 426.64293 422.49671 426.96875 422.03125 C 427.4342 421.33307 428.22665 420.4296 429.34375 419.3125 C 430.39101 418.21869 430.99333 417.65626 431.15625 417.65625 C 431.41224 417.65626 431.62631 417.83044 431.8125 418.15625 C 431.99867 418.4588 432.07779 418.77592 432.03125 419.125 C 432.00797 419.33446 431.61174 419.90487 430.84375 420.8125 C 430.09902 421.72014 429.71874 422.33044 429.71875 422.65625 L 429.71875 423.03125 C 429.69547 423.19416 429.68749 423.29721 429.6875 423.34375 C 429.68749 423.85575 430.28981 424.4973 431.5 425.21875 C 431.6629 425.31184 431.83708 425.34375 432 425.34375 C 432.72144 425.34375 433.62492 424.24216 434.71875 422.03125 C 435.81255 419.79708 436.58108 418.68751 437 418.6875 C 437.23271 418.68751 437.34373 418.83044 437.34375 419.15625 C 437.34373 419.52862 437.13764 420.40019 436.71875 421.75 C 436.34637 423.00673 436.17219 423.77525 436.21875 424.03125 C 436.45146 425.21816 437.03783 425.8125 437.96875 425.8125 C 438.43419 425.8125 438.83839 425.155 439.1875 423.875 C 439.39694 422.99064 439.61101 422.09514 439.84375 421.1875 C 439.98337 420.79187 440.06248 420.08651 440.0625 419.0625 C 440.06248 416.22324 439.46016 414.72542 438.25 414.5625 C 437.50526 414.46942 436.5938 414.97667 435.5 416.09375 C 434.42944 417.21085 433.85903 417.78126 433.8125 417.78125 C 433.69612 417.78126 433.2999 417.20287 432.625 416.0625 C 431.95008 414.92215 431.34776 414.31185 430.8125 414.21875 C 430.32376 414.14894 429.93551 414.24401 429.65625 414.5 C 429.40024 414.75601 429.19415 414.86703 429.03125 414.84375 C 428.77524 414.82049 428.56118 414.53528 428.375 414 C 428.18881 413.46474 427.77663 413.17954 427.125 413.15625 z M 454.625 413.15625 C 454.48536 413.15626 454.34243 413.21942 454.15625 413.3125 C 453.87697 413.47542 453.71875 413.87963 453.71875 414.53125 C 453.71875 414.88035 453.7819 415.48267 453.875 416.34375 C 453.99136 417.20485 454.03124 417.82312 454.03125 418.21875 C 454.03124 418.61439 454.00731 418.92353 453.9375 419.15625 C 453.82113 419.48207 452.93361 420.32173 451.28125 421.625 C 449.74525 422.81191 448.96875 423.81046 448.96875 424.625 C 448.96875 424.97409 449.11102 425.29918 449.34375 425.625 C 449.57648 425.95082 449.83841 426.125 450.1875 426.125 C 450.72277 426.125 451.61029 425.54661 452.84375 424.40625 C 454.10047 423.24262 454.94811 422.65625 455.34375 422.65625 C 455.59974 422.65625 455.98799 423.15553 456.5 424.15625 C 457.24472 425.62243 457.74399 426.53389 458 426.90625 C 458.6749 427.8837 459.30913 428.375 459.9375 428.375 C 460.56585 428.375 460.87499 428.14497 460.875 427.65625 C 460.87499 427.0977 460.37572 425.90902 459.375 424.09375 C 458.37426 422.25521 457.87499 421.15362 457.875 420.78125 C 457.87499 420.71144 457.88297 420.6403 457.90625 420.59375 C 457.99933 420.40757 458.45074 420.06653 459.21875 419.53125 C 460.07983 418.90289 460.6981 418.35642 461.09375 417.9375 C 461.74537 417.21605 462.06249 416.51069 462.0625 415.8125 C 462.06249 414.69542 461.72144 414.15626 461 414.15625 C 460.46472 414.15626 459.67226 414.60035 458.625 415.53125 C 457.57772 416.4389 457.00731 416.89828 456.9375 416.875 C 456.89095 416.85174 456.61372 416.21019 456.125 415 C 455.65954 413.76656 455.16027 413.15626 454.625 413.15625 z M 415.90625 413.96875 C 414.95206 413.96876 413.50211 414.64222 411.59375 415.96875 C 409.05702 417.73748 407.74934 419.17214 407.65625 420.3125 C 407.58643 421.28996 408.09368 422.46269 409.1875 423.8125 C 410.28131 425.13905 411.25593 425.86036 412.09375 426 C 412.39629 426.04655 412.69745 426.09375 413 426.09375 C 414.39636 426.09375 415.7672 425.71348 417.09375 424.96875 C 418.44356 424.20075 419.12499 423.44818 419.125 422.75 C 419.12499 422.28455 418.87169 422.0625 418.40625 422.0625 C 418.24333 422.0625 417.62506 422.22871 416.53125 422.53125 C 415.34433 422.88034 414.18756 423.09441 413.09375 423.1875 C 412.0232 423.28059 411.17491 423.12237 410.5 422.75 C 409.96473 422.44746 409.6875 422.10641 409.6875 421.6875 C 409.6875 421.47805 409.77459 421.30387 409.9375 421.1875 C 410.00732 421.14096 410.12632 421.20412 410.3125 421.34375 C 410.61504 421.57648 411.01925 421.7746 411.53125 421.9375 C 411.83379 422.05387 412.19013 422.09375 412.5625 422.09375 C 413.98213 422.09375 415.38488 421.49144 416.78125 420.28125 C 418.1776 419.0478 418.87499 417.82721 418.875 416.59375 C 418.87499 415.98867 418.6689 415.44219 418.25 415 C 417.55181 414.30183 416.76733 413.96876 415.90625 413.96875 z M 447.5 415.5 C 447.03454 415.50001 446.51931 416.07042 445.9375 417.1875 C 445.00659 418.97951 444.4282 420.00996 444.21875 420.3125 C 443.73002 420.94087 443.2467 421.59837 442.78125 422.25 C 442.17616 423.15764 441.875 423.88693 441.875 424.46875 C 441.875 425.05057 442.15223 425.51793 442.6875 425.84375 C 442.96677 426.00666 443.25198 426.09375 443.53125 426.09375 C 444.15961 426.09375 444.77788 425.62639 445.40625 424.71875 L 446.53125 422.6875 C 447.97415 420.17405 448.68749 418.28798 448.6875 417.03125 C 448.68749 416.42617 448.53658 416.00601 448.1875 415.75 C 447.95477 415.5871 447.70945 415.50001 447.5 415.5 z M 415.96875 416.28125 C 416.31783 416.28126 416.49999 416.40824 416.5 416.6875 C 416.49999 417.10642 415.91363 417.6848 414.75 418.40625 C 414.23799 418.56917 413.84177 418.66423 413.5625 418.6875 C 412.46868 418.99005 411.89029 419.08512 411.84375 418.96875 C 411.77393 418.87567 412.38422 418.51933 413.6875 417.9375 C 413.80386 417.89096 414.16818 417.58183 414.75 417 C 415.26199 416.51128 415.6662 416.28126 415.96875 416.28125 z "
       style="font-size:34.90906906000000021px;font-style:normal;font-variant:normal;font-weight:normal;font-stretch:normal;fill:#f5e3e3;fill-opacity:1;stroke:none;font-family:Blunter;-inkscape-font-specification:Blunter"
       id="path3661"
       d="m 327.28125,403.21875 c -0.6051,-0.0931 -1.50858,0.58039 -2.71875,2 -0.95419,1.09384 -1.74665,2.14822 -2.375,3.21875 -0.23274,0.39565 -0.67617,1.55243 -1.28125,3.4375 -0.53528,1.6291 -0.95544,2.54853 -1.28125,2.78125 -0.32582,0.23274 -0.7061,0.33578 -1.125,0.3125 -0.81455,-0.0465 -1.2028,-0.0625 -1.15625,-0.0625 -0.256,10e-6 -0.613,-0.10303 -1.125,-0.3125 -0.512,-0.20944 -0.86834,-0.31249 -1.03125,-0.3125 -0.32582,10e-6 -0.46875,0.2061 -0.46875,0.625 0,0.3491 0.21407,0.82444 0.65625,1.40625 0.46545,0.58183 0.86168,0.87501 1.1875,0.875 0.0931,10e-6 0.18816,-0.008 0.28125,-0.0312 0.11636,-0.0465 0.20345,-0.0937 0.25,-0.0937 0.18618,10e-6 0.31315,0.26128 0.40625,0.75 0.0931,0.53528 -0.67544,1.53383 -2.28125,3 -1.60582,1.46618 -2.40625,2.33775 -2.40625,2.59375 0,0.512 0.15025,1.04318 0.40625,1.625 0.32582,0.69818 0.68282,1.0625 1.125,1.0625 0.11636,0 0.25863,-0.0472 0.375,-0.0937 0.23273,-0.0931 0.68479,-0.6163 1.40625,-1.59375 0.48872,-0.72145 0.98002,-1.42682 1.46875,-2.125 l 1.75,-2.53125 c 0.95417,-1.30326 1.73865,-2.11167 2.34375,-2.4375 0.88435,-0.1629 1.7639,-0.30583 2.625,-0.46875 1.3498,-0.34908 1.97605,-1.00658 1.90625,-1.9375 -0.0233,-0.60508 -0.40356,-0.90624 -1.125,-0.90625 -0.25601,10e-6 -0.60503,0.0632 -1.09375,0.15625 -0.48874,0.0698 -0.8371,0.0938 -1,0.0937 -0.3491,10e-6 -0.50001,-0.12697 -0.5,-0.40625 -10e-6,-0.88435 0.60231,-2.36621 1.8125,-4.4375 0.25599,-0.44216 0.6921,-1.02853 1.34375,-1.75 0.74471,-0.8378 1.25196,-1.24998 1.53125,-1.25 0.11635,2e-5 0.18749,0.0559 0.1875,0.21875 -10e-6,0.16293 -0.1742,0.5432 -0.5,1.125 -0.30256,0.58184 -0.43751,0.98604 -0.4375,1.21875 -10e-6,0.32583 0.12696,0.50002 0.40625,0.5 0.37235,2e-5 0.93478,-0.6023 1.65625,-1.8125 0.60507,-1.07053 0.92219,-1.77589 0.96875,-2.125 0.0465,-0.27925 -0.14361,-0.72268 -0.5625,-1.28125 -0.48874,-0.62834 -1.01992,-0.96141 -1.625,-1.03125 z m 125.5625,5.46875 c -0.39565,2e-5 -0.73669,0.15824 -1.0625,0.4375 -0.30255,0.25602 -0.46876,0.74731 -0.46875,1.46875 -10e-6,0.65165 0.18215,1.10372 0.53125,1.40625 0.25599,0.23274 0.54917,0.37501 0.875,0.375 0.53526,10e-6 1.02656,-0.2453 1.46875,-0.6875 0.1629,-0.16289 0.21874,-0.57508 0.21875,-1.25 -10e-6,-0.79126 -0.1589,-1.28255 -0.53125,-1.46875 -0.3491,-0.18616 -0.70544,-0.28123 -1.03125,-0.28125 z m -120.71875,4 c -0.51201,10e-6 -1.13028,0.50726 -1.875,1.53125 -0.74473,1.02401 -1.46605,2.03851 -2.1875,3.0625 -1.60582,2.11782 -2.4375,3.9168 -2.4375,5.40625 0,1.00073 0.3723,1.88027 1.09375,2.625 0.48873,0.512 1.17016,0.78125 2.03125,0.78125 2.14108,0 4.66138,-1.28375 7.59375,-3.84375 2.93235,-2.55999 4.40623,-4.71531 4.40625,-6.4375 -2e-5,-0.32581 -0.0871,-0.61899 -0.25,-0.875 -0.41892,-0.6749 -0.75199,-0.99999 -1.03125,-1 -0.23274,10e-6 -0.54188,0.30915 -0.9375,0.9375 -0.74474,1.1171 -1.29122,1.88562 -1.59375,2.28125 -0.83783,1.04728 -1.78917,1.96671 -2.90625,2.78125 -3.11855,2.21091 -4.90157,3.20946 -5.34375,3 -0.11637,-0.0465 -0.1875,-0.14959 -0.1875,-0.3125 0,-0.34909 0.78447,-1.64081 2.34375,-3.875 1.58254,-2.23417 2.37499,-3.81908 2.375,-4.75 -10e-6,-0.32581 -0.10305,-0.62696 -0.3125,-0.90625 -0.20946,-0.27926 -0.47871,-0.40624 -0.78125,-0.40625 z m 14.09375,0.1875 c -0.58182,-0.0233 -1.02591,0.42815 -1.375,1.3125 l -1.75,4.65625 c -0.0466,0.0931 -0.54582,1.0358 -1.5,2.78125 -0.67491,1.23346 -1.03125,2.16087 -1.03125,2.8125 0,0.53527 0.19811,0.93948 0.59375,1.21875 0.39564,0.27927 0.75995,0.4375 1.0625,0.4375 0.62836,0 1.30979,-0.64952 2.03125,-1.90625 1.02399,-1.72218 1.72936,-2.76859 2.125,-3.1875 1.83854,-1.88508 3.64549,-3.04186 5.4375,-3.4375 0.23272,-0.0465 0.62894,0.0166 1.1875,0.15625 0.65162,0.13964 1.07976,0.18751 1.3125,0.1875 0.74471,10e-6 1.14094,-0.42813 1.1875,-1.3125 0.0465,-0.97744 -0.80177,-1.46874 -2.59375,-1.46875 -0.25601,10e-6 -0.60438,0.008 -1,0.0312 -0.37237,10e-6 -0.6024,10e-6 -0.71875,0 -0.30256,10e-6 -0.90487,0.2061 -1.8125,0.625 -0.90764,0.41892 -1.51794,0.62501 -1.84375,0.625 -0.25601,10e-6 -0.40626,-0.0791 -0.40625,-0.21875 -10e-6,-0.0931 0.0711,-0.35501 0.1875,-0.84375 0.13963,-0.48872 0.21874,-0.88494 0.21875,-1.1875 -10e-6,-0.79126 -0.45142,-1.23469 -1.3125,-1.28125 z m 13.96875,0 c -0.58182,-0.0233 -1.02591,0.42815 -1.375,1.3125 l -1.75,4.65625 c -0.0466,0.0931 -0.54582,1.0358 -1.5,2.78125 -0.67491,1.23346 -1,2.16087 -1,2.8125 0,0.53527 0.19811,0.93948 0.59375,1.21875 0.39564,0.27927 0.7287,0.4375 1.03125,0.4375 0.62836,0 1.30979,-0.64952 2.03125,-1.90625 1.02399,-1.72218 1.72936,-2.76859 2.125,-3.1875 1.83854,-1.88508 3.64549,-3.04186 5.4375,-3.4375 0.23272,-0.0465 0.62894,0.0166 1.1875,0.15625 0.65162,0.13964 1.11101,0.18751 1.34375,0.1875 0.74471,10e-6 1.14094,-0.42813 1.1875,-1.3125 0.0465,-0.97744 -0.83302,-1.46874 -2.625,-1.46875 -0.25601,10e-6 -0.57313,0.008 -0.96875,0.0312 -0.37237,10e-6 -0.63365,10e-6 -0.75,0 -0.30256,10e-6 -0.90487,0.2061 -1.8125,0.625 -0.90764,0.41892 -1.51794,0.62501 -1.84375,0.625 -0.25601,10e-6 -0.37501,-0.0791 -0.375,-0.21875 -10e-6,-0.0931 0.0399,-0.35501 0.15625,-0.84375 0.13963,-0.48872 0.21874,-0.88494 0.21875,-1.1875 -10e-6,-0.79126 -0.45142,-1.23469 -1.3125,-1.28125 z m 37.78125,0 c -0.58182,-0.0233 -1.02591,0.42815 -1.375,1.3125 l -1.75,4.65625 c -0.0466,0.0931 -0.54582,1.0358 -1.5,2.78125 -0.67491,1.23346 -1.03125,2.16087 -1.03125,2.8125 0,0.53527 0.19811,0.93948 0.59375,1.21875 0.39564,0.27927 0.75995,0.4375 1.0625,0.4375 0.62836,0 1.30979,-0.64952 2.03125,-1.90625 1.02399,-1.72218 1.72936,-2.76859 2.125,-3.1875 1.83854,-1.88508 3.64549,-3.04186 5.4375,-3.4375 0.23272,-0.0465 0.62894,0.0166 1.1875,0.15625 0.65162,0.13964 1.07976,0.18751 1.3125,0.1875 0.74471,10e-6 1.14094,-0.42813 1.1875,-1.3125 0.0465,-0.97744 -0.80177,-1.46874 -2.59375,-1.46875 -0.25601,10e-6 -0.60438,0.008 -1,0.0312 -0.37237,10e-6 -0.6024,10e-6 -0.71875,0 -0.30256,10e-6 -0.90487,0.2061 -1.8125,0.625 -0.90764,0.41892 -1.51794,0.62501 -1.84375,0.625 -0.25601,10e-6 -0.40626,-0.0791 -0.40625,-0.21875 -10e-6,-0.0931 0.0711,-0.35501 0.1875,-0.84375 0.13963,-0.48872 0.21874,-0.88494 0.21875,-1.1875 -10e-6,-0.79126 -0.45142,-1.23469 -1.3125,-1.28125 z m -25.78125,0.0312 c -0.39564,0.0698 -0.58577,0.84633 -0.5625,2.3125 l -0.0625,1.6875 c 0,0.72146 0.119,1.41885 0.375,2.09375 0.86109,2.304 1.22541,3.52459 1.0625,3.6875 -1.16364,1.14037 -2.6455,2.90743 -4.4375,5.28125 -0.69818,0.79127 -1.39557,1.57575 -2.09375,2.34375 -0.74472,0.88436 -1.125,1.66884 -1.125,2.34375 0,0.46545 0.19014,0.98865 0.5625,1.59375 0.37237,0.60508 0.76859,0.90624 1.1875,0.90625 0.44218,-10e-6 1.01259,-0.4913 1.6875,-1.46875 0.81455,-1.18691 1.61498,-2.3756 2.40625,-3.5625 1.23345,-1.74546 2.53316,-3.25125 3.90625,-4.53125 0.53527,-0.48873 1.4547,-1.59032 2.78125,-3.3125 1.32654,-1.72218 2.27722,-2.82377 2.8125,-3.3125 0.37235,-0.34908 0.76858,-0.90354 1.1875,-1.625 0.53526,-0.90763 0.78124,-1.70008 0.78125,-2.375 -10e-6,-0.34908 -0.0951,-0.68215 -0.28125,-1.03125 -0.18619,-0.34908 -0.42419,-0.53124 -0.75,-0.53125 -0.3491,10e-6 -0.80849,0.42017 -1.34375,1.28125 -0.6051,1.00074 -1.01728,1.5871 -1.25,1.75 -1.28001,0.83783 -2.27058,1.82042 -2.96875,2.9375 -0.55855,0.8611 -0.86769,1.27328 -0.9375,1.25 l -0.78125,-3.96875 c -0.53528,-2.6298 -1.24862,-3.88962 -2.15625,-3.75 z m 54.9375,0.25 c -0.27928,-0.0233 -0.6755,0.58704 -1.1875,1.84375 -0.86109,2.02474 -1.54253,3.5066 -2.03125,4.4375 -0.39564,0.65164 -0.79984,1.3251 -1.21875,2 -0.44218,0.79128 -0.64827,1.40955 -0.625,1.875 0.0466,0.58182 0.3005,1.17616 0.8125,1.78125 0.512,0.58182 1.00329,0.93018 1.46875,1 0.256,0.0233 0.62829,-0.42814 1.09375,-1.3125 0.69818,-1.37309 1.20543,-2.28454 1.53125,-2.75 0.46545,-0.69818 1.2579,-1.60165 2.375,-2.71875 1.04726,-1.09381 1.64958,-1.65624 1.8125,-1.65625 0.25599,10e-6 0.47006,0.17419 0.65625,0.5 0.18617,0.30255 0.26529,0.61967 0.21875,0.96875 -0.0233,0.20946 -0.41951,0.77987 -1.1875,1.6875 -0.74473,0.90764 -1.12501,1.51794 -1.125,1.84375 l 0,0.375 c -0.0233,0.16291 -0.0313,0.26596 -0.0312,0.3125 -10e-6,0.512 0.60231,1.15355 1.8125,1.875 0.1629,0.0931 0.33708,0.125 0.5,0.125 0.72144,0 1.62492,-1.10159 2.71875,-3.3125 1.0938,-2.23417 1.86233,-3.34374 2.28125,-3.34375 0.23271,10e-6 0.34373,0.14294 0.34375,0.46875 -2e-5,0.37237 -0.20611,1.24394 -0.625,2.59375 -0.37238,1.25673 -0.54656,2.02525 -0.5,2.28125 0.23271,1.18691 0.81908,1.78125 1.75,1.78125 0.46544,0 0.86964,-0.6575 1.21875,-1.9375 0.20944,-0.88436 0.42351,-1.77986 0.65625,-2.6875 0.13962,-0.39563 0.21873,-1.10099 0.21875,-2.125 -2e-5,-2.83926 -0.60234,-4.33708 -1.8125,-4.5 -0.74474,-0.0931 -1.6562,0.41417 -2.75,1.53125 -1.07056,1.1171 -1.64097,1.68751 -1.6875,1.6875 -0.11638,10e-6 -0.5126,-0.57838 -1.1875,-1.71875 -0.67492,-1.14035 -1.27724,-1.75065 -1.8125,-1.84375 -0.48874,-0.0698 -0.87699,0.0253 -1.15625,0.28125 -0.25601,0.25601 -0.4621,0.36703 -0.625,0.34375 -0.25601,-0.0233 -0.47007,-0.30847 -0.65625,-0.84375 -0.18619,-0.53526 -0.59837,-0.82046 -1.25,-0.84375 z m 27.5,0 c -0.13964,10e-6 -0.28257,0.0632 -0.46875,0.15625 -0.27928,0.16292 -0.4375,0.56713 -0.4375,1.21875 0,0.3491 0.0632,0.95142 0.15625,1.8125 0.11636,0.8611 0.15624,1.47937 0.15625,1.875 -10e-6,0.39564 -0.0239,0.70478 -0.0937,0.9375 -0.11637,0.32582 -1.00389,1.16548 -2.65625,2.46875 -1.536,1.18691 -2.3125,2.18546 -2.3125,3 0,0.34909 0.14227,0.67418 0.375,1 0.23273,0.32582 0.49466,0.5 0.84375,0.5 0.53527,0 1.42279,-0.57839 2.65625,-1.71875 1.25672,-1.16363 2.10436,-1.75 2.5,-1.75 0.25599,0 0.64424,0.49928 1.15625,1.5 0.74472,1.46618 1.24399,2.37764 1.5,2.75 0.6749,0.97745 1.30913,1.46875 1.9375,1.46875 0.62835,0 0.93749,-0.23003 0.9375,-0.71875 -10e-6,-0.55855 -0.49928,-1.74723 -1.5,-3.5625 -1.00074,-1.83854 -1.50001,-2.94013 -1.5,-3.3125 -10e-6,-0.0698 0.008,-0.14095 0.0312,-0.1875 0.0931,-0.18618 0.54449,-0.52722 1.3125,-1.0625 0.86108,-0.62836 1.47935,-1.17483 1.875,-1.59375 0.65162,-0.72145 0.96874,-1.42681 0.96875,-2.125 -10e-6,-1.11708 -0.34106,-1.65624 -1.0625,-1.65625 -0.53528,10e-6 -1.32774,0.4441 -2.375,1.375 -1.04728,0.90765 -1.61769,1.36703 -1.6875,1.34375 -0.0466,-0.0233 -0.32378,-0.66481 -0.8125,-1.875 -0.46546,-1.23344 -0.96473,-1.84374 -1.5,-1.84375 z m -38.71875,0.8125 c -0.95419,10e-6 -2.40414,0.67347 -4.3125,2 -2.53673,1.76873 -3.84441,3.20339 -3.9375,4.34375 -0.0698,0.97746 0.43743,2.15019 1.53125,3.5 1.09381,1.32655 2.06843,2.04786 2.90625,2.1875 0.30254,0.0466 0.6037,0.0937 0.90625,0.0937 1.39636,0 2.7672,-0.38027 4.09375,-1.125 1.34981,-0.768 2.03124,-1.52057 2.03125,-2.21875 -10e-6,-0.46545 -0.25331,-0.6875 -0.71875,-0.6875 -0.16292,0 -0.78119,0.16621 -1.875,0.46875 -1.18692,0.34909 -2.34369,0.56316 -3.4375,0.65625 -1.07055,0.0931 -1.91884,-0.0651 -2.59375,-0.4375 -0.53527,-0.30254 -0.8125,-0.64359 -0.8125,-1.0625 0,-0.20945 0.0871,-0.38363 0.25,-0.5 0.0698,-0.0465 0.18882,0.0166 0.375,0.15625 0.30254,0.23273 0.70675,0.43085 1.21875,0.59375 0.30254,0.11637 0.65888,0.15625 1.03125,0.15625 1.41963,0 2.82238,-0.60231 4.21875,-1.8125 1.39635,-1.23345 2.09374,-2.45404 2.09375,-3.6875 -10e-6,-0.60508 -0.2061,-1.15156 -0.625,-1.59375 -0.69819,-0.69817 -1.48267,-1.03124 -2.34375,-1.03125 z M 447.5,415.5 c -0.46546,10e-6 -0.98069,0.57042 -1.5625,1.6875 -0.93091,1.79201 -1.5093,2.82246 -1.71875,3.125 -0.48873,0.62837 -0.97205,1.28587 -1.4375,1.9375 -0.60509,0.90764 -0.90625,1.63693 -0.90625,2.21875 0,0.58182 0.27723,1.04918 0.8125,1.375 0.27927,0.16291 0.56448,0.25 0.84375,0.25 0.62836,0 1.24663,-0.46736 1.875,-1.375 l 1.125,-2.03125 c 1.4429,-2.51345 2.15624,-4.39952 2.15625,-5.65625 -10e-6,-0.60508 -0.15092,-1.02524 -0.5,-1.28125 -0.23273,-0.1629 -0.47805,-0.24999 -0.6875,-0.25 z m -31.53125,0.78125 c 0.34908,10e-6 0.53124,0.12699 0.53125,0.40625 -10e-6,0.41892 -0.58637,0.9973 -1.75,1.71875 -0.51201,0.16292 -0.90823,0.25798 -1.1875,0.28125 -1.09382,0.30255 -1.67221,0.39762 -1.71875,0.28125 -0.0698,-0.0931 0.54047,-0.44942 1.84375,-1.03125 0.11636,-0.0465 0.48068,-0.35567 1.0625,-0.9375 0.51199,-0.48872 0.9162,-0.71874 1.21875,-0.71875 z"
       transform="translate(4.9999988,-10.000005)" />
    <path
       style="opacity:0.38999999;fill:#ffefda;fill-opacity:1;fill-rule:evenodd;stroke:none;display:inline"
       d="m 407.48474,419.31245 -0.65625,1.75 c 0.16051,0.22821 0.31408,0.4876 0.4375,0.75 0.0613,-0.33555 0.0637,-0.35193 0.125,-0.6875 0.62871,0.90961 0.80253,1.87513 0.71875,2.8125 -0.017,0.1903 -0.0253,0.376 -0.0625,0.5625 0.037,-0.1859 0.0533,-0.38194 0.0625,-0.5625 0.0339,-0.66432 -0.12807,-1.28055 -0.5625,-1.75 -0.25043,-0.30008 -0.51632,-0.60393 -0.78125,-0.90625 l -0.15625,0.40625 c 0.49059,1.26857 0.42711,2.65995 -0.0625,4.125 0.0613,-0.3356 0.78245,-0.53943 0.84375,-0.875 -0.13044,1.86118 -1.66289,3.06453 -3.21875,3.21875 l -0.0937,0.28125 c -0.0205,0.0409 -0.551,1.02347 -0.65625,1.21875 0.0746,0.008 0.14413,0.0263 0.21875,0.0312 0.25425,0.017 0.53028,0.0213 0.78125,0 0.14765,-0.016 0.29306,-0.0361 0.4375,-0.0625 0.11873,-0.021 0.22714,-0.0327 0.34375,-0.0625 0.0314,-0.008 0.0626,-0.0229 0.0937,-0.0312 0.0323,-0.009 0.0616,-0.0214 0.0937,-0.0312 0.009,-0.003 0.0219,0.003 0.0312,0 0.009,-0.003 0.0221,0.003 0.0312,0 1.12978,-0.33952 2.09587,-1.06124 2.75,-2.34375 0.10583,-0.19986 0.19717,-0.40195 0.28125,-0.625 0.0997,-0.27662 0.21083,-0.54348 0.28125,-0.8125 0.67275,-2.33606 0.28242,-4.74629 -1.28125,-6.40625 z m -3.84375,10.375 c -0.0724,-0.004 -0.14624,0.006 -0.21875,0 -0.0101,-8.7e-4 -0.0211,9.2e-4 -0.0312,0 -0.002,0.004 0.002,0.0272 0,0.0312 0.24234,0.008 0.48112,0.0146 0.71875,0 -0.15436,0.005 -0.31327,-0.0236 -0.46875,-0.0312 z m 4.28125,-9.65625 c 0.20521,0.29829 0.38336,0.61447 0.53125,0.9375 0.46611,1.01808 0.62487,2.12317 0.53125,3.25 0.0676,-1.08391 -0.11738,-2.14974 -0.53125,-3.25 -0.15612,-0.33193 -0.32898,-0.64319 -0.53125,-0.9375 z m -13.9375,0.75 c 0.10714,2.29692 0.31527,4.60295 0.75,6.90625 0.15684,0.62465 0.38305,1.22666 0.65625,1.8125 0.0273,-0.0523 0.0364,-0.10428 0.0625,-0.15625 -0.68214,-1.606 -1.04191,-3.42054 -1.125,-5.21875 -0.10512,-1.07284 -0.18918,-2.1449 -0.25,-3.21875 -0.005,-0.006 0.005,-0.0248 0,-0.0312 -0.0273,-0.0347 -0.066,-0.059 -0.0937,-0.0937 z m 0.0937,0.125 c 0.32998,2.6985 0.81966,5.4017 1.53125,8.09375 0.0349,-0.0766 0.0928,-0.14296 0.125,-0.21875 -0.11868,-0.32995 -0.26467,-0.64222 -0.34375,-0.96875 -0.62339,-2.14349 -0.85766,-4.24917 -0.84375,-6.3125 -0.13978,-0.1972 -0.31242,-0.39448 -0.46875,-0.59375 z m 17.375,2.8125 c -0.004,0.022 -0.0268,0.0405 -0.0312,0.0625 0.0147,-0.0206 0.018,-0.0127 0.0312,0.0312 -0.006,-0.0295 0.007,-0.0643 0,-0.0937 z m -0.0312,0.125 c -0.0236,0.11311 -0.0356,0.23081 -0.0625,0.34375 -0.037,0.29356 -0.0882,0.5899 -0.15625,0.875 0.0345,-0.16532 0.0377,-0.33182 0.0625,-0.5 -0.4008,1.47604 -1.07317,2.90129 -2.03125,4.1875 -0.65817,0.71567 -1.46986,1.31215 -2.34375,1.75 0.59819,-0.23204 1.15712,-0.53343 1.65625,-0.9375 -0.1113,0.12517 -0.22672,0.25398 -0.34375,0.375 -0.76661,0.52986 -1.63496,0.89015 -2.53125,1.0625 0.38708,-0.11509 0.73414,-0.26546 1.09375,-0.4375 -0.36976,0.13365 -0.75574,0.22435 -1.15625,0.28125 -0.89071,0.18045 -1.88805,0.16043 -2.78125,-0.125 -0.0181,0.0334 -0.0435,0.09 -0.0625,0.125 0.76571,0.2739 1.62066,0.35187 2.46875,0.25 -0.35234,0.0829 -0.69308,0.15579 -1.0625,0.1875 -0.49717,0.008 -1.02438,-0.083 -1.5,-0.28125 -0.0464,0.0853 -0.1053,0.18764 -0.15625,0.28125 3.75395,1.34361 7.60437,-2.0497 8.75,-5.65625 0.0136,0.1894 0.0342,0.39881 0.0312,0.59375 -0.0143,0.78075 -0.18279,1.54998 -0.4375,2.3125 -1.28399,3.23322 -3.9048,6.22175 -7.71875,6.21875 -0.8138,-0.0126 -1.57597,-0.14881 -2.28125,-0.40625 -0.0476,0.0882 -0.0791,0.16328 -0.125,0.25 0.11288,0.0427 0.2275,0.0862 0.34375,0.125 2.90791,0.87182 5.83724,-0.27189 7.9375,-2.25 0.0349,-0.038 0.0907,-0.0551 0.125,-0.0937 0.0535,-0.0635 0.10431,-0.12281 0.15625,-0.1875 0.01,-0.0113 0.0218,-0.0199 0.0312,-0.0312 0.0277,-0.0348 0.0665,-0.0586 0.0937,-0.0937 0.37649,-0.46444 0.67997,-0.97157 0.96875,-1.5 0.17601,-0.32525 0.32688,-0.66128 0.46875,-1 0.14187,-0.33872 0.26873,-0.68352 0.375,-1.03125 0.31882,-1.04318 0.46539,-2.11249 0.4375,-3.15625 -0.007,-0.25286 -0.034,-0.50151 -0.0625,-0.75 -0.0242,-0.17028 -0.0588,-0.33286 -0.0937,-0.5 -0.0149,-0.0836 -0.045,-0.16716 -0.0625,-0.25 -0.0118,-0.0259 -0.0186,-0.0318 -0.0312,-0.0312 z m 0.1875,0.78125 c 0.0181,0.12725 0.0505,0.246 0.0625,0.375 -0.0169,-0.12504 -0.0401,-0.25087 -0.0625,-0.375 z m 0.0625,0.375 c 0.0112,0.12052 -0.006,0.25295 0,0.375 0.009,0.18341 0.0341,0.37563 0.0312,0.5625 -0.005,0.19375 -0.0142,0.36867 -0.0312,0.5625 0.0354,-0.29857 0.0821,-0.60496 0.0937,-0.90625 -0.0128,-0.19757 -0.0673,-0.39755 -0.0937,-0.59375 z m -0.4375,3.53125 c -0.0584,0.18847 -0.0884,0.37811 -0.15625,0.5625 0.099,-0.27586 0.17447,-0.56105 0.25,-0.84375 -0.0272,0.0966 -0.0641,0.18558 -0.0937,0.28125 z m 0.0937,-0.28125 c 0.0763,-0.28574 0.16722,-0.58479 0.21875,-0.875 -0.0584,0.29378 -0.13808,0.58808 -0.21875,0.875 z m -0.25,0.84375 c -0.0599,0.16288 -0.15164,0.3095 -0.21875,0.46875 -0.14379,0.34119 -0.29291,0.67848 -0.46875,1 0.25983,-0.47547 0.50416,-0.95787 0.6875,-1.46875 z m 0.1875,-4.53125 c 0.0338,-0.12464 0.064,-0.25 0.0937,-0.375 0.0129,-0.10214 0.0223,-0.20952 0.0312,-0.3125 -0.006,0.0222 -0.0244,0.0315 -0.0312,0.0625 -0.0155,0.21453 -0.0626,0.414 -0.0937,0.625 z m -3.46875,0.75 c -0.2047,0.59046 -0.47893,1.17525 -0.78125,1.65625 -0.4277,0.56936 -1.06266,0.99068 -1.78125,1.25 0.48787,-0.20891 0.97875,-0.55792 1.40625,-1 0.49244,-0.56028 0.89059,-1.21923 1.15625,-1.90625 z m 0.96875,7.4375 c -0.19932,0.20226 -0.40842,0.41284 -0.625,0.59375 0.22201,-0.18287 0.42144,-0.38948 0.625,-0.59375 z m -8.0625,1.875 c -0.0114,0.0216 -0.0199,0.041 -0.0312,0.0625 0.39552,0.14334 0.79215,0.23128 1.21875,0.3125 -0.40884,-0.0886 -0.79889,-0.22549 -1.1875,-0.375 z"
       id="path3513-0" />
    <path
       style="opacity:0.3202847;fill:#ffefda;fill-opacity:1;fill-rule:evenodd;display:inline"
       d="m 352.60974,419.7187 c -2.30127,-0.0179 -3.19947,2.17422 -3.25,4.03125 0.77553,-0.8675 0.19916,-2.30966 1.3125,-3.03125 1.45114,-0.57568 3.23241,-0.99735 4,0.9375 0.19134,0.4823 0.31644,0.95861 0.40625,1.4375 0.0844,0 0.14418,0.0234 0.21875,0.0312 -0.0827,-1.40273 -0.44028,-2.89076 -2.21875,-3.375 -0.16603,-0.0216 -0.31533,-0.0301 -0.46875,-0.0312 z m -19.1875,0.8125 c -10e-4,0.0103 0.001,0.0209 0,0.0312 -0.0442,0.43418 -0.11602,0.85221 -0.21875,1.28125 0.13457,-0.42787 0.23176,-0.87111 0.3125,-1.3125 -0.0303,0.004 -0.0629,-0.005 -0.0937,0 z m -0.21875,1.3125 c -0.41078,1.30613 -1.09516,2.52214 -1.9375,3.59375 0.0732,-0.012 0.31381,-0.0522 0.375,-0.0625 0.73229,-1.07876 1.26652,-2.29512 1.5625,-3.53125 z m -1,-1.0625 c -0.16106,1.86868 -1.02243,3.53486 -2.28125,4.875 0.20252,-0.0319 0.4902,-0.0671 0.65625,-0.0937 1.03578,-1.38493 1.62019,-3.09487 1.625,-4.78125 z m -13.8125,3.5625 c -0.27226,0.12114 -0.5171,0.24955 -0.75,0.375 0.98306,1.55536 2.67653,2.4827 4.5,2.84375 0.0486,-0.0603 0.0833,-0.12944 0.15625,-0.1875 -1.64486,-0.66251 -2.93307,-1.71408 -3.90625,-3.03125 z m -1.21875,0.625 c -0.055,0.0342 -0.13533,0.0592 -0.1875,0.0937 1.31498,2.0661 3.32729,3.41525 5.5625,3.78125 -0.0794,-0.0855 -0.15614,-0.17376 -0.21875,-0.25 -2.16261,-0.52297 -3.9691,-1.76383 -5.15625,-3.625 z m -0.21875,0.125 c -0.0909,0.0609 -0.16777,0.12567 -0.25,0.1875 0.34663,0.58875 0.72239,1.1659 1.1875,1.71875 1.4463,1.71913 3.49643,2.60886 5.59375,2.71875 -0.15618,-0.1371 -0.33754,-0.28294 -0.46875,-0.40625 -2.89426,-0.26927 -4.78597,-1.96341 -6.0625,-4.21875 z m 38.34375,0.375 c -0.0465,0.0462 -0.10606,0.10911 -0.15625,0.15625 -0.59719,3.72798 -4.00843,6.74676 -7.9375,6.84375 -2.31865,-0.19985 -5.02556,-1.36709 -6.46875,-3.59375 -0.25034,-0.47998 -0.4364,-0.97685 -0.625,-1.46875 -0.0788,0.0868 -0.1441,0.16429 -0.21875,0.25 0.71485,1.4382 1.76803,2.76823 3.3125,3.875 5.07393,3.34172 11.52639,-0.79303 12.09375,-6.0625 z m -15.625,2.4375 c -0.0336,0.0404 -0.0611,0.0849 -0.0937,0.125 0.0546,0.13269 0.0972,0.27436 0.15625,0.40625 2.25676,4.98304 8.93047,6.26006 13,2.40625 -2.51847,2.1188 -6.44942,2.80724 -9.34375,1.15625 -1.76335,-1.13743 -2.95403,-2.53038 -3.71875,-4.09375 z"
       id="path3527-4-5" />
    <path
       style="opacity:0.66548043;fill:#fffdf9;fill-opacity:1;fill-rule:evenodd;display:inline"
       d="m 332.04724,393.21869 c -0.16017,0.0226 -0.36883,0.11241 -0.5625,0.21875 1.3142,0.28295 2.46372,0.77908 2.65625,2.5 0.0156,0.17005 -0.004,0.3309 0,0.5 0.17328,-0.3663 0.27501,-0.65284 0.3125,-0.84375 -0.0639,-0.27942 -0.14721,-0.56619 -0.25,-0.84375 -0.0876,-0.15402 -0.14289,-0.3155 -0.28125,-0.5 -0.48874,-0.62834 -1.05117,-0.96141 -1.65625,-1.03125 -0.0756,-0.0116 -0.13366,-0.012 -0.21875,0 z m -0.53125,1.78125 c -0.10527,-0.005 -0.22711,0.0209 -0.34375,0.0312 0.71114,0.006 1.3684,0.43069 1.65625,1.15625 0.22087,0.80744 0.22914,1.57573 0.0937,2.3125 0.0993,-0.13867 0.20431,-0.29936 0.3125,-0.46875 0.10735,-1.43317 -0.25337,-2.95743 -1.71875,-3.03125 l 5e-5,5e-5 z m 33.4375,7.9375 c -0.15325,0.0328 -0.3026,0.0831 -0.4375,0.1875 0.39659,1.10784 0.934,2.13007 1.59375,3.0625 0,-0.062 0.0733,-0.3246 0.125,-0.5625 -0.52116,-0.85247 -0.93107,-1.75525 -1.28125,-2.6875 z m -28.8125,0.25 c -0.0644,0.058 -0.12079,0.11924 -0.1875,0.1875 -0.44498,0.6852 -0.93557,1.3411 -1.46875,1.9375 0.64512,-0.65881 1.18727,-1.37116 1.65625,-2.125 z m -10.75,0.15625 c -0.0528,0.12885 -0.10621,0.26466 -0.15625,0.375 0.44806,0.0988 0.93213,0.1818 1.4375,0.21875 0.28417,8.1e-4 0.54402,-0.0252 0.8125,-0.0625 -8.1e-4,-0.0128 0,-0.0178 0,-0.0312 0,-0.12347 0.0389,-0.29088 0.0625,-0.4375 -0.71919,0.10704 -1.4473,0.0671 -2.15625,-0.0625 l 0,-5e-5 z m 19.0625,0.59375 c -0.18309,1e-5 -0.43486,0.23614 -0.71875,0.625 0.5217,0.19868 1.13665,0.7456 1.9375,1.90625 0.0458,-0.22836 0.0937,-0.44097 0.0937,-0.65625 0,-0.0107 1.8e-4,-0.0206 0,-0.0312 -0.41973,-0.58326 -0.82398,-1.2028 -1.1875,-1.8125 -0.0423,-0.0135 -0.0855,-0.0312 -0.125,-0.0312 l 5e-5,-1e-4 z m -19.34375,0.0312 c -0.0281,0.0557 -0.0666,0.10696 -0.0937,0.15625 0.56843,0.14374 1.18306,0.24226 1.84375,0.28125 1.00014,0.10968 1.96679,-0.006 2.875,-0.34375 -0.22216,0.0207 -0.42481,0.0318 -0.75,0.0937 -0.48874,0.0698 -0.80585,0.0938 -0.96875,0.0937 -0.13091,10e-6 -0.23068,-0.0232 -0.3125,-0.0625 -0.49629,0.0426 -1.01295,0.0226 -1.53125,-0.0625 -0.37543,-0.0324 -0.71895,-0.086 -1.0625,-0.15625 l -5e-5,10e-5 z m -4.90625,0.3125 c -0.32582,2e-5 -0.5,0.20611 -0.5,0.625 0,0.0585 0.0188,0.12242 0.0312,0.1875 1.69952,1.5816 3.90829,2.57661 6.1875,2.84375 0.27901,-0.26332 0.52099,-0.50168 0.75,-0.625 0.88435,-0.1629 1.7639,-0.30583 2.625,-0.46875 1.02858,-0.266 1.6395,-0.70863 1.84375,-1.3125 -0.85612,0.47351 -1.79761,0.86332 -2.84375,1.125 -2.8906,0.46353 -5.60143,-0.51851 -7.71875,-2.28125 -0.16873,-0.0524 -0.29355,-0.0937 -0.375,-0.0937 l 5e-5,-5e-5 z m 58.65625,0.5 c -0.0727,0.12413 -0.13386,0.24755 -0.21875,0.375 -0.0653,0.098 -0.11826,0.18898 -0.1875,0.28125 0.15738,-0.18074 0.29705,-0.37311 0.4375,-0.5625 -0.0111,-0.0335 -0.02,-0.0612 -0.0312,-0.0937 l -5e-5,-5e-5 z m -0.40625,0.65625 c -0.43213,0.49629 -0.94328,0.96306 -1.46875,1.375 0.54311,-0.35515 1.04412,-0.80906 1.46875,-1.375 z m -1.46875,1.375 c -0.13004,0.085 -0.27132,0.14559 -0.40625,0.21875 4.6e-4,0.0219 0.0306,0.0406 0.0312,0.0625 0.12655,-0.0909 0.25187,-0.18472 0.375,-0.28125 l 5e-5,0 z m -13.4375,-2 -0.125,0.34375 c 0.18845,0.11101 0.35204,0.22974 0.5,0.375 -0.13204,-0.23483 -0.26329,-0.46294 -0.375,-0.71875 z m 0.375,0.71875 c 0.23585,0.41946 0.49166,0.82243 0.78125,1.1875 -0.18609,-0.45237 -0.44332,-0.85573 -0.78125,-1.1875 z m 0.78125,1.1875 c 0.29581,0.71909 0.47377,1.55298 0.65625,2.3125 -0.33781,-0.14591 -0.6943,-0.31209 -1.15625,-0.59375 -0.59418,-0.36247 -1.11009,2.2e-4 -1.71875,0.3125 -0.15804,0.0811 -0.33178,0.15159 -0.5,0.21875 -0.006,0.011 -0.084,0.16922 -0.0937,0.1875 0.19998,-0.0715 0.39881,-0.13378 0.59375,-0.21875 0.83653,-0.26637 1.66066,-0.48878 3.09375,0.96875 0.15652,0.15266 0.31197,0.26371 0.46875,0.40625 0.42162,-0.38841 0.86209,-0.75294 1.28125,-1.0625 -0.94741,-0.78086 -1.86824,-1.57722 -2.625,-2.53125 l -5e-5,0 z m -15.28125,-1.4375 -0.3125,0.84375 c 0.23898,0.21524 0.49962,0.42444 0.78125,0.625 0.62703,0.40426 1.28818,0.69769 1.96875,0.875 0.65708,0.20017 1.37744,0.32401 2.5625,0.90625 0.0913,-0.0531 0.19011,-0.10689 0.28125,-0.15625 -0.27913,-0.15135 -0.55928,-0.31936 -0.8125,-0.5 -0.88805,-0.56277 -1.49061,-0.83276 -2.09375,-1.1875 -0.92269,-0.3231 -1.71573,-0.80928 -2.375,-1.40625 z m -29.625,0.0937 c 0.1047,0.26979 0.29057,0.57971 0.5625,0.9375 0.46545,0.58183 0.86168,0.87501 1.1875,0.875 0.0931,10e-6 0.18815,-0.008 0.28125,-0.0312 0.0861,-0.0344 0.13962,-0.0535 0.1875,-0.0625 -0.80962,-0.48377 -1.55693,-1.06488 -2.21875,-1.71875 l 0,-5e-5 z m 49.40625,0.0625 c -0.0827,0.0318 -0.18968,0.0558 -0.28125,0.0937 0.22245,0.32438 0.44562,0.63271 0.71875,0.9375 0.40951,0.41183 0.92454,0.79174 1.46875,1.09375 0.22755,0.0103 0.50263,0.0632 0.875,0.15625 0.65162,0.13965 1.07976,0.18751 1.3125,0.1875 0.26137,10e-6 0.48088,-0.0473 0.65625,-0.15625 -1.7597,0.028 -3.53871,-0.75741 -4.6875,-2.25 -0.0185,-0.0234 -0.0443,-0.039 -0.0625,-0.0625 l 0,5e-5 z m -38.5,0.59375 c -0.45601,0.2162 -0.93141,0.37975 -1.40625,0.53125 -1.92099,0.61293 -3.95747,0.67273 -6,-0.0625 -0.17451,-0.0628 -0.35704,-0.113 -0.53125,-0.1875 0.17474,0.0708 0.3553,0.12775 0.53125,0.1875 2.00171,0.67985 4.07926,0.64516 6,0.0625 0.48018,-0.14566 0.94815,-0.31889 1.40625,-0.53125 z m 35.53125,0.3125 c 0.59905,0.82129 1.30767,1.55413 2.0625,2.25 0.0715,-0.0427 0.14731,-0.0847 0.21875,-0.125 -0.66453,-0.62518 -1.25286,-1.33736 -1.78125,-2.09375 -0.0887,0.0168 -0.18468,0.0312 -0.25,0.0312 -0.11445,10e-6 -0.18672,-0.0346 -0.25,-0.0625 l 0,5e-5 z m -17.25,0.125 -0.21875,0.5 c 0.60812,0.57425 1.31951,1.04006 2.09375,1.375 0.65032,0.2817 1.35206,0.496 2.125,0.5625 0.17513,0.0756 0.3526,0.14931 0.53125,0.21875 0.14698,-0.10507 0.29082,-0.21713 0.4375,-0.3125 -0.50945,-0.16885 -1.01821,-0.35439 -1.5,-0.5625 -1.08638,-0.26877 -1.9961,-0.66587 -2.75,-1.1875 -0.26108,-0.18061 -0.49169,-0.38822 -0.71875,-0.59375 z m -26.65625,0.8125 c 0.0651,0.12186 0.1121,0.2995 0.15625,0.53125 0.0144,0.0827 0.0261,0.1764 0,0.28125 0.9841,0.23415 1.95865,0.27953 2.90625,0.375 0.01,-0.0109 0.0216,-0.0205 0.0312,-0.0312 -1.07885,-0.22207 -2.12078,-0.61543 -3.09375,-1.15625 l 5e-5,-5e-5 z m 0.125,0.875 c -0.0171,0.0539 -0.0356,0.097 -0.0625,0.15625 0.92892,0.25334 1.84611,0.41113 2.75,0.4375 0.0154,-0.0183 0.016,-0.0445 0.0312,-0.0625 -0.58293,-0.0367 -1.19215,-0.12058 -1.78125,-0.25 -0.084,-0.0238 -0.13706,-0.0393 -0.21875,-0.0625 0.2078,0.0225 0.417,0.0435 0.625,0.0625 -0.45582,-0.0693 -0.89292,-0.17788 -1.34375,-0.28125 l 5e-5,0 z m 1.34375,0.28125 c 0.48992,0.0745 0.97821,0.13118 1.46875,0.15625 0.0198,-0.0228 0.0429,-0.0403 0.0625,-0.0625 -0.50757,-0.0171 -1.02106,-0.0471 -1.53125,-0.0937 l 0,-5e-5 z m 24.40625,0.0625 -0.125,0.34375 c -0.005,0.01 -0.1421,0.25465 -0.15625,0.28125 1.06188,0.83094 2.31836,1.40967 3.625,1.71875 0.12951,-0.12949 0.24572,-0.2529 0.375,-0.375 -1.38663,-0.31541 -2.62378,-1.02688 -3.71875,-1.96875 z m -8.1875,0.625 c -0.18463,0.15929 -0.36889,0.31695 -0.5625,0.46875 0.0495,0.064 0.10739,0.12324 0.15625,0.1875 0.80736,0.64358 1.56982,1.30801 2.28125,2 0.13616,-0.12429 0.2773,-0.25276 0.40625,-0.375 0.0438,-0.0704 0.0809,-0.14918 0.125,-0.21875 -0.55882,-0.63179 -1.22862,-1.20945 -1.96875,-1.75 -0.14082,-0.10275 -0.29364,-0.20943 -0.4375,-0.3125 z m 22.6875,0 c -0.30516,0.10158 -0.62335,0.17703 -0.9375,0.25 -0.0349,0.065 -0.19199,0.33057 -0.25,0.4375 0.50403,-0.12023 0.99094,-0.27282 1.46875,-0.46875 0.27914,0.0646 0.54964,0.17012 0.8125,0.28125 -0.58709,0.29369 -1.20162,0.54882 -1.84375,0.75 -0.27814,0.0872 -0.55843,0.14896 -0.84375,0.21875 -0.0711,0.13033 -0.1044,0.16025 -0.1875,0.3125 0.30435,-0.0671 0.6094,-0.15919 0.90625,-0.25 0.65985,-0.2016 1.29922,-0.46345 1.90625,-0.78125 0.48106,0.28075 1.0927,0.67405 1.6875,1.03125 0.0648,-0.0655 0.12278,-0.12382 0.1875,-0.1875 -0.0616,-0.0544 -0.12778,-0.10105 -0.1875,-0.15625 0.0742,0.0501 0.14466,0.10528 0.21875,0.15625 0.12423,-0.12192 0.25098,-0.22864 0.375,-0.34375 -0.95253,-0.71394 -1.98043,-1.30815 -3.3125,-1.25 z m -24.1875,1.15625 c -0.0328,0.0229 -0.0613,0.0399 -0.0937,0.0625 0.15375,0.27146 0.28877,0.58271 0.46875,1 0.19726,0.33762 0.35849,0.63943 0.53125,0.9375 -0.27491,-0.68523 -0.54054,-1.38348 -0.90625,-2 l -5e-5,0 z m 0.90625,2 c 0.15549,0.38756 0.31209,0.76294 0.5,1.125 0.0429,-0.0327 0.0819,-0.0605 0.125,-0.0937 -0.18926,-0.27202 -0.39462,-0.63376 -0.625,-1.03125 l 0,-5e-5 z m -1.1875,-1.8125 c -0.0441,0.0305 -0.0815,0.0638 -0.125,0.0937 0.5874,1.04761 0.98719,2.13682 1.25,3.25 0.0841,-0.06 0.16513,-0.12508 0.25,-0.1875 -0.0704,-0.33618 -0.17373,-0.66562 -0.28125,-1 0.11572,0.2917 0.25623,0.6408 0.375,0.9375 0.0495,-0.0368 0.10654,-0.0562 0.15625,-0.0937 -0.125,-0.2221 -0.25867,-0.47365 -0.40625,-0.8125 -0.38245,-0.76737 -0.69777,-1.52898 -1.21875,-2.1875 z m -0.25,0.1875 c -0.019,0.013 -0.0436,0.0183 -0.0625,0.0312 0.5592,1.00605 0.97519,2.1027 1.25,3.25 0.0122,-0.009 0.019,-0.0227 0.0312,-0.0312 -0.2585,-1.12589 -0.66754,-2.20226 -1.21875,-3.25 l 5e-5,0 z m -6.8125,3.25 c 0.5285,0.6282 0.98909,1.28399 1.375,1.96875 0.009,0.004 0.022,-0.004 0.0312,0 -0.35824,-0.69905 -0.81054,-1.36965 -1.40625,-1.96875 l 5e-5,0 z"
       id="path3527-4-6"
       sodipodi:nodetypes="ccsccsssccscccccccccccccccccssccccccsscccccccsscccccsccccccccccsssccccccsscccccccccccsssscsccccccccccccccssscccccccsscscccssssscccccsccccsccccsccscccccccccssscccccccccccccccccscsccccccsccsccssccccccccccccccccccscccccccccccsscc" />
    <path
       style="opacity:0.256;fill:url(#linearGradient4163);fill-opacity:1;fill-rule:evenodd;display:inline"
       d="m 480.20349,408.7812 c -6.21841,1.18672 -7.11356,5.46756 -5.8125,8.96875 1.89708,-2.00683 -1.29703,-4.78484 1.875,-6.59375 1.22394,-0.44341 2.546,-0.84597 3.90625,-1.15625 0.0121,-0.3573 0.0312,-0.67565 0.0312,-1.0625 0,-0.055 5.8e-4,-0.1023 0,-0.15625 l 5e-5,0 z m -54.1875,12.03125 c -0.31395,1.77866 -1.13836,3.4779 -2.375,5.0625 0.30241,0.0531 0.5964,0.0944 0.96875,0.1875 0.13733,0.0294 0.2154,0.0361 0.34375,0.0625 1.03128,-1.66676 1.60382,-3.43828 1.65625,-5.25 -0.18639,-0.0304 -0.39095,-0.0408 -0.59375,-0.0625 z m 14.34375,0.71875 c -0.37265,0.1766 -0.72585,0.35589 -1.0625,0.53125 6.1e-4,0.0106 -6.3e-4,0.0206 0,0.0312 1.08334,1.72222 2.4112,3.35832 4.0625,4.84375 0.28575,-0.22315 0.57131,-0.42974 0.84375,-0.625 -0.16427,-0.16812 -0.34156,-0.33087 -0.5,-0.5 -1.30723,-1.39622 -2.42138,-2.82721 -3.34375,-4.28125 l 0,5e-5 z m -11.09375,0.5625 c -0.56295,1.50855 -1.36432,2.96818 -2.4375,4.34375 0.17468,0.0181 0.41078,0.0625 0.53125,0.0625 0.14669,0 0.27264,-0.0147 0.40625,-0.0312 0.005,-0.007 -0.004,-0.0245 0,-0.0312 0.82748,-1.25373 1.44396,-2.54399 1.84375,-3.875 -0.0806,-0.17443 -0.21698,-0.31887 -0.34375,-0.46875 l 0,-10e-5 z m 9.96875,0 c -0.0547,0.0287 -0.10254,0.0651 -0.15625,0.0937 0.0576,0.28593 0.11979,0.55395 0.1875,0.78125 -0.012,-0.2906 -0.0319,-0.58302 -0.0312,-0.875 l -5e-5,5e-5 z m 0.0312,0.875 c 0.003,0.0622 -0.003,0.12536 0,0.1875 0.0205,0.0312 0.0419,0.0626 0.0625,0.0937 -0.0282,-0.0822 -0.0357,-0.19131 -0.0625,-0.28125 l 0,5e-5 z m 0.0625,0.28125 c 0.22788,0.66448 0.52093,1.09486 0.8125,1.5 0.74449,0.93369 1.55741,1.84467 2.46875,2.75 0.0587,-0.0488 0.12928,-0.0773 0.1875,-0.125 -1.36926,-1.27835 -2.50568,-2.67009 -3.46875,-4.125 z m -62.4062,1.78125 c -0.31009,0.2911 -0.62878,0.58253 -0.9375,0.875 -0.17745,0.15169 -0.2677,0.22926 -0.4375,0.375 0.9349,0.77728 1.93882,1.56879 3.03125,2.3125 0.30922,0.21913 0.63924,0.42154 0.96875,0.625 0.23517,-0.18491 0.4644,-0.36992 0.71875,-0.5625 0.37201,-0.28294 0.6843,-0.49783 1.03125,-0.75 -1.58264,-0.88683 -3.039,-1.84545 -4.375,-2.875 z m -2.40625,2.15625 c -0.37893,0.32891 -0.76263,0.64578 -1.09375,0.9375 1.20602,0.99176 2.53736,1.95061 4,2.875 0.19653,-0.18464 0.40234,-0.36741 0.625,-0.5625 -0.3938,-0.25812 -0.77495,-0.51313 -1.15625,-0.78125 0.39776,0.25885 0.80581,0.47412 1.21875,0.71875 0.12292,-0.10707 0.27554,-0.20232 0.40625,-0.3125 -1.45358,-0.86499 -2.77519,-1.82687 -4,-2.875 z m 10,2.34375 c -0.4771,0.43861 -0.92036,0.8806 -1.5,1.375 -0.0124,0.0104 -0.0189,0.0209 -0.0312,0.0312 2.97265,1.19922 6.38746,1.94285 9.90625,2.34375 0.13496,-0.21386 0.3906,-0.55744 0.5625,-0.8125 -3.24507,-0.72681 -6.23943,-1.72808 -8.9375,-2.9375 l -5e-5,5e-5 z m -2.625,2.25 c -0.14636,0.11575 -0.29548,0.23434 -0.4375,0.34375 3.27144,1.51332 6.85194,2.60895 10.5625,3.28125 0.0297,-0.15647 0.0589,-0.31265 0.0937,-0.46875 -3.67042,-0.67522 -7.10845,-1.73871 -10.21875,-3.15625 l 5e-5,0 z m 106.4375,0.125 c -2.17234,1.30665 -4.74803,2.37963 -7.65625,3.15625 -0.1113,0.24087 -0.24962,0.5382 -0.34375,0.75 2.86302,-0.70582 5.45576,-1.71962 7.6875,-2.96875 0.10398,-0.31347 0.21636,-0.63013 0.3125,-0.9375 z m -107.125,0.40625 c -0.21565,0.16353 -0.45096,0.35161 -0.65625,0.5 0.61572,0.32739 1.22093,0.653 1.875,0.96875 2.91892,1.40912 6.10936,2.43621 9.40625,3.09375 0.0198,-0.23055 0.0316,-0.45774 0.0625,-0.6875 -3.964,-0.80424 -7.51151,-2.17579 -10.6875,-3.875 z m 73.5625,1.34375 c 0.40879,0.16191 0.82598,0.34396 1.25,0.5 -0.26965,-0.29867 -0.68708,-0.46529 -1.25,-0.5 z m 32.96875,0.0312 c -2.26597,1.08015 -4.85606,1.96512 -7.625,2.59375 -0.0608,0.14118 -0.13585,0.28053 -0.1875,0.40625 2.78352,-0.6062 5.38638,-1.48072 7.6875,-2.65625 0.0411,-0.11605 0.0849,-0.2285 0.125,-0.34375 z m -34.4375,0.15625 c -0.30352,0.0707 -0.639,0.16688 -1,0.28125 1.03924,0.45283 2.1147,0.85132 3.21875,1.21875 0.17247,-0.1982 0.2717,-0.35685 0.375,-0.5 -0.89543,-0.3176 -1.76558,-0.65552 -2.59375,-1 z m 8.3125,1.3125 c -0.0661,0.22363 -0.1352,0.44237 -0.1875,0.65625 2.93989,0.67962 5.83608,1.02693 8.625,1.09375 0.21905,-0.22938 0.43786,-0.45514 0.71875,-0.71875 -2.97942,-0.10031 -6.09108,-0.42798 -9.15625,-1.03125 z m -0.3125,1.28125 c -0.0264,0.13853 -0.0424,0.27219 -0.0625,0.40625 2.67622,0.50951 5.42159,0.78553 8.15625,0.84375 l 0.0625,-0.15625 c 0.0389,-0.0478 0.11367,-0.10644 0.15625,-0.15625 -2.78827,-0.0349 -5.58526,-0.34053 -8.3125,-0.9375 z"
       id="path3527-8"
       sodipodi:nodetypes="ccccsccccsccccscccsccccssscccccccccssccccccccscscsccccccsccccsccccccccccccccccccsccccccccccccccccccccccccccc" />
  </g>
</svg>
