<?xml version="1.0" encoding="UTF-8" standalone="no"?>
<!-- Created with Inkscape (http://www.inkscape.org/) -->

<svg
   xmlns:dc="http://purl.org/dc/elements/1.1/"
   xmlns:cc="http://creativecommons.org/ns#"
   xmlns:rdf="http://www.w3.org/1999/02/22-rdf-syntax-ns#"
   xmlns:svg="http://www.w3.org/2000/svg"
   xmlns="http://www.w3.org/2000/svg"
   xmlns:xlink="http://www.w3.org/1999/xlink"
   xmlns:sodipodi="http://sodipodi.sourceforge.net/DTD/sodipodi-0.dtd"
   xmlns:inkscape="http://www.inkscape.org/namespaces/inkscape"
   version="1.0"
   width="22"
   height="22"
   id="svg11300"
   inkscape:version="0.47pre4 r22446"
   sodipodi:docname="applications-internet.svg">
  <sodipodi:namedview
     pagecolor="#ffffff"
     bordercolor="#666666"
     borderopacity="1"
     objecttolerance="10"
     gridtolerance="10"
     guidetolerance="10"
     inkscape:pageopacity="0"
     inkscape:pageshadow="2"
     inkscape:window-width="659"
     inkscape:window-height="489"
     id="namedview2906"
     showgrid="false"
     inkscape:zoom="10.727273"
     inkscape:cx="11"
     inkscape:cy="11"
     inkscape:window-x="0"
     inkscape:window-y="24"
     inkscape:window-maximized="0"
     inkscape:current-layer="svg11300" />
  <metadata
     id="metadata2908">
    <rdf:RDF>
      <cc:Work
         rdf:about="">
        <dc:format>image/svg+xml</dc:format>
        <dc:type
           rdf:resource="http://purl.org/dc/dcmitype/StillImage" />
      </cc:Work>
    </rdf:RDF>
  </metadata>
  <defs
     id="defs3">
    <inkscape:perspective
       id="perspective2910"
       inkscape:persp3d-origin="11 : 7.3333333 : 1"
       inkscape:vp_z="22 : 11 : 1"
       inkscape:vp_y="0 : 1000 : 0"
       inkscape:vp_x="0 : 11 : 1"
       sodipodi:type="inkscape:persp3d" />
    <linearGradient
       id="linearGradient6493">
      <stop
         offset="0"
         style="stop-color:#cd5132;stop-opacity:1"
         id="stop6495" />
      <stop
         offset="1"
         style="stop-color:#bb2b11;stop-opacity:1"
         id="stop6497" />
    </linearGradient>
    <linearGradient
       id="linearGradient4103">
      <stop
         offset="0"
         style="stop-color:#edab62;stop-opacity:1"
         id="stop4105" />
      <stop
         offset="1"
         style="stop-color:#e04922;stop-opacity:1"
         id="stop4107" />
    </linearGradient>
    <linearGradient
       id="linearGradient3156">
      <stop
         offset="0"
         style="stop-color:#ffffff;stop-opacity:1"
         id="stop3158" />
      <stop
         offset="1"
         style="stop-color:#ffffff;stop-opacity:0"
         id="stop3160" />
    </linearGradient>
    <linearGradient
       id="linearGradient8918">
      <stop
         offset="0"
         style="stop-color:#da4c12;stop-opacity:1"
         id="stop8920" />
      <stop
         offset="1"
         style="stop-color:#c52c11;stop-opacity:1"
         id="stop8922" />
    </linearGradient>
    <linearGradient
       gradientUnits="userSpaceOnUse"
       xlink:href="#linearGradient3156"
       id="linearGradient5575"
       y2="24.653727"
       x2="29.724815"
       y1="55.647495"
       x1="30.501778" />
    <linearGradient
       gradientUnits="userSpaceOnUse"
       xlink:href="#linearGradient3156"
       id="linearGradient5577"
       y2="20.663898"
       x2="28.290144"
       y1="-2.3103411"
       x1="28.220636" />
    <linearGradient
       gradientUnits="userSpaceOnUse"
       xlink:href="#linearGradient3156"
       id="linearGradient5581"
       y2="20.663898"
       x2="28.290144"
       y1="61.852856"
       x1="24.335312" />
    <radialGradient
       gradientTransform="matrix(0.7071267,0,0,0.4714314,-7.0985956,-0.7072028)"
       gradientUnits="userSpaceOnUse"
       xlink:href="#linearGradient3156"
       id="radialGradient5543"
       fy="6.8828115"
       fx="21.41897"
       r="14"
       cy="13.344281"
       cx="21.41897" />
    <radialGradient
       gradientTransform="matrix(1.1992786,0,0,1.1000055,-115.80087,-34.100236)"
       gradientUnits="userSpaceOnUse"
       xlink:href="#linearGradient3156"
       id="radialGradient5546"
       fy="33"
       fx="102.75"
       r="8.9999971"
       cy="33"
       cx="102.75" />
    <radialGradient
       gradientTransform="matrix(1.744297,-0.1034483,0.09583636,1.615948,-8.956649,-4.1376734)"
       gradientUnits="userSpaceOnUse"
       xlink:href="#linearGradient8918"
       id="radialGradient5549"
       fy="7.7554593"
       fx="11.035103"
       r="8.1341286"
       cy="7.7554593"
       cx="11.035103" />
    <radialGradient
       gradientTransform="matrix(0.8217119,-0.0057826,0.00466726,0.6637524,-7.9845247,-3.590209)"
       gradientUnits="userSpaceOnUse"
       xlink:href="#linearGradient4103"
       id="radialGradient5554"
       fy="16.44101"
       fx="20.142906"
       r="22.463524"
       cy="16.44101"
       cx="20.142906" />
    <linearGradient
       gradientTransform="matrix(1.104529,0,0,1.1045344,-106.08016,-34.285868)"
       gradientUnits="userSpaceOnUse"
       xlink:href="#linearGradient6493"
       id="linearGradient5556"
       y2="51"
       x2="106"
       y1="40.125046"
       x1="106" />
    <linearGradient
       gradientUnits="userSpaceOnUse"
       xlink:href="#linearGradient3156"
       id="linearGradient6328"
       y2="20.663898"
       x2="28.290144"
       y1="-0.81503254"
       x1="27.888655" />
    <radialGradient
       gradientTransform="matrix(0.8217119,-0.0057826,0.00466726,0.6637524,-7.9845247,-3.590209)"
       gradientUnits="userSpaceOnUse"
       xlink:href="#linearGradient4103-692"
       id="radialGradient5554-994"
       fy="16.44101"
       fx="20.142906"
       r="22.463524"
       cy="16.44101"
       cx="20.142906" />
    <linearGradient
       id="linearGradient4103-692">
      <stop
         offset="0"
         style="stop-color:#ed8161;stop-opacity:1"
         id="stop3594" />
      <stop
         offset="1"
         style="stop-color:#e02133;stop-opacity:1"
         id="stop3596" />
    </linearGradient>
    <linearGradient
       gradientTransform="matrix(1.104529,0,0,1.1045344,-106.08016,-34.285868)"
       gradientUnits="userSpaceOnUse"
       xlink:href="#linearGradient6493-101"
       id="linearGradient5556-816"
       y2="51"
       x2="106"
       y1="40.125046"
       x1="106" />
    <linearGradient
       id="linearGradient6493-101">
      <stop
         offset="0"
         style="stop-color:#cd3141;stop-opacity:1"
         id="stop3600" />
      <stop
         offset="1"
         style="stop-color:#bb102a;stop-opacity:1"
         id="stop3602" />
    </linearGradient>
    <radialGradient
       gradientTransform="matrix(1.744297,-0.1034483,0.09583636,1.615948,-8.956649,-4.1376734)"
       gradientUnits="userSpaceOnUse"
       xlink:href="#linearGradient8918-773"
       id="radialGradient5549-68"
       fy="7.7554593"
       fx="11.035103"
       r="8.1341286"
       cy="7.7554593"
       cx="11.035103" />
    <linearGradient
       id="linearGradient8918-773">
      <stop
         offset="0"
         style="stop-color:#da1113;stop-opacity:1"
         id="stop3606" />
      <stop
         offset="1"
         style="stop-color:#c5102c;stop-opacity:1"
         id="stop3608" />
    </linearGradient>
    <radialGradient
       gradientTransform="matrix(1.1992786,0,0,1.1000055,-115.80087,-34.100236)"
       gradientUnits="userSpaceOnUse"
       xlink:href="#linearGradient3156-558"
       id="radialGradient5546-649"
       fy="33"
       fx="102.75"
       r="8.9999971"
       cy="33"
       cx="102.75" />
    <linearGradient
       id="linearGradient3156-558">
      <stop
         offset="0"
         style="stop-color:#ffffff;stop-opacity:1"
         id="stop3612" />
      <stop
         offset="1"
         style="stop-color:#ffffff;stop-opacity:0"
         id="stop3614" />
    </linearGradient>
    <radialGradient
       gradientTransform="matrix(0.7071267,0,0,0.4714314,-7.0985956,-0.7072028)"
       gradientUnits="userSpaceOnUse"
       xlink:href="#linearGradient3156-519"
       id="radialGradient5543-680"
       fy="6.8828115"
       fx="21.41897"
       r="14"
       cy="13.344281"
       cx="21.41897" />
    <linearGradient
       id="linearGradient3156-519">
      <stop
         offset="0"
         style="stop-color:#ffffff;stop-opacity:1"
         id="stop3618" />
      <stop
         offset="1"
         style="stop-color:#ffffff;stop-opacity:0"
         id="stop3620" />
    </linearGradient>
    <linearGradient
       gradientUnits="userSpaceOnUse"
       xlink:href="#linearGradient3156-147"
       id="linearGradient5581-163"
       y2="20.663898"
       x2="28.290144"
       y1="61.852856"
       x1="24.335312" />
    <linearGradient
       id="linearGradient3156-147">
      <stop
         offset="0"
         style="stop-color:#ffffff;stop-opacity:1"
         id="stop3624" />
      <stop
         offset="1"
         style="stop-color:#ffffff;stop-opacity:0"
         id="stop3626" />
    </linearGradient>
    <linearGradient
       gradientUnits="userSpaceOnUse"
       xlink:href="#linearGradient3156-243"
       id="linearGradient6328-656"
       y2="20.663898"
       x2="28.290144"
       y1="-0.81503254"
       x1="27.888655" />
    <linearGradient
       id="linearGradient3156-243">
      <stop
         offset="0"
         style="stop-color:#ffffff;stop-opacity:1"
         id="stop3630" />
      <stop
         offset="1"
         style="stop-color:#ffffff;stop-opacity:0"
         id="stop3632" />
    </linearGradient>
    <linearGradient
       gradientUnits="userSpaceOnUse"
       xlink:href="#linearGradient3156-159"
       id="linearGradient5577-698"
       y2="20.663898"
       x2="28.290144"
       y1="-2.3103411"
       x1="28.220636" />
    <linearGradient
       id="linearGradient3156-159">
      <stop
         offset="0"
         style="stop-color:#ffffff;stop-opacity:1"
         id="stop3636" />
      <stop
         offset="1"
         style="stop-color:#ffffff;stop-opacity:0"
         id="stop3638" />
    </linearGradient>
    <linearGradient
       gradientUnits="userSpaceOnUse"
       xlink:href="#linearGradient3156-329"
       id="linearGradient5575-362"
       y2="24.653727"
       x2="29.724815"
       y1="55.647495"
       x1="30.501778" />
    <linearGradient
       id="linearGradient3156-329">
      <stop
         offset="0"
         style="stop-color:#ffffff;stop-opacity:1"
         id="stop3642" />
      <stop
         offset="1"
         style="stop-color:#ffffff;stop-opacity:0"
         id="stop3644" />
    </linearGradient>
  </defs>
  <g
     id="g6330">
    <path
       style="fill:url(#radialGradient5554-994);fill-opacity:1;stroke:url(#linearGradient5556-816);stroke-width:1;stroke-linecap:round;stroke-linejoin:round;stroke-miterlimit:4;stroke-opacity:1;stroke-dasharray:none;stroke-dashoffset:0"
       id="path6653"
       d="M 21.49982,11.000092 C 21.49982,16.796042 16.795862,21.5 10.999902,21.5 5.2039517,21.5 0.5,16.796042 0.5,11.000092 0.5,5.2041408 5.2039517,0.50017964 10.999902,0.50017964 c 5.79596,0 10.499918,4.70396116 10.499918,10.49991236 z" />
    <path
       style="fill:url(#radialGradient5549-68);fill-opacity:1;fill-rule:nonzero;stroke:none"
       id="path6657"
       d="m 20.681973,8.8466668 -0.094,0.3623536 C 20.309789,8.9779409 19.997461,8.7836127 19.680301,8.5806546 l -0.696202,0.072213 -0.636068,-0.5068374 0,0.62725 0.544951,0.2906697 0.362719,0.2895545 0.484734,-0.3864248 c 0.122016,0.1610983 0.242367,0.3221967 0.363551,0.4832951 l 0,0.4827669 -0.545784,0.4345654 -0.998786,0.483295 -0.756419,0.532083 -0.484735,-0.387599 0.242367,-0.434566 -0.483984,-0.386425 -0.817385,-1.2315448 -0.696202,-0.554979 -0.182233,0.1444838 0.273267,0.7006368 0.514051,0.4104952 c 0.293589,0.597426 0.584014,1.168432 0.969552,1.739498 0.597838,0 1.161447,-0.04474 1.755204,-0.09746 l 0,0.338284 -0.726351,1.255909 -0.666135,0.530909 -0.544952,0.822164 c 0,0.450653 0,0.901306 0,1.3519 l 0.182234,0.532082 -0.302584,0.240826 -0.666968,0.290082 -0.696202,0.410496 0.575852,0.458695 -0.787319,0.483883 0.15125,0.313038 -1.181019,0.942578 -0.786486,0 -0.666135,0.290083 -0.4246,0 0,-0.386425 -0.180568,-0.774024 c -0.234288,-0.485056 -0.478237,-0.966649 -0.726352,-1.448241 0,-0.355485 0.03007,-0.707506 0.06022,-1.062932 l 0.303418,-0.482767 -0.424601,-0.580224 0.0309,-0.79692 -0.575852,-0.458696 0.287926,-0.663943 -0.468494,-0.374683 -0.8182171,0 L 9.5694265,12.300418 8.752041,12.663065 8.4193906,12.39676 7.6621385,12.855691 C 7.1480872,12.444901 6.6332023,12.034406 6.1184017,11.623911 L 5.5132335,10.60912 6.0581848,10.03007 5.7556007,9.7887164 6.4209023,8.6769967 C 6.967519,8.1976943 7.5384562,7.7378827 8.1159729,7.2763689 l 1.0296855,-0.1932124 1.1501206,-0.096342 0.787318,0.1450708 1.11997,0.7963331 0.3937,-0.313625 0.544118,-0.048142 1.029686,0.241354 0.787319,0 0.544951,-0.3382831 0.242367,-0.241354 -0.545784,-0.2413541 -0.908502,-0.048142 C 14.03881,6.6921527 13.804522,6.4330094 13.505186,6.2139655 L 13.201769,6.310307 13.080585,6.9386728 12.535634,6.5041064 12.415283,6.0202243 11.810115,5.6831158 l -0.2432,0 0.605918,0.4827662 -0.242368,0.4345665 -0.483984,0.096342 L 11.749065,6.2622241 11.203281,6.0695988 10.720129,5.6831746 9.810794,5.8276577 9.6904437,6.0202831 9.1454924,6.2622241 8.8429084,6.7937197 8.086489,7.0591442 7.7530059,6.7937197 l -0.3627184,0 0,-0.8697199 0.7873183,-0.2900827 0.6051682,0 L 8.6607581,5.2962216 8.1776058,4.9579385 8.9942421,4.8369382 9.4480765,4.4751716 9.810794,4.0400182 l 0.666968,0 -0.182234,-0.3376956 0.424601,-0.1932123 0,0.3864241 0.907669,0.1444838 0.90767,-0.5309079 0.06097,-0.2419411 0.786485,-0.3861313 c -0.284677,0.024952 -0.569354,0.043268 -0.847535,0.096636 l 0,-0.4350946 0.302584,-0.4830604 -0.302584,0 L 11.870415,2.494085 11.688182,2.7357325 11.870415,3.0743091 11.566999,3.6533587 11.083014,3.4601463 10.660078,3.1224508 9.9931112,3.4601463 9.750744,2.6875909 l 1.150119,-0.5312021 0,-0.2900829 0.727102,-0.3379894 1.150119,-0.1935059 0.787319,0.1935059 1.089902,0.4827669 -0.787318,0 0.787318,0.5796372 0.605169,-0.4827669 c 0,0 2.408071,1.208526 3.651817,2.879887 1.21019,1.6262682 1.716766,3.4746911 1.769682,3.8588261 z" />
    <path
       style="opacity:0.7;fill:none;stroke:url(#radialGradient5546-649);stroke-width:1.05171168;stroke-linecap:round;stroke-linejoin:round;stroke-miterlimit:4;stroke-opacity:1;stroke-dasharray:none;stroke-dashoffset:0"
       id="path6661"
       d="m 20.373842,11.000001 c 0,5.174547 -4.199528,9.374184 -9.373932,9.374184 -5.1743926,0 -9.3739157,-4.199637 -9.3739157,-9.374184 0,-5.1745542 4.1995231,-9.3741868 9.3739157,-9.3741868 5.174404,0 9.373932,4.1996326 9.373932,9.3741868 z" />
    <path
       style="opacity:0.6;fill:url(#radialGradient5543-680);fill-opacity:1;stroke:none"
       id="path6663"
       d="m 21.009693,7.5518966 c 0,3.6432204 -4.43511,5.6481144 -9.899775,5.6481144 -5.4646866,0 -9.8997746,-2.004894 -9.8997746,-5.6481144 0,-3.6432191 4.435088,-7.551950955302 9.8997746,-7.551950955302 5.464665,0 9.899775,3.908731855302 9.899775,7.551950955302 z" />
    <path
       style="opacity:0.5;fill:none;stroke:url(#linearGradient5581-163);stroke-width:2.24436045;stroke-linecap:round;stroke-linejoin:miter;stroke-miterlimit:4;stroke-opacity:1;stroke-dasharray:none;stroke-dashoffset:0"
       id="path6665"
       transform="matrix(0.5341414,-0.140257,0.09691873,0.3439496,-6.5733078,7.6565437)"
       d="m 46,24.25 c 0,9.664983 -7.835017,17.5 -17.5,17.5 -9.664983,0 -17.5,-7.835017 -17.5,-17.5 0,-9.664983 7.835017,-17.5 17.5,-17.5 9.664983,0 17.5,7.835017 17.5,17.5 l 0,0 z" />
    <path
       style="opacity:0.5;fill:none;stroke:url(#linearGradient6328-656);stroke-width:2.22789025;stroke-linecap:round;stroke-linejoin:miter;stroke-miterlimit:4;stroke-opacity:1;stroke-dasharray:none;stroke-dashoffset:0"
       id="path6667"
       transform="matrix(0.5428466,-0.00339484,5.420695e-4,0.3714024,-4.4842719,2.0902442)"
       d="m 46,24.25 c 0,9.664983 -7.835017,17.5 -17.5,17.5 -9.664983,0 -17.5,-7.835017 -17.5,-17.5 0,-9.664983 7.835017,-17.5 17.5,-17.5 9.664983,0 17.5,7.835017 17.5,17.5 l 0,0 z" />
    <path
       style="opacity:0.5;fill:none;stroke:url(#linearGradient5577-698);stroke-width:2.32690978;stroke-linecap:round;stroke-linejoin:miter;stroke-miterlimit:4;stroke-opacity:1;stroke-dasharray:none;stroke-dashoffset:0"
       id="path6669"
       transform="matrix(-0.04855999,-0.5424795,0.3393357,-0.01937222,3.6550697,26.93044)"
       d="m 46,24.25 c 0,9.664983 -7.835017,17.5 -17.5,17.5 -9.664983,0 -17.5,-7.835017 -17.5,-17.5 0,-9.664983 7.835017,-17.5 17.5,-17.5 9.664983,0 17.5,7.835017 17.5,17.5 l 0,0 z" />
    <path
       style="opacity:0.5;fill:none;stroke:url(#linearGradient5575-362);stroke-width:2.72485375;stroke-linecap:round;stroke-linejoin:miter;stroke-miterlimit:4;stroke-opacity:1;stroke-dasharray:none;stroke-dashoffset:0"
       id="path6671"
       transform="matrix(-0.08059924,-0.5392623,0.2445198,0.00827087,8.3674723,26.10011)"
       d="m 46,24.25 c 0,9.664983 -7.835017,17.5 -17.5,17.5 -9.664983,0 -17.5,-7.835017 -17.5,-17.5 0,-9.664983 7.835017,-17.5 17.5,-17.5 9.664983,0 17.5,7.835017 17.5,17.5 l 0,0 z" />
    <g
       style="opacity:0.5;stroke-width:2.10801268;stroke-miterlimit:4;stroke-dasharray:none"
       id="g6673"
       transform="matrix(0.4978052,-0.1384166,0.1354093,0.5088599,-3.3371027,1.3098564)">
      <path
         style="opacity:0.5;fill:#ffffff;fill-opacity:1;stroke:none"
         id="path6675"
         transform="matrix(0.857144,0,0,0.857144,4.107111,5.035669)"
         d="m 31.375,37.875 c 0,0.966498 -0.783502,1.75 -1.75,1.75 -0.966498,0 -1.75,-0.783502 -1.75,-1.75 0,-0.966498 0.783502,-1.75 1.75,-1.75 0.966498,0 1.75,0.783502 1.75,1.75 l 0,0 z" />
    </g>
    <g
       style="opacity:0.5;stroke-width:2.11123228;stroke-miterlimit:4;stroke-dasharray:none"
       id="g6677"
       transform="matrix(0.4917231,-0.1197442,0.1560474,0.5135838,-14.083564,2.1819131)">
      <path
         style="opacity:0.5;fill:#ffffff;fill-opacity:1;stroke:none"
         id="path6679"
         transform="matrix(0.857144,0,0,0.857144,4.107111,5.035669)"
         d="m 31.375,37.875 c 0,0.966498 -0.783502,1.75 -1.75,1.75 -0.966498,0 -1.75,-0.783502 -1.75,-1.75 0,-0.966498 0.783502,-1.75 1.75,-1.75 0.966498,0 1.75,0.783502 1.75,1.75 l 0,0 z" />
    </g>
    <g
       style="opacity:0.5;stroke-width:2.11029315;stroke-miterlimit:4;stroke-dasharray:none"
       id="g6681"
       transform="matrix(0.4770536,-0.1681466,0.1964147,0.4998221,-7.2126334,-8.991814)">
      <path
         style="opacity:0.5;fill:#ffffff;fill-opacity:1;stroke:none"
         id="path6683"
         transform="matrix(0.857144,0,0,0.857144,4.107111,5.035669)"
         d="m 31.375,37.875 c 0,0.966498 -0.783502,1.75 -1.75,1.75 -0.966498,0 -1.75,-0.783502 -1.75,-1.75 0,-0.966498 0.783502,-1.75 1.75,-1.75 0.966498,0 1.75,0.783502 1.75,1.75 l 0,0 z" />
    </g>
    <g
       style="opacity:0.5;stroke-width:2.15745258;stroke-miterlimit:4;stroke-dasharray:none"
       id="g6685"
       transform="matrix(0.515925,-0.148755,-0.00869059,0.5059317,-10.119891,-8.3753534)">
      <path
         style="opacity:0.5;fill:#ffffff;fill-opacity:1;stroke:none"
         id="path6687"
         transform="matrix(0.857144,0,0,0.857144,4.107111,5.035669)"
         d="m 31.375,37.875 c 0,0.966498 -0.783502,1.75 -1.75,1.75 -0.966498,0 -1.75,-0.783502 -1.75,-1.75 0,-0.966498 0.783502,-1.75 1.75,-1.75 0.966498,0 1.75,0.783502 1.75,1.75 l 0,0 z" />
    </g>
  </g>
</svg>
