<?xml version="1.0" encoding="UTF-8" standalone="no"?>
<!-- Created with Inkscape (http://www.inkscape.org/) -->

<svg
   xmlns:dc="http://purl.org/dc/elements/1.1/"
   xmlns:cc="http://creativecommons.org/ns#"
   xmlns:rdf="http://www.w3.org/1999/02/22-rdf-syntax-ns#"
   xmlns:svg="http://www.w3.org/2000/svg"
   xmlns="http://www.w3.org/2000/svg"
   xmlns:xlink="http://www.w3.org/1999/xlink"
   xmlns:sodipodi="http://sodipodi.sourceforge.net/DTD/sodipodi-0.dtd"
   xmlns:inkscape="http://www.inkscape.org/namespaces/inkscape"
   version="1.1"
   width="275"
   height="315"
   id="svg2843"
   inkscape:version="0.47 r22583"
   sodipodi:docname="gimp-splash.svg">
  <metadata
     id="metadata164">
    <rdf:RDF>
      <cc:Work
         rdf:about="">
        <dc:format>image/svg+xml</dc:format>
        <dc:type
           rdf:resource="http://purl.org/dc/dcmitype/StillImage" />
      </cc:Work>
    </rdf:RDF>
  </metadata>
  <sodipodi:namedview
     pagecolor="#ffffff"
     bordercolor="#666666"
     borderopacity="1"
     objecttolerance="10"
     gridtolerance="10"
     guidetolerance="10"
     inkscape:pageopacity="0"
     inkscape:pageshadow="2"
     inkscape:window-width="1280"
     inkscape:window-height="949"
     id="namedview162"
     showgrid="false"
     showborder="true"
     borderlayer="true"
     inkscape:showpageshadow="false"
     inkscape:zoom="1.0595378"
     inkscape:cx="92.384672"
     inkscape:cy="111.58673"
     inkscape:window-x="0"
     inkscape:window-y="24"
     inkscape:window-maximized="1"
     inkscape:current-layer="svg2843" />
  <defs
     id="defs2845">
    <inkscape:perspective
       sodipodi:type="inkscape:persp3d"
       inkscape:vp_x="0 : 157.5 : 1"
       inkscape:vp_y="0 : 1000 : 0"
       inkscape:vp_z="275 : 157.5 : 1"
       inkscape:persp3d-origin="137.5 : 105 : 1"
       id="perspective166" />
    <linearGradient
       id="linearGradient3667">
      <stop
         id="stop3669"
         style="stop-color:#fffdf7;stop-opacity:1"
         offset="0" />
      <stop
         id="stop3671"
         style="stop-color:#fffbf2;stop-opacity:0"
         offset="1" />
    </linearGradient>
    <linearGradient
       id="linearGradient3649">
      <stop
         id="stop3651"
         style="stop-color:#fffcf6;stop-opacity:0.98039216"
         offset="0" />
      <stop
         id="stop3653"
         style="stop-color:#fffcf6;stop-opacity:0.39768341"
         offset="1" />
    </linearGradient>
    <linearGradient
       id="linearGradient3627">
      <stop
         id="stop3629"
         style="stop-color:#f6771b;stop-opacity:1"
         offset="0" />
      <stop
         id="stop3631"
         style="stop-color:#fc3a0e;stop-opacity:1;"
         offset="1" />
    </linearGradient>
    <radialGradient
       cx="512"
       cy="383.99997"
       r="641.59369"
       fx="512"
       fy="383.99997"
       id="radialGradient3655"
       xlink:href="#linearGradient3649"
       gradientUnits="userSpaceOnUse"
       gradientTransform="translate(0,-8.9776437e-6)" />
    <linearGradient
       id="linearGradient3667-0">
      <stop
         id="stop3669-6"
         style="stop-color:#fef4db;stop-opacity:1"
         offset="0" />
      <stop
         id="stop3671-6"
         style="stop-color:#fef4db;stop-opacity:0"
         offset="1" />
    </linearGradient>
    <radialGradient
       cx="512"
       cy="383.99997"
       r="641.59369"
       fx="512"
       fy="383.99997"
       id="radialGradient2878"
       xlink:href="#linearGradient3649"
       gradientUnits="userSpaceOnUse"
       gradientTransform="translate(0,-8.9776437e-6)" />
    <radialGradient
       cx="512"
       cy="383.99997"
       r="641.59369"
       fx="512"
       fy="383.99997"
       id="radialGradient2880"
       xlink:href="#linearGradient3649"
       gradientUnits="userSpaceOnUse"
       gradientTransform="translate(0,-8.9776437e-6)" />
    <radialGradient
       cx="512"
       cy="383.99997"
       r="641.59369"
       fx="512"
       fy="383.99997"
       id="radialGradient2882"
       xlink:href="#linearGradient3649"
       gradientUnits="userSpaceOnUse"
       gradientTransform="translate(0,-8.9776437e-6)" />
    <radialGradient
       cx="512"
       cy="383.99997"
       r="641.59369"
       fx="512"
       fy="383.99997"
       id="radialGradient2884"
       xlink:href="#linearGradient3649"
       gradientUnits="userSpaceOnUse"
       gradientTransform="translate(0,-8.9776437e-6)" />
    <radialGradient
       cx="512"
       cy="383.99997"
       r="641.59369"
       fx="512"
       fy="383.99997"
       id="radialGradient2886"
       xlink:href="#linearGradient3649"
       gradientUnits="userSpaceOnUse"
       gradientTransform="translate(0,-8.9776437e-6)" />
    <radialGradient
       cx="512"
       cy="383.99997"
       r="641.59369"
       fx="512"
       fy="383.99997"
       id="radialGradient2888"
       xlink:href="#linearGradient3649"
       gradientUnits="userSpaceOnUse"
       gradientTransform="translate(0,-8.9776437e-6)" />
    <radialGradient
       cx="512"
       cy="383.99997"
       r="641.59369"
       fx="512"
       fy="383.99997"
       id="radialGradient2890"
       xlink:href="#linearGradient3649"
       gradientUnits="userSpaceOnUse"
       gradientTransform="translate(0,-8.9776437e-6)" />
    <radialGradient
       cx="512"
       cy="383.99997"
       r="641.59369"
       fx="512"
       fy="383.99997"
       id="radialGradient2892"
       xlink:href="#linearGradient3649"
       gradientUnits="userSpaceOnUse"
       gradientTransform="translate(0,-8.9776437e-6)" />
    <radialGradient
       cx="512"
       cy="383.99997"
       r="641.59369"
       fx="512"
       fy="383.99997"
       id="radialGradient2894"
       xlink:href="#linearGradient3649"
       gradientUnits="userSpaceOnUse"
       gradientTransform="translate(0,-8.9776437e-6)" />
    <radialGradient
       cx="512"
       cy="383.99997"
       r="641.59369"
       fx="512"
       fy="383.99997"
       id="radialGradient2896"
       xlink:href="#linearGradient3649"
       gradientUnits="userSpaceOnUse"
       gradientTransform="translate(0,-8.9776437e-6)" />
    <radialGradient
       cx="512"
       cy="383.99997"
       r="641.59369"
       fx="512"
       fy="383.99997"
       id="radialGradient2898"
       xlink:href="#linearGradient3649"
       gradientUnits="userSpaceOnUse"
       gradientTransform="translate(0,-8.9776437e-6)" />
    <radialGradient
       cx="512"
       cy="383.99997"
       r="641.59369"
       fx="512"
       fy="383.99997"
       id="radialGradient2900"
       xlink:href="#linearGradient3649"
       gradientUnits="userSpaceOnUse"
       gradientTransform="translate(0,-8.9776437e-6)" />
    <radialGradient
       cx="517.07184"
       cy="387.93011"
       r="90.598053"
       fx="517.07184"
       fy="387.93011"
       id="radialGradient2909"
       xlink:href="#linearGradient3667-0"
       gradientUnits="userSpaceOnUse"
       gradientTransform="matrix(1.6161613,0,0,1.6161613,-697.51526,-484.34997)" />
    <radialGradient
       cx="517.07184"
       cy="387.93011"
       r="90.598053"
       fx="517.07184"
       fy="387.93011"
       id="radialGradient2912"
       xlink:href="#linearGradient3667"
       gradientUnits="userSpaceOnUse"
       gradientTransform="matrix(0.52027111,0,0,0.52027111,-130.86128,-59.221157)" />
    <radialGradient
       cx="512"
       cy="384"
       r="512"
       fx="512"
       fy="384"
       id="radialGradient2928"
       xlink:href="#linearGradient3627"
       gradientUnits="userSpaceOnUse"
       gradientTransform="matrix(0.4883258,0,0,0.42047098,-111.86658,13.539576)" />
    <radialGradient
       cx="69.473244"
       cy="19.597878"
       r="3.5153139"
       fx="69.473244"
       fy="19.597878"
       id="radialGradient4363-9"
       xlink:href="#linearGradient6468-8"
       gradientUnits="userSpaceOnUse"
       gradientTransform="matrix(1.31849,0,0,1.31849,-22.1264,-6.24169)" />
    <radialGradient
       cx="18.557627"
       cy="22.300018"
       r="19.2292"
       fx="18.557627"
       fy="22.300018"
       id="radialGradient4354-6"
       xlink:href="#linearGradient6500-0"
       gradientUnits="userSpaceOnUse"
       gradientTransform="matrix(1.77275,0,0,1.29668,-16.3404,-6.61596)" />
    <linearGradient
       x1="32.350136"
       y1="28.083355"
       x2="21.213203"
       y2="30.293064"
       id="linearGradient4351-7"
       xlink:href="#linearGradient6482-1"
       gradientUnits="userSpaceOnUse"
       gradientTransform="translate(-3.83655,0.345971)" />
    <linearGradient
       x1="26.162951"
       y1="30.543303"
       x2="24.328892"
       y2="30.985245"
       id="linearGradient4330-7"
       xlink:href="#linearGradient8534-7"
       gradientUnits="userSpaceOnUse" />
    <radialGradient
       cx="6.0242186"
       cy="25.271027"
       r="4.8310289"
       fx="6.0242186"
       fy="25.271027"
       id="radialGradient8548-7"
       xlink:href="#linearGradient8542-4"
       gradientUnits="userSpaceOnUse"
       gradientTransform="matrix(0.916159,0.0931868,-0.108765,1.06931,3.25367,-3.02927)" />
    <linearGradient
       x1="14.96875"
       y1="19.110678"
       x2="39.524544"
       y2="46.98568"
       id="linearGradient8530-0"
       xlink:href="#linearGradient8524-1"
       gradientUnits="userSpaceOnUse" />
    <radialGradient
       cx="23"
       cy="33.9375"
       r="18.25"
       fx="23"
       fy="33.9375"
       id="radialGradient6498-3"
       xlink:href="#linearGradient6492-7"
       gradientUnits="userSpaceOnUse"
       gradientTransform="matrix(1,0,0,0.284247,0,24.2909)" />
    <radialGradient
       cx="69.473244"
       cy="19.597878"
       r="3.5153139"
       fx="69.473244"
       fy="19.597878"
       id="radialGradient6474-2"
       xlink:href="#linearGradient6468-8"
       gradientUnits="userSpaceOnUse"
       gradientTransform="matrix(1.31849,0,0,1.31849,-22.1264,-6.24169)" />
    <linearGradient
       x1="6.3051529"
       y1="23.362427"
       x2="5.9846287"
       y2="31.57"
       id="linearGradient6458-8"
       xlink:href="#linearGradient6452-0"
       gradientUnits="userSpaceOnUse" />
    <linearGradient
       id="linearGradient6452-0">
      <stop
         id="stop6454-7"
         style="stop-color:#ffffff;stop-opacity:1"
         offset="0" />
      <stop
         id="stop6456-3"
         style="stop-color:#ffffff;stop-opacity:0"
         offset="1" />
    </linearGradient>
    <linearGradient
       id="linearGradient6468-8">
      <stop
         id="stop6470-5"
         style="stop-color:#ffffff;stop-opacity:1"
         offset="0" />
      <stop
         id="stop6472-5"
         style="stop-color:#b9b9b0;stop-opacity:1"
         offset="1" />
    </linearGradient>
    <linearGradient
       id="linearGradient6482-1">
      <stop
         id="stop6484-0"
         style="stop-color:#000000;stop-opacity:1"
         offset="0" />
      <stop
         id="stop6486-5"
         style="stop-color:#000000;stop-opacity:0"
         offset="1" />
    </linearGradient>
    <linearGradient
       id="linearGradient6492-7">
      <stop
         id="stop6494-8"
         style="stop-color:#000000;stop-opacity:1"
         offset="0" />
      <stop
         id="stop6496-2"
         style="stop-color:#000000;stop-opacity:0"
         offset="1" />
    </linearGradient>
    <linearGradient
       id="linearGradient6500-0">
      <stop
         id="stop6502-8"
         style="stop-color:#857c63;stop-opacity:1"
         offset="0" />
      <stop
         id="stop6504-3"
         style="stop-color:#221f19;stop-opacity:1"
         offset="1" />
    </linearGradient>
    <linearGradient
       x1="37.017639"
       y1="19.239889"
       x2="27.753893"
       y2="11.182488"
       id="linearGradient6957-6"
       xlink:href="#linearGradient6951-5"
       gradientUnits="userSpaceOnUse"
       gradientTransform="translate(-49.305,1.87772)" />
    <linearGradient
       id="linearGradient6951-5">
      <stop
         id="stop6953-8"
         style="stop-color:#6e3d09;stop-opacity:1"
         offset="0" />
      <stop
         id="stop6959-9"
         style="stop-color:#ea8113;stop-opacity:1"
         offset="0.24242425" />
      <stop
         id="stop6961-5"
         style="stop-color:#5c3307;stop-opacity:1"
         offset="0.62121212" />
      <stop
         id="stop6955-0"
         style="stop-color:#e07c12;stop-opacity:1"
         offset="1" />
    </linearGradient>
    <linearGradient
       x1="19.394735"
       y1="30.001331"
       x2="23.109331"
       y2="33.438831"
       id="linearGradient6945-2"
       xlink:href="#linearGradient6939-3"
       gradientUnits="userSpaceOnUse"
       gradientTransform="translate(-46.407,-1.80286)" />
    <linearGradient
       id="linearGradient6939-3">
      <stop
         id="stop6941-4"
         style="stop-color:#bdbdbd;stop-opacity:1"
         offset="0" />
      <stop
         id="stop6947-6"
         style="stop-color:#e2e2e2;stop-opacity:1"
         offset="0.33333334" />
      <stop
         id="stop6949-6"
         style="stop-color:#a3a3a3;stop-opacity:1"
         offset="0.66666669" />
      <stop
         id="stop6943-0"
         style="stop-color:#dddddd;stop-opacity:1"
         offset="1" />
    </linearGradient>
    <radialGradient
       cx="15.415101"
       cy="35.356506"
       r="7.5791559"
       fx="15.415101"
       fy="35.356506"
       id="radialGradient6969-0"
       xlink:href="#linearGradient6963-6"
       gradientUnits="userSpaceOnUse"
       gradientTransform="matrix(1.57269,0,0,1.53264,-55.3668,-21.3582)" />
    <linearGradient
       id="linearGradient6963-6">
      <stop
         id="stop6965-5"
         style="stop-color:#696969;stop-opacity:1"
         offset="0" />
      <stop
         id="stop6967-0"
         style="stop-color:#000000;stop-opacity:1"
         offset="1" />
    </linearGradient>
    <linearGradient
       x1="13.236155"
       y1="37.752247"
       x2="7.7521091"
       y2="42.282146"
       id="linearGradient2452-5"
       xlink:href="#linearGradient2446-0"
       gradientUnits="userSpaceOnUse"
       gradientTransform="matrix(0.755165,0.395143,-0.395143,0.755165,-25.9125,6.53259)" />
    <linearGradient
       id="linearGradient2446-0">
      <stop
         id="stop2448-2"
         style="stop-color:#ffffff;stop-opacity:1"
         offset="0" />
      <stop
         id="stop2450-1"
         style="stop-color:#ffffff;stop-opacity:0"
         offset="1" />
    </linearGradient>
    <linearGradient
       id="linearGradient8524-1">
      <stop
         id="stop8526-6"
         style="stop-color:#ffffff;stop-opacity:1"
         offset="0" />
      <stop
         id="stop8528-3"
         style="stop-color:#ffffff;stop-opacity:0"
         offset="1" />
    </linearGradient>
    <linearGradient
       id="linearGradient8534-7">
      <stop
         id="stop8536-2"
         style="stop-color:#000000;stop-opacity:1"
         offset="0" />
      <stop
         id="stop8538-2"
         style="stop-color:#000000;stop-opacity:0"
         offset="1" />
    </linearGradient>
    <linearGradient
       id="linearGradient8542-4">
      <stop
         id="stop8544-7"
         style="stop-color:#5b676b;stop-opacity:1"
         offset="0" />
      <stop
         id="stop8546-9"
         style="stop-color:#141718;stop-opacity:1"
         offset="1" />
    </linearGradient>
  </defs>
  <rect
     width="411.29218"
     height="350"
     x="-67.48983"
     y="0.00044058962"
     id="rect2853"
     style="fill:url(#radialGradient2928);fill-opacity:1;stroke:none" />
  <g
     transform="matrix(0.4538535,0,0,0.4538535,-94.216748,-31.672068)"
     id="g2839"
     style="opacity:0.52536232;fill:url(#radialGradient3655);fill-opacity:1">
    <path
       d="m 481.89062,-257.59372 28.15625,641.59375 -28.15625,641.59367 60.21875,0 -31.9375,-641.59368 31.9375,-641.59375 -60.21875,0 z"
       id="path2864-2"
       style="fill:url(#radialGradient2878);fill-opacity:1" />
    <path
       d="M 375.02675,-243.52479 513.88658,383.49455 707.14009,995.93905 648.97324,1011.5248 513.76584,383.52689 316.8599,-227.93905 375.02675,-243.5248 z"
       id="path2864-2-3"
       style="fill:url(#radialGradient2880);fill-opacity:1" />
    <path
       d="M 648.97324,-243.52479 510.11341,383.49455 316.8599,995.939 l 58.16685,15.5858 135.2074,-627.99791 196.90594,-611.46594 -58.16685,-15.58575 z"
       id="path2864-2-3-8"
       style="fill:url(#radialGradient2882);fill-opacity:1" />
    <path
       d="M 806.72136,-186.69112 510.30851,383.02349 165.12766,924.58176 217.27863,954.69113 510.41677,383.08598 858.87233,-156.58176 806.72136,-186.69113 z"
       id="path2864-2-0"
       style="fill:url(#radialGradient2884);fill-opacity:1" />
    <path
       d="m 217.27863,-186.69112 296.41285,569.71461 345.18085,541.55828 -52.15097,30.1094 -293.13814,-571.60519 -348.45556,-539.66774 52.15097,-30.10937 z"
       id="path2864-2-0-5"
       style="fill:url(#radialGradient2886);fill-opacity:1" />
    <path
       d="M 79.615286,-90.965792 513.38111,382.61897 986.96579,816.38471 944.3847,858.9658 513.29271,382.70736 37.034196,-48.384713 79.615276,-90.965799 z"
       id="path2864-2-8"
       style="fill:url(#radialGradient2888);fill-opacity:1" />
    <path
       d="M 944.3847,-90.965793 510.61888,382.61897 37.034196,816.38471 79.615282,858.9658 510.70728,382.70736 986.96579,-48.384714 944.38471,-90.9658 z"
       id="path2864-2-8-7"
       style="fill:url(#radialGradient2890);fill-opacity:1" />
    <path
       d="M 1052.5817,37.127671 511.02338,382.30857 -58.691136,678.72137 -28.581761,730.87233 511.08589,382.41682 1082.6911,89.278634 1052.5818,37.127666 z"
       id="path2864-2-04"
       style="fill:url(#radialGradient2892);fill-opacity:1" />
    <path
       d="M -28.581736,37.127675 512.97658,382.30857 1082.6911,678.72137 1052.5817,730.87233 512.91407,382.41682 -58.691136,89.278638 -28.581836,37.12767 z"
       id="path2864-2-04-6"
       style="fill:url(#radialGradient2894);fill-opacity:1" />
    <path
       d="M -99.93901,188.85991 512.50556,382.11344 1139.5248,520.97325 1123.939,579.14009 512.4732,382.23418 -115.52481,247.02675 -99.93901,188.85991 z"
       id="path2864-2-4"
       style="fill:url(#radialGradient2896);fill-opacity:1" />
    <path
       d="M 1123.939,188.85991 511.49443,382.11344 -115.52481,520.97325 -99.93905,579.14009 511.52679,382.23418 1139.5248,247.02675 1123.939,188.85991 z"
       id="path2864-2-4-2"
       style="fill:url(#radialGradient2898);fill-opacity:1" />
    <path
       d="m 1153.5937,353.89063 -641.59376,28.15625 -641.59364,-28.15625 0,60.21875 641.59365,-31.9375 641.59375,31.9375 0,-60.21875 z"
       id="path2864-2-01"
       style="fill:url(#radialGradient2900);fill-opacity:1" />
  </g>
  <path
     d="m 185.2918,142.60767 a 47.13555,47.13555 0 1 1 -94.271091,0 47.13555,47.13555 0 1 1 94.271091,0 z"
     id="path3657"
     style="opacity:0.5;fill:url(#radialGradient2912);fill-opacity:1;stroke:none" />
  <path
     d="m 284.57729,142.60766 a 146.42107,146.42107 0 1 1 -292.8421227,0 146.42107,146.42107 0 1 1 292.8421227,0 z"
     id="path3657-3"
     style="opacity:0.80072464;fill:url(#radialGradient2909);fill-opacity:1;stroke:none" />
  <g
     transform="matrix(1.3042022,0,0,1.3042022,107.38428,109.27846)"
     id="layer1">
    <path
       d="m 41.25,33.9375 a 18.25,5.1875 0 1 1 -36.5,0 18.25,5.1875 0 1 1 36.5,0 z"
       transform="matrix(1,0,0,1.53012,0.125,-19.991)"
       id="path6490"
       style="color:#000000;fill:url(#radialGradient6498-3);fill-opacity:1;fill-rule:evenodd;stroke:none;stroke-width:1;marker:none;visibility:visible;display:inline;overflow:visible" />
    <path
       d="m 10.374369,12.467884 c 0,0 2.874509,5.927634 9.599242,5.760407 C 34.066126,17.874738 36.53732,10.523341 36.890873,9.4626804 37.244427,8.4020202 37.785407,8.5626825 37.91048,9.5429474 42.506674,51.262247 6.0135488,33.362123 4.7175144,26.256467 11.965359,24.135147 10.197592,20.069282 10.197592,20.069282 l 0.176777,-7.601398 z"
       id="path4323"
       style="color:#000000;fill:url(#radialGradient4354-6);fill-opacity:1;fill-rule:evenodd;stroke:#2e3436;stroke-width:1;stroke-linecap:butt;stroke-linejoin:miter;stroke-miterlimit:10;stroke-opacity:1;stroke-dasharray:none;stroke-dashoffset:0;marker:none;visibility:visible;display:inline;overflow:visible" />
    <path
       d="m 15.73779,30.066049 c 6.7389,1.347837 10.170691,0.09809 12.179175,-1.452776 -0.53033,-0.68501 -1.43631,-1.436311 -1.43631,-1.436311 0,0 2.353317,0.653942 3.18198,1.723573 0.82629,1.066568 0.306808,1.723707 0.09056,3.08837 -0.481411,-1.198599 -1.379981,-1.648092 -1.501634,-2.124332 -1.806268,2.496927 -6.306442,2.3932 -12.513772,0.201476 z"
       id="path6480"
       style="color:#000000;fill:url(#linearGradient4351-7);fill-opacity:1;fill-rule:evenodd;stroke:none;stroke-width:1;marker:none;visibility:visible;display:inline;overflow:visible" />
    <path
       d="m 36.96875,11.84375 c -0.561978,0.926895 -1.406492,2.033166 -2.6875,3.09375 -2.631918,2.179042 -7.050563,4.162347 -14.28125,4.34375 -4.224373,0.105049 -6.952741,-1.934149 -8.625,-3.75 L 11.25,20 c 0.136107,0.418802 0.415455,1.390498 -0.0625,2.71875 -0.514314,1.429296 -2.154514,2.891363 -4.96875,4 0.2503304,0.522033 0.4954845,1.04362 1.25,1.78125 1.0279503,1.004945 2.4570333,2.088049 4.15625,3.0625 3.398433,1.948902 7.801583,3.493212 11.90625,3.5625 4.104667,0.06929 7.857126,-1.23455 10.4375,-5 2.378744,-3.471218 3.682473,-9.347943 3,-18.28125 z"
       id="path8520"
       style="opacity:0.18539303;color:#000000;fill:none;stroke:url(#linearGradient8530-0);stroke-width:1;stroke-linecap:butt;stroke-linejoin:miter;stroke-miterlimit:10;stroke-opacity:1;stroke-dasharray:none;stroke-dashoffset:0;marker:none;visibility:visible;display:inline;overflow:visible" />
    <path
       d="m 72.655224,21.837049 a 3.1819806,3.1819806 0 1 1 -6.363961,0 3.1819806,3.1819806 0 1 1 6.363961,0 z"
       transform="matrix(1.27778,0,0,1.27778,-75.1266,-6.50778)"
       id="path4357"
       style="color:#000000;fill:url(#radialGradient4363-9);fill-opacity:1;fill-rule:evenodd;stroke:#888a85;stroke-width:0.78260797;stroke-linecap:butt;stroke-linejoin:miter;stroke-miterlimit:10;stroke-opacity:1;stroke-dasharray:none;stroke-dashoffset:0;marker:none;visibility:visible;display:inline;overflow:visible" />
    <path
       d="m 10.429825,27.228739 a 4.331029,6.098796 0 1 1 -8.662058,0 4.331029,6.098796 0 1 1 8.662058,0 z"
       transform="matrix(0.810984,-0.585069,0.585069,0.810984,-14.7779,6.94712)"
       id="path5198"
       style="color:#000000;fill:url(#radialGradient8548-7);fill-opacity:1;fill-rule:evenodd;stroke:#000000;stroke-width:1;stroke-linecap:butt;stroke-linejoin:miter;stroke-miterlimit:10;stroke-opacity:1;stroke-dasharray:none;stroke-dashoffset:0;marker:none;visibility:visible;display:inline;overflow:visible" />
    <path
       d="m 24.041631,21.837049 a 2.2980971,2.2980971 0 1 1 -4.596194,0 2.2980971,2.2980971 0 1 1 4.596194,0 z"
       transform="matrix(0.851852,0,0,0.851852,-3.92676,3.39553)"
       id="path4359"
       style="color:#000000;fill:#2e3436;fill-opacity:1;fill-rule:evenodd;stroke:#000000;stroke-width:1.17391002;stroke-linecap:butt;stroke-linejoin:miter;stroke-miterlimit:10;stroke-opacity:1;stroke-dasharray:none;stroke-dashoffset:0;marker:none;visibility:visible;display:inline;overflow:visible" />
    <path
       d="m 6.09375,22.15625 c -0.7982492,0 -1.5531304,0.446171 -2.1875,1.34375 -0.6343696,0.897579 -1.09375,2.234204 -1.09375,3.71875 0,1.484546 0.4593804,2.821171 1.09375,3.71875 0.6343696,0.897579 1.3892511,1.34375 2.1875,1.34375 0.7982492,0 1.5772839,-0.476389 2.21875,-1.375 0.6414661,-0.898611 1.09375,-2.206186 1.09375,-3.6875 0,-1.481314 -0.4522838,-2.788889 -1.09375,-3.6875 -0.6414662,-0.898611 -1.4205011,-1.375 -2.21875,-1.375 z"
       transform="matrix(0.800389,-0.599481,0.599481,0.800389,-15.2744,7.32784)"
       id="path6450"
       style="opacity:0.28089899;color:#000000;fill:none;stroke:url(#linearGradient6458-8);stroke-width:1;stroke-linecap:butt;stroke-linejoin:miter;stroke-miterlimit:10;stroke-opacity:1;stroke-dasharray:none;stroke-dashoffset:0;marker:none;visibility:visible;display:inline;overflow:visible" />
    <path
       d="m 5.833631,23.251263 a 1.767767,2.1213202 0 1 1 -3.5355339,0 1.767767,2.1213202 0 1 1 3.5355339,0 z"
       id="path6446"
       style="color:#000000;fill:#ffffff;fill-opacity:1;fill-rule:evenodd;stroke:none;stroke-width:1;marker:none;visibility:visible;display:inline;overflow:visible" />
    <path
       d="m 23.157747,20.953165 a 1.767767,1.767767 0 1 1 -3.535534,0 1.767767,1.767767 0 1 1 3.535534,0 z"
       transform="matrix(0.766666,0,0,0.766666,-2.55641,5.02984)"
       id="path4361"
       style="color:#000000;fill:#ffffff;fill-opacity:1;fill-rule:evenodd;stroke:none;stroke-width:1;marker:none;visibility:visible;display:inline;overflow:visible" />
    <path
       d="m 72.655224,21.837049 a 3.1819806,3.1819806 0 1 1 -6.363961,0 3.1819806,3.1819806 0 1 1 6.363961,0 z"
       transform="matrix(1.5,0,0,1.5,-82.1682,-10.9185)"
       id="path6462"
       style="color:#000000;fill:url(#radialGradient6474-2);fill-opacity:1;fill-rule:evenodd;stroke:#888a85;stroke-width:0.66666597;stroke-linecap:butt;stroke-linejoin:miter;stroke-miterlimit:10;stroke-opacity:1;stroke-dasharray:none;stroke-dashoffset:0;marker:none;visibility:visible;display:inline;overflow:visible" />
    <path
       d="m 24.041631,21.837049 a 2.2980971,2.2980971 0 1 1 -4.596194,0 2.2980971,2.2980971 0 1 1 4.596194,0 z"
       transform="translate(1.41422,0.707108)"
       id="path6464"
       style="color:#000000;fill:#2e3436;fill-opacity:1;fill-rule:evenodd;stroke:#000000;stroke-width:1;stroke-linecap:butt;stroke-linejoin:miter;stroke-miterlimit:10;stroke-opacity:1;stroke-dasharray:none;stroke-dashoffset:0;marker:none;visibility:visible;display:inline;overflow:visible" />
    <path
       d="m 23.157747,20.953165 a 1.767767,1.767767 0 1 1 -3.535534,0 1.767767,1.767767 0 1 1 3.535534,0 z"
       transform="matrix(0.9,0,0,0.9,3.02288,2.62565)"
       id="path6466"
       style="color:#000000;fill:#ffffff;fill-opacity:1;fill-rule:evenodd;stroke:none;stroke-width:1;marker:none;visibility:visible;display:inline;overflow:visible" />
    <g
       transform="matrix(-0.114852,-0.389864,0.389864,-0.114852,24.7151,29.6894)"
       id="g8463">
      <path
         d="m -23.364209,23.568336 3.710098,3.469175 C -11.307128,20.656664 -2.5600338,6.9381374 -2.5600338,6.9381374 -0.58371893,4.6957251 -2.6769537,3.1876548 -4.7249404,4.5402186 c 0,0 -12.9703626,10.1148664 -18.6392686,19.0281174 z"
         id="path6937"
         style="color:#000000;fill:url(#linearGradient6957-6);fill-opacity:1;fill-rule:nonzero;stroke:#673907;stroke-width:2.46044993;stroke-linecap:round;stroke-linejoin:miter;stroke-miterlimit:4;stroke-opacity:1;stroke-dasharray:none;stroke-dashoffset:0;marker:none;visibility:visible;display:inline;overflow:visible" />
      <path
         d="m -30.449715,32.813894 2.24632,1.93382 8.492766,-7.367031 0.275061,-0.705828 1.094405,-0.01782 c -0.4375,-1.5625 -2.941514,-4.383455 -4.816514,-4.383455 l 0.08202,1.090075 -0.669991,0.380027 -6.704066,9.070207 z"
         id="path6935"
         style="color:#000000;fill:url(#linearGradient6945-2);fill-opacity:1;fill-rule:nonzero;stroke:#888a85;stroke-width:2.46044993;stroke-linecap:round;stroke-linejoin:miter;stroke-miterlimit:4;stroke-opacity:1;stroke-dasharray:none;stroke-dashoffset:0;marker:none;visibility:visible;display:inline;overflow:visible" />
      <path
         d="m -23.801371,28.376767 -4.364933,5.266471"
         id="path6985"
         style="color:#000000;fill:none;stroke:#ffffff;stroke-width:2.46044993;stroke-linecap:round;stroke-linejoin:round;stroke-miterlimit:4;stroke-opacity:1;stroke-dasharray:none;stroke-dashoffset:0;marker:none;visibility:visible;display:inline;overflow:visible" />
      <path
         d="m -45.341208,42.769835 c 10.443958,0 18.370039,1.24373 19.870605,-6.354738 1.209249,-6.123314 -7.210534,-9.057368 -11.38287,-3.590861 -4.019277,5.265971 -8.487735,9.945599 -8.487735,9.945599 z"
         id="path6933"
         style="color:#000000;fill:url(#radialGradient6969-0);fill-opacity:1;fill-rule:nonzero;stroke:none;stroke-width:0.2;marker:none;visibility:visible;display:inline;overflow:visible" />
      <path
         d="m 8.8749989,37.75 a 1.2499999,1.2499999 0 1 1 -2.4999997,0 1.2499999,1.2499999 0 1 1 2.4999997,0 z"
         transform="matrix(2.0699,0,0,2.0699,-44.7501,-41.5098)"
         id="path6971"
         style="opacity:0.52777866;color:#000000;fill:#ffffff;fill-opacity:1;fill-rule:nonzero;stroke:none;stroke-width:1;marker:none;visibility:visible;display:inline;overflow:visible" />
      <path
         d="m 8.8749989,37.75 a 1.2499999,1.2499999 0 1 1 -2.4999997,0 1.2499999,1.2499999 0 1 1 2.4999997,0 z"
         transform="matrix(1.39667,0,0,1.39667,-32.0553,-25.8766)"
         id="path6983"
         style="color:#000000;fill:#ffffff;fill-opacity:1;fill-rule:nonzero;stroke:none;stroke-width:1;marker:none;visibility:visible;display:inline;overflow:visible" />
      <path
         d="m -38.543723,40.909242 c 0,0 3.72152,0.0943 6.116538,-1.411995 0.847351,-0.532923 1.515774,0.649985 0.493819,1.087367 -2.207394,0.944732 -6.610357,0.324628 -6.610357,0.324628 z"
         id="path1571"
         style="opacity:0.427778;color:#000000;fill:url(#linearGradient2452-5);fill-opacity:1;fill-rule:nonzero;stroke:none;stroke-width:1;marker:none;visibility:visible;display:inline;overflow:visible" />
    </g>
    <path
       d="m 23.003067,31.736544 c 1.497372,0.143092 2.849629,-0.272213 3.411893,-0.474047 0.09822,-0.555386 0.536552,-1.621257 2.046088,-1.691468 l -0.53033,-0.928077 c 0,0 -1.966641,1.347921 -4.065864,1.745669 l -0.861787,1.347923 z"
       id="path8532"
       style="color:#000000;fill:url(#linearGradient4330-7);fill-opacity:1;fill-rule:evenodd;stroke:none;stroke-width:1;marker:none;visibility:visible;display:inline;overflow:visible" />
  </g>
  <g
     transform="matrix(1.0488996,0,0,1.0488996,-6.0686942,-1.5313407)"
     id="text3047"
     style="font-size:54.97333908px;font-style:normal;font-variant:normal;font-weight:normal;font-stretch:normal;opacity:0.90799997;fill:#000000;fill-opacity:1;stroke:none;font-family:newPushkin;-inkscape-font-specification:newPushkin">
    <path
       d="m 120.46256,20.550275 c -0.18329,0.769656 -2.85866,4.031404 -8.0261,9.785254 -2.89531,3.261768 -5.49738,5.91881 -7.80622,7.971134 -9.272196,8.355952 -15.172662,12.478948 -17.701414,12.369002 -1.209431,-0.03665 -2.198951,-0.513085 -2.96856,-1.429307 -0.623047,-0.769625 -0.934562,-1.612549 -0.934547,-2.528774 -1.5e-5,-1.832439 1.722481,-5.130836 5.167494,-9.895201 -1.502624,1.356021 -4.34291,3.774846 -8.520868,7.256481 -2.968569,2.418831 -4.654416,3.774838 -5.057547,4.068027 -2.015694,1.465956 -3.536621,2.198934 -4.562787,2.198934 -0.623033,0 -1.136117,-0.256542 -1.539254,-0.769627 -0.513084,-0.586381 -0.751302,-1.374332 -0.714653,-2.363854 0.03665,-2.198928 3.829805,-8.447558 11.379481,-18.745908 0.513073,-0.696307 2.52876,-3.225078 6.047067,-7.586321 2.528754,-3.151772 3.829788,-5.00254 3.903107,-5.552307 0.07328,-0.513049 -0.07332,-0.787916 -0.439786,-0.8246 -1.282731,-0.183209 -4.251288,1.356043 -8.905681,4.61776 -1.429317,0.98955 -3.280085,2.730371 -5.552307,5.222467 -1.942396,2.089011 -2.986889,3.115179 -3.133481,3.078507 -0.439789,-0.109923 -0.623034,-0.531385 -0.549733,-1.264387 0.07329,-0.842899 0.934543,-2.180582 2.583747,-4.013053 1.649193,-1.832415 3.408338,-3.444965 5.27744,-4.837654 2.052326,-1.539219 4.196284,-2.821929 6.431881,-3.848134 2.272212,-1.06278 4.104655,-1.594188 5.497334,-1.594227 1.319336,3.9e-5 1.979016,0.678043 1.97904,2.034014 -2.4e-5,0.329876 -0.03667,0.641391 -0.109947,0.934547 -0.219917,0.80631 -1.411005,2.693726 -3.573267,5.662254 -4.727723,6.340281 -7.219845,9.693652 -7.476374,10.060121 l -8.905681,12.588894 c -0.806279,1.429313 -1.26439,2.363859 -1.374333,2.803641 -0.03665,0.219897 -0.01833,0.43979 0.05497,0.65968 0.0733,0.219896 0.183241,0.329843 0.32984,0.32984 0.476432,-0.03665 0.934543,-0.256539 1.374334,-0.65968 l 1.264386,-1.044494 7.256481,-5.992094 9.840228,-7.751241 5.937121,-6.43188 c 2.675337,-2.931884 4.416159,-4.397838 5.222469,-4.397867 0.76959,2.9e-5 1.15441,0.439815 1.15444,1.31936 -3e-5,0.146623 -0.0184,0.25657 -0.055,0.32984 -0.58642,1.356035 -1.72253,2.858638 -3.408352,4.507814 l -4.013054,3.95808 c -1.942418,2.2356 -3.93978,4.874317 -5.992094,7.916161 -2.63874,3.88479 -3.994747,6.523508 -4.068027,7.916161 -0.03667,0.146599 0.0916,0.421465 0.384813,0.8246 0.329822,0.366491 0.549715,0.549735 0.65968,0.549733 2.418806,-0.0733 8.007756,-4.068021 16.766874,-11.984188 1.13608,-1.026154 3.51825,-3.499951 7.14653,-7.421401 0.98948,-1.062795 2.78527,-3.115131 5.38739,-6.157014 1.94234,-2.235552 2.96851,-3.353342 3.07851,-3.353373 0.32978,0.03668 0.6413,0.219924 0.93454,0.549733 0.29314,0.32987 0.40309,0.641386 0.32984,0.934547"
       id="path3995" />
    <path
       d="m 120.89548,33.578956 c -1.13613,1.7e-5 -1.70419,-0.56804 -1.70418,-1.704173 -1e-5,-1.136096 0.56805,-1.704154 1.70418,-1.704174 0.47642,2e-5 0.87955,0.183265 1.20941,0.549734 0.36647,0.329859 0.54972,0.732996 0.54973,1.209413 -10e-6,1.099484 -0.5864,1.649217 -1.75914,1.6492 m 1.26438,13.028682 c -10e-6,0.549736 -1.64921,1.337686 -4.9476,2.363853 -3.55495,1.172765 -6.7434,1.759147 -9.56536,1.759147 -0.95287,0 -1.79579,-0.311516 -2.52877,-0.934547 -0.69633,-0.62303 -1.04449,-1.392656 -1.0445,-2.30888 1e-5,-0.842921 1.46596,-2.547093 4.39787,-5.11252 2.85861,-2.455466 4.801,-3.793149 5.82718,-4.013054 0.47642,-0.109935 0.71464,0.238229 0.71465,1.044493 -1e-5,0.329851 -1.30105,1.612561 -3.90311,3.848134 -2.60207,2.198938 -3.90311,3.609919 -3.9031,4.232947 -1e-5,0.659682 0.678,0.989522 2.03401,0.98952 1.68584,2e-6 3.9764,-0.476433 6.87167,-1.429307 2.89524,-0.952867 4.39785,-1.429302 4.50781,-1.429306 1.02615,4e-6 1.53924,0.329844 1.53925,0.98952"
       id="path3997" />
    <path
       d="m 146.47698,30.005689 c -3e-5,1.28273 -1.06285,2.437169 -3.18846,3.463321 l -6.32193,2.96856 c -1.64922,0.696342 -3.99474,1.942403 -7.03659,3.738187 -3.92143,2.968567 -5.88215,5.167499 -5.88214,6.596801 -1e-5,0.806278 0.4581,1.209415 1.37433,1.209413 1.2827,2e-6 4.43451,-0.842921 9.45541,-2.528774 0.73297,-0.256537 2.034,-0.80627 3.90311,-1.6492 1.46594,-0.659673 2.40048,-0.989512 2.80364,-0.98952 0.36647,8e-6 0.54971,0.219901 0.54973,0.65968 -2e-5,0.586389 -0.733,1.246068 -2.19893,1.97904 l -4.17797,1.814121 c -2.05235,0.952873 -4.4895,1.740823 -7.31146,2.363853 -2.30888,0.513085 -4.10468,0.769627 -5.38738,0.769627 -0.84293,0 -1.55758,-0.293191 -2.14396,-0.879573 -0.54974,-0.586381 -0.8246,-1.319359 -0.8246,-2.198934 0,-0.916218 1.86909,-3.060177 5.60728,-6.431881 3.07849,-2.785303 5.44235,-4.746017 7.09156,-5.882147 5.7905,-3.99471 9.96847,-5.992073 12.53392,-5.992094 0.7696,2.1e-5 1.15441,0.329861 1.15444,0.98952"
       id="path3999" />
    <path
       d="m 189.65682,13.623634 c -5e-5,0.733014 -1.20946,2.253941 -3.62824,4.562787 -2.74871,2.602101 -5.99214,5.149197 -9.73028,7.641294 -2.41886,1.612575 -6.10207,3.518315 -11.04964,5.717228 -6.96331,3.078522 -10.73814,4.837667 -11.32451,5.27744 l -2.80364,1.97904 c -1.53926,1.209424 -2.85862,2.400512 -3.95808,3.573268 -3.22511,3.481649 -4.83766,5.625607 -4.83766,6.43188 0,0.549734 0.25654,0.824601 0.76963,0.8246 0.91622,10e-7 2.36385,-0.568056 4.34289,-1.704173 l 5.22247,-3.188454 c 0.51307,-0.623025 1.42929,-1.465949 2.74867,-2.528774 2.08897,-1.722488 3.6099,-2.583736 4.56279,-2.583746 0.73295,10e-6 1.09944,0.384823 1.09946,1.15444 -2e-5,1.429315 -1.411,3.115162 -4.23294,5.057547 0.73296,0.586386 1.77745,0.879577 3.13348,0.879573 1.75912,4e-6 3.64654,-0.256538 5.66225,-0.769626 2.01566,-0.51308 3.2434,-0.769622 3.68321,-0.769627 0.43976,5e-6 0.65965,0.384818 0.65968,1.15444 -3e-5,0.256546 -1.46598,0.751305 -4.39786,1.48428 -3.04188,0.73298 -5.31411,1.099468 -6.8167,1.099467 -1.39267,10e-7 -3.20679,-0.641354 -5.44236,-1.924067 l -5.44236,2.96856 c -2.16229,1.062817 -4.04971,1.594226 -5.66225,1.594227 -0.84293,-1e-6 -1.59423,-0.329841 -2.25391,-0.98952 -0.51308,-0.513084 -0.76963,-0.971195 -0.76963,-1.374333 0,-1.209412 0.62303,-2.602068 1.8691,-4.177974 0.25654,-0.293186 1.5759,-1.722491 3.95808,-4.287921 1.13611,-1.209402 2.45547,-2.363841 3.95808,-3.46332 2.74865,-2.015674 4.17796,-3.078491 4.28792,-3.188454 l 7.25648,-6.10204 c 3.95806,-3.298375 7.4397,-5.937093 10.44493,-7.916161 l 9.2905,-6.102041 c 3.4083,-2.052299 5.7355,-3.078467 6.98161,-3.078507 0.62299,4e-5 1.17272,0.29323 1.6492,0.879574 0.51304,0.549771 0.76958,1.172802 0.76963,1.869093 m -2.52877,0 c -5e-5,-0.293154 -0.11,-0.439749 -0.32984,-0.439787 -1.50265,3.8e-5 -6.35863,2.931946 -14.56794,8.795735 -1.79583,1.282738 -5.35076,4.177998 -10.66483,8.685787 3.07848,-1.172744 5.22244,-2.033992 6.43188,-2.583747 2.5654,-1.136092 4.91092,-2.400478 7.03659,-3.79316 2.63868,-1.72247 5.31405,-3.774806 8.02611,-6.157014 2.71197,-2.382144 4.06798,-3.884747 4.06803,-4.507814"
       id="path4001" />
    <path
       d="m 185.484,46.057904 c -2e-5,0.47644 -1.50263,1.301039 -4.50782,2.4738 -3.29841,1.319361 -6.04707,1.97904 -8.246,1.979041 -1.7958,-10e-7 -3.24343,-0.32984 -4.34289,-0.98952 -1.09947,-0.659679 -1.6492,-1.44763 -1.6492,-2.363854 0,-1.83244 1.52093,-4.06802 4.56278,-6.706747 1.6492,-1.429296 3.49997,-2.803628 5.55231,-4.123001 1.90573,-1.209398 3.0785,-1.814104 3.5183,-1.81412 1.17275,1.6e-5 1.75913,0.476451 1.75914,1.429307 -1e-5,1.392671 -1.59424,3.206789 -4.78268,5.44236 -2.49213,1.759154 -4.50782,3.02354 -6.04707,3.793161 -1.06282,0.732982 -1.59423,1.392661 -1.59422,1.97904 -1e-5,0.952873 1.17276,1.429308 3.51829,1.429307 1.61254,10e-7 3.84813,-0.568056 6.70675,-1.704174 2.89525,-1.136111 4.41617,-1.704168 4.56279,-1.704173 0.65966,5e-6 0.9895,0.293196 0.98952,0.879573"
       id="path4003" />
    <path
       d="m 207.25688,45.838011 c -3e-5,0.293195 -0.8796,0.861252 -2.63873,1.704173 -1.72251,0.842927 -3.42668,1.575904 -5.11252,2.198934 -2.27224,0.806275 -3.77484,1.301035 -4.50781,1.48428 -1.42932,0.366488 -3.09684,0.549732 -5.00257,0.549733 -0.58639,-1e-6 -1.33769,-0.256543 -2.25391,-0.769626 -1.09947,-0.65968 -1.6492,-1.410982 -1.6492,-2.253907 0,-0.58638 0.71465,-1.667522 2.14396,-3.243427 1.61254,-1.722492 2.45547,-2.657038 2.52877,-2.80364 -1.17277,-0.623023 -1.85077,-0.89789 -2.03401,-0.824601 -0.18325,0.07331 -0.87958,0.75131 -2.08899,2.034014 -1.17276,1.282716 -1.85077,1.924071 -2.03401,1.924067 -1.02617,4e-6 -1.53925,-0.604702 -1.53925,-1.81412 0,-0.43978 0.95287,-1.795788 2.85861,-4.068027 1.94239,-2.308868 3.29839,-3.463307 4.06803,-3.463321 1.06281,1.4e-5 1.70416,0.348178 1.92406,1.044494 0.0366,0.659692 0.0733,1.337696 0.10995,2.034013 0.0733,0.65969 0.43978,0.98953 1.09947,0.98952 0.62302,1e-5 1.53924,-0.403127 2.74866,-1.209413 1.2094,-0.842913 2.19892,-1.264375 2.96856,-1.264387 1.2827,1.2e-5 1.92405,0.659692 1.92407,1.97904 -2e-5,0.623041 -0.64137,1.227747 -1.92407,1.81412 l -4.34289,1.704174 c -3.33506,1.50261 -5.00258,3.225106 -5.00257,5.167494 -1e-5,0.513085 0.42145,0.769627 1.26438,0.769627 1.64919,0 4.56278,-0.659679 8.74076,-1.979041 0.91621,-0.293188 2.29054,-0.842921 4.123,-1.6492 1.50259,-0.696324 2.40048,-1.044488 2.6937,-1.044493 0.40311,5e-6 0.65965,0.05498 0.76963,0.16492 0.10992,0.109952 0.16489,0.384818 0.16492,0.8246"
       id="path4005" />
  </g>
  <g
     transform="matrix(1.0783822,0,0,1.0783822,-10.121308,-1.1574497)"
     id="text3108"
     style="font-size:28px;font-style:normal;font-variant:normal;font-weight:normal;font-stretch:normal;opacity:0.844;color:#000000;fill:#000000;fill-opacity:1;fill-rule:nonzero;stroke:none;marker:none;visibility:visible;display:inline;overflow:visible;enable-background:accumulate;font-family:newPushkin;-inkscape-font-specification:newPushkin">
    <path
       d="m 70.464064,77.260308 c -2e-5,0.224003 -0.39202,0.429336 -1.176,0.616 -0.709352,0.186669 -1.428018,0.364002 -2.156,0.532 -2.277348,0.728002 -4.377346,1.260001 -6.3,1.596 l -1.484,0.588 c -0.485342,0.186667 -0.886675,0.28 -1.204,0.28 -0.485341,0 -0.73734,-0.214667 -0.756,-0.644 -0.01867,-0.167999 0.08399,-0.289333 0.308,-0.364 0.354659,-0.07467 0.597325,-0.167999 0.728,-0.28 0.895991,-0.690665 1.343991,-1.194664 1.344,-1.512 -9e-6,-0.335997 -0.06534,-0.503997 -0.196,-0.504 -0.616009,3e-6 -1.540008,0.280003 -2.772,0.84 -0.653339,0.298669 -1.073339,0.448002 -1.26,0.448 -0.205338,2e-6 -0.569338,-0.149331 -1.092,-0.448 -0.52267,0.373335 -1.614669,1.325334 -3.276,2.856 l -4.62,4.228 c -0.858662,0.765328 -3.005327,2.781326 -6.44,6.048 -2.351987,2.239987 -3.658653,3.359986 -3.92,3.36 -0.503985,-1.4e-5 -0.755985,-0.214681 -0.756,-0.644 1.5e-5,-0.280013 3.322678,-3.490677 9.968,-9.632 l 7.588,-6.748 9.436,-7.868 c 0.82132,-0.671989 1.773319,-1.334655 2.856,-1.988 1.101317,-0.65332 1.791983,-0.979986 2.072,-0.98 0.242649,1.4e-5 0.363983,0.168013 0.364,0.504 -1.7e-5,0.13068 -0.420017,0.476013 -1.26,1.036 -1.344015,0.896011 -2.408014,1.642677 -3.192,2.24 -1.325345,1.026675 -2.762677,2.221341 -4.312,3.584 -1.418674,1.250672 -2.33334,2.109337 -2.744,2.576 0.07466,0.056 0.139994,0.112004 0.196,0.168 0.13066,0.09334 0.261327,0.13067 0.392,0.112 l 2.436,-0.644 c 0.83999,-0.205329 1.530656,-0.307996 2.072,-0.308 0.279989,4e-6 0.531988,0.09334 0.756,0.28 0.242655,0.186671 0.363988,0.41067 0.364,0.672 -1.2e-5,0.35467 -0.373345,0.886669 -1.12,1.596 1.082655,-0.279998 2.855986,-0.709331 5.32,-1.288 2.090648,-0.447996 3.229314,-0.671996 3.416,-0.672 0.27998,4e-6 0.41998,0.121337 0.42,0.364"
       id="path3964"
       style="marker:none" />
    <path
       d="m 80.932126,78.352308 c -1.2e-5,0.149335 -0.448012,0.438669 -1.344,0.868 -0.877344,0.429334 -1.745343,0.802667 -2.604,1.12 -1.157341,0.410667 -1.922673,0.662666 -2.296,0.756 -0.728005,0.186666 -1.577338,0.279999 -2.548,0.28 -0.29867,-10e-7 -0.681336,-0.130667 -1.148,-0.392 -0.560002,-0.336 -0.840002,-0.718666 -0.84,-1.148 -2e-6,-0.298666 0.363998,-0.849332 1.092,-1.652 0.82133,-0.87733 1.250663,-1.35333 1.288,-1.428 -0.597337,-0.317329 -0.94267,-0.457329 -1.036,-0.42 -0.09334,0.03734 -0.448003,0.382671 -1.064,1.036 -0.597335,0.653336 -0.942668,0.980002 -1.036,0.98 -0.522667,2e-6 -0.784,-0.307997 -0.784,-0.924 0,-0.223997 0.485333,-0.914663 1.456,-2.072 0.989331,-1.175994 1.679997,-1.763993 2.072,-1.764 0.541329,7e-6 0.867995,0.17734 0.98,0.532 0.01866,0.336006 0.03733,0.681339 0.056,1.036 0.03733,0.336005 0.223995,0.504005 0.56,0.504 0.317328,5e-6 0.783994,-0.205328 1.4,-0.616 0.615993,-0.429327 1.119992,-0.643994 1.512,-0.644 0.653325,6e-6 0.979991,0.336006 0.98,1.008 -9e-6,0.317338 -0.326675,0.625338 -0.98,0.924 l -2.212,0.868 c -1.698671,0.765336 -2.548003,1.642668 -2.548,2.632 -3e-6,0.261334 0.214663,0.392 0.644,0.392 0.839995,0 2.323994,-0.335999 4.452,-1.008 0.466658,-0.149332 1.166657,-0.429331 2.1,-0.84 0.765322,-0.354664 1.222655,-0.531997 1.372,-0.532 0.205321,3e-6 0.335988,0.028 0.392,0.084 0.05599,0.056 0.08399,0.196003 0.084,0.42"
       id="path3966"
       style="marker:none" />
    <path
       d="m 92.964251,76.308308 c -1.4e-5,0.298671 -0.457347,0.560004 -1.372,0.784 -0.896011,0.205337 -1.838677,0.308003 -2.828,0.308 -0.653342,3e-6 -1.316008,-0.139997 -1.988,-0.42 -1.400006,1.400002 -2.352005,2.286668 -2.856,2.66 -1.101337,0.84 -2.193336,1.26 -3.276,1.26 -0.354668,0 -0.672001,-0.168 -0.952,-0.504 -0.242667,-0.279999 -0.364,-0.550666 -0.364,-0.812 0,-0.615998 0.289333,-1.371998 0.868,-2.268 0.578665,-0.914662 1.334664,-1.773328 2.268,-2.576 0.746663,-0.63466 1.661329,-1.16666 2.744,-1.596 0.85866,-0.335992 1.493326,-0.503992 1.904,-0.504 0.242659,8e-6 0.513325,0.140008 0.812,0.42 0.298658,0.280007 0.447991,0.616007 0.448,1.008 -9e-6,0.392006 -0.233342,1.054672 -0.7,1.988 0.261325,0.130671 0.718658,0.261338 1.372,0.392 0.50399,4e-6 1.175989,-0.056 2.016,-0.168 0.839987,-0.130662 1.315987,-0.195995 1.428,-0.196 0.31732,5e-6 0.475986,0.07467 0.476,0.224 m -7.644,0.364 c 0.07466,-0.261329 0.07466,-0.569329 0,-0.924 -0.09334,-0.447995 -0.242672,-0.737328 -0.448,-0.868 -0.877338,0.373339 -1.605337,0.849338 -2.184,1.428 -1.325335,1.344003 -1.988001,2.342669 -1.988,2.996 -10e-7,0.298668 0.102665,0.448001 0.308,0.448 0.877331,10e-7 2.314663,-1.026665 4.312,-3.08"
       id="path3968"
       style="marker:none" />
    <path
       d="m 106.59894,78.072308 c -2e-5,0.336002 -0.91468,0.830668 -2.744,1.484 -1.47468,0.522667 -2.57601,0.784 -3.304,0.784 -0.821345,0 -1.474677,-0.14 -1.960001,-0.42 -0.168009,-0.07467 -0.494675,-0.335999 -0.98,-0.784 -1.176007,0.597334 -2.02534,0.961334 -2.548,1.092 -0.802672,0.224 -1.932004,0.336 -3.388,0.336 -0.485335,0 -0.914668,-0.158666 -1.288,-0.476 -0.354667,-0.317332 -0.532,-0.709332 -0.532,-1.176 0,-0.429331 0.746665,-1.29733 2.24,-2.604 1.455996,-1.250661 2.445328,-1.931994 2.968,-2.044 0.242661,-0.05599 0.363994,0.12134 0.364,0.532 -6e-6,0.168006 -0.662672,0.821338 -1.988,1.96 -1.325336,1.120003 -1.988002,1.838669 -1.988,2.156 -2e-6,0.336001 0.345331,0.504001 1.036,0.504 1.847995,10e-7 3.71466,-0.634665 5.6,-1.904 0.373324,-0.242663 1.138657,-0.830663 2.296001,-1.764 0.80265,-0.634661 1.30665,-0.951994 1.512,-0.952 0.27999,6e-6 0.41999,0.196006 0.42,0.588 -1e-5,0.560005 -0.25201,1.064004 -0.756,1.512 -0.18668,0.168004 -0.64401,0.485337 -1.372,0.952 -0.504011,0.317336 -0.756011,0.578669 -0.756001,0.784 -10e-6,0.522668 0.438656,0.784001 1.316001,0.784 0.41065,10e-7 1.29732,-0.205332 2.66,-0.616 0.29865,-0.09333 0.84932,-0.298665 1.652,-0.616 0.63465,-0.261331 1.02665,-0.391997 1.176,-0.392 0.24265,3e-6 0.36398,0.09334 0.364,0.28"
       id="path3970"
       style="marker:none" />
    <path
       d="m 116.63125,69.056308 c -10e-6,1.45601 -0.53201,3.098675 -1.596,4.928 -1.06401,1.829338 -2.38001,3.360003 -3.948,4.592 -1.736,1.344001 -3.42534,2.016 -5.068,2.016 -0.42933,0 -0.77467,-0.168 -1.036,-0.504 -0.26133,-0.335999 -0.392,-0.718665 -0.392,-1.148 0,-0.429331 0.32667,-0.961331 0.98,-1.596 0.59733,-0.597329 1.316,-1.129329 2.156,-1.596 1.04533,-0.578661 1.92266,-0.867994 2.632,-0.868 0.37333,6e-6 0.55999,0.177339 0.56,0.532 -1e-5,0.429338 -0.364,0.728004 -1.092,0.896 -1.04534,0.261337 -1.61467,0.420004 -1.708,0.476 -1.21333,0.728003 -1.82,1.381336 -1.82,1.96 0,0.280002 0.23333,0.420001 0.7,0.42 1.512,10e-7 3.26666,-1.138664 5.264,-3.416 1.99732,-2.295993 2.99599,-4.358657 2.996,-6.188 -10e-6,-1.437321 -0.15868,-2.650653 -0.476,-3.64 -0.29868,-0.895984 -0.82134,-1.89465 -1.568,-2.996 -0.80267,-1.175981 -1.21334,-1.782647 -1.232,-1.82 -0.42934,-0.485313 -0.95201,-0.72798 -1.568,-0.728 -0.448,2e-5 -0.85867,0.429353 -1.232,1.288 -0.35467,0.840018 -0.60667,1.260018 -0.756,1.26 -0.46667,1.8e-5 -0.7,-0.186649 -0.7,-0.56 0,-0.391981 0.24266,-1.007981 0.728,-1.848 0.59733,-1.026646 1.25066,-1.539978 1.96,-1.54 0.74666,2.2e-5 1.45599,0.308021 2.128,0.924 0.31733,0.317354 0.87733,1.026686 1.68,2.128 1.60532,2.202683 2.40799,4.545347 2.408,7.028"
       id="path3972"
       style="marker:none" />
    <path
       d="m 126.48244,70.288308 c -1e-5,0.653343 -0.54135,1.241342 -1.624,1.764 l -3.22,1.512 c -0.84001,0.354673 -2.03467,0.989339 -3.584,1.904 -1.99734,1.512004 -2.996,2.632003 -2.996,3.36 0,0.410668 0.23333,0.616001 0.7,0.616 0.65333,10e-7 2.25866,-0.429332 4.816,-1.288 0.37332,-0.130664 1.03599,-0.410664 1.988,-0.84 0.74665,-0.335996 1.22265,-0.503996 1.428,-0.504 0.18665,4e-6 0.27999,0.112004 0.28,0.336 -10e-6,0.29867 -0.37335,0.63467 -1.12,1.008 l -2.128,0.924 c -1.04534,0.485334 -2.28667,0.886667 -3.724,1.204 -1.176,0.261333 -2.09067,0.392 -2.744,0.392 -0.42934,0 -0.79334,-0.149333 -1.092,-0.448 -0.28,-0.298666 -0.42,-0.671999 -0.42,-1.12 0,-0.466665 0.952,-1.558664 2.856,-3.276 1.56799,-1.41866 2.77199,-2.417326 3.612,-2.996 2.94932,-2.034657 5.07732,-3.051989 6.384,-3.052 0.39199,1.1e-5 0.58799,0.168011 0.588,0.504"
       id="path3974"
       style="marker:none" />
    <path
       d="m 136.93956,76.980308 c -1e-5,0.13067 -0.38268,0.336003 -1.148,0.616 -1.23201,0.448003 -1.92267,0.709336 -2.072,0.784 l -3.556,1.54 c -1.15734,0.522667 -2.66933,1.269333 -4.536,2.24 l -4.48,4.396 c -0.93333,0.91466 -2.91199,2.753325 -5.936,5.516 l -4.144,3.864 c -1.69865,1.47465 -3.03331,2.211982 -4.004,2.212 -0.16798,-1.8e-5 -0.32665,-0.102684 -0.476,-0.308 -0.16798,-0.186684 -0.27065,-0.382683 -0.308,-0.588 -0.14931,-1.064016 1.26002,-2.977347 4.228,-5.74 1.04535,-0.970677 2.53868,-2.184009 4.48,-3.64 1.13868,-0.858673 2.47334,-1.736005 4.004,-2.632 2.37067,-1.36267 3.68667,-2.128002 3.948,-2.296 l 2.884,-2.744 2.156,-2.016 c -1.4,0.429335 -2.408,0.644002 -3.024,0.644 -0.42933,2e-6 -0.812,-0.09333 -1.148,-0.28 -0.42933,-0.223998 -0.644,-0.531997 -0.644,-0.924 0,-0.615996 0.35467,-1.334662 1.064,-2.156 0.52267,-0.615994 1.15733,-1.147994 1.904,-1.596 0.74667,-0.447993 1.32533,-0.671993 1.736,-0.672 0.26133,7e-6 0.392,0.09334 0.392,0.28 0,0.130674 -0.23333,0.34534 -0.7,0.644 -0.672,0.448006 -1.11067,0.756006 -1.316,0.924 -0.37333,0.317339 -0.73733,0.737338 -1.092,1.26 -0.35466,0.52267 -0.532,0.849337 -0.532,0.98 0,0.317336 0.252,0.476003 0.756,0.476 0.87733,3e-6 1.988,-0.363997 3.332,-1.092 l 2.128,-1.232 c 0.91466,-0.522661 1.49333,-0.783994 1.736,-0.784 0.18666,6e-6 0.27999,0.196006 0.28,0.588 -1e-5,0.168005 -0.54134,0.737338 -1.624,1.708 -1.232,1.120003 -1.96934,1.838669 -2.212,2.156 l 4.704,-1.652 1.596,-0.56 c 0.52266,-0.205329 0.90532,-0.307996 1.148,-0.308 0.31732,4e-6 0.47599,0.130671 0.476,0.392 m -17.08,9.184 c -0.95199,0.391994 -2.50132,1.353326 -4.648,2.884 -1.56799,1.11999 -2.81865,2.127989 -3.752,3.024 -1.06398,1.007988 -2.02532,2.006653 -2.884,2.996 -0.85865,1.007985 -1.28798,1.614651 -1.288,1.82 2e-5,0.24265 0.0653,0.363983 0.196,0.364 0.48535,-1.7e-5 1.40935,-0.606683 2.772,-1.82 l 4.172,-3.92 c 1.81068,-1.680009 2.95868,-2.762675 3.444,-3.248 1.12001,-1.064007 1.78267,-1.764006 1.988,-2.1"
       id="path3976"
       style="marker:none" />
    <path
       d="m 162.55781,77.260308 c -2e-5,0.224003 -0.39202,0.429336 -1.176,0.616 -0.70935,0.186669 -1.42801,0.364002 -2.156,0.532 -2.27734,0.728002 -4.37734,1.260001 -6.3,1.596 l -1.484,0.588 c -0.48534,0.186667 -0.88667,0.28 -1.204,0.28 -0.48534,0 -0.73734,-0.214667 -0.756,-0.644 -0.0187,-0.167999 0.084,-0.289333 0.308,-0.364 0.35466,-0.07467 0.59733,-0.167999 0.728,-0.28 0.89599,-0.690665 1.34399,-1.194664 1.344,-1.512 -1e-5,-0.335997 -0.0653,-0.503997 -0.196,-0.504 -0.616,3e-6 -1.54,0.280003 -2.772,0.84 -0.65334,0.298669 -1.07333,0.448002 -1.26,0.448 -0.20533,2e-6 -0.56933,-0.149331 -1.092,-0.448 -0.52267,0.373335 -1.61467,1.325334 -3.276,2.856 l -4.62,4.228 c -0.85866,0.765328 -3.00532,2.781326 -6.44,6.048 -2.35198,2.239987 -3.65865,3.359986 -3.92,3.36 -0.50398,-1.4e-5 -0.75598,-0.214681 -0.756,-0.644 2e-5,-0.280013 3.32268,-3.490677 9.968,-9.632 l 7.588,-6.748 9.436,-7.868 c 0.82132,-0.671989 1.77332,-1.334655 2.856,-1.988 1.10132,-0.65332 1.79199,-0.979986 2.072,-0.98 0.24265,1.4e-5 0.36399,0.168013 0.364,0.504 -1e-5,0.13068 -0.42001,0.476013 -1.26,1.036 -1.34401,0.896011 -2.40801,1.642677 -3.192,2.24 -1.32534,1.026675 -2.76267,2.221341 -4.312,3.584 -1.41867,1.250672 -2.33334,2.109337 -2.744,2.576 0.0747,0.056 0.14,0.112004 0.196,0.168 0.13066,0.09334 0.26133,0.13067 0.392,0.112 l 2.436,-0.644 c 0.83999,-0.205329 1.53066,-0.307996 2.072,-0.308 0.27999,4e-6 0.53199,0.09334 0.756,0.28 0.24266,0.186671 0.36399,0.41067 0.364,0.672 -10e-6,0.35467 -0.37334,0.886669 -1.12,1.596 1.08266,-0.279998 2.85599,-0.709331 5.32,-1.288 2.09065,-0.447996 3.22932,-0.671996 3.416,-0.672 0.27998,4e-6 0.41998,0.121337 0.42,0.364"
       id="path3978"
       style="marker:none" />
    <path
       d="m 173.02588,78.352308 c -2e-5,0.149335 -0.44802,0.438669 -1.344,0.868 -0.87735,0.429334 -1.74535,0.802667 -2.604,1.12 -1.15734,0.410667 -1.92268,0.662666 -2.296,0.756 -0.72801,0.186666 -1.57734,0.279999 -2.548,0.28 -0.29867,-10e-7 -0.68134,-0.130667 -1.148,-0.392 -0.56001,-0.336 -0.84001,-0.718666 -0.84,-1.148 -1e-5,-0.298666 0.36399,-0.849332 1.092,-1.652 0.82133,-0.87733 1.25066,-1.35333 1.288,-1.428 -0.59734,-0.317329 -0.94267,-0.457329 -1.036,-0.42 -0.0933,0.03734 -0.44801,0.382671 -1.064,1.036 -0.59734,0.653336 -0.94267,0.980002 -1.036,0.98 -0.52267,2e-6 -0.784,-0.307997 -0.784,-0.924 0,-0.223997 0.48533,-0.914663 1.456,-2.072 0.98933,-1.175994 1.67999,-1.763993 2.072,-1.764 0.54133,7e-6 0.86799,0.17734 0.98,0.532 0.0187,0.336006 0.0373,0.681339 0.056,1.036 0.0373,0.336005 0.22399,0.504005 0.56,0.504 0.31732,5e-6 0.78399,-0.205328 1.4,-0.616 0.61599,-0.429327 1.11999,-0.643994 1.512,-0.644 0.65332,6e-6 0.97999,0.336006 0.98,1.008 -1e-5,0.317338 -0.32668,0.625338 -0.98,0.924 l -2.212,0.868 c -1.69867,0.765336 -2.54801,1.642668 -2.548,2.632 -1e-5,0.261334 0.21466,0.392 0.644,0.392 0.83999,0 2.32399,-0.335999 4.452,-1.008 0.46665,-0.149332 1.16665,-0.429331 2.1,-0.84 0.76532,-0.354664 1.22265,-0.531997 1.372,-0.532 0.20532,3e-6 0.33598,0.028 0.392,0.084 0.056,0.056 0.084,0.196003 0.084,0.42"
       id="path3980"
       style="marker:none" />
    <path
       d="m 180.858,78.464308 c -1e-5,0.242669 -0.76534,0.662668 -2.296,1.26 -1.68,0.672 -3.08,1.008 -4.2,1.008 -0.91467,0 -1.652,-0.168 -2.212,-0.504 -0.56,-0.335999 -0.84,-0.737332 -0.84,-1.204 0,-0.933331 0.77467,-2.071996 2.324,-3.416 0.84,-0.727994 1.78266,-1.427994 2.828,-2.1 0.97066,-0.615992 1.56799,-0.923992 1.792,-0.924 0.59733,8e-6 0.89599,0.242674 0.896,0.728 -1e-5,0.70934 -0.81201,1.633339 -2.436,2.772 -1.26934,0.896004 -2.296,1.540003 -3.08,1.932 -0.54133,0.373336 -0.812,0.709335 -0.812,1.008 0,0.485334 0.59733,0.728001 1.792,0.728 0.82133,10e-7 1.96,-0.289332 3.416,-0.868 1.47466,-0.578664 2.24933,-0.867997 2.324,-0.868 0.33599,3e-6 0.50399,0.149336 0.504,0.448"
       id="path3982"
       style="marker:none" />
    <path
       d="m 193.57175,76.700308 -4.48,1.792 c -0.63467,0.205335 -1.62401,0.578668 -2.968,1.12 -0.61601,0.504001 -1.32534,0.961333 -2.128,1.372 -0.784,0.429333 -1.316,0.643999 -1.596,0.644 -0.46667,-10e-7 -0.7,-0.242667 -0.7,-0.728 0,-0.056 0.23333,-0.28 0.7,-0.672 l 1.428,-1.26 c 0.52266,-0.485331 0.87733,-0.886664 1.064,-1.204 0.0187,-0.01866 0.13066,-0.382663 0.336,-1.092 l -2.856,1.288 c -0.056,0.01867 -0.56,0.270669 -1.512,0.756 -0.56,0.280002 -0.93333,0.420002 -1.12,0.42 -0.24267,2e-6 -0.364,-0.205332 -0.364,-0.616 0,-0.223998 1.58667,-1.147997 4.76,-2.772 l 3.108,-1.652 c 0.95199,-0.503993 1.57733,-0.755993 1.876,-0.756 0.35466,7e-6 0.53199,0.26134 0.532,0.784 -1e-5,0.20534 -0.35468,0.569339 -1.064,1.092 l -1.708,1.232 c -0.056,0.354671 -0.23334,0.868003 -0.532,1.54 l 3.136,-1.036 c 2.27732,-0.653329 3.45332,-0.979995 3.528,-0.98 0.37332,5e-6 0.55999,0.242671 0.56,0.728"
       id="path3984"
       style="marker:none" />
    <path
       d="m 200.87363,78.464308 c -1e-5,0.242669 -0.76535,0.662668 -2.296,1.26 -1.68001,0.672 -3.08001,1.008 -4.2,1.008 -0.91467,0 -1.65201,-0.168 -2.212,-0.504 -0.56,-0.335999 -0.84,-0.737332 -0.84,-1.204 0,-0.933331 0.77466,-2.071996 2.324,-3.416 0.83999,-0.727994 1.78266,-1.427994 2.828,-2.1 0.97066,-0.615992 1.56799,-0.923992 1.792,-0.924 0.59732,8e-6 0.89599,0.242674 0.896,0.728 -1e-5,0.70934 -0.81201,1.633339 -2.436,2.772 -1.26934,0.896004 -2.29601,1.540003 -3.08,1.932 -0.54134,0.373336 -0.81201,0.709335 -0.812,1.008 -1e-5,0.485334 0.59733,0.728001 1.792,0.728 0.82133,10e-7 1.95999,-0.289332 3.416,-0.868 1.47465,-0.578664 2.24932,-0.867997 2.324,-0.868 0.33599,3e-6 0.50399,0.149336 0.504,0.448"
       id="path3986"
       style="marker:none" />
    <path
       d="m 216.16338,78.100308 c -2e-5,0.149336 -0.31735,0.401335 -0.952,0.756 -0.61602,0.354668 -1.26002,0.644001 -1.932,0.868 -2.25868,0.765333 -4.03201,1.148 -5.32,1.148 -0.44801,0 -0.83068,-0.112 -1.148,-0.336 -0.31734,-0.242666 -0.47601,-0.559999 -0.476,-0.952 -10e-6,-0.205332 0.27999,-0.625332 0.84,-1.26 l 1.428,-1.54 c -1.23201,0.18667 -2.66934,0.672003 -4.312,1.456 -2.55734,1.213335 -3.948,1.820001 -4.172,1.82 -0.42934,10e-7 -0.644,-0.233333 -0.644,-0.7 0,-0.261332 0.37333,-0.727998 1.12,-1.4 0.76533,-0.671997 1.14799,-1.119996 1.148,-1.344 -1e-5,-0.522662 0.0373,-0.933328 0.112,-1.232 0.0933,-0.298661 0.41999,-0.447994 0.98,-0.448 0.27999,6e-6 0.49466,0.149339 0.644,0.448 0.14933,0.280005 0.19599,0.606671 0.14,0.98 -0.056,0.392004 -0.21467,0.784003 -0.476,1.176 0.76532,-0.335997 2.01599,-0.830663 3.752,-1.484 1.79199,-0.578662 3.17332,-0.867995 4.144,-0.868 0.39198,5e-6 0.58798,0.214672 0.588,0.644 -2e-5,0.168005 -0.30802,0.448004 -0.924,0.84 -0.80268,0.504003 -1.33468,0.896003 -1.596,1.176 -0.89601,0.952002 -1.34401,1.530668 -1.344,1.736 -1e-5,0.242667 0.27999,0.364001 0.84,0.364 0.83999,10e-7 2.19332,-0.289332 4.06,-0.868 0.46665,-0.149332 1.11998,-0.401331 1.96,-0.756 0.72798,-0.317331 1.11998,-0.475997 1.176,-0.476 0.24265,3e-6 0.36398,0.084 0.364,0.252"
       id="path3988"
       style="marker:none" />
    <path
       d="m 227.98113,74.544308 c -2e-5,0.317339 -0.24268,0.513339 -0.728,0.588 -0.056,0.01867 -0.56935,0.03734 -1.54,0.056 l -4.088,0 c -0.0933,0.09334 -1.12934,1.054671 -3.108,2.884 -2.63201,2.445333 -4.01334,3.667999 -4.144,3.668 -0.392,-10e-7 -0.588,-0.252001 -0.588,-0.756 0,-0.168 0.38266,-0.606666 1.148,-1.316 l 2.1,-1.988 c 0.14933,-0.14933 1.10133,-1.035996 2.856,-2.66 -1.43734,6e-6 -2.26801,-0.0093 -2.492,-0.028 -0.20534,-0.01866 -0.48534,-0.01866 -0.84,0 -0.46667,0.01867 -0.75601,0.02801 -0.868,0.028 -0.65334,6e-6 -0.98,-0.158661 -0.98,-0.476 0,-0.373327 0.34533,-0.60666 1.036,-0.7 0.22399,-0.01866 0.87733,-0.02799 1.96,-0.028 l 3.276,0 c 0.78399,-0.690659 1.92265,-1.819991 3.416,-3.388 1.67998,-2.015988 2.68798,-3.023987 3.024,-3.024 0.37332,1.3e-5 0.55998,0.21468 0.56,0.644 -2e-5,0.112012 -0.77468,1.036012 -2.324,2.772 l -3.024,3.136 c 0.39199,7e-6 1.01732,0.03734 1.876,0.112 0.80265,0.07467 1.34398,0.102673 1.624,0.084 1.23198,-0.03733 1.84798,0.09334 1.848,0.392"
       id="path3990"
       style="marker:none" />
    <path
       d="m 239.56394,76.700308 -4.48,1.792 c -0.63468,0.205335 -1.62401,0.578668 -2.968,1.12 -0.61601,0.504001 -1.32534,0.961333 -2.128,1.372 -0.78401,0.429333 -1.316,0.643999 -1.596,0.644 -0.46667,-10e-7 -0.7,-0.242667 -0.7,-0.728 0,-0.056 0.23333,-0.28 0.7,-0.672 l 1.428,-1.26 c 0.52266,-0.485331 0.87733,-0.886664 1.064,-1.204 0.0187,-0.01866 0.13066,-0.382663 0.336,-1.092 l -2.856,1.288 c -0.056,0.01867 -0.56,0.270669 -1.512,0.756 -0.56,0.280002 -0.93334,0.420002 -1.12,0.42 -0.24267,2e-6 -0.364,-0.205332 -0.364,-0.616 0,-0.223998 1.58666,-1.147997 4.76,-2.772 l 3.108,-1.652 c 0.95199,-0.503993 1.57732,-0.755993 1.876,-0.756 0.35466,7e-6 0.53199,0.26134 0.532,0.784 -10e-6,0.20534 -0.35468,0.569339 -1.064,1.092 l -1.708,1.232 c -0.056,0.354671 -0.23334,0.868003 -0.532,1.54 l 3.136,-1.036 c 2.27732,-0.653329 3.45332,-0.979995 3.528,-0.98 0.37332,5e-6 0.55998,0.242671 0.56,0.728"
       id="path3992"
       style="marker:none" />
  </g>
  <g
     transform="translate(-96.34375,-12.999558)"
     id="text3923"
     style="font-size:34px;font-style:normal;font-variant:normal;font-weight:normal;font-stretch:normal;opacity:0.92000002;fill:#000000;fill-opacity:1;stroke:none;font-family:newPushkin;-inkscape-font-specification:newPushkin">
    <path
       d="m 133.29197,213.25546 c -2e-5,0.38534 -0.29468,0.62334 -0.884,0.714 -0.068,0.0227 -0.69135,0.0453 -1.87,0.068 l -4.964,0 c -0.11334,0.11334 -1.37134,1.28067 -3.774,3.502 -3.196,2.96933 -4.87333,4.454 -5.032,4.454 -0.476,0 -0.714,-0.306 -0.714,-0.918 0,-0.204 0.46467,-0.73667 1.394,-1.598 l 2.55,-2.414 c 0.18133,-0.18133 1.33733,-1.258 3.468,-3.23 -1.74534,0 -2.754,-0.0113 -3.026,-0.034 -0.24934,-0.0227 -0.58934,-0.0227 -1.02,0 -0.56667,0.0227 -0.918,0.034 -1.054,0.034 -0.79333,0 -1.19,-0.19266 -1.19,-0.578 0,-0.45333 0.41933,-0.73666 1.258,-0.85 0.272,-0.0227 1.06533,-0.034 2.38,-0.034 l 3.978,0 c 0.95199,-0.83866 2.33466,-2.20999 4.148,-4.114 2.03999,-2.44799 3.26399,-3.67199 3.672,-3.672 0.45332,10e-6 0.67998,0.26068 0.68,0.782 -2e-5,0.13601 -0.94068,1.25801 -2.822,3.366 l -3.672,3.808 c 0.47599,0 1.23532,0.0453 2.278,0.136 0.97465,0.0907 1.63199,0.12467 1.972,0.102 1.49598,-0.0453 2.24398,0.11334 2.244,0.476"
       id="path3957" />
    <path
       d="m 152.45681,202.30746 c -2e-5,0.95201 -2.25535,2.91268 -6.766,5.882 l -3.842,2.55 c -1.60934,1.11067 -2.652,1.938 -3.128,2.482 1.60933,-0.56666 2.85599,-0.84999 3.74,-0.85 0.38532,10e-6 0.73666,0.18134 1.054,0.544 0.33999,0.34 0.50999,0.70267 0.51,1.088 -1e-5,0.408 -0.55534,1.258 -1.666,2.55 -1.11067,1.26933 -1.66601,1.99467 -1.666,2.176 -1e-5,0.56666 0.58933,0.85 1.768,0.85 0.70266,0 1.97199,-0.28334 3.808,-0.85 0.31732,-0.0907 0.78199,-0.29467 1.394,-0.612 0.54399,-0.272 0.82732,-0.408 0.85,-0.408 0.45332,0 0.67999,0.22667 0.68,0.68 -1e-5,0.136 -0.28335,0.31733 -0.85,0.544 l -1.632,0.646 c -1.79068,0.79333 -3.33201,1.19 -4.624,1.19 -2.19867,0 -3.298,-0.58934 -3.298,-1.768 0,-0.544 0.48733,-1.38267 1.462,-2.516 0.99733,-1.156 1.49599,-1.836 1.496,-2.04 -1e-5,-0.15866 -0.10201,-0.306 -0.306,-0.442 -0.18134,-0.136 -0.36267,-0.204 -0.544,-0.204 -0.56667,0 -1.46201,0.306 -2.686,0.918 l -2.992,1.87 -3.23,3.128 c -1.02,0.92933 -1.84733,1.394 -2.482,1.394 -0.29466,0 -0.44199,-0.11334 -0.442,-0.34 1e-5,-0.49867 0.442,-1.24667 1.326,-2.244 0.38534,-0.45333 1.28067,-1.394 2.686,-2.822 l 4.454,-4.59 c 1.564,-1.54133 3.60399,-3.32066 6.12,-5.338 3.60399,-2.87865 6.07465,-4.31798 7.412,-4.318 0.33998,2e-5 0.65732,0.0907 0.952,0.272 0.29465,0.18135 0.44198,0.37402 0.442,0.578"
       id="path3959" />
    <path
       d="m 158.94603,218.01546 c -1e-5,0.29467 -0.92934,0.80467 -2.788,1.53 -2.04,0.816 -3.74,1.224 -5.1,1.224 -1.11067,0 -2.006,-0.204 -2.686,-0.612 -0.68,-0.408 -1.02,-0.89534 -1.02,-1.462 0,-1.13333 0.94067,-2.516 2.822,-4.148 1.02,-0.884 2.16466,-1.734 3.434,-2.55 1.17866,-0.74799 1.90399,-1.12199 2.176,-1.122 0.72533,1e-5 1.08799,0.29467 1.088,0.884 -1e-5,0.86134 -0.98601,1.98334 -2.958,3.366 -1.54134,1.088 -2.788,1.87 -3.74,2.346 -0.65733,0.45333 -0.986,0.86133 -0.986,1.224 0,0.58933 0.72533,0.884 2.176,0.884 0.99733,0 2.38,-0.35134 4.148,-1.054 1.79066,-0.70267 2.73133,-1.054 2.822,-1.054 0.40799,0 0.61199,0.18133 0.612,0.544"
       id="path3961" />
  </g>
  <g
     transform="matrix(1,0,0,1.101518,15.65625,-73.969105)"
     id="text3927"
     style="font-size:89.09971619px;font-style:normal;font-variant:normal;font-weight:normal;font-stretch:normal;opacity:0.95;fill:#000000;fill-opacity:1;stroke:none;font-family:newPushkin;-inkscape-font-specification:newPushkin">
    <path
       d="m 89.217529,241.00187 c -3.1e-5,1.60381 -2.52452,5.31629 -7.573476,11.13746 l -6.593379,8.01897 c 1.128579,0.8316 1.692877,1.5741 1.692895,2.2275 -1.8e-5,0.23759 -0.08912,0.50489 -0.267299,0.8019 -0.891015,1.48499 -3.385804,3.35608 -7.484377,5.61328 -7.603178,9.14755 -14.018351,15.91912 -19.245538,20.31473 -4.751972,3.97976 -10.335548,7.51404 -16.750747,10.60287 -6.474547,3.08875 -11.345327,4.63314 -14.612353,4.63318 -3.148147,-4e-5 -4.72224,-0.80194 -4.722285,-2.40569 4.5e-5,-2.43543 3.356131,-6.20731 10.068268,-11.31566 5.583611,-4.27682 12.117584,-8.4942 19.601937,-12.65216 7.840783,-4.3362 14.166856,-7.66259 18.97824,-9.97917 2.851184,-1.9008 5.791472,-5.07869 8.820872,-9.53367 -3.207599,0 -5.821189,-0.4752 -7.840775,-1.4256 -2.554194,-1.18799 -4.068888,-2.82148 -4.544086,-4.90048 -0.772197,-3.50458 5.939975,-7.75166 20.136536,-12.74126 2.37597,-0.83158 4.69256,-1.24737 6.949778,-1.24739 2.257163,2e-5 3.385758,0.95041 3.385789,2.85119 m -6.682479,3.02939 c -2.4e-5,-0.47519 -0.297022,-0.71279 -0.890997,-0.7128 -2.019614,1e-5 -5.167801,1.06921 -9.44457,3.20759 -5.464791,2.7324 -8.197179,4.60349 -8.197174,5.61328 -5e-6,0.9504 0.653392,1.6335 1.960194,2.04929 2.732381,0.89101 5.227171,0.89101 7.484376,0 6.05876,-5.28657 9.088147,-8.67235 9.088171,-10.15736 m -23.165926,29.9375 c -3.385787,1.00978 -8.999063,3.92037 -16.839846,8.73177 -3.44517,2.07897 -7.751652,4.98956 -12.919459,8.73178 -5.761747,4.15795 -8.642635,6.53394 -8.642673,7.12797 3.8e-5,0.77216 0.356437,1.15826 1.069197,1.1583 1.54443,-4e-5 4.544118,-1.18804 8.999071,-3.56399 4.455009,-2.31663 8.642692,-4.87082 12.56306,-7.66258 4.692596,-3.32641 9.949474,-8.16749 15.77065,-14.52325"
       id="path3948" />
    <path
       d="m 113.90929,232.53739 c -1.84142,3e-5 -2.76212,-0.92067 -2.76209,-2.76209 -3e-5,-1.84136 0.92067,-2.76206 2.76209,-2.76209 0.77217,3e-5 1.42557,0.29703 1.96019,0.891 0.59397,0.53463 0.89097,1.18802 0.891,1.96019 -3e-5,1.78202 -0.95043,2.67302 -2.85119,2.67299 m 2.04929,21.11664 c -3e-5,0.891 -2.67302,2.16809 -8.01897,3.83128 -5.7618,1.9008 -10.929578,2.85119 -15.503355,2.85119 -1.544398,0 -2.910592,-0.50489 -4.098586,-1.51469 -1.128596,-1.0098 -1.692894,-2.25719 -1.692895,-3.74219 10e-7,-1.36619 2.375991,-4.12828 7.127977,-8.28627 4.633175,-3.97977 7.781359,-6.14786 9.444569,-6.50428 0.77218,-0.17818 1.15828,0.38612 1.1583,1.69289 -2e-5,0.53462 -2.10871,2.61361 -6.326082,6.23698 -4.217393,3.564 -6.326084,5.85089 -6.32608,6.86068 -4e-6,1.0692 1.098891,1.6038 3.296689,1.6038 2.732382,0 6.444863,-0.7722 11.137463,-2.3166 4.69256,-1.54438 7.12795,-2.31658 7.30618,-2.31659 1.66317,1e-5 2.49476,0.53461 2.49479,1.6038"
       id="path3950" />
    <path
       d="m 191.45667,251.60473 c -8e-5,0.47521 -1.00988,1.2771 -3.02939,2.40569 -1.96027,1.12861 -4.00956,2.0493 -6.14788,2.7621 -7.18744,2.43539 -12.83042,3.65308 -16.92895,3.65308 -1.42564,0 -2.64334,-0.3564 -3.65309,-1.06919 -1.00984,-0.7722 -1.51474,-1.78199 -1.51469,-3.02939 -5e-5,-0.6534 0.89095,-1.98989 2.67299,-4.00949 l 4.54409,-4.90048 c -3.92044,0.59401 -8.49422,2.1384 -13.72136,4.63318 -8.13781,3.86099 -12.56309,5.79148 -13.27586,5.79148 -1.00982,0 -1.51472,-0.74249 -1.51469,-2.22749 -3e-5,-0.1782 1.30676,-1.45529 3.92038,-3.83129 2.67296,-2.43538 4.00946,-4.06887 4.00949,-4.90048 -3e-5,-0.65339 -0.26733,-0.98009 -0.8019,-0.9801 -0.83163,10e-6 -3.26702,0.71281 -7.30617,2.13839 -4.45501,1.54441 -8.73179,3.2373 -12.83036,5.07869 -0.59401,0.2376 -3.3858,1.6632 -8.37538,4.27678 -3.32639,1.7226 -5.43508,2.5839 -6.32608,2.5839 -1.12859,0 -1.69289,-0.7128 -1.69289,-2.1384 0,-1.24739 3.41549,-4.51438 10.24647,-9.80097 6.83096,-5.28656 11.16714,-7.92985 13.00856,-7.92987 0.89097,2e-5 1.33647,0.38612 1.33649,1.1583 -2e-5,0.41581 -1.24741,1.60381 -3.74219,3.56398 -2.9106,2.25721 -4.66289,3.7719 -5.25688,4.54409 0.0594,1e-5 2.61358,-0.83159 7.66258,-2.49479 0.95037,-0.29699 3.97976,-1.42558 9.08817,-3.38579 3.38575,-1.24738 5.55384,-1.87108 6.50428,-1.8711 1.54435,2e-5 2.76205,0.41582 3.65308,1.2474 0.95036,0.83161 1.33646,1.84141 1.1583,3.02939 -0.23764,1.78201 -0.68314,3.1482 -1.33649,4.09859 2.43535,-1.12859 6.41513,-2.76208 11.93936,-4.90049 5.70232,-1.84137 9.50391,-2.76207 11.40476,-2.76209 1.24733,2e-5 1.87103,0.68312 1.8711,2.0493 -7e-5,0.53461 -1.06926,1.5741 -3.20759,3.11849 -2.73245,1.9008 -4.51445,3.26699 -5.34599,4.09858 l -2.49479,2.49479 c -0.83165,0.83161 -1.24745,1.5741 -1.2474,2.2275 -5e-5,0.7722 0.89095,1.1583 2.673,1.15829 2.67293,10e-6 6.97941,-0.92069 12.91945,-2.76209 1.48493,-0.47519 3.56392,-1.27709 6.23698,-2.40569 2.31652,-1.00979 3.56392,-1.51469 3.74219,-1.5147 0.77212,1e-5 1.15822,0.26731 1.1583,0.8019"
       id="path3952" />
    <path
       d="m 247.1969,248.93174 c -7e-5,0.71281 -1.24746,1.36621 -3.74219,1.96019 -2.25725,0.59401 -4.54414,1.15831 -6.86068,1.6929 -7.24682,2.3166 -13.92929,4.00949 -20.04744,5.07868 l -4.72228,1.8711 c -1.54442,0.59399 -2.82152,0.89099 -3.83129,0.89099 -1.54442,0 -2.34631,-0.68309 -2.40569,-2.04929 -0.0594,-0.5346 0.26728,-0.92069 0.9801,-1.1583 1.12857,-0.23759 1.90077,-0.53459 2.31659,-0.89099 2.85116,-2.19779 4.27676,-3.80158 4.27678,-4.81139 -2e-5,-1.06919 -0.20792,-1.60378 -0.62369,-1.60379 -1.96022,10e-6 -4.90051,0.891 -8.82088,2.67299 -2.07901,0.9504 -3.4155,1.4256 -4.00948,1.42559 -0.65342,1e-5 -1.81171,-0.47519 -3.47489,-1.42559 -1.66321,1.188 -5.13809,4.21739 -10.42467,9.08817 l -14.70145,13.45406 c -2.73238,2.43537 -9.56335,8.85054 -20.49294,19.24554 -7.48433,7.12793 -11.64231,10.69192 -12.47396,10.69196 -1.60374,-4e-5 -2.40564,-0.68314 -2.40569,-2.04929 5e-5,-0.89104 10.57321,-11.1078 31.7195,-30.6503 l 24.14602,-21.47304 30.02661,-25.03702 c 2.61355,-2.13835 5.64294,-4.24704 9.08817,-6.32608 3.50454,-2.07895 5.70233,-3.11844 6.59338,-3.11849 0.77214,5e-5 1.15824,0.53465 1.15829,1.6038 -5e-5,0.41584 -1.33654,1.51473 -4.00948,3.29669 -4.27684,2.85122 -7.66262,5.22722 -10.15737,7.12798 -4.21742,3.26701 -8.7912,7.0686 -13.72136,11.40476 -4.5144,3.9798 -7.42499,6.71219 -8.73177,8.19717 0.23758,0.17821 0.44548,0.35641 0.6237,0.5346 0.41578,0.29701 0.83158,0.41581 1.24739,0.3564 l 7.75168,-2.04929 c 2.67296,-0.65339 4.87075,-0.98009 6.59338,-0.9801 0.89096,10e-6 1.69286,0.29701 2.40569,0.891 0.77216,0.59401 1.15826,1.3068 1.1583,2.13839 -4e-5,1.12861 -1.18803,2.8215 -3.56399,5.07868 3.44515,-0.89099 9.08813,-2.25718 16.92894,-4.09858 6.65273,-1.42559 10.27611,-2.13838 10.87017,-2.1384 0.89094,2e-5 1.33643,0.38611 1.3365,1.1583"
       id="path3954" />
  </g>
  <text
     x="-169.75648"
     y="120.19077"
     id="text3931"
     xml:space="preserve"
     style="font-size:40px;font-style:normal;font-variant:normal;font-weight:normal;font-stretch:normal;fill:#000000;fill-opacity:1;stroke:none;font-family:newPushkin;-inkscape-font-specification:newPushkin"><tspan
       x="-169.75648"
       y="120.19077"
       id="tspan3939" /></text>
  <text
     x="-265.34375"
     y="-52.999565"
     id="text4007"
     xml:space="preserve"
     style="font-size:40px;font-style:normal;font-variant:normal;font-weight:normal;font-stretch:normal;fill:#000000;fill-opacity:1;stroke:none;font-family:newPushkin;-inkscape-font-specification:newPushkin"><tspan
       x="-265.34375"
       y="-52.999565"
       id="tspan4009" /></text>
  <text
     x="-241.34375"
     y="-1.9995589"
     id="text4011"
     xml:space="preserve"
     style="font-size:40px;font-style:normal;font-variant:normal;font-weight:normal;font-stretch:normal;fill:#000000;fill-opacity:1;stroke:none;font-family:newPushkin;-inkscape-font-specification:newPushkin"><tspan
       x="-241.34375"
       y="-1.9995589"
       id="tspan4013" /></text>
</svg>
