<?xml version="1.0" encoding="UTF-8" standalone="no"?>
<!-- Created with Inkscape (http://www.inkscape.org/) -->

<svg
   xmlns:dc="http://purl.org/dc/elements/1.1/"
   xmlns:cc="http://creativecommons.org/ns#"
   xmlns:rdf="http://www.w3.org/1999/02/22-rdf-syntax-ns#"
   xmlns:svg="http://www.w3.org/2000/svg"
   xmlns="http://www.w3.org/2000/svg"
   xmlns:xlink="http://www.w3.org/1999/xlink"
   xmlns:sodipodi="http://sodipodi.sourceforge.net/DTD/sodipodi-0.dtd"
   xmlns:inkscape="http://www.inkscape.org/namespaces/inkscape"
   version="1.0"
   width="24"
   height="24"
   id="svg7205"
   inkscape:version="0.48.0 r9654"
   sodipodi:docname="folder.svg">
  <metadata
     id="metadata46">
    <rdf:RDF>
      <cc:Work
         rdf:about="">
        <dc:format>image/svg+xml</dc:format>
        <dc:type
           rdf:resource="http://purl.org/dc/dcmitype/StillImage" />
        <dc:title></dc:title>
      </cc:Work>
    </rdf:RDF>
  </metadata>
  <sodipodi:namedview
     pagecolor="#ffffff"
     bordercolor="#666666"
     borderopacity="1"
     objecttolerance="10"
     gridtolerance="10"
     guidetolerance="10"
     inkscape:pageopacity="0"
     inkscape:pageshadow="2"
     inkscape:window-width="1280"
     inkscape:window-height="947"
     id="namedview44"
     showgrid="true"
     inkscape:snap-global="false"
     inkscape:zoom="32"
     inkscape:cx="11.592787"
     inkscape:cy="7.9868246"
     inkscape:window-x="0"
     inkscape:window-y="24"
     inkscape:window-maximized="1"
     inkscape:current-layer="svg7205">
    <inkscape:grid
       type="xygrid"
       id="grid3190" />
  </sodipodi:namedview>
  <defs
     id="defs7207">
    <linearGradient
       x1="71.999496"
       y1="14.2578"
       x2="71.999496"
       y2="19.9583"
       id="linearGradient4305-4-8-8"
       gradientUnits="userSpaceOnUse"
       gradientTransform="matrix(1.0033404,0,0,1,-8.2374684,8)">
      <stop
         id="stop4307-0-1-5"
         style="stop-color:#feebd6;stop-opacity:0"
         offset="0.00445589" />
      <stop
         id="stop4309-8-0-7"
         style="stop-color:#f5f5f5;stop-opacity:0.52999997"
         offset="0.46138024" />
      <stop
         id="stop4311-0-3-4"
         style="stop-color:#f5f5f5;stop-opacity:0"
         offset="1" />
    </linearGradient>
    <linearGradient
       x1="7.2379346"
       y1="36.005047"
       x2="132.86028"
       y2="35.857735"
       id="linearGradient10493"
       xlink:href="#linearGradient4305-4-8-8"
       gradientUnits="userSpaceOnUse"
       gradientTransform="matrix(0.206832,0,0,0.94280901,-1.3627107,-26.279216)" />
    <linearGradient
       id="linearGradient9065">
      <stop
         id="stop9067"
         style="stop-color:#c90505;stop-opacity:1"
         offset="0" />
      <stop
         id="stop9069"
         style="stop-color:#a40000;stop-opacity:1"
         offset="1" />
    </linearGradient>
    <linearGradient
       x1="144"
       y1="97.019531"
       x2="144.00374"
       y2="110.00113"
       id="linearGradient10491"
       xlink:href="#linearGradient9065"
       gradientUnits="userSpaceOnUse"
       gradientTransform="translate(-133.99892,-91.000007)" />
    <linearGradient
       id="linearGradient9051">
      <stop
         id="stop9053"
         style="stop-color:#ff4f4f;stop-opacity:1"
         offset="0" />
      <stop
         id="stop9055"
         style="stop-color:#c90505;stop-opacity:1"
         offset="1" />
    </linearGradient>
    <linearGradient
       x1="28.108635"
       y1="327.61179"
       x2="28.108635"
       y2="406.28616"
       id="linearGradient10489"
       xlink:href="#linearGradient9051"
       gradientUnits="userSpaceOnUse"
       gradientTransform="matrix(0.1721822,0,0,0.1780642,7.1612791,-53.343896)" />
    <linearGradient
       id="linearGradient17648">
      <stop
         id="stop17650"
         style="stop-color:#ffffff;stop-opacity:0.60000002"
         offset="0" />
      <stop
         id="stop17652"
         style="stop-color:#ffffff;stop-opacity:0"
         offset="1" />
    </linearGradient>
    <linearGradient
       x1="24.689999"
       y1="9.9026108"
       x2="24.64839"
       y2="42.050255"
       id="linearGradient6327"
       xlink:href="#linearGradient17648"
       gradientUnits="userSpaceOnUse"
       gradientTransform="matrix(0.4276737,0,0,0.4666684,1.4589973,-1.6235582)" />
    <linearGradient
       id="linearGradient6293">
      <stop
         id="stop6295"
         style="stop-color:#888a85;stop-opacity:1"
         offset="0" />
      <stop
         id="stop6297"
         style="stop-color:#555753;stop-opacity:0"
         offset="1" />
    </linearGradient>
    <linearGradient
       x1="25.147449"
       y1="8.9330053"
       x2="25.146053"
       y2="32.880013"
       id="linearGradient17644"
       xlink:href="#linearGradient6293"
       gradientUnits="userSpaceOnUse"
       gradientTransform="matrix(0.4357475,0,0,0.4664545,1.0442561,-2.2591344)" />
    <radialGradient
       cx="605.71429"
       cy="486.64789"
       r="117.14286"
       fx="605.71429"
       fy="486.64789"
       id="radialGradient2099"
       xlink:href="#linearGradient5060"
       gradientUnits="userSpaceOnUse"
       gradientTransform="matrix(-3.0266061,0,0,2.3636471,203.87112,-1112.9945)" />
    <linearGradient
       id="linearGradient5060">
      <stop
         id="stop5062"
         style="stop-color:#000000;stop-opacity:1"
         offset="0" />
      <stop
         id="stop5064"
         style="stop-color:#000000;stop-opacity:0"
         offset="1" />
    </linearGradient>
    <radialGradient
       cx="605.71429"
       cy="486.64789"
       r="117.14286"
       fx="605.71429"
       fy="486.64789"
       id="radialGradient2097"
       xlink:href="#linearGradient5060"
       gradientUnits="userSpaceOnUse"
       gradientTransform="matrix(3.0266061,0,0,2.3636471,-1982.7418,-1112.9945)" />
    <linearGradient
       id="linearGradient5048">
      <stop
         id="stop5050"
         style="stop-color:#000000;stop-opacity:0"
         offset="0" />
      <stop
         id="stop5056"
         style="stop-color:#000000;stop-opacity:1"
         offset="0.5" />
      <stop
         id="stop5052"
         style="stop-color:#000000;stop-opacity:0"
         offset="1" />
    </linearGradient>
    <linearGradient
       x1="302.85715"
       y1="366.64789"
       x2="302.85715"
       y2="609.50507"
       id="linearGradient2095"
       xlink:href="#linearGradient5048"
       gradientUnits="userSpaceOnUse"
       gradientTransform="matrix(3.0266061,0,0,2.3636471,-1983.3374,-1112.9945)" />
    <linearGradient
       id="linearGradient4185">
      <stop
         id="stop4187"
         offset="0"
         style="stop-color:#ffffff;stop-opacity:0.38759691;" />
      <stop
         id="stop4189"
         offset="1"
         style="stop-color:#ffffff;stop-opacity:0;" />
    </linearGradient>
    <linearGradient
       inkscape:collect="always"
       xlink:href="#linearGradient3802"
       id="linearGradient3315"
       gradientUnits="userSpaceOnUse"
       x1="443.36374"
       y1="690.86578"
       x2="232.57103"
       y2="484.1579" />
    <linearGradient
       id="linearGradient3802">
      <stop
         style="stop-color:#000000;stop-opacity:0.64705884;"
         offset="0"
         id="stop3804" />
      <stop
         style="stop-color:#262626;stop-opacity:0.29411766;"
         offset="1"
         id="stop3806" />
    </linearGradient>
    <linearGradient
       inkscape:collect="always"
       xlink:href="#linearGradient3802"
       id="linearGradient3311"
       gradientUnits="userSpaceOnUse"
       x1="443.36374"
       y1="690.86578"
       x2="232.57103"
       y2="484.1579" />
    <linearGradient
       id="linearGradient4163-4">
      <stop
         id="stop4165-6"
         offset="0"
         style="stop-color:#ffffff;stop-opacity:0.38759691;" />
      <stop
         id="stop4167-2"
         offset="1"
         style="stop-color:#ffffff;stop-opacity:0;" />
    </linearGradient>
    <linearGradient
       id="linearGradient3944">
      <stop
         id="stop3946"
         offset="0"
         style="stop-color:#000000;stop-opacity:0.74418604;" />
      <stop
         id="stop3948"
         offset="1"
         style="stop-color:#000000;stop-opacity:0;" />
    </linearGradient>
    <linearGradient
       id="linearGradient3966">
      <stop
         id="stop3968"
         offset="0"
         style="stop-color:#000000;stop-opacity:0.74418604;" />
      <stop
         id="stop3970"
         offset="1"
         style="stop-color:#000000;stop-opacity:0;" />
    </linearGradient>
    <linearGradient
       id="linearGradient3881">
      <stop
         style="stop-color:#000000;stop-opacity:0.74509805;"
         offset="0"
         id="stop3883" />
      <stop
         style="stop-color:#000000;stop-opacity:0;"
         offset="1"
         id="stop3885" />
    </linearGradient>
    <linearGradient
       id="linearGradient3994">
      <stop
         style="stop-color:#000000;stop-opacity:0.74418604;"
         offset="0"
         id="stop3996" />
      <stop
         style="stop-color:#000000;stop-opacity:0;"
         offset="1"
         id="stop3998" />
    </linearGradient>
    <linearGradient
       id="linearGradient4016">
      <stop
         id="stop4018"
         offset="0"
         style="stop-color:#000000;stop-opacity:0.74418604;" />
      <stop
         id="stop4020"
         offset="1"
         style="stop-color:#000000;stop-opacity:0;" />
    </linearGradient>
    <linearGradient
       id="linearGradient4122">
      <stop
         style="stop-color:#ffffff;stop-opacity:0.38759691;"
         offset="0"
         id="stop4124" />
      <stop
         style="stop-color:#ffffff;stop-opacity:0;"
         offset="1"
         id="stop4126" />
    </linearGradient>
    <linearGradient
       id="linearGradient4207">
      <stop
         id="stop4209"
         offset="0"
         style="stop-color:#ffffff;stop-opacity:0.38759691;" />
      <stop
         id="stop4211"
         offset="1"
         style="stop-color:#ffffff;stop-opacity:0;" />
    </linearGradient>
    <linearGradient
       id="linearGradient4229">
      <stop
         id="stop4231"
         offset="0"
         style="stop-color:#ffffff;stop-opacity:0.38759691;" />
      <stop
         id="stop4233"
         offset="1"
         style="stop-color:#ffffff;stop-opacity:0;" />
    </linearGradient>
    <linearGradient
       inkscape:collect="always"
       xlink:href="#linearGradient3944"
       id="linearGradient3172"
       gradientUnits="userSpaceOnUse"
       x1="293.83801"
       y1="480.63797"
       x2="316.39178"
       y2="504.58237" />
    <linearGradient
       inkscape:collect="always"
       xlink:href="#linearGradient3966"
       id="linearGradient3208"
       gradientUnits="userSpaceOnUse"
       x1="356.42352"
       y1="484.73828"
       x2="379.7739"
       y2="510.29828" />
    <linearGradient
       inkscape:collect="always"
       xlink:href="#linearGradient3881"
       id="linearGradient3210"
       gradientUnits="userSpaceOnUse"
       x1="240.93015"
       y1="534.46381"
       x2="268.29987"
       y2="563.13019" />
    <linearGradient
       inkscape:collect="always"
       xlink:href="#linearGradient3994"
       id="linearGradient3212"
       gradientUnits="userSpaceOnUse"
       x1="404.1933"
       y1="540.63306"
       x2="420.10599"
       y2="556.74072" />
    <linearGradient
       inkscape:collect="always"
       xlink:href="#linearGradient4016"
       id="linearGradient3214"
       gradientUnits="userSpaceOnUse"
       x1="300.13245"
       y1="576.21698"
       x2="344.32812"
       y2="627.31793" />
  </defs>
  <g
     transform="translate(0,2)"
     id="layer1">
    <g
       transform="matrix(0.0099322,0,0,0.00522622,20.835133,18.287575)"
       id="g13071"
       style="display:inline">
      <rect
         width="1461.4183"
         height="574.02856"
         x="-1620.1449"
         y="-246.36827"
         id="rect13073"
         style="opacity:0.40206185;fill:url(#linearGradient2095);fill-opacity:1;fill-rule:nonzero;stroke:none;stroke-width:1;marker:none;visibility:visible;display:inline;overflow:visible" />
      <path
         d="m -158.72638,-246.3485 c 0,0 0,573.99693 0,573.99693 155.8627195,1.08054 376.80022,-128.60359 376.80013,-287.035403 0,-158.431837 -173.931055,-286.961507 -376.80013,-286.961527 z"
         id="path13075"
         style="opacity:0.40206185;fill:url(#radialGradient2097);fill-opacity:1;fill-rule:nonzero;stroke:none;stroke-width:1;marker:none;visibility:visible;display:inline;overflow:visible" />
      <path
         d="m -1620.1447,-246.3485 c 0,0 0,573.99693 0,573.99693 -155.8628,1.08054 -376.8002,-128.60359 -376.8002,-287.035403 0,-158.431837 173.931,-286.961507 376.8002,-286.961527 z"
         id="path13077"
         style="opacity:0.40206185;fill:url(#radialGradient2099);fill-opacity:1;fill-rule:nonzero;stroke:none;stroke-width:1;marker:none;visibility:visible;display:inline;overflow:visible" />
    </g>
    <path
       d="m 21.502084,5.0000358 c 0.0013,-0.256621 -0.253922,-0.5000001 -0.5,-0.5000001 l -9.99989,0 -1.7511119,-1.5 c -0.229309,-0.183501 -0.50001,-0.496094 -0.75,-0.5 l -5.4989993,0 c -0.3281029,0 -0.501,0.15784 -0.501,0.5 l 0,15.4999643 19.0000012,0 0.001,-13.4999642 z"
       id="path15"
       style="fill:#eeeeec;fill-opacity:1;stroke:url(#linearGradient17644);stroke-width:0.9999305;stroke-miterlimit:4;stroke-dasharray:none" />
    <path
       d="m 20.502084,5.7500025 c 0.0068,-0.2517405 0.0058,-0.255491 -0.251,-0.2499667 l -9.650001,0 -1.7000009,-1.5000001 c -0.746049,-0.5986566 -0.494486,-0.4859206 -0.9,-0.5 l -4.2499996,0 c -0.3055089,0 -0.25,-0.070955 -0.25,0.2499667 l 0,1.2500334 0.001,12.4999642 17.0000015,0 0,-11.7499975 z"
       id="path7263"
       style="fill:none;stroke:url(#linearGradient6327);stroke-width:0.9999305;stroke-miterlimit:4;stroke-opacity:1;stroke-dasharray:none" />
    <path
       d="m 22.001084,18 c 0,0.495153 -0.483993,0.507964 -1,0.5 l -18.0000009,0 c -0.4960881,0 -0.9969056,0.0045 -1,-0.5 l -0.5,-10.9999978 c -0.02072,-0.292919 0.21492,-0.5 0.5,-0.5 l 20.0000009,0 c 0.28509,0 0.52177,0.207081 0.5,0.5 L 22.001084,18 z"
       id="path11507"
       style="opacity:0.9;fill:url(#linearGradient10489);fill-opacity:1;stroke:url(#linearGradient10491);stroke-width:0.99962622;stroke-miterlimit:4;stroke-opacity:1;stroke-dasharray:none;display:inline;enable-background:new" />
    <rect
       width="20"
       height="1"
       rx="0"
       ry="0"
       x="2.0010781"
       y="6.9999981"
       id="rect3521-5-0-1"
       style="fill:url(#linearGradient10493);fill-opacity:1;stroke:none;display:inline;enable-background:new" />
  </g>
  <g
     id="g4286"
     style="opacity:0.9"
     transform="matrix(0.43065043,-0.01688766,0.01751993,0.41510891,1.4177889,3.3877763)">
    <g
       style="fill:url(#linearGradient3315);fill-opacity:1"
       inkscape:label="Layer 1"
       id="layer1-5"
       transform="matrix(0.1002917,0,0,0.1002917,-9.7346134,-28.393143)">
      <path
         style="color:#000000;fill:url(#linearGradient3311);fill-opacity:1;fill-rule:nonzero;stroke:none;stroke-width:2.79999995;marker:none;visibility:visible;display:inline;overflow:visible;enable-background:accumulate"
         d="m 311.40278,460.7597 c -8.9501,0.36899 -19.37248,4.86613 -23.90625,10.90625 -5.02531,6.69499 -8.90625,20.1877 -8.90625,30.90625 0,8.27637 0.28473,9.60303 3.59375,16.5 6.64023,13.84021 18.52279,24.03134 27.90625,23.9375 2.475,-0.0248 6.525,-0.81267 9,-1.75 6.35338,-2.40615 7.64931,-5.63999 8.96875,-22.03125 0.59055,-7.3364 1.9802,-18.513 3.0625,-24.84375 2.39185,-13.9908 2.42026,-17.49573 0.3125,-21.9375 -2.36666,-4.98736 -8.78554,-10.10454 -14.15625,-11.25 -1.81594,-0.3873 -3.80959,-0.52265 -5.875,-0.4375 z m 64.53472,5.39655 c -4.45622,0 -15.29253,3.85296 -19.59375,6.96875 -8.36618,6.06043 -9.82609,11.04858 -11.375,39.03125 -1.59898,28.88708 -1.63504,27.49755 1.15625,30.46875 4.77244,5.08002 18.7458,7.13172 25.875,3.8125 6.63512,-3.08918 16.27375,-13.90575 21.5,-24.09375 9.42122,-18.36561 10.59357,-25.56305 5.78125,-35.6875 -5.23146,-11.00626 -16.0351,-20.5 -23.34375,-20.5 z m -119.5,51.125 c -1.36451,0.0889 -2.88256,0.49071 -4.625,1.21875 -4.2919,1.79327 -8.28143,6.66262 -12.0625,14.65625 -2.79679,5.91276 -3.08294,7.40549 -3.09375,16.59375 -0.0113,9.58225 0.17969,10.4637 3.5,16.96875 3.97428,7.78628 8.85715,11.88634 16.65625,14 5.49772,1.48996 9.72452,1.03936 13.34375,-1.4375 5.926,-4.05553 12.47119,-24.09401 10,-30.59375 -0.60245,-1.58457 -3.55513,-6.1604 -6.5625,-10.15625 -3.00736,-3.99585 -6.39878,-9.41508 -7.53125,-12.0625 -2.86489,-6.69739 -5.53146,-9.45417 -9.625,-9.1875 z m 163.71875,7.875 c -3.25499,0 -6.96188,0.4756 -8.25,1.0625 -2.99553,1.36486 -9.38362,11.34651 -16.53125,25.84375 -7.31171,14.83004 -7.93618,20.27197 -3.1875,27.375 5.38478,8.05448 10.12954,9.22664 19.3125,4.78125 6.28021,-3.0402 18.34447,-13.71298 21.40625,-18.9375 2.35231,-4.01392 2.76039,-5.93213 3.09375,-14.9375 0.45167,-12.20178 -1.09382,-17.437 -6.46875,-22.15625 -3.03116,-2.6614 -4.20512,-3.03125 -9.375,-3.03125 z m -97.375,35.1875 c -3.08225,-0.0172 -4.99499,0.70344 -8.125,2.1875 -5.88292,2.78932 -10.85014,7.86084 -15.59375,15.96875 -2.52206,4.31077 -6.3714,8.34353 -14.59375,15.25 -8.97861,7.54169 -11.67606,10.43512 -13.65625,14.65625 -5.61059,11.96002 -6.18478,26.72386 -1.46875,36.90625 7.24855,15.65035 22.96727,23.93202 36.78125,19.34375 5.35978,-1.78023 6.10948,-1.78066 26.625,0.0937 5.40091,0.49344 8.36886,0.2266 12.25,-1.0625 5.81177,-1.93036 7.95924,-1.52448 12.46875,2.375 6.63151,5.73443 7.69631,5.93611 17,3.0625 9.50392,-2.93547 12.84476,-7.38062 16.8125,-22.46875 2.22849,-8.47428 2.37323,-18.31131 0.375,-23.09375 -0.8107,-1.94026 -5.22571,-9.01417 -9.84375,-15.71875 -4.61805,-6.70458 -11.00409,-17.3625 -14.15625,-23.6875 -8.69696,-17.45097 -8.41991,-17.27911 -29.75,-21.5 -7.80739,-1.54496 -12.04275,-2.29534 -15.125,-2.31245 z"
         id="rect2998"
         inkscape:connector-curvature="0"
         sodipodi:nodetypes="sssscsssssssssssssssssssssssssssssssssssssssssssssssssss" />
    </g>
    <g
       style="opacity:0.57288136;fill:none;stroke:#000000;stroke-width:2.3631835;stroke-opacity:1"
       inkscape:label="Layer 1"
       id="layer1-5-6"
       transform="matrix(0.1002917,0,0,0.1002917,-9.7346131,-28.393143)">
      <path
         style="color:#000000;stroke:url(#linearGradient3172);stroke-width:23.56310081;stroke-linecap:butt;stroke-linejoin:miter;stroke-miterlimit:4;stroke-dashoffset:0;marker:none;visibility:visible;display:inline;overflow:visible;enable-background:accumulate"
         d="m 311.875,472.25 c -5.53329,0.46339 -10.93696,2.65336 -15.15625,6.28125 -4.81248,8.30314 -6.84578,18.06068 -6.68539,27.60754 -0.61735,3.73834 2.21659,6.7211 3.53631,9.97531 3.62564,6.22511 8.36255,12.61521 15.40552,15.11248 2.18887,0.33505 7.20378,0.19539 6.61856,-3.69528 1.24505,-9.31167 1.71163,-18.71581 3.13919,-28.00923 0.92664,-7.08918 2.54213,-14.10218 2.84206,-21.26151 -1.23951,-2.21157 -4.37047,-5.08573 -6.7,-5.85426 -0.98815,-0.17554 -1.99965,-0.18842 -3,-0.1563 z"
         id="path3164"
         inkscape:connector-curvature="0" />
      <path
         style="color:#000000;stroke:url(#linearGradient3208);stroke-width:23.56310081;stroke-linecap:butt;stroke-linejoin:miter;stroke-miterlimit:4;stroke-dashoffset:0;marker:none;visibility:visible;display:inline;overflow:visible;enable-background:accumulate"
         d="m 375.78125,478.25 c -5.67752,1.16381 -11.05315,3.17433 -14.875,6.53125 -1.705,2.78362 -2.12683,7.17871 -2.875,12.34375 -0.003,0.031 0.003,0.0628 0,0.0937 -0.008,0.0576 -0.0228,0.0984 -0.0312,0.15625 -1.15511,12.40802 -1.73267,24.93731 -2.1875,37.5 0.11018,0.0501 0.0169,0.007 0.1875,0.0625 1.07532,0.34929 3.07816,0.59621 5.09375,1 3.57338,0.23421 6.22903,-0.11144 7.5625,-1.46875 a 4.9032656,4.9032656 0 0 1 0.40625,-0.375 c 9.60122,-7.752 15.89776,-19.40846 20.1875,-31.625 1.22227,-3.465 1.28067,-6.97157 -0.1875,-9.5625 a 4.9032656,4.9032656 0 0 1 -0.15625,-0.28125 c -2.99855,-6.23051 -7.52204,-11.83654 -13.125,-14.375 z"
         id="path3177"
         inkscape:connector-curvature="0" />
      <path
         style="color:#000000;stroke:url(#linearGradient3210);stroke-width:23.56310081;stroke-miterlimit:4;marker:none;visibility:visible;display:inline;overflow:visible;enable-background:accumulate"
         d="m 255.0625,530.96875 c -0.0775,0.0848 -0.14348,0.0974 -0.21875,0.1875 -1.24883,1.49419 -2.83971,3.81671 -4.375,7.0625 -1.36744,2.89092 -1.64837,3.53152 -1.78125,4.28125 -0.11437,0.64526 -0.18212,2.67601 -0.1875,7.25 -0.006,4.83604 0.0716,6.94067 0.125,7.21875 0.0658,0.34245 0.41026,1.0768 2.09375,4.375 1.59647,3.12774 2.70444,4.62262 3.78125,5.53125 1.07681,0.90863 2.45754,1.57586 5.40625,2.375 1.93286,0.52383 2.96217,0.53767 3.03125,0.53125 0.007,-0.009 0.0241,0.009 0.0312,0 0.0246,-0.0305 0.005,-0.0303 0.0312,-0.0625 0.30261,-0.37709 0.82573,-1.12608 1.1875,-1.78125 0.95321,-1.72624 2.03271,-4.20554 2.84375,-6.6875 0.80697,-2.46947 1.41935,-5.2075 1.65625,-7.09375 0.0701,-0.5579 0.0762,-1.21836 0.0625,-1.71875 -0.26102,-0.43992 -0.56198,-0.91859 -0.9375,-1.5 -0.97373,-1.50759 -2.37183,-3.49162 -3.71875,-5.28125 -3.4159,-4.53868 -6.91753,-9.77786 -8.9375,-14.5 -0.0339,-0.0791 -0.0598,-0.11035 -0.0937,-0.1875 z"
         id="path3159"
         inkscape:connector-curvature="0" />
      <path
         style="color:#000000;stroke:url(#linearGradient3212);stroke-width:23.56310081;stroke-linecap:butt;stroke-linejoin:miter;stroke-miterlimit:4;stroke-dashoffset:0;marker:none;visibility:visible;display:inline;overflow:visible;enable-background:accumulate"
         d="m 418.21875,536.34375 c -1.30739,0.15031 -1.58446,0.22844 -2.03125,1.375 a 4.0181082,4.0181082 0 0 1 -0.375,0.71875 c -5.48758,8.46241 -10.2019,17.4571 -14.0625,26.78125 -0.60622,1.72924 -1.21652,3.37181 -1.40625,4.5625 -0.19877,1.24742 -0.097,1.68296 0.34375,2.25 a 4.0181082,4.0181082 0 0 1 0.15625,0.21875 c 0.93195,1.38688 1.80485,2.71925 2.3125,3.1875 0.10153,0.0937 0.0236,0.0366 0.0625,0.0625 a 4.0181082,4.0181082 0 0 1 0.375,-0.15625 c 4.42353,-1.37675 8.48442,-4.89357 12.90625,-8.625 0.0845,-0.0843 0.16584,-0.13524 0.25,-0.21875 3.11797,-3.09414 5.93763,-5.67371 7.28125,-8.4375 0.83758,-4.14188 0.78514,-8.75622 0.78125,-13.625 -0.13191,-3.59574 -0.68801,-6.36282 -2.375,-7.5625 a 4.0181082,4.0181082 0 0 1 -0.53125,-0.46875 c -0.29489,-0.0106 -0.88518,0.0108 -2,-0.0625 a 4.0181082,4.0181082 0 0 1 -0.1875,0 c -0.52782,-0.0596 -1.02123,-0.055 -1.5,0 z"
         id="path3185"
         inkscape:connector-curvature="0" />
      <path
         style="color:#000000;stroke:url(#linearGradient3214);stroke-width:23.56310081;stroke-linecap:butt;stroke-linejoin:miter;stroke-miterlimit:4;stroke-dashoffset:0;marker:none;visibility:visible;display:inline;overflow:visible;enable-background:accumulate"
         d="m 322.3125,572.96875 c 0.14066,-0.0463 -0.60453,0.31196 -2.1875,1.0625 -3.11371,1.47633 -6.15405,4.08773 -10.125,10.875 -3.61001,6.17032 -8.74096,11.36773 -17.34375,18.59375 -4.37088,3.67137 -6.94056,5.95961 -8.28125,7.375 -1.39854,1.47647 -1.45124,1.63449 -2.0625,2.9375 -3.92735,8.37188 -3.80733,21.03954 -1.4375,26.15625 5.06152,10.92832 14.66133,14.8134 21.25,12.625 3.11986,-1.03625 6.87211,-1.95382 11.65625,-1.9375 4.40778,0.015 9.87124,0.46658 20.15625,1.40625 4.86037,0.44406 4.09714,0.54743 7.0625,-0.4375 3.5747,-1.18732 8.03319,-2.36907 13.09375,-1.40625 5.08654,0.96774 8.84657,3.7351 11.71875,6.21875 0.88605,0.76619 1.28375,1.01931 1.8125,1.40625 0.8297,-0.19236 1.62073,-0.34788 3.125,-0.8125 3.78434,-1.16887 2.80382,-0.54834 4.03125,-2.1875 0.46909,-0.62645 2.40161,-4.52744 4.21875,-11.4375 0.79715,-3.03133 1.26964,-6.84286 1.3125,-9.90625 0.0187,-1.33349 -0.12441,-2.78967 -0.28125,-3.90625 -0.0693,-0.49299 -0.12872,-0.88476 -0.1875,-1.1875 -0.12291,-0.22365 -0.23549,-0.41388 -0.40625,-0.71875 -0.55311,-0.98749 -1.29227,-2.28749 -2.03125,-3.46875 -1.62067,-2.59065 -3.82866,-5.91311 -6.0625,-9.15625 -5.06196,-7.34906 -11.42103,-17.91192 -15.0625,-25.21875 -4.28908,-8.60628 -6.88756,-11.60898 -6.21875,-11.125 0.46982,0.33998 -0.74553,-0.39076 -3.1875,-1.0625 -2.44197,-0.67174 -6.19109,-1.52432 -11.4375,-2.5625 -7.64109,-1.51206 -11.99437,-2.05846 -12.71875,-2.0625 -0.98985,-0.006 -0.54691,-0.0162 -0.40625,-0.0625 z M 379.5,626 c -0.0115,0.25116 -0.0399,0.57307 0.0312,1.0625 0.003,0.0185 0.0273,0.0403 0.0312,0.0625 -0.0768,-0.51149 -0.0745,-0.86746 -0.0625,-1.125 z"
         id="path3154"
         inkscape:connector-curvature="0" />
    </g>
  </g>
</svg>
