<?xml version="1.0" encoding="UTF-8" standalone="no"?>
<!-- Created with Inkscape (http://www.inkscape.org/) -->

<svg
   xmlns:dc="http://purl.org/dc/elements/1.1/"
   xmlns:cc="http://creativecommons.org/ns#"
   xmlns:rdf="http://www.w3.org/1999/02/22-rdf-syntax-ns#"
   xmlns:svg="http://www.w3.org/2000/svg"
   xmlns="http://www.w3.org/2000/svg"
   xmlns:xlink="http://www.w3.org/1999/xlink"
   xmlns:sodipodi="http://sodipodi.sourceforge.net/DTD/sodipodi-0.dtd"
   xmlns:inkscape="http://www.inkscape.org/namespaces/inkscape"
   width="48px"
   height="48px"
   id="svg4351"
   version="1.1"
   inkscape:version="0.48.0 r9654"
   sodipodi:docname="application-vnd.rn-realmedia.svg">
  <defs
     id="defs4353">
    <linearGradient
       id="linearGradient3916">
      <stop
         style="stop-color:#000000;stop-opacity:0.46899223;"
         offset="0"
         id="stop3918" />
      <stop
         style="stop-color:#000000;stop-opacity:0;"
         offset="1"
         id="stop3920" />
    </linearGradient>
    <linearGradient
       id="linearGradient3838">
      <stop
         style="stop-color:#232323;stop-opacity:0.25581396;"
         offset="0"
         id="stop3840" />
      <stop
         id="stop3926"
         offset="0.5"
         style="stop-color:#232323;stop-opacity:0.62745098;" />
      <stop
         style="stop-color:#232323;stop-opacity:0.81176471;"
         offset="0.75"
         id="stop3928" />
      <stop
         style="stop-color:#232323;stop-opacity:0.85271317;"
         offset="1"
         id="stop3842" />
    </linearGradient>
    <linearGradient
       inkscape:collect="always"
       xlink:href="#linearGradient4267"
       id="linearGradient3409"
       gradientUnits="userSpaceOnUse"
       x1="35.516502"
       y1="4.8577352"
       x2="34.102982"
       y2="6.5436172" />
    <linearGradient
       id="linearGradient4267">
      <stop
         id="stop4269"
         style="stop-color:#c4c4c4;stop-opacity:1"
         offset="0" />
      <stop
         id="stop4271"
         style="stop-color:#c4c4c4;stop-opacity:0"
         offset="1" />
    </linearGradient>
    <linearGradient
       inkscape:collect="always"
       xlink:href="#linearGradient8589"
       id="linearGradient3412"
       gradientUnits="userSpaceOnUse"
       gradientTransform="matrix(0.9976985,0,0,1.0406866,0.1638029,-1.1057942)"
       x1="32.892288"
       y1="8.0590115"
       x2="36.358372"
       y2="5.4565363" />
    <linearGradient
       id="linearGradient8589">
      <stop
         id="stop8591"
         style="stop-color:#fefefe;stop-opacity:1"
         offset="0" />
      <stop
         id="stop8593"
         style="stop-color:#cbcbcb;stop-opacity:1"
         offset="1" />
    </linearGradient>
    <filter
       x="-0.14846256"
       y="-0.16434373"
       width="1.2969251"
       height="1.3286875"
       color-interpolation-filters="sRGB"
       id="filter3212">
      <feGaussianBlur
         stdDeviation="0.77391625"
         id="feGaussianBlur3214" />
    </filter>
    <linearGradient
       inkscape:collect="always"
       xlink:href="#linearGradient3211"
       id="linearGradient3416"
       gradientUnits="userSpaceOnUse"
       gradientTransform="matrix(1,0,0,0.9777778,0,-0.96666964)"
       x1="24"
       y1="1.9999999"
       x2="24"
       y2="46.01725" />
    <linearGradient
       id="linearGradient3211">
      <stop
         id="stop3213"
         style="stop-color:white;stop-opacity:1"
         offset="0" />
      <stop
         id="stop3215"
         style="stop-color:white;stop-opacity:0"
         offset="1" />
    </linearGradient>
    <linearGradient
       inkscape:collect="always"
       xlink:href="#linearGradient3932"
       id="linearGradient3438"
       gradientUnits="userSpaceOnUse"
       gradientTransform="matrix(0.8857506,0,0,1.0074102,46.103643,-1.7179793)"
       x1="-22.539846"
       y1="11.109024"
       x2="-22.539846"
       y2="46.263954" />
    <linearGradient
       id="linearGradient3932">
      <stop
         id="stop3934"
         style="stop-color:#828282;stop-opacity:1"
         offset="0" />
      <stop
         id="stop3936"
         style="stop-color:#434343;stop-opacity:1"
         offset="1" />
    </linearGradient>
    <linearGradient
       inkscape:collect="always"
       xlink:href="#linearGradient3582"
       id="linearGradient3440"
       gradientUnits="userSpaceOnUse"
       gradientTransform="matrix(0.9472413,0,0,0.9707629,2.0424825,-0.79434654)"
       x1="16.745687"
       y1="46.132927"
       x2="16.745687"
       y2="1.4097958" />
    <linearGradient
       id="linearGradient3582">
      <stop
         id="stop3584"
         style="stop-color:#333;stop-opacity:1"
         offset="0" />
      <stop
         id="stop3586"
         style="stop-color:#5a5a5a;stop-opacity:1"
         offset="1" />
    </linearGradient>
    <linearGradient
       inkscape:collect="always"
       xlink:href="#linearGradient3932"
       id="linearGradient3443"
       gradientUnits="userSpaceOnUse"
       gradientTransform="matrix(0.8774069,0,0,1.0044796,44.19332,-1.5805961)"
       x1="-22.539846"
       y1="11.109024"
       x2="-22.539846"
       y2="46.263954" />
    <linearGradient
       inkscape:collect="always"
       xlink:href="#linearGradient3582"
       id="linearGradient3445"
       gradientUnits="userSpaceOnUse"
       gradientTransform="matrix(0.9383184,0,0,0.9679388,0.547213,-0.65965024)"
       x1="16.745687"
       y1="46.132927"
       x2="16.745687"
       y2="1.4097958" />
    <radialGradient
       inkscape:collect="always"
       xlink:href="#XMLID_8_"
       id="radialGradient3450"
       gradientUnits="userSpaceOnUse"
       gradientTransform="matrix(0.3617022,0,0,-0.3907784,0.8510637,47.517004)"
       cx="102"
       cy="112.3047"
       r="139.55859" />
    <radialGradient
       cx="102"
       cy="112.3047"
       r="139.55859"
       id="XMLID_8_"
       gradientUnits="userSpaceOnUse">
      <stop
         id="stop41"
         style="stop-color:black;stop-opacity:1"
         offset="0" />
      <stop
         id="stop47"
         style="stop-color:black;stop-opacity:1"
         offset="0.18851049" />
      <stop
         id="stop49"
         style="stop-color:black;stop-opacity:0"
         offset="0.25718147" />
      <stop
         id="stop51"
         style="stop-color:black;stop-opacity:0"
         offset="1" />
    </radialGradient>
    <radialGradient
       inkscape:collect="always"
       xlink:href="#linearGradient7012-661-145-733-759-865-745-661-970-94"
       id="radialGradient3453"
       gradientUnits="userSpaceOnUse"
       gradientTransform="matrix(-2.2703142e-8,2.1357283,-3.5601359,-3.7844828e-8,54.620625,-24.438287)"
       cx="14.76559"
       cy="10.898237"
       fx="14.76559"
       fy="10.898237"
       r="18.000002" />
    <linearGradient
       id="linearGradient7012-661-145-733-759-865-745-661-970-94">
      <stop
         id="stop3618"
         style="stop-color:#f0c178;stop-opacity:1"
         offset="0" />
      <stop
         id="stop3270"
         style="stop-color:#e18941;stop-opacity:1"
         offset="0.5" />
      <stop
         id="stop3620"
         style="stop-color:#ec4f18;stop-opacity:1"
         offset="1" />
    </linearGradient>
    <linearGradient
       inkscape:collect="always"
       xlink:href="#linearGradient3390-178-986-453"
       id="linearGradient3455"
       gradientUnits="userSpaceOnUse"
       gradientTransform="matrix(0.8074968,0,0,0.8948322,59.410232,-2.9805536)"
       x1="-51.786404"
       y1="53.623615"
       x2="-51.786404"
       y2="2.9062471" />
    <linearGradient
       id="linearGradient3390-178-986-453">
      <stop
         id="stop3624"
         style="stop-color:#c92e13;stop-opacity:1;"
         offset="0" />
      <stop
         id="stop3626"
         style="stop-color:#dea176;stop-opacity:1;"
         offset="1" />
    </linearGradient>
    <radialGradient
       inkscape:collect="always"
       xlink:href="#linearGradient5060"
       id="radialGradient3458"
       gradientUnits="userSpaceOnUse"
       gradientTransform="matrix(0.02303995,0,0,0.01470022,26.360882,37.040176)"
       cx="605.71429"
       cy="486.64789"
       fx="605.71429"
       fy="486.64789"
       r="117.14286" />
    <linearGradient
       id="linearGradient5060">
      <stop
         id="stop5062"
         style="stop-color:black;stop-opacity:1"
         offset="0" />
      <stop
         id="stop5064"
         style="stop-color:black;stop-opacity:0"
         offset="1" />
    </linearGradient>
    <radialGradient
       inkscape:collect="always"
       xlink:href="#linearGradient5060"
       id="radialGradient3461"
       gradientUnits="userSpaceOnUse"
       gradientTransform="matrix(-0.02303994,0,0,0.01470022,21.62311,37.040176)"
       cx="605.71429"
       cy="486.64789"
       fx="605.71429"
       fy="486.64789"
       r="117.14286" />
    <linearGradient
       id="linearGradient5048">
      <stop
         id="stop5050"
         style="stop-color:black;stop-opacity:0"
         offset="0" />
      <stop
         id="stop5056"
         style="stop-color:black;stop-opacity:1"
         offset="0.5" />
      <stop
         id="stop5052"
         style="stop-color:black;stop-opacity:0"
         offset="1" />
    </linearGradient>
    <linearGradient
       y2="609.50507"
       x2="302.85715"
       y1="366.64789"
       x1="302.85715"
       gradientTransform="matrix(0.06732488,0,0,0.01470022,-0.3411391,37.040146)"
       gradientUnits="userSpaceOnUse"
       id="linearGradient4349"
       xlink:href="#linearGradient5048"
       inkscape:collect="always" />
    <linearGradient
       inkscape:collect="always"
       xlink:href="#linearGradient3838"
       id="linearGradient3844"
       x1="16.112486"
       y1="25.028603"
       x2="33.880966"
       y2="46.716103"
       gradientUnits="userSpaceOnUse"
       gradientTransform="translate(0,-0.0625)" />
    <linearGradient
       inkscape:collect="always"
       xlink:href="#linearGradient3838-6"
       id="linearGradient3844-5"
       x1="16.112486"
       y1="25.028603"
       x2="33.255966"
       y2="46.966103"
       gradientUnits="userSpaceOnUse" />
    <linearGradient
       id="linearGradient3838-6">
      <stop
         style="stop-color:#232323;stop-opacity:0.25581396;"
         offset="0"
         id="stop3840-6" />
      <stop
         style="stop-color:#232323;stop-opacity:1;"
         offset="1"
         id="stop3842-7" />
    </linearGradient>
    <linearGradient
       inkscape:collect="always"
       xlink:href="#linearGradient3916"
       id="linearGradient3922"
       x1="16.125"
       y1="27.109375"
       x2="24.09375"
       y2="38.921875"
       gradientUnits="userSpaceOnUse" />
    <linearGradient
       inkscape:collect="always"
       xlink:href="#linearGradient3838-7"
       id="linearGradient3844-2"
       x1="16.112486"
       y1="25.028603"
       x2="33.880966"
       y2="46.716103"
       gradientUnits="userSpaceOnUse"
       gradientTransform="translate(0,-0.0625)" />
    <linearGradient
       id="linearGradient3838-7">
      <stop
         style="stop-color:#232323;stop-opacity:0.25581396;"
         offset="0"
         id="stop3840-1" />
      <stop
         id="stop3926-9"
         offset="0.5"
         style="stop-color:#232323;stop-opacity:0.62745098;" />
      <stop
         style="stop-color:#232323;stop-opacity:0.81176471;"
         offset="0.75"
         id="stop3928-7" />
      <stop
         style="stop-color:#232323;stop-opacity:0.85271317;"
         offset="1"
         id="stop3842-0" />
    </linearGradient>
    <linearGradient
       inkscape:collect="always"
       xlink:href="#linearGradient3916-2"
       id="linearGradient3922-6"
       x1="16.125"
       y1="27.109375"
       x2="24.09375"
       y2="38.921875"
       gradientUnits="userSpaceOnUse" />
    <linearGradient
       id="linearGradient3916-2">
      <stop
         style="stop-color:#000000;stop-opacity:0.46899223;"
         offset="0"
         id="stop3918-6" />
      <stop
         style="stop-color:#000000;stop-opacity:0;"
         offset="1"
         id="stop3920-7" />
    </linearGradient>
    <linearGradient
       y2="38.921875"
       x2="24.09375"
       y1="27.109375"
       x1="16.125"
       gradientUnits="userSpaceOnUse"
       id="linearGradient3997"
       xlink:href="#linearGradient3916-2"
       inkscape:collect="always" />
    <linearGradient
       inkscape:collect="always"
       xlink:href="#linearGradient3916-2"
       id="linearGradient4065"
       gradientUnits="userSpaceOnUse"
       x1="16.125"
       y1="27.109375"
       x2="24.09375"
       y2="38.921875" />
  </defs>
  <sodipodi:namedview
     id="base"
     pagecolor="#ffffff"
     bordercolor="#666666"
     borderopacity="1.0"
     inkscape:pageopacity="0.0"
     inkscape:pageshadow="2"
     inkscape:zoom="4"
     inkscape:cx="20.979107"
     inkscape:cy="31.370942"
     inkscape:current-layer="layer1"
     showgrid="true"
     inkscape:grid-bbox="true"
     inkscape:document-units="px"
     inkscape:window-width="1280"
     inkscape:window-height="947"
     inkscape:window-x="0"
     inkscape:window-y="24"
     inkscape:window-maximized="1" />
  <metadata
     id="metadata4356">
    <rdf:RDF>
      <cc:Work
         rdf:about="">
        <dc:format>image/svg+xml</dc:format>
        <dc:type
           rdf:resource="http://purl.org/dc/dcmitype/StillImage" />
        <dc:title></dc:title>
      </cc:Work>
    </rdf:RDF>
  </metadata>
  <g
     id="layer1"
     inkscape:label="Layer 1"
     inkscape:groupmode="layer">
    <rect
       style="opacity:0.3;fill:url(#linearGradient4349);fill-opacity:1;fill-rule:nonzero;stroke:none;stroke-width:1;marker:none;visibility:visible;display:inline;overflow:visible"
       id="rect2879"
       y="42.429947"
       x="7.7378473"
       height="3.5700529"
       width="32.508301" />
    <path
       style="opacity:0.3;fill:url(#radialGradient3461);fill-opacity:1;fill-rule:nonzero;stroke:none;stroke-width:1;marker:none;visibility:visible;display:inline;overflow:visible"
       id="path2881"
       d="m 7.7378475,42.430102 c 0,0 0,3.569856 0,3.569856 -1.1865002,0.0067 -2.8683795,-0.799823 -2.8683795,-1.785158 0,-0.985333 1.3240446,-1.784697 2.8683795,-1.784698 z" />
    <path
       style="opacity:0.3;fill:url(#radialGradient3458);fill-opacity:1;fill-rule:nonzero;stroke:none;stroke-width:1;marker:none;visibility:visible;display:inline;overflow:visible"
       id="path2883"
       d="m 40.246148,42.430102 c 0,0 0,3.569856 0,3.569856 1.1865,0.0067 2.86838,-0.799823 2.86838,-1.785158 0,-0.985333 -1.324045,-1.784697 -2.86838,-1.784698 z" />
    <path
       style="fill:url(#radialGradient3453);fill-opacity:1;stroke:url(#linearGradient3455);stroke-width:0.99992186;stroke-linecap:butt;stroke-linejoin:round;stroke-miterlimit:4;stroke-opacity:1;stroke-dasharray:none;stroke-dashoffset:0;display:inline"
       id="path4160"
       d="m 6.4999609,0.49719839 c 8.0202951,0 16.0405901,0 24.0608861,0 0.525234,1.96019971 6.133094,6.85160281 10.939195,9.62640661 0,11.459733 0,22.919465 0,34.379198 -11.666694,0 -23.333387,0 -35.0000811,0 0,-14.668535 0,-29.33707 0,-44.00560461 z" />
    <path
       style="opacity:0.05;fill:url(#radialGradient3450);fill-opacity:1"
       id="path4191"
       d="m 7.3617017,44 c -0.199297,0 -0.361702,-0.175459 -0.361702,-0.39078 l 0,-42.2040502 c 0,-0.2157088 0.162405,-0.3907775 0.361702,-0.3907775 C 14.844793,1.122407 23.137385,0.85281719 30.611384,1.0412869 L 40.894021,9.907312 41,43.60922 C 41,43.824541 40.837957,44 40.638297,44 L 7.3617017,44 z" />
    <path
       style="fill:none;stroke:#464646;stroke-width:0.96299994;stroke-linecap:square;stroke-linejoin:round;stroke-miterlimit:4;stroke-opacity:1;stroke-dasharray:none"
       id="path3460"
       d="m 13.4815,22.518499 23.036997,-0.03716" />
    <path
       style="opacity:0.3;fill:#ffffff;fill-rule:evenodd;stroke:#ffffff;stroke-width:0.96299994;stroke-linecap:square;stroke-linejoin:round;stroke-miterlimit:4;stroke-opacity:1;stroke-dasharray:none"
       id="path4720"
       d="M 13.481499,23.5185 36.518498,23.48134" />
    <path
       style="fill:url(#linearGradient3443);fill-opacity:1;fill-rule:nonzero;stroke:url(#linearGradient3445);stroke-width:0.97335809;stroke-linecap:butt;stroke-linejoin:round;stroke-miterlimit:4;stroke-opacity:1;stroke-dasharray:none;stroke-dashoffset:0;marker:none;visibility:visible;display:block;overflow:visible"
       id="path3489"
       d="m 12.434759,0.48667869 c 0,2.61054031 0.07856,41.91719431 0.07856,44.02664331 -1.925744,0 -3.851491,0 -5.777236,0 -0.468075,-0.5213 -0.112145,-1.556287 -0.223359,-2.294284 0,-13.826463 0,-27.652923 0,-41.47938121 L 6.578,0.56061129 l 0.158083,-0.073933 0,0 c 2.004309,0 3.694366,0 5.698674,0 z" />
    <path
       style="fill:url(#linearGradient3438);fill-opacity:1;fill-rule:nonzero;stroke:url(#linearGradient3440);stroke-width:0.97795641;stroke-linecap:butt;stroke-linejoin:round;stroke-miterlimit:4;stroke-opacity:1;stroke-dasharray:none;stroke-dashoffset:0;marker:none;visibility:visible;display:block;overflow:visible"
       id="path4696"
       d="m 35.537771,44.481459 c 0,-2.316433 -0.04879,-36.5754645 -0.04879,-38.992481 1.647431,2.3486662 5.071652,3.0723168 6.022041,4.876848 1e-6,11.28736 3e-6,22.574718 3e-6,33.86208 -0.464677,0.531343 -1.387235,0.127303 -2.045077,0.253553 -1.309391,0 -2.618784,0 -3.928174,0 z" />
    <rect
       style="fill:#ffffff;fill-opacity:1;stroke:none"
       id="rect3464"
       y="4.0000033"
       x="8.000001"
       height="2"
       width="3" />
    <rect
       style="fill:#ffffff;fill-opacity:1;stroke:none"
       id="rect3466"
       y="8.0000038"
       x="8.000001"
       height="2"
       width="3" />
    <rect
       style="fill:#ffffff;fill-opacity:1;stroke:none"
       id="rect3468"
       y="12.000004"
       x="8.000001"
       height="2"
       width="3" />
    <rect
       style="fill:#ffffff;fill-opacity:1;stroke:none"
       id="rect3470"
       y="16.000004"
       x="8.000001"
       height="2"
       width="3" />
    <rect
       style="fill:#ffffff;fill-opacity:1;stroke:none"
       id="rect3472"
       y="20.000004"
       x="8.000001"
       height="2"
       width="3" />
    <rect
       style="fill:#ffffff;fill-opacity:1;stroke:none"
       id="rect3474"
       y="24.000004"
       x="8.000001"
       height="2"
       width="3" />
    <rect
       style="fill:#ffffff;fill-opacity:1;stroke:none"
       id="rect3476"
       y="28.000004"
       x="8.000001"
       height="2"
       width="3" />
    <rect
       style="fill:#ffffff;fill-opacity:1;stroke:none"
       id="rect3478"
       y="32.000004"
       x="8.000001"
       height="2"
       width="3" />
    <rect
       style="fill:#ffffff;fill-opacity:1;stroke:none"
       id="rect3480"
       y="36.000004"
       x="8.000001"
       height="2"
       width="3" />
    <rect
       style="fill:#ffffff;fill-opacity:1;stroke:none"
       id="rect3482"
       y="40"
       x="8.000001"
       height="2"
       width="3" />
    <g
       style="stroke-width:0.91853887;stroke-miterlimit:4;stroke-dasharray:none"
       id="g4684"
       transform="matrix(1.2089381,0,0,0.951907,-8.514515,-0.32750754)">
      <rect
         style="fill:#ffffff;fill-opacity:1;stroke:none"
         id="rect2565"
         y="11.899804"
         x="37.648342"
         height="1.9643654"
         width="2.4815166" />
      <rect
         style="fill:#ffffff;fill-opacity:1;stroke:none"
         id="rect2567"
         y="16.271496"
         x="37.648342"
         height="1.9643654"
         width="2.4815166" />
      <rect
         style="fill:#ffffff;fill-opacity:1;stroke:none"
         id="rect2569"
         y="20.643188"
         x="37.648342"
         height="1.9643654"
         width="2.4815166" />
      <rect
         style="fill:#ffffff;fill-opacity:1;stroke:none"
         id="rect2571"
         y="25.014879"
         x="37.648342"
         height="1.9643654"
         width="2.4815166" />
      <rect
         style="fill:#ffffff;fill-opacity:1;stroke:none"
         id="rect2573"
         y="29.38657"
         x="37.648342"
         height="1.9643654"
         width="2.4815166" />
      <rect
         style="fill:#ffffff;fill-opacity:1;stroke:none"
         id="rect2575"
         y="33.758263"
         x="37.648342"
         height="1.9643654"
         width="2.4815166" />
      <rect
         style="fill:#ffffff;fill-opacity:1;stroke:none"
         id="rect2577"
         y="38.129951"
         x="37.648342"
         height="1.9643654"
         width="2.4815166" />
      <rect
         style="fill:#ffffff;fill-opacity:1;stroke:none"
         id="rect2579"
         y="42.501644"
         x="37.648342"
         height="1.9643654"
         width="2.4815166" />
    </g>
    <path
       style="opacity:0.4;fill:none;stroke:url(#linearGradient3416);stroke-width:0.9999218;stroke-linecap:butt;stroke-linejoin:round;stroke-miterlimit:4;stroke-opacity:1;stroke-dasharray:none;stroke-dashoffset:0;display:inline"
       id="path2435"
       d="m 40.500039,10.258811 c 0,10.949037 0,22.31441 0,33.263447 -11.000026,0 -22.000052,0 -33.0000781,0 0,-14.014841 0,-28.029681 0,-42.0445216 7.5619931,0 15.3043341,0 22.8663281,0" />
    <path
       style="opacity:0.4;fill:#000000;fill-opacity:1;fill-rule:evenodd;stroke:none;display:inline;filter:url(#filter3212)"
       id="path12038"
       d="m 28.617256,0.92125799 c 4.282522,0 2.15325,8.48317101 2.15325,8.48317101 0,0 10.357642,-1.8023464 10.357642,2.818745 0,-2.609724 -11.302304,-10.7285959 -12.510892,-11.30191601 z" />
    <path
       style="fill:url(#linearGradient3412);fill-opacity:1;fill-rule:evenodd;stroke:none;display:inline"
       id="path4474"
       d="m 28.617256,0.92125799 c 3.186493,0 2.33576,7.66187851 2.33576,7.66187851 0,0 10.175132,-0.9810539 10.175132,3.6400375 0,-1.125939 0.08591,-1.932245 -0.133777,-2.283593 C 39.416058,7.4154022 32.881194,1.7511808 30.41941,1.0087927 30.235188,0.95323799 29.544367,0.92125799 28.617256,0.92125799 z" />
    <path
       style="fill:none;stroke:url(#linearGradient3409);stroke-width:0.99992186;stroke-linecap:butt;stroke-linejoin:round;stroke-miterlimit:4;stroke-opacity:1;stroke-dasharray:none;stroke-dashoffset:0;display:inline"
       id="path4238"
       d="m 30.560847,0.49999969 c 1.406933,0.4746531 8.965454,5.87940341 10.939195,9.62360531 0,11.459733 0,0.825538 0,12.285271 C 1.0542159,38.137806 6.2643971,0.49999969 30.560847,0.49999969 z" />
    <path
       inkscape:connector-curvature="0"
       d="m 14.624587,44.905757 c 0,0 -0.371991,-0.390083 0.545355,-1.68566 0.240646,-0.339875 1.250791,-1.32639 1.947136,-1.901593 0.349713,-0.288878 0.359652,-0.203114 0.774907,-0.239656 0.312867,-0.02754 0.556024,-0.09354 0.885371,-0.240344 0.249726,-0.11131 0.510816,-0.219306 0.580201,-0.239985 0.113224,-0.03374 0.122616,-0.06344 0.09161,-0.289668 -0.02337,-0.170593 -0.01373,-0.252067 0.02993,-0.252067 0.03544,0 0.06539,0.01915 0.06652,0.04256 9.17e-4,0.02341 0.06564,0.119183 0.143345,0.21283 l 0.141302,0.170266 -0.08659,-0.211008 c -0.09875,-0.240638 -0.10362,-0.271415 -0.04296,-0.271415 0.02396,0 0.08144,0.06236 0.127702,0.138567 0.08045,0.132568 0.08441,0.12336 0.09151,-0.212834 0.0047,-0.223329 0.05919,-0.485852 0.149432,-0.720311 0.0781,-0.202901 0.159621,-0.475147 0.181149,-0.604987 0.0347,-0.209306 0.02534,-0.240464 -0.08266,-0.274742 -0.067,-0.02125 -0.349291,-0.208741 -0.627328,-0.41661 -0.662839,-0.495577 -1.293186,-0.900073 -1.5328,-0.9836 -0.105867,-0.03691 -0.256942,-0.100745 -0.335721,-0.141853 -0.07878,-0.04112 -0.187925,-0.07492 -0.242552,-0.07511 -0.124847,-4.54e-4 -0.124182,-0.0129 0.01533,-0.286391 0.120711,-0.236613 0.09333,-0.279819 -0.08963,-0.141432 -0.146205,0.110586 -0.227946,0.109525 -0.135589,-0.0019 0.0647,-0.07795 0.05428,-0.08385 -0.08602,-0.04863 -0.158823,0.03985 -0.159438,0.03892 -0.120638,-0.180887 0.07174,-0.406452 0.208319,-0.749274 0.358237,-0.899193 0.117649,-0.11765 0.125889,-0.140521 0.03962,-0.109878 -0.05995,0.0213 -0.191997,0.100073 -0.293448,0.175087 -0.214528,0.158616 -0.238916,0.102276 -0.05683,-0.131328 l 0.127619,-0.163735 -0.170183,0.103576 c -0.140261,0.08535 -0.128156,0.06289 0.06883,-0.127701 0.131457,-0.127197 0.233615,-0.230939 0.227024,-0.230535 -0.0066,3.94e-4 -0.173894,0.05148 -0.371773,0.113509 -0.533691,0.167296 -0.542637,0.13869 -0.0375,-0.119916 0.576576,-0.295187 1.023153,-0.629151 1.137819,-0.850895 0.08778,-0.169753 0.08557,-0.177868 -0.114198,-0.421677 -0.215409,-0.262877 -0.442217,-0.445559 -0.662947,-0.533964 l -0.133651,-0.05353 0.14189,-0.008 c 0.07803,-0.0046 0.109966,-0.02097 0.07095,-0.03672 -0.109734,-0.0443 -0.08377,-0.133233 0.02837,-0.09724 0.08399,0.02695 0.08176,0.01574 -0.01446,-0.07273 -0.237622,-0.218485 -0.401283,-0.436461 -0.300604,-0.400366 0.07189,0.0258 0.08749,0.01129 0.0613,-0.05698 -0.02341,-0.06097 -0.01295,-0.07785 0.03126,-0.05051 0.09291,0.05743 0.08285,-0.02369 -0.01657,-0.133536 -0.04563,-0.05042 -0.124929,-0.192905 -0.176204,-0.316626 l -0.09324,-0.224955 0.156014,0.14189 0.156014,0.141885 -0.09614,-0.15041 c -0.05287,-0.08272 -0.07572,-0.159346 -0.05075,-0.170266 l -0.103014,-0.442713 -0.03617,0.118155 -0.02703,-0.154798 -0.01528,-0.0875 c -0.02129,-0.113565 -0.02373,-0.381739 -0.0053,-0.595936 0.01836,-0.214203 0.05257,-1.079039 0.07607,-1.921859 0.04095,-1.468372 0.04824,-1.541295 0.175035,-1.745235 0.230102,-0.370088 0.405552,-0.294929 0.93386,0.400039 0.154701,0.203503 0.358747,0.376795 0.631184,0.536062 0.221423,0.129437 0.504745,0.31055 0.629609,0.402467 0.284818,0.209678 0.831382,0.793169 1.004174,1.07202 0.08935,0.144194 0.172781,0.211793 0.262692,0.212835 0.134602,0.0013 0.293911,-0.115914 0.293911,-0.216727 0,-0.03085 0.09889,-0.0019 0.219766,0.06428 l 0.219766,0.120381 0.573789,-0.187929 c 0.446408,-0.146205 0.6745,-0.188769 1.027459,-0.191739 0.450832,-0.0036 0.453453,-0.0046 0.419201,-0.141141 -0.03424,-0.136451 -0.03337,-0.136754 0.139843,-0.04718 0.09588,0.04957 0.211738,0.143565 0.257474,0.208868 0.06921,0.09879 0.103135,0.108049 0.202089,0.05508 0.0654,-0.03502 0.118931,-0.0853 0.118931,-0.111783 0,-0.02648 0.05108,-0.06149 0.113509,-0.07782 0.09517,-0.02487 0.113513,-0.0019 0.113513,0.143203 0,0.149455 0.121218,0.319492 0.232033,0.325482 0.03148,0.0019 0.695876,-0.829946 0.817946,-1.023888 0.248051,-0.394095 0.327015,-0.512543 0.50804,-0.762107 0.113211,-0.156078 0.300616,-0.441974 0.416459,-0.635324 0.253984,-0.423935 0.580443,-0.698787 0.828545,-0.697567 0.09715,4.55e-4 0.205472,0.01964 0.240696,0.04255 0.03525,0.02295 0.118567,0.241147 0.185207,0.484919 0.13013,0.476056 0.306763,0.858538 0.540841,1.171148 0.12655,0.137365 0.15656,0.312753 0.229539,0.477011 0.433577,0.932383 0.611634,1.759111 0.621158,2.88411 0.0028,0.332917 0.01478,0.595683 0.02657,0.583923 0.0118,-0.01175 0.06861,-0.15645 0.126225,-0.321528 l 0.104744,-0.300145 -0.0151,0.454047 c -0.0083,0.249721 -0.0353,0.505125 -0.06003,0.567556 -0.04021,0.101549 -0.033,0.10005 0.06825,-0.01418 0.06224,-0.07024 0.138021,-0.127702 0.168398,-0.127702 0.03038,0 0.06859,-0.05108 0.08492,-0.113514 0.03498,-0.133733 0.153824,-0.153154 0.153824,-0.02515 0,0.193666 -0.139594,0.632648 -0.264818,0.832772 -0.172572,0.275784 -0.167081,0.303092 0.03237,0.161073 0.209256,-0.149005 0.280351,-0.150873 0.147316,-0.0036 -0.05649,0.06243 -0.07635,0.113509 -0.04411,0.113509 0.03222,0 0.09092,-0.03892 0.130397,-0.08651 0.152304,-0.183513 0.112031,-0.02557 -0.05079,0.199221 -0.163271,0.225384 -0.237961,0.403743 -0.315245,0.752809 -0.02896,0.130771 -0.0157,0.156077 0.08186,0.156077 0.06403,0 0.211371,-0.03961 0.327428,-0.08805 l 0.211008,-0.08805 -0.221331,0.226857 c -0.195466,0.200336 -0.205417,0.222869 -0.08513,0.19278 l 0.136203,-0.03406 -0.14189,0.125296 -0.14189,0.125301 0.14189,-0.03438 0.14189,-0.03438 -0.133985,0.116511 c -0.07369,0.06408 -0.175858,0.117347 -0.227024,0.118366 -0.05117,9.18e-4 0.03521,0.04619 0.191928,0.100381 0.332091,0.114832 0.62546,0.3106 0.714352,0.476704 0.05952,0.111222 0.05181,0.115084 -0.156193,0.07815 -0.120344,-0.02135 -0.26989,-0.05118 -0.332321,-0.06626 -0.07337,-0.01771 -0.05772,0.0046 0.04425,0.06247 0.08678,0.04944 0.142729,0.11423 0.12435,0.14396 -0.01836,0.02975 0.0064,0.05406 0.05507,0.05406 0.136597,0 0.105582,0.07953 -0.08638,0.221446 -0.09617,0.0711 -0.310801,0.337691 -0.476941,0.592415 -0.569561,0.873225 -1.183417,1.435682 -1.924672,1.763499 l -0.318064,0.140665 0.0013,0.272712 c 0.0019,0.353775 0.136373,0.637042 0.530229,1.114553 0.175921,0.213289 0.322819,0.443148 0.32644,0.510803 0.0055,0.102078 0.04661,0.221955 0.06882,0.136065 0.103488,-0.10492 0.06384,-0.38793 0.06384,-0.38793 0,0 0.256868,0.221473 0.249051,0.433197 -0.01638,0.205964 -0.01653,0.115906 0.01799,0.240863 0.01648,0.05954 0.1304,-0.401948 0.1304,-0.401948 0,0 0.132209,0.401305 0.201585,0.45115 0.08639,0.06207 0.466682,0.303003 1.239926,0.558305 0.328745,0.108545 0.567615,0.232665 0.778825,0.404698 0.167553,0.136474 0.784223,0.489844 1.370378,0.78527 0.586154,0.295425 1.184757,0.621338 1.330228,0.724258 1.029689,0.728489 1.138071,1.046635 1.335143,1.348469 0.171158,0.262144 0.269588,0.695308 0.269588,0.695308 z"
       id="path2844"
       style="fill:url(#linearGradient3844);fill-opacity:1"
       sodipodi:nodetypes="csscsccsccccsccscccscccscccsccsccccssscsccccccccccccccccccccscsccccsccscccccscscsscccccccccccccscscscscccscccccccccccssccccscssccscccccccssssscc" />
    <path
       sodipodi:type="inkscape:offset"
       inkscape:radius="-0.46608526"
       inkscape:original="M 27.0625 26.03125 C 26.814398 26.03003 26.472734 26.326065 26.21875 26.75 C 26.102907 26.94335 25.925711 27.218922 25.8125 27.375 C 25.631475 27.624564 25.560551 27.730905 25.3125 28.125 C 25.19043 28.318942 24.53148 29.15815 24.5 29.15625 C 24.389185 29.15026 24.25 28.993205 24.25 28.84375 C 24.25 28.698647 24.25142 28.66263 24.15625 28.6875 C 24.093821 28.70383 24.03125 28.75477 24.03125 28.78125 C 24.03125 28.807733 23.97165 28.83998 23.90625 28.875 C 23.807296 28.927969 23.78796 28.94254 23.71875 28.84375 C 23.673014 28.778447 23.53338 28.67457 23.4375 28.625 C 23.264287 28.535426 23.27826 28.519799 23.3125 28.65625 C 23.346752 28.792791 23.325832 28.8089 22.875 28.8125 C 22.522041 28.81547 22.321408 28.853795 21.875 29 L 21.28125 29.1875 L 21.0625 29.0625 C 20.941624 28.99632 20.84375 28.96915 20.84375 29 C 20.84375 29.100813 20.697102 29.22005 20.5625 29.21875 C 20.472589 29.217708 20.3706 29.144194 20.28125 29 C 20.108458 28.721149 19.566068 28.147178 19.28125 27.9375 C 19.156386 27.845583 18.877673 27.660687 18.65625 27.53125 C 18.383813 27.371983 18.185951 27.203503 18.03125 27 C 17.502942 26.305032 17.323852 26.223662 17.09375 26.59375 C 16.966955 26.79769 16.9472 26.875378 16.90625 28.34375 C 16.88275 29.18657 16.86211 30.035797 16.84375 30.25 C 16.82532 30.464197 16.82246 30.761435 16.84375 30.875 L 16.875 30.9375 L 16.875 31.09375 L 16.9375 30.96875 L 17.03125 31.4375 C 17.00628 31.44842 17.04088 31.51103 17.09375 31.59375 L 17.1875 31.75 L 17.03125 31.59375 L 16.875 31.46875 L 16.96875 31.6875 C 17.020025 31.811221 17.07937 31.94958 17.125 32 C 17.22442 32.109846 17.24916 32.18243 17.15625 32.125 C 17.11204 32.09766 17.10159 32.12653 17.125 32.1875 C 17.15119 32.25577 17.13439 32.2758 17.0625 32.25 C 16.961821 32.213905 17.106128 32.437765 17.34375 32.65625 C 17.43997 32.74472 17.45899 32.7457 17.375 32.71875 C 17.26286 32.682757 17.234016 32.7682 17.34375 32.8125 C 17.382766 32.82825 17.35928 32.83915 17.28125 32.84375 L 17.125 32.875 L 17.25 32.90625 C 17.47073 32.994655 17.722091 33.174623 17.9375 33.4375 C 18.137268 33.681309 18.11903 33.705247 18.03125 33.875 C 17.916584 34.096744 17.482826 34.423563 16.90625 34.71875 C 16.401113 34.977356 16.403809 35.011046 16.9375 34.84375 C 17.135379 34.781721 17.3059 34.719144 17.3125 34.71875 C 17.319091 34.718346 17.225207 34.841553 17.09375 34.96875 C 16.896764 35.159341 16.890989 35.1791 17.03125 35.09375 L 17.1875 34.96875 L 17.0625 35.15625 C 16.880414 35.389854 16.910472 35.439866 17.125 35.28125 C 17.226451 35.206236 17.3463 35.11505 17.40625 35.09375 C 17.492519 35.063107 17.492649 35.1011 17.375 35.21875 C 17.225082 35.368669 17.07174 35.718548 17 36.125 C 16.9612 36.344807 16.966177 36.3211 17.125 36.28125 C 17.2653 36.24603 17.28345 36.2658 17.21875 36.34375 C 17.126393 36.455175 17.197545 36.454336 17.34375 36.34375 C 17.52671 36.205363 17.558211 36.263387 17.4375 36.5 C 17.297988 36.773491 17.312653 36.780796 17.4375 36.78125 C 17.492127 36.78144 17.60872 36.80263 17.6875 36.84375 C 17.766279 36.884858 17.894133 36.96309 18 37 C 18.239614 37.083527 18.868411 37.473173 19.53125 37.96875 C 19.809287 38.176619 20.08925 38.35375 20.15625 38.375 C 20.26425 38.409278 20.2847 38.446944 20.25 38.65625 C 20.228472 38.78609 20.1406 39.078349 20.0625 39.28125 C 19.972258 39.515709 19.91095 39.776671 19.90625 40 C 19.89915 40.336194 19.9242 40.320068 19.84375 40.1875 C 19.797488 40.111293 19.71146 40.0625 19.6875 40.0625 C 19.62684 40.0625 19.65125 40.103112 19.75 40.34375 L 19.84375 40.53125 L 19.6875 40.375 C 19.609795 40.281353 19.532167 40.17966 19.53125 40.15625 C 19.53012 40.13284 19.50419 40.125 19.46875 40.125 C 19.42509 40.125 19.41413 40.204407 19.4375 40.375 C 19.468506 40.601228 19.456974 40.62251 19.34375 40.65625 C 19.274365 40.676929 19.030976 40.79494 18.78125 40.90625 C 18.451903 41.053054 18.219117 41.12871 17.90625 41.15625 C 17.490995 41.192792 17.474713 41.086122 17.125 41.375 C 16.428655 41.950203 15.396896 42.941375 15.15625 43.28125 C 14.238904 44.576827 14.625 44.96875 14.625 44.96875 L 35 45 C 35 45 34.921158 44.574644 34.75 44.3125 C 34.552928 44.010666 34.435939 43.697239 33.40625 42.96875 C 33.260779 42.86583 32.648654 42.545425 32.0625 42.25 C 31.476345 41.954574 30.855053 41.605224 30.6875 41.46875 C 30.47629 41.296717 30.234995 41.171045 29.90625 41.0625 C 29.133006 40.807198 28.77389 40.56207 28.6875 40.5 C 28.618124 40.450155 28.46875 40.03125 28.46875 40.03125 C 28.46875 40.03125 28.36023 40.49704 28.34375 40.4375 C 28.30923 40.312543 28.32737 40.424714 28.34375 40.21875 C 28.351567 40.007026 28.09375 39.78125 28.09375 39.78125 C 28.09375 39.78125 28.134738 40.05133 28.03125 40.15625 C 28.00904 40.24214 27.943 40.133328 27.9375 40.03125 C 27.933879 39.963595 27.800921 39.713289 27.625 39.5 C 27.231144 39.022489 27.09565 38.760025 27.09375 38.40625 L 27.09375 38.125 L 27.40625 38 C 28.147505 37.672183 28.774189 37.091975 29.34375 36.21875 C 29.50989 35.964026 29.71633 35.6961 29.8125 35.625 C 30.004462 35.483084 30.042847 35.40625 29.90625 35.40625 C 29.85758 35.40625 29.82539 35.3735 29.84375 35.34375 C 29.862129 35.31402 29.80553 35.26819 29.71875 35.21875 C 29.61678 35.16088 29.61413 35.13854 29.6875 35.15625 C 29.749931 35.17133 29.879656 35.1974 30 35.21875 C 30.208003 35.255684 30.21577 35.236222 30.15625 35.125 C 30.067358 34.958896 29.769591 34.771082 29.4375 34.65625 C 29.280782 34.602059 29.19883 34.563418 29.25 34.5625 C 29.301166 34.561481 29.39506 34.50158 29.46875 34.4375 L 29.625 34.3125 L 29.46875 34.34375 L 29.34375 34.40625 L 29.46875 34.28125 L 29.625 34.15625 L 29.46875 34.1875 C 29.348463 34.217589 29.367034 34.169086 29.5625 33.96875 L 29.78125 33.75 L 29.5625 33.84375 C 29.446443 33.89219 29.31403 33.9375 29.25 33.9375 C 29.15244 33.9375 29.12729 33.912021 29.15625 33.78125 C 29.233534 33.432184 29.305479 33.256634 29.46875 33.03125 C 29.631571 32.806459 29.683554 32.628987 29.53125 32.8125 C 29.491773 32.86009 29.43847 32.90625 29.40625 32.90625 C 29.37401 32.90625 29.38101 32.87493 29.4375 32.8125 C 29.570535 32.665227 29.521756 32.663495 29.3125 32.8125 C 29.113049 32.954519 29.108678 32.900784 29.28125 32.625 C 29.406474 32.424876 29.53125 32.006166 29.53125 31.8125 C 29.53125 31.684496 29.40998 31.710017 29.375 31.84375 C 29.35867 31.906184 29.31163 31.9375 29.28125 31.9375 C 29.250873 31.9375 29.18724 31.99226 29.125 32.0625 C 29.02375 32.17673 29.02229 32.195299 29.0625 32.09375 C 29.08723 32.031319 29.1167 31.780971 29.125 31.53125 L 29.125 31.0625 L 29.03125 31.375 C 28.973635 31.540078 28.91805 31.67575 28.90625 31.6875 C 28.89446 31.69926 28.8778 31.426667 28.875 31.09375 C 28.865476 29.968751 28.683577 29.151133 28.25 28.21875 C 28.177021 28.054492 28.1578 27.887365 28.03125 27.75 C 27.797172 27.43739 27.59888 27.038556 27.46875 26.5625 C 27.40211 26.318728 27.34775 26.1167 27.3125 26.09375 C 27.277276 26.07084 27.15965 26.031705 27.0625 26.03125 z "
       style="opacity:1;fill:none;stroke:url(#linearGradient3922);stroke-opacity:1"
       id="path3914"
       d="m 27,26.5625 c -0.02511,0.01228 -0.01854,-0.0064 -0.0625,0.03125 -0.0999,0.08552 -0.20828,0.232293 -0.3125,0.40625 -0.123192,0.205615 -0.30691,0.476213 -0.4375,0.65625 -0.178049,0.245462 -0.2219,0.326562 -0.46875,0.71875 -0.100994,0.160457 -0.280791,0.386073 -0.46875,0.625 -0.09398,0.119463 -0.208072,0.225002 -0.28125,0.3125 -0.03659,0.04375 -0.06322,0.09178 -0.09375,0.125 -0.01526,0.01661 -0.0075,0.04054 -0.03125,0.0625 -0.01187,0.01098 -0.03174,0.0095 -0.0625,0.03125 -0.01538,0.01088 -0.09296,0.03088 -0.09375,0.03125 -3.97e-4,1.88e-4 -0.06218,0.03116 -0.0625,0.03125 -3.22e-4,8.7e-5 -0.156004,0.03127 -0.15625,0.03125 -0.264134,-0.01428 -0.393847,-0.153176 -0.5,-0.28125 -0.0058,-0.007 0.0057,-0.02404 0,-0.03125 -0.05232,0.02891 -0.06863,0.0746 -0.21875,0.0625 -0.1276,-0.01029 -0.250834,-0.06989 -0.3125,-0.125 -0.0099,-0.0088 0.0083,-0.02309 0,-0.03125 -0.0062,-0.0061 -0.02582,0.0058 -0.03125,0 -0.206568,0.07077 -0.313013,0.06076 -0.53125,0.0625 -0.32071,0.0027 -0.413702,0.0154 -0.84375,0.15625 A 0.46613186,0.46613186 0 0 1 22,29.4375 L 21.40625,29.625 A 0.46613186,0.46613186 0 0 1 21.0625,29.59375 l -0.125,-0.0625 c -0.110589,0.0706 -0.208816,0.157855 -0.375,0.15625 -0.339833,-0.0039 -0.551865,-0.218611 -0.6875,-0.4375 -0.0936,-0.151057 -0.689704,-0.801089 -0.875,-0.9375 -0.09851,-0.07252 -0.392164,-0.257159 -0.59375,-0.375 -0.31119,-0.181922 -0.554432,-0.398988 -0.75,-0.65625 -0.126406,-0.166282 -0.1439,-0.142788 -0.21875,-0.21875 -0.02157,0.19023 -0.04208,0.548923 -0.0625,1.28125 -0.02347,0.841701 -0.03773,1.648474 -0.0625,1.9375 -0.0127,0.147557 2.21e-4,0.333606 0,0.40625 a 0.46613186,0.46613186 0 0 1 0,0.03125 0.46613186,0.46613186 0 0 1 0.09375,0.15625 L 17.5,31.34375 17.59375,31.5 a 0.46613186,0.46613186 0 0 1 0.03125,0.40625 c 0.0045,0.0096 -0.0045,0.01998 0,0.03125 0.01182,0.0293 0.01892,0.01897 0.03125,0.0625 0.0081,0.02846 0.02891,0.0751 0.03125,0.125 0.0012,0.02495 0.0045,0.02912 0,0.0625 -0.0045,0.03338 -0.03092,0.124155 -0.03125,0.125 0.01874,0.01723 0.04864,0.01926 0.0625,0.03125 0.01386,0.01199 -0.02357,-0.01494 0.0625,0.09375 0.01076,0.01359 0.06228,0.06211 0.0625,0.0625 2.16e-4,3.85e-4 0.03121,0.155972 0.03125,0.15625 1.6e-5,1.16e-4 0.0018,0.117366 0,0.15625 0.147179,0.111644 0.306513,0.183898 0.4375,0.34375 0.109031,0.133067 0.21139,0.20156 0.25,0.4375 0.0193,0.11797 -0.0033,0.267153 -0.03125,0.34375 -0.02798,0.0766 -0.07278,0.115691 -0.09375,0.15625 -0.124561,0.240879 -0.308537,0.395251 -0.53125,0.5625 -0.03799,0.02853 -0.08419,0.0653 -0.125,0.09375 0.02596,0.02586 0.06214,0.06203 0.0625,0.0625 5.38e-4,6.99e-4 0.04705,0.0561 0.0625,0.09375 0.01545,0.03765 0.02602,0.09092 0.03125,0.125 0.01047,0.06816 0.0081,0.114046 0,0.15625 -0.03223,0.168817 -0.09074,0.205709 -0.125,0.25 -0.03426,0.04429 -0.05544,0.08669 -0.09375,0.125 -0.0026,0.0026 -0.08044,0.184721 -0.125,0.28125 0.114566,0.03213 0.249369,0.0795 0.3125,0.1875 0.130456,0.223179 0.06255,0.327801 0.03125,0.40625 0.09969,0.05242 0.19832,0.117877 0.21875,0.125 0.21286,0.0742 0.404763,0.197194 0.6875,0.375 0.282737,0.177806 0.62764,0.401216 0.96875,0.65625 0.129781,0.09703 0.27219,0.183724 0.375,0.25 0.0514,0.03314 0.0957,0.07702 0.125,0.09375 0.04642,0.01473 0.105851,0.03646 0.1875,0.09375 0.08165,0.05729 0.150467,0.14658 0.1875,0.25 0.07407,0.20684 0.05175,0.313822 0.03125,0.4375 -0.03654,0.220403 -0.128852,0.485199 -0.21875,0.71875 -0.07402,0.192301 -0.121933,0.416778 -0.125,0.5625 -0.0017,0.07834 -9.5e-5,0.143078 0,0.1875 9.5e-5,0.04442 0.0036,0.0282 -0.03125,0.1875 -0.0044,0.01991 0.01546,0.02523 0,0.0625 -0.0031,0.0075 -0.02518,0.0195 -0.03125,0.03125 a 0.46613186,0.46613186 0 0 1 0,0.03125 c -0.0035,0.0065 6.1e-5,0.03115 0,0.03125 a 0.46613186,0.46613186 0 0 1 -0.59375,0.4375 c -0.0048,0.0044 -0.02642,-0.0041 -0.03125,0 -0.01724,0.0147 -0.01479,0.05226 -0.03125,0.0625 -0.08558,0.05323 -0.148417,0.05085 -0.1875,0.0625 0.05493,-0.01637 -0.05792,0.0176 -0.15625,0.0625 -0.09833,0.0449 -0.214371,0.129832 -0.34375,0.1875 -0.349553,0.15581 -0.664226,0.248943 -1.03125,0.28125 -0.247607,0.02179 -0.374263,-1.04e-4 -0.375,0 -7.37e-4,1.04e-4 -0.0058,-0.03049 -0.15625,0.09375 -0.33397,0.275869 -0.757828,0.676693 -1.125,1.03125 -0.367172,0.354557 -0.687732,0.724557 -0.75,0.8125 -0.368955,0.521078 -0.437647,0.767684 -0.46875,0.9375 l 19.28125,0.03125 c -0.207807,-0.328497 -0.264194,-0.512166 -1.21875,-1.1875 -0.0073,-0.0051 -0.19757,-0.122526 -0.4375,-0.25 -0.23993,-0.127474 -0.552917,-0.290919 -0.84375,-0.4375 C 31.543837,42.505092 31.257548,42.364612 31,42.21875 30.742452,42.072888 30.557752,41.96715 30.40625,41.84375 30.243635,41.711298 30.041516,41.596253 29.75,41.5 c -0.801173,-0.264523 -1.191914,-0.539296 -1.3125,-0.625 -0.0023,-0.0017 -0.02912,0.0015 -0.03125,0 -0.01213,0.0037 -0.03117,0.03124 -0.03125,0.03125 -4.25e-4,3.5e-5 -0.249615,-0.06231 -0.25,-0.0625 -3.85e-4,-1.95e-4 -0.155906,-0.124568 -0.15625,-0.125 -3.44e-4,-4.32e-4 -0.05019,-0.06611 -0.0625,-0.09375 -0.0062,-0.01382 0.0039,-0.02008 0,-0.03125 -0.13647,-0.04913 -0.278867,-0.107037 -0.3125,-0.15625 -0.08005,-0.117128 -0.114293,-0.202822 -0.125,-0.3125 -0.0063,-0.01464 -0.01004,-0.02529 -0.03125,-0.0625 -0.04241,-0.07442 -0.119812,-0.199184 -0.1875,-0.28125 -0.413813,-0.501706 -0.622468,-0.903463 -0.625,-1.375 l 0,-0.28125 a 0.46613186,0.46613186 0 0 1 0.28125,-0.4375 l 0.3125,-0.125 c 0.644078,-0.284841 1.214294,-0.77243 1.75,-1.59375 0.09048,-0.138719 0.186666,-0.285542 0.28125,-0.40625 0.01986,-0.02534 0.0447,-0.0396 0.0625,-0.0625 -0.03373,-0.01774 -0.03486,-0.0089 -0.09375,-0.15625 -0.0109,-0.02727 -0.03116,-0.124411 -0.03125,-0.125 -9.4e-5,-5.89e-4 -7.5e-5,-0.124485 0,-0.125 1.4e-5,-9.9e-5 -0.0032,-0.02172 0,-0.03125 -0.04306,-0.01609 -0.08137,-0.04106 -0.125,-0.0625 -0.01861,-0.0091 -0.03333,-0.01244 -0.0625,-0.03125 -0.01459,-0.0094 -0.03905,-0.01137 -0.0625,-0.03125 -0.01172,-0.0099 -0.01553,-0.04572 -0.03125,-0.0625 -0.01572,-0.01678 -0.06213,-0.06193 -0.0625,-0.0625 -3.67e-4,-5.75e-4 -0.06237,-0.124489 -0.0625,-0.125 -1.34e-4,-5.11e-4 -1.03e-4,-0.218304 0,-0.21875 1.03e-4,-4.46e-4 0.09341,-0.21837 0.09375,-0.21875 -0.03859,-0.03124 -0.06534,-0.05033 -0.09375,-0.09375 -0.153884,-0.235199 -0.11577,-0.369317 -0.09375,-0.46875 0.03883,-0.175381 0.130478,-0.295582 0.1875,-0.4375 -0.02101,-0.01554 -0.04421,-0.01178 -0.0625,-0.03125 -0.08065,-0.08584 -0.11446,-0.209873 -0.125,-0.28125 -0.04216,-0.285509 0.06066,-0.277375 0.09375,-0.34375 0.0097,-0.01946 0.02064,-0.04322 0.03125,-0.0625 -0.03722,-0.01712 -0.09372,-0.03122 -0.09375,-0.03125 -8.3e-5,-7.1e-5 -0.124949,-0.156125 -0.125,-0.15625 -5.1e-5,-1.25e-4 -0.03123,-0.124821 -0.03125,-0.125 -1.9e-5,-1.79e-4 -1.2e-5,-0.09352 0,-0.09375 2.5e-5,-4.66e-4 0.02775,-0.04618 0.03125,-0.0625 0.0035,-0.01632 -0.0026,-0.0224 0,-0.03125 -0.0049,-0.0038 0.0034,-0.0286 0,-0.03125 -0.0057,-0.0044 -0.03122,3.3e-5 -0.03125,0 -1.91e-4,-2.25e-4 -0.06231,-0.09339 -0.0625,-0.09375 -3.85e-4,-7.16e-4 -0.02545,-0.07545 -0.03125,-0.09375 -0.0058,-0.0183 -0.0288,-0.0205 -0.03125,-0.03125 -0.0098,-0.043 0.0026,-0.07088 0,-0.09375 -0.0051,-0.04575 0.0033,-0.0971 0,-0.15625 -0.0065,-0.118308 -0.02979,-0.264337 -0.03125,-0.4375 -0.0091,-1.076676 -0.183085,-1.804388 -0.59375,-2.6875 -0.10828,-0.243711 -0.11016,-0.327642 -0.125,-0.34375 a 0.46613186,0.46613186 0 0 1 -0.03125,-0.03125 c -0.272384,-0.363768 -0.480574,-0.815396 -0.625,-1.34375 -0.0132,-0.04828 -0.01944,-0.08245 -0.03125,-0.125 z m 2.4375,8.59375 c -0.02869,0.07851 -0.0399,0.145532 -0.03125,0.21875 0.01972,-0.02098 0.03856,-0.04125 0.0625,-0.0625 0.0012,-0.05864 -0.05142,-0.104646 -0.03125,-0.15625 z" />
    <g
       id="g3970"
       transform="translate(0,-22.804194)">
      <path
         sodipodi:nodetypes="csscsccsccccsccscccscccscccsccsccccssscsccccccccccccccccccccscsccccsccscccccscscsscccccccccccccscscscscccscccccccccccssccccscssccscccccccssssscc"
         style="fill:url(#linearGradient3844-2);fill-opacity:1"
         id="path2844-6"
         d="m 14.624587,44.905757 c 0,0 -0.371991,-0.390083 0.545355,-1.68566 0.240646,-0.339875 1.250791,-1.32639 1.947136,-1.901593 0.349713,-0.288878 0.359652,-0.203114 0.774907,-0.239656 0.312867,-0.02754 0.556024,-0.09354 0.885371,-0.240344 0.249726,-0.11131 0.510816,-0.219306 0.580201,-0.239985 0.113224,-0.03374 0.122616,-0.06344 0.09161,-0.289668 -0.02337,-0.170593 -0.01373,-0.252067 0.02993,-0.252067 0.03544,0 0.06539,0.01915 0.06652,0.04256 9.17e-4,0.02341 0.06564,0.119183 0.143345,0.21283 l 0.141302,0.170266 -0.08659,-0.211008 c -0.09875,-0.240638 -0.10362,-0.271415 -0.04296,-0.271415 0.02396,0 0.08144,0.06236 0.127702,0.138567 0.08045,0.132568 0.08441,0.12336 0.09151,-0.212834 0.0047,-0.223329 0.05919,-0.485852 0.149432,-0.720311 0.0781,-0.202901 0.159621,-0.475147 0.181149,-0.604987 0.0347,-0.209306 0.02534,-0.240464 -0.08266,-0.274742 -0.067,-0.02125 -0.349291,-0.208741 -0.627328,-0.41661 -0.662839,-0.495577 -1.293186,-0.900073 -1.5328,-0.9836 -0.105867,-0.03691 -0.256942,-0.100745 -0.335721,-0.141853 -0.07878,-0.04112 -0.187925,-0.07492 -0.242552,-0.07511 -0.124847,-4.54e-4 -0.124182,-0.0129 0.01533,-0.286391 0.120711,-0.236613 0.09333,-0.279819 -0.08963,-0.141432 -0.146205,0.110586 -0.227946,0.109525 -0.135589,-0.0019 0.0647,-0.07795 0.05428,-0.08385 -0.08602,-0.04863 -0.158823,0.03985 -0.159438,0.03892 -0.120638,-0.180887 0.07174,-0.406452 0.208319,-0.749274 0.358237,-0.899193 0.117649,-0.11765 0.125889,-0.140521 0.03962,-0.109878 -0.05995,0.0213 -0.191997,0.100073 -0.293448,0.175087 -0.214528,0.158616 -0.238916,0.102276 -0.05683,-0.131328 l 0.127619,-0.163735 -0.170183,0.103576 c -0.140261,0.08535 -0.128156,0.06289 0.06883,-0.127701 0.131457,-0.127197 0.233615,-0.230939 0.227024,-0.230535 -0.0066,3.94e-4 -0.173894,0.05148 -0.371773,0.113509 -0.533691,0.167296 -0.542637,0.13869 -0.0375,-0.119916 0.576576,-0.295187 1.023153,-0.629151 1.137819,-0.850895 0.08778,-0.169753 0.08557,-0.177868 -0.114198,-0.421677 -0.215409,-0.262877 -0.442217,-0.445559 -0.662947,-0.533964 l -0.133651,-0.05353 0.14189,-0.008 c 0.07803,-0.0046 0.109966,-0.02097 0.07095,-0.03672 -0.109734,-0.0443 -0.08377,-0.133233 0.02837,-0.09724 0.08399,0.02695 0.08176,0.01574 -0.01446,-0.07273 -0.237622,-0.218485 -0.401283,-0.436461 -0.300604,-0.400366 0.07189,0.0258 0.08749,0.01129 0.0613,-0.05698 -0.02341,-0.06097 -0.01295,-0.07785 0.03126,-0.05051 0.09291,0.05743 0.08285,-0.02369 -0.01657,-0.133536 -0.04563,-0.05042 -0.124929,-0.192905 -0.176204,-0.316626 l -0.09324,-0.224955 0.156014,0.14189 0.156014,0.141885 -0.09614,-0.15041 c -0.05287,-0.08272 -0.07572,-0.159346 -0.05075,-0.170266 l -0.103014,-0.442713 -0.03617,0.118155 -0.02703,-0.154798 -0.01528,-0.0875 c -0.02129,-0.113565 -0.02373,-0.381739 -0.0053,-0.595936 0.01836,-0.214203 0.05257,-1.079039 0.07607,-1.921859 0.04095,-1.468372 0.04824,-1.541295 0.175035,-1.745235 0.230102,-0.370088 0.405552,-0.294929 0.93386,0.400039 0.154701,0.203503 0.358747,0.376795 0.631184,0.536062 0.221423,0.129437 0.504745,0.31055 0.629609,0.402467 0.284818,0.209678 0.831382,0.793169 1.004174,1.07202 0.08935,0.144194 0.172781,0.211793 0.262692,0.212835 0.134602,0.0013 0.293911,-0.115914 0.293911,-0.216727 0,-0.03085 0.09889,-0.0019 0.219766,0.06428 l 0.219766,0.120381 0.573789,-0.187929 c 0.446408,-0.146205 0.6745,-0.188769 1.027459,-0.191739 0.450832,-0.0036 0.453453,-0.0046 0.419201,-0.141141 -0.03424,-0.136451 -0.03337,-0.136754 0.139843,-0.04718 0.09588,0.04957 0.211738,0.143565 0.257474,0.208868 0.06921,0.09879 0.103135,0.108049 0.202089,0.05508 0.0654,-0.03502 0.118931,-0.0853 0.118931,-0.111783 0,-0.02648 0.05108,-0.06149 0.113509,-0.07782 0.09517,-0.02487 0.113513,-0.0019 0.113513,0.143203 0,0.149455 0.121218,0.319492 0.232033,0.325482 0.03148,0.0019 0.695876,-0.829946 0.817946,-1.023888 0.248051,-0.394095 0.327015,-0.512543 0.50804,-0.762107 0.113211,-0.156078 0.300616,-0.441974 0.416459,-0.635324 0.253984,-0.423935 0.580443,-0.698787 0.828545,-0.697567 0.09715,4.55e-4 0.205472,0.01964 0.240696,0.04255 0.03525,0.02295 0.118567,0.241147 0.185207,0.484919 0.13013,0.476056 0.306763,0.858538 0.540841,1.171148 0.12655,0.137365 0.15656,0.312753 0.229539,0.477011 0.433577,0.932383 0.611634,1.759111 0.621158,2.88411 0.0028,0.332917 0.01478,0.595683 0.02657,0.583923 0.0118,-0.01175 0.06861,-0.15645 0.126225,-0.321528 l 0.104744,-0.300145 -0.0151,0.454047 c -0.0083,0.249721 -0.0353,0.505125 -0.06003,0.567556 -0.04021,0.101549 -0.033,0.10005 0.06825,-0.01418 0.06224,-0.07024 0.138021,-0.127702 0.168398,-0.127702 0.03038,0 0.06859,-0.05108 0.08492,-0.113514 0.03498,-0.133733 0.153824,-0.153154 0.153824,-0.02515 0,0.193666 -0.139594,0.632648 -0.264818,0.832772 -0.172572,0.275784 -0.167081,0.303092 0.03237,0.161073 0.209256,-0.149005 0.280351,-0.150873 0.147316,-0.0036 -0.05649,0.06243 -0.07635,0.113509 -0.04411,0.113509 0.03222,0 0.09092,-0.03892 0.130397,-0.08651 0.152304,-0.183513 0.112031,-0.02557 -0.05079,0.199221 -0.163271,0.225384 -0.237961,0.403743 -0.315245,0.752809 -0.02896,0.130771 -0.0157,0.156077 0.08186,0.156077 0.06403,0 0.211371,-0.03961 0.327428,-0.08805 l 0.211008,-0.08805 -0.221331,0.226857 c -0.195466,0.200336 -0.205417,0.222869 -0.08513,0.19278 l 0.136203,-0.03406 -0.14189,0.125296 -0.14189,0.125301 0.14189,-0.03438 0.14189,-0.03438 -0.133985,0.116511 c -0.07369,0.06408 -0.175858,0.117347 -0.227024,0.118366 -0.05117,9.18e-4 0.03521,0.04619 0.191928,0.100381 0.332091,0.114832 0.62546,0.3106 0.714352,0.476704 0.05952,0.111222 0.05181,0.115084 -0.156193,0.07815 -0.120344,-0.02135 -0.26989,-0.05118 -0.332321,-0.06626 -0.07337,-0.01771 -0.05772,0.0046 0.04425,0.06247 0.08678,0.04944 0.142729,0.11423 0.12435,0.14396 -0.01836,0.02975 0.0064,0.05406 0.05507,0.05406 0.136597,0 0.105582,0.07953 -0.08638,0.221446 -0.09617,0.0711 -0.310801,0.337691 -0.476941,0.592415 -0.569561,0.873225 -1.183417,1.435682 -1.924672,1.763499 l -0.318064,0.140665 0.0013,0.272712 c 0.0019,0.353775 0.136373,0.637042 0.530229,1.114553 0.175921,0.213289 0.322819,0.443148 0.32644,0.510803 0.0055,0.102078 0.04661,0.221955 0.06882,0.136065 0.103488,-0.10492 0.06384,-0.38793 0.06384,-0.38793 0,0 0.256868,0.221473 0.249051,0.433197 -0.01638,0.205964 -0.01653,0.115906 0.01799,0.240863 0.01648,0.05954 0.1304,-0.401948 0.1304,-0.401948 0,0 0.132209,0.401305 0.201585,0.45115 0.08639,0.06207 0.466682,0.303003 1.239926,0.558305 0.328745,0.108545 0.567615,0.232665 0.778825,0.404698 0.167553,0.136474 0.784223,0.489844 1.370378,0.78527 0.586154,0.295425 1.184757,0.621338 1.330228,0.724258 1.029689,0.728489 1.138071,1.046635 1.335143,1.348469 0.171158,0.262144 0.269588,0.695308 0.269588,0.695308 z"
         inkscape:connector-curvature="0" />
      <path
         d="m 27,26.5625 c -0.02511,0.01228 -0.01854,-0.0064 -0.0625,0.03125 -0.0999,0.08552 -0.20828,0.232293 -0.3125,0.40625 -0.123192,0.205615 -0.30691,0.476213 -0.4375,0.65625 -0.178049,0.245462 -0.2219,0.326562 -0.46875,0.71875 -0.100994,0.160457 -0.280791,0.386073 -0.46875,0.625 -0.09398,0.119463 -0.208072,0.225002 -0.28125,0.3125 -0.03659,0.04375 -0.06322,0.09178 -0.09375,0.125 -0.01526,0.01661 -0.0075,0.04054 -0.03125,0.0625 -0.01187,0.01098 -0.03174,0.0095 -0.0625,0.03125 -0.01538,0.01088 -0.09296,0.03088 -0.09375,0.03125 -3.97e-4,1.88e-4 -0.06218,0.03116 -0.0625,0.03125 -3.22e-4,8.7e-5 -0.156004,0.03127 -0.15625,0.03125 -0.264134,-0.01428 -0.393847,-0.153176 -0.5,-0.28125 -0.0058,-0.007 0.0057,-0.02404 0,-0.03125 -0.05232,0.02891 -0.06863,0.0746 -0.21875,0.0625 -0.1276,-0.01029 -0.250834,-0.06989 -0.3125,-0.125 -0.0099,-0.0088 0.0083,-0.02309 0,-0.03125 -0.0062,-0.0061 -0.02582,0.0058 -0.03125,0 -0.206568,0.07077 -0.313013,0.06076 -0.53125,0.0625 -0.32071,0.0027 -0.413702,0.0154 -0.84375,0.15625 A 0.46613186,0.46613186 0 0 1 22,29.4375 L 21.40625,29.625 A 0.46613186,0.46613186 0 0 1 21.0625,29.59375 l -0.125,-0.0625 c -0.110589,0.0706 -0.208816,0.157855 -0.375,0.15625 -0.339833,-0.0039 -0.551865,-0.218611 -0.6875,-0.4375 -0.0936,-0.151057 -0.689704,-0.801089 -0.875,-0.9375 -0.09851,-0.07252 -0.392164,-0.257159 -0.59375,-0.375 -0.31119,-0.181922 -0.554432,-0.398988 -0.75,-0.65625 -0.126406,-0.166282 -0.1439,-0.142788 -0.21875,-0.21875 -0.02157,0.19023 -0.04208,0.548923 -0.0625,1.28125 -0.02347,0.841701 -0.03773,1.648474 -0.0625,1.9375 -0.0127,0.147557 2.21e-4,0.333606 0,0.40625 a 0.46613186,0.46613186 0 0 1 0,0.03125 0.46613186,0.46613186 0 0 1 0.09375,0.15625 L 17.5,31.34375 17.59375,31.5 a 0.46613186,0.46613186 0 0 1 0.03125,0.40625 c 0.0045,0.0096 -0.0045,0.01998 0,0.03125 0.01182,0.0293 0.01892,0.01897 0.03125,0.0625 0.0081,0.02846 0.02891,0.0751 0.03125,0.125 0.0012,0.02495 0.0045,0.02912 0,0.0625 -0.0045,0.03338 -0.03092,0.124155 -0.03125,0.125 0.01874,0.01723 0.04864,0.01926 0.0625,0.03125 0.01386,0.01199 -0.02357,-0.01494 0.0625,0.09375 0.01076,0.01359 0.06228,0.06211 0.0625,0.0625 2.16e-4,3.85e-4 0.03121,0.155972 0.03125,0.15625 1.6e-5,1.16e-4 0.0018,0.117366 0,0.15625 0.147179,0.111644 0.306513,0.183898 0.4375,0.34375 0.109031,0.133067 0.21139,0.20156 0.25,0.4375 0.0193,0.11797 -0.0033,0.267153 -0.03125,0.34375 -0.02798,0.0766 -0.07278,0.115691 -0.09375,0.15625 -0.124561,0.240879 -0.308537,0.395251 -0.53125,0.5625 -0.03799,0.02853 -0.08419,0.0653 -0.125,0.09375 0.02596,0.02586 0.06214,0.06203 0.0625,0.0625 5.38e-4,6.99e-4 0.04705,0.0561 0.0625,0.09375 0.01545,0.03765 0.02602,0.09092 0.03125,0.125 0.01047,0.06816 0.0081,0.114046 0,0.15625 -0.03223,0.168817 -0.09074,0.205709 -0.125,0.25 -0.03426,0.04429 -0.05544,0.08669 -0.09375,0.125 -0.0026,0.0026 -0.08044,0.184721 -0.125,0.28125 0.114566,0.03213 0.249369,0.0795 0.3125,0.1875 0.130456,0.223179 0.06255,0.327801 0.03125,0.40625 0.09969,0.05242 0.19832,0.117877 0.21875,0.125 0.21286,0.0742 0.404763,0.197194 0.6875,0.375 0.282737,0.177806 0.62764,0.401216 0.96875,0.65625 0.129781,0.09703 0.27219,0.183724 0.375,0.25 0.0514,0.03314 0.0957,0.07702 0.125,0.09375 0.04642,0.01473 0.105851,0.03646 0.1875,0.09375 0.08165,0.05729 0.150467,0.14658 0.1875,0.25 0.07407,0.20684 0.05175,0.313822 0.03125,0.4375 -0.03654,0.220403 -0.128852,0.485199 -0.21875,0.71875 -0.07402,0.192301 -0.121933,0.416778 -0.125,0.5625 -0.0017,0.07834 -9.5e-5,0.143078 0,0.1875 9.5e-5,0.04442 0.0036,0.0282 -0.03125,0.1875 -0.0044,0.01991 0.01546,0.02523 0,0.0625 -0.0031,0.0075 -0.02518,0.0195 -0.03125,0.03125 a 0.46613186,0.46613186 0 0 1 0,0.03125 c -0.0035,0.0065 6.1e-5,0.03115 0,0.03125 a 0.46613186,0.46613186 0 0 1 -0.59375,0.4375 c -0.0048,0.0044 -0.02642,-0.0041 -0.03125,0 -0.01724,0.0147 -0.01479,0.05226 -0.03125,0.0625 -0.08558,0.05323 -0.148417,0.05085 -0.1875,0.0625 0.05493,-0.01637 -0.05792,0.0176 -0.15625,0.0625 -0.09833,0.0449 -0.214371,0.129832 -0.34375,0.1875 -0.349553,0.15581 -0.664226,0.248943 -1.03125,0.28125 -0.247607,0.02179 -0.374263,-1.04e-4 -0.375,0 -7.37e-4,1.04e-4 -0.0058,-0.03049 -0.15625,0.09375 -0.33397,0.275869 -0.757828,0.676693 -1.125,1.03125 -0.367172,0.354557 -0.687732,0.724557 -0.75,0.8125 -0.368955,0.521078 -0.437647,0.767684 -0.46875,0.9375 l 19.28125,0.03125 c -0.207807,-0.328497 -0.264194,-0.512166 -1.21875,-1.1875 -0.0073,-0.0051 -0.19757,-0.122526 -0.4375,-0.25 -0.23993,-0.127474 -0.552917,-0.290919 -0.84375,-0.4375 C 31.543837,42.505092 31.257548,42.364612 31,42.21875 30.742452,42.072888 30.557752,41.96715 30.40625,41.84375 30.243635,41.711298 30.041516,41.596253 29.75,41.5 c -0.801173,-0.264523 -1.191914,-0.539296 -1.3125,-0.625 -0.0023,-0.0017 -0.02912,0.0015 -0.03125,0 -0.01213,0.0037 -0.03117,0.03124 -0.03125,0.03125 -4.25e-4,3.5e-5 -0.249615,-0.06231 -0.25,-0.0625 -3.85e-4,-1.95e-4 -0.155906,-0.124568 -0.15625,-0.125 -3.44e-4,-4.32e-4 -0.05019,-0.06611 -0.0625,-0.09375 -0.0062,-0.01382 0.0039,-0.02008 0,-0.03125 -0.13647,-0.04913 -0.278867,-0.107037 -0.3125,-0.15625 -0.08005,-0.117128 -0.114293,-0.202822 -0.125,-0.3125 -0.0063,-0.01464 -0.01004,-0.02529 -0.03125,-0.0625 -0.04241,-0.07442 -0.119812,-0.199184 -0.1875,-0.28125 -0.413813,-0.501706 -0.622468,-0.903463 -0.625,-1.375 l 0,-0.28125 a 0.46613186,0.46613186 0 0 1 0.28125,-0.4375 l 0.3125,-0.125 c 0.644078,-0.284841 1.214294,-0.77243 1.75,-1.59375 0.09048,-0.138719 0.186666,-0.285542 0.28125,-0.40625 0.01986,-0.02534 0.0447,-0.0396 0.0625,-0.0625 -0.03373,-0.01774 -0.03486,-0.0089 -0.09375,-0.15625 -0.0109,-0.02727 -0.03116,-0.124411 -0.03125,-0.125 -9.4e-5,-5.89e-4 -7.5e-5,-0.124485 0,-0.125 1.4e-5,-9.9e-5 -0.0032,-0.02172 0,-0.03125 -0.04306,-0.01609 -0.08137,-0.04106 -0.125,-0.0625 -0.01861,-0.0091 -0.03333,-0.01244 -0.0625,-0.03125 -0.01459,-0.0094 -0.03905,-0.01137 -0.0625,-0.03125 -0.01172,-0.0099 -0.01553,-0.04572 -0.03125,-0.0625 -0.01572,-0.01678 -0.06213,-0.06193 -0.0625,-0.0625 -3.67e-4,-5.75e-4 -0.06237,-0.124489 -0.0625,-0.125 -1.34e-4,-5.11e-4 -1.03e-4,-0.218304 0,-0.21875 1.03e-4,-4.46e-4 0.09341,-0.21837 0.09375,-0.21875 -0.03859,-0.03124 -0.06534,-0.05033 -0.09375,-0.09375 -0.153884,-0.235199 -0.11577,-0.369317 -0.09375,-0.46875 0.03883,-0.175381 0.130478,-0.295582 0.1875,-0.4375 -0.02101,-0.01554 -0.04421,-0.01178 -0.0625,-0.03125 -0.08065,-0.08584 -0.11446,-0.209873 -0.125,-0.28125 -0.04216,-0.285509 0.06066,-0.277375 0.09375,-0.34375 0.0097,-0.01946 0.02064,-0.04322 0.03125,-0.0625 -0.03722,-0.01712 -0.09372,-0.03122 -0.09375,-0.03125 -8.3e-5,-7.1e-5 -0.124949,-0.156125 -0.125,-0.15625 -5.1e-5,-1.25e-4 -0.03123,-0.124821 -0.03125,-0.125 -1.9e-5,-1.79e-4 -1.2e-5,-0.09352 0,-0.09375 2.5e-5,-4.66e-4 0.02775,-0.04618 0.03125,-0.0625 0.0035,-0.01632 -0.0026,-0.0224 0,-0.03125 -0.0049,-0.0038 0.0034,-0.0286 0,-0.03125 -0.0057,-0.0044 -0.03122,3.3e-5 -0.03125,0 -1.91e-4,-2.25e-4 -0.06231,-0.09339 -0.0625,-0.09375 -3.85e-4,-7.16e-4 -0.02545,-0.07545 -0.03125,-0.09375 -0.0058,-0.0183 -0.0288,-0.0205 -0.03125,-0.03125 -0.0098,-0.043 0.0026,-0.07088 0,-0.09375 -0.0051,-0.04575 0.0033,-0.0971 0,-0.15625 -0.0065,-0.118308 -0.02979,-0.264337 -0.03125,-0.4375 -0.0091,-1.076676 -0.183085,-1.804388 -0.59375,-2.6875 -0.10828,-0.243711 -0.11016,-0.327642 -0.125,-0.34375 a 0.46613186,0.46613186 0 0 1 -0.03125,-0.03125 c -0.272384,-0.363768 -0.480574,-0.815396 -0.625,-1.34375 -0.0132,-0.04828 -0.01944,-0.08245 -0.03125,-0.125 z m 2.4375,8.59375 c -0.02869,0.07851 -0.0399,0.145532 -0.03125,0.21875 0.01972,-0.02098 0.03856,-0.04125 0.0625,-0.0625 0.0012,-0.05864 -0.05142,-0.104646 -0.03125,-0.15625 z"
         id="path3914-7"
         style="fill:none;stroke:url(#linearGradient4065);stroke-opacity:1"
         inkscape:original="M 27.0625 26.03125 C 26.814398 26.03003 26.472734 26.326065 26.21875 26.75 C 26.102907 26.94335 25.925711 27.218922 25.8125 27.375 C 25.631475 27.624564 25.560551 27.730905 25.3125 28.125 C 25.19043 28.318942 24.53148 29.15815 24.5 29.15625 C 24.389185 29.15026 24.25 28.993205 24.25 28.84375 C 24.25 28.698647 24.25142 28.66263 24.15625 28.6875 C 24.093821 28.70383 24.03125 28.75477 24.03125 28.78125 C 24.03125 28.807733 23.97165 28.83998 23.90625 28.875 C 23.807296 28.927969 23.78796 28.94254 23.71875 28.84375 C 23.673014 28.778447 23.53338 28.67457 23.4375 28.625 C 23.264287 28.535426 23.27826 28.519799 23.3125 28.65625 C 23.346752 28.792791 23.325832 28.8089 22.875 28.8125 C 22.522041 28.81547 22.321408 28.853795 21.875 29 L 21.28125 29.1875 L 21.0625 29.0625 C 20.941624 28.99632 20.84375 28.96915 20.84375 29 C 20.84375 29.100813 20.697102 29.22005 20.5625 29.21875 C 20.472589 29.217708 20.3706 29.144194 20.28125 29 C 20.108458 28.721149 19.566068 28.147178 19.28125 27.9375 C 19.156386 27.845583 18.877673 27.660687 18.65625 27.53125 C 18.383813 27.371983 18.185951 27.203503 18.03125 27 C 17.502942 26.305032 17.323852 26.223662 17.09375 26.59375 C 16.966955 26.79769 16.9472 26.875378 16.90625 28.34375 C 16.88275 29.18657 16.86211 30.035797 16.84375 30.25 C 16.82532 30.464197 16.82246 30.761435 16.84375 30.875 L 16.875 30.9375 L 16.875 31.09375 L 16.9375 30.96875 L 17.03125 31.4375 C 17.00628 31.44842 17.04088 31.51103 17.09375 31.59375 L 17.1875 31.75 L 17.03125 31.59375 L 16.875 31.46875 L 16.96875 31.6875 C 17.020025 31.811221 17.07937 31.94958 17.125 32 C 17.22442 32.109846 17.24916 32.18243 17.15625 32.125 C 17.11204 32.09766 17.10159 32.12653 17.125 32.1875 C 17.15119 32.25577 17.13439 32.2758 17.0625 32.25 C 16.961821 32.213905 17.106128 32.437765 17.34375 32.65625 C 17.43997 32.74472 17.45899 32.7457 17.375 32.71875 C 17.26286 32.682757 17.234016 32.7682 17.34375 32.8125 C 17.382766 32.82825 17.35928 32.83915 17.28125 32.84375 L 17.125 32.875 L 17.25 32.90625 C 17.47073 32.994655 17.722091 33.174623 17.9375 33.4375 C 18.137268 33.681309 18.11903 33.705247 18.03125 33.875 C 17.916584 34.096744 17.482826 34.423563 16.90625 34.71875 C 16.401113 34.977356 16.403809 35.011046 16.9375 34.84375 C 17.135379 34.781721 17.3059 34.719144 17.3125 34.71875 C 17.319091 34.718346 17.225207 34.841553 17.09375 34.96875 C 16.896764 35.159341 16.890989 35.1791 17.03125 35.09375 L 17.1875 34.96875 L 17.0625 35.15625 C 16.880414 35.389854 16.910472 35.439866 17.125 35.28125 C 17.226451 35.206236 17.3463 35.11505 17.40625 35.09375 C 17.492519 35.063107 17.492649 35.1011 17.375 35.21875 C 17.225082 35.368669 17.07174 35.718548 17 36.125 C 16.9612 36.344807 16.966177 36.3211 17.125 36.28125 C 17.2653 36.24603 17.28345 36.2658 17.21875 36.34375 C 17.126393 36.455175 17.197545 36.454336 17.34375 36.34375 C 17.52671 36.205363 17.558211 36.263387 17.4375 36.5 C 17.297988 36.773491 17.312653 36.780796 17.4375 36.78125 C 17.492127 36.78144 17.60872 36.80263 17.6875 36.84375 C 17.766279 36.884858 17.894133 36.96309 18 37 C 18.239614 37.083527 18.868411 37.473173 19.53125 37.96875 C 19.809287 38.176619 20.08925 38.35375 20.15625 38.375 C 20.26425 38.409278 20.2847 38.446944 20.25 38.65625 C 20.228472 38.78609 20.1406 39.078349 20.0625 39.28125 C 19.972258 39.515709 19.91095 39.776671 19.90625 40 C 19.89915 40.336194 19.9242 40.320068 19.84375 40.1875 C 19.797488 40.111293 19.71146 40.0625 19.6875 40.0625 C 19.62684 40.0625 19.65125 40.103112 19.75 40.34375 L 19.84375 40.53125 L 19.6875 40.375 C 19.609795 40.281353 19.532167 40.17966 19.53125 40.15625 C 19.53012 40.13284 19.50419 40.125 19.46875 40.125 C 19.42509 40.125 19.41413 40.204407 19.4375 40.375 C 19.468506 40.601228 19.456974 40.62251 19.34375 40.65625 C 19.274365 40.676929 19.030976 40.79494 18.78125 40.90625 C 18.451903 41.053054 18.219117 41.12871 17.90625 41.15625 C 17.490995 41.192792 17.474713 41.086122 17.125 41.375 C 16.428655 41.950203 15.396896 42.941375 15.15625 43.28125 C 14.238904 44.576827 14.625 44.96875 14.625 44.96875 L 35 45 C 35 45 34.921158 44.574644 34.75 44.3125 C 34.552928 44.010666 34.435939 43.697239 33.40625 42.96875 C 33.260779 42.86583 32.648654 42.545425 32.0625 42.25 C 31.476345 41.954574 30.855053 41.605224 30.6875 41.46875 C 30.47629 41.296717 30.234995 41.171045 29.90625 41.0625 C 29.133006 40.807198 28.77389 40.56207 28.6875 40.5 C 28.618124 40.450155 28.46875 40.03125 28.46875 40.03125 C 28.46875 40.03125 28.36023 40.49704 28.34375 40.4375 C 28.30923 40.312543 28.32737 40.424714 28.34375 40.21875 C 28.351567 40.007026 28.09375 39.78125 28.09375 39.78125 C 28.09375 39.78125 28.134738 40.05133 28.03125 40.15625 C 28.00904 40.24214 27.943 40.133328 27.9375 40.03125 C 27.933879 39.963595 27.800921 39.713289 27.625 39.5 C 27.231144 39.022489 27.09565 38.760025 27.09375 38.40625 L 27.09375 38.125 L 27.40625 38 C 28.147505 37.672183 28.774189 37.091975 29.34375 36.21875 C 29.50989 35.964026 29.71633 35.6961 29.8125 35.625 C 30.004462 35.483084 30.042847 35.40625 29.90625 35.40625 C 29.85758 35.40625 29.82539 35.3735 29.84375 35.34375 C 29.862129 35.31402 29.80553 35.26819 29.71875 35.21875 C 29.61678 35.16088 29.61413 35.13854 29.6875 35.15625 C 29.749931 35.17133 29.879656 35.1974 30 35.21875 C 30.208003 35.255684 30.21577 35.236222 30.15625 35.125 C 30.067358 34.958896 29.769591 34.771082 29.4375 34.65625 C 29.280782 34.602059 29.19883 34.563418 29.25 34.5625 C 29.301166 34.561481 29.39506 34.50158 29.46875 34.4375 L 29.625 34.3125 L 29.46875 34.34375 L 29.34375 34.40625 L 29.46875 34.28125 L 29.625 34.15625 L 29.46875 34.1875 C 29.348463 34.217589 29.367034 34.169086 29.5625 33.96875 L 29.78125 33.75 L 29.5625 33.84375 C 29.446443 33.89219 29.31403 33.9375 29.25 33.9375 C 29.15244 33.9375 29.12729 33.912021 29.15625 33.78125 C 29.233534 33.432184 29.305479 33.256634 29.46875 33.03125 C 29.631571 32.806459 29.683554 32.628987 29.53125 32.8125 C 29.491773 32.86009 29.43847 32.90625 29.40625 32.90625 C 29.37401 32.90625 29.38101 32.87493 29.4375 32.8125 C 29.570535 32.665227 29.521756 32.663495 29.3125 32.8125 C 29.113049 32.954519 29.108678 32.900784 29.28125 32.625 C 29.406474 32.424876 29.53125 32.006166 29.53125 31.8125 C 29.53125 31.684496 29.40998 31.710017 29.375 31.84375 C 29.35867 31.906184 29.31163 31.9375 29.28125 31.9375 C 29.250873 31.9375 29.18724 31.99226 29.125 32.0625 C 29.02375 32.17673 29.02229 32.195299 29.0625 32.09375 C 29.08723 32.031319 29.1167 31.780971 29.125 31.53125 L 29.125 31.0625 L 29.03125 31.375 C 28.973635 31.540078 28.91805 31.67575 28.90625 31.6875 C 28.89446 31.69926 28.8778 31.426667 28.875 31.09375 C 28.865476 29.968751 28.683577 29.151133 28.25 28.21875 C 28.177021 28.054492 28.1578 27.887365 28.03125 27.75 C 27.797172 27.43739 27.59888 27.038556 27.46875 26.5625 C 27.40211 26.318728 27.34775 26.1167 27.3125 26.09375 C 27.277276 26.07084 27.15965 26.031705 27.0625 26.03125 z "
         inkscape:radius="-0.46608526"
         sodipodi:type="inkscape:offset" />
    </g>
  </g>
</svg>
