<?xml version="1.0" encoding="UTF-8" standalone="no"?>
<!-- Created with Inkscape (http://www.inkscape.org/) -->
<svg
   xmlns:svg="http://www.w3.org/2000/svg"
   xmlns="http://www.w3.org/2000/svg"
   xmlns:xlink="http://www.w3.org/1999/xlink"
   version="1.0"
   width="48"
   height="48"
   id="svg4297">
  <defs
     id="defs4299">
    <radialGradient
       cx="5"
       cy="41.5"
       r="5"
       fx="5"
       fy="41.5"
       id="radialGradient3314"
       xlink:href="#linearGradient3681"
       gradientUnits="userSpaceOnUse"
       gradientTransform="matrix(0.5938225,0,0,1.5366531,41.140892,-103.93618)" />
    <linearGradient
       id="linearGradient3703">
      <stop
         id="stop3705"
         style="stop-color:#000000;stop-opacity:0"
         offset="0" />
      <stop
         id="stop3711"
         style="stop-color:#000000;stop-opacity:1"
         offset="0.5" />
      <stop
         id="stop3707"
         style="stop-color:#000000;stop-opacity:0"
         offset="1" />
    </linearGradient>
    <linearGradient
       x1="17.554192"
       y1="46.000275"
       x2="17.554192"
       y2="34.999718"
       id="linearGradient3312"
       xlink:href="#linearGradient3703"
       gradientUnits="userSpaceOnUse"
       gradientTransform="matrix(1.7570316,0,0,1.3969574,-17.394014,-16.411698)" />
    <linearGradient
       id="linearGradient3681">
      <stop
         id="stop3683"
         style="stop-color:#000000;stop-opacity:1"
         offset="0" />
      <stop
         id="stop3685"
         style="stop-color:#000000;stop-opacity:0"
         offset="1" />
    </linearGradient>
    <radialGradient
       cx="5"
       cy="41.5"
       r="5"
       fx="5"
       fy="41.5"
       id="radialGradient3310"
       xlink:href="#linearGradient3681"
       gradientUnits="userSpaceOnUse"
       gradientTransform="matrix(0.5938225,0,0,1.5366531,-6.6594735,-103.93618)" />
    <linearGradient
       id="linearGradient3295">
      <stop
         id="stop3297"
         style="stop-color:#c9af8b;stop-opacity:1"
         offset="0" />
      <stop
         id="stop3299"
         style="stop-color:#ad8757;stop-opacity:1"
         offset="0.23942046" />
      <stop
         id="stop3301"
         style="stop-color:#c2a57f;stop-opacity:1"
         offset="0.27582464" />
      <stop
         id="stop3303"
         style="stop-color:#9d7d53;stop-opacity:1"
         offset="1" />
    </linearGradient>
    <linearGradient
       x1="15.464298"
       y1="7.9756851"
       x2="15.464298"
       y2="45.04248"
       id="linearGradient3293"
       xlink:href="#linearGradient3295"
       gradientUnits="userSpaceOnUse" />
    <linearGradient
       id="linearGradient3199">
      <stop
         id="stop3201"
         style="stop-color:#dac197;stop-opacity:1"
         offset="0" />
      <stop
         id="stop3203"
         style="stop-color:#c1a581;stop-opacity:1"
         offset="0.23942046" />
      <stop
         id="stop3205"
         style="stop-color:#dbc298;stop-opacity:1"
         offset="0.27582464" />
      <stop
         id="stop3207"
         style="stop-color:#a68b60;stop-opacity:1"
         offset="1" />
    </linearGradient>
    <linearGradient
       x1="24.822832"
       y1="15.377745"
       x2="24.996943"
       y2="37.27668"
       id="linearGradient3197"
       xlink:href="#linearGradient3199"
       gradientUnits="userSpaceOnUse"
       gradientTransform="matrix(1.2822251,0,0,1.5572619,-6.0701918,-15.290756)" />
    <linearGradient
       id="linearGradient4559">
      <stop
         id="stop4561"
         style="stop-color:#ffffff;stop-opacity:0"
         offset="0" />
      <stop
         id="stop4563"
         style="stop-color:#ffffff;stop-opacity:0"
         offset="1" />
    </linearGradient>
    <linearGradient
       x1="23.451576"
       y1="30.554907"
       x2="43.00663"
       y2="45.934479"
       id="linearGradient2659"
       xlink:href="#linearGradient4559"
       gradientUnits="userSpaceOnUse"
       gradientTransform="matrix(1.2822251,0,0,1.1746872,-6.0701918,-5.3031677)" />
    <linearGradient
       id="linearGradient3827">
      <stop
         id="stop3829"
         style="stop-color:#ffffff;stop-opacity:1"
         offset="0" />
      <stop
         id="stop4295"
         style="stop-color:#ffffff;stop-opacity:1"
         offset="0.3021296" />
      <stop
         id="stop4293"
         style="stop-color:#ffffff;stop-opacity:0.6901961"
         offset="0.34361121" />
      <stop
         id="stop3832"
         style="stop-color:#ffffff;stop-opacity:0"
         offset="1" />
    </linearGradient>
    <linearGradient
       x1="26"
       y1="22"
       x2="26"
       y2="8"
       id="linearGradient3834"
       xlink:href="#linearGradient3827"
       gradientUnits="userSpaceOnUse" />
    <linearGradient
       id="linearGradient3275">
      <stop
         id="stop3277"
         style="stop-color:#ffffff;stop-opacity:0"
         offset="0" />
      <stop
         id="stop3283"
         style="stop-color:#ffffff;stop-opacity:1"
         offset="0.245" />
      <stop
         id="stop3285"
         style="stop-color:#ffffff;stop-opacity:1"
         offset="0.77350003" />
      <stop
         id="stop3279"
         style="stop-color:#ffffff;stop-opacity:0"
         offset="1" />
    </linearGradient>
    <linearGradient
       x1="44.994774"
       y1="17.5"
       x2="3.0052247"
       y2="17.5"
       id="linearGradient3281"
       xlink:href="#linearGradient3275"
       gradientUnits="userSpaceOnUse"
       spreadMethod="reflect" />
  </defs>
  <g
     id="layer1">
    <g
       transform="matrix(0.9926623,0,0,0.9761474,0.2751901,1.2929634)"
       id="g3305"
       style="opacity:0.4;display:inline">
      <rect
         width="2.9601951"
         height="15.366531"
         x="-3.6903627"
         y="-47.848343"
         transform="scale(-1,-1)"
         id="rect2484"
         style="fill:url(#radialGradient3310);fill-opacity:1;stroke:none" />
      <rect
         width="40.41172"
         height="15.366531"
         x="3.6903627"
         y="32.481812"
         id="rect2486"
         style="fill:url(#linearGradient3312);fill-opacity:1;stroke:none" />
      <rect
         width="2.9601951"
         height="15.366531"
         x="44.110001"
         y="-47.848343"
         transform="scale(1,-1)"
         id="rect3444"
         style="fill:url(#radialGradient3314);fill-opacity:1;stroke:none;display:inline" />
    </g>
    <path
       d="M 9.010725,8.5 L 38.508448,8.5 C 40.230433,8.5 41.00537,8.2134495 41.5,9.5 L 44.501734,17.5 L 44.501734,43.173912 C 44.501734,44.727216 44.604664,44.489888 42.882671,44.489888 L 5.1173288,44.489888 C 3.3953364,44.489888 3.4982653,44.727216 3.4982653,43.173912 L 3.4982653,17.5 L 6.5,9.5 C 6.9808316,8.2394378 7.2887325,8.5 9.010725,8.5 L 9.010725,8.5 z"
       id="path2488"
       style="fill:url(#linearGradient3197);fill-opacity:1;fill-rule:nonzero;stroke:url(#linearGradient3293);stroke-width:0.99420077;stroke-linecap:round;stroke-linejoin:miter;marker:none;stroke-miterlimit:4;stroke-dasharray:none;stroke-dashoffset:0;stroke-opacity:1;visibility:visible;display:block;overflow:visible" />
    <path
       d="M 9.948194,9.5129459 L 37.601066,9.5129459 C 39.215359,9.5129459 40.214446,10.069482 40.890587,11.598974 L 43.219527,18.018695 L 43.219527,41.163252 C 43.219527,42.623928 42.400768,43.359337 40.786471,43.359337 L 7.0532679,43.359337 C 5.4389745,43.359337 4.7804918,42.55051 4.7804918,41.089833 L 4.7804918,18.018695 L 7.0343027,11.461335 C 7.4850649,10.275943 8.3338968,9.5129459 9.948194,9.5129459 z"
       id="path2490"
       style="opacity:0.50549454;fill:none;stroke:url(#linearGradient2659);stroke-width:0.74211526;stroke-linecap:butt;stroke-linejoin:miter;marker:none;stroke-miterlimit:4;stroke-dasharray:none;stroke-dashoffset:0;stroke-opacity:1;visibility:visible;display:block;overflow:visible" />
    <path
       d="M 22,8 C 23.333333,8 24.666667,8 26,8 C 26,12.666667 26,17.333333 26,22 C 25.606271,22 25.212542,22 24.818813,22 C 24.415688,22 24.012563,22 23.609438,22 C 23.284909,22 22.960381,22 22.635853,22 C 22.423902,22 22.211951,22 22,22 C 22,17.333333 22,12.666667 22,8 z"
       id="rect3326"
       style="opacity:0.4;fill:url(#linearGradient3834);fill-opacity:1;fill-rule:nonzero;stroke:none;stroke-width:1;marker:none;visibility:visible;display:inline;overflow:visible;enable-background:accumulate" />
    <path
       d="M 3.5052248,17.5 L 44.494775,17.5"
       id="path3273"
       style="opacity:0.4;fill:none;stroke:url(#linearGradient3281);stroke-width:1px;stroke-linecap:square;stroke-linejoin:miter;stroke-opacity:1;display:inline" />
    <path
       d="M 12.500094,34.04922 C 12.392087,34.385222 12.212088,34.655222 11.960094,34.85922 C 11.744088,35.015222 11.534088,35.177221 11.330094,35.34522 C 10.610089,36.005221 9.6680903,36.33522 8.5040942,36.33522 C 7.7120923,36.33522 7.1180929,36.137221 6.7220942,35.74122 C 6.0860939,35.129222 5.7680942,34.757222 5.7680942,34.62522 C 5.7680942,34.577222 5.8460941,34.505222 6.0020942,34.40922 C 6.2060938,34.289222 6.3560936,34.133223 6.4520942,33.94122 C 6.7400932,33.353223 7.1180929,32.645224 7.5860942,31.81722 C 7.6820923,31.685225 7.8680921,31.283225 8.1440942,30.61122 C 8.4200915,29.939227 8.7500912,29.375227 9.1340942,28.91922 C 9.1940908,28.847228 9.4280905,28.409228 9.8360942,27.60522 C 10.11209,27.02923 10.394089,26.74123 10.682094,26.74122 C 10.934089,26.74123 11.156089,26.86723 11.348094,27.11922 C 11.540088,27.371229 11.636088,27.629229 11.636094,27.89322 C 11.636088,28.313228 11.450088,28.835228 11.078094,29.45922 C 10.886089,29.783227 10.562089,30.257226 10.106094,30.88122 C 9.7820902,31.301225 9.6440903,31.529225 9.6920942,31.56522 C 9.7160903,31.589225 9.7400902,31.601225 9.7640942,31.60122 C 9.8120902,31.601225 10.00409,31.499225 10.340094,31.29522 C 10.676089,31.091226 10.994089,30.989226 11.294094,30.98922 C 11.498088,30.989226 11.702088,31.031226 11.906094,31.11522 C 12.074088,31.175225 12.224088,31.451225 12.356094,31.94322 C 12.500087,32.423224 12.572087,32.897224 12.572094,33.36522 C 12.572087,33.641223 12.548087,33.869223 12.500094,34.04922 M 11.024094,32.53722 C 10.784089,32.537224 10.382089,32.753224 9.8180942,33.18522 C 9.3140907,33.593223 8.8880911,34.007223 8.5400942,34.42722 C 8.4200915,34.571222 8.2340917,34.727222 7.9820942,34.89522 C 7.7900922,35.027222 7.6940923,35.129222 7.6940942,35.20122 C 7.6940923,35.333221 7.7660922,35.399221 7.9100942,35.39922 C 8.2820917,35.399221 8.930091,35.057222 9.8540942,34.37322 C 10.778089,33.689223 11.240089,33.161224 11.240094,32.78922 C 11.240089,32.621224 11.168089,32.537224 11.024094,32.53722 M 20.702469,35.12922 C 20.630462,35.549221 20.246462,35.759221 19.550469,35.75922 C 19.310463,35.759221 18.920464,35.723221 18.380469,35.65122 C 17.912465,35.591221 17.606465,35.573221 17.462469,35.59722 C 17.378465,35.609221 16.970466,35.741221 16.238469,35.99322 C 15.578467,36.22122 15.056468,36.33522 14.672469,36.33522 C 14.204468,36.33522 13.868469,36.17322 13.664469,35.84922 C 13.556469,35.669221 13.502469,35.501221 13.502469,35.34522 C 13.502469,34.997222 13.850469,34.715222 14.546469,34.49922 C 14.666468,34.475222 14.864468,34.295222 15.140469,33.95922 C 15.428467,33.623223 15.650467,33.413223 15.806469,33.32922 C 16.934466,32.645224 17.522465,32.213224 17.570469,32.03322 C 17.606465,31.949225 17.498465,31.877225 17.246469,31.81722 C 16.994466,31.745225 16.784466,31.721225 16.616469,31.74522 C 16.424466,31.781225 16.256466,31.853225 16.112469,31.96122 C 15.980467,32.057225 15.836467,32.099225 15.680469,32.08722 C 14.660468,31.967225 14.150468,31.523225 14.150469,30.75522 C 14.150468,30.671226 14.156468,30.575226 14.168469,30.46722 C 14.192468,30.347226 14.468468,30.287226 14.996469,30.28722 C 15.188467,30.287226 15.476467,30.299226 15.860469,30.32322 C 16.208466,30.347226 16.418466,30.359226 16.490469,30.35922 C 16.526466,30.359226 16.706466,30.341226 17.030469,30.30522 C 17.354465,30.269226 17.624465,30.251226 17.840469,30.25122 C 18.500464,30.251226 18.884464,30.389226 18.992469,30.66522 C 19.088464,30.893226 19.136463,31.133226 19.136469,31.38522 C 19.136463,31.517225 19.088464,31.847225 18.992469,32.37522 C 18.932464,32.663224 18.656464,33.035224 18.164469,33.49122 C 17.744465,33.875223 17.558465,34.079223 17.606469,34.10322 C 17.654465,34.127223 17.852465,34.127223 18.200469,34.10322 C 18.680464,34.079223 18.968464,34.067223 19.064469,34.06722 C 19.256463,34.067223 19.370463,34.085223 19.406469,34.12122 C 19.646463,34.349222 19.958463,34.481222 20.342469,34.51722 C 20.594462,34.541222 20.720462,34.655222 20.720469,34.85922 C 20.720462,34.931222 20.714462,35.021222 20.702469,35.12922 M 28.205657,28.91922 C 27.97765,29.147228 27.725651,29.261227 27.449657,29.26122 C 27.281651,29.261227 27.131651,29.201227 26.999657,29.08122 C 26.819652,28.925228 26.729652,28.679228 26.729657,28.34322 C 26.729652,27.971229 26.807652,27.719229 26.963657,27.58722 C 27.131651,27.443229 27.317651,27.371229 27.521657,27.37122 C 27.689651,27.371229 27.863651,27.419229 28.043657,27.51522 C 28.23565,27.611229 28.33165,27.863229 28.331657,28.27122 C 28.33165,28.619228 28.28965,28.835228 28.205657,28.91922 M 25.109657,31.00722 C 25.289653,31.139226 25.379653,31.361225 25.379657,31.67322 C 25.379653,32.321224 25.007653,33.293223 24.263657,34.58922 C 24.071654,34.937222 23.879655,35.285221 23.687657,35.63322 C 23.363655,36.101221 23.039655,36.33522 22.715657,36.33522 C 22.571656,36.33522 22.427656,36.29322 22.283657,36.20922 C 22.007656,36.041221 21.869657,35.807221 21.869657,35.50722 C 21.869657,35.207221 22.025656,34.823222 22.337657,34.35522 C 22.577656,34.019223 22.823656,33.689223 23.075657,33.36522 C 23.183655,33.209223 23.477655,32.669224 23.957657,31.74522 C 24.257654,31.169226 24.527654,30.881226 24.767657,30.88122 C 24.875654,30.881226 24.989653,30.923226 25.109657,31.00722 M 34.269969,33.63522 C 34.197961,34.031223 33.807962,34.361222 33.099969,34.62522 C 32.799963,34.745222 32.259963,34.889222 31.479969,35.05722 C 31.275964,35.105222 30.801965,35.135222 30.057969,35.14722 C 29.373966,35.147222 29.013967,35.159222 28.977969,35.18322 C 28.449967,35.555221 27.723968,36.62322 26.799969,38.38722 C 25.89997,40.103217 25.43797,40.967216 25.413969,40.97922 C 25.37797,41.003216 25.34797,41.015216 25.323969,41.01522 C 25.25197,41.015216 25.16797,40.955216 25.071969,40.83522 C 24.927971,40.679216 24.831971,40.583216 24.783969,40.54722 C 24.675971,40.499216 24.573971,40.445216 24.477969,40.38522 C 24.369971,40.325216 24.303971,40.241216 24.279969,40.13322 C 24.231971,39.845217 24.669971,38.855218 25.593969,37.16322 C 26.565969,35.411221 27.057968,34.523222 27.069969,34.49922 C 27.093968,34.319222 27.003969,34.139223 26.799969,33.95922 C 26.595969,33.767223 26.505969,33.545223 26.529969,33.29322 C 26.541969,33.065224 26.613969,32.885224 26.745969,32.75322 C 26.889969,32.609224 27.015969,32.549224 27.123969,32.57322 C 27.135968,32.585224 27.159968,32.735224 27.195969,33.02322 C 27.231968,33.311223 27.363968,33.461223 27.591969,33.47322 C 27.723968,33.485223 28.089967,32.879224 28.689969,31.65522 C 29.301966,30.419226 29.709966,29.819227 29.913969,29.85522 C 30.501965,29.903227 31.089964,29.945227 31.677969,29.98122 C 32.625963,30.101227 33.249962,30.341226 33.549969,30.70122 C 34.077961,31.349225 34.341961,32.105225 34.341969,32.96922 C 34.341961,33.197223 34.317961,33.419223 34.269969,33.63522 M 32.973969,31.99722 C 32.961963,31.937225 32.775963,31.877225 32.415969,31.81722 C 32.067963,31.745225 31.731964,31.709225 31.407969,31.70922 C 31.071964,31.709225 30.855965,31.751225 30.759969,31.83522 C 30.531965,32.027225 30.285965,32.285224 30.021969,32.60922 C 29.709966,33.017224 29.571966,33.281223 29.607969,33.40122 C 29.643966,33.533223 29.799966,33.599223 30.075969,33.59922 C 30.411965,33.599223 30.879965,33.509223 31.479969,33.32922 C 31.923964,33.185223 32.307963,32.945224 32.631969,32.60922 C 32.883963,32.333224 32.997963,32.129225 32.973969,31.99722 M 42.229625,35.57922 C 42.181617,36.083221 41.689617,36.33522 40.753625,36.33522 C 40.333619,36.33522 39.793619,36.28122 39.133625,36.17322 C 38.389621,36.065221 37.987621,36.005221 37.927625,35.99322 C 37.783621,35.993221 37.471622,35.999221 36.991625,36.01122 C 36.403623,36.035221 35.971623,36.047221 35.695625,36.04722 C 34.543625,36.047221 33.913625,35.897221 33.805625,35.59722 C 33.733625,35.393221 33.931625,35.105222 34.399625,34.73322 C 34.951624,34.337222 35.497624,33.941223 36.037625,33.54522 C 37.057622,32.813224 37.933621,32.087225 38.665625,31.36722 C 39.793619,30.251226 40.333619,29.375227 40.285625,28.73922 C 40.273619,28.583228 40.153619,28.505228 39.925625,28.50522 C 39.721619,28.505228 39.15762,28.649228 38.233625,28.93722 C 38.041621,28.997228 37.729621,29.159228 37.297625,29.42322 C 36.937622,29.663227 36.667622,29.783227 36.487625,29.78322 C 36.331623,29.783227 36.193623,29.711227 36.073625,29.56722 C 35.965623,29.423227 35.911623,29.273227 35.911625,29.11722 C 35.911623,28.589228 36.457623,28.073229 37.549625,27.56922 C 38.593621,27.07723 39.58962,26.83123 40.537625,26.83122 C 41.209618,26.83123 41.653617,26.98123 41.869625,27.28122 C 42.109617,27.617229 42.229617,27.995229 42.229625,28.41522 C 42.229617,29.183227 41.827617,30.077227 41.023625,31.09722 C 40.483619,31.781225 39.745619,32.537224 38.809625,33.36522 C 38.029621,34.049223 37.639621,34.397222 37.639625,34.40922 C 37.651621,34.421222 37.669621,34.427222 37.693625,34.42722 C 37.741621,34.427222 37.939621,34.379222 38.287625,34.28322 C 38.635621,34.187222 38.94762,34.121223 39.223625,34.08522 C 39.691619,34.037223 40.303619,34.175222 41.059625,34.49922 C 41.875617,34.847222 42.265617,35.207221 42.229625,35.57922"
       id="text3198"
       style="font-size:16px;font-style:normal;font-variant:normal;font-weight:normal;font-stretch:normal;opacity:0.4;fill:#000000;fill-opacity:1;stroke:none;stroke-width:1px;stroke-linecap:butt;stroke-linejoin:miter;stroke-opacity:1;font-family:Blunter;-inkscape-font-specification:Blunter" />
  </g>
</svg>
