<?xml version="1.0" encoding="UTF-8" standalone="no"?>
<!-- Created with Inkscape (http://www.inkscape.org/) -->

<svg
   xmlns:dc="http://purl.org/dc/elements/1.1/"
   xmlns:cc="http://creativecommons.org/ns#"
   xmlns:rdf="http://www.w3.org/1999/02/22-rdf-syntax-ns#"
   xmlns:svg="http://www.w3.org/2000/svg"
   xmlns="http://www.w3.org/2000/svg"
   xmlns:xlink="http://www.w3.org/1999/xlink"
   xmlns:sodipodi="http://sodipodi.sourceforge.net/DTD/sodipodi-0.dtd"
   xmlns:inkscape="http://www.inkscape.org/namespaces/inkscape"
   version="1.0"
   width="48"
   height="48"
   id="svg3638"
   inkscape:version="0.48.0 r9654"
   sodipodi:docname="text-x-generic.svg">
  <metadata
     id="metadata56">
    <rdf:RDF>
      <cc:Work
         rdf:about="">
        <dc:format>image/svg+xml</dc:format>
        <dc:type
           rdf:resource="http://purl.org/dc/dcmitype/StillImage" />
        <dc:title />
      </cc:Work>
    </rdf:RDF>
  </metadata>
  <sodipodi:namedview
     pagecolor="#ffffff"
     bordercolor="#666666"
     borderopacity="1"
     objecttolerance="10"
     gridtolerance="10"
     guidetolerance="10"
     inkscape:pageopacity="0"
     inkscape:pageshadow="2"
     inkscape:window-width="1280"
     inkscape:window-height="947"
     id="namedview54"
     showgrid="false"
     inkscape:zoom="11.313709"
     inkscape:cx="18.046248"
     inkscape:cy="20.86632"
     inkscape:window-x="0"
     inkscape:window-y="24"
     inkscape:window-maximized="1"
     inkscape:current-layer="svg3638" />
  <defs
     id="defs3640">
    <linearGradient
       id="linearGradient5048">
      <stop
         id="stop5050"
         style="stop-color:black;stop-opacity:0"
         offset="0" />
      <stop
         id="stop5056"
         style="stop-color:black;stop-opacity:1"
         offset="0.5" />
      <stop
         id="stop5052"
         style="stop-color:black;stop-opacity:0"
         offset="1" />
    </linearGradient>
    <linearGradient
       id="linearGradient5060">
      <stop
         id="stop5062"
         style="stop-color:black;stop-opacity:1"
         offset="0" />
      <stop
         id="stop5064"
         style="stop-color:black;stop-opacity:0"
         offset="1" />
    </linearGradient>
    <linearGradient
       id="linearGradient3104">
      <stop
         id="stop3106"
         style="stop-color:#aaa;stop-opacity:1"
         offset="0" />
      <stop
         id="stop3108"
         style="stop-color:#c8c8c8;stop-opacity:1"
         offset="1" />
    </linearGradient>
    <linearGradient
       id="linearGradient3600">
      <stop
         id="stop3602"
         style="stop-color:#f4f4f4;stop-opacity:1"
         offset="0" />
      <stop
         id="stop3604"
         style="stop-color:#dbdbdb;stop-opacity:1"
         offset="1" />
    </linearGradient>
    <radialGradient
       cx="102"
       cy="112.3047"
       r="139.55859"
       id="XMLID_8_"
       gradientUnits="userSpaceOnUse">
      <stop
         id="stop41"
         style="stop-color:#b7b8b9;stop-opacity:1"
         offset="0" />
      <stop
         id="stop47"
         style="stop-color:#ececec;stop-opacity:1"
         offset="0.18851049" />
      <stop
         id="stop49"
         style="stop-color:#fafafa;stop-opacity:0"
         offset="0.25718147" />
      <stop
         id="stop51"
         style="stop-color:white;stop-opacity:0"
         offset="0.30111277" />
      <stop
         id="stop53"
         style="stop-color:#fafafa;stop-opacity:0"
         offset="0.53130001" />
      <stop
         id="stop55"
         style="stop-color:#ebecec;stop-opacity:0"
         offset="0.84490001" />
      <stop
         id="stop57"
         style="stop-color:#e1e2e3;stop-opacity:0"
         offset="1" />
    </radialGradient>
    <linearGradient
       id="linearGradient3211">
      <stop
         id="stop3213"
         style="stop-color:white;stop-opacity:1"
         offset="0" />
      <stop
         id="stop3215"
         style="stop-color:white;stop-opacity:0"
         offset="1" />
    </linearGradient>
    <linearGradient
       id="linearGradient4338">
      <stop
         id="stop4340"
         style="stop-color:#898989;stop-opacity:1;"
         offset="0" />
      <stop
         id="stop4342"
         style="stop-color:#b0b0b0;stop-opacity:1;"
         offset="1" />
    </linearGradient>
    <linearGradient
       id="linearGradient8589">
      <stop
         id="stop8591"
         style="stop-color:#fefefe;stop-opacity:1"
         offset="0" />
      <stop
         id="stop8593"
         style="stop-color:#cbcbcb;stop-opacity:1"
         offset="1" />
    </linearGradient>
    <linearGradient
       x1="32.892288"
       y1="8.0590115"
       x2="36.358372"
       y2="5.4565363"
       id="linearGradient2432"
       xlink:href="#linearGradient8589"
       gradientUnits="userSpaceOnUse"
       gradientTransform="matrix(0.9976985,0,0,1.0406866,0.1638029,-1.1057939)" />
    <linearGradient
       x1="22.104254"
       y1="39.698696"
       x2="22.104254"
       y2="9.2626371"
       id="linearGradient2436"
       xlink:href="#linearGradient4338"
       gradientUnits="userSpaceOnUse"
       gradientTransform="matrix(0.9946067,0,0,1.440776,-0.3759013,-12.863089)" />
    <linearGradient
       x1="24"
       y1="1.9999999"
       x2="24"
       y2="46.01725"
       id="linearGradient2439"
       xlink:href="#linearGradient3211"
       gradientUnits="userSpaceOnUse"
       gradientTransform="matrix(1,0,0,0.9777778,0,-0.9666693)" />
    <radialGradient
       cx="102"
       cy="112.3047"
       r="139.55859"
       id="radialGradient2442"
       xlink:href="#XMLID_8_"
       gradientUnits="userSpaceOnUse"
       gradientTransform="matrix(0.3617022,0,0,-0.3907784,0.8510637,47.517004)" />
    <linearGradient
       x1="25.132275"
       y1="0.98520643"
       x2="25.132275"
       y2="47.013336"
       id="linearGradient2445"
       xlink:href="#linearGradient3600"
       gradientUnits="userSpaceOnUse"
       gradientTransform="matrix(1,0,0,0.9561695,-1.0064697e-7,-1.914922)" />
    <linearGradient
       x1="-51.786404"
       y1="50.786446"
       x2="-51.786404"
       y2="2.9062471"
       id="linearGradient2447"
       xlink:href="#linearGradient3104"
       gradientUnits="userSpaceOnUse"
       gradientTransform="matrix(0.8074968,0,0,0.8948322,59.410232,-2.9805533)" />
    <radialGradient
       cx="605.71429"
       cy="486.64789"
       r="117.14286"
       fx="605.71429"
       fy="486.64789"
       id="radialGradient2450"
       xlink:href="#linearGradient5060"
       gradientUnits="userSpaceOnUse"
       gradientTransform="matrix(0.02303995,0,0,0.01470022,26.360882,37.040176)" />
    <radialGradient
       cx="605.71429"
       cy="486.64789"
       r="117.14286"
       fx="605.71429"
       fy="486.64789"
       id="radialGradient2453"
       xlink:href="#linearGradient5060"
       gradientUnits="userSpaceOnUse"
       gradientTransform="matrix(-0.02303994,0,0,0.01470022,21.62311,37.040176)" />
    <linearGradient
       x1="302.85715"
       y1="366.64789"
       x2="302.85715"
       y2="609.50507"
       id="linearGradient2456"
       xlink:href="#linearGradient5048"
       gradientUnits="userSpaceOnUse"
       gradientTransform="matrix(0.06732488,0,0,0.01470022,-0.3411391,37.040146)" />
    <filter
       x="-0.14846256"
       y="-0.16434373"
       width="1.2969251"
       height="1.3286875"
       color-interpolation-filters="sRGB"
       id="filter3248">
      <feGaussianBlur
         stdDeviation="0.77391625"
         id="feGaussianBlur3250" />
    </filter>
    <linearGradient
       x1="22.104254"
       y1="39.698696"
       x2="22.104254"
       y2="9.2626371"
       id="linearGradient2436-4"
       xlink:href="#linearGradient4338-0"
       gradientUnits="userSpaceOnUse"
       gradientTransform="matrix(0.9946067,0,0,1.440776,-0.3759013,-12.963089)" />
    <linearGradient
       id="linearGradient4338-0">
      <stop
         id="stop4340-5"
         style="stop-color:#8e8e8e;stop-opacity:1"
         offset="0" />
      <stop
         id="stop4342-9"
         style="stop-color:#b5b5b5;stop-opacity:1"
         offset="1" />
    </linearGradient>
  </defs>
  <rect
     width="32.508301"
     height="3.5700529"
     x="7.7378473"
     y="42.429947"
     id="rect2879"
     style="opacity:0.3;fill:url(#linearGradient2456);fill-opacity:1;fill-rule:nonzero;stroke:none;stroke-width:1;marker:none;visibility:visible;display:inline;overflow:visible" />
  <path
     d="m 7.7378475,42.430102 c 0,0 0,3.569856 0,3.569856 -1.1865002,0.0067 -2.8683795,-0.799823 -2.8683795,-1.785158 0,-0.985333 1.3240446,-1.784697 2.8683795,-1.784698 z"
     id="path2881"
     style="opacity:0.3;fill:url(#radialGradient2453);fill-opacity:1;fill-rule:nonzero;stroke:none;stroke-width:1;marker:none;visibility:visible;display:inline;overflow:visible" />
  <path
     d="m 40.246148,42.430102 c 0,0 0,3.569856 0,3.569856 1.1865,0.0067 2.86838,-0.799823 2.86838,-1.785158 0,-0.985333 -1.324045,-1.784697 -2.86838,-1.784698 z"
     id="path2883"
     style="opacity:0.3;fill:url(#radialGradient2450);fill-opacity:1;fill-rule:nonzero;stroke:none;stroke-width:1;marker:none;visibility:visible;display:inline;overflow:visible" />
  <path
     d="m 6.4999609,0.49719878 c 8.0202951,0 16.0405901,0 24.0608861,0 1.406933,0.4746531 8.965454,5.88220462 10.939195,9.62640622 0,11.459733 0,22.919465 0,34.379198 -11.666694,0 -23.333387,0 -35.0000811,0 0,-14.668535 0,-29.33707 0,-44.00560422 z"
     id="path4160"
     style="fill:url(#linearGradient2445);fill-opacity:1;stroke:url(#linearGradient2447);stroke-width:0.99992186;stroke-linecap:butt;stroke-linejoin:round;stroke-miterlimit:4;stroke-opacity:1;stroke-dasharray:none;stroke-dashoffset:0;display:inline" />
  <path
     d="m 7.3617017,44 c -0.199297,0 -0.361702,-0.175459 -0.361702,-0.39078 l 0,-42.2040499 c 0,-0.2157088 0.162405,-0.3907775 0.361702,-0.3907775 C 14.844793,1.1224073 23.137385,0.85281757 30.611384,1.0412872 L 40.894021,9.9073127 41,43.60922 C 41,43.824541 40.837957,44 40.638297,44 L 7.3617017,44 z"
     id="path4191"
     style="fill:url(#radialGradient2442);fill-opacity:1" />
  <path
     d="m 40.500039,10.258811 c 0,10.949037 0,22.31441 0,33.263447 -11.000026,0 -22.000052,0 -33.0000781,0 0,-14.014841 0,-28.029681 0,-42.0445213 7.5619931,0 15.3043341,0 22.8663281,0"
     id="path2435"
     style="opacity:0.6;fill:none;stroke:url(#linearGradient2439);stroke-width:0.9999218;stroke-linecap:butt;stroke-linejoin:round;stroke-miterlimit:4;stroke-opacity:1;stroke-dasharray:none;stroke-dashoffset:0;display:inline" />
  <path
     id="path3406"
     style="opacity:0.7;fill:url(#linearGradient2436);fill-opacity:1;stroke:none;display:inline"
     d="m 15.146622,38 1.759881,0 0,1 -1.759881,0 z m 7.484298,0 1.929581,0 0,1 -1.929581,0 z m -2.585278,0 2.235065,0 0,1 -2.235065,0 z m -2.788936,0 2.438723,0 0,1 -2.438723,0 z M 11,38 l 3.796419,0 0,1 L 11,39 z m 13.261086,-2 3.497329,0 0,1 -3.497329,0 z m -2.217263,0 1.8978,0 0,1 -1.8978,0 z m -2.217262,0 1.89781,0 0,1 -1.89781,0 z m -3.100769,0 2.781317,0 0,1 -2.781317,0 z m -1.537637,0 1.218185,0 0,1 -1.218185,0 z M 11,36 l 3.868703,0 0,1 L 11,37 z m 11.575806,-4 2.286488,0 0,1 -2.286488,0 z m 4.886439,0 1.555773,0 0,1 -1.555773,0 z m -2.274723,0 1.949485,0 0,1 -1.949485,0 z m -5.39193,0 2.454976,0 0,1 -2.454976,0 z m -5.408782,0 5.083544,0 0,1 -5.083544,0 z M 11,32 l 3.061572,0 0,1 L 11,33 z m 14.048194,2 1.701842,0 0,1 -1.701842,0 z m -2.890296,0 2.582748,0 0,1 -2.582748,0 z m -2.117317,0 1.608115,0 0,1 -1.608115,0 z m -1.882048,0 1.608114,0 0,1 -1.608114,0 z m -1.041852,0 0.835125,0 0,1 -0.835125,0 z m -2.15092,0 1.776154,0 0,1 -1.776154,0 z M 11,34 l 3.691817,0 0,1 L 11,35 z M 13.056056,16 19,16 l 0,1 -5.943944,0 z M 11,16 l 1.633355,0 0,1 L 11,17 z m 11.575806,-4 2.286488,0 0,1 -2.286488,0 z m 8.34064,0 L 36,12 l 0,1 -5.083554,0 z m -3.454201,0 3.128973,0 0,1 -3.128973,0 z m -2.274723,0 1.949485,0 0,1 -1.949485,0 z m -5.39193,0 2.454976,0 0,1 -2.454976,0 z m -5.408782,0 5.083544,0 0,1 -5.083544,0 z M 11,12 l 3.061572,0 0,1 L 11,13 z M 33.166446,14 35,14 l 0,1 -1.833554,0 z m -1.011766,0 0.675853,0 0,1 -0.675853,0 z m -4.781568,0 2.95719,0 0,1 -2.95719,0 z m 3.293103,0 1.152552,0 0,1 -1.152552,0 z m -7.948201,0 4.319185,0 0,1 -4.319185,0 z m -2.169468,0 1.833555,0 0,1 -1.833555,0 z m -4.927493,0 4.59158,0 0,1 -4.59158,0 z M 11,14 l 4.28514,0 0,1 L 11,15 z M 31.46735,10 32,10 l 0,1 -0.53265,0 z m -2.617232,0 2.280274,0 0,1 -2.280274,0 z m -3.726311,0 3.389353,0 0,1 -3.389353,0 z m -2.919697,0 2.582749,0 0,1 -2.582749,0 z m -1.945074,0 1.608116,0 0,1 -1.608116,0 z m -1.945063,0 1.608115,0 0,1 -1.608115,0 z m -1.172083,0 0.835125,0 0,1 -0.835125,0 z m -2.113113,0 1.776155,0 0,1 -1.776155,0 z M 11,10 l 3.691819,0 0,1 L 11,11 z M 32.720385,7.9999999 35,7.9999999 35,9 32.720385,9 z m -1.473408,0 1.153856,0 0,1.0000001 -1.153856,0 z m -4.089133,0 3.769581,0 0,1.0000001 -3.769581,0 z m -5.281094,0 4.961553,0 0,1.0000001 -4.961553,0 z m -2.234949,0 1.915398,0 0,1.0000001 -1.915398,0 z m -1.175422,0 0.855871,0 0,1.0000001 -0.855871,0 z m -2.268056,0 1.948514,0 0,1.0000001 -1.948514,0 z m -2.532944,0 2.213403,0 0,1.0000001 -2.213403,0 z m -2.665379,0 2.345838,0 L 13.345838,9 11,9 z M 22.575806,20 l 2.286488,0 0,1 -2.286488,0 z m 8.34064,0 L 36,20 l 0,1 -5.083554,0 z m -3.454201,0 3.128973,0 0,1 -3.128973,0 z m -2.274723,0 1.949485,0 0,1 -1.949485,0 z m -5.39193,0 2.454976,0 0,1 -2.454976,0 z m -5.408782,0 5.083544,0 0,1 -5.083544,0 z M 11,20 l 3.061572,0 0,1 L 11,21 z M 33.166446,26 35,26 l 0,1 -1.833554,0 z m -1.011766,0 0.675853,0 0,1 -0.675853,0 z m -4.781568,0 2.95719,0 0,1 -2.95719,0 z m 3.293103,0 1.152552,0 0,1 -1.152552,0 z m -7.948201,0 4.319185,0 0,1 -4.319185,0 z m -2.169468,0 1.833555,0 0,1 -1.833555,0 z m -4.927493,0 4.59158,0 0,1 -4.59158,0 z M 11,26 l 4.28514,0 0,1 L 11,27 z M 31.319242,24 33,24 l 0,1 -1.680758,0 z m -0.927452,0 0.619532,0 0,1 -0.619532,0 z m -4.383104,0 2.710758,0 0,1 -2.710758,0 z m 3.018678,0 1.056505,0 0,1 -1.056505,0 z m -7.285852,0 3.959254,0 0,1 -3.959254,0 z m -1.988678,0 1.680758,0 0,1 -1.680758,0 z m -4.516869,0 4.208949,0 0,1 -4.208949,0 z M 11,24 l 3.928045,0 0,1 L 11,25 z M 31.467341,28 32,28 l 0,1 -0.532659,0 z m -2.554218,0 2.280283,0 0,1 -2.280283,0 z m -3.864929,0 3.389342,0 0,1 -3.389342,0 z m -2.890296,0 2.582748,0 0,1 -2.582748,0 z m -2.117317,0 1.608115,0 0,1 -1.608115,0 z m -1.882048,0 1.608114,0 0,1 -1.608114,0 z m -1.041852,0 0.835125,0 0,1 -0.835125,0 z m -2.15092,0 1.776154,0 0,1 -1.776154,0 z M 11,28 l 3.691817,0 0,1 L 11,29 z M 32.720385,22 35,22 l 0,1 -2.279615,0 z m -1.473408,0 1.153856,0 0,1 -1.153856,0 z m -4.089133,0 3.769581,0 0,1 -3.769581,0 z m -5.281094,0 4.961553,0 0,1 -4.961553,0 z m -2.234949,0 1.915398,0 0,1 -1.915398,0 z m -1.175422,0 0.855871,0 0,1 -0.855871,0 z m -2.268056,0 1.948514,0 0,1 -1.948514,0 z m -2.532944,0 2.213403,0 0,1 -2.213403,0 z M 11,22 l 2.345838,0 0,1 L 11,23 z" />
  <path
     d="m 28.617256,0.92125832 c 4.282522,0 2.15325,8.48317128 2.15325,8.48317128 0,0 10.357642,-1.8023467 10.357642,2.8187444 0,-2.6097233 -11.302304,-10.7285956 -12.510892,-11.30191568 z"
     id="path12038"
     style="opacity:0.4;fill:black;fill-opacity:1;fill-rule:evenodd;stroke:none;display:inline;filter:url(#filter3248)" />
  <path
     d="m 28.617256,0.92125832 c 3.186493,0 2.33576,7.66187848 2.33576,7.66187848 0,0 10.175132,-0.9810539 10.175132,3.6400372 0,-1.125939 0.08591,-1.932245 -0.133777,-2.2835928 C 39.416058,7.4154025 32.598855,1.7511811 30.137071,1.008793 29.952849,0.95323837 29.544367,0.92125832 28.617256,0.92125832 z"
     id="path4474"
     style="fill:url(#linearGradient2432);fill-opacity:1;fill-rule:evenodd;stroke:none;display:inline" />
  <path
     sodipodi:nodetypes="ccscccccccccccccscssssscssccsscscccsssssssssccsssccsc"
     style="opacity:0.7;color:#000000;fill:url(#linearGradient2436-4);fill-opacity:1;fill-rule:nonzero;stroke:none;marker:none;visibility:visible;display:inline;overflow:visible;enable-background:accumulate"
     id="path2463"
     d="m 33.693319,41.922151 c -0.183291,-0.214874 -0.24149,-0.649763 -0.613202,-0.594166 -0.53943,0.04672 -0.961814,-0.343176 -1.422492,-0.553216 -0.311038,-0.145866 -0.674787,-4.47e-4 -0.981622,-0.176808 -0.673965,-0.322043 -0.988096,-1.129182 -0.900674,-1.820822 0.07621,-0.554618 0.415107,-1.047827 0.838733,-1.405207 0.367212,-0.242332 0.829801,-0.291081 1.227329,-0.475735 0.309351,-0.09382 0.527769,-0.319737 0.769667,-0.51247 0.406644,-0.253291 0.980903,-0.330126 1.392262,-0.02026 0.357794,0.239068 0.748829,0.432599 1.093779,0.687791 0.269391,0.283952 0.203576,0.699167 0.28003,1.048597 0.032,0.686327 0.329876,1.325744 0.450195,1.996988 0.09821,0.401542 -0.06564,0.79158 -0.292935,1.112619 -0.260057,0.377449 -0.538529,0.858635 -1.058396,0.899538 -0.25919,-0.01268 -0.584334,0.01379 -0.782674,-0.18685 z m 2.995307,-3.310619 c -0.163917,-0.299701 -0.284783,-0.721462 -0.047,-1.017812 0.384035,-0.478612 0.85934,-0.880034 1.349771,-1.249846 0.223584,-0.200327 0.472627,-0.170787 0.800671,-0.01564 0.346156,0.163709 0.463636,0.567978 0.393457,0.913137 -0.102048,0.501904 -0.280367,1.047985 -0.800445,1.263016 -0.451515,0.189525 -0.95663,0.416845 -1.458206,0.290088 -0.09893,-0.025 -0.190117,-0.09493 -0.238254,-0.182939 z m -6.241509,-2.504639 c -0.326048,-0.189259 -0.584952,-0.499779 -0.640432,-0.876563 -0.07043,-0.478339 0.01629,-0.992077 0.3411,-1.360848 0.28939,-0.328557 0.654848,-0.728017 1.148484,-0.675191 0.4301,0.01312 0.403991,0.407535 0.406817,0.710606 0.03919,0.342138 0.195461,0.658173 0.268566,0.991677 0.01262,0.05758 0.01375,0.114691 0.0027,0.154916 -0.102122,0.372342 -0.371238,0.688605 -0.656244,0.945806 -0.193552,0.229872 -0.494903,0.295675 -0.790716,0.149321 l -0.08029,-0.03972 0,0 z m 5.149186,0.227472 c -0.29915,-0.158352 -0.725546,-0.425367 -0.580954,-0.80923 0.13538,-0.359406 0.338642,-0.689406 0.468694,-1.054029 0.158641,-0.444777 0.45608,-1.071892 0.651156,-1.260714 0.312814,-0.302787 0.830544,-0.295351 1.253087,-0.247113 0.515959,0.0589 0.773669,0.605675 0.899413,1.050669 0.09269,0.328024 0.132206,0.689696 -0.0585,0.981133 -0.24474,0.374018 -0.587517,0.683573 -0.934474,0.965651 -0.320131,0.260269 -0.724023,0.436948 -1.138984,0.501384 -0.195542,0.0284 -0.386802,-0.03637 -0.55944,-0.127751 z m -2.323461,-1.135744 c -0.530392,-0.49702 -0.755135,-1.266056 -0.654417,-1.958665 0.09413,-0.394914 0.327713,-0.738082 0.591838,-1.039573 0.227733,-0.259951 0.510033,-0.527791 0.899629,-0.537448 0.410843,-0.01018 0.888485,0.02057 1.184191,0.311202 0.255413,0.251033 0.432396,0.704866 0.251636,1.050351 -0.339248,0.54115 -0.652394,1.099204 -0.902733,1.687363 -0.133488,0.25361 -0.223746,0.624315 -0.568199,0.661815 -0.271832,0.02881 -0.570212,-0.02046 -0.801945,-0.175045 z"
     inkscape:connector-curvature="0" />
</svg>
