<?xml version="1.0" encoding="UTF-8" standalone="no"?>
<!-- Created with Inkscape (http://www.inkscape.org/) -->

<svg
   xmlns:dc="http://purl.org/dc/elements/1.1/"
   xmlns:cc="http://creativecommons.org/ns#"
   xmlns:rdf="http://www.w3.org/1999/02/22-rdf-syntax-ns#"
   xmlns:svg="http://www.w3.org/2000/svg"
   xmlns="http://www.w3.org/2000/svg"
   version="1.0"
   width="22"
   height="22"
   id="svg2482">
  <metadata
     id="metadata34">
    <rdf:RDF>
      <cc:Work
         rdf:about="">
        <dc:format>image/svg+xml</dc:format>
        <dc:type
           rdf:resource="http://purl.org/dc/dcmitype/StillImage" />
        <dc:title></dc:title>
      </cc:Work>
    </rdf:RDF>
  </metadata>
  <defs
     id="defs2484" />
  <path
     d="M 11.09375,3.03125 C 10.548996,3.13797 10.124086,3.546163 9.78125,3.9375 9.3269325,4.4560908 8.9738795,5.0416672 8.8125,5.71875 c -0.172864,1.1887358 0.1840096,2.5224989 1.09375,3.375 0.394694,0.2632876 0.940506,0.299367 1.40625,0.25 0.291223,-0.031705 0.456045,-0.190069 0.59375,-0.40625 0.137705,-0.216181 0.25907,-0.467249 0.375,-0.6875 L 12.25,8.25 C 12.682086,7.2348324 13.25864,6.2770847 13.84375,5.34375 13.997074,5.0507025 13.998647,4.696485 13.90625,4.375 13.813853,4.053515 13.624178,3.7454329 13.40625,3.53125 13.069063,3.1998456 12.557414,3.1096028 12.0625,3.0625 11.707963,3.1613996 11.375947,3.2861477 11.125,3.5 c -0.250947,0.2138523 -0.402479,0.4988336 -0.46875,0.90625 -0.02939,0.3175077 -0.0046,0.6098691 0.125,0.8125 C 10.452106,4.7513936 10.341668,4.1736253 10.75,3.65625 c 0.125013,-0.2675645 0.406602,-0.4868727 0.75,-0.625 -0.05226,-1.235e-4 -0.105861,-0.00125 -0.15625,0 -0.08299,0.00206 -0.172178,-0.015246 -0.25,0 z M 13.6875,4.875 c -0.138382,0.2841397 -0.460416,0.7294596 -0.8125,0.875 -0.02773,0.019134 -0.0662,0.015906 -0.09375,0.03125 -0.0026,0.00146 0.0026,0.029802 0,0.03125 -0.01467,0.011666 -0.04659,0.020829 -0.0625,0.03125 -0.06896,0.045159 -0.127445,0.1078238 -0.25,0.125 a 0.01698863,0.01698863 0 0 1 0,-0.03125 0.01698863,0.01698863 0 0 1 0,-0.03125 c 0.06537,-0.016785 0.126129,-0.026349 0.1875,-0.0625 -0.258881,0.09676 -0.532222,0.1141012 -0.8125,0.09375 C 11.542508,5.8727988 11.258658,5.7132637 11.03125,5.5 11.394485,5.7729789 11.956722,5.8272516 12.46875,5.71875 12.980778,5.6102484 13.466686,5.3335849 13.6875,4.875 z m 2.53125,0.34375 C 16.145986,5.2177054 16.07149,5.2440899 16,5.25 c -0.431822,0.035699 -0.857027,0.1166194 -1.15625,0.40625 -0.164427,0.1591563 -0.357824,0.5278631 -0.5625,0.9375 -0.204676,0.4096369 -0.394779,0.8673773 -0.53125,1.25 -0.180466,0.5059655 -0.474838,0.9851223 -0.6875,1.46875 -0.01287,0.029466 0.01718,0.084162 0,0.125 0,0 -0.03125,0.03125 -0.03125,0.03125 0.02317,0.033915 0.07125,0.036579 0.09375,0.0625 0.003,-0.01591 0.0037,-0.020408 0,-0.03125 a 0.01698863,0.01698863 0 0 1 0.03125,0 c 0.0158,0.02213 0.02341,0.040914 0.03125,0.0625 0.0078,0.021586 0.01717,0.047588 0.03125,0.0625 0.0051,0.00536 0.04549,-0.00311 0.0625,0 -0.03978,-0.052431 -0.06076,-0.1070842 -0.09375,-0.15625 0.318248,0.212198 0.796282,0.3078072 1.125,0.25 0.02329,-0.0041 0.04061,-0.025465 0.0625,-0.03125 0.0167,-0.00941 0.04626,0.00846 0.0625,0 0.01609,-0.0078 0.01922,-0.033055 0.03125,-0.03125 0.006,9.026e-4 0.02736,-4.34e-5 0.03125,0 0,0 -0.03125,0.03125 -0.03125,0.03125 0.0089,-0.00408 0.02198,0.00711 0.03125,0 0.0086,6.367e-4 0.02324,-6.711e-4 0.03125,0 0.03205,0.00268 0.0717,0.020627 0.09375,0 -0.04452,0.043239 -0.06869,0.084537 -0.125,0.125 -0.118821,0.085388 -0.265661,0.208274 -0.40625,0.25 -0.07406,0.007 -0.143617,-0.0045 -0.21875,-0.03125 a 0.01698863,0.01698863 0 0 1 0,0.03125 c -0.226863,0.01864 -0.402865,-0.089667 -0.5625,-0.28125 a 0.01698863,0.01698863 0 0 1 0,-0.03125 c -0.03494,-0.033931 -0.05738,-0.094063 -0.09375,-0.125 -0.0032,-0.00272 -0.01907,0.00469 -0.03125,0 0.004,0.011415 -0.0041,0.019665 0,0.03125 0.01034,0.028964 0.02162,0.078416 0.03125,0.09375 C 13.128106,9.6886621 13.052202,9.6043191 13,9.5 c -0.0062,0.020067 0.0065,0.046051 0,0.0625 -0.0084,0.021131 -0.05038,0.048058 -0.0625,0.0625 -0.01212,0.014442 0.0055,0.016667 0,0.03125 -0.122261,0.3245774 -0.02663,0.588276 0.1875,0.8125 0.214133,0.224224 0.523781,0.426211 0.78125,0.5625 0.296691,0.157055 0.637824,0.26682 0.96875,0.21875 0.712228,-0.110597 1.419299,-0.397043 1.96875,-0.84375 0.597624,-0.4858726 1.173374,-1.0138232 1.59375,-1.65625 0.324707,-0.4962253 0.252842,-1.1557437 0.09375,-1.71875 -0.0114,8.615e-4 -0.04324,2.533e-4 -0.0625,0 -0.01926,-2.533e-4 -0.0254,-2.302e-4 -0.03125,0 a 0.01698863,0.01698863 0 0 1 0,-0.03125 0.01698863,0.01698863 0 0 1 0,-0.03125 c 0.01001,-0.00402 0.04005,0.0074 0.0625,0 0.0037,-0.00123 -0.0037,-0.030081 0,-0.03125 C 18.388712,6.5700686 18.239327,6.164198 18,5.84375 17.754537,5.5150854 17.424839,5.2984997 17,5.25 c -0.131727,-0.015038 -0.287568,0.00301 -0.4375,0 -0.119658,0.2156231 -0.202792,0.4300553 -0.25,0.65625 -0.02934,0.1405638 -0.02796,0.2863003 -0.03125,0.4375 0.0082,0.2772429 0.04114,0.5720268 0.1875,0.8125 0.001,0.00204 0.0252,-0.00444 0.03125,0 0.0061,0.00444 -0.0059,0.020151 0,0.03125 0.05515,0.084525 0.146155,0.1449816 0.21875,0.21875 0.02294,0.029252 0.03816,0.066743 0.0625,0.09375 0.105968,0.090927 0.225209,0.1395516 0.375,0.1875 0.239395,0.065999 0.479358,0.016116 0.6875,-0.09375 0.208142,-0.1098664 0.399597,-0.2526126 0.5625,-0.40625 -0.29221,0.4498727 -0.759549,0.6920594 -1.25,0.5625 -0.01158,-0.00306 -0.01552,-0.00264 -0.03125,0 0.01467,0.018815 0.01964,0.043713 0.03125,0.0625 0.02322,0.037574 0.04899,0.050866 0.09375,0.0625 a 0.01698863,0.01698863 0 0 1 0,0.03125 0.01698863,0.01698863 0 0 1 0,0.03125 c -0.447665,-0.013105 -0.769589,-0.2474014 -0.96875,-0.59375 -0.0859,-0.1493719 -0.190453,-0.3175252 -0.21875,-0.5 -0.03346,-0.3928584 0.06784,-0.7702788 0.1875,-1.125 0.0014,-0.0042 0.0017,-0.020367 0,-0.03125 -0.0017,-0.010883 -0.0053,-0.016304 0,-0.03125 0.01052,-0.030345 0.01861,-0.061081 0.03125,-0.09375 0.04157,-0.1075695 0.102568,-0.2121906 0.15625,-0.3125 -0.07314,-0.00178 -0.145986,-0.030205 -0.21875,-0.03125 z M 14.375,9.6875 l 0,0.03125 c 0.0015,-7.029e-4 0.02794,-3.117e-4 0.03125,0 0,0 -0.03125,-0.03125 -0.03125,-0.03125 z M 6.34375,5.625 c -0.051761,2.02e-5 -0.1070862,0.025714 -0.15625,0.03125 -0.4911595,0.055308 -0.8978713,0.3357666 -1.25,0.6875 0.066403,0.010087 0.1031247,0.056501 0.15625,0.09375 0.059028,0.041387 0.1223429,0.075924 0.1875,0.09375 0.2896003,0.077535 0.5464035,0.2129062 0.78125,0.40625 0.1459741,0.1174339 0.2363532,0.2236166 0.34375,0.375 0.067449,0.093584 0.1654295,0.1657223 0.21875,0.28125 a 0.01698863,0.01698863 0 0 1 0.03125,0 c 0.020786,0.062359 -0.016119,0.1232816 -0.03125,0.1875 -0.015131,0.064218 -0.00935,0.1296203 0,0.1875 0.020716,0.089706 0.056637,0.1651767 0.09375,0.25 0.018556,0.042412 0.020726,0.078449 0.03125,0.125 0.012143,-0.026266 0.049713,-0.037351 0.0625,-0.0625 0.033247,-0.065386 0.042188,-0.1223876 0.03125,-0.1875 l 0.03125,0 0.03125,0 c 0.015318,0.126222 0.014161,0.247557 0,0.375 C 6.8689982,8.6922589 6.7301482,8.8204039 6.65625,9 6.6198064,9.1069992 6.6098735,9.2296862 6.59375,9.34375 6.5776265,9.4578138 6.5268164,9.5580017 6.4375,9.65625 6.381476,9.7173814 6.2990283,9.7344216 6.25,9.78125 6.2939968,9.733427 6.3183282,9.6669182 6.34375,9.59375 6.3564609,9.5571659 6.3609765,9.505118 6.375,9.46875 6.3476886,9.4942838 6.3053226,9.5054205 6.28125,9.53125 6.2212607,9.6089039 6.2020868,9.7327835 6.125,9.8125 5.9704253,9.9723071 5.7975528,10.13135 5.59375,10.25 a 0.01698863,0.01698863 0 0 1 0,0.03125 c -0.030873,0.0063 -0.055599,0.0231 -0.09375,0.03125 -0.032356,0.0067 -0.089295,0.02368 -0.125,0.03125 -0.04964,0.01118 -0.085601,-0.0019 -0.125,0 -0.039399,0.0019 -0.081942,0.01848 -0.15625,0.03125 a 0.01698863,0.01698863 0 0 1 0,-0.03125 0.01698863,0.01698863 0 0 1 0,-0.03125 c 0.1106353,-0.0366 0.2070707,-0.08128 0.3125,-0.125 l 0,0.03125 C 5.5977005,10.115366 5.7671878,10.014979 5.9375,9.875 6.0538437,9.7793278 6.1722165,9.6482411 6.28125,9.53125 6.3568208,9.4334264 6.4043165,9.3046879 6.46875,9.1875 6.6615859,8.8005323 6.6281751,8.3755022 6.5625,7.96875 6.5091888,7.7378954 6.5344044,7.4931428 6.40625,7.3125 6.3076941,7.1757569 6.1901482,7.0425899 6.0625,6.9375 5.8325803,6.7525331 5.5667488,6.6718595 5.28125,6.59375 5.1401204,6.5559653 5.0107971,6.4765369 4.875,6.46875 4.7626665,6.5827667 4.6303033,6.6687906 4.53125,6.78125 4.2389309,7.1131324 4.087047,7.5399224 4,7.96875 c 0.07928,-0.016766 0.1670943,-0.050409 0.25,-0.0625 0.066573,-0.00971 0.115789,-0.023903 0.1875,0 a 0.01698863,0.01698863 0 0 1 0,0.03125 0.01698863,0.01698863 0 0 1 0,0.03125 C 4.2920495,8.0269306 4.1591308,8.0575139 4,8.0625 3.936871,8.4212166 3.9159279,8.797517 3.96875,9.15625 c 0.094753,0.6435052 0.5039358,1.175774 1.0625,1.5 l 0,-0.03125 0.15625,0.0625 a 0.01698863,0.01698863 0 0 1 0,0.03125 C 5.6913208,10.968017 6.2017141,10.828874 6.53125,10.4375 7.0216901,9.9949045 7.450326,9.4806216 7.625,8.84375 7.6428926,8.7785244 7.6461208,8.658853 7.625,8.5625 7.4994882,7.9899207 7.2554544,7.4683008 7.1875,6.875 7.1850592,6.6133871 7.2098257,6.3024288 7.125,6.0625 7.0401743,5.8225712 6.8653572,5.6673919 6.5,5.65625 6.4474164,5.6506227 6.395511,5.6249798 6.34375,5.625 z m 0.125,3.5625 c -0.012707,0.025499 -7.292e-4,0.061247 0,0.09375 C 6.519815,9.1895671 6.552554,9.1001194 6.59375,9 6.5543994,9.0650664 6.505693,9.1203101 6.46875,9.1875 z M 16.9375,7.65625 c 0.024,0.015738 0.03676,0.050563 0.0625,0.0625 0.0052,0.00239 0.02115,-0.029053 0.03125,-0.03125 -0.0285,-0.015409 -0.06676,-0.014457 -0.09375,-0.03125 z M 14.5,8.53125 c 0.01464,-0.00187 0.01421,-0.00215 0.03125,0 a 0.01698863,0.01698863 0 0 1 0,0.03125 c 0.0286,0.01837 0.04969,0.03916 0.0625,0.0625 0.0077,0.014004 0.02361,0.019591 0.03125,0.03125 0.0051,0.00777 -0.0064,0.025156 0,0.03125 0.01121,0.010737 0.04541,0.021802 0.0625,0.03125 0.01709,0.00945 0.0169,0.017113 0.03125,0.03125 0.01048,0.0084 0.02147,0.022617 0.03125,0.03125 0.01564,0.013813 0.01812,0.048735 0.03125,0.0625 0.02123,0.017583 0.05365,0.039025 0.0625,0.0625 0.0088,0.023475 -0.0097,0.044665 0,0.0625 0.0025,0.00295 0.02506,-0.00558 0.03125,0 0.0062,0.00558 -0.0052,0.023372 0,0.03125 a 0.01698863,0.01698863 0 0 1 0.03125,0 c 0.0045,0.023882 -0.0011,0.047772 0,0.0625 0.0027,0.013971 -0.0079,0.016584 0,0.03125 a 0.01698863,0.01698863 0 0 1 0.03125,0 0.01698863,0.01698863 0 0 1 0.03125,0 c 0.0057,0.050785 0.01056,0.100793 0,0.15625 l -0.03125,0 c 0,0 -0.03125,-0.03125 -0.03125,-0.03125 -0.0014,0.00866 0.0018,0.022523 0,0.03125 -0.0062,0.02909 0.0084,0.04035 0,0.0625 0.0015,0.00419 0.0042,0.020191 0,0.03125 -0.03477,0.092722 -0.11886,0.1670859 -0.1875,0.25 0.10474,-0.164788 0.13771,-0.364307 0.125,-0.53125 -0.0068,-0.034579 0.01455,-0.067069 0,-0.09375 -0.01206,-0.0142 -0.04012,-0.016346 -0.0625,-0.03125 0.03772,0.1509404 0.0206,0.2698155 0,0.375 -0.02375,0.1212296 -0.09787,0.2115884 -0.1875,0.28125 0.06356,-0.072149 0.09574,-0.157608 0.09375,-0.25 -0.002,-0.092392 -0.0376,-0.2135834 -0.125,-0.34375 -0.08203,0.042348 -0.173458,0.088745 -0.25,0.09375 a 0.01698863,0.01698863 0 0 1 0,-0.03125 0.01698863,0.01698863 0 0 1 0,-0.03125 c 0.06501,-0.022731 0.14219,-0.00795 0.21875,-0.0625 0.0021,0.00294 0.0253,-0.0051 0.03125,0 0.04653,-0.027522 0.107617,-0.044939 0.15625,-0.09375 -0.06735,-0.056393 -0.172894,-0.1027656 -0.28125,-0.15625 -0.08386,0.034045 -0.122026,0.042921 -0.15625,0.0625 -0.01711,0.00979 -0.02464,0.025229 -0.03125,0.03125 0.0187,0.00403 0.03474,-0.00243 0.0625,0 0.02776,0.00243 0.07086,0.026475 0.09375,0.03125 0.01144,0.00239 0.02232,-0.00485 0.03125,0 0.0036,0.00442 -4.78e-4,0.02488 0,0.03125 -0.0027,0.00526 0.0045,0.026694 0,0.03125 -0.009,0.00911 -0.01383,0.020679 -0.03125,0.03125 -0.03484,0.021142 -0.105592,0.059385 -0.1875,0.09375 -0.06416,-0.025774 -0.117166,-0.065833 -0.15625,-0.09375 -0.01173,-0.00838 -0.02198,-0.02281 -0.03125,-0.03125 -4.18e-4,-0.00722 -0.03059,0.00508 -0.03125,0 0.0015,0.00239 -0.02659,0.00188 -0.03125,0 -0.0071,-0.00208 -0.02409,0.00338 -0.03125,0 -0.0018,-0.00155 5.71e-4,-0.030397 0,-0.03125 0.0092,-0.00492 0.0175,-0.024573 0.03125,-0.03125 l 0.03125,0 c 0.06606,-0.037676 0.149635,-0.1045356 0.25,-0.15625 -0.03244,0.00501 -0.06612,0.02385 -0.09375,0.03125 -0.05381,0.014409 -0.105578,0.00813 -0.125,0.03125 0.02875,-0.046945 0.08208,-0.064439 0.125,-0.09375 0.0059,-0.00564 -4e-4,-0.030061 0,-0.03125 -9.9e-5,-0.00461 -0.0036,-0.023099 0,-0.03125 0.0036,-0.00815 0.02144,0.00926 0.03125,0 a 0.01698863,0.01698863 0 0 1 0,-0.03125 c 0.01956,-6.778e-4 0.04487,-1.235e-4 0.0625,0 a 0.01698863,0.01698863 0 0 1 0,0.03125 c 0.03539,-0.011316 0.07533,-0.024448 0.125,-0.03125 0.03539,-0.00641 0.08108,-0.025634 0.125,-0.03125 z M 13.59375,9.875 c 0,0 0.03125,0.03125 0.03125,0.03125 a 0.01698863,0.01698863 0 0 1 0,-0.03125 c -0.0017,-9.474e-4 -0.02851,-3.855e-4 -0.03125,0 z M 13.75,9.96875 c 0.03768,0.017814 0.07593,0.028012 0.125,0.03125 -0.03961,-0.014781 -0.08444,-0.010804 -0.125,-0.03125 z M 10.125,10.75 c -0.05287,-0.0012 -0.103675,0.02865 -0.15625,0.03125 -0.4207066,0.02077 -0.839382,0.126914 -1.1875,0.34375 -0.4161481,0.331567 -0.8055705,0.743024 -1.34375,0.90625 L 7.4375,12 c -0.028609,0.01328 -0.06296,0.04708 -0.09375,0.0625 0.053512,0.02587 0.1000912,0.05487 0.15625,0.09375 0.6438177,0.429211 0.9109352,1.19106 0.8125,1.9375 -0.011748,0.08052 -0.00658,0.166602 -0.03125,0.25 -0.014635,0.05292 -0.034261,0.128938 -0.03125,0.1875 0.00301,0.05856 -0.00167,0.09709 -0.03125,0.15625 C 7.7515436,15.621916 6.9284577,16.067756 6,16.28125 c -0.6417631,0.14757 -1.3107415,0.248582 -1.96875,0.125 0.1893023,0.825017 0.614406,1.590381 1.40625,1.96875 0.2602964,0.149612 0.5552826,0.147571 0.84375,0.15625 0.2884674,0.0087 0.5714487,0.02855 0.84375,0.15625 0.7979287,0.363807 1.5478413,1.017259 2.46875,0.9375 0.1633531,-0.02443 0.3009322,0.03149 0.40625,0.09375 0.105318,0.06226 0.180112,0.14094 0.25,0.25 0.139777,0.21812 0.220132,0.505946 0.375,0.6875 0.334831,0.338715 0.926834,0.290585 1.375,0.3125 0.387661,-0.0305 0.681701,-0.193326 0.9375,-0.4375 0.245429,-0.234275 0.461535,-0.525749 0.65625,-0.8125 -0.02885,-0.0079 -0.0404,-0.02755 -0.0625,-0.03125 -0.227243,-0.038 -0.431821,-0.140922 -0.625,-0.25 -0.08566,-0.0452 -0.1722,-0.10069 -0.25,-0.15625 -0.205864,-0.154159 -0.382313,-0.333397 -0.53125,-0.5625 -0.08935,-0.12836 -0.183489,-0.288531 -0.25,-0.4375 a 0.01698863,0.01698863 0 0 1 -0.03125,0 c -0.02184,-0.05259 -0.04303,-0.09993 -0.0625,-0.15625 -0.09618,-0.291717 -0.139293,-0.610828 -0.125,-0.9375 0.01027,-0.09263 0.0382,-0.168076 0.0625,-0.25 0.0014,-0.005 0.0015,-0.02039 0,-0.03125 -0.0015,-0.01086 -0.0049,-0.01663 0,-0.03125 0.08057,-0.237559 0.229816,-0.447666 0.40625,-0.625 0.001,-0.0011 -0.0012,-0.03088 0,-0.03125 0.0059,5.54e-4 0.02837,-0.0011 0.03125,0 -0.0011,-0.0029 5.85e-4,-0.02524 0,-0.03125 3.83e-4,-0.0012 0.03015,9.92e-4 0.03125,0 0.106086,-0.0949 0.21753,-0.152601 0.34375,-0.21875 0.223547,-0.143845 0.460826,-0.311179 0.71875,-0.40625 -0.254265,-0.106572 -0.545544,-0.06512 -0.8125,0.03125 -0.276978,0.09999 -0.552166,0.264877 -0.75,0.46875 -0.09959,0.09125 -0.171393,0.203181 -0.25,0.3125 0.02147,-0.03714 0.01429,-0.08408 0.03125,-0.125 -0.02748,0.03584 -0.03699,0.08738 -0.0625,0.125 -0.09676,0.142738 -0.156646,0.277639 -0.21875,0.4375 a 0.01698863,0.01698863 0 0 1 0.03125,0 c -0.01488,0.04273 -0.05477,0.08238 -0.0625,0.125 -0.0016,0.0089 0.0015,0.02236 0,0.03125 -6.29e-4,0.0086 0.0021,0.02241 0,0.03125 -0.0063,0.0413 0.008,0.08316 0,0.125 -0.01786,0.08946 0.01131,0.18071 0,0.28125 l -0.03125,0 -0.03125,0 c 0.0024,-0.0207 0.0098,-0.03632 0,-0.0625 -0.0073,-0.01963 0.0012,-0.07102 0,-0.09375 l -0.03125,0 c 8.74e-4,-0.0052 -0.0027,-0.01535 0,-0.03125 0.0065,-0.03819 0.02611,-0.06671 0.03125,-0.09375 a 0.01698863,0.01698863 0 0 0 0,-0.03125 0.01698863,0.01698863 0 0 1 -0.03125,0 c 0.0093,-0.09449 0.01498,-0.185366 0.03125,-0.28125 0.243075,-0.814158 0.834931,-1.543785 1.78125,-1.59375 0.31607,-0.01935 0.601755,0.107968 0.875,0.25 -0.07548,-0.290702 -0.144843,-0.578618 -0.1875,-0.875 -0.523948,-0.158479 -1.070011,-0.190698 -1.59375,0.15625 -1.068635,0.730747 -1.541393,1.819079 -1.28125,2.96875 0.07462,0.261341 0.16675,0.49739 0.3125,0.71875 0.01894,0.0287 0.04881,0.03694 0.0625,0.0625 -0.03434,-0.217005 0.0057,-0.436502 0,-0.65625 -0.0032,-0.122915 -0.04368,-0.244155 -0.03125,-0.375 a 0.01698863,0.01698863 0 0 1 0.03125,0 0.01698863,0.01698863 0 0 1 0.03125,0 c -2.06e-4,0.03422 -0.01504,0.05842 0,0.09375 0.01504,0.03533 0.05997,0.08274 0.0625,0.125 -0.0015,0.05988 -0.03246,0.109878 -0.03125,0.15625 a 0.01698863,0.01698863 0 0 1 0.03125,0 0.01698863,0.01698863 0 0 1 0.03125,0 c 0.04422,0.426476 0.09821,0.871156 0.25,1.25 -3.84e-4,0.0055 8.93e-4,0.02902 0,0.03125 -0.0018,0.0045 -0.03216,-0.0016 -0.03125,0 -0.0012,-7.02e-4 -0.04332,0.0039 -0.0625,0 -0.01,-0.0037 -0.02293,-0.02336 -0.03125,-0.03125 -0.10235,-0.09807 -0.193077,-0.19672 -0.28125,-0.3125 -0.01727,-0.02065 -0.04162,-0.0359 -0.0625,-0.0625 -0.07941,-0.126151 -0.125832,-0.270707 -0.1875,-0.40625 -0.09227,-0.18386 -0.189858,-0.361406 -0.25,-0.5625 -0.0076,-0.0243 -0.02352,-0.06674 -0.03125,-0.09375 -0.0029,-0.01058 0.0061,-0.02225 0,-0.03125 -0.003,-0.0045 0.0032,-0.02525 0,-0.03125 l -0.03125,0 c -0.02327,-0.08875 -0.01571,-0.16582 -0.03125,-0.25 -0.01652,-0.09098 -0.05226,-0.183581 -0.0625,-0.28125 -0.02159,-0.213868 -0.01666,-0.443292 0,-0.65625 0.01067,-0.124595 0.03805,-0.224734 0.0625,-0.34375 0.0083,-0.0406 0.02103,-0.08558 0.03125,-0.125 0.263196,-0.8319 0.8478,-1.587323 1.71875,-1.875 0.0097,-0.0029 0.02545,-5.9e-4 0.03125,0 0.0035,8e-5 0.02822,-2.7e-4 0.03125,0 0.192197,-0.05824 0.373231,-0.07531 0.5625,-0.09375 0.04281,-0.0036 0.08271,0.0023 0.125,0 a 0.01698863,0.01698863 0 0 1 0,-0.03125 c 0.08137,-0.003 0.160823,-0.03618 0.25,-0.03125 0.107794,0.0059 0.211184,0.04187 0.3125,0.0625 -0.09553,-0.575817 -0.04344,-1.239194 -0.46875,-1.6875 C 12.437891,11.842267 11.805245,11.506509 11.1875,11.09375 10.880572,10.862549 10.495079,10.758246 10.125,10.75 z m 8.40625,0.09375 c -0.168125,0.02888 -0.357865,0.0914 -0.5,0.21875 -0.844896,0.637099 -1.651734,1.332756 -2.3125,2.15625 -0.20159,0.251238 -0.226463,0.56904 -0.1875,0.875 0.03896,0.30596 0.140661,0.61795 0.28125,0.875 0.08055,0.147277 0.240485,0.239357 0.40625,0.28125 0.85744,0.216692 1.721237,-0.173111 2.5,-0.5 0.44418,-0.18365 0.729119,-0.48506 0.9375,-0.875 0.208381,-0.38994 0.318422,-0.849287 0.40625,-1.28125 0.02828,-0.13905 0.04007,-0.266327 0.03125,-0.40625 -0.05431,0.01407 -0.131338,0.0092 -0.1875,0 -0.05616,-0.0092 -0.101021,-0.03068 -0.15625,-0.03125 -0.01841,-1.89e-4 -0.04439,0.02835 -0.0625,0.03125 a 0.01698863,0.01698863 0 0 1 0,-0.03125 0.01698863,0.01698863 0 0 1 0,-0.03125 c 0.02127,-0.0084 0.04221,0.01146 0.0625,0 l 0,-0.03125 c 0.02351,-0.0071 0.03951,-0.02409 0.0625,-0.03125 0.01279,-0.01177 0.01949,-0.04967 0.03125,-0.0625 -0.07666,0.03569 -0.167318,0.02732 -0.25,0.03125 -0.08268,0.0039 -0.169335,0.02143 -0.25,0 0.0051,0.0044 -0.0051,0.02697 0,0.03125 0.06147,0.05138 0.110776,0.06336 0.1875,0.0625 a 0.01698863,0.01698863 0 0 1 0,0.03125 0.01698863,0.01698863 0 0 1 0,0.03125 c -0.02496,0.0012 -0.03709,-0.008 -0.0625,0 -0.01906,0.006 -0.07163,-0.0018 -0.09375,0 l 0,0.03125 c -0.03316,-7.73e-4 -0.05786,0.0059 -0.09375,0 -0.04417,-0.0073 -0.08313,-0.02417 -0.125,-0.03125 a 0.01698863,0.01698863 0 0 1 0,0.03125 c -0.02285,-0.0052 -0.04017,-0.02516 -0.0625,-0.03125 -0.232891,-0.06349 -0.447428,-0.168459 -0.5625,-0.34375 -0.126106,-0.1921 -0.125462,-0.459006 0.03125,-0.8125 0.04001,-0.07213 0.05619,-0.130523 0.09375,-0.1875 -0.0446,0.0011 -0.08017,-0.0077 -0.125,0 z M 18.8125,10.875 c -0.08227,0.104095 -0.155581,0.20916 -0.1875,0.3125 0.06719,-0.11724 0.203442,-0.19074 0.3125,-0.28125 -0.04557,-0.01208 -0.07523,-0.02397 -0.125,-0.03125 z m 0.28125,0.03125 C 19.060997,10.932338 19.029695,10.975676 19,11 c 8.56e-4,0.0029 -4.81e-4,0.026 0,0.03125 5.8e-4,0.0032 -2.42e-4,0.02683 0,0.03125 -1.86e-4,4.42e-4 -0.03096,-3.28e-4 -0.03125,0 -0.150436,0.171596 -0.267579,0.342418 -0.28125,0.53125 a 0.01698863,0.01698863 0 0 1 -0.03125,0 c -0.01432,-0.03275 -0.05111,-0.06322 -0.0625,-0.09375 -0.001,0.06697 0.0091,0.153366 0.03125,0.21875 0.0017,-0.03386 -9.64e-4,-0.06603 0,-0.09375 a 0.01698863,0.01698863 0 0 1 0.03125,0 c 0.03188,0.06787 0.113388,0.09312 0.1875,0.125 0.03706,0.01594 0.08521,0.04592 0.125,0.0625 -0.08163,-0.07038 -0.16337,-0.145922 -0.1875,-0.25 a 0.01698863,0.01698863 0 0 1 0.03125,0 0.01698863,0.01698863 0 0 1 0.03125,0 c 0.07445,0.184554 0.282594,0.30827 0.53125,0.34375 0.240886,0.03437 0.496713,-0.02614 0.625,-0.1875 -0.110023,-0.287286 -0.291248,-0.544436 -0.59375,-0.6875 -0.121133,-0.05729 -0.205419,-0.05499 -0.3125,-0.09375 l 0,-0.03125 z m 0.9375,1.0625 c -0.02754,0.02631 -0.06392,0.04046 -0.09375,0.0625 0.04674,-0.01908 0.09192,-0.03601 0.125,-0.0625 -0.0042,0.0041 -0.02701,-0.004 -0.03125,0 z m -12.875,0.1875 c -0.011657,0.0016 -0.020434,0.02946 -0.03125,0.03125 0.038866,0.01788 0.08705,0.01251 0.125,0.03125 -0.011709,-0.01562 -0.01697,-0.05073 -0.03125,-0.0625 -0.023054,0.0089 -0.033357,-0.0041 -0.0625,0 z m -0.21875,0.03125 0,0.03125 c -0.5624746,0.187208 -1.1376529,0.303388 -1.625,0.625 -0.7279069,0.614078 -1.2755892,1.455417 -1.40625,2.40625 -0.033031,0.261319 -0.00471,0.570864 0.03125,0.84375 0.0013,0.0099 -0.00133,0.02145 0,0.03125 0.2394769,0.06436 0.5028278,0.109584 0.75,0.125 0.028699,-6.26e-4 0.065886,-9.39e-4 0.09375,0 0.230102,0.008 0.4617076,-0.02578 0.71875,-0.0625 0.6703309,-0.134066 1.3049867,-0.450746 1.75,-0.9375 0.4450133,-0.486754 0.6829372,-1.130257 0.59375,-1.84375 a 0.01698863,0.01698863 0 0 1 0.03125,0 0.01698863,0.01698863 0 0 1 0.03125,0 c 0.1809851,0.542953 0.1454036,1.169808 -0.21875,1.625 -0.2294089,0.299993 -0.4837776,0.565984 -0.78125,0.75 0.1469584,-0.06436 0.3029961,-0.126278 0.4375,-0.21875 0.2830588,-0.212294 0.4215128,-0.498354 0.5625,-0.78125 0.095182,-0.195305 0.1271334,-0.387962 0.15625,-0.59375 0.030191,-0.21502 0.067663,-0.436888 0.03125,-0.65625 -0.026476,-0.116939 -0.1005916,-0.22162 -0.15625,-0.34375 -0.2257136,-0.411941 -0.5549237,-0.793616 -1,-1 z m 1,1 c 0.020977,0.03828 0.087674,0.0605 0.125,0.09375 0.037326,0.03325 0.075754,0.07551 0.09375,0.125 0.010831,0.04874 -0.00605,0.08857 0,0.125 0.052158,0.230369 0.00128,0.426308 -0.03125,0.65625 -0.02996,0.213381 -0.1219161,0.399449 -0.21875,0.59375 -0.027799,0.05704 -0.025788,0.122606 -0.03125,0.1875 -0.00273,0.03245 0.00856,0.0612 0,0.09375 0.1646278,-0.22168 0.2682034,-0.463334 0.34375,-0.71875 0.022069,-0.0798 0.019957,-0.164365 0.03125,-0.25 C 8.2891435,13.825462 8.296636,13.550123 8.1875,13.25 8.0679844,12.939258 7.8707843,12.727017 7.625,12.53125 c 0.162896,0.201077 0.2104213,0.432261 0.3125,0.65625 z m 4.59375,2.28125 c -0.02392,-0.0021 -0.03573,0.02569 -0.0625,0.03125 -0.156017,0.03243 -0.313468,0.0682 -0.4375,0.15625 -0.04747,0.03888 -0.07696,0.08347 -0.125,0.125 0.166785,-0.104489 0.349859,-0.192163 0.53125,-0.25 0.0297,-0.0095 0.0632,-0.01179 0.09375,-0.03125 0.0076,-0.0049 -0.0079,-0.02656 0,-0.03125 z m 0.84375,0.0625 0,0.03125 c -0.01892,0.006 -0.04393,-0.0063 -0.0625,0 0.04542,0.02351 0.08441,0.06536 0.125,0.09375 a 0.01698863,0.01698863 0 0 1 0,0.03125 c -0.09915,0.01414 -0.182064,0.02844 -0.28125,0.0625 0.169893,-0.02341 0.348642,-0.02756 0.53125,0 -0.09288,-0.08693 -0.198004,-0.168103 -0.3125,-0.21875 z M 3.9375,16.1875 c 0.068278,0.01359 0.1503823,0.0545 0.21875,0.0625 0.066414,0.0078 0.1195759,-0.0075 0.1875,0 -0.1380837,-0.0197 -0.2752749,-0.03169 -0.40625,-0.0625 z M 13.375,16.25 c 0.05909,0.03311 0.0945,0.06956 0.15625,0.09375 0.0025,-0.0016 0.02657,0.005 0.03125,0 0.008,-0.0049 0.02009,-0.03552 0.03125,-0.03125 0.112782,0.04316 0.225829,0.131971 0.3125,0.1875 -0.09708,-0.07715 -0.245416,-0.04298 -0.375,-0.09375 -0.859267,-0.252654 -1.692884,0.735004 -1.25,1.59375 0.0017,-0.01083 0.028,-0.02025 0.03125,-0.03125 0.01083,-0.03665 0.01361,-0.08749 0.03125,-0.125 0.01764,-0.03751 0.02154,-0.06087 0.03125,-0.09375 0.0097,-0.03288 0.04061,-0.07279 0.03125,-0.09375 l 0.03125,0 c 0.196369,0.688 0.572509,1.168269 1.21875,1.375 0.06709,0.0054 0.13034,0.03287 0.1875,0.03125 0.03054,-8.66e-4 0.06789,0.02257 0.09375,0.03125 0.01293,0.0043 0.01949,-0.0025 0.03125,0 -2.63e-4,-0.0051 0.02797,0.0058 0.03125,0 0.131593,-0.236403 0.226373,-0.491016 0.28125,-0.75 -0.0055,0.0032 -0.02528,-0.003 -0.03125,0 a 0.01698863,0.01698863 0 0 1 -0.03125,0 c 0.0385,-0.147807 0.07132,-0.310554 0.09375,-0.46875 -0.0051,-0.111869 -0.0043,-0.233949 -0.03125,-0.34375 -0.05797,-0.323421 -0.129687,-0.651158 -0.21875,-0.96875 -0.09946,-0.100974 -0.201355,-0.207816 -0.34375,-0.28125 l 0,0.03125 C 13.606405,16.269507 13.485491,16.254887 13.375,16.25 z m -2.25,0.5625 c -7.65e-4,0.0069 -1.46e-4,0.02408 0,0.03125 0.0042,-0.01262 0.02677,-0.01961 0.03125,-0.03125 l -0.03125,0 z m 1.53125,2 c 0.110412,0.115185 0.210009,0.212583 0.375,0.28125 -0.0097,-0.01974 -0.02412,-0.04999 -0.03125,-0.0625 -0.01159,-0.02033 -0.0074,-0.04026 -0.03125,-0.09375 0.143339,0.08411 0.310257,0.08503 0.46875,0.09375 -0.159569,-0.03708 -0.313443,-0.07892 -0.46875,-0.125 -0.05307,-0.01575 -0.104204,-0.01658 -0.15625,-0.03125 -0.05381,-0.01224 -0.108017,-0.04196 -0.15625,-0.0625 z"
     transform="matrix(1.1145885,0,0,1.1145885,-2.3685094,-2.371528)"
     id="path3750"
     style="color:#000000;fill:#ffffff;fill-opacity:1;fill-rule:evenodd;stroke:none;stroke-width:1.69999993;marker:none;visibility:visible;display:inline;overflow:visible;enable-background:accumulate" />
</svg>
