<?xml version="1.0" encoding="UTF-8" standalone="no"?>
<!-- Created with Inkscape (http://www.inkscape.org/) -->
<svg
   xmlns:svg="http://www.w3.org/2000/svg"
   xmlns="http://www.w3.org/2000/svg"
   xmlns:xlink="http://www.w3.org/1999/xlink"
   version="1.0"
   width="48"
   height="48"
   id="svg4297">
  <defs
     id="defs4299">
    <radialGradient
       cx="5"
       cy="41.5"
       r="5"
       fx="5"
       fy="41.5"
       id="radialGradient3314"
       xlink:href="#linearGradient3681"
       gradientUnits="userSpaceOnUse"
       gradientTransform="matrix(0.5938225,0,0,1.5366531,41.140892,-103.93618)" />
    <linearGradient
       id="linearGradient3703">
      <stop
         id="stop3705"
         style="stop-color:#000000;stop-opacity:0"
         offset="0" />
      <stop
         id="stop3711"
         style="stop-color:#000000;stop-opacity:1"
         offset="0.5" />
      <stop
         id="stop3707"
         style="stop-color:#000000;stop-opacity:0"
         offset="1" />
    </linearGradient>
    <linearGradient
       x1="17.554192"
       y1="46.000275"
       x2="17.554192"
       y2="34.999718"
       id="linearGradient3312"
       xlink:href="#linearGradient3703"
       gradientUnits="userSpaceOnUse"
       gradientTransform="matrix(1.7570316,0,0,1.3969574,-17.394014,-16.411698)" />
    <linearGradient
       id="linearGradient3681">
      <stop
         id="stop3683"
         style="stop-color:#000000;stop-opacity:1"
         offset="0" />
      <stop
         id="stop3685"
         style="stop-color:#000000;stop-opacity:0"
         offset="1" />
    </linearGradient>
    <radialGradient
       cx="5"
       cy="41.5"
       r="5"
       fx="5"
       fy="41.5"
       id="radialGradient3310"
       xlink:href="#linearGradient3681"
       gradientUnits="userSpaceOnUse"
       gradientTransform="matrix(0.5938225,0,0,1.5366531,-6.6594735,-103.93618)" />
    <linearGradient
       id="linearGradient3295">
      <stop
         id="stop3297"
         style="stop-color:#c9af8b;stop-opacity:1"
         offset="0" />
      <stop
         id="stop3299"
         style="stop-color:#ad8757;stop-opacity:1"
         offset="0.23942046" />
      <stop
         id="stop3301"
         style="stop-color:#c2a57f;stop-opacity:1"
         offset="0.27582464" />
      <stop
         id="stop3303"
         style="stop-color:#9d7d53;stop-opacity:1"
         offset="1" />
    </linearGradient>
    <linearGradient
       x1="15.464298"
       y1="7.9756851"
       x2="15.464298"
       y2="45.04248"
       id="linearGradient3293"
       xlink:href="#linearGradient3295"
       gradientUnits="userSpaceOnUse" />
    <linearGradient
       id="linearGradient3199">
      <stop
         id="stop3201"
         style="stop-color:#dac197;stop-opacity:1"
         offset="0" />
      <stop
         id="stop3203"
         style="stop-color:#c1a581;stop-opacity:1"
         offset="0.23942046" />
      <stop
         id="stop3205"
         style="stop-color:#dbc298;stop-opacity:1"
         offset="0.27582464" />
      <stop
         id="stop3207"
         style="stop-color:#a68b60;stop-opacity:1"
         offset="1" />
    </linearGradient>
    <linearGradient
       x1="24.822832"
       y1="15.377745"
       x2="24.996943"
       y2="37.27668"
       id="linearGradient3197"
       xlink:href="#linearGradient3199"
       gradientUnits="userSpaceOnUse"
       gradientTransform="matrix(1.2822251,0,0,1.5572619,-6.0701918,-15.290756)" />
    <linearGradient
       id="linearGradient4559">
      <stop
         id="stop4561"
         style="stop-color:#ffffff;stop-opacity:0"
         offset="0" />
      <stop
         id="stop4563"
         style="stop-color:#ffffff;stop-opacity:0"
         offset="1" />
    </linearGradient>
    <linearGradient
       x1="23.451576"
       y1="30.554907"
       x2="43.00663"
       y2="45.934479"
       id="linearGradient2659"
       xlink:href="#linearGradient4559"
       gradientUnits="userSpaceOnUse"
       gradientTransform="matrix(1.2822251,0,0,1.1746872,-6.0701918,-5.3031677)" />
    <linearGradient
       id="linearGradient3827">
      <stop
         id="stop3829"
         style="stop-color:#ffffff;stop-opacity:1"
         offset="0" />
      <stop
         id="stop4295"
         style="stop-color:#ffffff;stop-opacity:1"
         offset="0.3021296" />
      <stop
         id="stop4293"
         style="stop-color:#ffffff;stop-opacity:0.6901961"
         offset="0.34361121" />
      <stop
         id="stop3832"
         style="stop-color:#ffffff;stop-opacity:0"
         offset="1" />
    </linearGradient>
    <linearGradient
       x1="26"
       y1="22"
       x2="26"
       y2="8"
       id="linearGradient3834"
       xlink:href="#linearGradient3827"
       gradientUnits="userSpaceOnUse" />
    <linearGradient
       id="linearGradient3275">
      <stop
         id="stop3277"
         style="stop-color:#ffffff;stop-opacity:0"
         offset="0" />
      <stop
         id="stop3283"
         style="stop-color:#ffffff;stop-opacity:1"
         offset="0.245" />
      <stop
         id="stop3285"
         style="stop-color:#ffffff;stop-opacity:1"
         offset="0.77350003" />
      <stop
         id="stop3279"
         style="stop-color:#ffffff;stop-opacity:0"
         offset="1" />
    </linearGradient>
    <linearGradient
       x1="44.994774"
       y1="17.5"
       x2="3.0052247"
       y2="17.5"
       id="linearGradient3281"
       xlink:href="#linearGradient3275"
       gradientUnits="userSpaceOnUse"
       spreadMethod="reflect" />
  </defs>
  <g
     id="layer1">
    <g
       transform="matrix(0.9926623,0,0,0.9761474,0.2751901,1.2929634)"
       id="g3305"
       style="opacity:0.4;display:inline">
      <rect
         width="2.9601951"
         height="15.366531"
         x="-3.6903627"
         y="-47.848343"
         transform="scale(-1,-1)"
         id="rect2484"
         style="fill:url(#radialGradient3310);fill-opacity:1;stroke:none" />
      <rect
         width="40.41172"
         height="15.366531"
         x="3.6903627"
         y="32.481812"
         id="rect2486"
         style="fill:url(#linearGradient3312);fill-opacity:1;stroke:none" />
      <rect
         width="2.9601951"
         height="15.366531"
         x="44.110001"
         y="-47.848343"
         transform="scale(1,-1)"
         id="rect3444"
         style="fill:url(#radialGradient3314);fill-opacity:1;stroke:none;display:inline" />
    </g>
    <path
       d="M 9.010725,8.5 L 38.508448,8.5 C 40.230433,8.5 41.00537,8.2134495 41.5,9.5 L 44.501734,17.5 L 44.501734,43.173912 C 44.501734,44.727216 44.604664,44.489888 42.882671,44.489888 L 5.1173288,44.489888 C 3.3953364,44.489888 3.4982653,44.727216 3.4982653,43.173912 L 3.4982653,17.5 L 6.5,9.5 C 6.9808316,8.2394378 7.2887325,8.5 9.010725,8.5 L 9.010725,8.5 z"
       id="path2488"
       style="fill:url(#linearGradient3197);fill-opacity:1;fill-rule:nonzero;stroke:url(#linearGradient3293);stroke-width:0.99420077;stroke-linecap:round;stroke-linejoin:miter;marker:none;stroke-miterlimit:4;stroke-dasharray:none;stroke-dashoffset:0;stroke-opacity:1;visibility:visible;display:block;overflow:visible" />
    <path
       d="M 9.948194,9.5129459 L 37.601066,9.5129459 C 39.215359,9.5129459 40.214446,10.069482 40.890587,11.598974 L 43.219527,18.018695 L 43.219527,41.163252 C 43.219527,42.623928 42.400768,43.359337 40.786471,43.359337 L 7.0532679,43.359337 C 5.4389745,43.359337 4.7804918,42.55051 4.7804918,41.089833 L 4.7804918,18.018695 L 7.0343027,11.461335 C 7.4850649,10.275943 8.3338968,9.5129459 9.948194,9.5129459 z"
       id="path2490"
       style="opacity:0.50549454;fill:none;stroke:url(#linearGradient2659);stroke-width:0.74211526;stroke-linecap:butt;stroke-linejoin:miter;marker:none;stroke-miterlimit:4;stroke-dasharray:none;stroke-dashoffset:0;stroke-opacity:1;visibility:visible;display:block;overflow:visible" />
    <path
       d="M 22,8 C 23.333333,8 24.666667,8 26,8 C 26,12.666667 26,17.333333 26,22 C 25.606271,22 25.212542,22 24.818813,22 C 24.415688,22 24.012563,22 23.609438,22 C 23.284909,22 22.960381,22 22.635853,22 C 22.423902,22 22.211951,22 22,22 C 22,17.333333 22,12.666667 22,8 z"
       id="rect3326"
       style="opacity:0.4;fill:url(#linearGradient3834);fill-opacity:1;fill-rule:nonzero;stroke:none;stroke-width:1;marker:none;visibility:visible;display:inline;overflow:visible;enable-background:accumulate" />
    <path
       d="M 3.5052248,17.5 L 44.494775,17.5"
       id="path3273"
       style="opacity:0.4;fill:none;stroke:url(#linearGradient3281);stroke-width:1px;stroke-linecap:square;stroke-linejoin:miter;stroke-opacity:1;display:inline" />
    <path
       d="M 17.579185,25.782304 C 17.694442,25.923194 17.752076,26.115304 17.752085,26.358634 C 17.752076,26.755671 17.611195,27.255156 17.329443,27.857092 C 17.098902,28.34378 16.906792,28.663963 16.753112,28.817643 C 16.727489,28.843266 16.509765,28.945724 16.099938,29.12502 C 15.779747,29.265907 15.613251,29.438806 15.600452,29.643717 C 15.587637,29.784605 15.798957,29.957503 16.234415,30.162415 C 16.682663,30.367337 16.906792,30.604273 16.9068,30.873221 C 16.906792,30.988493 16.881177,31.110162 16.829956,31.238231 C 16.650644,31.622455 16.29204,31.814565 15.75414,31.814561 C 15.549215,31.814565 15.248243,31.782548 14.851222,31.718506 C 14.454188,31.641667 14.191639,31.603245 14.06357,31.603241 C 13.935492,31.603245 13.839437,31.622455 13.775405,31.660873 C 13.352758,31.968254 12.53309,32.832749 11.316396,34.25436 C 10.343036,35.407021 9.6194215,35.983351 9.1455511,35.983351 C 8.9662471,35.983351 8.7933483,35.919314 8.6268533,35.791241 C 8.473165,35.65036 8.3963211,35.490269 8.3963211,35.310966 C 8.3963211,34.977975 8.9086142,34.35682 9.9332016,33.447497 C 10.957788,32.525372 11.470081,31.814565 11.470084,31.315076 C 11.470081,31.251042 11.181916,31.14218 10.605588,30.988488 C 10.042065,30.821998 9.7603018,30.565851 9.7603039,30.220047 C 9.7603018,30.079172 9.7987244,29.925484 9.8755697,29.758983 C 10.080486,29.310732 10.535146,29.086604 11.239551,29.086597 C 11.495696,29.086604 11.860705,29.125027 12.33458,29.201863 C 12.821255,29.265907 13.147842,29.297925 13.314341,29.297918 C 13.532061,29.297925 13.685749,29.259503 13.775405,29.182652 C 14.172427,28.84967 14.56305,28.510275 14.947277,28.164469 C 15.344298,27.818678 15.5236,27.530514 15.485185,27.299974 C 15.446756,27.06945 15.088151,26.954184 14.409369,26.954175 C 14.345327,26.954184 14.242868,26.954184 14.101992,26.954175 C 13.961107,26.954184 13.858648,26.954184 13.794616,26.954175 C 12.603529,26.954184 12.007988,26.634002 12.007992,25.993624 C 12.007988,25.839946 12.033604,25.673451 12.084836,25.494138 C 12.200099,25.109928 12.808447,24.917818 13.909882,24.917808 C 14.652701,24.917818 15.401931,25.00747 16.15757,25.186762 C 16.926002,25.353268 17.399874,25.551782 17.579185,25.782304 M 24.823237,34.696213 C 24.746386,35.14447 24.336552,35.368599 23.593733,35.368599 C 23.337581,35.368599 22.921342,35.330176 22.345017,35.253332 C 21.845527,35.189297 21.518939,35.170086 21.365256,35.1957 C 21.2756,35.208508 20.840152,35.349387 20.058906,35.618341 C 19.354501,35.861682 18.797383,35.983351 18.387548,35.983351 C 17.888062,35.983351 17.529457,35.810452 17.311732,35.464654 C 17.196466,35.272544 17.138833,35.093242 17.138833,34.926745 C 17.138833,34.555333 17.510245,34.254361 18.253072,34.023828 C 18.381144,33.998215 18.592465,33.806105 18.887036,33.447497 C 19.194409,33.088895 19.431345,32.864766 19.597843,32.775111 C 20.80173,32.045098 21.429289,31.584033 21.480521,31.391919 C 21.518939,31.302272 21.403673,31.225428 21.134724,31.161387 C 20.865766,31.084547 20.641637,31.058932 20.462338,31.084543 C 20.257417,31.12297 20.078116,31.199813 19.92443,31.315076 C 19.783546,31.417538 19.629859,31.462363 19.463366,31.449552 C 18.37474,31.321483 17.83043,30.847613 17.83043,30.027937 C 17.83043,29.938291 17.836833,29.835834 17.849641,29.720561 C 17.875255,29.592494 18.169822,29.528457 18.733347,29.528451 C 18.938264,29.528457 19.245638,29.541264 19.655476,29.566873 C 20.026886,29.592494 20.251013,29.605302 20.327861,29.605295 C 20.36628,29.605302 20.55839,29.58609 20.904191,29.547662 C 21.249986,29.509247 21.53815,29.490035 21.768686,29.490028 C 22.473086,29.490035 22.882921,29.637319 22.998191,29.931882 C 23.100645,30.175227 23.151874,30.431374 23.15188,30.700322 C 23.151874,30.841209 23.100645,31.19341 22.998191,31.756928 C 22.934149,32.064308 22.639581,32.461335 22.114485,32.948011 C 21.666224,33.357848 21.46771,33.575573 21.518944,33.601186 C 21.570169,33.626802 21.781489,33.626802 22.152907,33.601186 C 22.665196,33.575573 22.972572,33.562766 23.075036,33.562763 C 23.279948,33.562766 23.401617,33.581977 23.440045,33.620396 C 23.696185,33.863739 24.029176,34.004618 24.439017,34.043039 C 24.707964,34.068656 24.842441,34.190325 24.842449,34.408048 C 24.842441,34.484893 24.836037,34.580948 24.823237,34.696213 M 32.831228,28.068414 C 32.587883,28.31176 32.318928,28.43343 32.024366,28.433423 C 31.845057,28.43343 31.684966,28.369394 31.54409,28.241313 C 31.351976,28.074825 31.255921,27.812275 31.255925,27.453662 C 31.255921,27.056643 31.339169,26.787688 31.505669,26.646799 C 31.684966,26.49312 31.883479,26.416276 32.10121,26.416267 C 32.280506,26.416276 32.466213,26.467507 32.65833,26.569955 C 32.86324,26.672424 32.965698,26.941377 32.965705,27.376817 C 32.965698,27.748239 32.920872,27.97877 32.831228,28.068414 M 29.526935,30.296891 C 29.71904,30.437778 29.815095,30.674713 29.8151,31.007698 C 29.815095,31.6993 29.418069,32.736693 28.624016,34.119883 C 28.419097,34.491297 28.21418,34.86271 28.009265,35.234121 C 27.663464,35.733607 27.317667,35.983351 26.971871,35.983351 C 26.81818,35.983351 26.664493,35.938525 26.510806,35.848874 C 26.216237,35.669572 26.068952,35.419828 26.068952,35.099645 C 26.068952,34.779462 26.235448,34.369627 26.568439,33.87014 C 26.824584,33.511536 27.087135,33.159334 27.356091,32.813534 C 27.471355,32.647042 27.785134,32.070712 28.29743,31.084543 C 28.61761,30.469796 28.905775,30.162419 29.161926,30.162415 C 29.277188,30.162419 29.398858,30.207245 29.526935,30.296891 M 39.303538,33.101699 C 39.226686,33.524343 38.810448,33.876546 38.054823,34.158305 C 37.734632,34.286379 37.158302,34.440068 36.325831,34.619369 C 36.108102,34.670599 35.602213,34.702618 34.808162,34.715424 C 34.078139,34.715425 33.69392,34.728233 33.6555,34.753846 C 33.091975,35.150875 32.317132,36.290727 31.330969,38.173406 C 30.370419,40.004851 29.877336,40.926979 29.85172,40.939792 C 29.8133,40.965402 29.781281,40.978208 29.755665,40.978214 C 29.678823,40.978208 29.589172,40.914172 29.486711,40.786104 C 29.333025,40.619603 29.230566,40.517146 29.179335,40.478728 C 29.064071,40.427494 28.955208,40.369861 28.852748,40.305829 C 28.737483,40.241788 28.667043,40.152136 28.641426,40.036875 C 28.590201,39.729494 29.057668,38.672889 30.04383,36.867057 C 31.081225,34.997187 31.606326,34.049444 31.619134,34.023828 C 31.644748,33.831719 31.548693,33.639609 31.330969,33.447497 C 31.113243,33.242581 31.017188,33.005647 31.042803,32.736691 C 31.055611,32.493354 31.132454,32.301244 31.273335,32.160359 C 31.427024,32.006675 31.5615,31.942639 31.676766,31.968249 C 31.689574,31.981061 31.715189,32.141152 31.75361,32.448525 C 31.792032,32.755904 31.932912,32.915997 32.176252,32.928801 C 32.317132,32.94161 32.707756,32.294839 33.348124,30.988488 C 34.001296,29.669338 34.436746,29.028972 34.654473,29.067387 C 35.282028,29.118622 35.909588,29.163448 36.537153,29.201863 C 37.548926,29.329944 38.214908,29.58609 38.535098,29.970305 C 39.098613,30.661906 39.380374,31.468767 39.380383,32.390891 C 39.380374,32.634235 39.354759,32.87117 39.303538,33.101699 M 37.920345,31.353497 C 37.907531,31.289465 37.709018,31.225428 37.324803,31.161387 C 36.953385,31.084547 36.59478,31.046125 36.248988,31.046121 C 35.890378,31.046125 35.659845,31.09095 35.55739,31.180598 C 35.314048,31.38552 35.051497,31.660878 34.769739,32.006671 C 34.436746,32.442125 34.289461,32.723886 34.327886,32.851956 C 34.366305,32.99284 34.532801,33.06328 34.827372,33.063276 C 35.185973,33.06328 35.68546,32.967225 36.325831,32.775111 C 36.799697,32.621427 37.209531,32.36528 37.555336,32.006671 C 37.824283,31.712107 37.945954,31.494383 37.920345,31.353497"
       id="text2428"
       style="font-size:18px;font-style:normal;font-variant:normal;font-weight:normal;font-stretch:normal;opacity:0.4;fill:#000000;fill-opacity:1;stroke:none;stroke-width:1px;stroke-linecap:butt;stroke-linejoin:miter;stroke-opacity:1;font-family:Blunter;-inkscape-font-specification:Blunter" />
  </g>
</svg>
