<?xml version="1.0" encoding="UTF-8" standalone="no"?>
<!-- Created with Inkscape (http://www.inkscape.org/) -->

<svg
   xmlns:dc="http://purl.org/dc/elements/1.1/"
   xmlns:cc="http://creativecommons.org/ns#"
   xmlns:rdf="http://www.w3.org/1999/02/22-rdf-syntax-ns#"
   xmlns:svg="http://www.w3.org/2000/svg"
   xmlns="http://www.w3.org/2000/svg"
   xmlns:xlink="http://www.w3.org/1999/xlink"
   xmlns:sodipodi="http://sodipodi.sourceforge.net/DTD/sodipodi-0.dtd"
   xmlns:inkscape="http://www.inkscape.org/namespaces/inkscape"
   version="1.0"
   width="18"
   height="18"
   id="svg2482"
   sodipodi:version="0.32"
   inkscape:version="0.47 r22583"
   sodipodi:docname="buttonpaw2.svg"
   inkscape:output_extension="org.inkscape.output.svg.inkscape"
   inkscape:export-filename="/usr/share/icons/Furry/24x24/places/gnome-main-menu.png"
   inkscape:export-xdpi="2.2379711"
   inkscape:export-ydpi="2.2379711">
  <metadata
     id="metadata8">
    <rdf:RDF>
      <cc:Work
         rdf:about="">
        <dc:format>image/svg+xml</dc:format>
        <dc:type
           rdf:resource="http://purl.org/dc/dcmitype/StillImage" />
        <cc:license
           rdf:resource="http://creativecommons.org/licenses/by-sa/3.0/" />
        <dc:title></dc:title>
        <dc:creator>
          <cc:Agent>
            <dc:title>Shnatsel</dc:title>
          </cc:Agent>
        </dc:creator>
      </cc:Work>
      <cc:License
         rdf:about="http://creativecommons.org/licenses/by-sa/3.0/">
        <cc:permits
           rdf:resource="http://creativecommons.org/ns#Reproduction" />
        <cc:permits
           rdf:resource="http://creativecommons.org/ns#Distribution" />
        <cc:requires
           rdf:resource="http://creativecommons.org/ns#Notice" />
        <cc:requires
           rdf:resource="http://creativecommons.org/ns#Attribution" />
        <cc:permits
           rdf:resource="http://creativecommons.org/ns#DerivativeWorks" />
        <cc:requires
           rdf:resource="http://creativecommons.org/ns#ShareAlike" />
      </cc:License>
    </rdf:RDF>
  </metadata>
  <sodipodi:namedview
     inkscape:window-height="693"
     inkscape:window-width="1024"
     inkscape:pageshadow="2"
     inkscape:pageopacity="0"
     guidetolerance="10.0"
     gridtolerance="10.0"
     objecttolerance="10.0"
     borderopacity="1.0"
     bordercolor="#666666"
     pagecolor="#323232"
     id="base"
     showgrid="true"
     inkscape:zoom="25.043365"
     inkscape:cx="10.522965"
     inkscape:cy="11.899583"
     inkscape:window-x="0"
     inkscape:window-y="24"
     inkscape:current-layer="svg2482"
     inkscape:window-maximized="1">
    <inkscape:grid
       type="xygrid"
       id="grid2831"
       empspacing="5"
       visible="true"
       enabled="true"
       snapvisiblegridlinesonly="true" />
  </sodipodi:namedview>
  <defs
     id="defs2484">
    <linearGradient
       id="linearGradient3694">
      <stop
         style="stop-color:#272624;stop-opacity:1;"
         offset="0"
         id="stop3696" />
      <stop
         id="stop3702"
         offset="0.5"
         style="stop-color:#474644;stop-opacity:1;" />
      <stop
         style="stop-color:#575755;stop-opacity:1;"
         offset="1"
         id="stop3698" />
    </linearGradient>
    <linearGradient
       id="linearGradient3684">
      <stop
         style="stop-color:#fdfcf9;stop-opacity:1;"
         offset="0"
         id="stop3686" />
      <stop
         id="stop3692"
         offset="0.5"
         style="stop-color:#f8f4f0;stop-opacity:1;" />
      <stop
         style="stop-color:#e4ddcf;stop-opacity:1;"
         offset="1"
         id="stop3688" />
    </linearGradient>
    <inkscape:perspective
       sodipodi:type="inkscape:persp3d"
       inkscape:vp_x="0 : 442.36267 : 1"
       inkscape:vp_y="0 : 1000 : 0"
       inkscape:vp_z="799.15808 : 442.36267 : 1"
       inkscape:persp3d-origin="399.57904 : 294.90845 : 1"
       id="perspective10" />
    <inkscape:perspective
       id="perspective3605"
       inkscape:persp3d-origin="0.5 : 0.33333333 : 1"
       inkscape:vp_z="1 : 0.5 : 1"
       inkscape:vp_y="0 : 1000 : 0"
       inkscape:vp_x="0 : 0.5 : 1"
       sodipodi:type="inkscape:persp3d" />
    <inkscape:perspective
       id="perspective3666"
       inkscape:persp3d-origin="0.5 : 0.33333333 : 1"
       inkscape:vp_z="1 : 0.5 : 1"
       inkscape:vp_y="0 : 1000 : 0"
       inkscape:vp_x="0 : 0.5 : 1"
       sodipodi:type="inkscape:persp3d" />
    <linearGradient
       inkscape:collect="always"
       xlink:href="#linearGradient3684"
       id="linearGradient3690"
       x1="12"
       y1="5.0000019"
       x2="12"
       y2="18.999998"
       gradientUnits="userSpaceOnUse"
       gradientTransform="translate(-2.9999997,-3)" />
    <linearGradient
       inkscape:collect="always"
       xlink:href="#linearGradient3694"
       id="linearGradient3700"
       x1="12.004673"
       y1="4.7142816"
       x2="12.004673"
       y2="19.281673"
       gradientUnits="userSpaceOnUse" />
    <linearGradient
       inkscape:collect="always"
       xlink:href="#linearGradient3694"
       id="linearGradient3706"
       gradientUnits="userSpaceOnUse"
       x1="12.004673"
       y1="4.7142816"
       x2="12.004673"
       y2="19.281673" />
    <linearGradient
       inkscape:collect="always"
       xlink:href="#linearGradient3694"
       id="linearGradient2828"
       gradientUnits="userSpaceOnUse"
       x1="12.004673"
       y1="4.7142816"
       x2="12.004673"
       y2="19.281673" />
    <linearGradient
       inkscape:collect="always"
       xlink:href="#linearGradient3694"
       id="linearGradient2829"
       gradientUnits="userSpaceOnUse"
       x1="12.004673"
       y1="4.7142816"
       x2="12.004673"
       y2="19.281673" />
  </defs>
  <path
     sodipodi:type="inkscape:offset"
     inkscape:radius="1.1347597"
     inkscape:original="M 11.5 4.65625 C 10.825629 4.6729658 10.354859 5.1306108 10.03125 5.5 C 9.654591 5.929946 9.3004205 6.4263682 9.15625 7.03125 A 0.089296769 0.089296769 0 0 0 9.15625 7.0625 C 9.15625 7.0631527 9.1562302 7.0922901 9.15625 7.09375 C 9.0087767 8.1078812 9.3568626 9.1847727 10.125 9.9375 C 10.130448 9.9428385 10.119508 9.9634473 10.125 9.96875 C 10.125 9.96875 10.12394 9.9981275 10.125 10 C 10.125 10 10.145282 10.002503 10.15625 10 C 10.157342 10.001896 10.15625 10.03125 10.15625 10.03125 C 10.15625 10.03125 10.185601 10.030158 10.1875 10.03125 C 10.190971 10.020548 10.183533 10.012231 10.1875 10 L 10.21875 9.96875 C 10.218828 9.968768 10.21862 10.062486 10.21875 10.0625 C 10.608467 10.307316 11.061684 10.355646 11.46875 10.3125 C 11.816664 10.274623 12.071326 10.061181 12.21875 9.84375 C 12.357915 9.6384992 12.459706 9.3952059 12.53125 9.25 C 12.853263 8.4934448 13.274875 7.7404874 13.71875 7.03125 A 0.089296769 0.089296769 0 0 0 13.75 7 A 0.089296769 0.089296769 0 0 0 13.75 6.96875 A 0.089296769 0.089296769 0 0 0 13.75 6.9375 C 13.921423 6.6098619 13.904073 6.2513078 13.8125 5.9375 C 13.72021 5.6212321 13.524941 5.3650487 13.3125 5.15625 C 12.791808 4.6444889 12.068313 4.6421633 11.5 4.65625 z M 14.96875 6.375 C 14.620439 6.417005 14.278621 6.5428102 14 6.8125 C 13.798241 7.0077922 13.604168 7.3263169 13.4375 7.65625 C 13.272094 7.9836843 13.11296 8.3082955 13 8.625 C 12.840142 9.073189 12.569944 9.5449617 12.375 10.0625 C 12.227746 10.453426 12.433499 10.832677 12.65625 11.0625 C 12.877583 11.290861 13.169048 11.453481 13.375 11.5625 C 13.625334 11.695014 13.901555 11.8364 14.28125 11.78125 C 14.904363 11.684491 15.524127 11.386887 16 11 C 16.471727 10.616481 16.950513 10.209448 17.3125 9.65625 C 17.653972 9.1344078 17.570552 8.5020978 17.4375 8.03125 C 17.346908 7.7106557 17.192596 7.3782661 16.96875 7.0625 C 16.743059 6.744132 16.397959 6.4588166 15.9375 6.40625 C 15.645623 6.3729294 15.317047 6.3329967 14.96875 6.375 z M 7.4375 6.71875 C 7.1426623 6.7566402 6.8694263 6.9097026 6.65625 7.0625 C 6.3620782 7.2733522 6.13272 7.5283584 5.9375 7.75 C 5.4223399 8.3348837 5.2690269 9.0927937 5.375 9.8125 C 5.4651276 10.424592 5.8902261 10.918654 6.375 11.21875 C 6.3798477 11.221751 6.3701376 11.247037 6.375 11.25 C 6.375 11.25 6.3960802 11.254812 6.40625 11.25 C 6.40625 11.25 6.4305035 11.254594 6.4375 11.25 A 0.089296769 0.089296769 0 0 0 6.4375 11.28125 A 0.089296769 0.089296769 0 0 0 6.4375 11.3125 C 6.4375965 11.312519 6.468606 11.312485 6.46875 11.3125 C 6.4729139 11.312469 6.4962664 11.31259 6.5 11.3125 L 6.5625 11.3125 C 6.5721361 11.316965 6.5840547 11.308272 6.59375 11.3125 C 7.0785174 11.523907 7.6225105 11.441581 7.96875 11.0625 C 7.9763486 11.05418 7.981956 11.052679 8 11.03125 C 8.3975478 10.666374 8.8092721 10.206459 8.96875 9.625 C 8.9987773 9.5155141 8.9948967 9.3692789 8.96875 9.25 C 8.8630576 8.7678373 8.674254 8.3802357 8.625 8 C 8.6249299 7.9924719 8.6250323 7.9781546 8.625 7.96875 C 8.6243321 7.7741623 8.6288223 7.5098888 8.53125 7.25 C 8.428307 6.9758061 8.1275994 6.7435227 7.75 6.71875 C 7.7295097 6.7174057 7.7270188 6.7190022 7.71875 6.71875 C 7.6184715 6.7104117 7.5386355 6.7057529 7.4375 6.71875 z M 13.5625 6.9375 A 0.089296769 0.089296769 0 0 0 13.59375 6.9375 A 0.089296769 0.089296769 0 0 0 13.59375 6.96875 L 13.5625 6.96875 C 13.562106 6.9672824 13.562872 6.9389731 13.5625 6.9375 z M 10.4375 10.6875 C 10.075968 10.705351 9.6931019 10.816934 9.375 11 C 9.3671778 11.004502 9.3515099 10.995387 9.34375 11 A 0.089296769 0.089296769 0 0 0 9.3125 11 A 0.089296769 0.089296769 0 0 0 9.3125 11.03125 A 0.089296769 0.089296769 0 0 0 9.28125 11.03125 C 9.28125 11.03125 9.2823424 11.060601 9.28125 11.0625 C 9.291952 11.065971 9.3002692 11.058533 9.3125 11.0625 L 9.3125 11.09375 C 9.2874189 11.088078 9.25 11.09375 9.25 11.09375 C 8.9400966 11.342123 8.6855404 11.55567 8.40625 11.65625 C 8.3977141 11.659324 8.3835769 11.653407 8.375 11.65625 A 0.089296769 0.089296769 0 0 0 8.34375 11.65625 A 0.089296769 0.089296769 0 0 0 8.3125 11.6875 C 8.3125 11.6875 8.3135924 11.716851 8.3125 11.71875 C 8.3114076 11.720649 8.28125 11.71875 8.28125 11.71875 C 7.8357127 11.916153 7.237529 12.001699 6.6875 12.34375 C 6.6799396 12.348452 6.6637977 12.338945 6.65625 12.34375 A 0.089296769 0.089296769 0 0 0 6.625 12.34375 A 0.089296769 0.089296769 0 0 0 6.625 12.375 A 0.089296769 0.089296769 0 0 0 6.59375 12.375 C 6.59375 12.375 6.5948424 12.404351 6.59375 12.40625 C 6.6080193 12.410878 6.6107307 12.432872 6.625 12.4375 C 6.6004977 12.429697 6.5625 12.4375 6.5625 12.4375 C 5.9622296 12.954103 5.4587694 13.662989 5.34375 14.5 C 5.2105589 15.553738 5.6713329 16.765284 6.71875 17.28125 A 0.089296769 0.089296769 0 0 0 6.75 17.28125 A 0.089296769 0.089296769 0 0 0 6.78125 17.28125 C 7.0566048 17.428766 7.3362768 17.460163 7.5625 17.46875 C 7.7955228 17.477595 7.9393049 17.473476 8.0625 17.53125 C 8.6014341 17.776971 9.2534466 18.390692 10.15625 18.3125 C 10.208094 18.304745 10.264062 18.302389 10.28125 18.3125 C 10.310669 18.329806 10.305467 18.347648 10.34375 18.40625 C 10.420954 18.524434 10.505117 18.754941 10.6875 18.96875 C 11.09655 19.382546 11.692191 19.328701 12 19.34375 C 12.000645 19.34375 12.02979 19.34377 12.03125 19.34375 C 12.484194 19.308114 12.809637 19.04978 13.0625 18.78125 C 13.316124 18.511911 13.52004 18.211804 13.6875 17.96875 C 14.016524 17.504021 14.321529 16.894485 14.15625 16.21875 C 13.983579 15.255442 13.569696 14.449601 13.53125 13.625 C 13.531299 13.62427 13.531272 13.601218 13.53125 13.59375 C 13.531272 13.586282 13.5313 13.56323 13.53125 13.5625 A 0.089296769 0.089296769 0 0 0 13.53125 13.53125 C 13.490437 13.344719 13.477566 13.118317 13.4375 12.84375 C 13.39994 12.586354 13.301779 12.307977 13.09375 12.0625 C 13.093931 12.058684 13.093667 12.036656 13.09375 12.03125 C 13.093542 12.028309 13.093809 12.000259 13.09375 12 C 13.09375 12 13.072669 11.995187 13.0625 12 C 13.055551 12.004666 13.040516 11.993778 13.03125 12 C 13.036595 11.990103 13.03125 11.96875 13.03125 11.96875 A 0.089296769 0.089296769 0 0 0 13.03125 11.9375 C 13.031153 11.937481 13.000144 11.937515 13 11.9375 C 12.995113 11.931835 12.974609 11.941766 12.96875 11.9375 C 12.493033 11.591106 11.995147 11.346582 11.5625 11.0625 C 11.558555 11.059528 11.533471 11.033778 11.53125 11.03125 C 11.206215 10.798334 10.826725 10.668282 10.4375 10.6875 z M 17.1875 10.75 C 16.93013 10.750348 16.673666 10.847648 16.46875 11.03125 C 15.801043 11.534738 15.19691 12.04494 14.65625 12.71875 C 14.429944 13.000787 14.339411 13.34623 14.375 13.65625 C 14.410404 13.964671 14.533133 14.212396 14.65625 14.4375 C 14.761616 14.630149 14.940511 14.843835 15.1875 14.90625 C 16.011363 15.114456 16.784307 14.716697 17.375 14.46875 L 17.34375 14.375 L 17.3125 14.28125 C 17.313968 14.280856 17.342277 14.281622 17.34375 14.28125 C 17.345269 14.281228 17.373481 14.28125 17.375 14.28125 C 17.376473 14.281622 17.404782 14.280856 17.40625 14.28125 L 17.375 14.375 L 17.40625 14.46875 C 18.230454 14.103222 18.514713 13.258621 18.65625 12.5625 C 18.775647 11.975271 18.569058 11.236186 17.9375 10.9375 C 17.690647 10.820753 17.443493 10.749654 17.1875 10.75 z M 8.3125 11.84375 A 0.089296769 0.089296769 0 0 0 8.34375 11.84375 A 0.089296769 0.089296769 0 0 0 8.34375 11.875 C 8.3422769 11.874628 8.3139676 11.875394 8.3125 11.875 L 8.3125 11.84375 z M 12.96875 12.09375 A 0.089296769 0.089296769 0 0 0 13 12.09375 L 13 12.125 C 12.998532 12.125394 12.970223 12.124628 12.96875 12.125 A 0.089296769 0.089296769 0 0 0 12.96875 12.09375 z M 6.75 17.09375 C 6.7514676 17.093356 6.7797769 17.094122 6.78125 17.09375 A 0.089296769 0.089296769 0 0 0 6.78125 17.125 L 6.75 17.125 L 6.75 17.09375 z "
     style="fill:url(#linearGradient2829);fill-opacity:1"
     id="path2827"
     d="M 11.46875,3.53125 C 10.294546,3.5603553 9.5644368,4.3197389 9.1875,4.75 8.9544452,5.0160258 8.7757156,5.4733601 8.5625,5.84375 8.327322,5.735767 8.0862275,5.6117081 7.8125,5.59375 c -0.013536,-0.00113 -0.04686,0.00113 -0.0625,0 -0.1172982,-0.00845 -0.2834378,-0.023815 -0.46875,0 C 6.6911212,5.6695887 6.2946974,5.9137711 6,6.125 5.5807142,6.4255296 5.2950057,6.7715058 5.09375,7 4.3310191,7.8659616 4.1043237,8.9794033 4.25,9.96875 c 0.1199878,0.814884 0.5982261,1.399727 1.125,1.84375 0.033893,0.02857 0.059199,0.06671 0.09375,0.09375 0.00605,0.0047 0.025181,-0.0047 0.03125,0 0.00548,0.0042 -0.0055,0.02705 0,0.03125 -0.6067576,0.619178 -1.1429865,1.400089 -1.28125,2.40625 -0.1875916,1.484126 0.43924,3.199907 2,3.96875 a 1.1348731,1.1348731 0 0 0 0.3125,0.09375 c -0.010058,-0.0018 0.012054,-0.0024 0.03125,0 0.038392,0.0048 0.082852,0.0018 0.0625,0 0.019157,0.0027 0.041426,8.97e-4 0.03125,0 0.033126,9.52e-4 0.116735,0 0.09375,0 0.2794657,0.07388 0.6011881,0.180665 0.78125,0.1875 0.2640462,0.01002 0.2653768,0.06389 0.0625,-0.03125 0.1656299,0.07552 0.9372476,0.587475 1.96875,0.75 0.066845,0.130565 0.051798,0.173896 0.25,0.40625 a 1.1348731,1.1348731 0 0 0 0.0625,0.0625 c 0.830843,0.840483 1.95787,0.682385 2.0625,0.6875 a 1.1348731,1.1348731 0 0 0 0.0625,0 c -0.02281,0 0.02979,2e-5 0.03125,0 a 1.1348731,1.1348731 0 0 0 0.09375,0 c 0.838067,-0.06594 1.413012,-0.548383 1.75,-0.90625 0.333924,-0.354614 0.585956,-0.699404 0.75,-0.9375 0.396079,-0.559441 0.850465,-1.497178 0.625,-2.59375 l 0.03125,0 c -0.0025,-0.01386 0.0025,-0.01749 0,-0.03125 0.992331,0.115704 1.784996,-0.181925 2.28125,-0.40625 0.06754,-0.03053 0.19469,-0.07053 0.25,-0.09375 a 1.1348731,1.1348731 0 0 0 0.09375,-0.03125 c 0.03865,-0.01792 0.05668,-0.04336 0.09375,-0.0625 a 1.1348731,1.1348731 0 0 0 0.34375,-0.34375 c 0.857713,-0.6648 1.300699,-1.608422 1.4375,-2.28125 0.20736,-1.019859 -0.14462,-2.307889 -1.34375,-2.875 -0.01668,-0.00789 -0.04551,0.00772 -0.0625,0 0.362363,-0.8241535 0.30482,-1.6617363 0.15625,-2.1875 C 18.404775,7.2711698 18.205082,6.8277948 17.90625,6.40625 17.549918,5.9035951 16.919216,5.3790539 16.0625,5.28125 15.776781,5.2486324 15.361145,5.1876041 14.84375,5.25 c -0.04122,0.00497 -0.0829,0.055632 -0.125,0.0625 -0.178079,-0.3773421 -0.400494,-0.7480931 -0.625,-0.96875 -0.894251,-0.8789126 -2.029744,-0.8272545 -2.625,-0.8125 z"
     transform="translate(-3.0084646,-2.9982722)" />
  <path
     d="M 7.9418493,15.74962 C 7.6962363,15.461687 7.6182493,14.878931 7.1201503,14.953431 6.3973088,15.016036 5.8313092,14.493572 5.2139961,14.212115 4.7972021,14.016653 4.3097739,14.211517 3.8986118,13.97519 2.9954912,13.543651 2.5745515,12.462075 2.6916983,11.53527 2.7938259,10.792075 3.2479458,10.13117 3.8156095,9.652276 4.3076782,9.327548 4.9275525,9.262225 5.4602451,9.014786 5.8747778,8.889061 6.1674603,8.586335 6.4916069,8.32807 7.0365143,7.988658 7.8060283,7.885698 8.3572543,8.30092 c 0.479448,0.320353 1.003438,0.579687 1.465675,0.921648 0.3609867,0.380499 0.2727937,0.936892 0.3752437,1.405131 0.04288,0.919686 0.442037,1.776513 0.603266,2.675986 0.131608,0.538072 -0.08796,1.060726 -0.392536,1.490923 -0.348479,0.505785 -0.7216347,1.15058 -1.4182617,1.20539 -0.347318,-0.01698 -0.783015,0.01848 -1.048792,-0.250381 z M 11.955592,11.313354 C 11.735943,10.911752 11.573981,10.346587 11.892622,9.949475 12.407233,9.30813 13.044147,8.77022 13.70133,8.274668 c 0.299604,-0.268441 0.633325,-0.228857 1.072908,-0.02096 0.463853,0.219372 0.621277,0.761097 0.527237,1.223614 -0.136746,0.672557 -0.375695,1.404312 -1.072606,1.692455 -0.605034,0.253966 -1.281895,0.558578 -1.954012,0.388721 -0.132565,-0.0335 -0.254759,-0.127202 -0.319263,-0.24514 z M 3.5919016,7.95711 C 3.1549933,7.703501 2.8080592,7.2874 2.7337162,6.7825069 c -0.094381,-0.64098 0.021828,-1.329395 0.4570769,-1.823552 0.387787,-0.440271 0.8775035,-0.975551 1.5389818,-0.904763 0.5763382,0.01758 0.5413526,0.546102 0.5451397,0.95222 0.052511,0.458469 0.2619191,0.881959 0.3598814,1.328858 0.016914,0.07716 0.018423,0.153687 0.00364,0.207589 C 5.5015907,7.0418 5.1409715,7.465596 4.7590611,7.810249 4.4996996,8.11828 4.0958854,8.206457 3.6994931,8.010341 l -0.1075909,-0.05323 -6e-7,0 z M 10.491869,8.261925 C 10.091004,8.049731 9.5196283,7.691928 9.7133843,7.177548 9.8947943,6.6959409 10.167168,6.2537369 10.341439,5.7651379 c 0.21258,-0.596007 0.611152,-1.436346 0.872556,-1.689371 0.419174,-0.405737 1.112937,-0.395774 1.679151,-0.331135 0.69139,0.07893 1.036724,0.811612 1.205223,1.407909 0.124209,0.439556 0.177157,0.9242 -0.07839,1.31473 -0.327955,0.501188 -0.78728,0.9159931 -1.252206,1.2939821 -0.42898,0.348763 -0.970199,0.585514 -1.52625,0.671859 -0.26203,0.03806 -0.51832,-0.04873 -0.749656,-0.171187 z M 7.3784043,6.7400159 C 6.6676737,6.0740029 6.3665153,5.0434869 6.5014787,4.1153829 6.6276083,3.5861939 6.9406178,3.1263459 7.2945483,2.7223438 c 0.305165,-0.348337 0.68345,-0.7072459 1.205514,-0.7201864 0.550534,-0.013646 1.190579,0.02756 1.5868287,0.4170143 0.342256,0.336387 0.579414,0.9445282 0.337194,1.4074812 -0.4545957,0.725148 -0.8742147,1.472946 -1.2096717,2.261086 -0.178876,0.33984 -0.299822,0.836589 -0.761393,0.886839 -0.364258,0.038609 -0.76409,-0.02742 -1.074616,-0.234562 z"
     id="path2463-0"
     style="fill:url(#linearGradient3690);fill-opacity:1"
     sodipodi:nodetypes="ccscccccccccccccscssssscssccsscscccsssssssssccsssccsc" />
</svg>
