<?xml version="1.0" encoding="UTF-8" standalone="no"?>
<!-- Created with Inkscape (http://www.inkscape.org/) -->

<svg
   xmlns:dc="http://purl.org/dc/elements/1.1/"
   xmlns:cc="http://creativecommons.org/ns#"
   xmlns:rdf="http://www.w3.org/1999/02/22-rdf-syntax-ns#"
   xmlns:svg="http://www.w3.org/2000/svg"
   xmlns="http://www.w3.org/2000/svg"
   xmlns:xlink="http://www.w3.org/1999/xlink"
   xmlns:sodipodi="http://sodipodi.sourceforge.net/DTD/sodipodi-0.dtd"
   xmlns:inkscape="http://www.inkscape.org/namespaces/inkscape"
   version="1.0"
   width="16"
   height="16"
   id="svg2482"
   sodipodi:version="0.32"
   inkscape:version="0.47 r22583"
   sodipodi:docname="buttonpaw.svg"
   inkscape:output_extension="org.inkscape.output.svg.inkscape"
   inkscape:export-filename="/usr/share/icons/Furry/24x24/places/gnome-main-menu.png"
   inkscape:export-xdpi="2.2379711"
   inkscape:export-ydpi="2.2379711">
  <metadata
     id="metadata8">
    <rdf:RDF>
      <cc:Work
         rdf:about="">
        <dc:format>image/svg+xml</dc:format>
        <dc:type
           rdf:resource="http://purl.org/dc/dcmitype/StillImage" />
        <cc:license
           rdf:resource="http://creativecommons.org/licenses/by-sa/3.0/" />
        <dc:title></dc:title>
        <dc:creator>
          <cc:Agent>
            <dc:title>Shnatsel</dc:title>
          </cc:Agent>
        </dc:creator>
      </cc:Work>
      <cc:License
         rdf:about="http://creativecommons.org/licenses/by-sa/3.0/">
        <cc:permits
           rdf:resource="http://creativecommons.org/ns#Reproduction" />
        <cc:permits
           rdf:resource="http://creativecommons.org/ns#Distribution" />
        <cc:requires
           rdf:resource="http://creativecommons.org/ns#Notice" />
        <cc:requires
           rdf:resource="http://creativecommons.org/ns#Attribution" />
        <cc:permits
           rdf:resource="http://creativecommons.org/ns#DerivativeWorks" />
        <cc:requires
           rdf:resource="http://creativecommons.org/ns#ShareAlike" />
      </cc:License>
    </rdf:RDF>
  </metadata>
  <sodipodi:namedview
     inkscape:window-height="693"
     inkscape:window-width="1024"
     inkscape:pageshadow="2"
     inkscape:pageopacity="0"
     guidetolerance="10.0"
     gridtolerance="10.0"
     objecttolerance="10.0"
     borderopacity="1.0"
     bordercolor="#666666"
     pagecolor="#323232"
     id="base"
     showgrid="true"
     inkscape:zoom="17.708333"
     inkscape:cx="11.326306"
     inkscape:cy="9.6943319"
     inkscape:window-x="0"
     inkscape:window-y="24"
     inkscape:current-layer="svg2482"
     inkscape:window-maximized="1">
    <inkscape:grid
       type="xygrid"
       id="grid2831" />
  </sodipodi:namedview>
  <defs
     id="defs2484">
    <linearGradient
       id="linearGradient3694">
      <stop
         style="stop-color:#272624;stop-opacity:1;"
         offset="0"
         id="stop3696" />
      <stop
         id="stop3702"
         offset="0.5"
         style="stop-color:#474644;stop-opacity:1;" />
      <stop
         style="stop-color:#575755;stop-opacity:1;"
         offset="1"
         id="stop3698" />
    </linearGradient>
    <linearGradient
       id="linearGradient3684">
      <stop
         style="stop-color:#fdfcf9;stop-opacity:1;"
         offset="0"
         id="stop3686" />
      <stop
         id="stop3692"
         offset="0.5"
         style="stop-color:#f8f4f0;stop-opacity:1;" />
      <stop
         style="stop-color:#e4ddcf;stop-opacity:1;"
         offset="1"
         id="stop3688" />
    </linearGradient>
    <inkscape:perspective
       sodipodi:type="inkscape:persp3d"
       inkscape:vp_x="0 : 442.36267 : 1"
       inkscape:vp_y="0 : 1000 : 0"
       inkscape:vp_z="799.15808 : 442.36267 : 1"
       inkscape:persp3d-origin="399.57904 : 294.90845 : 1"
       id="perspective10" />
    <inkscape:perspective
       id="perspective3605"
       inkscape:persp3d-origin="0.5 : 0.33333333 : 1"
       inkscape:vp_z="1 : 0.5 : 1"
       inkscape:vp_y="0 : 1000 : 0"
       inkscape:vp_x="0 : 0.5 : 1"
       sodipodi:type="inkscape:persp3d" />
    <inkscape:perspective
       id="perspective3666"
       inkscape:persp3d-origin="0.5 : 0.33333333 : 1"
       inkscape:vp_z="1 : 0.5 : 1"
       inkscape:vp_y="0 : 1000 : 0"
       inkscape:vp_x="0 : 0.5 : 1"
       sodipodi:type="inkscape:persp3d" />
    <linearGradient
       inkscape:collect="always"
       xlink:href="#linearGradient3684"
       id="linearGradient3690"
       x1="12"
       y1="5.0000019"
       x2="12"
       y2="18.999998"
       gradientUnits="userSpaceOnUse"
       gradientTransform="translate(-3.9999998,-4)" />
    <linearGradient
       inkscape:collect="always"
       xlink:href="#linearGradient3694"
       id="linearGradient3700"
       x1="12.004673"
       y1="4.7142816"
       x2="12.004673"
       y2="19.281673"
       gradientUnits="userSpaceOnUse" />
    <linearGradient
       inkscape:collect="always"
       xlink:href="#linearGradient3694"
       id="linearGradient3706"
       gradientUnits="userSpaceOnUse"
       x1="12.004673"
       y1="4.7142816"
       x2="12.004673"
       y2="19.281673" />
    <linearGradient
       inkscape:collect="always"
       xlink:href="#linearGradient3694"
       id="linearGradient2828"
       gradientUnits="userSpaceOnUse"
       x1="12.004673"
       y1="4.7142816"
       x2="12.004673"
       y2="19.281673" />
    <linearGradient
       inkscape:collect="always"
       xlink:href="#linearGradient3694"
       id="linearGradient2829"
       gradientUnits="userSpaceOnUse"
       x1="12.004673"
       y1="4.7142816"
       x2="12.004673"
       y2="19.281673" />
  </defs>
  <path
     sodipodi:type="inkscape:offset"
     inkscape:radius="0.57172114"
     inkscape:original="M 11.5 4.65625 C 10.825629 4.6729658 10.354859 5.1306108 10.03125 5.5 C 9.654591 5.929946 9.3004205 6.4263682 9.15625 7.03125 A 0.089296769 0.089296769 0 0 0 9.15625 7.0625 C 9.15625 7.0631527 9.1562302 7.0922901 9.15625 7.09375 C 9.0087767 8.1078812 9.3568626 9.1847727 10.125 9.9375 C 10.130448 9.9428385 10.119508 9.9634473 10.125 9.96875 C 10.125 9.96875 10.12394 9.9981275 10.125 10 C 10.125 10 10.145282 10.002503 10.15625 10 C 10.157342 10.001896 10.15625 10.03125 10.15625 10.03125 C 10.15625 10.03125 10.185601 10.030158 10.1875 10.03125 C 10.190971 10.020548 10.183533 10.012231 10.1875 10 L 10.21875 9.96875 C 10.218828 9.968768 10.21862 10.062486 10.21875 10.0625 C 10.608467 10.307316 11.061684 10.355646 11.46875 10.3125 C 11.816664 10.274623 12.071326 10.061181 12.21875 9.84375 C 12.357915 9.6384992 12.459706 9.3952059 12.53125 9.25 C 12.853263 8.4934448 13.274875 7.7404874 13.71875 7.03125 A 0.089296769 0.089296769 0 0 0 13.75 7 A 0.089296769 0.089296769 0 0 0 13.75 6.96875 A 0.089296769 0.089296769 0 0 0 13.75 6.9375 C 13.921423 6.6098619 13.904073 6.2513078 13.8125 5.9375 C 13.72021 5.6212321 13.524941 5.3650487 13.3125 5.15625 C 12.791808 4.6444889 12.068313 4.6421633 11.5 4.65625 z M 14.96875 6.375 C 14.620439 6.417005 14.278621 6.5428102 14 6.8125 C 13.798241 7.0077922 13.604168 7.3263169 13.4375 7.65625 C 13.272094 7.9836843 13.11296 8.3082955 13 8.625 C 12.840142 9.073189 12.569944 9.5449617 12.375 10.0625 C 12.227746 10.453426 12.433499 10.832677 12.65625 11.0625 C 12.877583 11.290861 13.169048 11.453481 13.375 11.5625 C 13.625334 11.695014 13.901555 11.8364 14.28125 11.78125 C 14.904363 11.684491 15.524127 11.386887 16 11 C 16.471727 10.616481 16.950513 10.209448 17.3125 9.65625 C 17.653972 9.1344078 17.570552 8.5020978 17.4375 8.03125 C 17.346908 7.7106557 17.192596 7.3782661 16.96875 7.0625 C 16.743059 6.744132 16.397959 6.4588166 15.9375 6.40625 C 15.645623 6.3729294 15.317047 6.3329967 14.96875 6.375 z M 7.4375 6.71875 C 7.1426623 6.7566402 6.8694263 6.9097026 6.65625 7.0625 C 6.3620782 7.2733522 6.13272 7.5283584 5.9375 7.75 C 5.4223399 8.3348837 5.2690269 9.0927937 5.375 9.8125 C 5.4651276 10.424592 5.8902261 10.918654 6.375 11.21875 C 6.3798477 11.221751 6.3701376 11.247037 6.375 11.25 C 6.375 11.25 6.3960802 11.254812 6.40625 11.25 C 6.40625 11.25 6.4305035 11.254594 6.4375 11.25 A 0.089296769 0.089296769 0 0 0 6.4375 11.28125 A 0.089296769 0.089296769 0 0 0 6.4375 11.3125 C 6.4375965 11.312519 6.468606 11.312485 6.46875 11.3125 C 6.4729139 11.312469 6.4962664 11.31259 6.5 11.3125 L 6.5625 11.3125 C 6.5721361 11.316965 6.5840547 11.308272 6.59375 11.3125 C 7.0785174 11.523907 7.6225105 11.441581 7.96875 11.0625 C 7.9763486 11.05418 7.981956 11.052679 8 11.03125 C 8.3975478 10.666374 8.8092721 10.206459 8.96875 9.625 C 8.9987773 9.5155141 8.9948967 9.3692789 8.96875 9.25 C 8.8630576 8.7678373 8.674254 8.3802357 8.625 8 C 8.6249299 7.9924719 8.6250323 7.9781546 8.625 7.96875 C 8.6243321 7.7741623 8.6288223 7.5098888 8.53125 7.25 C 8.428307 6.9758061 8.1275994 6.7435227 7.75 6.71875 C 7.7295097 6.7174057 7.7270188 6.7190022 7.71875 6.71875 C 7.6184715 6.7104117 7.5386355 6.7057529 7.4375 6.71875 z M 13.5625 6.9375 A 0.089296769 0.089296769 0 0 0 13.59375 6.9375 A 0.089296769 0.089296769 0 0 0 13.59375 6.96875 L 13.5625 6.96875 C 13.562106 6.9672824 13.562872 6.9389731 13.5625 6.9375 z M 10.4375 10.6875 C 10.075968 10.705351 9.6931019 10.816934 9.375 11 C 9.3671778 11.004502 9.3515099 10.995387 9.34375 11 A 0.089296769 0.089296769 0 0 0 9.3125 11 A 0.089296769 0.089296769 0 0 0 9.3125 11.03125 A 0.089296769 0.089296769 0 0 0 9.28125 11.03125 C 9.28125 11.03125 9.2823424 11.060601 9.28125 11.0625 C 9.291952 11.065971 9.3002692 11.058533 9.3125 11.0625 L 9.3125 11.09375 C 9.2874189 11.088078 9.25 11.09375 9.25 11.09375 C 8.9400966 11.342123 8.6855404 11.55567 8.40625 11.65625 C 8.3977141 11.659324 8.3835769 11.653407 8.375 11.65625 A 0.089296769 0.089296769 0 0 0 8.34375 11.65625 A 0.089296769 0.089296769 0 0 0 8.3125 11.6875 C 8.3125 11.6875 8.3135924 11.716851 8.3125 11.71875 C 8.3114076 11.720649 8.28125 11.71875 8.28125 11.71875 C 7.8357127 11.916153 7.237529 12.001699 6.6875 12.34375 C 6.6799396 12.348452 6.6637977 12.338945 6.65625 12.34375 A 0.089296769 0.089296769 0 0 0 6.625 12.34375 A 0.089296769 0.089296769 0 0 0 6.625 12.375 A 0.089296769 0.089296769 0 0 0 6.59375 12.375 C 6.59375 12.375 6.5948424 12.404351 6.59375 12.40625 C 6.6080193 12.410878 6.6107307 12.432872 6.625 12.4375 C 6.6004977 12.429697 6.5625 12.4375 6.5625 12.4375 C 5.9622296 12.954103 5.4587694 13.662989 5.34375 14.5 C 5.2105589 15.553738 5.6713329 16.765284 6.71875 17.28125 A 0.089296769 0.089296769 0 0 0 6.75 17.28125 A 0.089296769 0.089296769 0 0 0 6.78125 17.28125 C 7.0566048 17.428766 7.3362768 17.460163 7.5625 17.46875 C 7.7955228 17.477595 7.9393049 17.473476 8.0625 17.53125 C 8.6014341 17.776971 9.2534466 18.390692 10.15625 18.3125 C 10.208094 18.304745 10.264062 18.302389 10.28125 18.3125 C 10.310669 18.329806 10.305467 18.347648 10.34375 18.40625 C 10.420954 18.524434 10.505117 18.754941 10.6875 18.96875 C 11.09655 19.382546 11.692191 19.328701 12 19.34375 C 12.000645 19.34375 12.02979 19.34377 12.03125 19.34375 C 12.484194 19.308114 12.809637 19.04978 13.0625 18.78125 C 13.316124 18.511911 13.52004 18.211804 13.6875 17.96875 C 14.016524 17.504021 14.321529 16.894485 14.15625 16.21875 C 13.983579 15.255442 13.569696 14.449601 13.53125 13.625 C 13.531299 13.62427 13.531272 13.601218 13.53125 13.59375 C 13.531272 13.586282 13.5313 13.56323 13.53125 13.5625 A 0.089296769 0.089296769 0 0 0 13.53125 13.53125 C 13.490437 13.344719 13.477566 13.118317 13.4375 12.84375 C 13.39994 12.586354 13.301779 12.307977 13.09375 12.0625 C 13.093931 12.058684 13.093667 12.036656 13.09375 12.03125 C 13.093542 12.028309 13.093809 12.000259 13.09375 12 C 13.09375 12 13.072669 11.995187 13.0625 12 C 13.055551 12.004666 13.040516 11.993778 13.03125 12 C 13.036595 11.990103 13.03125 11.96875 13.03125 11.96875 A 0.089296769 0.089296769 0 0 0 13.03125 11.9375 C 13.031153 11.937481 13.000144 11.937515 13 11.9375 C 12.995113 11.931835 12.974609 11.941766 12.96875 11.9375 C 12.493033 11.591106 11.995147 11.346582 11.5625 11.0625 C 11.558555 11.059528 11.533471 11.033778 11.53125 11.03125 C 11.206215 10.798334 10.826725 10.668282 10.4375 10.6875 z M 17.1875 10.75 C 16.93013 10.750348 16.673666 10.847648 16.46875 11.03125 C 15.801043 11.534738 15.19691 12.04494 14.65625 12.71875 C 14.429944 13.000787 14.339411 13.34623 14.375 13.65625 C 14.410404 13.964671 14.533133 14.212396 14.65625 14.4375 C 14.761616 14.630149 14.940511 14.843835 15.1875 14.90625 C 16.011363 15.114456 16.784307 14.716697 17.375 14.46875 L 17.34375 14.375 L 17.3125 14.28125 C 17.313968 14.280856 17.342277 14.281622 17.34375 14.28125 C 17.345269 14.281228 17.373481 14.28125 17.375 14.28125 C 17.376473 14.281622 17.404782 14.280856 17.40625 14.28125 L 17.375 14.375 L 17.40625 14.46875 C 18.230454 14.103222 18.514713 13.258621 18.65625 12.5625 C 18.775647 11.975271 18.569058 11.236186 17.9375 10.9375 C 17.690647 10.820753 17.443493 10.749654 17.1875 10.75 z M 8.3125 11.84375 A 0.089296769 0.089296769 0 0 0 8.34375 11.84375 A 0.089296769 0.089296769 0 0 0 8.34375 11.875 C 8.3422769 11.874628 8.3139676 11.875394 8.3125 11.875 L 8.3125 11.84375 z M 12.96875 12.09375 A 0.089296769 0.089296769 0 0 0 13 12.09375 L 13 12.125 C 12.998532 12.125394 12.970223 12.124628 12.96875 12.125 A 0.089296769 0.089296769 0 0 0 12.96875 12.09375 z M 6.75 17.09375 C 6.7514676 17.093356 6.7797769 17.094122 6.78125 17.09375 A 0.089296769 0.089296769 0 0 0 6.78125 17.125 L 6.75 17.125 L 6.75 17.09375 z "
     style="fill:url(#linearGradient2829);fill-opacity:1"
     id="path2827"
     d="M 11.5,4.09375 C 10.5738,4.1167079 9.9442269,4.724942 9.59375,5.125 9.2472748,5.520492 8.9252838,6.0277121 8.71875,6.625 8.471298,6.3692974 8.1728391,6.1819405 7.78125,6.15625 c -0.00829,-6.89e-4 -0.022613,6.697e-4 -0.03125,0 -0.1036424,-0.00804 -0.231005,-0.018505 -0.375,0 C 6.9313871,6.2132596 6.5667487,6.4115133 6.3125,6.59375 5.9552925,6.849784 5.6982609,7.1499059 5.5,7.375 4.8601074,8.101498 4.6865234,9.0506919 4.8125,9.90625 c 0.1068653,0.725764 0.5527607,1.248599 1.0625,1.625 6.03e-5,1.07e-4 0.036431,0.03555 0.0625,0.0625 A 0.57177831,0.57177831 0 0 0 6,11.65625 c 0.029164,0.03013 0.053156,0.05288 0.0625,0.0625 a 0.57177831,0.57177831 0 0 0 0,0.03125 0.57177831,0.57177831 0 0 0 0.21875,0.125 0.57177831,0.57177831 0 0 0 0,0.03125 0.57177831,0.57177831 0 0 0 0,0.03125 0.57177831,0.57177831 0 0 0 -0.03125,0 0.57177831,0.57177831 0 0 0 -0.03125,0 A 0.57177831,0.57177831 0 0 0 6.1875,12 a 0.57177831,0.57177831 0 0 0 -0.03125,0 0.57177831,0.57177831 0 0 0 0,0.03125 0.57177831,0.57177831 0 0 0 -0.0625,0.09375 c -0.00484,0.0044 -0.026423,-0.0044 -0.03125,0 a 0.57177831,0.57177831 0 0 0 0,0.03125 c -0.6155434,0.571798 -1.1515305,1.337265 -1.28125,2.28125 -0.1605995,1.270579 0.3814475,2.700378 1.6875,3.34375 a 0.57177831,0.57177831 0 0 0 0.03125,0 0.57177831,0.57177831 0 0 0 0.125,0.0625 c -0.00696,-0.0012 0.038259,9.3e-4 0.03125,0 -0.00701,-9.3e-4 0.038294,6.21e-4 0.03125,0 0.043641,0.0171 0.082257,-0.01354 0.125,0 0.2613162,0.08279 0.5359604,0.180562 0.71875,0.1875 0.2486532,0.0094 0.3223383,0.05052 0.28125,0.03125 0.3355332,0.152983 1.1149159,0.706877 2.125,0.75 0.031961,0.0736 0.094597,0.275801 0.3125,0.53125 a 0.57177831,0.57177831 0 0 0 0.03125,0.03125 c 0.62156,0.628772 1.482058,0.521206 1.6875,0.53125 a 0.57177831,0.57177831 0 0 0 0.03125,0 c -0.01117,0 0.02979,2e-5 0.03125,0 a 0.57177831,0.57177831 0 0 0 0.03125,0 c 0.646979,-0.0509 1.111003,-0.40521 1.40625,-0.71875 0.287645,-0.305468 0.523067,-0.636046 0.6875,-0.875 0.0037,-0.0053 -0.0036,-0.02598 0,-0.03125 0.360612,-0.514534 0.764277,-1.271794 0.5625,-2.15625 -0.0022,-0.01239 0.0023,-0.01893 0,-0.03125 -0.07277,-0.393988 -0.151781,-0.609965 -0.25,-0.9375 0.143867,0.13745 0.351787,0.251355 0.59375,0.3125 1.027312,0.259622 1.877772,-0.194566 2.4375,-0.4375 0.02539,-0.01102 0.06972,-0.02117 0.09375,-0.03125 a 0.57177831,0.57177831 0 0 0 0.1875,-0.125 c 0.932849,-0.514433 1.293365,-1.4786 1.4375,-2.1875 C 19.382465,11.882301 19.105015,10.840175 18.1875,10.40625 17.981514,10.308831 17.736897,10.289231 17.5,10.25 17.589328,10.138764 17.699486,10.093704 17.78125,9.96875 18.261943,9.2341485 18.15247,8.4145654 18,7.875 17.891329,7.4904269 17.699126,7.0878101 17.4375,6.71875 17.145989,6.3075335 16.660104,5.9191083 16,5.84375 15.711226,5.8107836 15.339743,5.7602224 14.90625,5.8125 c -0.16626,0.02005 -0.330114,0.1603949 -0.5,0.21875 -0.01481,-0.081194 -0.0096,-0.1756654 -0.03125,-0.25 C 14.245219,5.336503 13.973016,4.9999064 13.71875,4.75 13.009849,4.0532585 12.081887,4.0793268 11.5,4.09375 z M 9.46875,9.9375 c 0.03266,0.041143 0.059287,0.085018 0.09375,0.125 0.00588,0.0068 -0.00593,0.02446 0,0.03125 2.52e-5,1.59e-4 -2.91e-5,0.06239 0,0.0625 8.7e-6,3.3e-5 0.024266,0.01407 0.03125,0.03125 0.016297,0.04009 0.031227,0.09371 0.03125,0.09375 a 0.57177831,0.57177831 0 0 0 0.03125,0.0625 c -0.095462,0.03156 -0.189332,0.05255 -0.28125,0.09375 -0.027975,0.01254 -0.066169,-0.01342 -0.09375,0 -0.00786,0.0013 -0.019506,-0.0028 -0.03125,0 -0.00834,0.0014 -0.018998,-0.0031 -0.03125,0 -0.012252,0.0031 -0.020544,-0.003 -0.03125,0 0.095446,-0.160735 0.2159152,-0.311579 0.28125,-0.5 z m 4.34375,2.34375 c 0.135178,0.02729 0.280044,0.07215 0.4375,0.0625 -0.0098,0.01209 -0.02146,0.01905 -0.03125,0.03125 C 14.1244,12.492585 14.062168,12.619859 14,12.75 13.978448,12.602303 13.871919,12.439232 13.8125,12.28125 z"
     transform="translate(-4.0048234,-3.9981202)" />
  <path
     d="M 6.9418492,14.74962 C 6.6962362,14.461687 6.6182492,13.878931 6.1201502,13.953431 5.3973087,14.016036 4.8313091,13.493572 4.213996,13.212115 3.797202,13.016653 3.3097738,13.211517 2.8986117,12.97519 1.9954911,12.543651 1.5745514,11.462075 1.6916982,10.53527 1.7938258,9.792075 2.2479457,9.13117 2.8156094,8.652276 3.3076781,8.327548 3.9275524,8.262225 4.460245,8.014786 4.8747777,7.889061 5.1674602,7.586335 5.4916068,7.32807 6.0365142,6.988658 6.8060282,6.885698 7.3572542,7.30092 c 0.479448,0.320353 1.003438,0.579687 1.465675,0.921648 0.360987,0.380499 0.272794,0.936892 0.375244,1.405131 0.04288,0.919686 0.442037,1.776513 0.603266,2.675986 0.131608,0.538072 -0.08796,1.060726 -0.392536,1.490923 -0.348479,0.505785 -0.721635,1.15058 -1.418262,1.20539 -0.347318,-0.01698 -0.783015,0.01848 -1.048792,-0.250381 z M 10.955592,10.313354 C 10.735943,9.911752 10.573981,9.346587 10.892622,8.949475 11.407233,8.30813 12.044147,7.77022 12.70133,7.274668 c 0.299604,-0.268441 0.633325,-0.228857 1.072908,-0.02096 0.463853,0.219372 0.621277,0.761097 0.527237,1.223614 -0.136746,0.672557 -0.375695,1.404312 -1.072606,1.692455 -0.605034,0.253966 -1.281895,0.558578 -1.954012,0.388721 -0.132565,-0.0335 -0.254759,-0.127202 -0.319263,-0.24514 z M 2.5919015,6.95711 C 2.1549932,6.703501 1.8080591,6.2874 1.7337161,5.7825069 c -0.094381,-0.64098 0.021828,-1.329395 0.4570769,-1.823552 0.387787,-0.440271 0.8775035,-0.975551 1.5389818,-0.904763 0.5763382,0.01758 0.5413526,0.546102 0.5451397,0.95222 0.052511,0.458469 0.2619191,0.881959 0.3598814,1.328858 0.016914,0.07716 0.018423,0.153687 0.00364,0.207589 C 4.5015906,6.0418 4.1409714,6.465596 3.759061,6.810249 3.4996995,7.11828 3.0958853,7.206457 2.699493,7.010341 l -0.1075909,-0.05323 -6e-7,0 z M 9.4918692,7.261925 C 9.0910042,7.049731 8.5196282,6.691928 8.7133842,6.177548 c 0.18141,-0.4816071 0.453784,-0.9238111 0.628055,-1.4124101 0.21258,-0.596007 0.611152,-1.436346 0.8725558,-1.689371 0.419174,-0.405737 1.112937,-0.395774 1.679151,-0.331135 0.69139,0.07893 1.036724,0.811612 1.205223,1.407909 0.124209,0.439556 0.177157,0.9242 -0.07839,1.31473 -0.327955,0.501188 -0.78728,0.9159931 -1.252206,1.2939821 -0.42898,0.348763 -0.970199,0.585514 -1.52625,0.671859 C 9.9794932,7.471172 9.7232032,7.384382 9.4918672,7.261925 z M 6.3784042,5.7400159 C 5.6676736,5.0740029 5.3665152,4.0434869 5.5014786,3.1153829 5.6276082,2.5861939 5.9406177,2.1263459 6.2945482,1.7223438 c 0.305165,-0.348337 0.68345,-0.7072459 1.205514,-0.7201864 0.550534,-0.013646 1.190579,0.02756 1.586829,0.4170143 0.342256,0.336387 0.579414,0.9445282 0.337194,1.4074812 -0.454596,0.725148 -0.874215,1.472946 -1.209672,2.261086 -0.178876,0.33984 -0.299822,0.836589 -0.761393,0.886839 -0.364258,0.038609 -0.76409,-0.02742 -1.074616,-0.234562 z"
     id="path2463-0"
     style="fill:url(#linearGradient3690);fill-opacity:1"
     sodipodi:nodetypes="ccscccccccccccccscssssscssccsscscccsssssssssccsssccsc" />
</svg>
