<?xml version="1.0" encoding="UTF-8" standalone="no"?>
<!-- Created with Inkscape (http://www.inkscape.org/) -->

<svg
   xmlns:dc="http://purl.org/dc/elements/1.1/"
   xmlns:cc="http://creativecommons.org/ns#"
   xmlns:rdf="http://www.w3.org/1999/02/22-rdf-syntax-ns#"
   xmlns:svg="http://www.w3.org/2000/svg"
   xmlns="http://www.w3.org/2000/svg"
   xmlns:xlink="http://www.w3.org/1999/xlink"
   xmlns:sodipodi="http://sodipodi.sourceforge.net/DTD/sodipodi-0.dtd"
   xmlns:inkscape="http://www.inkscape.org/namespaces/inkscape"
   version="1.0"
   width="24"
   height="24"
   id="svg3386"
   inkscape:version="0.48.0 r9654"
   sodipodi:docname="empty.svg">
  <metadata
     id="metadata49">
    <rdf:RDF>
      <cc:Work
         rdf:about="">
        <dc:format>image/svg+xml</dc:format>
        <dc:type
           rdf:resource="http://purl.org/dc/dcmitype/StillImage" />
        <dc:title></dc:title>
      </cc:Work>
    </rdf:RDF>
  </metadata>
  <sodipodi:namedview
     pagecolor="#ffffff"
     bordercolor="#666666"
     borderopacity="1"
     objecttolerance="10"
     gridtolerance="10"
     guidetolerance="10"
     inkscape:pageopacity="0"
     inkscape:pageshadow="2"
     inkscape:window-width="1280"
     inkscape:window-height="947"
     id="namedview47"
     showgrid="true"
     inkscape:snap-global="false"
     inkscape:zoom="42.833333"
     inkscape:cx="11.977253"
     inkscape:cy="11.826298"
     inkscape:window-x="0"
     inkscape:window-y="24"
     inkscape:window-maximized="1"
     inkscape:current-layer="svg3386">
    <inkscape:grid
       type="xygrid"
       id="grid3079" />
  </sodipodi:namedview>
  <defs
     id="defs3388">
    <linearGradient
       id="linearGradient5048">
      <stop
         id="stop5050"
         style="stop-color:#000000;stop-opacity:0"
         offset="0" />
      <stop
         id="stop5056"
         style="stop-color:#000000;stop-opacity:1"
         offset="0.5" />
      <stop
         id="stop5052"
         style="stop-color:#000000;stop-opacity:0"
         offset="1" />
    </linearGradient>
    <linearGradient
       id="linearGradient5060">
      <stop
         id="stop5062"
         style="stop-color:#000000;stop-opacity:1"
         offset="0" />
      <stop
         id="stop5064"
         style="stop-color:#000000;stop-opacity:0"
         offset="1" />
    </linearGradient>
    <linearGradient
       id="linearGradient3104">
      <stop
         id="stop3106"
         style="stop-color:#aaaaaa;stop-opacity:1"
         offset="0" />
      <stop
         id="stop3108"
         style="stop-color:#c8c8c8;stop-opacity:1"
         offset="1" />
    </linearGradient>
    <linearGradient
       id="linearGradient3600">
      <stop
         id="stop3602"
         style="stop-color:#f4f4f4;stop-opacity:1"
         offset="0" />
      <stop
         id="stop3604"
         style="stop-color:#dbdbdb;stop-opacity:1"
         offset="1" />
    </linearGradient>
    <radialGradient
       cx="102"
       cy="112.3047"
       r="139.55859"
       id="XMLID_8_"
       gradientUnits="userSpaceOnUse">
      <stop
         id="stop41"
         style="stop-color:#b7b8b9;stop-opacity:1"
         offset="0" />
      <stop
         id="stop47"
         style="stop-color:#ececec;stop-opacity:1"
         offset="0.17402567" />
      <stop
         id="stop49"
         style="stop-color:#fafafa;stop-opacity:0"
         offset="0.23907544" />
      <stop
         id="stop51"
         style="stop-color:#ffffff;stop-opacity:0"
         offset="0.30111277" />
      <stop
         id="stop53"
         style="stop-color:#fafafa;stop-opacity:0"
         offset="0.53130001" />
      <stop
         id="stop55"
         style="stop-color:#ebecec;stop-opacity:0"
         offset="0.84490001" />
      <stop
         id="stop57"
         style="stop-color:#e1e2e3;stop-opacity:0"
         offset="1" />
    </radialGradient>
    <linearGradient
       id="linearGradient3211">
      <stop
         id="stop3213"
         style="stop-color:#ffffff;stop-opacity:1"
         offset="0" />
      <stop
         id="stop3215"
         style="stop-color:#ffffff;stop-opacity:0"
         offset="1" />
    </linearGradient>
    <linearGradient
       id="linearGradient8589">
      <stop
         id="stop8591"
         style="stop-color:#fefefe;stop-opacity:1"
         offset="0" />
      <stop
         id="stop8593"
         style="stop-color:#cbcbcb;stop-opacity:1"
         offset="1" />
    </linearGradient>
    <linearGradient
       x1="32.892288"
       y1="8.0590115"
       x2="36.358372"
       y2="5.4565363"
       id="linearGradient2425"
       xlink:href="#linearGradient8589"
       gradientUnits="userSpaceOnUse"
       gradientTransform="matrix(0.4778466,0,0,0.5524833,0.3722548,-0.0761283)" />
    <linearGradient
       x1="24"
       y1="1.9999999"
       x2="24"
       y2="46.01725"
       id="linearGradient2429"
       xlink:href="#linearGradient3211"
       gradientUnits="userSpaceOnUse"
       gradientTransform="matrix(0.4545444,0,0,0.4651153,1.0909345,0.3372293)" />
    <radialGradient
       cx="92.090363"
       cy="102.70267"
       r="139.55859"
       fx="92.090363"
       fy="102.70267"
       id="radialGradient2432"
       xlink:href="#XMLID_8_"
       gradientUnits="userSpaceOnUse"
       gradientTransform="matrix(0.1702128,0,0,-0.1907226,1.1063831,23.716504)" />
    <linearGradient
       x1="25.132275"
       y1="0.98520643"
       x2="25.132275"
       y2="47.013336"
       id="linearGradient2435"
       xlink:href="#linearGradient3600"
       gradientUnits="userSpaceOnUse"
       gradientTransform="matrix(0.4857154,0,0,0.4780255,0.3428305,-0.7059501)" />
    <linearGradient
       x1="-51.786404"
       y1="50.786446"
       x2="-51.786404"
       y2="2.9062471"
       id="linearGradient2438"
       xlink:href="#linearGradient3104"
       gradientUnits="userSpaceOnUse"
       gradientTransform="matrix(0.3922135,0,0,0.4473607,29.199293,-1.2386997)" />
    <radialGradient
       cx="605.71429"
       cy="486.64789"
       r="117.14286"
       fx="605.71429"
       fy="486.64789"
       id="radialGradient2441"
       xlink:href="#linearGradient5060"
       gradientUnits="userSpaceOnUse"
       gradientTransform="matrix(0.01204859,0,0,0.00823529,13.238794,18.980568)" />
    <radialGradient
       cx="605.71429"
       cy="486.64789"
       r="117.14286"
       fx="605.71429"
       fy="486.64789"
       id="radialGradient2444"
       xlink:href="#linearGradient5060"
       gradientUnits="userSpaceOnUse"
       gradientTransform="matrix(-0.01204859,0,0,0.00823529,10.761206,18.980568)" />
    <linearGradient
       x1="302.85715"
       y1="366.64789"
       x2="302.85715"
       y2="609.50507"
       id="linearGradient2447"
       xlink:href="#linearGradient5048"
       gradientUnits="userSpaceOnUse"
       gradientTransform="matrix(0.0352071,0,0,0.00823529,-0.724852,18.980551)" />
    <linearGradient
       gradientTransform="matrix(0.79942816,0,0,0.7968603,-0.74069089,-1.8292703)"
       inkscape:collect="always"
       xlink:href="#linearGradient3818"
       id="linearGradient3824"
       x1="7.4267182"
       y1="16.046642"
       x2="8.40625"
       y2="18.390392"
       gradientUnits="userSpaceOnUse" />
    <linearGradient
       inkscape:collect="always"
       id="linearGradient3818">
      <stop
         style="stop-color:#000000;stop-opacity:1;"
         offset="0"
         id="stop3820" />
      <stop
         style="stop-color:#000000;stop-opacity:0;"
         offset="1"
         id="stop3822" />
    </linearGradient>
    <linearGradient
       inkscape:collect="always"
       xlink:href="#linearGradient3924"
       id="linearGradient3937"
       x1="23.143536"
       y1="9.0272236"
       x2="23.291058"
       y2="37.745846"
       gradientUnits="userSpaceOnUse" />
    <linearGradient
       id="linearGradient3924">
      <stop
         id="stop3926"
         offset="0"
         style="stop-color:#000000;stop-opacity:1;" />
      <stop
         id="stop3928"
         offset="1"
         style="stop-color:#000000;stop-opacity:0.38759691;" />
    </linearGradient>
    <linearGradient
       inkscape:collect="always"
       xlink:href="#linearGradient3990-3"
       id="linearGradient3118"
       gradientUnits="userSpaceOnUse"
       x1="10.793174"
       y1="14.423345"
       x2="23.534342"
       y2="28.416178" />
    <linearGradient
       id="linearGradient3990-3">
      <stop
         style="stop-color:#000000;stop-opacity:0.37254903;"
         offset="0"
         id="stop3992-4" />
      <stop
         style="stop-color:#000000;stop-opacity:0;"
         offset="1"
         id="stop3994-4" />
    </linearGradient>
    <linearGradient
       id="linearGradient3927">
      <stop
         id="stop3929"
         offset="0"
         style="stop-color:#ffffff;stop-opacity:0.46899223;" />
      <stop
         style="stop-color:#ffffff;stop-opacity:1;"
         offset="0.31613758"
         id="stop3931" />
      <stop
         id="stop3933"
         offset="1"
         style="stop-color:#ffffff;stop-opacity:0;" />
    </linearGradient>
    <linearGradient
       inkscape:collect="always"
       xlink:href="#linearGradient3927"
       id="linearGradient3087"
       gradientUnits="userSpaceOnUse"
       gradientTransform="matrix(1.0234376,0,0,1.0236879,-0.92479045,-0.92370694)"
       x1="35.792591"
       y1="36.383247"
       x2="32.414753"
       y2="22.375317" />
  </defs>
  <rect
     width="17"
     height="1.9999981"
     x="3.5000005"
     y="21.999998"
     id="rect2879"
     style="opacity:0.15;fill:url(#linearGradient2447);fill-opacity:1;fill-rule:nonzero;stroke:none;stroke-width:1;marker:none;visibility:visible;display:inline;overflow:visible" />
  <path
     d="m 3.5,22.000086 c 0,0 0,1.999889 0,1.999889 C 2.8795275,24.00374 2,23.551901 2,22.999901 2,22.447902 2.6924,22.000086 3.5,22.000086 z"
     id="path2881"
     style="opacity:0.15;fill:url(#radialGradient2444);fill-opacity:1;fill-rule:nonzero;stroke:none;stroke-width:1;marker:none;visibility:visible;display:inline;overflow:visible" />
  <path
     d="m 20.5,22.000086 c 0,0 0,1.999889 0,1.999889 0.620472,0.0038 1.5,-0.448074 1.5,-1.000074 0,-0.551999 -0.692401,-0.999815 -1.5,-0.999815 z"
     id="path2883"
     style="opacity:0.15;fill:url(#radialGradient2441);fill-opacity:1;fill-rule:nonzero;stroke:none;stroke-width:1;marker:none;visibility:visible;display:inline;overflow:visible" />
  <path
     d="m 3.4999617,0.49996097 c 3.8955799,0 7.6044553,0 11.5000383,0 C 15.683368,0.73725787 19.541325,3.628131 20.5,5.5 c 0,5.729157 3.9e-5,11.270881 3.9e-5,17.000039 -5.666693,0 -11.3333845,0 -17.0000773,0 0,-7.33336 0,-14.6667201 0,-22.00007803 z"
     id="path4160"
     style="fill:url(#linearGradient2435);fill-opacity:1;stroke:url(#linearGradient2438);stroke-width:0.99992162;stroke-linecap:butt;stroke-linejoin:round;stroke-miterlimit:4;stroke-opacity:1;stroke-dasharray:none;stroke-dashoffset:0;display:inline" />
  <path
     d="M 4.1702128,22 C 4.0764256,22 4,21.914366 4,21.809277 L 4,1.2112452 C 4,1.1059667 4.0764256,1.0205233 4.1702128,1.0205233 7.6916683,1.0732401 11.594065,0.94166522 15.11124,1.0336487 L 19.950127,5.3607855 20,21.809277 C 20,21.914366 19.923743,22 19.829786,22 L 4.1702128,22 z"
     id="path4191"
     style="fill:url(#radialGradient2432);fill-opacity:1" />
  <path
     d="m 19.500001,5.6770357 c 0,5.2083053 0,10.6146573 0,15.8229643 -5,0 -9.9999998,0 -15.000001,0 0,-6.66667 0,-13.3333343 0,-20.0000001 3.4372614,0 6.956499,0 10.393761,0"
     id="path2435"
     style="opacity:0.6;fill:none;stroke:url(#linearGradient2429);stroke-width:0.99999988;stroke-linecap:butt;stroke-linejoin:miter;stroke-miterlimit:4;stroke-opacity:1;stroke-dasharray:none;stroke-dashoffset:0;display:inline" />
  <path
     d="m 14.075474,1 c 1.156303,0.3287671 0.339059,4.6143789 0.339059,4.6143789 0,0 4.515388,-0.4277362 5.60771,1.1949961 C 21.511396,9.0216317 19.954018,6.1742029 19.848796,5.9876778 19.092868,4.6476323 15.982456,1.4405918 14.803387,1.0464703 14.715155,1.0169778 14.519511,1 14.075474,1 z"
     id="path3370"
     style="opacity:0.2;fill:#000000;fill-opacity:1;fill-rule:evenodd;stroke:none;display:inline" />
  <path
     d="m 14,1 c 1.526166,0 1,4 1,4 0,0 4.992074,-0.45326 4.992074,2 0,-0.5977419 0.05575,-1.4784338 -0.06407,-1.6559326 C 19.088897,4.1010616 16.184239,1.4821803 15.129935,1.0464703 15.043957,1.0109384 14.444037,1 14,1 z"
     id="path4474"
     style="fill:url(#linearGradient2425);fill-opacity:1;fill-rule:evenodd;stroke:none;display:inline" />
  <g
     id="g3168"
     transform="matrix(0.45366082,0,0,0.45220361,1.3485321,0.64855011)">
    <g
       id="layer1-7"
       transform="matrix(0.7400127,0,0,0.7400127,7.8444241,9.1459649)">
      <path
         inkscape:connector-curvature="0"
         id="path4323"
         d="m 36.943886,6.7968089 c -0.157078,0.077222 -0.296498,0.3277294 -0.432188,0.7348984 -0.361839,1.085785 -2.90791,8.5865417 -17.33072,8.9484697 C 12.298633,16.651365 9.3703212,10.60099 9.3703212,10.60099 l -0.1728749,7.781278 c 0,0 0.7397713,1.734074 -0.7347189,3.544803 C 8.3825784,21.801792 8.334663,21.660029 8.2466337,21.538008 7.7159378,20.802389 7.093816,20.183401 6.4314461,19.722376 5.6703811,19.192657 4.8787477,18.842912 4.0976334,18.728102 c -0.9005432,-0.132364 -1.7715733,0.0627 -2.4634688,0.561981 -0.69210616,0.499428 -1.09501379,1.264576 -1.25334389,2.161466 -0.13725792,0.777524 -0.0896357,1.618044 0.17287499,2.5073 0.22849391,0.774024 0.5932276,1.55551 1.1236876,2.291155 0.5603944,0.777156 1.258548,1.465348 1.9880627,1.945319 0.8227411,0.541308 1.6949827,0.858408 2.5499063,0.907816 0.2645554,0.01529 0.5348545,-0.04961 0.7779375,-0.08646 5.5372972,4.390835 16.0365302,8.776791 23.3217962,4.437909 0.157588,0.05364 0.316997,0.118164 0.475406,0.172917 0.0039,0.075 -0.01968,0.149333 0,0.216147 l 0.34575,-0.129688 c 1.079761,0.571255 2.42979,0.95671 3.630377,1.383339 -0.13475,1.140796 0.429353,2.098162 1.858407,2.645088 2.573572,0.984956 5.461893,1.951932 5.461893,1.951932 -1.227624,-4.168174 -1.205916,-7.786127 -4.388923,-8.019415 -0.540537,-0.03962 -1.213274,0.501691 -1.383,0.64844 l -2.895657,-1.85886 -0.129656,0 -0.04322,-0.04323 c 3.899384,-3.8385 5.684804,-10.252822 4.302486,-22.803091 -0.08,-0.627178 -0.343267,-0.9500602 -0.605063,-0.8213581 z"
         style="opacity:0.5;color:#000000;fill:url(#linearGradient3937);fill-opacity:1;fill-rule:nonzero;stroke:none;stroke-width:0.99999994;marker:none;visibility:visible;display:inline;overflow:visible;enable-background:accumulate"
         sodipodi:nodetypes="ssccccsssssssssccccccscscccccs" />
    </g>
    <g
       style="color:#000000;fill:none;stroke:url(#linearGradient3118);stroke-width:2.98351455;stroke-linecap:butt;stroke-linejoin:miter;stroke-miterlimit:4;stroke-opacity:1;stroke-dasharray:none;stroke-dashoffset:0;marker:none;visibility:visible;display:inline;overflow:visible;enable-background:accumulate"
       id="layer1-7-5"
       transform="matrix(0.7400127,0,0,0.7400127,7.8444241,9.1459649)" />
    <path
       style="opacity:0.5;color:#000000;fill:none;stroke:url(#linearGradient3087);stroke-width:2.20783901;stroke-linecap:butt;stroke-linejoin:miter;stroke-miterlimit:4;stroke-opacity:1;stroke-dashoffset:0;marker:none;visibility:visible;display:inline;overflow:visible;enable-background:accumulate"
       d="m 35,13.0625 c -0.200582,0.04445 -0.381397,0.134726 -0.53125,0.25 -0.299705,0.230547 -0.494164,0.554475 -0.65625,0.90625 -0.324171,0.703551 -0.556411,1.520128 -0.96875,1.90625 -7.45e-4,0.0104 -7.45e-4,0.02085 0,0.03125 -2.485003,3.087599 -6.727354,3.923064 -10.5625,4.0625 -0.0104,-7.45e-4 -0.02085,-7.45e-4 -0.03125,0 -2.703165,0.226257 -5.370744,-1.464992 -6.5625,-3.84375 7.45e-4,-0.0104 7.45e-4,-0.02085 0,-0.03125 -0.244077,-0.347158 -0.67648,-0.487 -1.0625,-0.4375 -0.38602,0.0495 -0.778487,0.301464 -0.90625,0.71875 -7.45e-4,0.0104 -7.45e-4,0.02085 0,0.03125 -0.172926,0.877965 -0.05737,1.813382 -0.125,2.65625 -7.45e-4,0.0104 -7.45e-4,0.02085 0,0.03125 -0.0073,1.192601 -0.118554,2.411856 -0.0625,3.625 -0.003,0.02069 -0.003,0.04181 0,0.0625 0.01073,0.03522 -0.0073,0.03283 0,0.0625 -0.07681,-0.05402 -0.150777,-0.110237 -0.25,-0.1875 C 13.038887,22.717525 12.768136,22.493375 12.46875,22.3125 12.19917,22.149633 11.916948,22.008119 11.625,22.03125 9.4978143,21.250292 7.0846031,22.847846 7,25.125 c -3.85e-4,0.01036 2.878e-4,0.02086 0,0.03125 -0.3156457,3.175668 2.2571058,6.453846 5.5,6.625 0.01187,6.27e-4 0.01936,0.03071 0.03125,0.03125 1.400896,0.71356 2.846887,1.845455 4.46875,2.46875 0.01273,0.0049 0.01849,0.02642 0.03125,0.03125 3.901785,1.652782 8.347957,2.842544 12.468786,1.175261 0.444367,-0.17979 0.650766,-0.183498 0.918616,-0.32469 0.586134,0.240279 0.925884,0.405729 1.45954,0.579477 0.324875,0.06192 0.491556,0.146487 0.670943,0.21875 0.0123,0.832989 0.878392,1.575188 1.387866,1.856657 1.443251,0.797353 3.252537,1.028558 4.687999,1.775795 0.01898,0.01367 0.04017,0.02426 0.0625,0.03125 0.314069,0.05433 0.562449,0.05461 0.78125,0 0.218801,-0.05461 0.388366,-0.180468 0.5,-0.34375 0.223268,-0.326565 0.216538,-0.748946 0.125,-1.1875 -0.09154,-0.438554 -0.277995,-0.911815 -0.4375,-1.34375 -0.159505,-0.431935 -0.296181,-0.814737 -0.34375,-1.0625 7.45e-4,-0.0104 7.45e-4,-0.02085 0,-0.03125 -0.396861,-1.586612 -0.864229,-3.464682 -2.578214,-3.993555 -0.565148,-0.160707 -1.65741,-0.284217 -2.009101,0.02922 -0.222434,-0.149902 -0.286394,-0.22819 -0.546016,-0.366168 C 36.25205,28.605003 36.827931,25.497001 37,22.125 c 0.108347,-2.66011 0.08725,-5.359768 -0.375,-8 7.45e-4,-0.0104 7.45e-4,-0.02085 0,-0.03125 -0.154526,-0.405123 -0.459292,-0.863142 -0.9375,-1.03125 -0.0104,-7.45e-4 -0.02085,-7.45e-4 -0.03125,0 -0.246581,-0.04358 -0.455668,-0.04445 -0.65625,0 z"
       id="path3084"
       inkscape:connector-curvature="0"
       sodipodi:nodetypes="sssccccccscccccccsscscccccscccsccssssccccccccccs" />
  </g>
  <path
     style="opacity:0.4;fill:none;stroke:url(#linearGradient3824);stroke-width:1px;stroke-linecap:butt;stroke-linejoin:miter;stroke-opacity:1"
     d="M 7.4409567,12.364803 C 6.2178839,10.501785 4.3895184,11.73372 6.0794306,13.659701"
     id="path3048"
     inkscape:connector-curvature="0"
     sodipodi:nodetypes="cc" />
</svg>
