<?xml version="1.0" encoding="UTF-8" standalone="no"?>
<!-- Created with Inkscape (http://www.inkscape.org/) -->

<svg
   xmlns:dc="http://purl.org/dc/elements/1.1/"
   xmlns:cc="http://creativecommons.org/ns#"
   xmlns:rdf="http://www.w3.org/1999/02/22-rdf-syntax-ns#"
   xmlns:svg="http://www.w3.org/2000/svg"
   xmlns="http://www.w3.org/2000/svg"
   xmlns:xlink="http://www.w3.org/1999/xlink"
   xmlns:sodipodi="http://sodipodi.sourceforge.net/DTD/sodipodi-0.dtd"
   xmlns:inkscape="http://www.inkscape.org/namespaces/inkscape"
   version="1.0"
   width="16"
   height="16"
   id="svg2482"
   inkscape:version="0.47pre4 r22446"
   sodipodi:docname="start-here.svg">
  <metadata
     id="metadata3622">
    <rdf:RDF>
      <cc:Work
         rdf:about="">
        <dc:format>image/svg+xml</dc:format>
        <dc:type
           rdf:resource="http://purl.org/dc/dcmitype/StillImage" />
        <dc:title />
      </cc:Work>
    </rdf:RDF>
  </metadata>
  <sodipodi:namedview
     pagecolor="#ffffff"
     bordercolor="#666666"
     borderopacity="1"
     objecttolerance="10"
     gridtolerance="10"
     guidetolerance="10"
     inkscape:pageopacity="0"
     inkscape:pageshadow="2"
     inkscape:window-width="1024"
     inkscape:window-height="696"
     id="namedview3620"
     showgrid="false"
     inkscape:zoom="19.451109"
     inkscape:cx="6.8761071"
     inkscape:cy="10.457542"
     inkscape:window-x="0"
     inkscape:window-y="24"
     inkscape:window-maximized="1"
     inkscape:current-layer="svg2482" />
  <defs
     id="defs2484">
    <inkscape:perspective
       sodipodi:type="inkscape:persp3d"
       inkscape:vp_x="0 : 12 : 1"
       inkscape:vp_y="0 : 1000 : 0"
       inkscape:vp_z="24 : 12 : 1"
       inkscape:persp3d-origin="12 : 8 : 1"
       id="perspective3624" />
    <linearGradient
       id="linearGradient3584">
      <stop
         id="stop3586"
         style="stop-color:#f19765;stop-opacity:1"
         offset="0" />
      <stop
         id="stop3588"
         style="stop-color:#de1000;stop-opacity:1"
         offset="1" />
    </linearGradient>
    <radialGradient
       cx="11.376413"
       cy="11.482934"
       r="9.936264"
       fx="11.376413"
       fy="11.482934"
       id="radialGradient3590"
       xlink:href="#linearGradient3584"
       gradientUnits="userSpaceOnUse"
       gradientTransform="matrix(0.96335746,-3.2131053e-8,3.4030238e-8,1.0202991,-3.2168614,-4.5522847)" />
    <inkscape:perspective
       id="perspective3689"
       inkscape:persp3d-origin="0.5 : 0.33333333 : 1"
       inkscape:vp_z="1 : 0.5 : 1"
       inkscape:vp_y="0 : 1000 : 0"
       inkscape:vp_x="0 : 0.5 : 1"
       sodipodi:type="inkscape:persp3d" />
    <inkscape:perspective
       id="perspective3702"
       inkscape:persp3d-origin="0.5 : 0.33333333 : 1"
       inkscape:vp_z="1 : 0.5 : 1"
       inkscape:vp_y="0 : 1000 : 0"
       inkscape:vp_x="0 : 0.5 : 1"
       sodipodi:type="inkscape:persp3d" />
    <inkscape:perspective
       id="perspective3728"
       inkscape:persp3d-origin="0.5 : 0.33333333 : 1"
       inkscape:vp_z="1 : 0.5 : 1"
       inkscape:vp_y="0 : 1000 : 0"
       inkscape:vp_x="0 : 0.5 : 1"
       sodipodi:type="inkscape:persp3d" />
    <inkscape:perspective
       id="perspective3741"
       inkscape:persp3d-origin="0.5 : 0.33333333 : 1"
       inkscape:vp_z="1 : 0.5 : 1"
       inkscape:vp_y="0 : 1000 : 0"
       inkscape:vp_x="0 : 0.5 : 1"
       sodipodi:type="inkscape:persp3d" />
    <inkscape:perspective
       id="perspective2866"
       inkscape:persp3d-origin="0.5 : 0.33333333 : 1"
       inkscape:vp_z="1 : 0.5 : 1"
       inkscape:vp_y="0 : 1000 : 0"
       inkscape:vp_x="0 : 0.5 : 1"
       sodipodi:type="inkscape:persp3d" />
    <radialGradient
       cx="11.376413"
       cy="11.482934"
       r="9.936264"
       fx="11.376413"
       fy="11.482934"
       id="radialGradient3590-3"
       xlink:href="#linearGradient3584-3"
       gradientUnits="userSpaceOnUse"
       gradientTransform="matrix(1.3236902,-4.4149302e-8,4.6758856e-8,1.4019302,-3.4122575,-5.2396272)" />
    <linearGradient
       id="linearGradient3584-3">
      <stop
         id="stop3586-3"
         style="stop-color:#f19765;stop-opacity:1"
         offset="0" />
      <stop
         id="stop3588-8"
         style="stop-color:#de1000;stop-opacity:1"
         offset="1" />
    </linearGradient>
    <radialGradient
       r="9.936264"
       fy="11.482934"
       fx="11.376413"
       cy="11.482934"
       cx="11.376413"
       gradientTransform="matrix(1.3236902,-4.4149302e-8,4.6758856e-8,1.4019302,-3.4122575,-5.2396272)"
       gradientUnits="userSpaceOnUse"
       id="radialGradient2875"
       xlink:href="#linearGradient3584-3"
       inkscape:collect="always" />
    <inkscape:perspective
       id="perspective2905"
       inkscape:persp3d-origin="0.5 : 0.33333333 : 1"
       inkscape:vp_z="1 : 0.5 : 1"
       inkscape:vp_y="0 : 1000 : 0"
       inkscape:vp_x="0 : 0.5 : 1"
       sodipodi:type="inkscape:persp3d" />
    <radialGradient
       cx="11.376413"
       cy="11.482934"
       r="9.936264"
       fx="11.376413"
       fy="11.482934"
       id="radialGradient3590-2"
       xlink:href="#linearGradient3584-6"
       gradientUnits="userSpaceOnUse"
       gradientTransform="matrix(1.3236902,-4.4149302e-8,4.6758856e-8,1.4019302,-3.4122575,-5.2396272)" />
    <linearGradient
       id="linearGradient3584-6">
      <stop
         id="stop3586-5"
         style="stop-color:#f19765;stop-opacity:1"
         offset="0" />
      <stop
         id="stop3588-2"
         style="stop-color:#de1000;stop-opacity:1"
         offset="1" />
    </linearGradient>
    <radialGradient
       r="9.936264"
       fy="11.482934"
       fx="11.376413"
       cy="11.482934"
       cx="11.376413"
       gradientTransform="matrix(1.3236902,-4.4149302e-8,4.6758856e-8,1.4019302,-3.4122575,-5.2396272)"
       gradientUnits="userSpaceOnUse"
       id="radialGradient2914"
       xlink:href="#linearGradient3584-6"
       inkscape:collect="always" />
    <inkscape:perspective
       id="perspective2905-2"
       inkscape:persp3d-origin="0.5 : 0.33333333 : 1"
       inkscape:vp_z="1 : 0.5 : 1"
       inkscape:vp_y="0 : 1000 : 0"
       inkscape:vp_x="0 : 0.5 : 1"
       sodipodi:type="inkscape:persp3d" />
    <radialGradient
       cx="11.376413"
       cy="11.482934"
       r="9.936264"
       fx="11.376413"
       fy="11.482934"
       id="radialGradient3590-4"
       xlink:href="#linearGradient3584-7"
       gradientUnits="userSpaceOnUse"
       gradientTransform="matrix(1.3236902,-4.4149302e-8,4.6758856e-8,1.4019302,-3.4122575,-5.2396272)" />
    <linearGradient
       id="linearGradient3584-7">
      <stop
         id="stop3586-9"
         style="stop-color:#f19765;stop-opacity:1"
         offset="0" />
      <stop
         id="stop3588-3"
         style="stop-color:#de1000;stop-opacity:1"
         offset="1" />
    </linearGradient>
    <radialGradient
       r="9.936264"
       fy="11.482934"
       fx="11.376413"
       cy="11.482934"
       cx="11.376413"
       gradientTransform="matrix(1.3236902,-4.4149302e-8,4.6758856e-8,1.4019302,-3.4122575,-5.2396272)"
       gradientUnits="userSpaceOnUse"
       id="radialGradient2914-9"
       xlink:href="#linearGradient3584-7"
       inkscape:collect="always" />
    <inkscape:perspective
       id="perspective2905-4"
       inkscape:persp3d-origin="0.5 : 0.33333333 : 1"
       inkscape:vp_z="1 : 0.5 : 1"
       inkscape:vp_y="0 : 1000 : 0"
       inkscape:vp_x="0 : 0.5 : 1"
       sodipodi:type="inkscape:persp3d" />
    <radialGradient
       cx="11.376413"
       cy="11.482934"
       r="9.936264"
       fx="11.376413"
       fy="11.482934"
       id="radialGradient3590-9"
       xlink:href="#linearGradient3584-2"
       gradientUnits="userSpaceOnUse"
       gradientTransform="matrix(1.3236902,-4.4149302e-8,4.6758856e-8,1.4019302,-3.4122575,-5.2396272)" />
    <linearGradient
       id="linearGradient3584-2">
      <stop
         id="stop3586-57"
         style="stop-color:#f19765;stop-opacity:1"
         offset="0" />
      <stop
         id="stop3588-4"
         style="stop-color:#de1000;stop-opacity:1"
         offset="1" />
    </linearGradient>
    <radialGradient
       r="9.936264"
       fy="11.482934"
       fx="11.376413"
       cy="11.482934"
       cx="11.376413"
       gradientTransform="matrix(1.3236902,-4.4149302e-8,4.6758856e-8,1.4019302,-3.4122575,-5.2396272)"
       gradientUnits="userSpaceOnUse"
       id="radialGradient2914-99"
       xlink:href="#linearGradient3584-2"
       inkscape:collect="always" />
    <inkscape:perspective
       id="perspective2856"
       inkscape:persp3d-origin="0.5 : 0.33333333 : 1"
       inkscape:vp_z="1 : 0.5 : 1"
       inkscape:vp_y="0 : 1000 : 0"
       inkscape:vp_x="0 : 0.5 : 1"
       sodipodi:type="inkscape:persp3d" />
    <radialGradient
       cx="11.376413"
       cy="11.482934"
       r="9.936264"
       fx="11.376413"
       fy="11.482934"
       id="radialGradient3590-46"
       xlink:href="#linearGradient3584-9"
       gradientUnits="userSpaceOnUse"
       gradientTransform="matrix(1.3236902,-4.4149302e-8,4.6758856e-8,1.4019302,-4.4761365,-6.2396285)" />
    <linearGradient
       id="linearGradient3584-9">
      <stop
         id="stop3586-4"
         style="stop-color:#f19765;stop-opacity:1"
         offset="0" />
      <stop
         id="stop3588-22"
         style="stop-color:#de1000;stop-opacity:1"
         offset="1" />
    </linearGradient>
    <inkscape:perspective
       id="perspective2856-9"
       inkscape:persp3d-origin="0.5 : 0.33333333 : 1"
       inkscape:vp_z="1 : 0.5 : 1"
       inkscape:vp_y="0 : 1000 : 0"
       inkscape:vp_x="0 : 0.5 : 1"
       sodipodi:type="inkscape:persp3d" />
    <radialGradient
       cx="11.376413"
       cy="11.482934"
       r="9.936264"
       fx="11.376413"
       fy="11.482934"
       id="radialGradient3590-35"
       xlink:href="#linearGradient3584-70"
       gradientUnits="userSpaceOnUse"
       gradientTransform="matrix(1.3236902,-4.4149302e-8,4.6758856e-8,1.4019302,-4.4761365,-6.2396285)" />
    <linearGradient
       id="linearGradient3584-70">
      <stop
         id="stop3586-8"
         style="stop-color:#f19765;stop-opacity:1"
         offset="0" />
      <stop
         id="stop3588-1"
         style="stop-color:#de1000;stop-opacity:1"
         offset="1" />
    </linearGradient>
    <inkscape:perspective
       id="perspective2856-7"
       inkscape:persp3d-origin="0.5 : 0.33333333 : 1"
       inkscape:vp_z="1 : 0.5 : 1"
       inkscape:vp_y="0 : 1000 : 0"
       inkscape:vp_x="0 : 0.5 : 1"
       sodipodi:type="inkscape:persp3d" />
    <radialGradient
       cx="11.376413"
       cy="11.482934"
       r="9.936264"
       fx="11.376413"
       fy="11.482934"
       id="radialGradient3590-25"
       xlink:href="#linearGradient3584-8"
       gradientUnits="userSpaceOnUse"
       gradientTransform="matrix(1.3236902,-4.4149302e-8,4.6758856e-8,1.4019302,-4.4761365,-6.2396285)" />
    <linearGradient
       id="linearGradient3584-8">
      <stop
         id="stop3586-90"
         style="stop-color:#f19765;stop-opacity:1"
         offset="0" />
      <stop
         id="stop3588-24"
         style="stop-color:#de1000;stop-opacity:1"
         offset="1" />
    </linearGradient>
    <inkscape:perspective
       id="perspective2856-1"
       inkscape:persp3d-origin="0.5 : 0.33333333 : 1"
       inkscape:vp_z="1 : 0.5 : 1"
       inkscape:vp_y="0 : 1000 : 0"
       inkscape:vp_x="0 : 0.5 : 1"
       sodipodi:type="inkscape:persp3d" />
    <inkscape:perspective
       id="perspective2869"
       inkscape:persp3d-origin="0.5 : 0.33333333 : 1"
       inkscape:vp_z="1 : 0.5 : 1"
       inkscape:vp_y="0 : 1000 : 0"
       inkscape:vp_x="0 : 0.5 : 1"
       sodipodi:type="inkscape:persp3d" />
    <inkscape:perspective
       id="perspective3012"
       inkscape:persp3d-origin="0.5 : 0.33333333 : 1"
       inkscape:vp_z="1 : 0.5 : 1"
       inkscape:vp_y="0 : 1000 : 0"
       inkscape:vp_x="0 : 0.5 : 1"
       sodipodi:type="inkscape:persp3d" />
    <radialGradient
       cx="11.376413"
       cy="11.482934"
       r="9.936264"
       fx="11.376413"
       fy="11.482934"
       id="radialGradient3590-95"
       xlink:href="#linearGradient3584-5"
       gradientUnits="userSpaceOnUse"
       gradientTransform="matrix(1.3236902,-4.4149302e-8,4.6758856e-8,1.4019302,-4.4761365,-6.2396285)" />
    <linearGradient
       id="linearGradient3584-5">
      <stop
         id="stop3586-7"
         style="stop-color:#f19765;stop-opacity:1"
         offset="0" />
      <stop
         id="stop3588-39"
         style="stop-color:#de1000;stop-opacity:1"
         offset="1" />
    </linearGradient>
  </defs>
  <path
     d="M 6.7906863,15.713851 C 6.5099864,15.384784 6.4208579,14.718777 5.8516023,14.80392 5.0254974,14.875468 4.3786407,14.278367 3.67314,13.956702 3.196804,13.733317 2.6397432,13.956018 2.1698437,13.685931 1.1377059,13.192742 0.65663199,11.956656 0.79051399,10.89745 0.90723129,10.048085 1.4262255,9.2927632 2.0749839,8.7454572 2.6373481,8.3743392 3.3457758,8.2996832 3.9545674,8.0168962 4.428319,7.8732102 4.7628133,7.5272382 5.1332665,7.2320782 c 0.6227519,-0.3879 1.5021956,-0.505568 2.1321685,-0.03103 0.5479403,0.366118 1.1467867,0.6625 1.6750572,1.053311 0.4125569,0.434857 0.311765,1.070734 0.4288505,1.605865 0.049001,1.0510708 0.5051856,2.0303008 0.6894473,3.0582708 0.150409,0.614939 -0.1005267,1.212258 -0.4486127,1.703911 C 9.2119148,15.200452 8.7854514,15.93736 7.9893056,16 7.5923713,15.98059 7.0944318,16.02112 6.7906863,15.713851 z m 4.5871357,-5.070018 c -0.251028,-0.458975 -0.436128,-1.1048788 -0.07197,-1.5587208 0.588127,-0.732966 1.316029,-1.34772 2.067095,-1.914066 0.342405,-0.306789 0.7238,-0.26155 1.22618,-0.02396 0.530118,0.250711 0.710031,0.869826 0.602557,1.398416 -0.156281,0.768637 -0.429366,1.6049288 -1.225835,1.9342358 -0.691468,0.290246 -1.465023,0.638374 -2.233156,0.444252 -0.151504,-0.03829 -0.291154,-0.145374 -0.364872,-0.280159 z M 1.8193178,6.8081242 C 1.3199941,6.5182842 0.92349789,6.0427402 0.83853449,5.4657182 0.73067069,4.7331702 0.86348049,3.946411 1.3609082,3.3816602 1.8040932,2.8784933 2.3637691,2.2667442 3.1197443,2.3476444 c 0.6586723,0.020087 0.6186887,0.6241165 0.6230168,1.088252 0.060013,0.5239645 0.2993361,1.0079528 0.411293,1.5186948 0.01933,0.08818 0.021055,0.175643 0.00416,0.237245 -0.1563935,0.570219 -0.5685297,1.054558 -1.0049987,1.448447 -0.2964131,0.352035 -0.7579152,0.452809 -1.2109349,0.228676 l -0.1229609,-0.06083 -7e-7,0 z m 7.885677,0.34836 C 9.2468636,6.9139772 8.5938629,6.5050582 8.8152978,5.9171952 9.0226238,5.3667862 9.3339084,4.8614102 9.5330746,4.3030122 9.7760233,3.6218612 10.231534,2.6614731 10.530282,2.3723017 11.009338,1.9086025 11.80221,1.9199891 12.449311,1.9938625 c 0.79016,0.090205 1.184828,0.9275562 1.377399,1.6090379 0.141952,0.5023498 0.202465,1.0562298 -0.08959,1.5025488 -0.374806,0.572786 -0.899748,1.046851 -1.431093,1.478838 -0.490262,0.398586 -1.108798,0.669159 -1.744286,0.767839 -0.299462,0.0435 -0.5923647,-0.05569 -0.8567492,-0.195642 z M 6.1467498,5.4171582 C 5.3344858,4.6560002 4.9903048,3.4782678 5.1445486,2.417577 5.2886967,1.8127904 5.6464219,1.2872492 6.0509141,0.82553266 6.3996738,0.42743336 6.8319996,0.01725176 7.4286437,0.00246256 8.0578255,-0.01313314 8.7893058,0.03395956 9.2421628,0.47905046 9.6333127,0.86349266 9.9043513,1.5585108 9.6275276,2.0876008 9.107989,2.9163403 8.6284245,3.770967 8.2450452,4.6716992 8.0406157,5.0600872 7.9023917,5.6278002 7.3748825,5.6852292 6.958587,5.7293552 6.5016358,5.6538912 6.1467498,5.4171582 z"
     id="path2463"
     style="fill:url(#radialGradient3590);fill-opacity:1" />
  <path
     style="opacity:0.74021349;fill:#ffefda;fill-opacity:1;fill-rule:evenodd;stroke:none;display:inline"
     d="m 9.1608027,9.4044782 c -0.1133877,0.0085 -0.3332484,0.05966 -0.09694,0.05319 0.096991,0.02567 0.3825533,-0.01206 0.125142,-0.05074 -0.0094,-8.01e-4 -0.018799,-0.0016 -0.028201,-0.0025 z m 0.1592022,0.06823 c -0.1339475,-0.02743 -0.4649462,0.002 -0.4754146,-0.01111 -0.00977,-0.02226 -0.3272827,0.02431 -0.4534815,0.05303 -0.791571,0.135538 -1.4199562,0.7559848 -1.7479761,1.4650208 -0.063957,0.09482 -0.1506349,0.437182 -0.166649,0.373859 -0.063193,0.159044 -0.081581,0.413281 -0.09775,0.611808 -0.028337,0.572416 0.054118,1.165081 0.3281539,1.675039 0.055043,0.105366 0.085337,0.167524 -0.00615,0.03035 -0.070381,-0.06497 0.1021767,0.248632 0.1229285,0.317917 0.1168912,0.220637 0.3219093,0.372287 0.4797188,0.562252 0.1426081,0.01024 -0.071792,-0.254514 -0.060551,-0.347624 -0.1284888,-0.411496 -0.1992276,-0.842097 -0.1971464,-1.273577 -0.035453,0.365012 -0.01862,0.73978 0.090973,1.091673 -0.1783647,-0.501368 -0.1718893,-1.049151 -0.062475,-1.563854 0.016582,-0.10806 0.010803,-0.220178 -0.020948,-0.04997 -0.135514,0.534185 -0.144158,1.106486 0.015193,1.636567 -0.3613372,-0.478288 -0.5566344,-1.083925 -0.4938477,-1.684198 0.079891,-0.9329 0.7022378,-1.758018 1.4969098,-2.220148 0.3736548,-0.1955958 0.8278859,-0.2933308 1.238231,-0.1680888 0.1895005,-0.04652 -0.061105,-0.370298 0.010284,-0.498945 z M 7.0911735,12.27012 c 0.1077632,-0.278497 0.2748155,-0.532114 0.4776068,-0.750525 -0.055239,0.06725 -0.2113406,0.420493 -0.072509,0.194522 0.336869,-0.446799 0.8772811,-0.798362 1.4535153,-0.755063 0.086853,0.01335 0.3475871,0.119666 0.340417,0.04089 -0.5394325,-0.189174 -1.1517742,0.0075 -1.5622219,0.383192 0.2296668,-0.320634 0.6241099,-0.473785 1.0097381,-0.464053 0.2815831,0.0032 0.5803273,0.04588 0.8131373,0.215902 0.1605989,-0.04734 -0.1182339,-0.406993 -0.3083276,-0.357686 -0.3301931,-0.04795 -0.6755648,-0.04814 -0.986794,0.08793 -0.5422352,0.208662 -0.925659,0.701113 -1.1099846,1.23947 -0.019788,0.0546 -0.03795,0.109784 -0.054578,0.165425 z m 2.1378587,-1.228132 c -0.371296,0.136335 -0.7009367,0.362674 -1.0280571,0.579786 -0.4328911,0.357322 -0.6167186,0.952465 -0.5280748,1.498661 0.033471,0.30784 0.1309665,0.608251 0.282514,0.878166 -0.046644,-0.08837 -0.1148185,-0.330591 -0.027699,-0.112023 0.2645836,0.555333 0.7356963,1.049518 1.3468,1.203696 0.06307,-0.160218 0.3796983,-0.376463 0.2771378,-0.502433 C 9.3683948,14.613501 9.0330919,14.378833 8.9712254,14.46225 9.0794436,14.706159 8.7296397,14.4324 8.6516172,14.3706 8.5068126,14.247974 8.3885852,14.095858 8.2965601,13.930375 c 0.1364285,0.274368 0.4310134,0.403684 0.7174232,0.454123 0.1693118,0.04881 0.4933086,0.128022 0.5738144,0.128652 -0.6178379,-0.19562 -1.0532093,-0.765736 -1.2153634,-1.37663 -0.03826,0.07137 -0.044016,0.368526 -0.1151504,0.328357 -0.2249012,-0.442854 -0.121939,-1.00582 0.2144926,-1.363526 0.2680114,-0.299437 0.7241828,-0.453119 1.1035266,-0.281462 0.1048602,0.04189 0.3014062,0.12629 0.097297,0.009 -0.1197572,-0.08615 -0.4806976,-0.15013 -0.482191,-0.152513 0.1912523,-0.03605 0.518102,0.138412 0.5898082,0.125529 -0.079462,-0.229046 -0.076993,-0.6493 -0.4326809,-0.579914 -0.1490431,-0.01044 -0.4472574,0.04856 -0.4863408,0.04195 0.125955,-0.08078 0.4535492,-0.05344 0.4596509,-0.173658 -0.029868,-0.01744 -0.0605,-0.03362 -0.091815,-0.04829 z m -2.1606018,1.50105 c -0.013732,0.148414 0.014364,0.195352 0.023327,0.02076 0.01969,-0.105091 0.093002,-0.360813 0.00649,-0.116143 -0.011433,0.0313 -0.021739,0.06305 -0.029819,0.09539 z m 1.0689293,-0.09097 c -0.1086032,0.21224 -0.074097,0.669649 -0.07932,0.754917 -0.085776,-0.256942 -0.058457,-0.521826 0.07932,-0.754917 z m 0.4776067,2.297061 c 0.068019,0.04817 0.358185,0.168697 0.1364591,0.09097 -0.044802,-0.03136 -0.093104,-0.0575 -0.1364591,-0.09097 z"
     id="path3513" />
  <path
     style="opacity:0.74021349;fill:#ffecd4;fill-opacity:1;fill-rule:evenodd;display:inline"
     d="m 4.6576536,7.6077672 c -0.038187,0.02994 -0.074501,0.06254 -0.1137159,0.09097 0.1377445,0.170906 0.2550102,0.359327 0.3411477,0.56858 0.3465891,0.89053 0.040111,1.649403 -0.5230931,2.2970618 0.6848007,-0.8559048 0.7291505,-1.9565488 0.090973,-2.7974118 -0.030996,0.02071 -0.058997,0.04895 -0.090973,0.06823 0.1659463,0.198835 0.3196232,0.406193 0.4093772,0.636809 C 5.0024289,9.4434932 4.6721605,10.417072 3.7479265,11.06473 3.3356294,11.329572 2.8818548,11.512938 2.4288222,11.656052 3.1123948,11.410001 3.7260977,10.987607 4.20279,10.405177 4.6649067,9.8654622 4.6612812,9.1196652 4.4302218,8.4720062 4.6612812,10.199095 3.1383162,11.514169 1.4053793,11.837998 c -0.1895396,0.0253 -0.3667339,0.03902 -0.54583631,0.04549 0.016336,0.07474 0.023483,0.153993 0.045486,0.227432 C 2.532457,12.06905 4.101656,11.437038 4.885085,9.9730602 5.3100841,9.1788772 5.1736258,8.2895822 4.6576532,7.6077702 z M 1.9967019,11.769769 c -0.1369383,0.03174 -0.2714627,0.06928 -0.4093772,0.09097 0.1443045,-0.0238 0.2682276,-0.05457 0.4093772,-0.09097 z"
     id="path3527" />
  <path
     style="opacity:0.77021353;fill:#fff6e3;fill-opacity:1;fill-rule:evenodd;display:inline"
     d="m 10.93477,2.103918 c -0.03294,0.013667 -0.05928,0.029565 -0.09097,0.045486 -0.02468,0.1701175 -0.04952,0.3578762 -0.04549,0.5230931 -0.008,-0.1546999 0.0032,-0.3364465 0.02274,-0.5003499 -0.05403,0.028723 -0.109614,0.054872 -0.159202,0.090973 -0.06119,0.3672304 -0.07807,0.7319571 -0.04549,1.1144157 0.05194,0.3349617 0.159497,0.6333803 0.318404,0.9097273 -0.08924,-0.244916 -0.144093,-0.4936351 -0.181945,-0.7505251 0.03845,0.24877 0.100726,0.5056631 0.181945,0.7505251 0.366643,0.637605 0.993838,1.067502 1.819454,1.091672 -0.962012,-0.250056 -1.493294,-0.9152 -1.751224,-1.7512243 0.252737,0.6098413 0.709465,1.1257593 1.273618,1.3873333 0.50039,0.232012 1.025623,0.200122 1.501049,0 0.0303,-0.05611 0.04744,-0.12322 0.06823,-0.181945 -0.382352,0.194204 -0.790106,0.302704 -1.228132,0.181945 -1.193706,-0.382107 -1.697732,-1.5048218 -1.728481,-2.5472354 0.0027,-0.1261487 0.03146,-0.2397751 0.04549,-0.3638908 z"
     id="path3511" />
  <path
     style="opacity:0.74021349;fill:#ffdec2;fill-opacity:1;fill-rule:evenodd;display:inline"
     d="M 7.7042357,0.01154496 C 7.0689555,0.16912086 6.4871299,0.86087186 6.7305561,1.5319172 6.789971,1.7768011 6.886596,1.8799173 6.7799996,1.5737836 6.6756753,0.88865536 7.2319087,0.23005206 7.8892058,0.09841406 8.1575869,-0.03693054 7.7733495,0.02431606 7.7042357,0.01154496 z M 6.9309677,1.9674582 C 7.0166327,2.2817133 7.7122988,2.5182952 7.670316,2.5802492 7.4550345,2.5278839 6.8760721,2.2735546 7.361134,2.5004873 7.8209843,2.6798047 8.359582,2.6566246 8.7959082,2.4223215 9.0893017,2.4921921 9.4031146,1.868555 9.3665873,1.8781015 8.8147781,2.6052803 7.5039866,2.7360575 6.9309677,1.9674582 z m 1.7739678,0.5458362 c -0.3379083,0.059493 -0.2114242,0.1839557 0,0 z M 6.976454,2.2858627 c -0.2055486,-0.1731405 -0.1830451,-0.1427323 0,0 z m 6.822953,1.2508747 c -0.156579,-0.081972 -0.03308,0.099658 0,0 z m -3.547936,1.4100768 c -0.5400979,0.428048 -0.02672,-0.05113 0.27298,0.522403 0.01739,0.147773 -0.154276,0.620904 0.01061,0.242859 0.211562,-0.236351 0.05971,-0.541624 -0.115404,-0.587284 -0.04754,-0.06491 -0.0892,-0.146166 -0.168187,-0.177978 z m 0.159202,0.955214 0,0 z m -0.09097,0.113716 c -0.152378,0.07005 -0.240023,0.198857 -0.04091,0.03549 l 0.04091,-0.03549 z m -0.09097,0.04549 c -0.155226,0.06585 -0.7140444,0.204358 -0.615489,0.04766 0.1656933,-0.01092 0.583868,-0.129335 0.1783383,-0.09245 -0.2378817,-0.04886 -0.1489555,0.121966 -0.5525985,0.03889 -0.4959141,-0.307893 0.6605095,0.334591 0.161141,0.06782 0.2556843,0.121025 0.6289772,0.199496 0.8286082,-0.06192 z M 9.0915695,5.9020282 c 4.687e-4,-0.165354 -0.171755,-0.104735 0,0 z m -0.045486,-0.02274 c -0.1997907,-0.305076 -0.1746203,0.02349 0.024373,0.08668 0.026528,-0.02616 -0.019774,-0.06584 -0.024373,-0.08668 z m 0.022743,-0.113719 c -0.050843,-0.166172 -0.2402611,-0.148977 0,0 z m 1.3645905,-0.545837 c -0.297105,0.124721 0.123423,0.506813 -0.136459,0.659553 0.202433,-0.150197 0.207579,-0.440525 0.136459,-0.659553 z m -0.159203,0.113716 c -0.170004,-0.0034 -0.218876,0.152297 0,0 z m -1.4100761,0.50035 0.039191,0.04 -0.039191,-0.04 z m 1.3191041,0.113716 c -0.178043,0.0202 -0.07642,0.134856 0,0 z m 3.681825,1.075531 c -0.420366,0.376044 -0.238381,1.234886 0.365856,1.2868 0.257016,0.137248 0.894902,0.01245 0.811894,-0.203383 -0.161167,0.06062 0.181452,-0.337504 -0.151748,-0.154742 -0.386019,0.240443 -1.031983,-0.04383 -0.89152,-0.547882 -0.215116,0.286202 0.375845,0.942412 0.837956,0.670149 0.363666,-0.183312 -0.308587,0.35076 -0.517765,0.130072 -0.267985,-0.154796 -0.743834,-0.471457 -0.44455,-0.661309 0.08699,-0.156233 0.377096,-0.576945 0.04829,-0.251102 -0.462154,0.421478 0.205129,-0.339679 -0.05841,-0.268603 z m 0.02274,1.0007 0.0468,0.04093 -0.0468,-0.04093 z m 0.318404,0.181945 c 0.251674,0.03508 0.165325,0.0716 0,0 z"
     id="path3616"
     sodipodi:nodetypes="ccccccccccccccccccccccccccccccccccccccccccccccccccccccccccccccccc" />
  <path
     style="opacity:0.74021349;fill:#ffecd4;fill-opacity:1;fill-rule:evenodd;display:inline"
     d="m 2.656254,2.3768361 c -0.039243,0.010455 -0.075667,0.031673 -0.1137159,0.045486 0.022181,0.038413 0.047849,0.074161 0.06823,0.1137159 0.3116194,0.8374077 0.3275762,1.9372602 -0.2956613,2.7746682 -0.253191,0.279137 -0.544213,0.554286 -0.8414975,0.773268 -0.089912,0.06619 -0.1813991,0.122711 -0.2729181,0.181945 0.03254,0.04153 0.077864,0.07473 0.1137159,0.113716 0.165406,-0.120492 0.3141838,-0.256353 0.4548635,-0.386634 0.5344254,-0.495048 0.96514,-1.107912 1.159902,-1.910427 C 3.052566,3.456232 2.9367526,2.8721322 2.6562545,2.3768357 z m 0.068229,0 C 2.9895261,2.8552097 3.1313625,3.3934502 3.0656312,3.9233722 2.9098208,4.7607802 2.5270719,5.4311142 1.9967019,5.9475152 2.0901518,5.8675742 2.2265067,5.8521642 2.3151063,5.7655692 3.3023201,4.7928312 3.3470759,3.45208 2.7244835,2.3768361 z"
     id="path3527-9" />
</svg>
