<?xml version="1.0" encoding="UTF-8" standalone="no"?>
<!-- Created with Inkscape (http://www.inkscape.org/) -->

<svg
   xmlns:dc="http://purl.org/dc/elements/1.1/"
   xmlns:cc="http://creativecommons.org/ns#"
   xmlns:rdf="http://www.w3.org/1999/02/22-rdf-syntax-ns#"
   xmlns:svg="http://www.w3.org/2000/svg"
   xmlns="http://www.w3.org/2000/svg"
   xmlns:xlink="http://www.w3.org/1999/xlink"
   xmlns:sodipodi="http://sodipodi.sourceforge.net/DTD/sodipodi-0.dtd"
   xmlns:inkscape="http://www.inkscape.org/namespaces/inkscape"
   version="1.1"
   width="48"
   height="48"
   id="svg4285"
   inkscape:version="0.47pre4 r22446"
   sodipodi:docname="stock_person.svg">
  <metadata
     id="metadata72">
    <rdf:RDF>
      <cc:Work
         rdf:about="">
        <dc:format>image/svg+xml</dc:format>
        <dc:type
           rdf:resource="http://purl.org/dc/dcmitype/StillImage" />
      </cc:Work>
    </rdf:RDF>
  </metadata>
  <sodipodi:namedview
     pagecolor="#ffffff"
     bordercolor="#666666"
     borderopacity="1"
     objecttolerance="10"
     gridtolerance="10"
     guidetolerance="10"
     inkscape:pageopacity="0"
     inkscape:pageshadow="2"
     inkscape:window-width="659"
     inkscape:window-height="489"
     id="namedview70"
     showgrid="false"
     inkscape:zoom="4.9166667"
     inkscape:cx="24"
     inkscape:cy="24"
     inkscape:window-x="0"
     inkscape:window-y="24"
     inkscape:window-maximized="0"
     inkscape:current-layer="svg4285" />
  <defs
     id="defs4287">
    <linearGradient
       id="linearGradient3963">
      <stop
         id="stop3965"
         style="stop-color:#ffffff;stop-opacity:1"
         offset="0" />
      <stop
         id="stop3967"
         style="stop-color:#ffffff;stop-opacity:0"
         offset="1" />
    </linearGradient>
    <linearGradient
       id="linearGradient3955">
      <stop
         id="stop3957"
         style="stop-color:#ffffff;stop-opacity:1"
         offset="0" />
      <stop
         id="stop3959"
         style="stop-color:#ffffff;stop-opacity:0"
         offset="1" />
    </linearGradient>
    <linearGradient
       id="linearGradient3926">
      <stop
         id="stop3928"
         style="stop-color:#ffffff;stop-opacity:1"
         offset="0" />
      <stop
         id="stop3930"
         style="stop-color:#ffffff;stop-opacity:0"
         offset="1" />
    </linearGradient>
    <linearGradient
       id="linearGradient3918">
      <stop
         id="stop3920"
         style="stop-color:#ffffff;stop-opacity:1"
         offset="0" />
      <stop
         id="stop3922"
         style="stop-color:#ffffff;stop-opacity:0.59315592"
         offset="1" />
    </linearGradient>
    <linearGradient
       id="linearGradient3910">
      <stop
         id="stop3912"
         style="stop-color:#ffffff;stop-opacity:0"
         offset="0" />
      <stop
         id="stop3914"
         style="stop-color:#ffffff;stop-opacity:1"
         offset="1" />
    </linearGradient>
    <linearGradient
       id="linearGradient3902">
      <stop
         id="stop3904"
         style="stop-color:#505050;stop-opacity:0"
         offset="0" />
      <stop
         id="stop3906"
         style="stop-color:#ffffff;stop-opacity:0.28076923"
         offset="1" />
    </linearGradient>
    <linearGradient
       id="linearGradient3894">
      <stop
         id="stop3896"
         style="stop-color:#ffffff;stop-opacity:0.37262356"
         offset="0" />
      <stop
         id="stop3898"
         style="stop-color:#ffffff;stop-opacity:0.09125476"
         offset="1" />
    </linearGradient>
    <linearGradient
       id="linearGradient3882">
      <stop
         id="stop3884"
         style="stop-color:#ffffff;stop-opacity:1"
         offset="0" />
      <stop
         id="stop3886"
         style="stop-color:#ffffff;stop-opacity:0"
         offset="1" />
    </linearGradient>
    <linearGradient
       id="linearGradient3865">
      <stop
         id="stop3867"
         style="stop-color:#ffffff;stop-opacity:1"
         offset="0" />
      <stop
         id="stop3869"
         style="stop-color:#ffffff;stop-opacity:0"
         offset="1" />
    </linearGradient>
    <linearGradient
       id="linearGradient3844">
      <stop
         id="stop3846"
         style="stop-color:#ffffff;stop-opacity:1"
         offset="0" />
      <stop
         id="stop3863"
         style="stop-color:#ffffff;stop-opacity:0.49803922"
         offset="0.38408825" />
      <stop
         id="stop3848"
         style="stop-color:#ffffff;stop-opacity:0"
         offset="1" />
    </linearGradient>
    <linearGradient
       id="linearGradient3799">
      <stop
         id="stop3801"
         style="stop-color:#ffffff;stop-opacity:1"
         offset="0" />
      <stop
         id="stop3852"
         style="stop-color:#ffffff;stop-opacity:0.49803922"
         offset="0.38922155" />
      <stop
         id="stop3803"
         style="stop-color:#ffffff;stop-opacity:0"
         offset="1" />
    </linearGradient>
    <linearGradient
       x1="344.16959"
       y1="510.40009"
       x2="322.71857"
       y2="527.15009"
       id="linearGradient3850"
       xlink:href="#linearGradient3844"
       gradientUnits="userSpaceOnUse"
       gradientTransform="matrix(0.12364723,0,0,0.12364723,105.64775,574.68094)" />
    <linearGradient
       x1="256.84323"
       y1="556.71069"
       x2="287.4155"
       y2="554.46808"
       id="linearGradient3861"
       xlink:href="#linearGradient3799"
       gradientUnits="userSpaceOnUse"
       gradientTransform="matrix(0.15914466,0,0,0.12364723,96.445731,574.68094)" />
    <linearGradient
       x1="421.87692"
       y1="568.21527"
       x2="389.03873"
       y2="587.46527"
       id="linearGradient3871"
       xlink:href="#linearGradient3865"
       gradientUnits="userSpaceOnUse"
       gradientTransform="matrix(0.12364723,0,0,0.12364723,105.64775,574.68094)" />
    <linearGradient
       x1="175.79066"
       y1="562.12231"
       x2="210.78297"
       y2="579.62231"
       id="linearGradient3880"
       xlink:href="#linearGradient3882"
       gradientUnits="userSpaceOnUse"
       gradientTransform="matrix(0.12364723,0,0,0.12364723,105.64775,574.68094)" />
    <linearGradient
       x1="270.28873"
       y1="456.40485"
       x2="258.78873"
       y2="437.40485"
       id="linearGradient3888"
       xlink:href="#linearGradient3882"
       gradientUnits="userSpaceOnUse"
       gradientTransform="matrix(0.12364723,0,0,0.12364723,105.64775,574.68094)" />
    <linearGradient
       x1="296.76578"
       y1="377.22821"
       x2="292.28873"
       y2="410.22821"
       id="linearGradient3900"
       xlink:href="#linearGradient3894"
       gradientUnits="userSpaceOnUse"
       gradientTransform="matrix(0.12364723,0,0,0.12364723,105.64775,574.68094)" />
    <radialGradient
       cx="334.34973"
       cy="429.258"
       r="28.867611"
       fx="334.34973"
       fy="429.258"
       id="radialGradient3908"
       xlink:href="#linearGradient3902"
       gradientUnits="userSpaceOnUse"
       gradientTransform="matrix(0.12364724,0.00428332,-0.00507554,0.14651634,107.86437,563.34844)" />
    <radialGradient
       cx="204.48492"
       cy="425.3735"
       r="18.704613"
       fx="204.48492"
       fy="425.3735"
       id="radialGradient3916"
       xlink:href="#linearGradient3910"
       gradientUnits="userSpaceOnUse"
       gradientTransform="matrix(0.57308619,-0.00548381,0.00284413,0.29722465,12.444151,502.08624)" />
    <linearGradient
       x1="149.10364"
       y1="622.48138"
       x2="147.78259"
       y2="611.10638"
       id="linearGradient3924"
       xlink:href="#linearGradient3918"
       gradientUnits="userSpaceOnUse"
       gradientTransform="matrix(0.99831733,-0.0579872,0.0579872,0.99831733,-34.785677,9.4984714)" />
    <linearGradient
       x1="133.20557"
       y1="614.64185"
       x2="137.68925"
       y2="619.01685"
       id="linearGradient3932"
       xlink:href="#linearGradient3926"
       gradientUnits="userSpaceOnUse"
       gradientTransform="translate(1.0000194,0)" />
    <linearGradient
       x1="127.77165"
       y1="614.15778"
       x2="130.1864"
       y2="612.53278"
       id="linearGradient3961"
       xlink:href="#linearGradient3955"
       gradientUnits="userSpaceOnUse"
       gradientTransform="translate(1.0000194,0)" />
    <linearGradient
       x1="124.88369"
       y1="614.24451"
       x2="128.61511"
       y2="616.27576"
       id="linearGradient3969"
       xlink:href="#linearGradient3963"
       gradientUnits="userSpaceOnUse"
       gradientTransform="translate(1.2812693,-0.09375)" />
  </defs>
  <g
     transform="translate(-119.41281,-607.76453)"
     id="layer1">
    <path
       d="m 139.77325,655.49848 c -6.64157,-0.71285 -15.05088,-1.78464 -19.015,-6.12182 -0.62018,-0.84332 -0.55327,-1.02126 1.44525,-3.84379 0.52427,-0.74045 2.72496,-2.88966 4.24201,-4.14279 0.76188,-0.62935 0.82639,-0.65679 1.73106,-0.7364 0.68161,-0.06 1.21135,-0.20379 1.92886,-0.52361 0.54405,-0.2425 1.11286,-0.47778 1.26402,-0.52283 0.24667,-0.0735 0.26713,-0.13823 0.19958,-0.63107 -0.0509,-0.37165 -0.0299,-0.54915 0.0652,-0.54915 0.0772,0 0.14246,0.0417 0.1449,0.0927 0.002,0.051 0.14298,0.25965 0.31229,0.46367 l 0.30784,0.37094 -0.18864,-0.4597 c -0.21513,-0.52425 -0.22574,-0.5913 -0.0936,-0.5913 0.0522,0 0.17745,0.13585 0.27821,0.30188 0.17527,0.28881 0.18389,0.26875 0.19937,-0.46368 0.0103,-0.48654 0.12893,-1.05847 0.32555,-1.56926 0.17015,-0.44204 0.34775,-1.03515 0.39465,-1.31802 0.0756,-0.45599 0.0552,-0.52387 -0.18009,-0.59855 -0.14596,-0.0463 -0.76096,-0.45476 -1.36669,-0.90762 -1.44405,-1.07966 -2.81732,-1.96089 -3.33934,-2.14286 -0.23064,-0.0804 -0.55977,-0.21947 -0.7314,-0.30904 -0.17162,-0.0896 -0.40941,-0.16321 -0.52842,-0.16362 -0.27199,-9.9e-4 -0.27054,-0.0281 0.0334,-0.62393 0.26298,-0.51548 0.20334,-0.60961 -0.19526,-0.30812 -0.31852,0.24092 -0.4966,0.2386 -0.29539,-0.004 0.14095,-0.16983 0.11825,-0.18267 -0.18741,-0.10595 -0.34601,0.0868 -0.34735,0.0848 -0.26282,-0.39408 0.15629,-0.88549 0.45384,-1.63236 0.78045,-1.95897 0.25631,-0.25631 0.27426,-0.30614 0.0863,-0.23938 -0.1306,0.0464 -0.41828,0.21802 -0.6393,0.38144 -0.46737,0.34556 -0.5205,0.22281 -0.12383,-0.28611 l 0.27803,-0.35671 -0.37076,0.22564 c -0.30557,0.18596 -0.2792,0.13703 0.14995,-0.27821 0.28639,-0.27711 0.50895,-0.50312 0.49459,-0.50224 -0.0144,8.6e-4 -0.37884,0.11216 -0.80994,0.24729 -1.16269,0.36447 -1.18218,0.30215 -0.0817,-0.26125 1.25612,-0.64309 2.22903,-1.37066 2.47884,-1.85375 0.19124,-0.36982 0.18645,-0.3875 -0.24879,-0.91866 -0.46929,-0.5727 -0.96341,-0.97069 -1.44429,-1.16329 l -0.29117,-0.11662 0.30912,-0.0176 c 0.17001,-0.01 0.23956,-0.0457 0.15456,-0.08 -0.23906,-0.0965 -0.1825,-0.29026 0.0618,-0.21184 0.18298,0.0587 0.17812,0.0343 -0.0315,-0.15844 -0.51768,-0.47599 -0.87423,-0.95087 -0.65489,-0.87223 0.15663,0.0562 0.19061,0.0246 0.13355,-0.12413 -0.051,-0.13285 -0.0282,-0.1696 0.0681,-0.11005 0.20243,0.1251 0.1805,-0.0516 -0.0361,-0.29092 -0.0994,-0.10985 -0.27217,-0.42026 -0.38388,-0.6898 l -0.20313,-0.49006 0.33989,0.30912 0.33989,0.30911 -0.20944,-0.32768 c -0.11518,-0.18022 -0.16494,-0.34715 -0.11056,-0.37094 l -0.22443,-0.96449 -0.0788,0.25741 -0.0589,-0.33724 -0.0333,-0.19065 c -0.0464,-0.24741 -0.0517,-0.83165 -0.0117,-1.2983 0.04,-0.46666 0.11455,-2.35078 0.16572,-4.18694 0.0892,-3.19898 0.10509,-3.35785 0.38133,-3.80215 0.5013,-0.80627 0.88353,-0.64253 2.0345,0.87152 0.33703,0.44335 0.78156,0.82088 1.37509,1.16786 0.48239,0.28199 1.09963,0.67656 1.37166,0.87681 0.6205,0.4568 1.81124,1.72799 2.18768,2.33549 0.19466,0.31414 0.37642,0.46141 0.5723,0.46368 0.29324,0.003 0.64031,-0.25253 0.64031,-0.47216 0,-0.0672 0.21545,-0.004 0.47878,0.14004 l 0.47878,0.26226 1.25005,-0.40942 c 0.97254,-0.31852 1.46946,-0.41125 2.23841,-0.41772 0.98218,-0.008 0.98789,-0.0102 0.91327,-0.30749 -0.0746,-0.29727 -0.0727,-0.29793 0.30466,-0.1028 0.20887,0.108 0.46129,0.31277 0.56093,0.45504 0.15076,0.21524 0.22468,0.23539 0.44027,0.12 0.14251,-0.0763 0.2591,-0.18585 0.2591,-0.24353 0,-0.0577 0.11128,-0.13398 0.24729,-0.16955 0.20733,-0.0542 0.2473,-0.004 0.2473,0.31198 0,0.3256 0.26408,0.69604 0.5055,0.70909 0.0686,0.004 1.51603,-1.80811 1.78197,-2.23063 0.5404,-0.85857 0.71243,-1.11662 1.10681,-1.66032 0.24664,-0.34003 0.65492,-0.96288 0.90729,-1.38411 0.55333,-0.92358 1.26455,-1.52237 1.80506,-1.51971 0.21166,9.9e-4 0.44764,0.0428 0.52438,0.0927 0.0768,0.05 0.25831,0.52536 0.40349,1.05644 0.2835,1.03713 0.66831,1.8704 1.17827,2.55145 0.2757,0.29926 0.34108,0.68136 0.50007,1.03921 0.94459,2.03128 1.3325,3.83238 1.35325,6.28329 0.006,0.72529 0.0322,1.29775 0.0579,1.27213 0.0257,-0.0256 0.14947,-0.34084 0.27499,-0.70048 l 0.2282,-0.65389 -0.0329,0.98918 c -0.0181,0.54404 -0.0769,1.10046 -0.13078,1.23647 -0.0876,0.22123 -0.0719,0.21797 0.14869,-0.0309 0.1356,-0.15302 0.30069,-0.27821 0.36687,-0.27821 0.0662,0 0.14942,-0.11128 0.18498,-0.2473 0.0762,-0.29135 0.33512,-0.33366 0.33512,-0.0548 0,0.42192 -0.30412,1.37828 -0.57693,1.81427 -0.37596,0.60082 -0.364,0.66031 0.0705,0.35091 0.45588,-0.32462 0.61077,-0.32869 0.32094,-0.008 -0.12309,0.13601 -0.16635,0.24729 -0.0961,0.24729 0.0702,0 0.19806,-0.0848 0.28408,-0.18846 0.33181,-0.3998 0.24407,-0.0557 -0.11065,0.43402 -0.3557,0.49102 -0.51842,0.87959 -0.68679,1.64006 -0.0631,0.2849 -0.0342,0.34003 0.17834,0.34003 0.13949,0 0.46049,-0.0863 0.71333,-0.19184 l 0.4597,-0.19184 -0.48219,0.49423 c -0.42584,0.43645 -0.44752,0.48554 -0.18548,0.41999 l 0.29673,-0.0742 -0.30912,0.27297 -0.30912,0.27298 0.30912,-0.0749 0.30912,-0.0749 -0.2919,0.25383 c -0.16055,0.13961 -0.38312,0.25565 -0.49459,0.25787 -0.11148,0.002 0.0767,0.10063 0.41813,0.2187 0.72349,0.25017 1.36262,0.67667 1.55628,1.03854 0.12968,0.24231 0.11288,0.25072 -0.34028,0.17027 -0.26218,-0.0465 -0.58798,-0.1115 -0.72399,-0.14436 -0.15984,-0.0386 -0.12575,0.01 0.0964,0.13611 0.18904,0.10772 0.31095,0.24886 0.27091,0.31363 -0.04,0.0648 0.014,0.11778 0.11998,0.11778 0.29759,0 0.23001,0.17326 -0.18818,0.48244 -0.20953,0.1549 -0.67711,0.73569 -1.03906,1.29063 -1.24084,1.9024 -2.57818,3.12776 -4.19307,3.84194 l -0.69293,0.30645 0.003,0.59413 c 0.004,0.77073 0.2971,1.38785 1.15515,2.42815 0.38326,0.46467 0.70329,0.96544 0.71118,1.11283 0.0119,0.2224 0.10154,0.48355 0.14992,0.29643 0.22545,-0.22857 0.13907,-0.84514 0.13907,-0.84514 0,0 0.55961,0.4825 0.54258,0.94376 -0.0357,0.44871 -0.036,0.25251 0.0392,0.52474 0.0359,0.12973 0.28409,-0.87568 0.28409,-0.87568 0,0 0.28803,0.87428 0.43917,0.98287 0.18822,0.13523 1.01671,0.66012 2.70129,1.21632 0.7162,0.23647 1.2366,0.50688 1.69674,0.88167 0.36503,0.29732 1.7085,1.06717 2.98549,1.71078 1.27699,0.64361 2.5811,1.35364 2.89802,1.57786 2.24327,1.58708 3.46015,2.48805 3.96782,2.93776 0.51054,0.45227 0.58732,0.58306 0.58732,1.0005 0,0.64487 -0.96221,1.81535 -2.05956,2.90602 -2.62238,2.60642 -5.88946,3.46962 -9.42882,3.88556 -4.84587,0.31184 -10.46347,0.64875 -15.25791,0.13416 z"
       id="path2844"
       style="fill:#232323;fill-opacity:1" />
    <path
       d="m 140.05751,637.04861 c -0.57893,0.83718 -1.95622,1.9157 -2.91092,2.52693 0.15539,0.39456 1.62455,-0.48334 1.99177,-0.53537 0.82943,-0.0652 -0.19295,0.52068 -0.37728,0.69974 -1.18482,0.56921 -1.5311,2.20922 -1.56684,3.20271 0.7659,-0.80459 2.44214,-1.71641 2.78077,-1.86448 -0.007,0.56929 -0.46138,1.5578 -0.74379,2.03777 -1.18258,0.75721 -2.07497,3.14536 -1.99853,4.33839 3.52826,-1.88527 2.2886,-0.91423 1.69274,1.45644 0.0729,1.4975 0.3118,1.17392 3.37888,1.29923 0.83739,-0.13734 1.09049,-0.88734 1.24278,-1.4489 0.20741,-0.9911 0.1938,-2.00058 0.37462,-2.99443 0.17727,-1.74629 0.24186,-3.51158 -0.0263,-5.25355 -0.20532,-0.81291 -0.94417,-1.47824 -1.83548,-1.90225 -0.76488,-0.43223 -1.58102,-0.88055 -2.00237,-1.56223 z"
       id="path3795-8"
       style="opacity:0.28800001;fill:url(#linearGradient3861);fill-opacity:1;stroke:none" />
    <path
       d="m 129.96081,642.40022 c -1.71483,0.5789 -4.46444,3.74795 -5.1118,5.2249 2.16211,1.61667 3.59916,2.63435 6.11363,2.38298 0.33728,-0.0838 0.72862,-2.90336 0.74604,-3.31228 -0.0589,-1.30118 1.15325,-3.09307 0.12616,-4.1449 -0.54169,-0.35143 -1.20541,-0.16256 -1.87403,-0.1507 z"
       id="path3856-7"
       style="opacity:0.13999999;fill:url(#linearGradient3880);fill-opacity:1;stroke:none" />
    <path
       d="m 137.88196,628.90722 c -0.17855,0 -0.91577,0.55933 -0.91577,0.69551 0,0.3961 0.68769,1.50984 1.34467,2.18315 0.79841,0.81826 0.95294,0.71706 0.46367,-0.30525 -0.17201,-0.35944 -0.26761,-0.69838 -0.21251,-0.75348 0.0551,-0.0551 0.64782,-0.14254 1.32147,-0.1932 l 1.22489,-0.0927 -0.98918,-0.0966 c -0.66942,-0.0648 -1.19978,-0.20009 -1.64606,-0.42118 -0.59437,-0.29445 -0.65621,-0.36091 -0.6105,-0.67233 0.0279,-0.19003 0.0377,-0.34389 0.0193,-0.34389 z"
       id="path3892-0"
       style="opacity:0.40384617;fill:url(#linearGradient3888);fill-opacity:1;stroke:none" />
    <path
       d="m 146.63772,634.12745 -0.65301,0.21252 c -0.57814,0.18847 -0.48615,0.38919 -0.82302,0.69551 -1.12301,1.02115 -1.24238,2.38034 -1.11669,2.82071 0.10577,0.90131 0.80839,2.30335 1.20942,3.06026 0.11704,0.32383 2.3943,1.33849 2.53863,1.3408 0.0718,10e-4 0.57259,-0.13199 1.11283,-0.29752 0.54024,-0.16553 0.88408,-0.30463 0.76507,-0.30912 -0.36837,-0.0139 0.49648,-1.05827 0.98917,-1.58423 0.30827,-0.32908 -0.58057,-0.1229 -1.03941,0.17774 -0.31461,0.20615 -0.32036,0.20492 -0.2357,-0.0618 0.0902,-0.28409 -0.10841,-0.39039 -0.21638,-0.11592 -0.0334,0.085 -0.0289,-0.0541 0.008,-0.30912 0.0711,-0.49419 0.33223,-1.46728 0.0541,-1.13214 -0.14883,0.17932 -0.57315,1.04026 -0.64528,0.83462 -0.0689,-0.1963 -0.10513,-0.17693 -0.27821,0.14296 l -0.20092,0.37094 -0.004,-0.59118 c -0.003,-0.40253 -0.11634,-0.79522 -0.34776,-1.22488 -0.61215,-1.13653 -0.62759,-1.16105 -0.69165,-0.96213 -0.0321,0.0996 -0.0896,0.26506 -0.12365,0.36707 -0.034,0.10201 -0.0638,0.0186 -0.0695,-0.18547 l 0.11206,-0.83462 -0.44049,0.83462 -0.31685,0.37094 0.0657,-0.39026 0.86553,-1.77356 c -0.46629,0.70382 -1.52347,1.96077 -0.966,0.2357 0.17573,-0.50378 0.34707,-1.09244 0.38254,-1.30602 l 0.0657,-0.3864 z"
       id="path3946-6"
       style="opacity:0.35400008;fill:url(#linearGradient3850);fill-opacity:1;stroke:none" />
    <path
       d="m 135.43348,624.69329 c -1.27886,0.006 -1.73632,0.60406 -0.5984,0.57383 0.39062,-0.01 0.81768,0.30363 0.99967,0.44142 0.52802,0.39978 0.82368,0.45863 0.82368,-0.0694 0,-0.63381 -0.40656,-0.94957 -1.22495,-0.94589 z"
       id="path3993-0"
       style="opacity:0.47692309;fill:#ffffff;fill-opacity:1;stroke:none" />
    <path
       d="m 144.80324,624.55073 c -0.17204,-0.003 -0.33436,0.021 -0.46712,0.0631 -0.6113,0.19402 -0.48948,0.50499 0.19569,0.50499 0.41851,0 0.69762,0.15352 0.92791,0.50499 0.40008,0.61059 0.42005,0.61273 0.70068,0.0884 0.16396,-0.30637 0.15636,-0.49073 -0.0126,-0.69436 -0.21956,-0.26455 -0.82843,-0.45944 -1.34453,-0.46711 z"
       id="path3995-3"
       style="opacity:0.50769234;fill:#ffffff;fill-opacity:1;stroke:none" />
    <path
       d="m 144.44685,620.47989 -0.49459,0.19706 c -0.27202,0.10911 -0.77978,0.39667 -1.13214,0.63755 -0.38749,0.2649 -0.75255,0.42226 -0.92349,0.39799 -0.27365,-0.0388 -0.2869,0.008 -0.42504,1.39104 -0.0785,0.78586 -0.18289,1.54264 -0.22798,1.68469 -0.0789,0.24851 0.1805,0.65687 0.41731,0.65687 0.0558,0 0.38677,-0.25567 0.73416,-0.568 l 0.62983,-0.568 0,-0.98145 c 0,-1.19511 0.19322,-1.70238 0.89644,-2.35703 l 0.5255,-0.49072 z"
       id="path4074-8"
       style="opacity:0.57307691;fill:url(#linearGradient3900);fill-opacity:1;stroke:none" />
    <path
       d="m 149.46616,626.59656 c -0.11197,0.026 -0.28547,0.26593 -0.50232,0.69551 -0.26135,0.51774 -0.77342,1.15272 -1.61514,2.00154 -0.67759,0.6833 -1.23261,1.31514 -1.23261,1.40263 0,0.31304 0.41678,0.49272 1.46831,0.63369 1.52322,0.2042 1.61366,0.19916 2.17155,-0.0734 0.2765,-0.13509 0.80835,-0.49788 1.18238,-0.80757 0.37403,-0.30969 1.02323,-0.84052 1.44126,-1.17851 0.25405,-0.2054 0.53588,-0.54956 0.69165,-0.70711 0.10056,-0.1017 -2.07444,-0.39382 -2.05949,-0.43276 0.023,-0.0599 2.19517,0.22101 2.11745,0.15069 -0.085,-0.0769 -0.21886,-0.2082 -0.45208,-0.26275 -1.11805,-0.26152 -3.71791,-0.77427 -0.54096,-0.41731 0.0888,0.01 -0.11711,-0.19696 -0.35548,-0.2357 -1.99003,-0.32347 -1.84366,-0.32276 -0.17002,-0.17774 0.17946,0.0155 -0.0813,-0.15722 -0.84621,-0.30912 -0.59773,-0.11871 -1.16111,-0.24336 -1.25193,-0.27821 -0.0134,-0.005 -0.0304,-0.008 -0.0464,-0.004 z"
       id="path4121"
       style="opacity:0.80400002;fill:url(#radialGradient3908);fill-opacity:1;stroke:none" />
    <path
       d="m 152.54416,643.18882 c -0.27827,0.008 -0.53489,0.0414 -0.63001,0.0906 -0.28207,0.14582 -0.29157,0.57504 -0.0288,1.07884 0.10826,0.20758 0.19353,0.43049 0.19353,0.49413 0,0.0636 0.12994,0.26327 0.28412,0.44059 0.15418,0.17733 0.34689,0.44021 0.42824,0.58472 0.0813,0.1445 0.37146,0.65627 0.64649,1.14061 0.55345,0.97466 0.77028,1.51242 1.19002,2.92769 0.3167,1.06787 0.36198,1.09236 1.40414,0.76591 0.70866,-0.222 1.89805,-0.79292 2.4171,-1.16121 0.50643,-0.35933 1.14061,-1.26049 1.14061,-1.61826 0,-0.43798 -0.65117,-1.17101 -1.75415,-1.97651 -0.54303,-0.39657 -1.0164,-0.7206 -1.05414,-0.7206 -0.0377,0 -0.5028,-0.28821 -1.03355,-0.63824 -1.79207,-1.1819 -2.20301,-1.37838 -2.92357,-1.40826 -0.0932,-0.004 -0.18725,-0.003 -0.28001,0 z"
       id="path4168"
       style="opacity:0.2;fill:url(#linearGradient3871);fill-opacity:1;stroke:none" />
    <path
       d="m 147.55298,608.98888 0.008,0.73108 c 0.004,0.54142 1.21289,2.92741 1.4676,3.49022 1.10652,2.44445 1.16688,2.63431 1.23055,3.92674 -0.0443,1.50564 0.32604,1.1809 0.39377,2.88136 0.40286,0.96034 0.67269,1.94476 0.55895,2.02663 -0.0675,0.0486 -0.022,0.30922 0.11159,0.65537 0.25333,0.65609 0.35556,0.62327 0.71104,-0.21934 0.28395,-0.67304 -0.007,-1.1404 -0.0906,-1.21494 -0.23649,-1.30769 -0.15148,-2.47385 -1.29355,-7.24822 -0.1481,-0.49036 -0.25109,-0.79279 -0.41512,-1.08285 -0.16017,-0.28326 -1.4949,-2.55632 -1.85598,-2.97998 l -0.82634,-0.96607 9e-5,0 3e-5,0 -3e-5,0 z m 5.42412,11.43488 c -0.0267,0.005 -0.0884,0.0864 -0.15377,0.21793 -0.0872,0.17537 -0.15243,0.37423 -0.14849,0.44213 0.004,0.0679 0.0757,-0.0199 0.16283,-0.19524 0.0872,-0.17538 0.15629,-0.37446 0.15235,-0.44235 -9.9e-4,-0.017 -0.004,-0.0239 -0.0129,-0.0225 l 10e-6,2e-5 -3e-5,10e-6 z"
       id="path4215"
       style="opacity:0.403;fill:url(#linearGradient3924);fill-opacity:1;stroke:none" />
    <path
       d="m 128.22186,626.08749 c -0.14868,0.008 -0.52323,0.27735 -0.58732,0.44436 -0.0363,0.0945 0.10089,0.0495 0.31684,-0.10433 0.20744,-0.14771 0.34815,-0.29328 0.31685,-0.32457 -0.0105,-0.0105 -0.0251,-0.0166 -0.0464,-0.0155 z m 0.57187,0.22025 c -0.26384,0 -0.97759,1.14286 -0.97759,1.56491 0,0.17081 0.0805,0.13981 0.39413,-0.1507 l 0.39026,-0.36321 -0.26661,0.39026 c -0.14761,0.21452 -0.26687,0.57618 -0.26662,0.80371 l 0,0.17774 c 0.004,7.4e-4 0.008,6.2e-4 0.0116,0.004 0.0208,0.0208 -0.0208,0.068 0,0.0889 0.0178,0.0178 0.054,-0.008 0.0773,-0.004 l 0.15456,-0.25502 c 0.13475,-0.22102 0.26899,-0.40185 0.29752,-0.40185 0.0285,0 0.0229,0.21395 -0.0116,0.4714 -0.0399,0.29779 0.0141,0.64644 0.15069,0.95827 0.2093,0.47791 0.2205,0.47913 0.31298,0.17774 0.0868,-0.28276 0.0931,-0.2837 0.10433,-0.0386 0.007,0.14735 0.0811,0.29775 0.16615,0.33617 0.21833,0.0986 1.70643,0.68737 2.38362,0.50625 0.63858,-0.17079 0.49828,-1.07798 0.3714,-1.75432 -0.12073,-0.64351 -1.08163,-1.54477 -2.21406,-2.07495 -0.51168,-0.23956 -0.9974,-0.43663 -1.07805,-0.43663 z"
       id="path2839-2"
       style="opacity:0.45199998;fill:url(#radialGradient3916);fill-opacity:1;stroke:none" />
    <path
       d="m 139.98767,614.21736 c -0.054,-0.0144 -0.0942,0.0694 -0.17388,0.2782 -0.10892,0.28537 -0.16571,0.32761 -0.25116,0.18934 -0.0604,-0.0977 -0.14862,-0.13732 -0.19706,-0.0889 -0.0485,0.0484 -0.16376,0.0255 -0.25502,-0.0502 -0.12723,-0.10559 -0.16616,-0.0881 -0.16616,0.0657 0,0.25057 -0.0536,0.24714 -0.43662,-0.004 -0.2872,-0.18818 -0.30145,-0.18608 -0.22412,0.0154 0.0648,0.16877 0.0297,0.19968 -0.15455,0.14683 -0.1293,-0.0371 -0.54173,0.0304 -0.91577,0.14683 -0.53753,0.16726 -0.68642,0.26981 -0.7187,0.49459 -0.0364,0.25375 -0.0567,0.26251 -0.18933,0.0811 -0.15063,-0.20601 -1.55285,-0.73076 -1.66151,-0.6221 -0.0325,0.0325 0.073,0.16566 0.2357,0.29752 0.34868,0.28268 0.24927,0.46674 -0.1391,0.25889 -0.24842,-0.13295 -0.26064,-0.11931 -0.17774,0.14683 0.087,0.2793 0.0803,0.27907 -0.15456,0.0696 -0.29316,-0.26153 -0.40958,-0.17032 -0.40958,0.31685 0,0.32509 -0.0201,0.34715 -0.20093,0.19706 -0.18124,-0.15042 -0.1935,-0.14069 -0.11206,0.11592 0.0833,0.26231 0.066,0.27701 -0.17001,0.15069 -0.31558,-0.16889 -0.33374,-0.0472 -0.0425,0.28207 0.21049,0.23797 0.20713,0.24273 -0.12364,0.16229 -0.32363,-0.0787 -0.34003,-0.0635 -0.34003,0.36322 0,0.34773 -0.0416,0.43386 -0.18547,0.37866 -0.13515,-0.0519 -0.18661,0.0178 -0.19707,0.26276 -0.0108,0.25372 -0.0308,0.27957 -0.0773,0.0966 -0.0536,-0.21088 -0.0837,-0.1948 -0.22411,0.12365 -0.15893,0.36058 -0.16028,0.35859 -0.17388,0.0541 -0.0251,-0.56241 -0.23087,0.0129 -0.26661,0.74574 -0.0182,0.37366 -0.0893,0.71488 -0.15842,0.76121 -0.0692,0.0463 0.0391,0.12192 0.23956,0.16615 0.20048,0.0442 1.00309,0.26724 1.78516,0.49459 1.4766,0.42925 2.49944,0.46995 3.11369,0.23889 0.34513,-0.12983 1.02748,-0.81784 1.02782,-1.03555 6.1e-4,-0.38661 1.38443,-2.08261 2.45546,-2.53409 1.04518,-0.44058 1.49481,-1.00622 1.84582,-1.57264 0.23148,-0.37354 0.22879,-0.37744 -0.93122,-0.54482 -0.345,-0.0498 -0.63737,-0.16822 -0.70324,-0.28593 -0.0619,-0.11057 -0.15155,-0.16144 -0.20093,-0.11206 -0.0494,0.0494 -0.16064,-0.006 -0.2473,-0.12364 -0.0538,-0.0733 -0.0912,-0.1189 -0.12364,-0.12752 l 1e-5,1.7e-4 z"
       id="path2873"
       style="opacity:0.469;fill:url(#linearGradient3932);fill-opacity:1;stroke:none" />
    <path
       d="m 127.06653,609.13623 -0.12751,0.3323 c -0.15914,0.4171 0.13176,1.06574 0.84235,1.87789 1.45519,1.6632 3.60968,5.76764 3.62441,6.90106 0.005,0.34619 0.90283,-0.97811 1.2854,-1.60611 0.5372,-0.88184 0.744,-1.49062 -0.39847,-3.00733 -1.02292,-1.358 -1.7483,-1.21528 -4.34905,-3.67092 l -0.87713,-0.82689 z"
       id="path3705"
       style="opacity:0.32900002;fill:url(#linearGradient3961);fill-opacity:1;stroke:none" />
    <path
       d="m 127.10049,611.49224 c -0.0243,-0.003 -0.0406,0.0175 -0.0657,0.0425 -0.0413,0.0413 0.18712,0.49659 0.50618,1.0085 0.31906,0.51191 0.59356,1.02441 0.61051,1.13987 0.017,0.11547 0.18597,0.36758 0.37867,0.56028 0.54065,0.54065 0.20016,0.41196 -0.55641,-0.20865 -1.00944,-0.82804 -1.26765,-0.70629 -0.32844,0.15456 0.42663,0.39103 0.9948,0.89527 1.26352,1.12055 0.27782,0.23291 0.38019,0.37492 0.23957,0.32844 -1.04571,-0.3457 -1.90041,-0.13763 -2.37249,0.57573 -0.36786,0.55589 -0.3116,0.71194 0.17775,0.49072 l 0.34003,-0.15456 -0.32071,0.35163 c -0.17835,0.19263 -0.32859,0.43122 -0.33231,0.53323 -0.004,0.102 -0.0887,0.40803 -0.18933,0.68005 l -0.0966,0.31685 -0.0657,0.20866 0,0.0232 c 0.006,0 0.002,0.004 0,0.0116 -8.6e-4,-0.004 0,-0.009 0,-0.0116 -0.003,0 -0.006,0.002 -0.008,0.004 l -0.004,0.0116 c -1.2e-4,10e-4 0,0.003 0,0.004 0,0.0109 0.004,0.0232 0.0116,0.0232 -0.005,-0.005 -0.003,-0.0174 0,-0.027 0.003,0.0139 0.0105,0.027 0,0.027 0.0103,0.0103 0.0322,-0.0103 0.0425,0 0.0414,0.19942 0.17395,0.54186 0.23816,0.728 0.0285,-0.0433 0.0611,-0.0976 0.0671,-0.0943 0.0887,-0.0972 0.24753,-0.30957 0.39799,-0.54482 0.41907,-0.65524 0.79813,-1.08909 1.08578,-1.2442 0.15299,-0.0825 0.10776,0.0758 -0.17002,0.61437 -0.72797,1.41151 -0.26018,1.02117 0.69165,-0.5796 0.56549,-0.95102 0.92327,-1.68253 0.8694,-1.7697 -0.056,-0.0906 -0.0394,-0.11633 0.0425,-0.0657 0.0738,0.0456 0.16914,0.0238 0.21252,-0.0464 0.0434,-0.0702 -0.19237,-0.50026 -0.5255,-0.95827 -0.33313,-0.45801 -0.92498,-1.36326 -1.31762,-2.00927 -0.61042,-1.00435 -0.75019,-1.23395 -0.82302,-1.2442 l 0,2e-5 z m -0.90417,6.74264 c -6.2e-4,0.0374 0.001,0.0718 0.004,0.0773 0.002,0.005 0.008,0.008 0.0116,0.0116 l -0.0155,-0.0889 z m 0.0425,0.26275 c -9.9e-4,0.003 7.4e-4,0.003 0,0.008 1.3e-4,-10e-4 0.004,-0.002 0.004,-0.004 l -0.004,-0.004 0,-10e-6 z m 0,0.0271 c -0.002,0.0175 -0.004,0.035 0.004,0.0502 0.002,0.004 0.007,0.005 0.0116,0.004 l -0.008,-0.0502 c -9.9e-4,8.7e-4 -0.002,0.004 -0.004,0.004 -0.003,0 -0.003,-0.005 -0.004,-0.008 l 0,2e-5 z"
       id="path3752"
       style="opacity:0.45500004;fill:url(#linearGradient3969);fill-opacity:1;stroke:none" />
  </g>
</svg>
