<?xml version="1.0" encoding="UTF-8" standalone="no"?>
<!-- Created with Inkscape (http://www.inkscape.org/) -->

<svg
   xmlns:dc="http://purl.org/dc/elements/1.1/"
   xmlns:cc="http://creativecommons.org/ns#"
   xmlns:rdf="http://www.w3.org/1999/02/22-rdf-syntax-ns#"
   xmlns:svg="http://www.w3.org/2000/svg"
   xmlns="http://www.w3.org/2000/svg"
   xmlns:xlink="http://www.w3.org/1999/xlink"
   xmlns:sodipodi="http://sodipodi.sourceforge.net/DTD/sodipodi-0.dtd"
   xmlns:inkscape="http://www.inkscape.org/namespaces/inkscape"
   version="1.0"
   width="64"
   height="64"
   id="svg3428"
   inkscape:version="0.48.0 r9654"
   sodipodi:docname="image-x-xcf_64.svg">
  <metadata
     id="metadata53">
    <rdf:RDF>
      <cc:Work
         rdf:about="">
        <dc:format>image/svg+xml</dc:format>
        <dc:type
           rdf:resource="http://purl.org/dc/dcmitype/StillImage" />
        <dc:title />
      </cc:Work>
    </rdf:RDF>
  </metadata>
  <sodipodi:namedview
     pagecolor="#ffffff"
     bordercolor="#666666"
     borderopacity="1"
     objecttolerance="10"
     gridtolerance="10"
     guidetolerance="10"
     inkscape:pageopacity="0"
     inkscape:pageshadow="2"
     inkscape:window-width="1280"
     inkscape:window-height="947"
     id="namedview51"
     showgrid="true"
     inkscape:snap-global="false"
     inkscape:zoom="11.313709"
     inkscape:cx="39.448623"
     inkscape:cy="27.711694"
     inkscape:window-x="0"
     inkscape:window-y="24"
     inkscape:window-maximized="1"
     inkscape:current-layer="svg3428">
    <inkscape:grid
       type="xygrid"
       id="grid3073" />
  </sodipodi:namedview>
  <defs
     id="defs3430">
    <linearGradient
       id="linearGradient5048">
      <stop
         id="stop5050"
         style="stop-color:#000000;stop-opacity:0"
         offset="0" />
      <stop
         id="stop5056"
         style="stop-color:#000000;stop-opacity:1"
         offset="0.5" />
      <stop
         id="stop5052"
         style="stop-color:#000000;stop-opacity:0"
         offset="1" />
    </linearGradient>
    <linearGradient
       x1="302.85715"
       y1="366.64789"
       x2="302.85715"
       y2="609.50507"
       id="linearGradient3246"
       xlink:href="#linearGradient5048"
       gradientUnits="userSpaceOnUse"
       gradientTransform="matrix(9.1538462e-2,0,0,2.0588233e-2,-1.084616,49.45137)" />
    <radialGradient
       cx="605.71429"
       cy="486.64789"
       r="117.14286"
       fx="605.71429"
       fy="486.64789"
       id="radialGradient3243"
       xlink:href="#linearGradient5060"
       gradientUnits="userSpaceOnUse"
       gradientTransform="matrix(-3.1326322e-2,0,0,2.0588233e-2,28.779136,49.451413)" />
    <linearGradient
       id="linearGradient5060">
      <stop
         id="stop5062"
         style="stop-color:#000000;stop-opacity:1"
         offset="0" />
      <stop
         id="stop5064"
         style="stop-color:#000000;stop-opacity:0"
         offset="1" />
    </linearGradient>
    <radialGradient
       cx="605.71429"
       cy="486.64789"
       r="117.14286"
       fx="605.71429"
       fy="486.64789"
       id="radialGradient3240"
       xlink:href="#linearGradient5060"
       gradientUnits="userSpaceOnUse"
       gradientTransform="matrix(3.1326329e-2,0,0,2.0588233e-2,35.220859,49.451413)" />
    <linearGradient
       id="linearGradient3104">
      <stop
         id="stop3106"
         style="stop-color:#aaaaaa;stop-opacity:1"
         offset="0" />
      <stop
         id="stop3108"
         style="stop-color:#c8c8c8;stop-opacity:1"
         offset="1" />
    </linearGradient>
    <linearGradient
       x1="-51.786404"
       y1="50.786446"
       x2="-51.786404"
       y2="2.9062471"
       id="linearGradient3237"
       xlink:href="#linearGradient3104"
       gradientUnits="userSpaceOnUse"
       gradientTransform="matrix(1.0843521,0,0,1.1997374,79.550849,-4.1628008)" />
    <linearGradient
       id="linearGradient3600">
      <stop
         id="stop3602"
         style="stop-color:#f4f4f4;stop-opacity:1"
         offset="0" />
      <stop
         id="stop3604"
         style="stop-color:#dbdbdb;stop-opacity:1"
         offset="1" />
    </linearGradient>
    <linearGradient
       x1="25.132275"
       y1="0.98520643"
       x2="25.132275"
       y2="47.013336"
       id="linearGradient3235"
       xlink:href="#linearGradient3600"
       gradientUnits="userSpaceOnUse"
       gradientTransform="matrix(1.3428562,0,0,1.2819748,-0.2285523,-2.7340662)" />
    <radialGradient
       cx="102"
       cy="112.3047"
       r="139.55859"
       id="XMLID_8_"
       gradientUnits="userSpaceOnUse">
      <stop
         id="stop41"
         style="stop-color:#b7b8b9;stop-opacity:1"
         offset="0" />
      <stop
         id="stop47"
         style="stop-color:#ececec;stop-opacity:1"
         offset="0.18851049" />
      <stop
         id="stop49"
         style="stop-color:#fafafa;stop-opacity:0"
         offset="0.25718147" />
      <stop
         id="stop51"
         style="stop-color:#ffffff;stop-opacity:0"
         offset="0.30111277" />
      <stop
         id="stop53"
         style="stop-color:#fafafa;stop-opacity:0"
         offset="0.53130001" />
      <stop
         id="stop55"
         style="stop-color:#ebecec;stop-opacity:0"
         offset="0.84490001" />
      <stop
         id="stop57"
         style="stop-color:#e1e2e3;stop-opacity:0"
         offset="1" />
    </radialGradient>
    <radialGradient
       cx="102"
       cy="112.3047"
       r="139.55859"
       id="radialGradient3232"
       xlink:href="#XMLID_8_"
       gradientUnits="userSpaceOnUse"
       gradientTransform="matrix(0.4857141,0,0,-0.5239323,0.914304,63.5413)" />
    <linearGradient
       id="linearGradient3211">
      <stop
         id="stop3213"
         style="stop-color:#ffffff;stop-opacity:1"
         offset="0" />
      <stop
         id="stop3215"
         style="stop-color:#ffffff;stop-opacity:0"
         offset="1" />
    </linearGradient>
    <linearGradient
       x1="24"
       y1="1.9999999"
       x2="24"
       y2="46.01725"
       id="linearGradient3229"
       xlink:href="#linearGradient3211"
       gradientUnits="userSpaceOnUse"
       gradientTransform="matrix(1.3636354,0,0,1.3255808,-0.7272518,-1.8139391)" />
    <linearGradient
       id="linearGradient8589">
      <stop
         id="stop8591"
         style="stop-color:#fefefe;stop-opacity:1"
         offset="0" />
      <stop
         id="stop8593"
         style="stop-color:#cbcbcb;stop-opacity:1"
         offset="1" />
    </linearGradient>
    <linearGradient
       x1="32.892288"
       y1="8.0590115"
       x2="36.358372"
       y2="5.4565363"
       id="linearGradient3225"
       xlink:href="#linearGradient8589"
       gradientUnits="userSpaceOnUse"
       gradientTransform="matrix(1.3538978,0,0,1.3812083,-0.611935,-1.6903211)" />
    <linearGradient
       inkscape:collect="always"
       xlink:href="#linearGradient3924-3"
       id="linearGradient3937-7"
       x1="23.143536"
       y1="9.0272236"
       x2="23.143536"
       y2="38.04184"
       gradientUnits="userSpaceOnUse" />
    <linearGradient
       id="linearGradient3924-3">
      <stop
         id="stop3926-6"
         offset="0"
         style="stop-color:#000000;stop-opacity:1;" />
      <stop
         id="stop3928-5"
         offset="1"
         style="stop-color:#000000;stop-opacity:0.38759691;" />
    </linearGradient>
    <linearGradient
       inkscape:collect="always"
       xlink:href="#linearGradient3990-3"
       id="linearGradient3839"
       gradientUnits="userSpaceOnUse"
       x1="10.793174"
       y1="14.423345"
       x2="23.534342"
       y2="28.416178" />
    <linearGradient
       id="linearGradient3990-3">
      <stop
         style="stop-color:#000000;stop-opacity:0.37254903;"
         offset="0"
         id="stop3992-4" />
      <stop
         style="stop-color:#000000;stop-opacity:0;"
         offset="1"
         id="stop3994-4" />
    </linearGradient>
    <linearGradient
       inkscape:collect="always"
       xlink:href="#linearGradient3927"
       id="linearGradient3819"
       gradientUnits="userSpaceOnUse"
       gradientTransform="matrix(1.0234376,0,0,1.0236879,-0.92479045,-0.92370694)"
       x1="34.658031"
       y1="33.601665"
       x2="31.127357"
       y2="22.232906" />
    <linearGradient
       id="linearGradient3927">
      <stop
         id="stop3929"
         offset="0"
         style="stop-color:#ffffff;stop-opacity:0.28813559" />
      <stop
         style="stop-color:#ffffff;stop-opacity:0.8"
         offset="0.16901067"
         id="stop3931" />
      <stop
         id="stop3933"
         offset="1"
         style="stop-color:#ffffff;stop-opacity:0;" />
    </linearGradient>
    <linearGradient
       inkscape:collect="always"
       xlink:href="#linearGradient3924-3-2"
       id="linearGradient3937-7-4"
       x1="23.143536"
       y1="9.0272236"
       x2="23.143536"
       y2="38.04184"
       gradientUnits="userSpaceOnUse" />
    <linearGradient
       id="linearGradient3924-3-2">
      <stop
         id="stop3926-6-2"
         offset="0"
         style="stop-color:#000000;stop-opacity:1;" />
      <stop
         id="stop3928-5-2"
         offset="1"
         style="stop-color:#000000;stop-opacity:0.38759691;" />
    </linearGradient>
    <linearGradient
       gradientTransform="matrix(0.81654037,0,0,0.81499833,15.364643,14.564919)"
       y2="38.04184"
       x2="23.143536"
       y1="9.0272236"
       x1="23.143536"
       gradientUnits="userSpaceOnUse"
       id="linearGradient3083"
       xlink:href="#linearGradient3924-3-2"
       inkscape:collect="always" />
    <linearGradient
       inkscape:collect="always"
       xlink:href="#linearGradient3924-3-2"
       id="linearGradient3106"
       gradientUnits="userSpaceOnUse"
       gradientTransform="matrix(0.81654037,0,0,0.81499833,20.364643,15.689919)"
       x1="23.143536"
       y1="9.0272236"
       x2="23.143536"
       y2="38.04184" />
  </defs>
  <g
     id="layer1">
    <rect
       width="44.199997"
       height="5"
       x="9.8999996"
       y="57"
       id="rect2879"
       style="opacity:0.3;fill:url(#linearGradient3246);fill-opacity:1;fill-rule:nonzero;stroke:none;stroke-width:1;stroke-linecap:round;stroke-linejoin:miter;marker:none;marker-start:none;marker-mid:none;marker-end:none;stroke-miterlimit:4;stroke-dasharray:none;stroke-dashoffset:0;stroke-opacity:1;visibility:visible;display:inline;overflow:visible" />
    <path
       d="M 9.9,57.000217 C 9.9,57.000217 9.9,61.999941 9.9,61.999941 C 8.2867719,62.009354 6,60.879757 6,59.499757 C 6,58.119759 7.8002408,57.000218 9.9,57.000217 z"
       id="path2881"
       style="opacity:0.3;fill:url(#radialGradient3243);fill-opacity:1;fill-rule:nonzero;stroke:none;stroke-width:1;stroke-linecap:round;stroke-linejoin:miter;marker:none;marker-start:none;marker-mid:none;marker-end:none;stroke-miterlimit:4;stroke-dasharray:none;stroke-dashoffset:0;stroke-opacity:1;visibility:visible;display:inline;overflow:visible" />
    <path
       d="M 54.099999,57.000217 C 54.099999,57.000217 54.099999,61.999941 54.099999,61.999941 C 55.713227,62.009354 58,60.879757 58,59.499757 C 58,58.119759 56.199759,57.000218 54.099999,57.000217 z"
       id="path2883"
       style="opacity:0.3;fill:url(#radialGradient3240);fill-opacity:1;fill-rule:nonzero;stroke:none;stroke-width:1;stroke-linecap:round;stroke-linejoin:miter;marker:none;marker-start:none;marker-mid:none;marker-end:none;stroke-miterlimit:4;stroke-dasharray:none;stroke-dashoffset:0;stroke-opacity:1;visibility:visible;display:inline;overflow:visible" />
    <path
       d="M 8.4999608,0.49996083 C 19.270065,0.49996083 30.040167,0.49996083 40.810272,0.49996083 C 42.699581,1.1363473 52.849588,8.3864685 55.500038,13.40647 C 55.500038,28.770993 55.500038,44.135516 55.500038,59.500039 C 39.833345,59.500039 24.166654,59.500039 8.4999608,59.500039 C 8.4999608,39.833346 8.4999608,20.166653 8.4999608,0.49996083 z"
       id="path4160"
       style="fill:url(#linearGradient3235);fill-opacity:1;stroke:url(#linearGradient3237);stroke-width:0.9999218;stroke-linecap:butt;stroke-linejoin:round;stroke-miterlimit:4;stroke-dasharray:none;stroke-dashoffset:0;stroke-opacity:1;display:inline" />
    <path
       d="M 9.6571549,58.825911 C 9.3895277,58.825911 9.1714411,58.590666 9.1714411,58.301976 L 9.1714411,1.7173144 C 9.1714411,1.428105 9.3895277,1.1933833 9.6571549,1.1933833 C 19.705871,1.3382029 30.84163,0.97675324 40.878137,1.229442 L 54.68624,13.116478 L 54.828554,58.301976 C 54.828554,58.590666 54.610954,58.825911 54.34284,58.825911 L 9.6571549,58.825911 z"
       id="path4191"
       style="fill:url(#radialGradient3232);fill-opacity:1" />
    <path
       d="M 54.500038,13.404529 C 54.500038,28.248222 54.500038,43.656344 54.500038,58.500037 C 39.500014,58.500037 24.499988,58.500037 9.4999609,58.500037 C 9.4999609,39.500011 9.4999609,20.499986 9.4999609,1.4999607 C 19.811763,1.4999607 30.369495,1.4999607 40.681297,1.4999607"
       id="path2435"
       style="opacity:0.6;fill:none;fill-opacity:1;stroke:url(#linearGradient3229);stroke-width:0.9999218;stroke-linecap:butt;stroke-linejoin:round;stroke-miterlimit:4;stroke-dasharray:none;stroke-dashoffset:0;stroke-opacity:1;display:inline" />
    <g
       transform="translate(-31.058336,0)"
       id="g3423">
      <path
         d="M 66.793324,0.98784908 C 73.358155,0.98784908 70.094117,13.992005 70.094117,13.992005 C 70.094117,13.992005 85.971718,10.369279 85.971718,16.79485 C 85.971718,16.79485 86.007967,13.742108 86.007967,13.742108 C 82.616299,10.350441 75.428771,3.7146517 70.80341,1.1886238 C 70.80341,1.1886238 66.793324,0.98784908 66.793324,0.98784908 L 66.793324,0.98784908 z"
         id="path3232"
         style="opacity:0.05;fill:#000000;fill-opacity:1;fill-rule:evenodd;stroke:none;display:inline" />
      <path
         d="M 68.039349,0.98784908 C 74.177661,0.98784908 71.125689,13.147122 71.125689,13.147122 C 71.125689,13.147122 85.971718,10.304922 85.971718,16.241275 C 86.757926,11.17637 72.877187,-0.58832169 68.039349,0.98784908 L 68.039349,0.98784908 z"
         id="path3230"
         style="opacity:0.1;fill:#000000;fill-opacity:1;fill-rule:evenodd;stroke:none;display:inline" />
      <path
         d="M 72.054106,12.386727 C 72.054106,12.386727 85.971719,9.9649052 85.971719,16.174288 C 85.971719,12.66759 78.135801,2.858913 69.160773,0.98784908 C 73.523911,2.6579922 72.931084,8.2532913 72.054106,12.386727 z"
         id="path3382"
         style="opacity:0.15;fill:#000000;fill-opacity:1;fill-rule:evenodd;stroke:none;display:inline" />
    </g>
    <path
       d="M 38,1 C 42.324139,1 41.169676,11.168911 41.169676,11.168911 C 41.169676,11.168911 54.977544,9.8668482 54.977544,16 C 54.977544,14.505644 55.09413,13.435507 54.796006,12.969196 C 52.654202,9.619084 43.403114,2.1014807 40.062421,1.1161768 C 39.812428,1.0424442 39.258109,1 38,1 z"
       id="path4474"
       style="fill:url(#linearGradient3225);fill-opacity:1;fill-rule:evenodd;stroke:none;stroke-width:1px;stroke-linecap:butt;stroke-linejoin:miter;stroke-opacity:1;display:inline" />
  </g>
  <g
     id="g3168"
     transform="matrix(1.103414,0,0,1.1013302,5.7092773,4.4922015)">
    <g
       id="layer1-7"
       transform="matrix(0.7400127,0,0,0.7400127,7.8444241,9.1459649)">
      <path
         inkscape:connector-curvature="0"
         id="path4323"
         d="m 36.943886,6.7968089 c -0.157078,0.077222 -0.296498,0.3277294 -0.432188,0.7348984 -0.361839,1.085785 -2.90791,8.5865417 -17.33072,8.9484697 C 12.298633,16.651365 9.3703212,10.60099 9.3703212,10.60099 l -0.1728749,7.781278 c 0,0 0.7397713,1.734074 -0.7347189,3.544803 C 8.3825784,21.801792 8.334663,21.660029 8.2466337,21.538008 7.7159378,20.802389 7.093816,20.183401 6.4314461,19.722376 5.6703811,19.192657 4.8787477,18.842912 4.0976334,18.728102 c -0.9005432,-0.132364 -1.7715733,0.0627 -2.4634688,0.561981 -0.69210616,0.499428 -1.09501379,1.264576 -1.25334389,2.161466 -0.13725792,0.777524 -0.0896357,1.618044 0.17287499,2.5073 0.22849391,0.774024 0.5932276,1.55551 1.1236876,2.291155 0.5603944,0.777156 1.258548,1.465348 1.9880627,1.945319 0.8227411,0.541308 1.6949827,0.858408 2.5499063,0.907816 0.2645554,0.01529 0.5348545,-0.04961 0.7779375,-0.08646 5.5372972,4.390835 16.5282672,8.488388 23.8135332,3.804181 0.157588,0.05364 -0.08485,0.367398 0.07356,0.422151 0.0039,0.075 -0.01968,0.149333 0,0.216147 l 0.34575,-0.129688 c 0.06152,0.01956 0.110043,0.06801 0.172875,0.08646 0.01346,0.004 0.02968,-0.0039 0.04322,0 l 0.129657,0.129687 3.284625,1.167192 c -0.13475,1.140796 0.544167,2.340038 1.973221,2.886964 2.573572,0.984956 5.702914,2.666051 5.702914,2.666051 -1.227624,-4.168174 -1.960249,-8.442781 -5.168432,-8.148284 -0.596913,0.0548 -1.223843,0.177608 -1.558902,0.526431 l -2.895657,-1.85886 -0.129656,0 -0.02833,0.436265 c 3.899384,-3.8385 6.1796,-11.05294 4.797282,-23.603209 -0.08,-0.627178 -0.343267,-0.9500602 -0.605064,-0.8213581 z"
         style="opacity:0.5;color:#000000;fill:url(#linearGradient3937-7);fill-opacity:1;fill-rule:nonzero;stroke:none;stroke-width:0.68663466;marker:none;visibility:visible;display:inline;overflow:visible;enable-background:accumulate"
         sodipodi:nodetypes="ssccccssssssssscccccccccscscccccs" />
    </g>
    <g
       style="color:#000000;fill:none;stroke:url(#linearGradient3839);stroke-width:1.22583723;stroke-linecap:butt;stroke-linejoin:miter;stroke-miterlimit:4;stroke-opacity:1;stroke-dasharray:none;stroke-dashoffset:0;marker:none;visibility:visible;display:inline;overflow:visible;enable-background:accumulate"
       id="layer1-7-5"
       transform="matrix(0.7400127,0,0,0.7400127,7.8444241,9.1459649)" />
    <path
       id="path4694-0"
       d="m 35.471209,13.727826 c -0.158314,-0.05543 -0.334401,-0.03946 -0.479736,0.03199 -0.376155,0.184915 -0.46313,0.462016 -0.575684,0.799759 -0.131994,0.396077 -0.616342,1.87846 -2.366699,3.326985 -1.750358,1.448526 -4.753911,2.843184 -10.010499,2.975093 -4.817141,0.11982 -6.844239,-4.062761 -6.844239,-4.062761 -0.16552,-0.397829 -0.907494,-0.238796 -0.895508,0.191941 l -0.12793,5.758245 c 0.007,0.06762 0.02898,0.133654 0.06396,0.191941 0,0 0.286337,0.693281 -0.159912,1.599511 -0.367858,-0.454626 -0.771621,-0.874806 -1.215332,-1.183638 -0.608587,-0.423591 -1.2511,-0.701594 -1.918946,-0.799756 -0.774252,-0.113796 -1.559078,0.03554 -2.1748047,0.479854 -0.6256416,0.451465 -0.9545992,1.135135 -1.0874024,1.887423 -0.1147719,0.65015 -0.084568,1.359527 0.1279297,2.079366 0.183095,0.620236 0.4706732,1.266272 0.8955079,1.855434 0.4457428,0.618158 1.0024909,1.142989 1.5991215,1.535532 0.665326,0.437739 1.381849,0.725635 2.11084,0.767766 0.206716,0.01196 0.340431,-0.03848 0.479736,-0.06398 2.106559,1.630147 5.127772,3.171849 8.347413,3.90281 3.183273,0.722705 6.348784,0.782638 9.131882,-0.863477 0.102925,0.200244 0.364548,0.302012 0.575684,0.223932 l 0.06396,-0.03199 0.03198,0 c 0.02708,0.03644 0.05952,0.06889 0.09595,0.09597 l 1.986627,0.767766 c 0.04531,0.92162 0.752157,1.800034 1.83809,2.215641 1.870505,0.715879 4.15764,1.966042 4.15764,1.966042 0.322389,0.179426 0.779954,-0.191075 0.671631,-0.543835 -0.449024,-1.524576 -0.887798,-3.372063 -1.425658,-4.437863 -0.268931,-0.532901 -0.63717,-1.147714 -1.108312,-1.457962 -0.471141,-0.310247 -0.966032,-0.591217 -1.640443,-0.529308 -0.390549,0.03585 -1.004408,0.148303 -1.284178,0.342066 l -1.221525,-0.80352 c 2.764467,-3.070052 3.949391,-8.301584 2.966513,-17.225276 -0.03644,-0.285733 -0.0969,-0.52631 -0.255859,-0.735778 -0.07948,-0.104734 -0.193492,-0.200486 -0.351798,-0.255923 z"
       style="opacity:0.5;color:#000000;fill:none;stroke:url(#linearGradient3819);stroke-width:0.90713519;stroke-linecap:butt;stroke-linejoin:miter;stroke-miterlimit:4;stroke-opacity:1;stroke-dasharray:none;stroke-dashoffset:0;marker:none;visibility:visible;display:inline;overflow:visible;enable-background:accumulate"
       inkscape:connector-curvature="0"
       sodipodi:nodetypes="ccssccccccsssssssccsccccccsccssscccsc" />
    <path
       inkscape:connector-curvature="0"
       style="opacity:0.1;color:#000000;fill:#000000;fill-opacity:1;fill-rule:nonzero;stroke:none;stroke-width:1.10237157;marker:none;visibility:visible;display:inline;overflow:visible;enable-background:accumulate"
       d="m 30.641864,33.433814 c 0.116617,0.0397 -0.06279,0.271879 0.05444,0.312397 0.0029,0.05551 -0.01456,0.110509 0,0.159952 l 0.255859,-0.09597 c 0.04552,0.01447 0.08144,0.05033 0.12793,0.06399 0.01,0.003 0.02196,-0.0029 0.03198,0 l 0.09595,0.09597 2.430664,0.863736 c -0.09972,0.844204 0.40269,1.731658 1.460208,2.13639 1.904477,0.728881 4.220229,1.972912 4.220229,1.972912 -0.908457,-3.084502 -1.450609,-6.247765 -3.824705,-6.029834 -0.441723,0.04055 -0.90566,0.131433 -1.153607,0.389566 l -2.142823,-1.37558 -0.09595,0 -0.02096,0.322841"
       id="path3104" />
  </g>
</svg>
