<?xml version="1.0" encoding="UTF-8" standalone="no"?>
<!-- Created with Inkscape (http://www.inkscape.org/) -->

<svg
   xmlns:dc="http://purl.org/dc/elements/1.1/"
   xmlns:cc="http://creativecommons.org/ns#"
   xmlns:rdf="http://www.w3.org/1999/02/22-rdf-syntax-ns#"
   xmlns:svg="http://www.w3.org/2000/svg"
   xmlns="http://www.w3.org/2000/svg"
   xmlns:xlink="http://www.w3.org/1999/xlink"
   xmlns:sodipodi="http://sodipodi.sourceforge.net/DTD/sodipodi-0.dtd"
   xmlns:inkscape="http://www.inkscape.org/namespaces/inkscape"
   version="1.0"
   width="16"
   height="16"
   id="svg2482"
   sodipodi:version="0.32"
   inkscape:version="0.47 r22583"
   sodipodi:docname="buttonpaw.svg"
   inkscape:output_extension="org.inkscape.output.svg.inkscape"
   inkscape:export-filename="/usr/share/icons/Furry/24x24/places/gnome-main-menu.png"
   inkscape:export-xdpi="2.2379711"
   inkscape:export-ydpi="2.2379711">
  <metadata
     id="metadata8">
    <rdf:RDF>
      <cc:Work
         rdf:about="">
        <dc:format>image/svg+xml</dc:format>
        <dc:type
           rdf:resource="http://purl.org/dc/dcmitype/StillImage" />
        <cc:license
           rdf:resource="http://creativecommons.org/licenses/by-sa/3.0/" />
        <dc:title />
        <dc:creator>
          <cc:Agent>
            <dc:title>Shnatsel</dc:title>
          </cc:Agent>
        </dc:creator>
      </cc:Work>
      <cc:License
         rdf:about="http://creativecommons.org/licenses/by-sa/3.0/">
        <cc:permits
           rdf:resource="http://creativecommons.org/ns#Reproduction" />
        <cc:permits
           rdf:resource="http://creativecommons.org/ns#Distribution" />
        <cc:requires
           rdf:resource="http://creativecommons.org/ns#Notice" />
        <cc:requires
           rdf:resource="http://creativecommons.org/ns#Attribution" />
        <cc:permits
           rdf:resource="http://creativecommons.org/ns#DerivativeWorks" />
        <cc:requires
           rdf:resource="http://creativecommons.org/ns#ShareAlike" />
      </cc:License>
    </rdf:RDF>
  </metadata>
  <sodipodi:namedview
     inkscape:window-height="693"
     inkscape:window-width="1024"
     inkscape:pageshadow="2"
     inkscape:pageopacity="0"
     guidetolerance="10.0"
     gridtolerance="10.0"
     objecttolerance="10.0"
     borderopacity="1.0"
     bordercolor="#666666"
     pagecolor="#323232"
     id="base"
     showgrid="false"
     inkscape:zoom="25.043365"
     inkscape:cx="11.313362"
     inkscape:cy="9.2179041"
     inkscape:window-x="0"
     inkscape:window-y="24"
     inkscape:current-layer="svg2482"
     inkscape:window-maximized="1" />
  <defs
     id="defs2484">
    <linearGradient
       id="linearGradient3694">
      <stop
         style="stop-color:#272624;stop-opacity:1;"
         offset="0"
         id="stop3696" />
      <stop
         id="stop3702"
         offset="0.5"
         style="stop-color:#474644;stop-opacity:1;" />
      <stop
         style="stop-color:#575755;stop-opacity:1;"
         offset="1"
         id="stop3698" />
    </linearGradient>
    <linearGradient
       id="linearGradient3684">
      <stop
         style="stop-color:#fdfcf9;stop-opacity:1;"
         offset="0"
         id="stop3686" />
      <stop
         id="stop3692"
         offset="0.5"
         style="stop-color:#f8f4f0;stop-opacity:1;" />
      <stop
         style="stop-color:#e4ddcf;stop-opacity:1;"
         offset="1"
         id="stop3688" />
    </linearGradient>
    <inkscape:perspective
       sodipodi:type="inkscape:persp3d"
       inkscape:vp_x="0 : 442.36267 : 1"
       inkscape:vp_y="0 : 1000 : 0"
       inkscape:vp_z="799.15808 : 442.36267 : 1"
       inkscape:persp3d-origin="399.57904 : 294.90845 : 1"
       id="perspective10" />
    <inkscape:perspective
       id="perspective3605"
       inkscape:persp3d-origin="0.5 : 0.33333333 : 1"
       inkscape:vp_z="1 : 0.5 : 1"
       inkscape:vp_y="0 : 1000 : 0"
       inkscape:vp_x="0 : 0.5 : 1"
       sodipodi:type="inkscape:persp3d" />
    <inkscape:perspective
       id="perspective3666"
       inkscape:persp3d-origin="0.5 : 0.33333333 : 1"
       inkscape:vp_z="1 : 0.5 : 1"
       inkscape:vp_y="0 : 1000 : 0"
       inkscape:vp_x="0 : 0.5 : 1"
       sodipodi:type="inkscape:persp3d" />
    <linearGradient
       inkscape:collect="always"
       xlink:href="#linearGradient3684"
       id="linearGradient3690"
       x1="12"
       y1="5.0000019"
       x2="12"
       y2="18.999998"
       gradientUnits="userSpaceOnUse"
       gradientTransform="translate(-3.9999998,-4)" />
    <linearGradient
       inkscape:collect="always"
       xlink:href="#linearGradient3694"
       id="linearGradient3700"
       x1="12.004673"
       y1="4.7142816"
       x2="12.004673"
       y2="19.281673"
       gradientUnits="userSpaceOnUse" />
    <linearGradient
       inkscape:collect="always"
       xlink:href="#linearGradient3694"
       id="linearGradient3706"
       gradientUnits="userSpaceOnUse"
       x1="12.004673"
       y1="4.7142816"
       x2="12.004673"
       y2="19.281673" />
    <linearGradient
       inkscape:collect="always"
       xlink:href="#linearGradient3694"
       id="linearGradient2828"
       gradientUnits="userSpaceOnUse"
       x1="12.004673"
       y1="4.7142816"
       x2="12.004673"
       y2="19.281673" />
  </defs>
  <path
     sodipodi:type="inkscape:offset"
     inkscape:radius="0.08928784"
     inkscape:original="M 11.5 4.75 C 10.865088 4.7657377 10.412892 5.1982095 10.09375 5.5625 C 9.7221924 5.9866229 9.3893512 6.4778381 9.25 7.0625 C 9.25 7.06396 9.2499802 7.0922901 9.25 7.09375 C 9.1035172 8.1010699 9.4385151 9.2063557 10.21875 9.9375 C 10.219444 9.9382646 10.218048 9.9679921 10.21875 9.96875 C 10.219508 9.9694518 10.249235 9.9680555 10.25 9.96875 C 10.625481 10.219222 11.061886 10.261875 11.46875 10.21875 C 11.783874 10.184443 12.020109 9.9820394 12.15625 9.78125 C 12.286913 9.5885385 12.361612 9.3727735 12.4375 9.21875 C 12.762581 8.4549878 13.211211 7.6798479 13.65625 6.96875 C 13.65627 6.9672901 13.65625 6.93896 13.65625 6.9375 A 0.034765691 0.034765691 0 0 1 13.65625 6.90625 C 13.814401 6.6039777 13.805696 6.266702 13.71875 5.96875 C 13.631834 5.6708993 13.454318 5.4195647 13.25 5.21875 C 12.759249 4.7364161 12.066462 4.7359592 11.5 4.75 z M 14.96875 6.46875 C 14.633317 6.509202 14.32544 6.6204885 14.0625 6.875 C 13.876322 7.0552102 13.696238 7.3608933 13.53125 7.6875 C 13.366229 8.0141721 13.20422 8.3465259 13.09375 8.65625 C 12.929948 9.1154975 12.660345 9.5851036 12.46875 10.09375 C 12.337546 10.442068 12.511975 10.78666 12.71875 11 C 12.92686 11.214718 13.200352 11.359759 13.40625 11.46875 C 13.655257 11.600561 13.930838 11.738397 14.28125 11.6875 C 14.886558 11.593506 15.473518 11.314719 15.9375 10.9375 C 16.407795 10.555145 16.897029 10.133169 17.25 9.59375 C 17.569278 9.1058256 17.474558 8.5254071 17.34375 8.0625 C 17.255175 7.7490434 17.123096 7.4308916 16.90625 7.125 C 16.690486 6.8206357 16.365985 6.5489164 15.9375 6.5 C 15.64579 6.4666984 15.303183 6.4284186 14.96875 6.46875 z M 7.4375 6.8125 C 7.1635464 6.8477063 6.9255079 6.9768031 6.71875 7.125 C 6.4348181 7.3285126 6.194364 7.5918303 6 7.8125 C 5.5050036 8.374491 5.3657869 9.1132358 5.46875 9.8125 C 5.5575787 10.415771 5.9778266 10.902537 6.46875 11.1875 C 6.47019 11.188276 6.4672984 11.217996 6.46875 11.21875 C 6.4702129 11.219481 6.4985262 11.218041 6.5 11.21875 L 6.5625 11.21875 L 6.59375 11.21875 C 7.0542542 11.432139 7.581209 11.355872 7.90625 11 C 7.91896 10.986084 7.9311023 10.976348 7.9375 10.96875 C 8.3290489 10.60938 8.7225672 10.149523 8.875 9.59375 C 8.8996422 9.5038992 8.898393 9.3879668 8.875 9.28125 C 8.7718601 8.8107314 8.5830538 8.39992 8.53125 8 C 8.5311651 7.9908871 8.5312783 7.9769926 8.53125 7.96875 C 8.5305838 7.7746689 8.5280662 7.5224778 8.4375 7.28125 C 8.3480407 7.0429705 8.0947968 6.8351207 7.75 6.8125 C 7.743185 6.8120529 7.7322638 6.8129122 7.71875 6.8125 C 7.6209149 6.8043649 7.5288179 6.8007646 7.4375 6.8125 z M 10.4375 10.78125 C 10.06697 10.799545 9.6897052 10.897726 9.375 11.09375 L 9.34375 11.09375 C 9.3430482 11.094508 9.3444445 11.124235 9.34375 11.125 C 9.0103265 11.390656 8.7313605 11.64225 8.40625 11.75 L 8.375 11.75 C 8.3742982 11.750758 8.3756945 11.780485 8.375 11.78125 A 0.034765691 0.034765691 0 0 1 8.34375 11.78125 C 7.8586491 12.006582 7.246367 12.06869 6.6875 12.4375 L 6.65625 12.4375 C 6.6555482 12.438258 6.6569445 12.467985 6.65625 12.46875 C 6.0530254 12.977644 5.5507658 13.67575 5.4375 14.5 C 5.3085058 15.520535 5.7434321 16.691657 6.75 17.1875 C 6.7528688 17.187008 6.7754825 17.187778 6.78125 17.1875 A 0.034765691 0.034765691 0 0 1 6.8125 17.1875 C 7.0711812 17.326083 7.3445244 17.366726 7.5625 17.375 C 7.789756 17.383626 7.944333 17.367429 8.09375 17.4375 C 8.6570684 17.694339 9.2983351 18.293054 10.15625 18.21875 C 10.236817 18.206699 10.292938 18.238493 10.3125 18.25 C 10.337396 18.264645 10.36216 18.276258 10.40625 18.34375 C 10.494221 18.478417 10.579855 18.706788 10.75 18.90625 C 11.125419 19.286025 11.677693 19.234242 12 19.25 C 12.00146 19.25 12.02979 19.25002 12.03125 19.25 C 12.454573 19.216694 12.75346 18.980566 13 18.71875 C 13.247143 18.456294 13.457435 18.149456 13.625 17.90625 C 13.947766 17.45036 14.219278 16.89098 14.0625 16.25 C 13.8927 15.302712 13.477172 14.475887 13.4375 13.625 C 13.437599 13.623541 13.437421 13.59521 13.4375 13.59375 C 13.437421 13.59229 13.437599 13.563959 13.4375 13.5625 C 13.394005 13.363713 13.383015 13.112825 13.34375 12.84375 C 13.304479 12.57463 13.22986 12.304784 13 12.0625 C 12.99856 12.061724 13.001452 12.032004 13 12.03125 C 12.998537 12.030519 12.970224 12.031959 12.96875 12.03125 A 0.034765691 0.034765691 0 0 1 12.9375 12.03125 C 12.458997 11.677255 11.949296 11.420014 11.5 11.125 C 11.480176 11.110067 11.471162 11.095478 11.46875 11.09375 C 11.158538 10.871456 10.806504 10.76303 10.4375 10.78125 z M 17.1875 10.84375 C 16.950326 10.844071 16.719754 10.924853 16.53125 11.09375 C 15.866182 11.595248 15.252743 12.115749 14.71875 12.78125 C 14.508749 13.042967 14.435733 13.368634 14.46875 13.65625 C 14.501874 13.944806 14.6273 14.181908 14.75 14.40625 C 14.847584 14.584671 15.005925 14.758718 15.21875 14.8125 C 16.002944 15.010681 16.747355 14.62534 17.34375 14.375 A 0.034765691 0.034765691 0 0 1 17.375 14.375 C 18.159128 14.027245 18.422605 13.219295 18.5625 12.53125 C 18.675404 11.975955 18.494369 11.309392 17.90625 11.03125 C 17.666726 10.917969 17.424705 10.843429 17.1875 10.84375 z "
     style="fill:url(#linearGradient2828);fill-opacity:1"
     id="path2826"
     d="M 11.5,4.65625 C 10.825629,4.6729658 10.354859,5.1306108 10.03125,5.5 9.654591,5.929946 9.3004205,6.4263682 9.15625,7.03125 a 0.08929677,0.08929677 0 0 0 0,0.03125 c 0,6.527e-4 -1.98e-5,0.02979 0,0.03125 -0.1474733,1.0141312 0.2006126,2.0910227 0.96875,2.84375 0.0054,0.00534 -0.0055,0.025947 0,0.03125 0,0 -0.0011,0.029378 0,0.03125 0,0 0.02028,0.0025 0.03125,0 0.0011,0.0019 0,0.03125 0,0.03125 0,0 0.02935,-0.0011 0.03125,0 0.0035,-0.0107 -0.004,-0.01902 0,-0.03125 l 0.03125,-0.03125 c 7.8e-5,1.8e-5 -1.3e-4,0.093736 0,0.09375 0.389717,0.244816 0.842934,0.293146 1.25,0.25 0.347914,-0.03788 0.602576,-0.251319 0.75,-0.46875 0.139165,-0.2052508 0.240956,-0.4485441 0.3125,-0.59375 0.322013,-0.7565552 0.743625,-1.5095126 1.1875,-2.21875 A 0.08929677,0.08929677 0 0 0 13.75,7 a 0.08929677,0.08929677 0 0 0 0,-0.03125 0.08929677,0.08929677 0 0 0 0,-0.03125 c 0.171423,-0.3276381 0.154073,-0.6861922 0.0625,-1 C 13.72021,5.6212321 13.524941,5.3650487 13.3125,5.15625 12.791808,4.6444889 12.068313,4.6421633 11.5,4.65625 z M 14.96875,6.375 C 14.620439,6.417005 14.278621,6.5428102 14,6.8125 13.798241,7.0077922 13.604168,7.3263169 13.4375,7.65625 13.272094,7.9836843 13.11296,8.3082955 13,8.625 c -0.159858,0.448189 -0.430056,0.9199617 -0.625,1.4375 -0.147254,0.390926 0.0585,0.770177 0.28125,1 0.221333,0.228361 0.512798,0.390981 0.71875,0.5 0.250334,0.132514 0.526555,0.2739 0.90625,0.21875 C 14.904363,11.684491 15.524127,11.386887 16,11 c 0.471727,-0.383519 0.950513,-0.790552 1.3125,-1.34375 0.341472,-0.5218422 0.258052,-1.1541522 0.125,-1.625 C 17.346908,7.7106557 17.192596,7.3782661 16.96875,7.0625 16.743059,6.744132 16.397959,6.4588166 15.9375,6.40625 15.645623,6.3729294 15.317047,6.3329967 14.96875,6.375 z M 7.4375,6.71875 C 7.1426623,6.7566402 6.8694263,6.9097026 6.65625,7.0625 6.3620782,7.2733522 6.13272,7.5283584 5.9375,7.75 5.4223399,8.3348837 5.2690269,9.0927937 5.375,9.8125 c 0.090128,0.612092 0.5152261,1.106154 1,1.40625 0.00485,0.003 -0.00486,0.02829 0,0.03125 0,0 0.02108,0.0048 0.03125,0 0,0 0.024254,0.0046 0.03125,0 a 0.08929677,0.08929677 0 0 0 0,0.03125 0.08929677,0.08929677 0 0 0 0,0.03125 c 9.65e-5,1.9e-5 0.031106,-1.5e-5 0.03125,0 0.00416,-3.1e-5 0.027516,9e-5 0.03125,0 l 0.0625,0 c 0.00964,0.0045 0.021555,-0.0042 0.03125,0 0.4847674,0.211407 1.0287605,0.129081 1.375,-0.25 0.0076,-0.0083 0.013206,-0.0098 0.03125,-0.03125 0.3975478,-0.364876 0.8092721,-0.824791 0.96875,-1.40625 0.030027,-0.1094859 0.026147,-0.2557211 0,-0.375 C 8.8630576,8.7678373 8.674254,8.3802357 8.625,8 c -7.01e-5,-0.00753 3.23e-5,-0.021845 0,-0.03125 C 8.6243321,7.7741623 8.6288223,7.5098888 8.53125,7.25 8.428307,6.9758061 8.1275994,6.7435227 7.75,6.71875 c -0.02049,-0.00134 -0.022981,2.522e-4 -0.03125,0 -0.1002785,-0.00834 -0.1801145,-0.012997 -0.28125,0 z m 6.125,0.21875 a 0.08929677,0.08929677 0 0 0 0.03125,0 0.08929677,0.08929677 0 0 0 0,0.03125 l -0.03125,0 c -3.94e-4,-0.00147 3.72e-4,-0.029777 0,-0.03125 z m -3.125,3.75 C 10.075968,10.705351 9.6931019,10.816934 9.375,11 c -0.00782,0.0045 -0.02349,-0.0046 -0.03125,0 a 0.08929677,0.08929677 0 0 0 -0.03125,0 0.08929677,0.08929677 0 0 0 0,0.03125 0.08929677,0.08929677 0 0 0 -0.03125,0 c 0,0 0.00109,0.02935 0,0.03125 0.010702,0.0035 0.019019,-0.004 0.03125,0 l 0,0.03125 c -0.025081,-0.0057 -0.0625,0 -0.0625,0 -0.3099034,0.248373 -0.5644596,0.46192 -0.84375,0.5625 -0.00854,0.0031 -0.022673,-0.0028 -0.03125,0 a 0.08929677,0.08929677 0 0 0 -0.03125,0 0.08929677,0.08929677 0 0 0 -0.03125,0.03125 c 0,0 0.00109,0.02935 0,0.03125 -0.00109,0.0019 -0.03125,0 -0.03125,0 -0.4455373,0.197403 -1.043721,0.282949 -1.59375,0.625 -0.00756,0.0047 -0.023702,-0.0048 -0.03125,0 a 0.08929677,0.08929677 0 0 0 -0.03125,0 0.08929677,0.08929677 0 0 0 0,0.03125 0.08929677,0.08929677 0 0 0 -0.03125,0 c 0,0 0.00109,0.02935 0,0.03125 0.014269,0.0046 0.016981,0.02662 0.03125,0.03125 -0.024502,-0.0078 -0.0625,0 -0.0625,0 -0.6002704,0.516603 -1.1037306,1.225489 -1.21875,2.0625 -0.1331911,1.053738 0.3275829,2.265284 1.375,2.78125 a 0.08929677,0.08929677 0 0 0 0.03125,0 0.08929677,0.08929677 0 0 0 0.03125,0 c 0.2753548,0.147516 0.5550268,0.178913 0.78125,0.1875 0.2330228,0.0088 0.3768049,0.0047 0.5,0.0625 0.5389341,0.245721 1.1909466,0.859442 2.09375,0.78125 0.05184,-0.0078 0.107812,-0.01011 0.125,0 0.02942,0.01731 0.02422,0.03515 0.0625,0.09375 0.0772,0.118184 0.161367,0.348691 0.34375,0.5625 0.40905,0.413796 1.004691,0.359951 1.3125,0.375 6.45e-4,0 0.02979,2e-5 0.03125,0 0.452944,-0.03564 0.778387,-0.29397 1.03125,-0.5625 0.253624,-0.269339 0.45754,-0.569446 0.625,-0.8125 0.329024,-0.464729 0.634029,-1.074265 0.46875,-1.75 -0.172671,-0.963308 -0.586554,-1.769149 -0.625,-2.59375 4.9e-5,-7.3e-4 2.2e-5,-0.02378 0,-0.03125 2.2e-5,-0.0075 5e-5,-0.03052 0,-0.03125 a 0.08929677,0.08929677 0 0 0 0,-0.03125 c -0.04081,-0.186531 -0.05368,-0.412933 -0.09375,-0.6875 -0.03756,-0.257396 -0.135721,-0.535773 -0.34375,-0.78125 1.81e-4,-0.0038 -8.3e-5,-0.02584 0,-0.03125 -2.08e-4,-0.0029 5.9e-5,-0.03099 0,-0.03125 0,0 -0.02108,-0.0048 -0.03125,0 -0.0069,0.0047 -0.02198,-0.0062 -0.03125,0 0.0053,-0.0099 0,-0.03125 0,-0.03125 a 0.08929677,0.08929677 0 0 0 0,-0.03125 c -9.7e-5,-1.9e-5 -0.03111,1.5e-5 -0.03125,0 l 0,0.03125 c -0.01169,-0.0086 -0.01953,-0.02272 -0.03125,-0.03125 -0.475717,-0.346394 -0.973603,-0.590918 -1.40625,-0.875 -0.0039,-0.003 -0.02903,-0.02872 -0.03125,-0.03125 -0.325035,-0.232916 -0.704525,-0.362968 -1.09375,-0.34375 z m 6.75,0.0625 c -0.25737,3.48e-4 -0.513834,0.09765 -0.71875,0.28125 -0.667707,0.503488 -1.27184,1.01369 -1.8125,1.6875 -0.226306,0.282037 -0.316839,0.62748 -0.28125,0.9375 0.0354,0.308421 0.158133,0.556146 0.28125,0.78125 0.105366,0.192649 0.284261,0.406335 0.53125,0.46875 0.823863,0.208206 1.596807,-0.189553 2.1875,-0.4375 L 17.34375,14.375 17.3125,14.28125 c 0.0015,-3.94e-4 0.02978,3.72e-4 0.03125,0 0.0015,-2.2e-5 0.02973,0 0.03125,0 0.0015,3.72e-4 0.02978,-3.94e-4 0.03125,0 L 17.375,14.375 l 0.03125,0.09375 c 0.824204,-0.365528 1.108463,-1.210129 1.25,-1.90625 0.119397,-0.587229 -0.08719,-1.326314 -0.71875,-1.625 -0.246853,-0.116747 -0.494007,-0.187846 -0.75,-0.1875 z m -8.875,1.09375 a 0.08929677,0.08929677 0 0 0 0.03125,0 0.08929677,0.08929677 0 0 0 0,0.03125 c -0.00147,-3.72e-4 -0.029782,3.94e-4 -0.03125,0 l 0,-0.03125 z m 4.65625,0.25 a 0.08929677,0.08929677 0 0 0 0.03125,0 l 0,0.03125 c -0.0015,3.94e-4 -0.02978,-3.72e-4 -0.03125,0 a 0.08929677,0.08929677 0 0 0 0,-0.03125 z m -6.21875,5 c 0.00147,-3.94e-4 0.029777,3.72e-4 0.03125,0 a 0.08929677,0.08929677 0 0 0 0,0.03125 l -0.03125,0 0,-0.03125 z"
     transform="translate(-4.0048234,-3.9981202)" />
  <path
     d="M 6.9418492,14.74962 C 6.6962362,14.461687 6.6182492,13.878931 6.1201502,13.953431 5.3973087,14.016036 4.8313091,13.493572 4.213996,13.212115 3.797202,13.016653 3.3097738,13.211517 2.8986117,12.97519 1.9954911,12.543651 1.5745514,11.462075 1.6916982,10.53527 1.7938258,9.792075 2.2479457,9.13117 2.8156094,8.652276 3.3076781,8.327548 3.9275524,8.262225 4.460245,8.014786 4.8747777,7.889061 5.1674602,7.586335 5.4916068,7.32807 6.0365142,6.988658 6.8060282,6.885698 7.3572542,7.30092 c 0.479448,0.320353 1.003438,0.579687 1.465675,0.921648 0.360987,0.380499 0.272794,0.936892 0.375244,1.405131 0.04288,0.919686 0.442037,1.776513 0.603266,2.675986 0.131608,0.538072 -0.08796,1.060726 -0.392536,1.490923 -0.348479,0.505785 -0.721635,1.15058 -1.418262,1.20539 -0.347318,-0.01698 -0.783015,0.01848 -1.048792,-0.250381 z M 10.955592,10.313354 C 10.735943,9.911752 10.573981,9.346587 10.892622,8.949475 11.407233,8.30813 12.044147,7.77022 12.70133,7.274668 c 0.299604,-0.268441 0.633325,-0.228857 1.072908,-0.02096 0.463853,0.219372 0.621277,0.761097 0.527237,1.223614 -0.136746,0.672557 -0.375695,1.404312 -1.072606,1.692455 -0.605034,0.253966 -1.281895,0.558578 -1.954012,0.388721 -0.132565,-0.0335 -0.254759,-0.127202 -0.319263,-0.24514 z M 2.5919015,6.95711 C 2.1549932,6.703501 1.8080591,6.2874 1.7337161,5.7825069 c -0.094381,-0.64098 0.021828,-1.329395 0.4570769,-1.823552 0.387787,-0.440271 0.8775035,-0.975551 1.5389818,-0.904763 0.5763382,0.01758 0.5413526,0.546102 0.5451397,0.95222 0.052511,0.458469 0.2619191,0.881959 0.3598814,1.328858 0.016914,0.07716 0.018423,0.153687 0.00364,0.207589 C 4.5015906,6.0418 4.1409714,6.465596 3.759061,6.810249 3.4996995,7.11828 3.0958853,7.206457 2.699493,7.010341 l -0.1075909,-0.05323 -6e-7,0 z M 9.4918692,7.261925 C 9.0910042,7.049731 8.5196282,6.691928 8.7133842,6.177548 c 0.18141,-0.4816071 0.453784,-0.9238111 0.628055,-1.4124101 0.21258,-0.596007 0.611152,-1.436346 0.8725558,-1.689371 0.419174,-0.405737 1.112937,-0.395774 1.679151,-0.331135 0.69139,0.07893 1.036724,0.811612 1.205223,1.407909 0.124209,0.439556 0.177157,0.9242 -0.07839,1.31473 -0.327955,0.501188 -0.78728,0.9159931 -1.252206,1.2939821 -0.42898,0.348763 -0.970199,0.585514 -1.52625,0.671859 C 9.9794932,7.471172 9.7232032,7.384382 9.4918672,7.261925 z M 6.3784042,5.7400159 C 5.6676736,5.0740029 5.3665152,4.0434869 5.5014786,3.1153829 5.6276082,2.5861939 5.9406177,2.1263459 6.2945482,1.7223438 c 0.305165,-0.348337 0.68345,-0.7072459 1.205514,-0.7201864 0.550534,-0.013646 1.190579,0.02756 1.586829,0.4170143 0.342256,0.336387 0.579414,0.9445282 0.337194,1.4074812 -0.454596,0.725148 -0.874215,1.472946 -1.209672,2.261086 -0.178876,0.33984 -0.299822,0.836589 -0.761393,0.886839 -0.364258,0.038609 -0.76409,-0.02742 -1.074616,-0.234562 z"
     id="path2463-0"
     style="fill:url(#linearGradient3690);fill-opacity:1"
     sodipodi:nodetypes="ccscccccccccccccscssssscssccsscscccsssssssssccsssccsc" />
</svg>
