<?xml version="1.0" encoding="UTF-8" standalone="no"?>
<!-- Created with Inkscape (http://www.inkscape.org/) -->

<svg
   xmlns:dc="http://purl.org/dc/elements/1.1/"
   xmlns:cc="http://creativecommons.org/ns#"
   xmlns:rdf="http://www.w3.org/1999/02/22-rdf-syntax-ns#"
   xmlns:svg="http://www.w3.org/2000/svg"
   xmlns="http://www.w3.org/2000/svg"
   xmlns:xlink="http://www.w3.org/1999/xlink"
   xmlns:sodipodi="http://sodipodi.sourceforge.net/DTD/sodipodi-0.dtd"
   xmlns:inkscape="http://www.inkscape.org/namespaces/inkscape"
   version="1.0"
   width="128"
   height="128"
   id="svg4486"
   sodipodi:version="0.32"
   inkscape:version="0.48.0 r9654"
   sodipodi:docname="gtk-file.svg"
   inkscape:output_extension="org.inkscape.output.svg.inkscape">
  <metadata
     id="metadata51">
    <rdf:RDF>
      <cc:Work
         rdf:about="">
        <dc:format>image/svg+xml</dc:format>
        <dc:type
           rdf:resource="http://purl.org/dc/dcmitype/StillImage" />
        <dc:title></dc:title>
      </cc:Work>
    </rdf:RDF>
  </metadata>
  <sodipodi:namedview
     inkscape:window-height="947"
     inkscape:window-width="1280"
     inkscape:pageshadow="2"
     inkscape:pageopacity="0.0"
     guidetolerance="10.0"
     gridtolerance="10.0"
     objecttolerance="10.0"
     borderopacity="1.0"
     bordercolor="#666666"
     pagecolor="#ffffff"
     id="base"
     showgrid="false"
     inkscape:zoom="1"
     inkscape:cx="64"
     inkscape:cy="64"
     inkscape:window-x="0"
     inkscape:window-y="24"
     inkscape:current-layer="svg4486"
     showguides="true"
     inkscape:guide-bbox="true"
     inkscape:snap-global="true"
     inkscape:window-maximized="1">
    <inkscape:grid
       type="xygrid"
       id="grid3080" />
    <sodipodi:guide
       orientation="1,0"
       position="64,35.40625"
       id="guide3082" />
  </sodipodi:namedview>
  <defs
     id="defs4488">
    <linearGradient
       id="linearGradient5048">
      <stop
         id="stop5050"
         style="stop-color:#000000;stop-opacity:0"
         offset="0" />
      <stop
         id="stop5056"
         style="stop-color:#000000;stop-opacity:1"
         offset="0.5" />
      <stop
         id="stop5052"
         style="stop-color:#000000;stop-opacity:0"
         offset="1" />
    </linearGradient>
    <linearGradient
       id="linearGradient5060">
      <stop
         id="stop5062"
         style="stop-color:#000000;stop-opacity:1"
         offset="0" />
      <stop
         id="stop5064"
         style="stop-color:#000000;stop-opacity:0"
         offset="1" />
    </linearGradient>
    <linearGradient
       id="linearGradient3104">
      <stop
         id="stop3106"
         style="stop-color:#aaaaaa;stop-opacity:1"
         offset="0" />
      <stop
         id="stop3108"
         style="stop-color:#c8c8c8;stop-opacity:1"
         offset="1" />
    </linearGradient>
    <linearGradient
       id="linearGradient3600">
      <stop
         id="stop3602"
         style="stop-color:#f4f4f4;stop-opacity:1"
         offset="0" />
      <stop
         id="stop3604"
         style="stop-color:#dbdbdb;stop-opacity:1"
         offset="1" />
    </linearGradient>
    <radialGradient
       cx="102"
       cy="112.3047"
       r="139.55859"
       id="XMLID_8_"
       gradientUnits="userSpaceOnUse">
      <stop
         id="stop41"
         style="stop-color:#b7b8b9;stop-opacity:1"
         offset="0" />
      <stop
         id="stop47"
         style="stop-color:#ececec;stop-opacity:1"
         offset="0.18851049" />
      <stop
         id="stop49"
         style="stop-color:#fafafa;stop-opacity:0"
         offset="0.25718147" />
      <stop
         id="stop51"
         style="stop-color:#ffffff;stop-opacity:0"
         offset="0.30111277" />
      <stop
         id="stop53"
         style="stop-color:#fafafa;stop-opacity:0"
         offset="0.53130001" />
      <stop
         id="stop55"
         style="stop-color:#ebecec;stop-opacity:0"
         offset="0.84490001" />
      <stop
         id="stop57"
         style="stop-color:#e1e2e3;stop-opacity:0"
         offset="1" />
    </radialGradient>
    <linearGradient
       id="linearGradient3211">
      <stop
         id="stop3213"
         style="stop-color:#ffffff;stop-opacity:1"
         offset="0" />
      <stop
         id="stop3215"
         style="stop-color:#ffffff;stop-opacity:0"
         offset="1" />
    </linearGradient>
    <linearGradient
       id="linearGradient8589">
      <stop
         id="stop8591"
         style="stop-color:#fefefe;stop-opacity:1"
         offset="0" />
      <stop
         id="stop8593"
         style="stop-color:#cbcbcb;stop-opacity:1"
         offset="1" />
    </linearGradient>
    <linearGradient
       x1="32.892288"
       y1="8.0590115"
       x2="36.358372"
       y2="5.4565363"
       id="linearGradient2455"
       xlink:href="#linearGradient8589"
       gradientUnits="userSpaceOnUse"
       gradientTransform="matrix(2.6605294,0,0,2.7751643,0.7455334,-3.5662351)" />
    <linearGradient
       x1="24"
       y1="1.9999999"
       x2="24"
       y2="46.01725"
       id="linearGradient2459"
       xlink:href="#linearGradient3211"
       gradientUnits="userSpaceOnUse"
       gradientTransform="matrix(2.7575715,0,0,2.6744155,-2.1817183,-4.1859717)" />
    <radialGradient
       cx="102"
       cy="112.3047"
       r="139.55859"
       id="radialGradient2462"
       xlink:href="#XMLID_8_"
       gradientUnits="userSpaceOnUse"
       gradientTransform="matrix(0.9787237,0,0,-1.0535153,1.3617012,127.48164)" />
    <linearGradient
       x1="25.132275"
       y1="0.98520643"
       x2="25.132275"
       y2="47.013336"
       id="linearGradient2465"
       xlink:href="#linearGradient3600"
       gradientUnits="userSpaceOnUse"
       gradientTransform="matrix(2.657139,0,0,2.5422197,0.2286615,-4.9132741)" />
    <linearGradient
       x1="-51.786404"
       y1="50.786446"
       x2="-51.786404"
       y2="2.9062471"
       id="linearGradient2467"
       xlink:href="#linearGradient3104"
       gradientUnits="userSpaceOnUse"
       gradientTransform="matrix(2.1456312,0,0,2.3791388,158.0899,-7.7465258)" />
    <linearGradient
       x1="302.85715"
       y1="366.64789"
       x2="302.85715"
       y2="609.50507"
       id="linearGradient2483"
       xlink:href="#linearGradient5048"
       gradientUnits="userSpaceOnUse"
       gradientTransform="matrix(0.1725148,0,0,0.03920058,0.6482238,98.773724)" />
    <radialGradient
       cx="605.71429"
       cy="486.64789"
       r="117.14286"
       fx="605.71429"
       fy="486.64789"
       id="radialGradient2485"
       xlink:href="#linearGradient5060"
       gradientUnits="userSpaceOnUse"
       gradientTransform="matrix(-0.05903807,0,0,0.03920058,56.929907,98.773804)" />
    <radialGradient
       cx="605.71429"
       cy="486.64789"
       r="117.14286"
       fx="605.71429"
       fy="486.64789"
       id="radialGradient2487"
       xlink:href="#linearGradient5060"
       gradientUnits="userSpaceOnUse"
       gradientTransform="matrix(0.05903808,0,0,0.03920058,69.07008,98.773804)" />
    <linearGradient
       inkscape:collect="always"
       xlink:href="#linearGradient3924-3"
       id="linearGradient3937-7"
       x1="23.143536"
       y1="9.0272236"
       x2="23.143536"
       y2="38.04184"
       gradientUnits="userSpaceOnUse" />
    <linearGradient
       id="linearGradient3924-3">
      <stop
         id="stop3926-6"
         offset="0"
         style="stop-color:#000000;stop-opacity:1;" />
      <stop
         id="stop3928-5"
         offset="1"
         style="stop-color:#000000;stop-opacity:0.38759691;" />
    </linearGradient>
    <linearGradient
       inkscape:collect="always"
       xlink:href="#linearGradient3990-3"
       id="linearGradient3839"
       gradientUnits="userSpaceOnUse"
       x1="10.793174"
       y1="14.423345"
       x2="23.534342"
       y2="28.416178" />
    <linearGradient
       id="linearGradient3990-3">
      <stop
         style="stop-color:#000000;stop-opacity:0.37254903;"
         offset="0"
         id="stop3992-4" />
      <stop
         style="stop-color:#000000;stop-opacity:0;"
         offset="1"
         id="stop3994-4" />
    </linearGradient>
    <linearGradient
       inkscape:collect="always"
       xlink:href="#linearGradient3927"
       id="linearGradient3819"
       gradientUnits="userSpaceOnUse"
       gradientTransform="matrix(1.0234376,0,0,1.0236879,-0.92479045,-0.92370694)"
       x1="34.658031"
       y1="33.601665"
       x2="31.127357"
       y2="22.232906" />
    <linearGradient
       id="linearGradient3927">
      <stop
         id="stop3929"
         offset="0"
         style="stop-color:#ffffff;stop-opacity:0.28813559" />
      <stop
         style="stop-color:#ffffff;stop-opacity:0.8"
         offset="0.16901067"
         id="stop3931" />
      <stop
         id="stop3933"
         offset="1"
         style="stop-color:#ffffff;stop-opacity:0;" />
    </linearGradient>
    <linearGradient
       id="linearGradient3822">
      <stop
         style="stop-color:#a7a7a7;stop-opacity:1;"
         offset="0"
         id="stop3824" />
      <stop
         style="stop-color:#000000;stop-opacity:1;"
         offset="1"
         id="stop3826" />
    </linearGradient>
    <linearGradient
       y2="35.435268"
       x2="37.586456"
       y1="35.435268"
       x1="30.641865"
       gradientUnits="userSpaceOnUse"
       id="linearGradient3863"
       xlink:href="#linearGradient3822"
       inkscape:collect="always" />
  </defs>
  <g
     transform="matrix(1.0408163,0,0,0.6302428,-1.5714269,43.690218)"
     id="g2478">
    <rect
       width="83.299995"
       height="9.5201406"
       x="21.349998"
       y="113.14653"
       id="rect2879"
       style="opacity:0.3;fill:url(#linearGradient2483);fill-opacity:1;fill-rule:nonzero;stroke:none;stroke-width:1;marker:none;visibility:visible;display:inline;overflow:visible" />
    <path
       d="m 21.35,113.14694 c 0,0 0,9.51962 0,9.51962 -3.040314,0.0179 -7.35,-2.13287 -7.35,-4.76043 0,-2.62755 3.392762,-4.75919 7.35,-4.75919 z"
       id="path2881"
       style="opacity:0.3;fill:url(#radialGradient2485);fill-opacity:1;fill-rule:nonzero;stroke:none;stroke-width:1;marker:none;visibility:visible;display:inline;overflow:visible" />
    <path
       d="m 104.64999,113.14694 c 0,0 0,9.51962 0,9.51962 3.04032,0.0179 7.35001,-2.13287 7.35001,-4.76043 0,-2.62755 -3.39277,-4.75919 -7.35001,-4.75919 z"
       id="path2883"
       style="opacity:0.3;fill:url(#radialGradient2487);fill-opacity:1;fill-rule:nonzero;stroke:none;stroke-width:1;marker:none;visibility:visible;display:inline;overflow:visible" />
  </g>
  <path
     d="m 17.499961,1.499962 c 21.311039,0 42.622077,0 63.933118,0 3.738416,1.2619859 23.822451,15.639336 29.066961,25.594247 0,30.468614 0,60.937223 0,91.405831 -31.000026,0 -62.000051,0 -93.000079,0 0,-39.000023 0,-78.000052 0,-117.000078 z"
     id="path4160"
     style="fill:url(#linearGradient2465);fill-opacity:1;stroke:url(#linearGradient2467);stroke-width:0.99992192;stroke-linecap:butt;stroke-linejoin:round;stroke-miterlimit:4;stroke-opacity:1;stroke-dasharray:none;stroke-dashoffset:0;display:inline" />
  <path
     d="M 18.978723,118 C 18.439449,118 18,117.52697 18,116.94648 L 18,3.1668773 C 18,2.5853392 18.439449,2.1133645 18.978723,2.1133645 39.22709,2.4045657 61.66587,1.6777678 81.889633,2.1858707 L 109.71323,26.088148 110,116.94648 C 110,117.52697 109.56154,118 109.02128,118 l -90.042557,0 z"
     id="path4191"
     style="fill:url(#radialGradient2462);fill-opacity:1" />
  <path
     d="m 109.50003,26.517935 c 0,29.94778 0,61.034321 0,90.982105 -30.333353,0 -60.666712,0 -91.00007,0 0,-38.333364 0,-76.666721 0,-115.0000784 20.852737,0 42.202796,0 63.055535,0"
     id="path2435"
     style="opacity:0.6;fill:none;stroke:url(#linearGradient2459);stroke-width:0.99992174;stroke-linecap:butt;stroke-linejoin:round;stroke-miterlimit:4;stroke-opacity:1;stroke-dasharray:none;stroke-dashoffset:0;display:inline" />
  <path
     d="M 71.923062,1.8392376 C 84.951381,1.8392376 78.473694,27.646803 78.473694,27.646803 C 78.473694,27.646803 109.98379,20.457276 109.98379,33.209225 C 109.98379,33.209225 110.05573,27.150866 110.05573,27.150866 C 103.32475,20.41989 89.06065,7.2507492 79.88133,2.2376883 C 79.88133,2.2376883 71.923062,1.8392376 71.923062,1.8392376 L 71.923062,1.8392376 z"
     id="path3232"
     style="opacity:0.05;fill:#000000;fill-opacity:1;fill-rule:evenodd;stroke:none;display:inline"
     sodipodi:nodetypes="cccsscc" />
  <path
     d="M 74.395876,1.8392376 C 86.577743,1.8392376 80.520913,25.970079 80.520913,25.970079 C 80.520913,25.970079 109.98379,20.329555 109.98379,32.11062 C 111.54407,22.058999 83.996871,-1.2887721 74.395876,1.8392376 L 74.395876,1.8392376 z"
     id="path3230"
     style="opacity:0.1;fill:#000000;fill-opacity:1;fill-rule:evenodd;stroke:none;display:inline"
     sodipodi:nodetypes="ccccc" />
  <path
     d="M 30.770506,9.4044296 C 30.770506,9.4044296 41.128148,7.6020829 41.128148,12.223174 C 41.128148,9.6134507 35.296571,2.3137247 28.617256,0.92125832 C 31.864351,2.1641973 31.423163,6.3282809 30.770506,9.4044296 z"
     id="path12038"
     style="opacity:0.15;fill:#000000;fill-opacity:1;fill-rule:evenodd;stroke:none;display:inline"
     transform="matrix(2.6666667,0,0,2.6666667,0.3087257,-0.6174513)"
     sodipodi:nodetypes="cscc" />
  <path
     d="m 76.62141,1.8392376 c 8.497314,0 6.228693,20.4316764 6.228693,20.4316764 0,0 27.133687,-2.616144 27.133687,9.706766 0,-3.002504 0.2291,-5.152653 -0.35674,-6.089581 C 105.41822,19.156956 87.239007,4.052365 80.67425,2.0726634 80.182991,1.9245177 79.093706,1.8392376 76.62141,1.8392376 z"
     id="path4474"
     style="fill:url(#linearGradient2455);fill-opacity:1;fill-rule:evenodd;stroke:none;display:inline" />
  <g
     id="g3168"
     transform="matrix(2.206828,0,0,2.2026604,11.809555,6.575592)">
    <g
       id="layer1-7"
       transform="matrix(0.7400127,0,0,0.7400127,7.8444241,9.1459649)">
      <path
         inkscape:connector-curvature="0"
         id="path4323"
         d="m 36.943886,6.7968089 c -0.157078,0.077222 -0.296498,0.3277294 -0.432188,0.7348984 -0.361839,1.085785 -2.90791,8.5865417 -17.33072,8.9484697 C 12.298633,16.651365 9.3703212,10.60099 9.3703212,10.60099 l -0.1728749,7.781278 c 0,0 0.7397713,1.734074 -0.7347189,3.544803 C 8.3825784,21.801792 8.334663,21.660029 8.2466337,21.538008 7.7159378,20.802389 7.093816,20.183401 6.4314461,19.722376 5.6703811,19.192657 4.8787477,18.842912 4.0976334,18.728102 c -0.9005432,-0.132364 -1.7715733,0.0627 -2.4634688,0.561981 -0.69210616,0.499428 -1.09501379,1.264576 -1.25334389,2.161466 -0.13725792,0.777524 -0.0896357,1.618044 0.17287499,2.5073 0.22849391,0.774024 0.5932276,1.55551 1.1236876,2.291155 0.5603944,0.777156 1.258548,1.465348 1.9880627,1.945319 0.8227411,0.541308 1.6949827,0.858408 2.5499063,0.907816 0.2645554,0.01529 0.5348545,-0.04961 0.7779375,-0.08646 5.5372972,4.390835 16.5282672,8.488388 23.8135332,3.804181 0.157588,0.05364 -0.08485,0.367398 0.07356,0.422151 0.0039,0.075 -0.01968,0.149333 0,0.216147 l 0.34575,-0.129688 c 0.06152,0.01956 0.110043,0.06801 0.172875,0.08646 0.01346,0.004 0.02968,-0.0039 0.04322,0 l 0.129657,0.129687 3.284625,1.167192 c -0.13475,1.140796 0.544167,2.340038 1.973221,2.886964 2.573572,0.984956 5.702914,2.666051 5.702914,2.666051 -1.227624,-4.168174 -1.960249,-8.442781 -5.168432,-8.148284 -0.596913,0.0548 -1.223843,0.177608 -1.558902,0.526431 l -2.895657,-1.85886 -0.129656,0 -0.02833,0.436265 c 3.899384,-3.8385 6.1796,-11.05294 4.797282,-23.603209 -0.08,-0.627178 -0.343267,-0.9500602 -0.605064,-0.8213581 z"
         style="opacity:0.5;color:#000000;fill:url(#linearGradient3937-7);fill-opacity:1;fill-rule:nonzero;stroke:none;stroke-width:0.68663466;marker:none;visibility:visible;display:inline;overflow:visible;enable-background:accumulate"
         sodipodi:nodetypes="ssccccssssssssscccccccccscscccccs" />
    </g>
    <g
       style="color:#000000;fill:none;stroke:url(#linearGradient3839);stroke-width:0.61291862;stroke-linecap:butt;stroke-linejoin:miter;stroke-miterlimit:4;stroke-opacity:1;stroke-dasharray:none;stroke-dashoffset:0;marker:none;visibility:visible;display:inline;overflow:visible;enable-background:accumulate"
       id="layer1-7-5"
       transform="matrix(0.7400127,0,0,0.7400127,7.8444241,9.1459649)" />
    <path
       id="path4694-0"
       d="m 35.471209,13.727826 c -0.158314,-0.05543 -0.334401,-0.03946 -0.479736,0.03199 -0.376155,0.184915 -0.46313,0.462016 -0.575684,0.799759 -0.131994,0.396077 -0.616342,1.87846 -2.366699,3.326985 -1.750358,1.448526 -4.753911,2.843184 -10.010499,2.975093 -4.817141,0.11982 -6.844239,-4.062761 -6.844239,-4.062761 -0.16552,-0.397829 -0.907494,-0.238796 -0.895508,0.191941 l -0.12793,5.758245 c 0.007,0.06762 0.02898,0.133654 0.06396,0.191941 0,0 0.286337,0.693281 -0.159912,1.599511 -0.367858,-0.454626 -0.771621,-0.874806 -1.215332,-1.183638 -0.608587,-0.423591 -1.2511,-0.701594 -1.918946,-0.799756 -0.774252,-0.113796 -1.559078,0.03554 -2.1748047,0.479854 -0.6256416,0.451465 -0.9545992,1.135135 -1.0874024,1.887423 -0.1147719,0.65015 -0.084568,1.359527 0.1279297,2.079366 0.183095,0.620236 0.4706732,1.266272 0.8955079,1.855434 0.4457428,0.618158 1.0024909,1.142989 1.5991215,1.535532 0.665326,0.437739 1.381849,0.725635 2.11084,0.767766 0.206716,0.01196 0.340431,-0.03848 0.479736,-0.06398 2.106559,1.630147 5.127772,3.171849 8.347413,3.90281 3.183273,0.722705 6.348784,0.782638 9.131882,-0.863477 0.102925,0.200244 0.364548,0.302012 0.575684,0.223932 l 0.06396,-0.03199 0.03198,0 c 0.02708,0.03644 0.05952,0.06889 0.09595,0.09597 l 1.986627,0.767766 c 0.04531,0.92162 0.752157,1.800034 1.83809,2.215641 1.870505,0.715879 4.15764,1.966042 4.15764,1.966042 0.322389,0.179426 0.779954,-0.191075 0.671631,-0.543835 -0.449024,-1.524576 -0.887798,-3.372063 -1.425658,-4.437863 -0.268931,-0.532901 -0.63717,-1.147714 -1.108312,-1.457962 -0.471141,-0.310247 -0.966032,-0.591217 -1.640443,-0.529308 -0.390549,0.03585 -1.004408,0.148303 -1.284178,0.342066 l -1.221525,-0.80352 c 2.764467,-3.070052 3.949391,-8.301584 2.966513,-17.225276 -0.03644,-0.285733 -0.0969,-0.52631 -0.255859,-0.735778 -0.07948,-0.104734 -0.193492,-0.200486 -0.351798,-0.255923 z"
       style="opacity:0.5;color:#000000;fill:none;stroke:url(#linearGradient3819);stroke-width:0.45356759;stroke-linecap:butt;stroke-linejoin:miter;stroke-miterlimit:4;stroke-opacity:1;stroke-dasharray:none;stroke-dashoffset:0;marker:none;visibility:visible;display:inline;overflow:visible;enable-background:accumulate"
       inkscape:connector-curvature="0"
       sodipodi:nodetypes="ccssccccccsssssssccsccccccsccssscccsc" />
    <path
       inkscape:connector-curvature="0"
       style="opacity:0.1;color:#000000;fill:url(#linearGradient3863);fill-opacity:1;fill-rule:nonzero;stroke:none;stroke-width:1.10237157;marker:none;visibility:visible;display:inline;overflow:visible;enable-background:accumulate"
       d="m 30.641864,33.433814 c 0.116617,0.0397 -0.06279,0.271879 0.05444,0.312397 0.0029,0.05551 -0.01456,0.110509 0,0.159952 l 0.255859,-0.09597 c 0.04552,0.01447 0.08144,0.05033 0.12793,0.06399 0.01,0.003 0.02196,-0.0029 0.03198,0 l 0.09595,0.09597 2.430664,0.863736 c -0.09972,0.844204 0.40269,1.731658 1.460208,2.13639 1.904477,0.728881 4.220229,1.972912 4.220229,1.972912 -0.908457,-3.084502 -1.450609,-6.247765 -3.824705,-6.029834 -0.441723,0.04055 -0.90566,0.131433 -1.153607,0.389566 l -2.142823,-1.37558 -0.09595,0 -0.02096,0.322841"
       id="path3104" />
  </g>
</svg>
